<svg id="svg" version="1.1" xmlns="http://www.w3.org/2000/svg" xmlns:xlink="http://www.w3.org/1999/xlink" width="400" height="400" viewBox="0, 0, 400,400"><g><path d="M104.159,74.5c-1.062.935-2.525,2.33-3.251,3.1-.725.77-1.497,1.58-1.715,1.8s-.891.925-1.495,1.567c-1.303,1.385-8.802,9.15-10.388,10.757-3.561,3.605-4.845,4.87-5.881,5.79-.566.503-1.029,1.138-1.029,1.412c0,.273-.383.762-.85,1.086-2.414,1.67-2.446,1.727-2.469,4.411-.032,3.519.472,5.977,1.224,5.977.743,0,3.295,2.65,3.295,3.421c0,.31.457.678,1.016.819c1.006.252,2.984,2.426,2.984,3.279c0,.244.601.728,1.334,1.077.746.353,1.716,1.311,2.198,2.169.475.845,1.389,1.754,2.031,2.02.66.273,1.385,1.007,1.666,1.684.273.66,1.202,1.645,2.063,2.189.87.549,1.745,1.501,1.968,2.142.245.702.978,1.45,1.871,1.91.875.451,1.742,1.326,2.145,2.164.407.851,1.169,1.613,1.921,1.925.738.306,1.546,1.105,1.984,1.963.493.967,1.197,1.614,2.118,1.947.89.322,1.649,1,2.14,1.912.451.838,1.168,1.512,1.761,1.655c1.16.279,3.051,1.491,4.2,2.691.833.871,3.468,2.233,4.318,2.233.533,0,2.681,1.855,2.683,2.316c0,.156,1.485.63,3.3,1.052c3.993.93,6.498,1.945,6.996,2.834.297.53,1.67.782,6.937,1.269c8.354.773,8.248.75,9.648,2.149.649.649,1.453,1.18,1.788,1.18.754,0,2.93,2.275,2.93,3.063c0,.318.604.83,1.341,1.138c1.33.556,2.657,2.094,2.662,3.085.001.283.541.821,1.2,1.195c2.526,1.438,2.625,4.616.195,6.271-.769.523-1.398,1.204-1.398,1.514c0,.928-1.276,2.583-2.289,2.968-.522.198-1.198.954-1.501,1.68-.303.725-1.539,2.426-2.746,3.779s-2.324,2.867-2.482,3.365c-.338,1.065-.861,1.635-2.117,2.307-.504.27-1.255,1.278-1.667,2.24-.451,1.052-1.199,1.982-1.875,2.331-.81.419-1.281,1.115-1.687,2.488-.339,1.147-1.174,2.536-2.099,3.489-.845.871-1.537,1.742-1.537,1.935c0,.194-.16.352-.355.352-.196,0-.467.585-.603,1.3-.161.851-.695,1.607-1.544,2.189-.949.65-1.501,1.51-2.051,3.195-.466,1.426-1.247,2.766-2.046,3.511-1.489,1.388-2.201,2.606-2.201,3.765c0,.447-.518,1.403-1.152,2.126-1.556,1.775-2.667,3.824-2.988,5.514-.162.853-.718,1.757-1.422,2.312-.797.629-1.44,1.78-2.071,3.703-.634,1.933-1.322,3.162-2.241,3.998-.803.73-1.326,1.588-1.326,2.173c0,.532-.156,1.063-.346,1.181-.19.117-.451.861-.58,1.652-.134.828-.802,2.069-1.573,2.922-1.005,1.112-1.519,2.241-2.054,4.514-.515,2.186-1.073,3.447-2.003,4.523-1.249,1.445-1.948,3.227-2.472,6.296-.138.811-.837,2.161-1.552,3-1.052,1.234-1.434,2.215-1.997,5.126-.525,2.714-.988,3.969-1.879,5.101-1.27,1.612-2.331,4.556-2.342,6.499-.01,1.879-.745,4.071-1.776,5.296-.98,1.165-1.989,4.716-2.416,8.504-.255,2.264-.995,4.8-1.399,4.8-1.332,0-3.216,11.056-2.011,11.8.22.136.405.552.411.924.046,2.813,9.345,4.635,11.455,2.245.976-1.106,3.866-2.027,8.734-2.785c2.904-.452,4.178-.832,4.651-1.387.866-1.017,3.027-1.809,7.149-2.621c2.579-.507,3.716-.946,4.707-1.817.719-.631,1.799-1.252,2.4-1.381.601-.128,1.506-.401,2.012-.606.505-.204,1.55-.372,2.322-.372c1.035,0,1.687-.305,2.482-1.16c1.081-1.164,2.882-1.917,6.762-2.825c1.296-.303,2.165-.741,2.297-1.159.274-.864,2.191-1.848,5.218-2.68c1.32-.363,2.67-.968,3-1.344.982-1.119,2.471-1.88,4.736-2.42c1.192-.284,2.64-.974,3.278-1.56c1.885-1.736,2.095-1.857,4.505-2.612c1.388-.435,2.553-1.084,2.902-1.616.583-.89,3.476-2.381,5.406-2.787.564-.118,1.259-.65,1.544-1.182.284-.532.947-1.167,1.473-1.411c1.608-.747,2.711-1.181,3.744-1.474.544-.154,1.534-.866,2.2-1.583.667-.717,2.029-1.602,3.026-1.967.998-.365,1.988-1.037,2.2-1.494.386-.831,2.76-2.346,4.582-2.925c1.079-.342,2.004-1.142,2.004-1.733c0-.472,2.625-2.068,3.4-2.068.305,0,.867-.528,1.248-1.173.381-.646,1.487-1.582,2.457-2.081s2.107-1.343,2.526-1.876s1.798-1.65,3.065-2.482s2.89-2.146,3.607-2.92c.717-.773,1.842-1.524,2.501-1.669.819-.18,1.274-.57,1.441-1.235.263-1.049,1.862-2.378,3.155-2.621.463-.088.854-.529.928-1.048.156-1.092,2.222-2.712,3.917-3.071.685-.145,1.629-.705,2.097-1.244c1.053-1.21,1.401-1.222,2.339-.08.406.495,1.544,1.528,2.529,2.295.984.767,2.24,1.935,2.79,2.596s1.564,1.744,2.253,2.406c1.833,1.759,2.475,2.95,3.367,6.249.439,1.625.96,3.314,1.156,3.754.56,1.254,1.137,4.145,1.436,7.2.464,4.74,1.65,9,2.504,9c.378,0,1.007,1.59,1.898,4.8.467,1.68,1.147,3.036,1.924,3.832c1.117,1.146,2.625,4.696,2.651,6.241.006.37.408.799.892.953c1.211.384,1.721.962,2.715,3.076.47,1,1.196,1.907,1.614,2.017.418.109,1.239.991,1.824,1.961.586.969,1.586,2.061,2.222,2.426.637.366,1.28.986,1.429,1.379.15.393.803,1.165,1.453,1.715.649.55,1.429,1.27,1.732,1.6c1.287,1.399,14.225,14.79,17.53,18.143l3.6,3.653l3.156.147c3.13.146,3.167.136,4.489-1.198.734-.74,1.654-1.636,2.045-1.992.534-.487,8.537-8.804,10.436-10.847.151-.162.904-.92,1.674-1.684s1.794-1.802,2.276-2.306s1.382-1.425,2-2.047c.618-.621,1.503-1.521,1.967-2c.463-.478,1.31-1.229,1.881-1.669.572-.44,1.047-.994,1.058-1.23.024-.572,1.745-2.17,2.336-2.17.658,0,1.078-1.795,1.074-4.6-.004-3.487-.477-5.4-1.335-5.4-.875,0-2.857-2.01-2.857-2.896c0-.359-.713-1.054-1.586-1.544-.872-.49-1.85-1.447-2.173-2.126-.324-.678-1.221-1.572-1.994-1.986-.773-.413-1.678-1.326-2.011-2.029-.333-.702-1.239-1.618-2.012-2.034-.898-.483-1.618-1.288-1.993-2.224-.409-1.023-.961-1.598-1.823-1.898-.84-.293-1.426-.887-1.832-1.858-.391-.938-1.084-1.66-2.018-2.106-.888-.423-1.627-1.168-1.968-1.984-.345-.826-1.081-1.562-2-2-.933-.445-1.655-1.174-2.014-2.033-.397-.952-1.009-1.516-2.112-1.95-1.023-.402-1.758-1.04-2.154-1.871-.413-.865-1.089-1.432-2.156-1.806-.855-.299-2.274-1.222-3.154-2.049-.88-.828-2.5-1.822-3.6-2.208-1.1-.387-2.513-1.243-3.14-1.902-1.103-1.159-2.042-1.531-5.86-2.319-1.64-.339-3.495-1.07-4-1.576-1.498-1.503-3.072-1.849-10.712-2.358-5.272-.352-5.325-.365-7.165-1.799-1.02-.794-2.003-1.444-2.186-1.444-.649,0-2.276-1.704-2.508-2.627-.141-.561-.822-1.217-1.694-1.631-1.012-.48-1.636-1.145-2.04-2.172-.32-.817-1.02-1.681-1.559-1.926-1.29-.588-2.264-2.887-1.747-4.125.53-1.269,1.412-2.319,1.947-2.319.247,0,.857-.843,1.356-1.874.5-1.031,1.26-2.066,1.691-2.3c1.163-.633,1.683-1.174,1.962-2.045.138-.429.701-1.304,1.253-1.943.551-.639,1.002-1.302,1.002-1.473s.329-.416.732-.543c.402-.128,1.123-.995,1.602-1.927c1.091-2.124,1.587-2.727,2.966-3.61.605-.387,1.1-.987,1.1-1.333c0-1.091,1.305-2.892,2.271-3.134.511-.128.929-.466.929-.751c0-.842,2.041-4.84,2.651-5.19c1.074-.619,2.111-1.992,2.36-3.127.138-.629.85-1.639,1.582-2.246.873-.724,1.57-1.836,2.023-3.228.428-1.313,1.351-2.832,2.416-3.975c1.106-1.188,1.81-2.365,1.966-3.287.142-.843.802-2.029,1.601-2.875.76-.806,1.707-2.473,2.15-3.787.436-1.291,1.332-2.914,1.991-3.607c1.1-1.155,2.46-4.206,2.46-5.518c0-.299.594-1.065,1.319-1.702.913-.801,1.539-1.893,2.033-3.542.936-3.126,1.876-4.938,2.697-5.198.365-.116.761-.7.878-1.298.713-3.61,1.306-5.287,2.436-6.887c1.409-1.993,2.062-3.496,2.435-5.6.319-1.797.943-3.146,2.035-4.4c1.009-1.159,1.602-2.933,1.98-5.92.176-1.396.703-2.767,1.544-4.017c1.65-2.45,2.128-3.74,2.447-6.592.296-2.641.982-4.497,2.102-5.687.893-.948,1.205-2.065,1.725-6.184.471-3.733,1.454-6.778,2.448-7.585c1.075-.873,1.828-8.01,1.16-10.996-.988-4.414-7.104-5.676-12.239-2.526-1.936,1.188-3.019,1.549-5.6,1.863-4.953.603-6.363,1.017-8.044,2.358-1.136.907-2.15,1.313-3.756,1.505-3.491.415-5.961,1.264-7.426,2.55-.746.655-2.036,1.312-2.865,1.459-3.687.653-5.862,1.424-7.111,2.52-.736.646-1.937,1.29-2.668,1.429-3.304.631-4.648,1.167-6.13,2.448-.875.756-2.223,1.48-2.995,1.61-1.896.318-3.914,1.261-5.611,2.62-.773.62-2.033,1.251-2.8,1.402-2.14.422-3.416,1.052-4.946,2.445-.786.715-2.229,1.483-3.286,1.749-1.267.319-2.366.97-3.351,1.986-1.059,1.091-2.159,1.712-3.963,2.237-1.817.528-2.752,1.058-3.432,1.946-.661.862-1.665,1.449-3.424,2-1.813.568-2.76,1.132-3.486,2.077-.619.806-1.584,1.455-2.549,1.715-1.425.383-3.157,1.72-3.157,2.436c0,.163-1.326.934-2.947,1.714-1.621.779-3.248,1.876-3.616,2.437-.367.561-1.383,1.306-2.258,1.656-.874.35-1.964,1.163-2.423,1.807-.458.644-1.6,1.53-2.536,1.971-.936.44-1.92,1.207-2.187,1.705s-1.508,1.513-2.759,2.256c-2.107,1.251-3.67,2.597-3.677,3.167-.003.351-2.37,1.639-3.011,1.639-.301,0-.861.658-1.242,1.462-.466.981-1.177,1.668-2.164,2.089-.881.377-1.772,1.174-2.225,1.994-.503.91-1.289,1.568-2.355,1.97-.88.333-2.173,1.028-2.873,1.545-1.622,1.198-1.536,1.211-3.506-.56-.918-.825-2.108-1.875-2.645-2.333s-1.641-1.565-2.455-2.46c-.813-.894-1.623-1.689-1.8-1.767-.64-.279-2.551-3.59-2.8-4.849-.14-.71-.589-1.746-.997-2.302-.732-.996-1.053-2.741-2.534-13.77-.511-3.802-.8-4.891-1.413-5.32-1.08-.756-1.574-1.811-2.375-5.068-.525-2.131-1.044-3.196-2.099-4.306-.901-.948-1.661-2.34-2.128-3.9-.399-1.334-.931-2.425-1.181-2.425-.608,0-1.831-1.46-2.757-3.292-.415-.82-1.099-1.601-1.521-1.735-.421-.133-1.311-1.127-1.976-2.208s-1.451-1.965-1.747-1.965-.945-.585-1.441-1.3-1.453-1.788-2.127-2.385c-.674-.596-1.362-1.226-1.529-1.4-2.021-2.094-8.66-9.063-9.732-10.215-.768-.825-1.557-1.5-1.753-1.5s-.461-.328-.589-.729c-.314-.99-8.138-8.742-9.568-9.48-2.294-1.184-4.736-.791-6.895,1.109m126.89,81.919c.606.23,1.343.763,1.638,1.184s1.171.884,1.947,1.03c2.408.451,5.66,4.077,6.374,7.107c1.397,5.923.276,17.262-1.993,20.175-.736.945-1.65,2.759-2.031,4.031-.53,1.769-1.01,2.53-2.039,3.235-.74.507-1.345,1.236-1.345,1.62c0,1.355-1.589,4.217-3.146,5.667-.867.808-1.69,1.985-1.829,2.617-.163.743-.715,1.397-1.567,1.856-.794.427-1.504,1.23-1.792,2.026-1.374,3.802-8.002,3.734-9.979-.102-.415-.806-1.226-1.696-1.803-1.978-1.447-.709-2.533-2.369-2.87-4.387-.157-.935-.448-1.7-.649-1.7s-.365-.27-.365-.6.16-.6.357-.6c.196,0,.475-.473.62-1.051.344-1.372,1.809-3.508,3.103-4.526.565-.444,1.313-1.486,1.663-2.316.768-1.821,1.429-2.671,2.345-3.015.379-.142.801-.76.938-1.375.807-3.609,1.905-5.717,2.976-5.717.738,0,1.393-1.565.873-2.085-.559-.559-3.469.57-4.976,1.93-.826.745-1.762,1.355-2.081,1.355-1.093,0-2.53.888-2.958,1.828-.235.517-1.151,1.308-2.034,1.759-.884.45-2.508,1.62-3.61,2.599-3.388,3.009-4.457,3.263-8.282,1.97-1.648-.557-2.242-1.01-2.928-2.232-.474-.843-1.388-1.804-2.03-2.136-3.913-2.024-3.919-10.188-.007-10.188.557,0,.831-.257.831-.78c0-.873,2.311-2.82,3.348-2.82.369,0,.829-.412,1.02-.916.451-1.187,1.218-1.802,3.648-2.928c1.091-.506,1.984-1.101,1.984-1.323c0-.606,2.8-2.396,4.445-2.842.794-.216,2.067-.98,2.829-1.698c1.332-1.256,2.988-1.857,6.886-2.496.857-.14,1.847-.6,2.2-1.022c1.142-1.367,7.775-2.112,10.289-1.156M183.44,191.463c.549.36,1.237,1.227,1.53,1.927.327.783,1.077,1.531,1.949,1.945c1.105.524,1.565,1.091,2.085,2.569.367,1.043.894,2.432,1.171,3.088.58,1.373-1.389,5.141-3.951,7.562-.725.685-1.447,1.831-1.603,2.546-.157.715-.422,1.3-.591,1.3-1.244,0-2.989,3.142-3.781,6.806-.14.65-.648,1.169-1.433,1.466-2.086.787-1.71,2.309.484,1.96.935-.148,1.76-.441,1.833-.651.074-.209.318-.381.543-.381s.729-.407,1.12-.904c.392-.498,1.614-1.229,2.718-1.626c1.246-.448,2.081-1.009,2.205-1.481.109-.417,1.053-1.26,2.099-1.874c1.045-.613,2.424-1.615,3.066-2.226c4.211-4.012,9.946-3.908,11.916.218.33.691,1.14,1.543,1.8,1.893c3.62,1.919,4.148,8.427.798,9.827-.743.31-1.586,1.061-1.874,1.668-.298.628-1.247,1.45-2.199,1.905-.983.469-1.97,1.337-2.391,2.1-.394.715-.873,1.3-1.065,1.3-.789,0-3.317,1.434-3.97,2.252-.761.952-4.47,2.948-5.478,2.948-.341,0-1.161.626-1.821,1.39-1.069,1.239-1.605,1.473-4.907,2.144-2.157.439-4.05,1.065-4.529,1.499-2.098,1.898-8.238,2.356-10.405.776-.747-.546-1.809-1.199-2.359-1.453-2.605-1.2-3.6-1.762-3.6-2.031c0-.161-.699-.94-1.554-1.731-3.824-3.537-3.694-20.396.184-23.994.474-.441.999-1.431,1.166-2.2.496-2.287,1.863-4.844,2.824-5.282.505-.23.997-.902,1.123-1.534.401-2.005,1.865-4.653,2.869-5.191.539-.288,1.346-1.281,1.794-2.206.854-1.763,1.723-2.698,2.894-3.114.385-.136.7-.552.7-.923s.477-1.3,1.06-2.064l1.06-1.39l2.761.257c1.519.141,3.211.551,3.759.91" fill="#e0d7d7" fill-rule="evenodd"/><path d="M158,0.976v.976l-7.568.124c-8.401.138-8.015.032-8.318,2.291L141.895,6h-5.468C130.32,6,130,6.124,130,8.48v1.52h-4.774c-5.974,0-6.729.255-7.07,2.388L117.898,14h-3.321c-3.81,0-4.577.441-4.577,2.629v1.371h-3.371c-3.843,0-4.629.436-4.629,2.569v1.312l-3.248.251c-3.671.283-4.255.599-4.429,2.398-.117,1.21-.218,1.28-2.123,1.47l-2,.2-.122,1.9-.122,1.9h-3.349C82.773,30,82,30.438,82,32.607c0,1.326-.033,1.351-1.9,1.471l-1.9.122-.122,1.9-.122,1.9-1.878.019c-2.477.026-4.538,1.064-5.23,2.635-.473,1.073-.808,1.283-2.32,1.453-2.151.242-2.143.235-2.414,2.26C65.908,45.903,65.816,46,64.576,46C62.883,46,62,46.901,62,48.629C62,49.95,61.944,50,60.48,50c-1.916,0-2.48.564-2.48,2.48c0,1.493-.027,1.52-1.52,1.52-1.916,0-2.48.564-2.48,2.48c0,1.493-.027,1.52-1.52,1.52-1.916,0-2.48.564-2.48,2.48c0,1.464-.05,1.52-1.371,1.52C46.901,62,46,62.883,46,64.577c0,1.233-.107,1.338-1.612,1.579C42.7,66.425,42,67.364,42,69.355c0,.71-.319.983-1.489,1.274-1.699.423-2.424,2.016-2.48,5.449L38,77.956l-1.9.122-1.9.122-.122,1.9c-.12,1.867-.145,1.9-1.471,1.9C30.624,82,30,82.85,30,85.554c0,2.455-1.148,4.181-3,4.511-.644.114-.824.508-.921,2.019-.12,1.858-.139,1.881-1.798,2.209-1.923.38-2.152.915-2.234,5.207L22,102h-1.371c-2.195,0-2.629.763-2.629,4.629v3.371h-1.371c-2.188,0-2.629.767-2.629,4.577v3.321l-1.612.258c-2.133.341-2.388,1.096-2.388,7.07v4.774h-1.52c-2.359,0-2.48.316-2.48,6.48v5.52h-1.371C2.12,142,2,142.395,2,150.629L2,158h-1-1v42v42h.976.976l.124,7.568c.138,8.401.032,8.015,2.291,8.318L6,258.105v5.319C6,269.407,6.237,270,8.629,270h1.371v4.774c0,5.948.26,6.73,2.349,7.064l1.575.252.138,3.522c.158,4.035.13,3.983,2.305,4.274l1.633.219v3.319c0,3.808.441,4.576,2.629,4.576h1.371l.047,2.3c.088,4.284.447,4.979,2.831,5.478.964.202,1.091.427,1.2,2.124L26.2,309.8l1.9.122l1.9.122v3.349c0,3.834.438,4.607,2.607,4.607c1.326,0,1.351.033,1.471,1.9l.122,1.9l1.9.122l1.9.122.031,1.878c.056,3.433.781,5.026,2.48,5.449c1.17.291,1.489.564,1.489,1.274c0,1.991.7,2.93,2.388,3.199c1.505.241,1.612.346,1.612,1.579c0,1.694.901,2.577,2.629,2.577c1.321,0,1.371.056,1.371,1.52c0,1.916.564,2.48,2.48,2.48c1.493,0,1.52.027,1.52,1.52c0,1.916.564,2.48,2.48,2.48c1.493,0,1.52.027,1.52,1.52c0,1.916.564,2.48,2.48,2.48c1.464,0,1.52.05,1.52,1.371c0,1.743.886,2.629,2.629,2.629c1.257,0,1.371.1,1.371,1.2c0,1.599,1.256,2.8,2.928,2.8c1.114,0,1.42.209,1.9,1.3.713,1.619,2.741,2.655,5.25,2.681l1.878.019.122,1.9.122,1.9l1.9.122c1.867.12,1.9.145,1.9,1.471c0,2.169.773,2.607,4.607,2.607h3.349l.122,1.9.122,1.9l1.898.122c1.697.109,1.922.236,2.124,1.2.499,2.384,1.194,2.743,5.478,2.831L102,378v1.371c0,2.188.768,2.629,4.576,2.629h3.319l.219,1.633c.291,2.175.239,2.147,4.274,2.305l3.522.138.252,1.575c.334,2.089,1.116,2.349,7.064,2.349h4.774v1.371c0,2.396.588,2.629,6.629,2.629h5.371v1.2c0,2.556.768,2.8,8.8,2.8h7.2v1v1h42h42v-1-1h7.371c8.234,0,8.629-.12,8.629-2.629v-1.371h5.371c6.041,0,6.629-.233,6.629-2.629v-1.371h4.774c5.948,0,6.73-.26,7.064-2.349l.252-1.575l3.522-.138c4.035-.158,3.983-.13,4.274-2.305l.219-1.633h3.319c3.808,0,4.576-.441,4.576-2.629v-1.371l2.3-.047c4.284-.088,4.979-.447,5.478-2.831.202-.964.427-1.091,2.124-1.2l1.898-.122.122-1.9.122-1.9h3.349c3.834,0,4.607-.438,4.607-2.607c0-1.326.033-1.351,1.9-1.471l1.9-.122.122-1.9.122-1.9l1.878-.031c3.433-.056,5.026-.781,5.449-2.48.334-1.346.498-1.489,1.7-1.489c1.673,0,2.929-1.2,2.929-2.8c0-1.1.114-1.2,1.371-1.2c1.743,0,2.629-.886,2.629-2.629c0-1.321.056-1.371,1.52-1.371c1.916,0,2.48-.564,2.48-2.48c0-1.493.027-1.52,1.52-1.52c1.916,0,2.48-.564,2.48-2.48c0-1.493.027-1.52,1.52-1.52c1.916,0,2.48-.564,2.48-2.48c0-1.464.05-1.52,1.371-1.52c1.728,0,2.629-.883,2.629-2.576c0-1.24.097-1.332,1.633-1.538c2.026-.271,2.018-.262,2.261-2.422.178-1.578.339-1.815,1.453-2.134c1.567-.449,2.349-1.97,2.576-5.01l.17-2.28l1.854-.12l1.853-.12.122-1.9c.12-1.867.145-1.9,1.471-1.9c2.169,0,2.607-.773,2.607-4.607v-3.349l1.9-.122l1.9-.122.121-1.881c.12-1.861.138-1.884,1.798-2.212c1.923-.38,2.152-.915,2.234-5.207L378,298h1.371c2.195,0,2.629-.763,2.629-4.629v-3.371h1.371c2.188,0,2.629-.767,2.629-4.577v-3.321l1.612-.258c2.133-.341,2.388-1.096,2.388-7.07v-4.774h1.371c2.392,0,2.629-.593,2.629-6.576v-5.319l1.633-.219c2.259-.303,2.153.083,2.291-8.318l.124-7.568h.976.976v-42-42h-.976-.976l-.124-7.568c-.138-8.401-.032-8.015-2.291-8.318L394,141.895v-5.468c0-6.107-.124-6.427-2.48-6.427h-1.52v-4.774c0-5.974-.255-6.729-2.388-7.07L386,117.898v-3.321c0-3.81-.441-4.577-2.629-4.577h-1.371v-3.371c0-3.866-.434-4.629-2.629-4.629h-1.371l-.047-2.5c-.082-4.292-.311-4.827-2.234-5.207-1.66-.328-1.678-.351-1.798-2.212L373.8,90.2l-1.9-.122-1.9-.122v-3.349c0-3.834-.438-4.607-2.607-4.607-1.326,0-1.351-.033-1.471-1.9l-.122-1.9-1.9-.122-1.9-.122-.031-1.878c-.055-3.398-.785-5.027-2.435-5.437-1.338-.334-1.458-.488-1.642-2.12-.241-2.143-.234-2.136-2.259-2.407-1.536-.206-1.633-.298-1.633-1.538c0-1.693-.901-2.576-2.629-2.576-1.321,0-1.371-.056-1.371-1.52c0-1.916-.564-2.48-2.48-2.48-1.493,0-1.52-.027-1.52-1.52c0-1.916-.564-2.48-2.48-2.48-1.493,0-1.52-.027-1.52-1.52c0-1.916-.564-2.48-2.48-2.48-1.464,0-1.52-.05-1.52-1.371c0-1.728-.883-2.629-2.576-2.629-1.24,0-1.332-.097-1.538-1.633-.271-2.025-.264-2.018-2.407-2.259-1.632-.184-1.786-.304-2.12-1.642-.41-1.65-2.039-2.38-5.437-2.435L322.044,38l-.122-1.9-.122-1.9-1.9-.122c-1.867-.12-1.9-.145-1.9-1.471c0-1.983-.85-2.607-3.554-2.607-2.455,0-4.181-1.148-4.511-3-.114-.644-.508-.824-2.019-.921-1.858-.12-1.881-.139-2.209-1.798-.38-1.923-.915-2.152-5.207-2.234L298,22v-1.371c0-2.195-.763-2.629-4.629-2.629L290,18v-1.371c0-2.188-.767-2.629-4.577-2.629h-3.321l-.258-1.612c-.341-2.133-1.096-2.388-7.07-2.388L270,10v-1.52c0-2.359-.316-2.48-6.48-2.48L258,6v-1.371C258,2.12,257.605,2,249.371,2L242,2v-1-1h-42-42v.976M110.4,70c0,.22.37.4.822.4c1.609,0,4.414,1.615,5.241,3.017.446.755,1.479,1.749,2.297,2.209.84.471,1.679,1.341,1.926,1.996.241.638,1.091,1.546,1.89,2.017.799.472,1.714,1.362,2.034,1.98.319.617,1.298,1.63,2.176,2.251.879.622,1.607,1.31,1.619,1.53.025.464,1.411,2.2,1.756,2.2.463,0,2.239,1.755,2.239,2.212c0,.258.576.9,1.28,1.428s1.559,1.282,1.9,1.675s1.61,1.758,2.82,3.032c4.522,4.764,6.447,7.09,7.108,8.588.374.848,1.162,1.791,1.751,2.096.74.382,1.279,1.177,1.74,2.567.442,1.329,1.118,2.355,1.989,3.02c1.072.817,1.46,1.546,2.064,3.874.409,1.577,1.104,3.24,1.546,3.695c1.634,1.686,1.843,2.218,2.544,6.471.54,3.277.988,4.755,1.822,6.016c1.178,1.78,1.796,5.008,1.825,9.526.022,3.501.622,5.282,2.023,6.006.646.334,1.445,1.131,1.776,1.771s1.32,1.672,2.198,2.293c.879.622,1.601,1.324,1.605,1.56.014.67,1.896,2.277,2.162,1.846.13-.211,1.049-.505,2.042-.654c1.079-.162,1.805-.481,1.805-.793c0-.908,1.623-2.628,3.037-3.219.75-.313,1.363-.824,1.363-1.135c0-.813,1.977-2.675,2.84-2.675.403,0,.943-.405,1.2-.9.615-1.181,1.474-1.943,3.171-2.81.764-.391,1.676-1.201,2.027-1.8.351-.6,1.495-1.54,2.542-2.09s2.685-1.743,3.639-2.651c1.053-1.002,2.286-1.755,3.133-1.914c1.036-.194,1.428-.49,1.522-1.148.087-.612.828-1.26,2.39-2.089c1.244-.661,2.729-1.705,3.298-2.319c1.03-1.112,3.896-2.64,5.038-2.686.33-.013.962-.602,1.404-1.308.592-.947,1.409-1.494,3.102-2.078c1.265-.436,2.391-1.083,2.504-1.438.232-.731,3.754-2.58,5.635-2.958.755-.152,1.409-.612,1.663-1.169.463-1.017,3.142-2.428,5.421-2.855.809-.152,1.471-.495,1.471-.762c0-1.039,1.978-2.27,4.714-2.935c1.902-.462,2.899-.908,3.016-1.349.274-1.04,1.942-1.917,5.023-2.64c1.794-.421,2.919-.898,3.044-1.292.183-.576,1.263-1.237,3.803-2.325.55-.236,1.846-.541,2.88-.678c1.276-.169,1.95-.469,2.098-.935.357-1.126,3.037-2.306,6.563-2.888c1.177-.195,2.437-.68,2.8-1.079c1.443-1.586,3.658-2.407,8.458-3.135c1.051-.159,2.013-.579,2.314-1.009.915-1.307,3.791-2.217,9.487-3.002c1.286-.177,2.193-.549,2.54-1.042c2.136-3.029,17.652-3.914,20.454-1.167c1.565,1.533,2.343,6.691,1.667,11.051-.239,1.54-.624,4.488-.857,6.552-.4,3.545-1.196,5.581-2.542,6.507-.368.253-.604,1.369-1.446,6.856-.4,2.603-1.077,4.125-2.454,5.516-.35.354-.758,1.668-.905,2.92-.435,3.707-1.162,5.828-2.553,7.453-.954,1.115-1.369,2.056-1.528,3.463-.419,3.725-1.722,6.89-2.849,6.92-.529.014-.743.609-1.143,3.172-.373,2.395-1.106,3.997-2.533,5.538-.816.882-1.292,1.905-1.486,3.194-.382,2.552-1.156,4.298-2.553,5.759-.64.67-1.276,1.787-1.413,2.484-.43,2.187-1.128,3.623-2.402,4.942-.74.767-1.521,2.245-1.959,3.706-.478,1.596-1.107,2.737-1.832,3.324-.735.595-1.391,1.8-1.963,3.602-.839,2.646-1.682,3.914-2.917,4.388-.342.132-.73.967-.877,1.89-.303,1.894-1.998,4.68-3.049,5.014-.426.135-.883.908-1.139,1.922-.248.988-.951,2.192-1.685,2.887-.692.655-1.697,2.181-2.235,3.391-.537,1.21-1.689,2.854-2.559,3.654-.87.799-1.582,1.789-1.582,2.2-.001.871-1.485,2.685-2.509,3.065-.39.144-.807.582-.926.972-.501,1.644-1.493,3.225-3.157,5.036-.974,1.06-1.893,2.312-2.042,2.782-.31.974-.728,1.421-2.23,2.382-.586.374-1.268,1.298-1.518,2.054-.308.933-.845,1.535-1.678,1.88-.867.359-1.453,1.043-2.003,2.341-.428,1.009-1.159,2.127-1.624,2.486l-.846.652.823.261c.477.151,1.166,1.055,1.639,2.148.552,1.277,1.189,2.049,1.97,2.388.635.276,1.535,1.177,1.999,2.004.853,1.517,3.755,2.659,8.836,3.474.733.118,1.823.563,2.421.989.663.472,2.094.871,3.666,1.022c6.386.613,8.81,1.332,10.379,3.077.33.367,1.507.852,2.615,1.078c2.884.587,3.842,1.014,5.269,2.347.694.648,2.129,1.502,3.189,1.897c2.089.778,3.727,2.041,3.727,2.873c0,.288.495.642,1.1.789c1.602.387,3.177,1.604,3.441,2.658.15.596.687,1.053,1.533,1.304.805.239,1.691.963,2.317,1.892.558.828,1.601,1.862,2.317,2.298.716.435,1.588,1.39,1.937,2.121.356.749,1.118,1.513,1.741,1.748.721.272,1.363.996,1.838,2.073.459,1.041.992,1.655,1.437,1.655.881,0,2.3,1.45,2.813,2.875.256.712.775,1.16,1.538,1.328.637.139,1.261.598,1.397,1.025.135.425.413.772.618.772s.373.369.373.82c0,.553.438,1.004,1.341,1.381c1.362.569,2.659,2.102,2.659,3.142c0,.313.465.687,1.034.83c1.231.309,2.966,2.071,2.966,3.013c0,.37.579.926,1.294,1.242.99.438,1.467,1.041,2.034,2.572.408,1.1,1.059,2.653,1.447,3.451.597,1.228.626,1.598.19,2.4-.284.522-.639,1.669-.788,2.549-.48,2.814-5.35,8.998-10.869,13.8-.379.33-1.233,1.178-1.899,1.884-.665.706-3.144,3.285-5.509,5.732s-4.3,4.615-4.3,4.817-.267.367-.594.367-1.272.876-2.1,1.946c-3.345,4.324-14.097,4.587-16.734.409-.532-.843-1.503-1.809-2.158-2.148-.655-.338-1.4-1.018-1.656-1.511-.257-.493-2.206-2.606-4.333-4.696s-4.176-4.295-4.555-4.9-.912-1.1-1.184-1.1c-.273,0-.852-.495-1.288-1.1-.435-.605-1.423-1.687-2.195-2.406-1.577-1.467-1.471-1.36-4.203-4.249-5.404-5.715-7.793-8.759-7.797-9.937-.002-.393-.411-.795-.946-.929-.946-.238-2.657-2.744-2.657-3.891c0-.332-.565-1.207-1.256-1.946-1.315-1.405-2.452-3.699-2.853-5.758-.131-.668-.854-1.869-1.607-2.668-1.402-1.486-1.458-1.672-2.29-7.65-.271-1.948-.667-3.075-1.377-3.918-1.309-1.556-1.701-3.161-2.202-9.017-.474-5.548-.595-6.007-1.667-6.347-.428-.136-1.228-.96-1.778-1.831-.549-.871-1.398-1.771-1.885-1.999-.487-.229-1.488-1.228-2.225-2.221-1.087-1.465-1.502-1.755-2.2-1.539-.473.147-1.388.393-2.034.547-.718.172-1.422.742-1.815,1.47-.353.654-1.376,1.549-2.274,1.989-1.07.524-1.785,1.213-2.076,2-.299.809-1.001,1.467-2.152,2.018-.962.461-1.939,1.296-2.236,1.911-.309.641-1.275,1.444-2.336,1.943-.996.468-1.987,1.239-2.203,1.714-.216.474-1.408,1.47-2.649,2.212s-2.736,1.84-3.323,2.441c-1.158,1.185-3.19,2.361-4.079,2.361-.306,0-.9.642-1.32,1.427-.516.965-1.13,1.502-1.894,1.657-.622.126-1.792.863-2.6,1.64-1.689,1.622-4.556,3.276-5.68,3.276-.452,0-1.028.502-1.398,1.217-.346.67-1.116,1.415-1.71,1.657-3,1.218-3.872,1.701-4.984,2.764-.666.636-2.197,1.468-3.402,1.848-1.408.444-2.331.993-2.578,1.536-.52,1.142-2.068,1.993-4.753,2.613-1.759.407-2.408.78-3.044,1.75-.768,1.172-2.422,1.918-6.12,2.763-.55.125-1.334.733-1.743,1.351-.72,1.087-4.206,2.501-6.168,2.501-.41,0-1.238.618-1.839,1.372-1.069,1.341-2.428,1.898-6.097,2.499-.707.116-1.792.782-2.504,1.536-.69.732-1.749,1.426-2.352,1.542s-2.114.409-3.357.651c-1.505.293-2.851.9-4.027,1.817-1.674,1.304-2.804,1.679-7.713,2.557-.949.17-2.125.783-2.889,1.506-1.301,1.232-1.747,1.355-9.015,2.482-1.047.163-2.127.565-2.4.895-1.112,1.343-2.8,1.916-7.408,2.515-12.88,1.676-15.301-.047-14.769-10.512.424-8.326,1.428-13.027,3.093-14.471.426-.369.86-1.428.993-2.423.856-6.406,1.887-9.719,3.18-10.215.312-.12.663-1.103.813-2.281.557-4.345,1.661-7.446,2.98-8.369.414-.291.868-1.242,1.008-2.115.739-4.6,1.891-7.63,3.04-7.994.592-.188.776-.778,1.836-5.89.126-.604.814-1.684,1.53-2.4.976-.977,1.467-2,1.966-4.102.776-3.261,1.758-5.319,2.677-5.611.399-.127.918-1.193,1.341-2.756.464-1.713,1.14-3.04,2.062-4.047.847-.924,1.613-2.357,2-3.742.425-1.515,1.056-2.639,1.945-3.46.74-.683,1.448-1.823,1.616-2.6.494-2.277,1.863-4.83,2.827-5.268.573-.262.995-.904,1.156-1.758.366-1.955,1.88-4.601,2.898-5.066.577-.264,1.112-1.138,1.553-2.54.471-1.5,1.074-2.444,2.019-3.165.742-.565,1.348-1.216,1.348-1.447c0-1.456,2.475-5.14,3.454-5.14.283,0,.709-.718.945-1.596.448-1.665,2.049-3.604,2.975-3.604.295,0,.647-.585.782-1.3.134-.715.694-1.823,1.244-2.462s1-1.302,1-1.473.36-.425.799-.565c.44-.139.909-.691,1.043-1.227.135-.535.405-.973.601-.973.197,0,.357-.278.357-.617c0-.723,1.11-1.951,2.079-2.298.374-.134.98-.838,1.348-1.564.893-1.762,1.783-2.74,2.873-3.157.495-.189.9-.591.9-.893c0-.874,1.235-3.109,1.847-3.344.421-.162.261-.553-.644-1.585-.662-.753-1.203-1.712-1.203-2.13c0-.47-.607-1.102-1.586-1.652-.887-.499-1.858-1.465-2.204-2.196-.676-1.423-1.306-1.709-6.178-2.797-1.633-.364-3.775-1.091-4.76-1.615-.985-.523-2.275-.952-2.866-.952-3.754,0-8.993-1.217-10.518-2.442-.863-.693-2.225-1.428-3.028-1.632s-2.103-.535-2.889-.735-2.058-.955-2.827-1.677c-.768-.723-2.343-1.652-3.5-2.065-1.461-.521-2.363-1.146-2.952-2.046-.521-.795-1.476-1.518-2.471-1.873-1.111-.396-1.81-.967-2.221-1.817-.368-.76-1.201-1.506-2.155-1.929-.963-.428-1.709-1.099-1.961-1.767-.223-.592-1.054-1.423-1.845-1.847-.792-.423-1.743-1.379-2.115-2.124s-1.414-1.795-2.317-2.333c-1.131-.674-1.711-1.333-1.869-2.122-.15-.75-.592-1.284-1.283-1.549-1.555-.597-2.277-1.298-2.723-2.642-.219-.66-.716-1.262-1.105-1.337-1.144-.222-2.568-1.686-2.839-2.918-.138-.63-.514-1.145-.834-1.145-1.091,0-2.513-1.262-2.965-2.633-.283-.857-.71-1.367-1.145-1.367-.919,0-2.431-1.443-2.889-2.757-.202-.579-.908-1.293-1.57-1.586-1.39-.615-2.172-1.943-2.576-4.378-.164-.982-.596-1.914-1.007-2.171-.689-.43-.47-1.564.444-2.308.135-.11.369-1.199.519-2.42.249-2.032.977-3.407,2.636-4.98.231-.22.641-.63.91-.911C80.977,93.097,88.523,85.265,88.989,84.8c.33-.33,1.188-1.211,1.906-1.959.718-.747,2.115-2.192,3.105-3.211s2.09-2.207,2.445-2.641s1.212-1.239,1.905-1.788c.692-.55,1.361-1.322,1.486-1.715.394-1.24,3.183-2.664,6-3.063c1.457-.206,2.75-.476,2.873-.599.382-.382,1.691-.246,1.691.176M224,160.658c-5.068.425-6.997.959-8.467,2.346-.9.849-2.175,1.541-3.388,1.837-2.545.621-3.24.998-3.532,1.918-.215.677-2.406,1.944-5.48,3.169-.587.233-1.307.916-1.6,1.516-.337.69-1.131,1.307-2.16,1.679-1.112.403-1.792.961-2.147,1.763-.286.646-.993,1.375-1.573,1.621-3.085,1.311-2.94,2.08,1.215,6.483c3.981,4.217,5.412,4.681,6.815,2.207.376-.662,1.172-1.39,1.768-1.616.597-.227,1.669-1.033,2.384-1.791c1.356-1.437,4.62-3.379,5.725-3.405.352-.009,1-.587,1.44-1.285.629-.998,1.367-1.446,3.453-2.096c1.459-.455,2.904-1.036,3.212-1.292.796-.661,3.069.841,3.371,2.229.127.582.291,1.261.365,1.508.374,1.247-1.177,5.484-2.466,6.735-.741.72-1.627,2.13-1.969,3.135-.342,1.004-1.049,2.105-1.57,2.447-.521.341-1.419,1.568-1.997,2.727-.577,1.159-1.847,2.877-2.821,3.818-1.396,1.348-1.692,1.857-1.399,2.4.205.379.477,1.184.604,1.789.147.697.793,1.454,1.766,2.068.844.533,1.915,1.613,2.379,2.4.666,1.128,1.095,1.432,2.026,1.432.649,0,1.458.106,1.797.236.436.168.696-.094.891-.9.326-1.347,1.646-3.336,2.214-3.336.606,0,1.402-.919,1.746-2.019.411-1.313,2.538-4.383,3.215-4.643.298-.114.841-1.137,1.207-2.273.395-1.226,1.194-2.552,1.965-3.265.931-.859,1.505-1.938,2.021-3.8.761-2.748,1.949-5.091,2.973-5.867.499-.378.643-1.67.753-6.728.16-7.311.079-7.788-1.48-8.708-.647-.383-1.525-1.367-1.951-2.187-.584-1.126-1.103-1.559-2.116-1.766-1.91-.391-7.069-.663-9.189-.486m-46.821,34.606c-.359,1.087-.97,1.912-1.764,2.382-.745.44-1.596,1.537-2.2,2.836-.541,1.165-1.638,2.765-2.437,3.556-.913.905-1.618,2.098-1.899,3.213-.294,1.169-.843,2.067-1.607,2.633-1.15.85-2.092,3.052-2.635,6.16-.139.794-.889,2.262-1.668,3.262-2.451,3.145-2.546,14.465-.132,15.713.642.332,1.481,1.269,1.865,2.082c1.312,2.78,16.472,3.361,19.101.733c1.384-1.384,2.766-2.144,5.167-2.843c1.304-.379,2.389-.948,2.532-1.327.405-1.082,3.952-3.264,5.305-3.264.558,0,1.593-1.003,1.593-1.544c0-.562,1.983-1.887,3.3-2.205.701-.17,1.1-.531,1.1-.997c0-.852.868-1.688,2.736-2.635c1.538-.779,1.525-1.882-.04-3.54-.493-.522-1.796-1.904-2.896-3.071-3.136-3.329-4.88-3.774-6.034-1.542-.332.643-1.091,1.381-1.685,1.64-.595.259-1.792,1.166-2.66,2.015-1.647,1.61-3.646,2.779-5.521,3.23-.605.145-1.1.503-1.1.795c0,.894-1.362,1.827-3.633,2.49-1.192.348-2.546.874-3.01,1.17-.943.602-2.684-.017-3.657-1.3-1.386-1.826.291-8.468,2.299-9.106.439-.139.906-.736,1.038-1.327.436-1.966,1.299-3.475,2.487-4.354.647-.478,1.301-1.365,1.453-1.97.308-1.226,1.7-3.375,2.509-3.872c2.496-1.534,2.358-5.111-.251-6.509-.796-.426-1.745-1.391-2.132-2.168-1.299-2.607-4.706-2.815-5.524-.336" fill="#277aad" fill-rule="evenodd"/><path d="M104.533,72.317c-1.473.794-2.877,2.08-6.707,6.141-1.526,1.618-6.296,6.571-10.6,11.007-10.582,10.906-10.709,11.051-11.243,12.835-.453,1.512-.363,4.212.224,6.7.262,1.114,1.983,3.176,5.393,6.462.77.742,1.526,1.482,1.68,1.644.153.161,1.464,1.554,2.913,3.094c1.448,1.54,2.762,2.936,2.92,3.101.158.166.827.808,1.487,1.427s1.774,1.744,2.475,2.499s1.461,1.553,1.69,1.773s2.928,2.92,5.998,6c7.52,7.545,9.541,9.4,10.24,9.4.325,0,1.062.528,1.637,1.174.91,1.022,4.693,3.226,5.536,3.226.163,0,1.033.63,1.932,1.4.9.77,1.885,1.4,2.189,1.4.891,0,4.616,1.207,5.703,1.848c2.99,1.763,6.043,2.556,12.2,3.167c3.079.306,6.6,1.038,6.6,1.372c0,.142.765.591,1.7.996c1.557.675,8.295,6.923,8.303,7.7.002.174.649.998,1.438,1.83c1.579,1.666,1.568,1.721-.741,3.947-.605.584-1.1,1.283-1.1,1.554s-.9,1.379-2,2.462c-1.1,1.082-2,2.111-2,2.285s-.597.931-1.327,1.682c-.73.752-1.96,2.354-2.734,3.562-.773,1.207-1.725,2.457-2.113,2.778-.389.32-1.316,1.535-2.061,2.699s-1.731,2.432-2.193,2.817c-.461.386-1.263,1.511-1.781,2.501s-1.452,2.34-2.074,3-1.478,1.983-1.903,2.941c-.425.957-1.281,2.217-1.903,2.8-.622.582-1.778,2.364-2.568,3.959-.791,1.595-1.584,2.9-1.762,2.9s-.865,1.146-1.527,2.548c-.662,1.401-1.748,3.143-2.413,3.871s-1.327,1.864-1.472,2.523c-.319,1.453-2.097,4.745-2.782,5.152-.272.162-.913,1.478-1.424,2.925-.51,1.446-1.505,3.303-2.209,4.126s-1.473,2.207-1.709,3.076c-.513,1.887-1.795,4.344-2.868,5.496-.427.459-.777,1.049-.777,1.312c0,1.158-1.455,4.939-2.606,6.772-.692,1.1-1.587,3.08-1.991,4.4-.731,2.39-1.694,4.619-2.159,4.999-.455.371-1.227,2.19-1.614,3.8-.979,4.074-1.238,4.806-2.32,6.545-.634,1.021-1.468,3.206-1.853,4.856-.737,3.16-1.002,3.883-2.496,6.822-.51,1.002-1.047,2.622-1.193,3.6-.423,2.821-1.182,5.532-2.511,8.977-4.052,10.501-2.957,18.209,2.808,19.777c2.57.699,11.935-.91,11.935-2.05c0-.18.349-.327.776-.327s.875-.159.995-.354c.121-.194,1.076-.48,2.124-.635c3.298-.488,6.229-1.368,8.508-2.555c1.211-.632,3.144-1.35,4.295-1.597c3.125-.67,6.348-1.884,7.262-2.736.446-.416,2.194-1.1,3.885-1.521c1.69-.421,4.081-1.372,5.312-2.113s2.779-1.453,3.44-1.582c1.715-.335,4.426-1.539,5.921-2.629.705-.515,2.597-1.437,4.203-2.05c1.607-.614,3.407-1.514,4-2.001.594-.486,2.175-1.288,3.515-1.781s3.307-1.515,4.371-2.271s2.093-1.375,2.289-1.375c.617,0,4.704-2.116,4.704-2.436c0-.168,1.146-.848,2.548-1.51c1.401-.662,3.143-1.748,3.871-2.413s1.83-1.32,2.448-1.456c.618-.135,1.227-.413,1.352-.616.126-.203.497-.369.824-.369.328,0,1.207-.593,1.953-1.317.746-.725,2.132-1.709,3.08-2.188.948-.48,2.331-1.396,3.072-2.036.741-.641,2.126-1.554,3.076-2.028.951-.475,2.324-1.442,3.052-2.15s1.864-1.555,2.524-1.884c.66-.328,1.882-1.272,2.715-2.097.834-.825,1.687-1.5,1.896-1.5.391,0,.822-.324,3.862-2.897.973-.824,2.165-1.698,2.648-1.944.484-.246,1.447-1.012,2.141-1.703c1.482-1.475,2.421-2.256,2.715-2.256.116,0,.979-.765,1.917-1.7s2.381-2.289,3.206-3.01c.825-.72,1.5-1.472,1.5-1.671s.945-.719,2.1-1.156s2.408-.916,2.784-1.065c.512-.203,1.767.82,5,4.078c5.6,5.643,5.726,5.818,5.956,8.255.312,3.3.992,6.653,1.96,9.669.495,1.54,1.119,3.88,1.388,5.2.604,2.963,1.603,6.332,1.958,6.6.43.324,2.322,4.497,2.63,5.8.156.66.646,1.589,1.09,2.065.954,1.022,2.734,4.43,2.734,5.234c0,.31.72,1.277,1.6,2.148s1.6,1.751,1.6,1.956c0,.204.9,1.3,2,2.436c1.1,1.135,2,2.19,2,2.345c0,.154,1.755,2.083,3.9,4.285c2.145,2.203,7.05,7.299,10.9,11.326c12.856,13.444,13.559,14.005,17.562,14.005c4.139,0,3.609.456,23.56-20.259c8.179-8.492,8.657-9.128,8.984-11.948.37-3.197-.365-5.744-2.182-7.562-.862-.863-1.926-2.073-2.365-2.689s-1.299-1.416-1.913-1.778c-.613-.363-1.42-1.223-1.793-1.912-.373-.688-1.287-1.649-2.032-2.134s-1.656-1.393-2.026-2.018c-.369-.625-1.284-1.557-2.033-2.07s-1.362-1.081-1.362-1.263c0-.181-3.465-3.781-7.7-8-9.802-9.764-10.438-10.367-10.943-10.367-.23,0-1.305-.816-2.388-1.814s-2.419-1.927-2.969-2.066c-1.38-.348-3.603-1.612-4.8-2.729-.55-.514-1.54-1.051-2.2-1.195-2.347-.51-6.6-2.198-6.6-2.618c0-.148-.945-.542-2.1-.877-1.966-.57-3.592-.845-11.4-1.933-1.705-.237-3.64-.714-4.3-1.06s-1.74-.898-2.4-1.227c-1.79-.894-10.2-9.834-10.2-10.844c0-.24.338-.775.752-1.189.413-.413,1.479-1.718,2.368-2.9.89-1.181,2.073-2.508,2.63-2.948s1.021-1.003,1.032-1.252c.01-.248.703-1.158,1.541-2.021.838-.864,2.21-2.699,3.048-4.079s1.78-2.608,2.092-2.727c.311-.12.845-.757,1.186-1.415.34-.659,1.326-1.965,2.19-2.902.865-.938,2.037-2.582,2.605-3.655.568-1.072,1.355-2.253,1.75-2.624s1.305-1.721,2.023-3c.717-1.279,1.699-2.685,2.182-3.125.482-.44,1.204-1.52,1.603-2.4.4-.88,1.382-2.5,2.184-3.6.801-1.1,1.834-2.81,2.294-3.8.461-.99,1.361-2.455,2.001-3.256.639-.801,1.408-2.241,1.709-3.2.3-.959,1.236-2.681,2.078-3.827.843-1.145,1.532-2.272,1.532-2.504c0-.836,1.77-4.241,2.873-5.527.62-.723,1.127-1.572,1.127-1.889c0-.872,1.944-5.082,2.768-5.993.4-.442,1.05-1.884,1.445-3.204.85-2.841,1.619-4.505,2.589-5.6.39-.44,1.207-2.379,1.815-4.31.609-1.93,1.523-3.994,2.032-4.586.509-.593,1.036-1.623,1.171-2.291.569-2.812,2.201-7.46,2.854-8.131.278-.285.707-1.275.955-2.2s.613-2.095.811-2.601c.198-.505.36-1.296.36-1.758c0-.461.611-2.118,1.359-3.681c1.334-2.792,2.266-5.88,2.85-9.442.162-.99.695-2.7,1.184-3.8c4.242-9.531,3.427-19.092-1.721-20.185-3.013-.639-8.818.017-11.78,1.332-3.347,1.485-4.578,1.845-9.829,2.871-.736.144-2.446.847-3.8,1.563-1.355.715-3.903,1.627-5.663,2.026s-3.847,1.151-4.637,1.671c-1.655,1.088-4.752,2.282-7.007,2.701-.856.158-2.096.682-2.756,1.163-1.561,1.137-2.714,1.675-5.4,2.517-1.21.379-3.1,1.26-4.2,1.956-1.1.697-2.99,1.587-4.2,1.98-1.21.392-2.896,1.219-3.747,1.836s-2.84,1.594-4.421,2.17c-1.58.577-3.406,1.546-4.056,2.154-.651.608-2.023,1.426-3.05,1.818-1.028.393-2.199,1.022-2.603,1.398-.963.898-4.055,2.666-5.323,3.045-.55.164-1.673.873-2.495,1.576-.823.702-2.254,1.527-3.181,1.833-.926.306-2.5,1.262-3.497,2.125-.997.862-2.427,1.825-3.178,2.139s-1.623.828-1.937,1.142c-.931.931-4.02,2.969-4.5,2.969-.243,0-1.185.713-2.093,1.585-.907.873-2.206,1.857-2.884,2.187-.679.331-1.845,1.238-2.591,2.015s-1.601,1.413-1.9,1.413-.544.168-.544.373-.315.476-.7.601-1.331.827-2.103,1.561c-.772.733-2.184,1.825-3.138,2.427-.953.603-2.275,1.712-2.938,2.467-.662.754-1.396,1.371-1.63,1.371-.235,0-1.361.945-2.502,2.1-4.237,4.287-6.106,5.9-6.838,5.902-.413.002-1.267.272-1.897.601l-1.147.598-4.483-4.501c-5.274-5.293-5.576-5.787-6.426-10.5-.357-1.98-1.076-5.49-1.598-7.8s-1.162-5.28-1.422-6.6c-.518-2.624-1.298-4.639-2.408-6.224-.394-.564-.846-1.554-1.003-2.2-.43-1.768-2.077-5.376-2.454-5.376-.309,0-.606-.522-2.413-4.241-.385-.792-1.088-1.75-1.562-2.127-.474-.378-1.199-1.241-1.611-1.919-1.291-2.123-3.295-4.34-14.927-16.509-13.681-14.313-15.901-16.488-17.613-17.254-2.12-.95-5.725-.965-7.454-.033m6.521,1.074c1.43.738,9.254,8.49,9.568,9.48.128.401.393.729.589.729s.985.675,1.753,1.5c1.072,1.152,7.711,8.121,9.732,10.215.167.174.855.804,1.529,1.4.674.597,1.631,1.67,2.127,2.385s1.145,1.3,1.441,1.3s1.082.884,1.747,1.965s1.555,2.075,1.976,2.208c.422.134,1.106.915,1.521,1.735.926,1.832,2.149,3.292,2.757,3.292.25,0,.782,1.091,1.181,2.425.467,1.56,1.227,2.952,2.128,3.9c1.055,1.11,1.574,2.175,2.099,4.306.801,3.257,1.295,4.312,2.375,5.068.613.429.902,1.518,1.413,5.32c1.481,11.029,1.802,12.774,2.534,13.77.408.556.857,1.592.997,2.302.249,1.259,2.16,4.57,2.8,4.849.177.078.987.873,1.8,1.767.814.895,1.918,2.002,2.455,2.46s1.727,1.508,2.645,2.333c1.97,1.771,1.884,1.758,3.506.56.7-.517,1.993-1.212,2.873-1.545c1.066-.402,1.852-1.06,2.355-1.97.453-.82,1.344-1.617,2.225-1.994.987-.421,1.698-1.108,2.164-2.089.381-.804.941-1.462,1.242-1.462.641,0,3.008-1.288,3.011-1.639.007-.57,1.57-1.916,3.677-3.167c1.251-.743,2.492-1.758,2.759-2.256s1.251-1.265,2.187-1.705c.936-.441,2.078-1.327,2.536-1.971.459-.644,1.549-1.457,2.423-1.807.875-.35,1.891-1.095,2.258-1.656.368-.561,1.995-1.658,3.616-2.437c1.621-.78,2.947-1.551,2.947-1.714c0-.716,1.732-2.053,3.157-2.436.965-.26,1.93-.909,2.549-1.715.726-.945,1.673-1.509,3.486-2.077c1.759-.551,2.763-1.138,3.424-2c.68-.888,1.615-1.418,3.432-1.946c1.804-.525,2.904-1.146,3.963-2.237.985-1.016,2.084-1.667,3.351-1.986c1.057-.266,2.5-1.034,3.286-1.749c1.53-1.393,2.806-2.023,4.946-2.445.767-.151,2.027-.782,2.8-1.402c1.697-1.359,3.715-2.302,5.611-2.62.772-.13,2.12-.854,2.995-1.61c1.482-1.281,2.826-1.817,6.13-2.448.731-.139,1.932-.783,2.668-1.429c1.249-1.096,3.424-1.867,7.111-2.52.829-.147,2.119-.804,2.865-1.459c1.465-1.286,3.935-2.135,7.426-2.55c1.606-.192,2.62-.598,3.756-1.505c1.681-1.341,3.091-1.755,8.044-2.358c2.581-.314,3.664-.675,5.6-1.863c5.135-3.15,11.251-1.888,12.239,2.526.668,2.986-.085,10.123-1.16,10.996-.994.807-1.977,3.852-2.448,7.585-.52,4.119-.832,5.236-1.725,6.184-1.12,1.19-1.806,3.046-2.102,5.687-.319,2.852-.797,4.142-2.447,6.592-.841,1.25-1.368,2.621-1.544,4.017-.378,2.987-.971,4.761-1.98,5.92-1.092,1.254-1.716,2.603-2.035,4.4-.373,2.104-1.026,3.607-2.435,5.6-1.13,1.6-1.723,3.277-2.436,6.887-.117.598-.513,1.182-.878,1.298-.821.26-1.761,2.072-2.697,5.198-.494,1.649-1.12,2.741-2.033,3.542-.725.637-1.319,1.403-1.319,1.702c0,1.312-1.36,4.363-2.46,5.518-.659.693-1.555,2.316-1.991,3.607-.443,1.314-1.39,2.981-2.15,3.787-.799.846-1.459,2.032-1.601,2.875-.156.922-.86,2.099-1.966,3.287-1.065,1.143-1.988,2.662-2.416,3.975-.453,1.392-1.15,2.504-2.023,3.228-.732.607-1.444,1.617-1.582,2.246-.249,1.135-1.286,2.508-2.36,3.127-.61.35-2.651,4.348-2.651,5.19c0,.285-.418.623-.929.751-.966.242-2.271,2.043-2.271,3.134c0,.346-.495.946-1.1,1.333-1.379.883-1.875,1.486-2.966,3.61-.479.932-1.2,1.799-1.602,1.927-.403.127-.732.372-.732.543s-.451.834-1.002,1.473c-.552.639-1.115,1.514-1.253,1.943-.279.871-.799,1.412-1.962,2.045-.431.234-1.191,1.269-1.691,2.3-.499,1.031-1.109,1.874-1.356,1.874-.535,0-1.417,1.05-1.947,2.319-.517,1.238.457,3.537,1.747,4.125.539.245,1.239,1.109,1.559,1.926.404,1.027,1.028,1.692,2.04,2.172.872.414,1.553,1.07,1.694,1.631.232.923,1.859,2.627,2.508,2.627.183,0,1.166.65,2.186,1.444c1.84,1.434,1.893,1.447,7.165,1.799c7.64.509,9.214.855,10.712,2.358.505.506,2.36,1.237,4,1.576c3.818.788,4.757,1.16,5.86,2.319.627.659,2.04,1.515,3.14,1.902c1.1.386,2.72,1.38,3.6,2.208.88.827,2.299,1.75,3.154,2.049c1.067.374,1.743.941,2.156,1.806.396.831,1.131,1.469,2.154,1.871c1.103.434,1.715.998,2.112,1.95.359.859,1.081,1.588,2.014,2.033.919.438,1.655,1.174,2,2c.341.816,1.08,1.561,1.968,1.984.934.446,1.627,1.168,2.018,2.106.406.971.992,1.565,1.832,1.858.862.3,1.414.875,1.823,1.898.375.936,1.095,1.741,1.993,2.224.773.416,1.679,1.332,2.012,2.034.333.703,1.238,1.616,2.011,2.029.773.414,1.67,1.308,1.994,1.986.323.679,1.301,1.636,2.173,2.126.873.49,1.586,1.185,1.586,1.544c0,.886,1.982,2.896,2.857,2.896.858,0,1.331,1.913,1.335,5.4.004,2.805-.416,4.6-1.074,4.6-.591,0-2.312,1.598-2.336,2.17-.011.236-.486.79-1.058,1.23-.571.44-1.418,1.191-1.881,1.669-.464.479-1.349,1.379-1.967,2-.618.622-1.518,1.543-2,2.047s-1.506,1.542-2.276,2.306-1.523,1.522-1.674,1.684c-1.899,2.043-9.902,10.36-10.436,10.847-.391.356-1.311,1.252-2.045,1.992-1.322,1.334-1.359,1.344-4.489,1.198l-3.156-.147-3.6-3.653c-3.305-3.353-16.243-16.744-17.53-18.143-.303-.33-1.083-1.05-1.732-1.6-.65-.55-1.303-1.322-1.453-1.715-.149-.393-.792-1.013-1.429-1.379-.636-.365-1.636-1.457-2.222-2.426-.585-.97-1.406-1.852-1.824-1.961-.418-.11-1.144-1.017-1.614-2.017-.994-2.114-1.504-2.692-2.715-3.076-.484-.154-.886-.583-.892-.953-.026-1.545-1.534-5.095-2.651-6.241-.777-.796-1.457-2.152-1.924-3.832-.891-3.21-1.52-4.8-1.898-4.8-.854,0-2.04-4.26-2.504-9-.299-3.055-.876-5.946-1.436-7.2-.196-.44-.717-2.129-1.156-3.754-.892-3.299-1.534-4.49-3.367-6.249-.689-.662-1.703-1.745-2.253-2.406s-1.806-1.829-2.79-2.596c-.985-.767-2.123-1.8-2.529-2.295-.938-1.142-1.286-1.13-2.339.08-.468.539-1.412,1.099-2.097,1.244-1.695.359-3.761,1.979-3.917,3.071-.074.519-.465.96-.928,1.048-1.293.243-2.892,1.572-3.155,2.621-.167.665-.622,1.055-1.441,1.235-.659.145-1.784.896-2.501,1.669-.717.774-2.34,2.088-3.607,2.92s-2.646,1.949-3.065,2.482-1.556,1.377-2.526,1.876-2.076,1.435-2.457,2.081c-.381.645-.943,1.173-1.248,1.173-.775,0-3.4,1.596-3.4,2.068c0,.591-.925,1.391-2.004,1.733-1.822.579-4.196,2.094-4.582,2.925-.212.457-1.202,1.129-2.2,1.494-.997.365-2.359,1.25-3.026,1.967-.666.717-1.656,1.429-2.2,1.583-1.033.293-2.136.727-3.744,1.474-.526.244-1.189.879-1.473,1.411-.285.532-.98,1.064-1.544,1.182-1.93.406-4.823,1.897-5.406,2.787-.349.532-1.514,1.181-2.902,1.616-2.41.755-2.62.876-4.505,2.612-.638.586-2.086,1.276-3.278,1.56-2.265.54-3.754,1.301-4.736,2.42-.33.376-1.68.981-3,1.344-3.027.832-4.944,1.816-5.218,2.68-.132.418-1.001.856-2.297,1.159-3.88.908-5.681,1.661-6.762,2.825-.795.855-1.447,1.16-2.482,1.16-.772,0-1.817.168-2.322.372-.506.205-1.411.478-2.012.606-.601.129-1.681.75-2.4,1.381-.991.871-2.128,1.31-4.707,1.817-4.122.812-6.283,1.604-7.149,2.621-.473.555-1.747.935-4.651,1.387-4.868.758-7.758,1.679-8.734,2.785-2.11,2.39-11.409.568-11.455-2.245-.006-.372-.191-.788-.411-.924-1.205-.744.679-11.8,2.011-11.8.404,0,1.144-2.536,1.399-4.8.427-3.788,1.436-7.339,2.416-8.504c1.031-1.225,1.766-3.417,1.776-5.296.011-1.943,1.072-4.887,2.342-6.499.891-1.132,1.354-2.387,1.879-5.101.563-2.911.945-3.892,1.997-5.126.715-.839,1.414-2.189,1.552-3c.524-3.069,1.223-4.851,2.472-6.296.93-1.076,1.488-2.337,2.003-4.523.535-2.273,1.049-3.402,2.054-4.514.771-.853,1.439-2.094,1.573-2.922.129-.791.39-1.535.58-1.652.19-.118.346-.649.346-1.181c0-.585.523-1.443,1.326-2.173.919-.836,1.607-2.065,2.241-3.998.631-1.923,1.274-3.074,2.071-3.703.704-.555,1.26-1.459,1.422-2.312.321-1.69,1.432-3.739,2.988-5.514.634-.723,1.152-1.679,1.152-2.126c0-1.159.712-2.377,2.201-3.765.799-.745,1.58-2.085,2.046-3.511.55-1.685,1.102-2.545,2.051-3.195.849-.582,1.383-1.338,1.544-2.189.136-.715.407-1.3.603-1.3.195,0,.355-.158.355-.352c0-.193.692-1.064,1.537-1.935.925-.953,1.76-2.342,2.099-3.489.406-1.373.877-2.069,1.687-2.488.676-.349,1.424-1.279,1.875-2.331.412-.962,1.163-1.97,1.667-2.24c1.256-.672,1.779-1.242,2.117-2.307.158-.498,1.275-2.012,2.482-3.365s2.443-3.054,2.746-3.779c.303-.726.979-1.482,1.501-1.68c1.013-.385,2.289-2.04,2.289-2.968c0-.31.629-.991,1.398-1.514c2.43-1.655,2.331-4.833-.195-6.271-.659-.374-1.199-.912-1.2-1.195-.005-.991-1.332-2.529-2.662-3.085-.737-.308-1.341-.82-1.341-1.138c0-.788-2.176-3.063-2.93-3.063-.335,0-1.139-.531-1.788-1.18-1.4-1.399-1.294-1.376-9.648-2.149-5.267-.487-6.64-.739-6.937-1.269-.498-.889-3.003-1.904-6.996-2.834-1.815-.422-3.3-.896-3.3-1.052-.002-.461-2.15-2.316-2.683-2.316-.85,0-3.485-1.362-4.318-2.233-1.149-1.2-3.04-2.412-4.2-2.691-.593-.143-1.31-.817-1.761-1.655-.491-.912-1.25-1.59-2.14-1.912-.921-.333-1.625-.98-2.118-1.947-.438-.858-1.246-1.657-1.984-1.963-.752-.312-1.514-1.074-1.921-1.925-.403-.838-1.27-1.713-2.145-2.164-.893-.46-1.626-1.208-1.871-1.91-.223-.641-1.098-1.593-1.968-2.142-.861-.544-1.79-1.529-2.063-2.189-.281-.677-1.006-1.411-1.666-1.684-.642-.266-1.556-1.175-2.031-2.02-.482-.858-1.452-1.816-2.198-2.169-.733-.349-1.334-.833-1.334-1.077c0-.853-1.978-3.027-2.984-3.279-.559-.141-1.016-.509-1.016-.819c0-.771-2.552-3.421-3.295-3.421-.752,0-1.256-2.458-1.224-5.977.023-2.684.055-2.741,2.469-4.411.467-.324.85-.813.85-1.086c0-.274.463-.909,1.029-1.412c1.036-.92,2.32-2.185,5.881-5.79c1.586-1.607,9.085-9.372,10.388-10.757.604-.642,1.277-1.347,1.495-1.567s.99-1.03,1.715-1.8c4.511-4.786,7.015-5.825,10.146-4.209M223,156.445c-.88.2-1.888.709-2.24,1.13-.353.422-1.343.882-2.2,1.022-3.898.639-5.554,1.24-6.886,2.496-.762.718-2.035,1.482-2.829,1.698-1.645.446-4.445,2.236-4.445,2.842c0,.222-.893.817-1.984,1.323-2.43,1.126-3.197,1.741-3.648,2.928-.191.504-.651.916-1.02.916-1.037,0-3.348,1.947-3.348,2.82c0,.523-.274.78-.831.78-3.912,0-3.906,8.164.007,10.188.642.332,1.556,1.293,2.03,2.136.686,1.222,1.28,1.675,2.928,2.232c3.825,1.293,4.894,1.039,8.282-1.97c1.102-.979,2.726-2.149,3.61-2.599.883-.451,1.799-1.242,2.034-1.759.428-.94,1.865-1.828,2.958-1.828.319,0,1.255-.61,2.081-1.355c1.507-1.36,4.417-2.489,4.976-1.93.52.52-.135,2.085-.873,2.085-1.071,0-2.169,2.108-2.976,5.717-.137.615-.559,1.233-.938,1.375-.916.344-1.577,1.194-2.345,3.015-.35.83-1.098,1.872-1.663,2.316-1.294,1.018-2.759,3.154-3.103,4.526-.145.578-.424,1.051-.62,1.051-.197,0-.357.27-.357.6s.164.6.365.6.492.765.649,1.7c.337,2.018,1.423,3.678,2.87,4.387.577.282,1.388,1.172,1.803,1.978c1.977,3.836,8.605,3.904,9.979.102.288-.796.998-1.599,1.792-2.026.852-.459,1.404-1.113,1.567-1.856.139-.632.962-1.809,1.829-2.617c1.557-1.45,3.146-4.312,3.146-5.667c0-.384.605-1.113,1.345-1.62c1.029-.705,1.509-1.466,2.039-3.235.381-1.272,1.295-3.086,2.031-4.031c2.269-2.913,3.39-14.252,1.993-20.175-.714-3.03-3.966-6.656-6.374-7.107-.776-.146-1.652-.609-1.947-1.03-1.081-1.543-5.614-2.085-9.687-1.158m8.68,2.608c.594.301,1.456.547,1.916.547c1.205,0,5.899,4.957,6.399,6.759c1.368,4.923.105,15.122-2.262,18.274-.51.679-1.041,1.808-1.181,2.509-.141.701-.412,1.372-.604,1.49-.191.118-.348.549-.348.957s-.63,1.391-1.4,2.184-1.4,1.538-1.4,1.656c0,.648-1.769,3.943-2.721,5.066-.608.718-1.618,2.101-2.244,3.074s-1.655,2.204-2.286,2.736c-.632.531-1.149,1.175-1.149,1.431-.003,1.957-2.686,3.081-5.236,2.191-1.443-.503-6.764-5.619-6.764-6.503c0-.29-.261-1.152-.581-1.917-.673-1.612-.054-3.207,2.074-5.342.639-.641,1.673-2.065,2.3-3.165.626-1.1,1.474-2.274,1.884-2.61.409-.335,1.325-1.697,2.034-3.027.709-1.329,1.755-3.125,2.325-3.99c1.868-2.837,1.359-6.441-.784-5.551-.359.149-1.372.44-2.252.647-.88.206-2.14.89-2.8,1.518-.66.629-2.01,1.554-3,2.057s-2.07,1.202-2.4,1.555-1.5,1.262-2.6,2.021-2.874,2.145-3.943,3.08-2.218,1.7-2.554,1.7c-1.28,0-3.665-.94-4.449-1.753-.449-.466-1.694-1.747-2.766-2.847-1.133-1.162-2.249-2.81-2.665-3.934l-.715-1.935l2.808-2.677c1.544-1.473,3.302-2.943,3.907-3.266s1.477-1.102,1.939-1.73c.461-.627,1.648-1.521,2.638-1.985.99-.465,1.98-.983,2.2-1.153.22-.169.94-.734,1.6-1.255s1.92-1.274,2.8-1.673s2.41-1.293,3.4-1.986c1.664-1.165,4.49-2.105,10.8-3.592c2.507-.59,6.471-.375,8.08.439m-55.82,32.633c-.583.764-1.06,1.693-1.06,2.064s-.315.787-.7.923c-1.171.416-2.04,1.351-2.894,3.114-.448.925-1.255,1.918-1.794,2.206-1.004.538-2.468,3.186-2.869,5.191-.126.632-.618,1.304-1.123,1.534-.961.438-2.328,2.995-2.824,5.282-.167.769-.692,1.759-1.166,2.2-3.878,3.598-4.008,20.457-.184,23.994.855.791,1.554,1.57,1.554,1.731c0,.269.995.831,3.6,2.031.55.254,1.612.907,2.359,1.453c2.167,1.58,8.307,1.122,10.405-.776.479-.434,2.372-1.06,4.529-1.499c3.302-.671,3.838-.905,4.907-2.144.66-.764,1.48-1.39,1.821-1.39c1.008,0,4.717-1.996,5.478-2.948.653-.818,3.181-2.252,3.97-2.252.192,0,.671-.585,1.065-1.3.421-.763,1.408-1.631,2.391-2.1.952-.455,1.901-1.277,2.199-1.905.288-.607,1.131-1.358,1.874-1.668c3.35-1.4,2.822-7.908-.798-9.827-.66-.35-1.47-1.202-1.8-1.893-1.97-4.126-7.705-4.23-11.916-.218-.642.611-2.021,1.613-3.066,2.226-1.046.614-1.99,1.457-2.099,1.874-.124.472-.959,1.033-2.205,1.481-1.104.397-2.326,1.128-2.718,1.626-.391.497-.895.904-1.12.904s-.469.172-.543.381c-.073.21-.898.503-1.833.651-2.194.349-2.57-1.173-.484-1.96.785-.297,1.293-.816,1.433-1.466.792-3.664,2.537-6.806,3.781-6.806.169,0,.434-.585.591-1.3.156-.715.878-1.861,1.603-2.546c2.562-2.421,4.531-6.189,3.951-7.562-.277-.656-.804-2.045-1.171-3.088-.52-1.478-.98-2.045-2.085-2.569-.872-.414-1.622-1.162-1.949-1.945-.756-1.809-2.124-2.543-5.289-2.837l-2.761-.257-1.06,1.39m5.066.599c1.954.391,6.476,5.158,7.309,7.706.843,2.579.688,2.972-2.711,6.866-.591.678-1.345,1.8-1.674,2.494-.329.693-1.07,1.705-1.647,2.247s-1.57,2.075-2.205,3.407c-.636,1.332-1.616,2.956-2.177,3.609-1.874,2.178-1.568,5.798.488,5.78c1.324-.012,3.899-1.127,5.29-2.292.771-.646,2.033-1.473,2.805-1.838.773-.365,1.856-1.083,2.407-1.594s1.539-1.276,2.195-1.7c1.559-1.006,2.497-1.747,3.761-2.97c3.061-2.963,6.072-2.746,8.833.638.77.944,1.697,1.823,2.059,1.953.585.21,2.296,3.23,2.89,5.1.15.475-.285,1.1-1.395,2-.887.72-2.349,2.074-3.249,3.009-.899.935-1.839,1.7-2.088,1.7s-1.101.684-1.893,1.52c-.792.837-2.224,1.871-3.182,2.3-1.545.691-2.619,1.424-4.095,2.795-.475.441-3.198,1.785-3.617,1.785-.137,0-1.122.6-2.188,1.334-1.99,1.368-2.808,1.643-9.092,3.049-4.259.953-7.119,1.037-8.623.252-.59-.308-1.586-.672-2.213-.81-6.877-1.51-9.745-15.581-4.902-24.046.661-1.156,1.636-3.298,2.167-4.76.53-1.461,1.48-3.185,2.111-3.83.63-.646,1.456-2.032,1.835-3.081.378-1.05,1.294-2.548,2.034-3.331s1.71-2.133,2.154-3s1.32-1.954,1.947-2.415c.627-.462,1.405-1.362,1.729-2c.973-1.921,1.724-2.555,2.758-2.33.52.114,1.501.318,2.179.453" fill="#a4848c" fill-rule="evenodd"/><path d="M107.6,71.249c-3.79.364-4.325.765-12.837,9.641-6.579,6.858-9.553,9.951-12.677,13.179-.282.292-1.092,1.156-1.8,1.921-.707.764-1.739,1.844-2.293,2.4-2.432,2.439-3.634,6.399-2.765,9.106c1.048,3.262,1.335,3.788,2.587,4.742.713.545,1.77,1.704,2.347,2.576s1.277,1.586,1.555,1.586c.538,0,1.145.625,2.599,2.676.498.702,1.215,1.38,1.594,1.506.38.127,1.223,1.026,1.875,1.998.652.973,1.575,1.947,2.052,2.164.477.218,1.384,1.126,2.015,2.02.632.894,1.463,1.729,1.847,1.857.385.128,1.24,1.018,1.901,1.979s1.516,1.851,1.901,1.979c.384.128,1.215.963,1.847,1.857.631.894,1.531,1.801,2,2.017.468.216,1.36,1.105,1.982,1.975.621.87,1.617,1.834,2.213,2.142.596.309,1.528,1.09,2.07,1.736.543.647,1.778,1.671,2.744,2.276.967.605,2.137,1.497,2.6,1.982.464.485,1.563,1.192,2.443,1.571c1.898.818,2.669,1.255,5.137,2.913c1.021.687,2.623,1.371,3.56,1.52s2.675.819,3.863,1.489c2.631,1.483,5.368,2.349,7.24,2.291c1.143-.035.959-.134-1-.534-2.362-.484-4.23-1.195-6.2-2.363-1.084-.642-4.808-1.851-5.703-1.851-.304,0-1.289-.63-2.189-1.4-.899-.77-1.769-1.4-1.932-1.4-.843,0-4.626-2.204-5.536-3.226-.575-.646-1.312-1.174-1.637-1.174-.699,0-2.72-1.855-10.24-9.4-3.07-3.08-5.769-5.78-5.998-6s-.989-1.018-1.69-1.773-1.815-1.88-2.475-2.499-1.329-1.261-1.487-1.427c-.158-.165-1.472-1.561-2.92-3.101-1.449-1.54-2.76-2.933-2.913-3.094-.154-.162-.91-.902-1.68-1.644-3.41-3.286-5.131-5.348-5.393-6.462-.587-2.488-.677-5.188-.224-6.7.534-1.784.661-1.929,11.243-12.835c4.304-4.436,9.074-9.387,10.6-11.002c5.842-6.185,6.861-6.863,10.314-6.863c4.279,0,4.136-.12,21.46,18.004c11.632,12.169,13.636,14.386,14.927,16.509.412.678,1.137,1.541,1.611,1.919.474.377,1.177,1.335,1.562,2.127c1.807,3.719,2.104,4.241,2.413,4.241.377,0,2.024,3.608,2.454,5.376.157.646.609,1.636,1.003,2.2c1.11,1.585,1.89,3.6,2.408,6.224.26,1.32.9,4.29,1.422,6.6s1.241,5.82,1.598,7.8c.85,4.713,1.152,5.207,6.426,10.5l4.483,4.501l1.147-.598c.63-.329,1.484-.599,1.897-.601.732-.002,2.601-1.615,6.838-5.902c1.141-1.155,2.267-2.1,2.502-2.1.234,0,.968-.617,1.63-1.371.663-.755,1.985-1.864,2.938-2.467.954-.602,2.366-1.694,3.138-2.427.772-.734,1.718-1.436,2.103-1.561s.7-.396.7-.601.245-.373.544-.373s1.154-.636,1.9-1.413s1.912-1.684,2.591-2.015c.678-.33,1.977-1.314,2.884-2.187.908-.872,1.85-1.585,2.093-1.585.48,0,3.569-2.038,4.5-2.969.314-.314,1.186-.828,1.937-1.142s2.181-1.277,3.178-2.139c.997-.863,2.571-1.819,3.497-2.125.927-.306,2.358-1.131,3.181-1.833.822-.703,1.945-1.412,2.495-1.576c1.268-.379,4.36-2.147,5.323-3.045.404-.376,1.575-1.005,2.603-1.398c1.027-.392,2.399-1.21,3.05-1.818.65-.608,2.476-1.577,4.056-2.154c1.581-.576,3.57-1.553,4.421-2.17s2.537-1.444,3.747-1.836c1.21-.393,3.1-1.283,4.2-1.98c1.1-.696,2.99-1.577,4.2-1.956c2.686-.842,3.839-1.38,5.4-2.517.66-.481,1.9-1.005,2.756-1.163c2.255-.419,5.352-1.613,7.007-2.701.79-.52,2.877-1.272,4.637-1.671s4.324-1.32,5.699-2.046c1.374-.726,3.519-1.509,4.765-1.739c2.388-.441,3.237-.822,1.835-.822-1.509,0-5.878,1.279-6.939,2.031-1.126.799-3.055,1.486-7.244,2.579-1.475.385-3.051,1.043-3.501,1.462-.763.71-3.377,1.695-7.329,2.759-.915.246-2.136.845-2.712,1.33-.577.485-2.573,1.367-4.436,1.961-1.864.593-3.748,1.414-4.188,1.824-1.09,1.015-1.972,1.456-4.978,2.489-1.415.485-3.043,1.275-3.619,1.753-.576.479-1.656,1.098-2.4,1.375s-1.666.669-2.048.87c-.382.202-.975.367-1.318.367s-1.06.437-1.594.971c-1.029,1.028-2.188,1.719-4.793,2.855-.88.384-1.87,1.005-2.2,1.381s-1.95,1.342-3.6,2.147-3.72,1.994-4.6,2.642c-.88.647-1.829,1.183-2.108,1.191-.667.017-3.208,1.672-4.575,2.978-.595.569-1.276,1.035-1.514,1.035-.524,0-2.058.951-4.203,2.605-.88.678-2.295,1.585-3.144,2.014-.849.43-1.64,1.024-1.758,1.321s-1.448,1.331-2.956,2.297c-1.508.967-2.742,1.93-2.742,2.142c0,.211-.607.672-1.349,1.024s-2.317,1.452-3.5,2.445c-3.351,2.813-3.536,2.952-3.944,2.952-.21,0-.762.513-1.226,1.14-.463.626-1.613,1.627-2.556,2.223s-1.939,1.503-2.214,2.016c-.274.513-.932,1.164-1.46,1.447-.529.283-1.724,1.343-2.656,2.354-1.705,1.851-5.122,3.446-6.159,2.875-.445-.244-2.606-2.236-3.617-3.333-.264-.287-.714-.724-1-.971-3.195-2.762-5.021-5.572-5.334-8.207-.381-3.203-1.328-7.787-2.174-10.519-.413-1.334-.866-3.325-1.008-4.425-.429-3.336-1.481-6.336-2.594-7.4-.486-.464-1.128-1.919-1.406-3.186-.33-1.502-1.368-3.496-2.803-5.381-.516-.678-1.064-1.737-1.217-2.353-.154-.617-1.047-1.877-1.985-2.8-.938-.924-1.82-2.06-1.961-2.524-.141-.465-.971-1.507-1.846-2.316-.875-.81-1.591-1.619-1.591-1.798s-1.035-1.407-2.3-2.729c-28.016-29.268-26.268-27.746-31.3-27.264M295.2,88.26c-1.43.307-3.5.983-4.6,1.503s-2.54,1.085-3.2,1.255c-.897.232-1.015.353-.468.481.753.177,1.743-.147,5.36-1.752c1.182-.525,3.693-1.123,5.775-1.377c7.945-.966,10.241.822,10.41,8.105.075,3.221.082,3.244.226.725.49-8.561-3.363-11.112-13.503-8.94M307.845,102c-.4,2.393-.954,4.177-2.061,6.638-.504,1.121-1.014,2.921-1.134,4-.119,1.079-.126,1.602-.014,1.162s.807-2.33,1.544-4.2c1.493-3.79,2.398-7.437,2.138-8.62-.103-.469-.292-.062-.473,1.02m-4.175,14.741c-.263,1.177-1.119,3.472-1.902,5.099-.783,1.628-1.356,3.365-1.273,3.86.118.704.259.529.645-.806.272-.938.832-2.288,1.246-3c.946-1.629,2.122-5.672,1.918-6.596-.085-.384-.37.265-.634,1.443M299.822,127.8c-.456,1.972-1.468,4.6-1.772,4.6-.394,0-1.837,4.346-1.542,4.642.132.131.447-.544.701-1.502.255-.957.783-2.1,1.174-2.54.839-.942,2.192-5.098,1.911-5.867-.108-.293-.32.007-.472.667m-3.915,10.4c-.136.44-.356,1.346-.49,2.013-.133.668-.659,1.698-1.168,2.291-.509.592-1.423,2.656-2.032,4.586-.608,1.931-1.425,3.87-1.815,4.31-.97,1.095-1.739,2.759-2.589,5.6-.395,1.32-1.045,2.762-1.445,3.204-.824.911-2.768,5.121-2.768,5.993c0,.317-.507,1.166-1.127,1.889-1.103,1.286-2.873,4.691-2.873,5.527c0,.232-.689,1.359-1.532,2.504-.842,1.146-1.778,2.868-2.078,3.827-.301.959-1.07,2.399-1.709,3.2-.64.801-1.54,2.266-2.001,3.256-.46.99-1.493,2.7-2.294,3.8-.802,1.1-1.784,2.72-2.184,3.6-.399.88-1.121,1.96-1.603,2.4-.483.44-1.465,1.846-2.182,3.125-.718,1.279-1.628,2.629-2.023,3s-1.182,1.552-1.75,2.624c-.568,1.073-1.74,2.717-2.605,3.655-.864.937-1.85,2.243-2.19,2.902-.341.658-.875,1.295-1.186,1.415-.312.119-1.254,1.347-2.092,2.727s-2.21,3.215-3.048,4.079c-.838.863-1.531,1.773-1.541,2.021-.011.249-.475.812-1.032,1.252s-1.74,1.767-2.63,2.948c-.889,1.182-1.955,2.487-2.368,2.9-.414.414-.752.949-.752,1.189c0,.925,9.138,10.763,9.997,10.763.264,0,1.037.397,1.717.881c1.194.851,2.804,1.215,7.486,1.693c1.573.161,1.895.124,1.131-.131-.588-.197-2.208-.484-3.6-.638-1.505-.167-3.208-.671-4.202-1.243-.919-.529-1.926-.962-2.237-.962s-.949-.405-1.417-.9c-3.243-3.425-5.689-6.096-7.011-7.654l-1.536-1.811.98-.98c.539-.538,1.365-1.603,1.836-2.365s1.621-2.211,2.556-3.221c3.156-3.407,4.974-5.659,6.435-7.969.8-1.265,1.636-2.3,1.857-2.3.22,0,.951-.975,1.624-2.167.673-1.191,1.622-2.428,2.109-2.747.488-.32,1.424-1.614,2.081-2.877.657-1.262,1.501-2.512,1.876-2.777s1.241-1.551,1.924-2.857s1.66-2.768,2.171-3.248s1.445-1.965,2.076-3.3c.63-1.335,1.279-2.427,1.441-2.427.396,0,2.024-2.659,2.694-4.4.296-.77,1.023-1.94,1.616-2.6.594-.66,1.57-2.453,2.17-3.985s1.418-3.015,1.819-3.295c.401-.281,1.305-1.907,2.01-3.615s1.589-3.465,1.965-3.905c1.131-1.322,1.831-2.678,2.635-5.1.419-1.265.892-2.3,1.051-2.3.401,0,2.081-3.739,2.921-6.5.385-1.265.873-2.3,1.084-2.3.453,0,1.916-3.261,2.893-6.446.379-1.236,1.001-2.586,1.382-3c.905-.986,2.17-4.346,1.974-5.247-.137-.63-.181-.619-.401.093M138.4,156.784c.99.187,2.88.518,4.2.736c2.198.364,4.505,1.141,5,1.683.11.12.968.558,1.907.972.985.435,2.044,1.299,2.506,2.046.44.711,1.387,1.742,2.105,2.289.718.548,1.657,1.648,2.086,2.445s1.09,1.548,1.468,1.668c1.228.389,1.347,1.835.227,2.754-.552.453-1.283,1.363-1.625,2.023-.714,1.377-2.536,3.4-3.063,3.4-.197,0-.469.354-.607.787-.137.432-1.007,1.566-1.933,2.519-.926.952-2.274,2.652-2.995,3.776-.722,1.125-1.934,2.704-2.694,3.51s-1.382,1.694-1.382,1.973-.675,1.211-1.5,2.071-1.77,2.104-2.1,2.764-1.14,1.801-1.8,2.535-1.781,2.44-2.492,3.791c-.71,1.352-1.636,2.731-2.057,3.066-.421.334-1.33,1.761-2.019,3.17s-1.577,2.849-1.972,3.2c-.778.691-2.06,3.072-2.06,3.827c0,.257-.602,1.174-1.339,2.039-1.278,1.501-1.937,2.725-3.084,5.724-.284.743-.897,1.733-1.362,2.2-.464.466-1.365,2.108-2.001,3.648s-1.561,3.25-2.055,3.8c-.493.55-1.199,1.81-1.568,2.8-.978,2.626-1.9,4.476-2.656,5.327-.366.412-1.159,2.266-1.762,4.121-.603,1.854-1.515,3.859-2.027,4.454-.965,1.123-2.435,5.142-2.03,5.547.127.128.434-.519.681-1.437s1.035-2.601,1.751-3.74c1.188-1.891,2.652-5.667,2.652-6.843c0-.263.35-.853.777-1.312c1.073-1.152,2.355-3.609,2.868-5.496.236-.869,1.005-2.253,1.709-3.076s1.699-2.68,2.209-4.126c.511-1.447,1.152-2.763,1.424-2.925.685-.407,2.463-3.699,2.782-5.152.145-.659.807-1.795,1.472-2.523s1.751-2.47,2.413-3.871c.662-1.402,1.349-2.548,1.527-2.548s.971-1.305,1.762-2.9c.79-1.595,1.946-3.377,2.568-3.959.622-.583,1.478-1.843,1.903-2.8.425-.958,1.281-2.281,1.903-2.941s1.556-2.01,2.074-3s1.32-2.115,1.781-2.501c.462-.385,1.448-1.653,2.193-2.817s1.672-2.379,2.061-2.699c.388-.321,1.34-1.571,2.113-2.778.774-1.208,2.004-2.81,2.734-3.562.73-.751,1.327-1.508,1.327-1.682s.9-1.203,2-2.285c1.1-1.083,2-2.191,2-2.462s.495-.97,1.1-1.554c2.309-2.226,2.32-2.281.741-3.947-.789-.832-1.436-1.656-1.438-1.83-.008-.777-6.746-7.025-8.303-7.7-.935-.405-1.7-.854-1.7-.996c0-.408-3.904-1.14-7.2-1.35-2.395-.153-2.637-.123-1.2.147m85.2,1.83c-6.31,1.487-9.136,2.427-10.8,3.592-.99.693-2.52,1.587-3.4,1.986s-2.14,1.152-2.8,1.673-1.38,1.086-1.6,1.255c-.22.17-1.21.688-2.2,1.153-.99.464-2.177,1.358-2.638,1.985-.462.628-1.334,1.407-1.939,1.73s-2.363,1.793-3.907,3.266l-2.808,2.677.715,1.935c.416,1.124,1.532,2.772,2.665,3.934c1.072,1.1,2.317,2.381,2.766,2.847.784.813,3.169,1.753,4.449,1.753.336,0,1.485-.765,2.554-1.7s2.843-2.321,3.943-3.08s2.27-1.668,2.6-2.021s1.41-1.052,2.4-1.555s2.34-1.428,3-2.057c.66-.628,1.92-1.312,2.8-1.518.88-.207,1.893-.498,2.252-.647c2.143-.89,2.652,2.714.784,5.551-.57.865-1.616,2.661-2.325,3.99-.709,1.33-1.625,2.692-2.034,3.027-.41.336-1.258,1.51-1.884,2.61-.627,1.1-1.661,2.524-2.3,3.165-2.128,2.135-2.747,3.73-2.074,5.342.32.765.581,1.627.581,1.917c0,.884,5.321,6,6.764,6.503c2.55.89,5.233-.234,5.236-2.191c0-.256.517-.9,1.149-1.431.631-.532,1.66-1.763,2.286-2.736s1.636-2.356,2.244-3.074c.952-1.123,2.721-4.418,2.721-5.066c0-.118.63-.863,1.4-1.656s1.4-1.776,1.4-2.184.157-.839.348-.957c.192-.118.463-.789.604-1.49.14-.701.669-1.83,1.176-2.509c1.161-1.554,2.01-3.634,1.761-4.313-.105-.286-.326.02-.492.68s-.691,1.74-1.167,2.4c-.475.66-1.375,2.55-2,4.2s-1.558,3.409-2.075,3.909-1.371,1.85-1.898,3-1.701,2.988-2.608,4.084-1.649,2.204-1.649,2.462c0,.259-.9,1.404-2,2.545s-2,2.236-2,2.433c0,2.425-6.229,1.995-7.016-.484-.119-.373-.984-1.308-1.923-2.077-3.256-2.668-3.279-5.756-.069-9.272.803-.88,1.831-2.371,2.284-3.313s1.122-1.872,1.487-2.067c.364-.195,1.089-1.225,1.611-2.287.521-1.063,1.515-2.743,2.208-3.733c2.497-3.566,2.72-4.847,1.156-6.656l-1.062-1.228-2.628.953c-1.445.525-3.082,1.383-3.638,1.908-.555.524-1.939,1.464-3.074,2.088-1.136.624-2.666,1.68-3.4,2.346-.735.666-2.011,1.626-2.836,2.133s-1.725,1.236-2,1.621c-1.813,2.535-5.657,2.174-7.675-.721-.554-.794-1.518-1.783-2.142-2.198-1.075-.713-1.509-1.411-2.447-3.928-.356-.957-.256-1.211.864-2.2.696-.615,1.903-1.755,2.683-2.534.779-.779,1.957-1.75,2.617-2.159.66-.408,1.691-1.325,2.292-2.038.6-.713,1.573-1.417,2.161-1.565c1.043-.261,3.954-2.088,5.017-3.148.292-.29,1.16-.745,1.93-1.01s2.363-1.142,3.54-1.949c1.995-1.368,2.858-1.658,8.86-2.971c2.776-.608,7.555-.875,8.106-.454.272.208,1.493.684,2.715,1.057c1.221.372,2.481,1.054,2.8,1.514.318.46,1.238,1.532,2.043,2.382c1.713,1.81,2.237,5.34,1.794,12.084-.153,2.33-.109,3.38.122,2.873.498-1.095.51-10.861.015-12.641-.5-1.802-5.194-6.759-6.399-6.759-.46,0-1.322-.246-1.916-.547-1.609-.814-5.573-1.029-8.08-.439m-46.411,33.699c-.337.378-.877,1.21-1.2,1.849-.324.638-1.102,1.538-1.729,2-.627.461-1.503,1.548-1.947,2.415s-1.414,2.217-2.154,3-1.656,2.281-2.034,3.331c-.379,1.049-1.205,2.435-1.835,3.081-.631.645-1.56,2.306-2.065,3.692-.504,1.385-1.571,3.749-2.371,5.252s-1.436,3.213-1.413,3.8c.039,1.013.056,1.004.341-.194.166-.693.853-2.158,1.529-3.255c1.179-1.918,2.489-5.18,2.489-6.201c0-.269.792-1.454,1.76-2.634.967-1.179,1.858-2.618,1.979-3.197.12-.579.974-1.952,1.896-3.052s1.922-2.581,2.223-3.292c.3-.711.991-1.584,1.534-1.94s1.545-1.552,2.226-2.659l1.238-2.013l2.243.264c1.681.198,2.395.486,2.854,1.152.544.789,1.57,1.827,3.712,3.755c2.313,2.083,1.929,5.979-.842,8.533-.357.33-1.268,1.59-2.023,2.8s-1.607,2.345-1.892,2.523c-.286.178-1.141,1.579-1.899,3.114-.759,1.535-1.677,3.088-2.04,3.452-2.871,2.87-2.22,6.762,1.112,6.652c1.905-.063,5.018-1.412,5.369-2.327.116-.302,1.142-.999,2.28-1.548c1.139-.55,2.533-1.442,3.098-1.983.566-.54,1.826-1.475,2.8-2.077.975-.602,2.447-1.795,3.271-2.65c3.24-3.362,9.823.683,12.074,7.418.281.841-3.269,4.552-6.226,6.509-.829.548-1.772,1.401-2.096,1.896-.324.494-1.623,1.388-2.888,1.986-1.264.599-3.015,1.702-3.891,2.452s-2.42,1.666-3.432,2.038c-1.012.371-2.217,1.057-2.678,1.525s-1.631,1.091-2.6,1.384c-3.879,1.174-3.868,1.169-2.866,1.204c1.3.046,4.591-1.288,6.195-2.512.761-.581,1.52-1.056,1.686-1.056.461,0,3.164-1.315,3.67-1.785c1.476-1.371,2.55-2.104,4.095-2.795.958-.429,2.39-1.463,3.182-2.3.792-.836,1.644-1.52,1.893-1.52s1.189-.765,2.088-1.7c.9-.935,2.362-2.289,3.249-3.009c1.11-.9,1.545-1.525,1.395-2-.594-1.87-2.305-4.89-2.89-5.1-.362-.13-1.289-1.009-2.059-1.953-2.761-3.384-5.772-3.601-8.833-.638-1.264,1.223-2.202,1.964-3.761,2.97-.656.424-1.644,1.189-2.195,1.7s-1.634,1.229-2.407,1.594c-.772.365-2.034,1.192-2.805,1.838-1.391,1.165-3.966,2.28-5.29,2.292-2.056.018-2.362-3.602-.488-5.78.561-.653,1.541-2.277,2.177-3.609.635-1.332,1.628-2.865,2.205-3.407s1.318-1.554,1.647-2.247c.329-.694,1.083-1.816,1.674-2.494c3.399-3.894,3.554-4.287,2.711-6.866-.833-2.548-5.355-7.315-7.309-7.706-.678-.135-1.659-.339-2.179-.453-.6-.13-1.171.046-1.558.481M159.857,223.5c-.336,2.032-.251,7.267.138,8.5.189.597.322-1.215.33-4.5.015-5.785-.063-6.453-.468-4m.597,10.376c-.097,1.559,4.447,6.307,6.46,6.749.627.138,1.623.502,2.213.81c1.459.762,4.896.655,8.273-.256c1.758-.474,2.204-.683,1.2-.561-4.577.554-7.788.651-9.031.272-.753-.23-1.902-.537-2.554-.683-1.39-.311-6.076-4.989-6.335-6.325l-.171-.882-.055.876M227.4,243.84c-1.32.534-2.464,1.161-2.543,1.395-.079.233-.799.996-1.6,1.695-.801.698-2.225,2.035-3.163,2.97s-1.801,1.7-1.917,1.7c-.294,0-1.233.781-2.715,2.256-.694.691-1.657,1.457-2.141,1.703-.483.246-1.675,1.12-2.648,1.944-3.04,2.573-3.471,2.897-3.862,2.897-.209,0-1.062.675-1.896,1.5-.833.825-2.055,1.769-2.715,2.097-.66.329-1.796,1.176-2.524,1.884s-2.101,1.675-3.052,2.15c-.95.474-2.335,1.387-3.076,2.028-.741.64-2.124,1.556-3.072,2.036-.948.479-2.334,1.463-3.08,2.188-.746.724-1.625,1.317-1.953,1.317-.327,0-.698.166-.824.369-.125.203-.734.481-1.352.616-.618.136-1.72.791-2.448,1.456s-2.47,1.751-3.871,2.413c-1.402.662-2.548,1.342-2.548,1.51c0,.32-4.087,2.436-4.704,2.436-.196,0-1.225.619-2.289,1.375s-3.031,1.778-4.371,2.271-2.921,1.295-3.515,1.781c-.593.487-2.393,1.387-4,2.001-1.606.613-3.501,1.538-4.209,2.055-.709.517-2.059,1.282-3,1.7-1.245.553-1.473.768-.836.789.482.015.988-.152,1.124-.372s.597-.4,1.024-.4.777-.135.779-.3c.005-.601,2.692-2.109,5.213-2.925c1.421-.46,3.262-1.373,4.09-2.029s2.618-1.558,3.977-2.005c1.359-.446,3.178-1.415,4.041-2.154s2.101-1.461,2.75-1.603c1.56-.343,2.621-.916,4.6-2.484.903-.715,1.768-1.3,1.923-1.3.656,0,3.265-1.418,4.006-2.177.442-.453,1.252-1.032,1.8-1.287s1.861-.861,2.918-1.346c1.056-.485,2.192-1.296,2.524-1.802.331-.506,1.329-1.211,2.217-1.566c1.331-.533,4.327-2.541,5.138-3.445.11-.122.741-.441,1.401-.707.661-.267,2.055-1.292,3.099-2.278c1.043-.985,2.152-1.792,2.465-1.792.312,0,1.077-.548,1.701-1.217s2.034-1.774,3.134-2.455c1.1-.68,2.379-1.644,2.843-2.141.463-.498,1.633-1.4,2.6-2.005.966-.605,2.193-1.62,2.726-2.254.533-.635,1.64-1.531,2.46-1.992s1.733-1.291,2.029-1.844s1.2-1.423,2.008-1.934c.809-.51,1.952-1.56,2.541-2.332.716-.939,1.524-1.489,2.437-1.661.751-.14,1.463-.415,1.584-.61.718-1.163,1.799-.535,5.469,3.177c6.125,6.196,6.104,6.16,6.43,11c.234,3.467,2.695,12.136,2.998,10.561.072-.371-.31-1.983-.847-3.583-1.031-3.07-1.714-6.347-2.038-9.779-.107-1.138-.52-2.482-.918-2.987-1.292-1.643-9.272-9.545-9.601-9.509-.177.02-1.401.472-2.721,1.005m36,.16c1.74.443,4.382.443,3,0-.55-.176-1.72-.317-2.6-.313-1.522.007-1.542.023-.4.313m5.8,1.03c.99.364,1.89.795,2,.957.203.3,1.965,1.125,4.28,2.006.703.268,1.513.4,1.8.294.394-.147.375-.24-.08-.384-.33-.104-1.32-.414-2.2-.687s-2.293-.943-3.139-1.488-2.196-1.074-3-1.176c-1.447-.183-1.444-.178.339.478m9.2,3.651c.33.121,1.05.629,1.6,1.131c1.215,1.109,3.444,2.366,4.8,2.708.55.139,1.886,1.068,2.969,2.066s2.158,1.814,2.388,1.814c.505,0,1.141.603,10.943,10.367c4.235,4.219,7.7,7.819,7.7,8c0,.182.595.737,1.321,1.235.727.498,1.709,1.496,2.182,2.218s1.398,1.631,2.055,2.019c.656.387,1.504,1.281,1.883,1.985s1.192,1.577,1.805,1.94c.614.362,1.474,1.162,1.913,1.778s1.503,1.826,2.365,2.689c1.817,1.818,2.552,4.365,2.182,7.562-.327,2.82-.805,3.456-8.984,11.948-19.951,20.715-19.421,20.259-23.56,20.259-4.003,0-4.706-.561-17.562-14.005-3.85-4.027-8.755-9.123-10.9-11.326-2.145-2.202-3.9-4.131-3.9-4.285c0-.155-.9-1.21-2-2.345-1.1-1.136-2-2.232-2-2.436c0-.205-.72-1.085-1.6-1.956s-1.6-1.838-1.6-2.148c0-.804-1.78-4.212-2.734-5.234-.444-.476-.934-1.405-1.09-2.065-.308-1.303-2.2-5.476-2.63-5.8-.34-.256-1.406-3.721-1.785-5.8-.167-.914-.363-1.296-.458-.891-.33,1.417,1.223,6.494,2.535,8.291.242.33.931,1.86,1.533,3.4s1.428,3.16,1.835,3.6c.408.44,1.289,2.024,1.959,3.519.67,1.496,1.852,3.317,2.627,4.047.774.731,1.408,1.547,1.408,1.814s.696,1.236,1.546,2.153s2.692,2.927,4.094,4.467c2.471,2.716,6.33,6.746,15.278,15.956c11.064,11.387,10.611,11.034,14.563,11.351c5,.402,6.164-.539,24.119-19.489c3.41-3.599,6.65-7.015,7.2-7.592c1.805-1.892,2.024-2.317,2.408-4.673.664-4.081-.149-7.06-2.478-9.084-1.057-.918-1.923-1.882-1.925-2.142-.003-.26-.59-.88-1.305-1.377-.715-.498-1.57-1.262-1.9-1.7-.959-1.27-3.667-3.85-4.042-3.85-.188,0-.446-.405-.573-.9-.126-.495-.953-1.416-1.838-2.048-.884-.631-1.786-1.531-2.004-2-.219-.468-1.195-1.458-2.17-2.199-.975-.74-1.773-1.507-1.773-1.702c0-.196-2.336-2.65-5.19-5.454-7.792-7.651-9.166-8.897-9.816-8.897-.327,0-.594-.168-.594-.373s-.351-.484-.78-.621c-.428-.136-.887-.589-1.02-1.006s-.637-.882-1.12-1.032c-1.929-.598-4.549-1.973-5.794-3.041-.723-.62-1.623-1.113-2-1.095-.55.025-.567.074-.086.249m-172.392,7.802c-1.259,2.171-2.344,5.206-2.39,6.684-.033,1.053.451.106.836-1.636.435-1.97,1.225-3.931,1.583-3.931.309,0,1.742-3.157,1.526-3.362-.09-.085-.789.925-1.555,2.245m-3.154,8.735c-.234.669-.77,1.704-1.193,2.3-.885,1.248-2.238,5.763-1.962,6.55.102.293.404-.502.671-1.766s1.103-3.323,1.858-4.576c.755-1.254,1.372-2.605,1.372-3.002c0-1.062-.265-.886-.746.494M98.807,276.2c-.288.88-.84,2.007-1.226,2.504s-.996,2.297-1.355,4c-1.042,4.946-1.516,6.579-2.463,8.496-.841,1.702-2.163,7.567-2.163,9.598c0,1.722.377.583.802-2.422.231-1.637.976-4.416,1.655-6.176c1.329-3.445,2.088-6.157,2.511-8.977.146-.978.683-2.598,1.193-3.6c1.701-3.346,1.933-3.941,1.751-4.484-.1-.296-.417.181-.705,1.061m44.787,20.996c-3.347,1.91-4.359,2.343-7.121,3.048-1.61.411-3.287,1.082-3.726,1.491-.898.837-4.136,2.057-7.21,2.716-1.129.242-3.242,1.031-4.695,1.754s-3.362,1.458-4.242,1.634c-1.406.281-1.469.337-.52.465.594.08,1.438-.046,1.874-.279.436-.234,1.079-.425,1.428-.425.348,0,1.305-.423,2.126-.94c1.661-1.046,3.128-1.576,6.733-2.433c1.343-.319,3.486-1.21,4.764-1.979c1.277-.77,3.05-1.522,3.939-1.672c1.926-.326,4.379-1.339,6.532-2.698.862-.544,1.918-1.078,2.346-1.187.749-.191.748-.2-.028-.245-.444-.025-1.434.312-2.2.75m-52.163,8.166c.073,1.519.321,2.95.551,3.18s.418.702.418,1.049c0,1.298,2.407,2.614,5.448,2.978l1.952.234-2.4-.653c-4.092-1.114-5.382-2.881-5.951-8.15-.084-.77-.092-.157-.018,1.362M112,308.688c-.55.099-1.171.344-1.38.546-.209.201-.704.366-1.1.366s-.72.152-.72.337c0,.423-2.619,1.246-6,1.883-2.579.486-2.585.491-.766.535c1.802.044,6.193-1.148,7.766-2.108.44-.269,1.61-.726,2.6-1.016.99-.291,1.98-.582,2.2-.648.609-.182-1.464-.098-2.6.105" fill="#8c6c6c" fill-rule="evenodd"/><path d="M108.709,69.824c-.123.123-1.416.393-2.873.599-2.817.399-5.606,1.823-6,3.063-.125.393-.794,1.165-1.486,1.715-.693.549-1.55,1.354-1.905,1.788s-1.455,1.622-2.445,2.641-2.387,2.464-3.105,3.211c-.718.748-1.576,1.629-1.906,1.959-.466.465-8.012,8.297-10.878,11.289-.269.281-.679.691-.91.911-1.659,1.573-2.387,2.948-2.636,4.98-.15,1.221-.384,2.31-.519,2.42-.914.744-1.133,1.878-.444,2.308.411.257.843,1.189,1.007,2.171.404,2.435,1.186,3.763,2.576,4.378.662.293,1.368,1.007,1.57,1.586.458,1.314,1.97,2.757,2.889,2.757.435,0,.862.51,1.145,1.367.452,1.371,1.874,2.633,2.965,2.633.32,0,.696.515.834,1.145.271,1.232,1.695,2.696,2.839,2.918.389.075.886.677,1.105,1.337.446,1.344,1.168,2.045,2.723,2.642.691.265,1.133.799,1.283,1.549.158.789.738,1.448,1.869,2.122.903.538,1.945,1.588,2.317,2.333s1.323,1.701,2.115,2.124c.791.424,1.622,1.255,1.845,1.847.252.668.998,1.339,1.961,1.767.954.423,1.787,1.169,2.155,1.929.411.85,1.11,1.421,2.221,1.817.995.355,1.95,1.078,2.471,1.873.589.9,1.491,1.525,2.952,2.046c1.157.413,2.732,1.342,3.5,2.065.769.722,2.041,1.477,2.827,1.677s2.086.531,2.889.735s2.165.939,3.028,1.632c1.525,1.225,6.764,2.442,10.518,2.442.591,0,1.881.429,2.866.952.985.524,3.127,1.251,4.76,1.615c4.872,1.088,5.502,1.374,6.178,2.797.346.731,1.317,1.697,2.204,2.196.979.55,1.586,1.182,1.586,1.652c0,.418.541,1.377,1.203,2.13.905,1.032,1.065,1.423.644,1.585-.612.235-1.847,2.47-1.847,3.344c0,.302-.405.704-.9.893-1.09.417-1.98,1.395-2.873,3.157-.368.726-.974,1.43-1.348,1.564-.969.347-2.079,1.575-2.079,2.298c0,.339-.16.617-.357.617-.196,0-.466.438-.601.973-.134.536-.603,1.088-1.043,1.227-.439.14-.799.394-.799.565s-.45.834-1,1.473-1.11,1.747-1.244,2.462c-.135.715-.487,1.3-.782,1.3-.926,0-2.527,1.939-2.975,3.604-.236.878-.662,1.596-.945,1.596-.979,0-3.454,3.684-3.454,5.14c0,.231-.606.882-1.348,1.447-.945.721-1.548,1.665-2.019,3.165-.441,1.402-.976,2.276-1.553,2.54-1.018.465-2.532,3.111-2.898,5.066-.161.854-.583,1.496-1.156,1.758-.964.438-2.333,2.991-2.827,5.268-.168.777-.876,1.917-1.616,2.6-.889.821-1.52,1.945-1.945,3.46-.387,1.385-1.153,2.818-2,3.742-.922,1.007-1.598,2.334-2.062,4.047-.423,1.563-.942,2.629-1.341,2.756-.919.292-1.901,2.35-2.677,5.611-.499,2.102-.99,3.125-1.966,4.102-.716.716-1.404,1.796-1.53,2.4-1.06,5.112-1.244,5.702-1.836,5.89-1.149.364-2.301,3.394-3.04,7.994-.14.873-.594,1.824-1.008,2.115-1.319.923-2.423,4.024-2.98,8.369-.15,1.178-.501,2.161-.813,2.281-1.293.496-2.324,3.809-3.18,10.215-.133.995-.567,2.054-.993,2.423-3.276,2.842-4.337,20.943-1.4,23.881c2.783,2.782,17.872,1.741,20.484-1.413.273-.33,1.353-.732,2.4-.895c7.268-1.127,7.714-1.25,9.015-2.482.764-.723,1.94-1.336,2.889-1.506c4.909-.878,6.039-1.253,7.713-2.557c1.176-.917,2.522-1.524,4.027-1.817c1.243-.242,2.754-.535,3.357-.651s1.662-.81,2.352-1.542c.712-.754,1.797-1.42,2.504-1.536c3.669-.601,5.028-1.158,6.097-2.499.601-.754,1.429-1.372,1.839-1.372c1.962,0,5.448-1.414,6.168-2.501.409-.618,1.193-1.226,1.743-1.351c3.698-.845,5.352-1.591,6.12-2.763.636-.97,1.285-1.343,3.044-1.75c2.685-.62,4.233-1.471,4.753-2.613.247-.543,1.17-1.092,2.578-1.536c1.205-.38,2.736-1.212,3.402-1.848c1.112-1.063,1.984-1.546,4.984-2.764.594-.242,1.364-.987,1.71-1.657.37-.715.946-1.217,1.398-1.217c1.124,0,3.991-1.654,5.68-3.276.808-.777,1.978-1.514,2.6-1.64.764-.155,1.378-.692,1.894-1.657.42-.785,1.014-1.427,1.32-1.427.889,0,2.921-1.176,4.079-2.361.587-.601,2.082-1.699,3.323-2.441s2.433-1.738,2.649-2.212c.216-.475,1.207-1.246,2.203-1.714c1.061-.499,2.027-1.302,2.336-1.943.297-.615,1.274-1.45,2.236-1.911c1.151-.551,1.853-1.209,2.152-2.018.291-.787,1.006-1.476,2.076-2c.898-.44,1.921-1.335,2.274-1.989.393-.728,1.097-1.298,1.815-1.47.646-.154,1.561-.4,2.034-.547.698-.216,1.113.074,2.2,1.539.737.993,1.738,1.992,2.225,2.221.487.228,1.336,1.128,1.885,1.999.55.871,1.35,1.695,1.778,1.831c1.072.34,1.193.799,1.667,6.347.501,5.856.893,7.461,2.202,9.017.71.843,1.106,1.97,1.377,3.918.832,5.978.888,6.164,2.29,7.65.753.799,1.476,2,1.607,2.668.401,2.059,1.538,4.353,2.853,5.758.691.739,1.256,1.614,1.256,1.946c0,1.147,1.711,3.653,2.657,3.891.535.134.944.536.946.929.004,1.178,2.393,4.222,7.797,9.937c2.732,2.889,2.626,2.782,4.203,4.249.772.719,1.76,1.801,2.195,2.406.436.605,1.015,1.1,1.288,1.1.272,0,.805.495,1.184,1.1s2.428,2.81,4.555,4.9s4.076,4.203,4.333,4.696c.256.493,1.001,1.173,1.656,1.511.655.339,1.626,1.305,2.158,2.148c2.637,4.178,13.389,3.915,16.734-.409.828-1.07,1.773-1.946,2.1-1.946s.594-.165.594-.367s1.935-2.37,4.3-4.817s4.844-5.026,5.509-5.732c.666-.706,1.52-1.554,1.899-1.884c5.519-4.802,10.389-10.986,10.869-13.8.149-.88.504-2.027.788-2.549.436-.802.407-1.172-.19-2.4-.388-.798-1.039-2.351-1.447-3.451-.567-1.531-1.044-2.134-2.034-2.572-.715-.316-1.294-.872-1.294-1.242c0-.942-1.735-2.704-2.966-3.013-.569-.143-1.034-.517-1.034-.83c0-1.04-1.297-2.573-2.659-3.142-.903-.377-1.341-.828-1.341-1.381c0-.451-.168-.82-.373-.82s-.483-.347-.618-.772c-.136-.427-.76-.886-1.397-1.025-.763-.168-1.282-.616-1.538-1.328-.513-1.425-1.932-2.875-2.813-2.875-.445,0-.978-.614-1.437-1.655-.475-1.077-1.117-1.801-1.838-2.073-.623-.235-1.385-.999-1.741-1.748-.349-.731-1.221-1.686-1.937-2.121-.716-.436-1.759-1.47-2.317-2.298-.626-.929-1.512-1.653-2.317-1.892-.846-.251-1.383-.708-1.533-1.304-.264-1.054-1.839-2.271-3.441-2.658-.605-.147-1.1-.501-1.1-.789c0-.832-1.638-2.095-3.727-2.873-1.06-.395-2.495-1.249-3.189-1.897-1.427-1.333-2.385-1.76-5.269-2.347-1.108-.226-2.285-.711-2.615-1.078-1.569-1.745-3.993-2.464-10.379-3.077-1.572-.151-3.003-.55-3.666-1.022-.598-.426-1.688-.871-2.421-.989-5.081-.815-7.983-1.957-8.836-3.474-.464-.827-1.364-1.728-1.999-2.004-.781-.339-1.418-1.111-1.97-2.388-.473-1.093-1.162-1.997-1.639-2.148l-.823-.261.846-.652c.465-.359,1.196-1.477,1.624-2.486.55-1.298,1.136-1.982,2.003-2.341.833-.345,1.37-.947,1.678-1.88.25-.756.932-1.68,1.518-2.054c1.502-.961,1.92-1.408,2.23-2.382.149-.47,1.068-1.722,2.042-2.782c1.664-1.811,2.656-3.392,3.157-5.036.119-.39.536-.828.926-.972c1.024-.38,2.508-2.194,2.509-3.065c0-.411.712-1.401,1.582-2.2.87-.8,2.022-2.444,2.559-3.654.538-1.21,1.543-2.736,2.235-3.391.734-.695,1.437-1.899,1.685-2.887.256-1.014.713-1.787,1.139-1.922c1.051-.334,2.746-3.12,3.049-5.014.147-.923.535-1.758.877-1.89c1.235-.474,2.078-1.742,2.917-4.388.572-1.802,1.228-3.007,1.963-3.602.725-.587,1.354-1.728,1.832-3.324.438-1.461,1.219-2.939,1.959-3.706c1.274-1.319,1.972-2.755,2.402-4.942.137-.697.773-1.814,1.413-2.484c1.397-1.461,2.171-3.207,2.553-5.759.194-1.289.67-2.312,1.486-3.194c1.427-1.541,2.16-3.143,2.533-5.538.4-2.563.614-3.158,1.143-3.172c1.127-.03,2.43-3.195,2.849-6.92.159-1.407.574-2.348,1.528-3.463c1.391-1.625,2.118-3.746,2.553-7.453.147-1.252.555-2.566.905-2.92c1.377-1.391,2.054-2.913,2.454-5.516.842-5.487,1.078-6.603,1.446-6.856c1.346-.926,2.142-2.962,2.542-6.507.233-2.064.618-5.012.857-6.552.676-4.36-.102-9.518-1.667-11.051-2.802-2.747-18.318-1.862-20.454,1.167-.347.493-1.254.865-2.54,1.042-5.696.785-8.572,1.695-9.487,3.002-.301.43-1.263.85-2.314,1.009-4.8.728-7.015,1.549-8.458,3.135-.363.399-1.623.884-2.8,1.079-3.526.582-6.206,1.762-6.563,2.888-.148.466-.822.766-2.098.935-1.034.137-2.33.442-2.88.678-2.54,1.088-3.62,1.749-3.803,2.325-.125.394-1.25.871-3.044,1.292-3.081.723-4.749,1.6-5.023,2.64-.117.441-1.114.887-3.016,1.349-2.736.665-4.714,1.896-4.714,2.935c0,.267-.662.61-1.471.762-2.279.427-4.958,1.838-5.421,2.855-.254.557-.908,1.017-1.663,1.169-1.881.378-5.403,2.227-5.635,2.958-.113.355-1.239,1.002-2.504,1.438-1.693.584-2.51,1.131-3.102,2.078-.442.706-1.074,1.295-1.404,1.308-1.142.046-4.008,1.574-5.038,2.686-.569.614-2.054,1.658-3.298,2.319-1.562.829-2.303,1.477-2.39,2.089-.094.658-.486.954-1.522,1.148-.847.159-2.08.912-3.133,1.914-.954.908-2.592,2.101-3.639,2.651s-2.191,1.49-2.542,2.09c-.351.599-1.263,1.409-2.027,1.8-1.697.867-2.556,1.629-3.171,2.81-.257.495-.797.9-1.2.9-.863,0-2.84,1.862-2.84,2.675c0,.311-.613.822-1.363,1.135-1.414.591-3.037,2.311-3.037,3.219c0,.312-.726.631-1.805.793-.993.149-1.912.443-2.042.654-.266.431-2.148-1.176-2.162-1.846-.004-.236-.726-.938-1.605-1.56-.878-.621-1.867-1.653-2.198-2.293s-1.13-1.437-1.776-1.771c-1.401-.724-2.001-2.505-2.023-6.006-.029-4.518-.647-7.746-1.825-9.526-.834-1.261-1.282-2.739-1.822-6.016-.701-4.253-.91-4.785-2.544-6.471-.442-.455-1.137-2.118-1.546-3.695-.604-2.328-.992-3.057-2.064-3.874-.871-.665-1.547-1.691-1.989-3.02-.461-1.39-1-2.185-1.74-2.567-.589-.305-1.377-1.248-1.751-2.096-.661-1.498-2.586-3.824-7.108-8.588-1.21-1.274-2.479-2.639-2.82-3.032s-1.196-1.147-1.9-1.675-1.28-1.17-1.28-1.428c0-.457-1.776-2.212-2.239-2.212-.345,0-1.731-1.736-1.756-2.2-.012-.22-.74-.908-1.619-1.53-.878-.621-1.857-1.634-2.176-2.251-.32-.618-1.235-1.508-2.034-1.98-.799-.471-1.649-1.379-1.89-2.017-.247-.655-1.086-1.525-1.926-1.996-.818-.46-1.851-1.454-2.297-2.209-.827-1.402-3.632-3.017-5.241-3.017-.452,0-.822-.18-.822-.4c0-.422-1.309-.558-1.691-.176m9.691,7.377c3.586,3.683,11.703,12.122,20.5,21.312c1.265,1.322,2.3,2.55,2.3,2.729s.716.988,1.591,1.798c.875.809,1.705,1.851,1.846,2.316.141.464,1.023,1.6,1.961,2.524.938.923,1.831,2.183,1.985,2.8.153.616.701,1.675,1.217,2.353c1.435,1.885,2.473,3.879,2.803,5.381.278,1.267.92,2.722,1.406,3.186c1.113,1.064,2.165,4.064,2.594,7.4.142,1.1.595,3.091,1.008,4.425.846,2.732,1.793,7.316,2.174,10.519.313,2.635,2.139,5.445,5.334,8.207.286.247.736.684,1,.971c1.011,1.097,3.172,3.089,3.617,3.333c1.037.571,4.454-1.024,6.159-2.875.932-1.011,2.127-2.071,2.656-2.354.528-.283,1.186-.934,1.46-1.447.275-.513,1.271-1.42,2.214-2.016s2.093-1.597,2.556-2.223c.464-.627,1.016-1.14,1.226-1.14.408,0,.593-.139,3.944-2.952c1.183-.993,2.758-2.093,3.5-2.445s1.349-.813,1.349-1.024c0-.212,1.234-1.175,2.742-2.142c1.508-.966,2.838-2,2.956-2.297s.909-.891,1.758-1.321c.849-.429,2.264-1.336,3.144-2.014c2.145-1.654,3.679-2.605,4.203-2.605.238,0,.919-.466,1.514-1.035c1.367-1.306,3.908-2.961,4.575-2.978.279-.008,1.228-.544,2.108-1.191.88-.648,2.95-1.837,4.6-2.642s3.27-1.771,3.6-2.147s1.32-.997,2.2-1.381c2.605-1.136,3.764-1.827,4.793-2.855.534-.534,1.251-.971,1.594-.971s.936-.165,1.318-.367c.382-.201,1.304-.593,2.048-.87s1.824-.896,2.4-1.375c.576-.478,2.204-1.268,3.619-1.753c3.006-1.033,3.888-1.474,4.978-2.489.44-.41,2.324-1.231,4.188-1.824c1.863-.594,3.859-1.476,4.436-1.961.576-.485,1.797-1.084,2.712-1.33c3.952-1.064,6.566-2.049,7.329-2.759.45-.419,2.026-1.077,3.501-1.462c4.212-1.099,6.12-1.781,7.265-2.596.582-.415,2.4-1.054,4.039-1.419c4.369-.973,7.221-1.838,8.598-2.608c4.445-2.485,14.232-2.495,16.239-.016c2.414,2.981,1.951,12.38-.966,19.629-.664,1.65-1.533,4.596-1.93,6.547-.398,1.951-1.241,4.651-1.874,6s-1.349,3.173-1.591,4.053c-1.448,5.263-1.87,6.48-2.496,7.2-.382.44-.999,1.88-1.37,3.2-1.258,4.474-1.978,6.393-2.685,7.151-.387.416-1.014,1.767-1.393,3.003-.977,3.185-2.44,6.446-2.893,6.446-.211,0-.699,1.035-1.084,2.3-.84,2.761-2.52,6.5-2.921,6.5-.159,0-.632,1.035-1.051,2.3-.804,2.422-1.504,3.778-2.635,5.1-.376.44-1.26,2.197-1.965,3.905s-1.609,3.334-2.01,3.615c-.401.28-1.219,1.763-1.819,3.295s-1.576,3.325-2.17,3.985c-.593.66-1.32,1.83-1.616,2.6-.67,1.741-2.298,4.4-2.694,4.4-.162,0-.811,1.092-1.441,2.427-.631,1.335-1.565,2.82-2.076,3.3s-1.488,1.942-2.171,3.248-1.549,2.592-1.924,2.857-1.219,1.515-1.876,2.777c-.657,1.263-1.593,2.557-2.081,2.877-.487.319-1.436,1.556-2.109,2.747-.673,1.192-1.404,2.167-1.624,2.167-.221,0-1.057,1.035-1.857,2.3-1.461,2.31-3.279,4.562-6.435,7.969-.935,1.01-2.085,2.459-2.556,3.221s-1.297,1.827-1.836,2.365l-.98.98l1.536,1.811c1.322,1.558,3.768,4.229,7.011,7.654.468.495,1.106.9,1.417.9s1.318.429,2.237.954s2.661,1.072,3.871,1.216c6.77.806,13.157,2.191,14.709,3.19.82.527,2.211,1.179,3.091,1.449.88.269,1.913.647,2.295.84s.96.351,1.286.351c.325,0,1.182.507,1.905,1.127c1.245,1.068,3.865,2.443,5.794,3.041.483.15.987.615,1.12,1.032s.592.87,1.02,1.006c.429.137.78.416.78.621s.267.373.594.373c.65,0,2.024,1.246,9.816,8.897c2.854,2.804,5.19,5.258,5.19,5.454c0,.195.798.962,1.773,1.702.975.741,1.951,1.731,2.17,2.199.218.469,1.12,1.369,2.004,2c.885.632,1.712,1.553,1.838,2.048.127.495.385.9.573.9.375,0,3.083,2.58,4.042,3.85.33.438,1.185,1.202,1.9,1.7.715.497,1.302,1.117,1.305,1.377.002.26.868,1.224,1.925,2.142c2.329,2.024,3.142,5.003,2.478,9.084-.384,2.356-.603,2.781-2.408,4.673-.55.577-3.79,3.993-7.2,7.592-17.955,18.95-19.119,19.891-24.119,19.489-3.952-.317-3.499.036-14.563-11.351-8.948-9.21-12.807-13.24-15.278-15.956-1.402-1.54-3.244-3.55-4.094-4.467s-1.546-1.886-1.546-2.153-.634-1.083-1.408-1.814c-.775-.73-1.957-2.551-2.627-4.047-.67-1.495-1.551-3.079-1.959-3.519-.407-.44-1.233-2.06-1.835-3.6s-1.306-3.07-1.565-3.4c-.819-1.042-1.668-3.317-2.166-5.8-.265-1.32-1.109-4.316-1.877-6.657-.967-2.95-1.469-5.346-1.635-7.8-.327-4.852-.305-4.814-6.431-11.011-3.67-3.712-4.751-4.34-5.469-3.177-.121.195-.833.47-1.584.61-.913.172-1.721.722-2.437,1.661-.589.772-1.732,1.822-2.541,2.332-.808.511-1.712,1.381-2.008,1.934s-1.209,1.383-2.029,1.844-1.927,1.357-2.46,1.992c-.533.634-1.76,1.649-2.726,2.254-.967.605-2.137,1.507-2.6,2.005-.464.497-1.743,1.461-2.843,2.141-1.1.681-2.51,1.786-3.134,2.455s-1.389,1.217-1.701,1.217c-.313,0-1.422.807-2.465,1.792-1.044.986-2.438,2.011-3.099,2.278-.66.266-1.291.585-1.401.707-.811.904-3.807,2.912-5.138,3.445-.888.355-1.886,1.06-2.217,1.566-.332.506-1.468,1.317-2.524,1.802-1.057.485-2.37,1.091-2.918,1.346s-1.358.834-1.8,1.287c-.741.759-3.35,2.177-4.006,2.177-.155,0-1.02.585-1.923,1.3-1.979,1.568-3.04,2.141-4.6,2.484-.649.142-1.887.864-2.75,1.603s-2.682,1.708-4.041,2.154c-1.359.447-3.149,1.349-3.977,2.005s-2.669,1.569-4.09,2.029c-2.521.816-5.208,2.324-5.213,2.925-.002.165-.352.3-.779.3s-.873.156-.992.347c-.118.192-.948.465-1.844.608-.896.144-2.36.723-3.254,1.287-2.208,1.393-4.647,2.405-6.59,2.734-.889.15-2.662.902-3.939,1.672-1.278.769-3.421,1.66-4.764,1.979-3.556.845-5.068,1.385-6.641,2.371-1.462.916-2.351,1.187-6,1.83-2.346.414-3.632.832-6.225,2.023-6.774,3.115-16.975,2.597-16.975-.86c0-.347-.225-.856-.5-1.131-1.3-1.302.02-13.531,1.863-17.26.947-1.917,1.421-3.55,2.463-8.496.359-1.703.965-3.503,1.348-4c.746-.97,1.585-3.342,2.652-7.504.367-1.43,1.002-3.071,1.411-3.648.969-1.366,1.495-2.736,2.36-6.152.391-1.54,1.361-3.869,2.157-5.176.795-1.308,1.446-2.624,1.446-2.925c0-1.172,1.286-4.396,2.159-5.412.504-.587,1.411-2.585,2.014-4.439.603-1.855,1.396-3.709,1.762-4.121.756-.851,1.678-2.701,2.656-5.327.369-.99,1.075-2.25,1.568-2.8.494-.55,1.419-2.26,2.055-3.8s1.537-3.182,2.001-3.648c.465-.467,1.078-1.457,1.362-2.2c1.147-2.999,1.806-4.223,3.084-5.724.737-.865,1.339-1.782,1.339-2.039c0-.755,1.282-3.136,2.06-3.827.395-.351,1.283-1.791,1.972-3.2s1.598-2.836,2.019-3.17c.421-.335,1.347-1.714,2.057-3.066.711-1.351,1.832-3.057,2.492-3.791s1.47-1.875,1.8-2.535s1.275-1.904,2.1-2.764s1.5-1.792,1.5-2.071.622-1.167,1.382-1.973s1.972-2.385,2.694-3.51c.721-1.124,2.069-2.824,2.995-3.776.926-.953,1.796-2.087,1.933-2.519.138-.433.41-.787.607-.787.527,0,2.349-2.023,3.063-3.4.342-.66,1.073-1.57,1.625-2.023c1.12-.919,1.001-2.365-.227-2.754-.378-.12-1.039-.871-1.468-1.668s-1.368-1.897-2.086-2.445c-.718-.547-1.665-1.578-2.105-2.289-.462-.747-1.521-1.611-2.506-2.046-.939-.414-1.797-.852-1.907-.972-.844-.925-3.094-1.453-11-2.58-4.869-.694-5.817-.974-8.612-2.55-1.203-.679-2.954-1.356-3.891-1.505s-2.539-.833-3.56-1.52c-2.468-1.658-3.239-2.095-5.137-2.913-.88-.379-1.979-1.086-2.443-1.571-.463-.485-1.633-1.377-2.6-1.982-.966-.605-2.201-1.629-2.744-2.276-.542-.646-1.474-1.427-2.07-1.736-.596-.308-1.592-1.272-2.213-2.142-.622-.87-1.514-1.759-1.982-1.975-.469-.216-1.369-1.123-2-2.017-.632-.894-1.463-1.729-1.847-1.857-.385-.128-1.24-1.018-1.901-1.979s-1.516-1.851-1.901-1.979c-.384-.128-1.215-.963-1.847-1.857-.631-.894-1.538-1.802-2.015-2.02-.477-.217-1.4-1.191-2.052-2.164-.652-.972-1.495-1.871-1.875-1.998-.379-.126-1.096-.804-1.594-1.506-1.454-2.051-2.061-2.676-2.599-2.676-.278,0-.978-.714-1.555-1.586s-1.634-2.031-2.347-2.576c-1.252-.954-1.539-1.48-2.587-4.742-.869-2.707.333-6.667,2.765-9.106.554-.556,1.586-1.636,2.293-2.4.708-.765,1.518-1.629,1.8-1.921c3.124-3.228,6.098-6.321,12.677-13.179c8.512-8.876,9.047-9.277,12.837-9.641c3.833-.367,5.59.601,10.8,5.952m106.317,81.815c-.119.119-1.094.376-2.166.57-5.106.928-6.981,1.537-9.011,2.929-1.177.807-2.77,1.684-3.54,1.949s-1.638.72-1.93,1.01c-1.063,1.06-3.974,2.887-5.017,3.148-.588.148-1.561.852-2.161,1.565-.601.713-1.632,1.63-2.292,2.038-.66.409-1.838,1.38-2.617,2.159-.78.779-1.987,1.919-2.683,2.534-1.12.989-1.22,1.243-.864,2.2.938,2.517,1.372,3.215,2.447,3.928.624.415,1.588,1.404,2.142,2.198c2.018,2.895,5.862,3.256,7.675.721.275-.385,1.175-1.114,2-1.621s2.101-1.467,2.836-2.133c.734-.666,2.264-1.722,3.4-2.346c1.135-.624,2.519-1.564,3.074-2.088.556-.525,2.193-1.383,3.638-1.908l2.628-.953l1.062,1.228c1.564,1.809,1.341,3.09-1.156,6.656-.693.99-1.687,2.67-2.208,3.733-.522,1.062-1.247,2.092-1.611,2.287-.365.195-1.034,1.125-1.487,2.067s-1.481,2.433-2.284,3.313c-3.21,3.516-3.187,6.604.069,9.272.939.769,1.804,1.704,1.923,2.077.787,2.479,7.016,2.909,7.016.484c0-.197.9-1.292,2-2.433s2-2.286,2-2.545c0-.258.742-1.366,1.649-2.462s2.081-2.934,2.608-4.084s1.381-2.5,1.898-3s1.45-2.259,2.075-3.909s1.512-3.54,1.973-4.2c2.892-4.146,3.057-16.402.261-19.357-.805-.85-1.725-1.922-2.043-2.382-.319-.46-1.579-1.14-2.8-1.512-1.222-.371-2.392-.826-2.601-1.012-.414-.367-5.551-.472-5.903-.121m8.472,2.128c1.013.207,1.532.64,2.116,1.766.426.82,1.304,1.804,1.951,2.187c1.559.92,1.64,1.397,1.48,8.708-.11,5.058-.254,6.35-.753,6.728-1.024.776-2.212,3.119-2.973,5.867-.516,1.862-1.09,2.941-2.021,3.8-.771.713-1.57,2.039-1.965,3.265-.366,1.136-.909,2.159-1.207,2.273-.677.26-2.804,3.33-3.215,4.643-.344,1.1-1.14,2.019-1.746,2.019-.568,0-1.888,1.989-2.214,3.336-.195.806-.455,1.068-.891.9-.339-.13-1.148-.236-1.797-.236-.931,0-1.36-.304-2.026-1.432-.464-.787-1.535-1.867-2.379-2.4-.973-.614-1.619-1.371-1.766-2.068-.127-.605-.399-1.41-.604-1.789-.293-.543.003-1.052,1.399-2.4.974-.941,2.244-2.659,2.821-3.818.578-1.159,1.476-2.386,1.997-2.727.521-.342,1.228-1.443,1.57-2.447.342-1.005,1.228-2.415,1.969-3.135c1.289-1.251,2.84-5.488,2.466-6.735-.074-.247-.238-.926-.365-1.508-.302-1.388-2.575-2.89-3.371-2.229-.308.256-1.753.837-3.212,1.292-2.086.65-2.824,1.098-3.453,2.096-.44.698-1.088,1.276-1.44,1.285-1.105.026-4.369,1.968-5.725,3.405-.715.758-1.787,1.564-2.384,1.791-.596.226-1.392.954-1.768,1.616-1.403,2.474-2.834,2.01-6.815-2.207-4.155-4.403-4.3-5.172-1.215-6.483.58-.246,1.287-.975,1.573-1.621.355-.802,1.035-1.36,2.147-1.763c1.029-.372,1.823-.989,2.16-1.679.293-.6,1.013-1.283,1.6-1.516c3.074-1.225,5.265-2.492,5.48-3.169.292-.92.987-1.297,3.532-1.918c1.213-.296,2.488-.988,3.388-1.837c2.347-2.214,11.308-3.158,17.656-1.86m-56.771,33.165c-.681,1.107-1.683,2.303-2.226,2.659s-1.234,1.229-1.534,1.94c-.301.711-1.301,2.192-2.223,3.292s-1.776,2.473-1.896,3.052c-.121.579-1.012,2.018-1.979,3.197-.968,1.18-1.76,2.365-1.76,2.634c0,1.017-1.308,4.28-2.477,6.181-1.841,2.992-2.673,10.933-1.692,16.159.334,1.784,4.685,6.405,6.384,6.781.652.144,1.707.427,2.345.629c3.669,1.161,15.419-.989,17.38-3.181.363-.406,1.488-1.038,2.5-1.405s2.556-1.28,3.432-2.03s2.627-1.853,3.891-2.452c1.265-.598,2.564-1.492,2.888-1.986.324-.495,1.267-1.348,2.096-1.896c2.957-1.957,6.507-5.668,6.226-6.509-.718-2.147-1.518-3.375-3.595-5.514-3.755-3.867-6.083-4.39-8.479-1.904-.824.855-2.296,2.048-3.271,2.65-.974.602-2.234,1.537-2.8,2.077-.565.541-1.959,1.433-3.098,1.983-1.138.549-2.164,1.246-2.28,1.548-.351.915-3.464,2.264-5.369,2.327-3.332.11-3.983-3.782-1.112-6.652.363-.364,1.281-1.917,2.04-3.452.758-1.535,1.613-2.936,1.899-3.114.285-.178,1.137-1.313,1.892-2.523s1.666-2.47,2.023-2.8c2.771-2.554,3.155-6.45.842-8.533-2.142-1.928-3.168-2.966-3.712-3.755-.459-.666-1.173-.954-2.854-1.152l-2.243-.264-1.238,2.013m4.685-.369c.496.143,1.216.89,1.6,1.66.387.777,1.336,1.742,2.132,2.168c2.609,1.398,2.747,4.975.251,6.509-.809.497-2.201,2.646-2.509,3.872-.152.605-.806,1.492-1.453,1.97-1.188.879-2.051,2.388-2.487,4.354-.132.591-.599,1.188-1.038,1.327-2.008.638-3.685,7.28-2.299,9.106.973,1.283,2.714,1.902,3.657,1.3.464-.296,1.818-.822,3.01-1.17c2.271-.663,3.633-1.596,3.633-2.49c0-.292.495-.65,1.1-.795c1.875-.451,3.874-1.62,5.521-3.23.868-.849,2.065-1.756,2.66-2.015.594-.259,1.353-.997,1.685-1.64c1.154-2.232,2.898-1.787,6.034,1.542c1.1,1.167,2.403,2.549,2.896,3.071c1.565,1.658,1.578,2.761.04,3.54-1.868.947-2.736,1.783-2.736,2.635c0,.466-.399.827-1.1.997-1.317.318-3.3,1.643-3.3,2.205c0,.541-1.035,1.544-1.593,1.544-1.353,0-4.9,2.182-5.305,3.264-.143.379-1.228.948-2.532,1.327-2.401.699-3.783,1.459-5.167,2.843-2.629,2.628-17.789,2.047-19.101-.733-.384-.813-1.223-1.75-1.865-2.082-2.414-1.248-2.319-12.568.132-15.713.779-1,1.529-2.468,1.668-3.262.543-3.108,1.485-5.31,2.635-6.16.764-.566,1.313-1.464,1.607-2.633.281-1.115.986-2.308,1.899-3.213.799-.791,1.896-2.391,2.437-3.556.604-1.299,1.455-2.396,2.2-2.836.794-.47,1.405-1.295,1.764-2.382.579-1.755,1.431-2.042,3.924-1.324" fill="#846064" fill-rule="evenodd"/></g></svg>
