<svg id="svg" version="1.1" xmlns="http://www.w3.org/2000/svg" xmlns:xlink="http://www.w3.org/1999/xlink" width="400" height="400" viewBox="0, 0, 400,400"><g><path d="M97.41,88.78c-.955,1.848-.921,80.773.036,82.234l.646.986h102.01c96.683,0,102.038-.037,102.541-.7.787-1.037.787-81.963,0-83-.492-.649-1.866-.7-18.71-.7h-18.179l-.677,1.534c-.604,1.369-.677,3.516-.677,19.853c0,25.088,2.51,22.613-22.933,22.612-24.445,0-21.798,2.725-21.838-22.485-.026-16.659-.102-18.84-.703-20.1l-.674-1.414h-18.08-18.08l-.646.986c-.571.871-.646,3.103-.646,19.15c0,26.209,2.262,23.819-22.572,23.846-24.752.028-22.628,2.22-22.628-23.355c0-16.574-.065-18.413-.686-19.465l-.686-1.162h-18.104-18.103l-.611,1.18m19.861,108.039l-.879.82.104,56.68c.102,55.768.117,56.696.893,57.581l.789.9h82.101h82.1l.611-1.18c.938-1.814.926-113.391-.013-114.731l-.622-.889h-82.102-82.102l-.88.819" fill="#e1d8d8" fill-rule="evenodd"/><path d="M96.513,85.194c-1.686,1.968-1.701,2.358-1.707,44.922-.007,45.165-.151,42.613,2.535,44.775.809.651,6.818.692,102.79.7l101.931.009l1.096-1.1c.604-.605,1.31-1.712,1.57-2.46.634-1.827.679-81.434.047-84.381-.753-3.512.689-3.296-21.157-3.17l-19.294.111-.96,1.2c-.528.66-.961,1.594-.962,2.076s-.182.988-.402,1.124c-.257.159-.4,6.865-.4,18.807v18.559l-1.735,1.017-1.735,1.017-15.965-.006c-16.328-.006-18.244-.166-20.062-1.674-.391-.325-.504-4.58-.509-19.069-.006-19.934-.101-20.998-1.995-22.532-1.422-1.152-38.29-1.105-39.279.049-1.732,2.023-1.715,1.82-1.838,22.077l-.117,19.445-2.029.655c-3.482,1.125-33.656.97-36.344-.187l-1.956-.841-.118-19.259c-.127-20.775-.161-21.104-2.296-22.246-1.661-.889-38.328-.531-39.109.382m38.591.906c1.637,1.747,1.696,2.507,1.696,21.671v18.52l1.009,1.009c.556.556,1.805,1.21,2.778,1.455c2.388.601,32.472.607,35.461.007c3.709-.745,3.552.201,3.552-21.41c0-19.991.112-21.095,2.216-21.903c1.781-.683,36.45-.261,37.022.451c1.794,2.235,1.752,1.764,1.962,21.9.209,20.09.244,20.467,1.944,20.837.581.126,1.578.394,2.216.596c2.515.796,32.782.449,34.759-.398c3.735-1.601,3.481-.056,3.481-21.15c0-20.019.04-20.427,2.141-21.899c1.39-.973,36.701-.866,37.52.114c1.542,1.847,1.539,1.757,1.539,43.924c0,42.451.035,41.487-1.562,43.476-.533.663-5.903.7-102.63.7h-102.069l-.769-.9c-1.835-2.145-1.77-.567-1.77-42.844c0-34.979.079-40.378.611-41.886c1.206-3.42-.367-3.17,19.981-3.17h18.069l.843.9M117.09,192.984c-1.482.773-1.959,1.301-3.006,3.328l-.884,1.713v56.213v56.213l.95,2.075c.7,1.529,1.371,2.31,2.554,2.974l1.605.9h81.91h81.911l1.735-1.017c.954-.559,1.735-1.198,1.735-1.419c0-.222.36-1.148.8-2.058.788-1.632.8-2.475.8-57.81v-56.154l-1.049-1.79c-.577-.984-1.699-2.231-2.493-2.771l-1.444-.981-82.007.002c-70.795.003-82.159.082-83.117.582M283.078,194.6c.471.33,1.231,1.206,1.689,1.947l.833,1.347v56.293c0,60.909.118,57.448-2.036,59.759l-.795.854h-82.508c-65.398,0-82.641-.104-83.15-.5-.353-.275-1.016-1.13-1.475-1.9l-.833-1.4-.002-56.738-.001-56.739.862-1.261c.474-.694,1.139-1.487,1.476-1.762c1.01-.822,164.765-.723,165.94.1" fill="#8c6c74" fill-rule="evenodd"/><path d="M97.473,85.92c-1.896,2.094-1.873,1.559-1.873,44.336c0,42.277-.065,40.699,1.77,42.844l.769.9h102.069c96.727,0,102.097-.037,102.63-.7c1.597-1.989,1.562-1.025,1.562-43.476c0-42.167.003-42.077-1.539-43.924-.819-.98-36.13-1.087-37.52-.114-2.101,1.472-2.141,1.88-2.141,21.899c0,21.094.254,19.549-3.481,21.15-1.977.847-32.244,1.194-34.759.398-.638-.202-1.635-.47-2.216-.596-1.7-.37-1.735-.747-1.944-20.837-.21-20.136-.168-19.665-1.962-21.9-.572-.712-35.241-1.134-37.022-.451-2.104.808-2.216,1.912-2.216,21.903c0,21.611.157,20.665-3.552,21.41-2.989.6-33.073.594-35.461-.007-.973-.245-2.222-.899-2.778-1.455l-1.009-1.009v-18.52c0-19.164-.059-19.924-1.696-21.671l-.843-.9h-18.069c-16.89,0-18.111.047-18.719.72m37.441,2.842c.621,1.052.686,2.891.686,19.465c0,22.231-.228,21.229,5.228,22.928c2.121.661,32.744.575,35.297-.098c4.754-1.253,4.675-.861,4.675-23.321c0-16.047.075-18.279.646-19.15l.646-.986h18.08h18.08l.674,1.414c.601,1.26.677,3.441.703,20.1.04,25.21-2.607,22.485,21.838,22.485c25.443.001,22.933,2.476,22.933-22.612c0-16.337.073-18.484.677-19.853l.677-1.534h18.179c16.844,0,18.218.051,18.71.7.787,1.037.787,81.963,0,83-.503.663-5.858.7-102.541.7h-102.01l-.646-.986c-.957-1.461-.991-80.386-.036-82.234l.611-1.18h18.103h18.104l.686,1.162M117.138,194.5c-.337.275-1.002,1.068-1.476,1.762l-.862,1.261.001,56.739.002,56.738.833,1.4c.459.77,1.122,1.625,1.475,1.9.509.396,17.752.5,83.15.5h82.508l.795-.854c2.154-2.311,2.036,1.15,2.036-59.759v-56.293l-.833-1.347c-.458-.741-1.218-1.617-1.689-1.947-1.175-.823-164.93-.922-165.94-.1m165.839,2.389c.939,1.34.951,112.917.013,114.731l-.611,1.18h-82.1-82.101l-.789-.9c-.776-.885-.791-1.813-.893-57.581l-.104-56.68.879-.82.88-.819h82.102h82.102l.622.889" fill="#947c7c" fill-rule="evenodd"/><path d="M158,0.976v.976l-7.568.124c-8.401.138-8.015.032-8.318,2.291L141.895,6h-5.468C130.32,6,130,6.124,130,8.48v1.52h-4.774c-5.974,0-6.729.255-7.07,2.388L117.898,14h-3.321c-3.81,0-4.577.441-4.577,2.629v1.371h-3.371c-3.843,0-4.629.436-4.629,2.569v1.312l-3.248.251c-3.671.283-4.255.599-4.429,2.398-.117,1.21-.218,1.28-2.123,1.47l-2,.2-.122,1.9-.122,1.9h-3.349C82.773,30,82,30.438,82,32.607c0,1.326-.033,1.351-1.9,1.471l-1.9.122-.12,1.853-.12,1.854-2.28.17c-3.04.227-4.561,1.009-5.01,2.576-.319,1.114-.556,1.275-2.134,1.453-2.16.243-2.151.235-2.422,2.261C65.908,45.903,65.816,46,64.576,46C62.883,46,62,46.901,62,48.629C62,49.95,61.944,50,60.48,50c-1.916,0-2.48.564-2.48,2.48c0,1.493-.027,1.52-1.52,1.52-1.916,0-2.48.564-2.48,2.48c0,1.493-.027,1.52-1.52,1.52-1.916,0-2.48.564-2.48,2.48c0,1.464-.05,1.52-1.371,1.52C46.886,62,46,62.886,46,64.629C46,65.886,45.9,66,44.8,66c-1.63,0-2.8,1.253-2.8,3c0,1.196-.135,1.4-.924,1.4-2.003,0-3.044,1.997-3.066,5.878L38,77.956l-1.9.122-1.9.122-.122,1.9c-.12,1.867-.145,1.9-1.471,1.9C30.438,82,30,82.773,30,86.607v3.349l-1.9.122-1.9.122-.121,1.881c-.12,1.861-.138,1.884-1.798,2.212-1.923.38-2.152.915-2.234,5.207L22,102h-1.371c-2.195,0-2.629.763-2.629,4.629v3.371h-1.371c-2.188,0-2.629.767-2.629,4.577v3.321l-1.612.258c-2.133.341-2.388,1.096-2.388,7.07v4.774h-1.52c-2.356,0-2.48.32-2.48,6.427v5.468l-1.633.219c-2.259.303-2.153-.083-2.291,8.318L1.952,158h-.976-.976v42v42h.976.976l.124,7.568c.138,8.401.032,8.015,2.291,8.318L6,258.105v5.319C6,269.407,6.237,270,8.629,270h1.371v4.774c0,5.974.255,6.729,2.388,7.07l1.612.258v3.321c0,3.81.441,4.577,2.629,4.577h1.371v3.371c0,3.866.434,4.629,2.629,4.629h1.371l.047,2.3c.088,4.284.447,4.979,2.831,5.478.964.202,1.091.427,1.2,2.124L26.2,309.8l1.9.122l1.9.122v3.349c0,3.834.438,4.607,2.607,4.607c1.326,0,1.351.033,1.471,1.9l.122,1.9l1.9.122l1.9.122.031,1.878c.056,3.433.781,5.026,2.48,5.449c1.17.291,1.489.564,1.489,1.274c0,1.991.7,2.93,2.388,3.199c1.505.241,1.612.346,1.612,1.579c0,1.694.901,2.577,2.629,2.577c1.321,0,1.371.056,1.371,1.52c0,1.916.564,2.48,2.48,2.48c1.493,0,1.52.027,1.52,1.52c0,1.916.564,2.48,2.48,2.48c1.493,0,1.52.027,1.52,1.52c0,1.916.564,2.48,2.48,2.48c1.464,0,1.52.05,1.52,1.371c0,1.728.883,2.629,2.576,2.629c1.24,0,1.332.097,1.538,1.633.271,2.025.263,2.018,2.414,2.26c1.512.17,1.847.38,2.32,1.453.692,1.571,2.753,2.609,5.23,2.635l1.878.019.122,1.9.122,1.9l1.9.122c1.867.12,1.9.145,1.9,1.471c0,2.169.773,2.607,4.607,2.607h3.349l.122,1.9.122,1.9l1.881.121c1.861.12,1.884.138,2.212,1.798.38,1.923.915,2.152,5.207,2.234L102,378v1.371c0,2.188.768,2.629,4.576,2.629h3.319l.219,1.633c.291,2.175.239,2.147,4.274,2.305l3.522.138.252,1.575c.334,2.089,1.116,2.349,7.064,2.349h4.774v1.371c0,2.396.588,2.629,6.629,2.629h5.371v1.2c0,2.556.768,2.8,8.8,2.8h7.2v1v1h42h42v-1-1h7.371c8.234,0,8.629-.12,8.629-2.629v-1.371h5.371c6.041,0,6.629-.233,6.629-2.629v-1.371h4.774c5.948,0,6.73-.26,7.064-2.349l.252-1.575l3.522-.138c4.035-.158,3.983-.13,4.274-2.305l.219-1.633h3.319c3.808,0,4.576-.441,4.576-2.629v-1.371l2.3-.047c4.284-.088,4.979-.447,5.478-2.831.202-.964.427-1.091,2.124-1.2l1.898-.122.122-1.9.122-1.9h3.349c3.834,0,4.607-.438,4.607-2.607c0-1.326.033-1.351,1.9-1.471l1.9-.122.122-1.9.122-1.9l1.878-.031c3.433-.056,5.026-.781,5.449-2.48.334-1.346.498-1.489,1.7-1.489c1.673,0,2.929-1.2,2.929-2.8c0-1.1.114-1.2,1.371-1.2c1.743,0,2.629-.886,2.629-2.629c0-1.321.056-1.371,1.52-1.371c1.916,0,2.48-.564,2.48-2.48c0-1.493.027-1.52,1.52-1.52c1.916,0,2.48-.564,2.48-2.48c0-1.493.027-1.52,1.52-1.52c1.916,0,2.48-.564,2.48-2.48c0-1.464.05-1.52,1.371-1.52c1.728,0,2.629-.883,2.629-2.576c0-1.24.097-1.332,1.633-1.538c2.026-.271,2.018-.262,2.261-2.422.178-1.578.339-1.815,1.453-2.134c1.567-.449,2.349-1.97,2.576-5.01l.17-2.28l1.854-.12l1.853-.12.122-1.9c.12-1.867.145-1.9,1.471-1.9c2.169,0,2.607-.773,2.607-4.607v-3.349l1.9-.122l1.9-.122.121-1.881c.12-1.861.138-1.884,1.798-2.212c1.923-.38,2.152-.915,2.234-5.207L378,298h1.371c2.195,0,2.629-.763,2.629-4.629v-3.371h1.371c2.188,0,2.629-.767,2.629-4.577v-3.321l1.612-.258c2.133-.341,2.388-1.096,2.388-7.07v-4.774h1.371c2.392,0,2.629-.593,2.629-6.576v-5.319l1.633-.219c2.259-.303,2.153.083,2.291-8.318l.124-7.568h.976.976v-42-42h-.976-.976l-.124-7.568c-.138-8.401-.032-8.015-2.291-8.318L394,141.895v-5.319c0-5.983-.237-6.576-2.629-6.576h-1.371v-4.774c0-5.974-.255-6.729-2.388-7.07L386,117.898v-3.321c0-3.81-.441-4.577-2.629-4.577h-1.371v-3.371c0-3.866-.434-4.629-2.629-4.629h-1.371l-.047-2.5c-.082-4.292-.311-4.827-2.234-5.207-1.66-.328-1.678-.351-1.798-2.212L373.8,90.2l-1.9-.122-1.9-.122v-3.349c0-3.834-.438-4.607-2.607-4.607-1.326,0-1.351-.033-1.471-1.9l-.122-1.9-1.9-.122-1.9-.122-.031-1.878c-.055-3.398-.785-5.027-2.435-5.437-1.338-.334-1.458-.488-1.642-2.12-.241-2.143-.234-2.136-2.259-2.407-1.536-.206-1.633-.298-1.633-1.538c0-1.693-.901-2.576-2.629-2.576-1.321,0-1.371-.056-1.371-1.52c0-1.916-.564-2.48-2.48-2.48-1.493,0-1.52-.027-1.52-1.52c0-1.916-.564-2.48-2.48-2.48-1.493,0-1.52-.027-1.52-1.52c0-1.916-.564-2.48-2.48-2.48-1.464,0-1.52-.05-1.52-1.371c0-1.728-.883-2.629-2.576-2.629-1.24,0-1.332-.097-1.538-1.633-.271-2.025-.264-2.018-2.407-2.259-1.632-.184-1.786-.304-2.12-1.642-.41-1.65-2.039-2.38-5.437-2.435L322.044,38l-.122-1.9-.122-1.9-1.9-.122c-1.867-.12-1.9-.145-1.9-1.471c0-1.983-.85-2.607-3.554-2.607-2.455,0-4.181-1.148-4.511-3-.114-.644-.508-.824-2.019-.921-1.858-.12-1.881-.139-2.209-1.798-.38-1.923-.915-2.152-5.207-2.234L298,22v-1.371c0-2.195-.763-2.629-4.629-2.629L290,18v-1.371c0-2.188-.767-2.629-4.577-2.629h-3.321l-.258-1.612c-.341-2.133-1.096-2.388-7.07-2.388L270,10v-1.52c0-2.359-.316-2.48-6.48-2.48L258,6v-1.371C258,2.12,257.605,2,249.371,2L242,2v-1-1h-42-42v.976M136.363,84.259c.517.362,1.457,1.798,2.089,3.191l1.148,2.532v18.132v18.132l1.534.677c1.71.754,32.985,1.056,33.438.322.121-.195.848-.472,1.616-.616l1.397-.262.131-18.684c.142-20.213.278-21.673,2.146-23.169l1.138-.91l19.225-.002L219.45,83.6l1.008,1.1c1.77,1.931,1.942,4.003,1.942,23.437v18.075l1.954.694c2.976,1.057,32.952,1.052,34.811-.006l1.23-.7.002-18.525.003-18.525.989-2.075c1.732-3.634.704-3.475,22.457-3.475c20.942,0,20.319-.073,21.414,2.519.604,1.432.829,84.25.234,86.374-.168.601-.862,1.726-1.541,2.5l-1.236,1.407h-102.585-102.586l-1.321-1.401c-1.88-1.994-1.816-.393-1.821-45.043-.004-43.819-.003-43.848,1.505-45.356l1-1h19.257c17.235,0,19.355.069,20.197.659M283.651,192.167c1.88.791,3.386,2.504,4.126,4.694.897,2.655.747,112.659-.158,115.534-.613,1.95-1.512,2.931-3.506,3.827-1.538.691-166.041.89-167.848.203-1.843-.701-3.347-2.586-3.819-4.787-.651-3.032-.569-112.87.085-114.881.615-1.893,2.258-3.778,3.928-4.507c1.991-.869,165.13-.95,167.192-.083" fill="#b1af1b" fill-rule="evenodd"/><path d="M95.909,84.6c-1.508,1.508-1.509,1.537-1.505,45.356.005,44.65-.059,43.049,1.821,45.043l1.321,1.401h102.586h102.585l1.236-1.407c.679-.774,1.373-1.899,1.541-2.5.595-2.124.37-84.942-.234-86.374-1.095-2.592-.472-2.519-21.414-2.519-21.753,0-20.725-.159-22.457,3.475L260.4,89.15l-.003,18.525-.002,18.525-1.23.7c-1.859,1.058-31.835,1.063-34.811.006l-1.954-.694v-18.075c0-19.434-.172-21.506-1.942-23.437l-1.008-1.1-19.225.002L181,83.604l-1.138.91c-1.868,1.496-2.004,2.956-2.146,23.169l-.131,18.684-1.397.262c-.768.144-1.495.421-1.616.616-.453.734-31.728.432-33.438-.322l-1.534-.677v-18.132-18.132l-1.148-2.532c-1.876-4.137-.215-3.85-22.286-3.85h-19.257l-1,1m39.713.212c2.135,1.142,2.169,1.471,2.296,22.246l.118,19.259l1.956.841c2.688,1.157,32.862,1.312,36.344.187l2.029-.655.117-19.445c.123-20.257.106-20.054,1.838-22.077.989-1.154,37.857-1.201,39.279-.049c1.894,1.534,1.989,2.598,1.995,22.532.005,14.489.118,18.744.509,19.069c1.818,1.508,3.734,1.668,20.062,1.674l15.965.006l1.735-1.017l1.735-1.017v-18.559c0-11.942.143-18.648.4-18.807.22-.136.401-.642.402-1.124s.434-1.416.962-2.076l.96-1.2l19.294-.111c21.846-.126,20.404-.342,21.157,3.17.632,2.947.587,82.554-.047,84.381-.26.748-.966,1.855-1.57,2.46l-1.096,1.1-101.931-.009c-95.972-.008-101.981-.049-102.79-.7-2.686-2.162-2.542.39-2.535-44.775.006-42.564.021-42.954,1.707-44.922.781-.913,37.448-1.271,39.109-.382M116.459,192.25c-1.67.729-3.313,2.614-3.928,4.507-.654,2.011-.736,111.849-.085,114.881.472,2.201,1.976,4.086,3.819,4.787c1.807.687,166.31.488,167.848-.203c1.994-.896,2.893-1.877,3.506-3.827.905-2.875,1.055-112.879.158-115.534-.74-2.19-2.246-3.903-4.126-4.694-2.062-.867-165.201-.786-167.192.083m167.199,1.131c.794.54,1.916,1.787,2.493,2.771l1.049,1.79v56.154c0,55.335-.012,56.178-.8,57.81-.44.91-.8,1.836-.8,2.058c0,.221-.781.86-1.735,1.419L282.13,316.4h-81.911-81.91l-1.605-.9c-1.183-.664-1.854-1.445-2.554-2.974l-.95-2.075v-56.213-56.213l.884-1.713c1.047-2.027,1.524-2.555,3.006-3.328.958-.5,12.322-.579,83.117-.582l82.007-.002l1.444.981" fill="#984444" fill-rule="evenodd"/></g></svg>
