<?xml version="1.0" encoding="UTF-8" standalone="no"?>
<svg
   id="svg"
   version="1.1"
   width="400"
   height="430.08849557522126"
   viewBox="0, 0, 400,430.08849557522126"
   sodipodi:docname="area_lleure.svg"
   inkscape:version="1.2.2 (732a01da63, 2022-12-09)"
   xmlns:inkscape="http://www.inkscape.org/namespaces/inkscape"
   xmlns:sodipodi="http://sodipodi.sourceforge.net/DTD/sodipodi-0.dtd"
   xmlns="http://www.w3.org/2000/svg"
   xmlns:svg="http://www.w3.org/2000/svg">
  <defs
     id="defs12915" />
  <sodipodi:namedview
     id="namedview12913"
     pagecolor="#ffffff"
     bordercolor="#666666"
     borderopacity="1.0"
     inkscape:showpageshadow="2"
     inkscape:pageopacity="0.0"
     inkscape:pagecheckerboard="0"
     inkscape:deskcolor="#d1d1d1"
     showgrid="false"
     inkscape:zoom="1.8042798"
     inkscape:cx="200.35695"
     inkscape:cy="215.04425"
     inkscape:window-width="1920"
     inkscape:window-height="974"
     inkscape:window-x="-11"
     inkscape:window-y="-11"
     inkscape:window-maximized="1"
     inkscape:current-layer="svgg" />
  <g
     id="svgg">
    <path
       id="path0"
       d="M148.963 39.400 C 148.558 40.018,147.932 40.400,147.323 40.400 C 146.113 40.400,144.000 42.424,144.000 43.583 C 144.000 44.440,141.569 47.200,140.813 47.200 C 140.586 47.200,140.400 47.430,140.400 47.711 C 140.400 47.992,140.040 48.530,139.600 48.907 C 139.136 49.304,138.800 50.087,138.800 50.769 C 138.800 51.595,138.561 52.022,138.000 52.200 C 137.446 52.376,137.200 52.805,137.200 53.598 C 137.200 54.710,136.325 56.000,135.571 56.000 C 135.367 56.000,135.200 56.264,135.200 56.586 C 135.200 56.908,134.840 57.365,134.400 57.600 C 133.879 57.879,133.600 58.438,133.600 59.200 C 133.600 59.962,133.321 60.521,132.800 60.800 C 132.311 61.062,132.000 61.638,132.000 62.283 C 132.000 63.010,131.442 63.872,130.200 65.062 C 128.846 66.360,128.400 67.085,128.400 67.993 C 128.400 68.933,128.223 69.200,127.600 69.200 C 126.933 69.200,126.800 69.467,126.800 70.810 C 126.800 72.159,126.638 72.481,125.800 72.800 C 125.250 73.009,124.800 73.411,124.800 73.694 C 124.800 73.976,124.440 74.432,124.000 74.707 C 123.481 75.031,123.200 75.640,123.200 76.441 C 123.200 77.327,122.981 77.732,122.422 77.878 C 121.863 78.025,121.609 78.493,121.522 79.541 C 121.433 80.602,121.154 81.108,120.500 81.395 C 120.005 81.612,119.600 82.107,119.600 82.495 C 119.600 82.933,119.297 83.200,118.800 83.200 C 118.133 83.200,118.000 83.467,118.000 84.810 C 118.000 86.159,117.838 86.481,117.000 86.800 C 116.450 87.009,116.000 87.411,116.000 87.694 C 116.000 87.976,115.640 88.432,115.200 88.707 C 114.696 89.022,114.400 89.640,114.400 90.376 C 114.400 91.195,114.160 91.622,113.600 91.800 C 113.022 91.983,112.799 92.407,112.796 93.327 C 112.793 94.307,112.426 94.922,111.200 96.000 C 110.183 96.894,109.606 97.746,109.604 98.356 C 109.601 98.961,108.938 99.957,107.800 101.062 C 106.478 102.348,106.000 103.121,106.000 103.979 C 106.000 104.795,105.759 105.223,105.200 105.400 C 104.603 105.589,104.400 106.005,104.400 107.037 C 104.400 108.144,104.201 108.496,103.400 108.800 C 102.850 109.009,102.400 109.443,102.400 109.763 C 102.400 110.084,102.040 110.460,101.600 110.600 C 100.979 110.797,100.800 111.205,100.800 112.427 C 100.800 113.303,100.605 114.000,100.360 114.000 C 99.616 114.000,97.600 116.435,97.594 117.342 C 97.586 118.404,97.208 118.982,96.300 119.317 C 95.814 119.496,95.600 120.007,95.600 120.987 C 95.600 121.987,95.421 122.400,94.990 122.400 C 94.655 122.400,94.209 122.850,94.000 123.400 C 93.791 123.950,93.349 124.400,93.018 124.400 C 92.261 124.400,91.911 125.748,92.074 128.032 L 92.200 129.800 100.301 130.000 C 104.757 130.110,108.418 130.290,108.438 130.400 C 108.550 131.024,107.391 132.761,106.751 132.929 C 106.188 133.076,106.000 133.493,106.000 134.600 C 106.000 135.738,105.818 136.123,105.200 136.284 C 104.760 136.399,104.400 136.677,104.400 136.901 C 104.400 137.125,103.950 137.725,103.400 138.235 C 102.845 138.750,102.400 139.609,102.400 140.167 C 102.400 140.762,102.074 141.346,101.600 141.600 C 101.160 141.835,100.800 142.280,100.800 142.587 C 100.800 142.895,100.440 143.260,100.000 143.400 C 99.440 143.578,99.200 144.005,99.200 144.824 C 99.200 145.560,98.904 146.178,98.400 146.493 C 97.949 146.774,97.597 147.431,97.594 147.996 C 97.587 149.200,97.238 149.770,96.300 150.117 C 95.915 150.259,95.600 150.630,95.600 150.941 C 95.600 151.252,95.240 151.601,94.800 151.716 C 94.182 151.877,94.000 152.262,94.000 153.400 C 94.000 154.530,93.816 154.923,93.213 155.081 C 92.781 155.194,92.325 155.608,92.200 156.000 C 92.075 156.392,91.619 156.806,91.187 156.919 C 90.584 157.077,90.400 157.470,90.400 158.600 C 90.400 159.738,90.218 160.123,89.600 160.284 C 89.160 160.399,88.800 160.677,88.800 160.901 C 88.800 161.125,88.350 161.725,87.800 162.235 C 87.155 162.833,86.800 163.594,86.800 164.381 C 86.800 165.333,86.625 165.600,86.000 165.600 C 85.503 165.600,85.200 165.867,85.200 166.304 C 85.200 166.691,84.840 167.232,84.400 167.507 C 83.960 167.782,83.600 168.351,83.600 168.771 C 83.600 169.967,83.167 170.800,82.545 170.800 C 82.231 170.800,81.857 171.115,81.714 171.500 C 81.570 171.885,81.126 172.435,80.726 172.723 C 80.311 173.022,80.000 173.743,80.000 174.409 C 80.000 175.162,79.718 175.723,79.200 176.000 C 78.704 176.266,78.399 176.840,78.396 177.514 C 78.393 178.276,77.917 179.018,76.800 180.000 C 75.719 180.950,75.207 181.732,75.204 182.435 C 75.201 183.158,74.661 183.942,73.411 185.035 C 72.004 186.265,71.619 186.872,71.611 187.873 C 71.603 188.789,71.376 189.217,70.800 189.400 C 70.240 189.578,70.000 190.005,70.000 190.827 L 70.000 192.000 83.376 192.000 C 91.863 192.000,96.843 192.146,97.000 192.400 C 97.136 192.620,96.962 192.800,96.614 192.800 C 96.265 192.800,95.818 193.225,95.621 193.745 C 95.423 194.265,94.977 194.800,94.631 194.933 C 94.221 195.090,94.000 195.670,94.000 196.587 C 94.000 197.364,93.833 198.000,93.628 198.000 C 92.654 198.000,90.400 200.737,90.400 201.920 C 90.400 202.795,90.171 203.219,89.600 203.400 C 89.099 203.559,88.800 204.005,88.800 204.594 C 88.800 205.753,88.420 206.800,88.000 206.800 C 87.103 206.800,85.200 209.202,85.200 210.334 C 85.200 211.195,84.968 211.620,84.400 211.800 C 83.960 211.940,83.600 212.291,83.600 212.581 C 83.600 212.871,83.150 213.403,82.600 213.763 C 81.913 214.214,81.600 214.782,81.600 215.582 C 81.600 216.395,81.359 216.823,80.800 217.000 C 80.360 217.140,80.000 217.472,80.000 217.738 C 80.000 218.004,79.640 218.530,79.200 218.907 C 78.736 219.304,78.400 220.087,78.400 220.769 C 78.400 221.595,78.161 222.022,77.600 222.200 C 77.048 222.375,76.800 222.805,76.800 223.587 C 76.800 224.678,74.441 227.600,73.560 227.600 C 73.362 227.600,73.200 228.161,73.200 228.847 C 73.200 229.776,72.792 230.489,71.600 231.646 C 70.720 232.500,70.000 233.570,70.000 234.023 C 70.000 234.476,69.190 235.645,68.200 236.621 C 66.859 237.942,66.400 238.702,66.400 239.598 C 66.400 240.533,66.223 240.800,65.600 240.800 C 64.933 240.800,64.800 241.067,64.800 242.410 C 64.800 243.759,64.638 244.081,63.800 244.400 C 63.250 244.609,62.800 245.034,62.800 245.343 C 62.800 245.653,62.440 246.001,62.000 246.116 C 61.332 246.291,61.200 246.662,61.200 248.360 L 61.200 250.396 98.100 250.498 L 135.000 250.600 135.102 295.100 L 135.203 339.600 149.400 339.600 L 163.597 339.600 163.698 295.100 L 163.800 250.600 201.400 250.400 L 239.000 250.200 239.121 248.325 C 239.221 246.772,239.101 246.375,238.421 246.011 C 237.844 245.702,237.600 245.174,237.600 244.233 C 237.600 243.230,237.399 242.841,236.800 242.684 C 236.187 242.524,236.000 242.138,236.000 241.037 C 236.000 240.247,235.838 239.600,235.640 239.600 C 234.770 239.600,232.400 236.679,232.400 235.607 C 232.400 234.830,232.158 234.430,231.600 234.284 C 230.982 234.123,230.800 233.738,230.800 232.600 C 230.800 231.462,230.618 231.077,230.000 230.916 C 229.433 230.768,229.200 230.370,229.200 229.551 C 229.200 228.816,228.835 228.078,228.200 227.525 C 227.650 227.047,227.200 226.439,227.200 226.175 C 227.200 225.910,226.840 225.599,226.400 225.484 C 225.782 225.323,225.600 224.938,225.600 223.800 C 225.600 222.662,225.418 222.277,224.800 222.116 C 224.277 221.979,224.000 221.570,224.000 220.934 C 224.000 220.399,223.582 219.565,223.070 219.081 C 222.559 218.596,222.024 217.885,221.883 217.500 C 221.741 217.115,221.349 216.800,221.013 216.800 C 220.583 216.800,220.400 216.395,220.400 215.446 C 220.400 214.443,220.141 213.922,219.400 213.437 C 218.651 212.946,218.400 212.433,218.400 211.391 C 218.400 210.626,218.206 210.000,217.969 210.000 C 217.162 210.000,215.200 207.664,215.200 206.703 C 215.200 206.176,214.750 205.353,214.200 204.875 C 213.650 204.397,213.200 203.582,213.200 203.065 C 213.200 202.547,212.840 201.798,212.400 201.400 C 211.960 201.002,211.600 200.254,211.600 199.738 C 211.600 199.168,210.971 198.188,210.000 197.246 C 208.801 196.083,208.400 195.378,208.400 194.434 C 208.400 193.684,208.158 193.082,207.800 192.945 C 205.957 192.237,208.290 192.002,218.100 191.906 L 229.000 191.800 229.119 190.388 C 229.211 189.297,229.005 188.757,228.219 188.018 C 227.637 187.471,227.200 186.617,227.200 186.026 C 227.200 185.426,226.865 184.783,226.400 184.493 C 225.960 184.218,225.600 183.737,225.600 183.424 C 225.600 183.110,225.240 182.740,224.800 182.600 C 224.264 182.430,223.998 181.991,223.994 181.273 C 223.987 180.002,223.651 179.434,222.700 179.083 C 222.220 178.906,222.000 178.395,222.000 177.459 C 222.000 176.430,221.803 176.042,221.200 175.884 C 220.582 175.723,220.400 175.338,220.400 174.200 C 220.400 173.060,220.218 172.677,219.597 172.515 C 219.032 172.367,218.721 171.848,218.548 170.764 C 218.385 169.748,218.046 169.141,217.551 168.984 C 217.010 168.813,216.800 168.365,216.800 167.387 C 216.800 166.438,216.559 165.899,216.000 165.600 C 215.560 165.365,215.200 164.908,215.200 164.586 C 215.200 164.264,215.033 164.000,214.829 164.000 C 214.075 164.000,213.200 162.710,213.200 161.598 C 213.200 160.805,212.954 160.376,212.400 160.200 C 211.807 160.012,211.600 159.595,211.600 158.587 C 211.600 157.638,211.359 157.099,210.800 156.800 C 210.277 156.520,210.000 155.962,210.000 155.189 C 210.000 154.440,209.707 153.824,209.200 153.507 C 208.733 153.215,208.400 152.574,208.400 151.966 C 208.400 151.393,208.061 150.617,207.646 150.242 C 207.231 149.866,206.792 149.060,206.670 148.451 C 206.548 147.841,205.718 146.612,204.824 145.718 C 203.764 144.658,203.200 143.736,203.200 143.061 C 203.200 142.438,202.883 141.858,202.400 141.600 C 201.841 141.301,201.600 140.762,201.600 139.813 C 201.600 138.805,201.393 138.388,200.800 138.200 C 200.250 138.025,199.923 137.460,199.751 136.384 C 199.586 135.350,199.248 134.742,198.751 134.584 C 198.184 134.405,198.000 133.960,198.000 132.773 C 198.000 131.641,197.832 131.200,197.400 131.200 C 197.070 131.200,196.800 130.930,196.800 130.600 C 196.800 130.086,197.978 130.000,205.000 130.000 L 213.200 130.000 213.200 128.000 C 213.200 126.900,213.029 126.000,212.820 126.000 C 212.125 126.000,210.004 123.413,210.002 122.562 C 210.001 122.101,209.640 121.398,209.200 121.000 C 208.760 120.602,208.400 119.899,208.400 119.437 C 208.400 118.976,207.590 117.729,206.600 116.665 C 205.512 115.497,204.800 114.356,204.800 113.780 C 204.800 113.238,204.456 112.644,204.000 112.400 C 203.477 112.120,203.200 111.562,203.200 110.789 C 203.200 110.040,202.907 109.424,202.400 109.107 C 201.960 108.832,201.600 108.291,201.600 107.904 C 201.600 107.480,201.299 107.200,200.843 107.200 C 199.981 107.200,199.600 106.455,199.600 104.767 C 199.600 103.867,199.417 103.600,198.800 103.600 C 198.267 103.600,198.000 103.333,198.000 102.800 C 198.000 102.267,197.733 102.000,197.200 102.000 C 196.565 102.000,196.399 101.731,196.394 100.700 C 196.387 99.207,196.087 98.648,195.100 98.283 C 194.647 98.116,194.400 97.603,194.400 96.827 C 194.400 96.038,194.127 95.482,193.600 95.200 C 193.160 94.965,192.800 94.520,192.800 94.213 C 192.800 93.905,192.440 93.540,192.000 93.400 C 191.399 93.209,191.200 92.795,191.200 91.736 C 191.200 90.669,191.008 90.275,190.413 90.119 C 189.981 90.006,189.525 89.592,189.400 89.200 C 189.275 88.808,188.819 88.394,188.387 88.281 C 187.784 88.123,187.600 87.730,187.600 86.600 C 187.600 85.462,187.418 85.077,186.800 84.916 C 186.250 84.772,186.000 84.370,186.000 83.632 C 186.000 82.531,183.707 79.600,182.846 79.600 C 182.594 79.600,182.400 78.917,182.400 78.027 C 182.400 76.805,182.221 76.397,181.600 76.200 C 181.084 76.036,180.800 75.595,180.800 74.955 C 180.800 74.410,180.350 73.514,179.800 72.964 C 179.250 72.414,178.800 71.835,178.800 71.678 C 178.800 71.521,178.440 71.168,178.000 70.893 C 177.518 70.592,177.198 69.957,177.196 69.297 C 177.193 68.522,176.724 67.789,175.600 66.800 C 174.483 65.818,174.007 65.076,174.004 64.314 C 174.001 63.640,173.696 63.066,173.200 62.800 C 172.739 62.553,172.400 61.962,172.400 61.407 C 172.400 60.876,171.950 59.956,171.400 59.362 C 170.850 58.769,170.400 58.150,170.400 57.988 C 170.400 57.826,170.040 57.599,169.600 57.484 C 168.964 57.318,168.800 56.938,168.800 55.637 C 168.800 54.267,168.670 54.000,168.000 54.000 C 167.377 54.000,167.200 53.733,167.200 52.797 C 167.200 52.013,166.852 51.292,166.200 50.725 C 165.650 50.247,165.200 49.639,165.200 49.375 C 165.200 49.110,164.840 48.799,164.400 48.684 C 163.831 48.535,163.600 48.138,163.600 47.310 C 163.600 46.565,163.239 45.830,162.600 45.275 C 162.050 44.797,161.600 44.245,161.600 44.049 C 161.600 43.854,161.240 43.599,160.800 43.484 C 160.360 43.369,160.000 42.988,160.000 42.637 C 160.000 42.287,159.815 42.000,159.589 42.000 C 159.364 42.000,158.369 41.190,157.379 40.200 L 155.579 38.400 152.599 38.400 C 149.861 38.400,149.565 38.481,148.963 39.400 M186.982 262.103 C 186.876 262.379,186.837 268.724,186.895 276.203 L 187.000 289.800 216.200 290.000 L 245.400 290.200 245.503 314.900 L 245.606 339.600 265.603 339.600 L 285.600 339.600 285.600 315.433 C 285.600 302.141,285.709 290.981,285.843 290.633 C 286.061 290.064,289.003 290.000,315.000 290.000 C 340.997 290.000,343.939 289.936,344.157 289.367 C 344.474 288.541,344.474 263.059,344.157 262.233 C 343.829 261.377,187.310 261.248,186.982 262.103 "
       stroke="none"
       fill="#ddd6d6"
       fill-rule="evenodd"
       style="fill:#e0d6d6;fill-opacity:1" />
    <path
       id="path1"
       d="M187.300 0.286 C 182.903 0.365,180.000 0.574,180.000 0.809 C 180.000 1.034,178.495 1.200,176.449 1.200 C 173.780 1.200,172.774 1.349,172.400 1.800 C 172.053 2.219,171.131 2.400,169.351 2.400 C 167.917 2.400,166.800 2.575,166.800 2.800 C 166.800 3.020,165.810 3.200,164.600 3.200 C 163.390 3.200,162.400 3.380,162.400 3.600 C 162.400 3.820,161.410 4.000,160.200 4.000 C 158.990 4.000,158.000 4.180,158.000 4.400 C 158.000 4.620,157.190 4.800,156.200 4.800 C 155.210 4.800,154.400 4.980,154.400 5.200 C 154.400 5.420,153.693 5.600,152.829 5.600 C 151.964 5.600,150.987 5.870,150.657 6.200 C 150.327 6.530,149.515 6.800,148.852 6.800 C 148.189 6.800,147.536 6.980,147.400 7.200 C 147.264 7.420,146.623 7.600,145.976 7.600 C 145.329 7.600,144.800 7.780,144.800 8.000 C 144.800 8.220,143.990 8.400,143.000 8.400 C 142.010 8.400,141.200 8.580,141.200 8.800 C 141.200 9.020,140.671 9.200,140.024 9.200 C 139.377 9.200,138.736 9.380,138.600 9.600 C 138.464 9.820,138.016 10.000,137.605 10.000 C 137.194 10.000,136.587 10.270,136.257 10.600 C 135.927 10.930,135.284 11.200,134.829 11.200 C 134.373 11.200,134.000 11.380,134.000 11.600 C 134.000 11.820,133.460 12.000,132.800 12.000 C 132.140 12.000,131.600 12.180,131.600 12.400 C 131.600 12.620,131.150 12.800,130.600 12.800 C 130.050 12.800,129.600 12.980,129.600 13.200 C 129.600 13.420,129.060 13.600,128.400 13.600 C 127.600 13.600,127.200 13.800,127.200 14.200 C 127.200 14.573,126.822 14.800,126.200 14.800 C 125.650 14.800,125.200 14.980,125.200 15.200 C 125.200 15.420,124.660 15.600,124.000 15.600 C 123.340 15.600,122.800 15.780,122.800 16.000 C 122.800 16.220,122.350 16.400,121.800 16.400 C 121.250 16.400,120.800 16.580,120.800 16.800 C 120.800 17.020,120.440 17.200,120.000 17.200 C 119.560 17.200,119.200 17.380,119.200 17.600 C 119.200 17.820,118.750 18.000,118.200 18.000 C 117.578 18.000,117.200 18.227,117.200 18.600 C 117.200 18.933,116.844 19.200,116.400 19.200 C 115.960 19.200,115.600 19.380,115.600 19.600 C 115.600 19.820,115.150 20.000,114.600 20.000 C 114.050 20.000,113.600 20.180,113.600 20.400 C 113.600 20.620,113.240 20.800,112.800 20.800 C 112.360 20.800,112.000 20.980,112.000 21.200 C 112.000 21.420,111.758 21.600,111.461 21.600 C 110.659 21.600,108.400 22.802,108.400 23.229 C 108.400 23.433,108.040 23.600,107.600 23.600 C 107.160 23.600,106.800 23.780,106.800 24.000 C 106.800 24.220,106.530 24.400,106.200 24.400 C 105.870 24.400,105.600 24.580,105.600 24.800 C 105.600 25.020,105.240 25.200,104.800 25.200 C 104.360 25.200,104.000 25.380,104.000 25.600 C 104.000 25.820,103.640 26.000,103.200 26.000 C 102.760 26.000,102.400 26.168,102.400 26.373 C 102.400 26.578,101.995 26.874,101.500 27.030 C 101.005 27.187,100.309 27.649,99.953 28.057 C 99.597 28.466,99.012 28.800,98.653 28.800 C 98.294 28.800,98.000 28.980,98.000 29.200 C 98.000 29.420,97.730 29.600,97.400 29.600 C 97.070 29.600,96.800 29.780,96.800 30.000 C 96.800 30.220,96.440 30.400,96.000 30.400 C 95.560 30.400,95.200 30.593,95.200 30.829 C 95.200 31.506,94.128 32.400,93.317 32.400 C 92.910 32.400,92.317 32.760,92.000 33.200 C 91.683 33.640,91.169 34.000,90.858 34.000 C 90.546 34.000,89.875 34.450,89.365 35.000 C 88.855 35.550,88.232 36.000,87.980 36.000 C 87.727 36.000,87.017 36.540,86.400 37.200 C 85.783 37.860,84.978 38.400,84.611 38.400 C 83.956 38.400,82.800 39.293,82.800 39.800 C 82.800 40.299,81.649 41.200,81.010 41.200 C 80.395 41.200,78.400 42.889,78.400 43.410 C 78.400 43.817,77.289 44.800,76.829 44.800 C 76.593 44.800,76.400 44.980,76.400 45.200 C 76.400 45.420,76.122 45.600,75.782 45.600 C 75.086 45.600,73.200 47.340,73.200 47.982 C 73.200 48.212,73.012 48.400,72.783 48.400 C 72.553 48.400,71.383 49.390,70.183 50.600 C 68.982 51.810,67.823 52.800,67.607 52.800 C 67.058 52.800,58.000 61.868,58.000 62.417 C 58.000 62.663,56.380 64.456,54.400 66.400 C 52.420 68.344,50.800 70.180,50.800 70.479 C 50.800 70.779,50.440 71.283,50.000 71.600 C 49.560 71.917,49.200 72.330,49.200 72.517 C 49.200 72.999,48.139 74.000,47.629 74.000 C 47.393 74.000,47.200 74.236,47.200 74.525 C 47.200 74.813,46.840 75.436,46.400 75.908 C 45.960 76.380,45.600 76.914,45.600 77.095 C 45.600 77.276,45.240 77.683,44.800 78.000 C 44.360 78.317,44.000 78.897,44.000 79.288 C 44.000 79.680,43.760 80.000,43.468 80.000 C 43.175 80.000,42.694 80.450,42.400 81.000 C 42.106 81.550,41.715 82.000,41.532 82.000 C 41.350 82.000,41.200 82.317,41.200 82.705 C 41.200 83.093,40.750 83.748,40.200 84.161 C 39.650 84.574,39.200 85.207,39.200 85.568 C 39.200 85.928,38.840 86.483,38.400 86.800 C 37.960 87.117,37.600 87.697,37.600 88.088 C 37.600 88.480,37.420 88.800,37.200 88.800 C 36.980 88.800,36.800 89.070,36.800 89.400 C 36.800 89.730,36.620 90.000,36.400 90.000 C 36.180 90.000,36.000 90.360,36.000 90.800 C 36.000 91.240,35.807 91.600,35.571 91.600 C 34.894 91.600,34.000 92.672,34.000 93.483 C 34.000 93.890,33.640 94.483,33.200 94.800 C 32.760 95.117,32.400 95.697,32.400 96.088 C 32.400 96.480,32.220 96.800,32.000 96.800 C 31.780 96.800,31.600 96.993,31.600 97.229 C 31.600 97.464,31.375 97.908,31.100 98.215 C 29.856 99.602,29.600 100.006,29.600 100.583 C 29.600 100.922,29.454 101.200,29.275 101.200 C 29.096 101.200,28.702 101.830,28.400 102.600 C 28.098 103.370,27.704 104.000,27.525 104.000 C 27.346 104.000,27.200 104.248,27.200 104.551 C 27.200 104.854,26.930 105.326,26.600 105.600 C 26.270 105.874,26.000 106.436,26.000 106.849 C 26.000 107.262,25.820 107.600,25.600 107.600 C 25.380 107.600,25.200 107.960,25.200 108.400 C 25.200 108.840,25.020 109.200,24.800 109.200 C 24.580 109.200,24.400 109.650,24.400 110.200 C 24.400 110.750,24.220 111.200,24.000 111.200 C 23.780 111.200,23.600 111.560,23.600 112.000 C 23.600 112.444,23.333 112.800,23.000 112.800 C 22.670 112.800,22.400 113.149,22.400 113.576 C 22.400 114.003,22.220 114.464,22.000 114.600 C 21.780 114.736,21.600 115.197,21.600 115.624 C 21.600 116.051,21.420 116.400,21.200 116.400 C 20.980 116.400,20.800 116.760,20.800 117.200 C 20.800 117.640,20.620 118.000,20.400 118.000 C 20.180 118.000,20.000 118.450,20.000 119.000 C 20.000 119.550,19.820 120.000,19.600 120.000 C 19.380 120.000,19.200 120.521,19.200 121.157 C 19.200 121.817,18.942 122.413,18.600 122.545 C 18.270 122.671,18.000 123.141,18.000 123.587 C 18.000 124.034,17.820 124.400,17.600 124.400 C 17.380 124.400,17.200 124.760,17.200 125.200 C 17.200 125.640,17.020 126.000,16.800 126.000 C 16.580 126.000,16.400 126.450,16.400 127.000 C 16.400 127.550,16.220 128.000,16.000 128.000 C 15.780 128.000,15.600 128.540,15.600 129.200 C 15.600 129.860,15.420 130.400,15.200 130.400 C 14.980 130.400,14.800 130.773,14.800 131.229 C 14.800 131.684,14.530 132.327,14.200 132.657 C 13.870 132.987,13.600 133.594,13.600 134.005 C 13.600 134.416,13.420 134.864,13.200 135.000 C 12.980 135.136,12.800 135.777,12.800 136.424 C 12.800 137.071,12.620 137.600,12.400 137.600 C 12.180 137.600,12.000 138.230,12.000 139.000 C 12.000 139.770,11.820 140.400,11.600 140.400 C 11.380 140.400,11.200 140.921,11.200 141.557 C 11.200 142.217,10.942 142.813,10.600 142.945 C 10.249 143.079,10.000 143.679,10.000 144.387 C 10.000 145.054,9.820 145.600,9.600 145.600 C 9.380 145.600,9.200 146.230,9.200 147.000 C 9.200 147.770,9.020 148.400,8.800 148.400 C 8.580 148.400,8.400 149.120,8.400 150.000 C 8.400 150.880,8.220 151.600,8.000 151.600 C 7.780 151.600,7.600 152.230,7.600 153.000 C 7.600 153.770,7.420 154.400,7.200 154.400 C 6.980 154.400,6.800 155.191,6.800 156.157 C 6.800 157.350,6.607 157.988,6.200 158.145 C 5.804 158.297,5.600 158.923,5.600 159.987 C 5.600 160.874,5.420 161.600,5.200 161.600 C 4.980 161.600,4.800 162.590,4.800 163.800 C 4.800 165.010,4.620 166.000,4.400 166.000 C 4.180 166.000,4.000 166.810,4.000 167.800 C 4.000 168.790,3.820 169.600,3.600 169.600 C 3.374 169.600,3.200 170.733,3.200 172.200 C 3.200 173.667,3.026 174.800,2.800 174.800 C 2.575 174.800,2.400 175.919,2.400 177.357 C 2.400 179.261,2.247 179.973,1.800 180.145 C 1.332 180.324,1.200 181.119,1.200 183.754 C 1.200 186.102,1.047 187.184,0.700 187.300 C 0.306 187.431,0.200 193.409,0.200 215.400 C 0.200 237.391,0.306 243.369,0.700 243.500 C 1.043 243.614,1.200 244.650,1.200 246.805 C 1.200 249.061,1.369 250.111,1.800 250.543 C 2.202 250.944,2.400 251.946,2.400 253.571 C 2.400 254.924,2.577 256.000,2.800 256.000 C 3.020 256.000,3.200 256.990,3.200 258.200 C 3.200 259.410,3.380 260.400,3.600 260.400 C 3.820 260.400,4.000 261.390,4.000 262.600 C 4.000 263.810,4.180 264.800,4.400 264.800 C 4.620 264.800,4.800 265.610,4.800 266.600 C 4.800 267.590,4.980 268.400,5.200 268.400 C 5.420 268.400,5.600 269.210,5.600 270.200 C 5.600 271.533,5.756 272.000,6.200 272.000 C 6.644 272.000,6.800 272.467,6.800 273.800 C 6.800 274.790,6.980 275.600,7.200 275.600 C 7.420 275.600,7.600 276.410,7.600 277.400 C 7.600 278.390,7.780 279.200,8.000 279.200 C 8.220 279.200,8.400 279.729,8.400 280.376 C 8.400 281.023,8.580 281.664,8.800 281.800 C 9.020 281.936,9.200 282.656,9.200 283.400 C 9.200 284.144,9.380 284.864,9.600 285.000 C 9.820 285.136,10.000 285.674,10.000 286.195 C 10.000 286.716,10.270 287.413,10.600 287.743 C 10.930 288.073,11.200 288.896,11.200 289.571 C 11.200 290.247,11.380 290.800,11.600 290.800 C 11.820 290.800,12.000 291.340,12.000 292.000 C 12.000 292.660,12.180 293.200,12.400 293.200 C 12.620 293.200,12.800 293.650,12.800 294.200 C 12.800 294.750,12.980 295.200,13.200 295.200 C 13.420 295.200,13.600 295.740,13.600 296.400 C 13.600 297.200,13.800 297.600,14.200 297.600 C 14.619 297.600,14.800 298.022,14.800 299.000 C 14.800 299.770,14.980 300.400,15.200 300.400 C 15.420 300.400,15.600 300.760,15.600 301.200 C 15.600 301.640,15.780 302.000,16.000 302.000 C 16.220 302.000,16.400 302.450,16.400 303.000 C 16.400 303.550,16.580 304.000,16.800 304.000 C 17.020 304.000,17.200 304.540,17.200 305.200 C 17.200 305.860,17.380 306.400,17.600 306.400 C 17.820 306.400,18.000 306.850,18.000 307.400 C 18.000 308.022,18.227 308.400,18.600 308.400 C 18.933 308.400,19.200 308.756,19.200 309.200 C 19.200 309.640,19.380 310.000,19.600 310.000 C 19.820 310.000,20.000 310.450,20.000 311.000 C 20.000 311.550,20.180 312.000,20.400 312.000 C 20.620 312.000,20.800 312.540,20.800 313.200 C 20.800 313.860,20.980 314.400,21.200 314.400 C 21.420 314.400,21.600 314.655,21.600 314.968 C 21.600 315.681,22.898 317.994,23.300 317.997 C 23.465 317.999,23.600 318.349,23.600 318.776 C 23.600 319.203,23.780 319.664,24.000 319.800 C 24.220 319.936,24.400 320.397,24.400 320.824 C 24.400 321.251,24.568 321.600,24.774 321.600 C 24.980 321.600,25.376 322.230,25.654 323.000 C 25.933 323.770,26.305 324.400,26.480 324.400 C 26.656 324.400,26.800 324.676,26.800 325.013 C 26.800 325.349,27.070 325.729,27.400 325.855 C 27.730 325.982,28.000 326.516,28.000 327.043 C 28.000 327.569,28.180 328.000,28.400 328.000 C 28.620 328.000,28.800 328.320,28.800 328.712 C 28.800 329.103,29.160 329.683,29.600 330.000 C 30.040 330.317,30.400 330.903,30.400 331.301 C 30.400 331.699,30.670 332.129,31.000 332.255 C 31.330 332.382,31.600 332.787,31.600 333.154 C 31.600 333.522,31.960 334.083,32.400 334.400 C 32.840 334.717,33.200 335.387,33.200 335.888 C 33.200 336.390,33.358 336.800,33.551 336.800 C 33.745 336.800,34.127 337.340,34.400 338.000 C 34.673 338.660,35.145 339.200,35.449 339.200 C 35.752 339.200,36.000 339.560,36.000 340.000 C 36.000 340.440,36.180 340.800,36.400 340.800 C 36.620 340.800,36.800 341.070,36.800 341.400 C 36.800 341.730,36.980 342.000,37.200 342.000 C 37.420 342.000,37.600 342.245,37.600 342.544 C 37.600 342.843,38.230 343.756,39.000 344.573 C 39.770 345.389,40.400 346.248,40.400 346.482 C 40.400 346.715,40.729 347.197,41.130 347.553 C 41.532 347.909,42.116 348.785,42.428 349.500 C 42.740 350.215,43.144 350.800,43.326 350.800 C 43.852 350.800,44.800 351.890,44.800 352.493 C 44.800 353.173,47.342 356.000,47.954 356.000 C 48.199 356.000,48.400 356.340,48.400 356.755 C 48.400 357.171,49.390 358.533,50.600 359.782 C 51.810 361.032,52.800 362.214,52.800 362.410 C 52.800 362.605,54.330 364.306,56.200 366.189 C 58.070 368.071,59.600 369.789,59.600 370.006 C 59.600 370.223,59.773 370.400,59.984 370.400 C 60.196 370.400,63.246 373.280,66.763 376.800 C 70.280 380.320,73.343 383.200,73.570 383.200 C 73.797 383.200,74.874 384.100,75.962 385.200 C 77.051 386.300,78.152 387.200,78.410 387.200 C 78.668 387.200,79.383 387.740,80.000 388.400 C 80.617 389.060,81.299 389.600,81.518 389.600 C 81.736 389.600,82.018 389.870,82.145 390.200 C 82.271 390.530,82.611 390.800,82.899 390.800 C 83.187 390.800,83.683 391.160,84.000 391.600 C 84.317 392.040,84.807 392.400,85.088 392.400 C 85.370 392.400,85.600 392.580,85.600 392.800 C 85.600 393.020,85.883 393.200,86.229 393.200 C 86.869 393.200,88.000 394.111,88.000 394.627 C 88.000 395.072,89.333 395.973,90.012 395.987 C 90.348 395.994,90.883 396.360,91.200 396.800 C 91.517 397.240,92.097 397.600,92.488 397.600 C 92.880 397.600,93.200 397.780,93.200 398.000 C 93.200 398.220,93.451 398.400,93.757 398.400 C 94.064 398.400,94.418 398.670,94.545 399.000 C 94.671 399.330,95.011 399.600,95.299 399.600 C 95.587 399.600,96.083 399.960,96.400 400.400 C 96.717 400.840,97.321 401.200,97.741 401.200 C 98.162 401.200,98.797 401.520,99.153 401.910 C 100.016 402.858,101.844 404.000,102.498 404.000 C 102.787 404.000,103.283 404.360,103.600 404.800 C 103.917 405.240,104.497 405.600,104.888 405.600 C 105.280 405.600,105.600 405.780,105.600 406.000 C 105.600 406.220,106.050 406.400,106.600 406.400 C 107.222 406.400,107.600 406.627,107.600 407.000 C 107.600 407.333,107.956 407.600,108.400 407.600 C 108.840 407.600,109.200 407.780,109.200 408.000 C 109.200 408.220,109.650 408.400,110.200 408.400 C 110.750 408.400,111.200 408.580,111.200 408.800 C 111.200 409.020,111.560 409.200,112.000 409.200 C 112.440 409.200,112.800 409.380,112.800 409.600 C 112.800 409.820,113.250 410.000,113.800 410.000 C 114.350 410.000,114.800 410.180,114.800 410.400 C 114.800 410.620,115.160 410.800,115.600 410.800 C 116.044 410.800,116.400 411.067,116.400 411.400 C 116.400 411.733,116.756 412.000,117.200 412.000 C 117.640 412.000,118.000 412.180,118.000 412.400 C 118.000 412.620,118.450 412.800,119.000 412.800 C 119.550 412.800,120.000 412.980,120.000 413.200 C 120.000 413.420,120.360 413.600,120.800 413.600 C 121.240 413.600,121.600 413.780,121.600 414.000 C 121.600 414.220,122.031 414.400,122.557 414.400 C 123.084 414.400,123.618 414.670,123.745 415.000 C 123.871 415.330,124.431 415.600,124.987 415.600 C 125.544 415.600,126.000 415.780,126.000 416.000 C 126.000 416.220,126.450 416.400,127.000 416.400 C 127.550 416.400,128.000 416.580,128.000 416.800 C 128.000 417.020,128.349 417.200,128.776 417.200 C 129.203 417.200,129.664 417.380,129.800 417.600 C 129.936 417.820,130.577 418.000,131.224 418.000 C 131.871 418.000,132.400 418.180,132.400 418.400 C 132.400 418.620,132.921 418.800,133.557 418.800 C 134.217 418.800,134.813 419.058,134.945 419.400 C 135.079 419.751,135.679 420.000,136.387 420.000 C 137.054 420.000,137.600 420.180,137.600 420.400 C 137.600 420.620,138.050 420.800,138.600 420.800 C 139.150 420.800,139.600 420.980,139.600 421.200 C 139.600 421.420,140.320 421.600,141.200 421.600 C 142.080 421.600,142.800 421.780,142.800 422.000 C 142.800 422.220,143.430 422.400,144.200 422.400 C 144.970 422.400,145.600 422.580,145.600 422.800 C 145.600 423.020,146.153 423.200,146.829 423.200 C 147.504 423.200,148.327 423.470,148.657 423.800 C 148.987 424.130,149.774 424.400,150.405 424.400 C 151.036 424.400,151.664 424.580,151.800 424.800 C 151.936 425.020,152.847 425.200,153.824 425.200 C 154.801 425.200,155.600 425.380,155.600 425.600 C 155.600 425.820,156.320 426.000,157.200 426.000 C 158.080 426.000,158.800 426.180,158.800 426.400 C 158.800 426.622,159.859 426.800,161.176 426.800 C 162.483 426.800,163.664 426.980,163.800 427.200 C 163.936 427.420,165.117 427.600,166.424 427.600 C 168.269 427.600,168.800 427.734,168.800 428.200 C 168.800 428.679,169.391 428.800,171.720 428.800 C 173.523 428.800,174.831 428.991,175.140 429.300 C 175.529 429.689,180.965 429.800,199.600 429.800 C 218.235 429.800,223.671 429.689,224.060 429.300 C 224.369 428.991,225.677 428.800,227.480 428.800 C 229.809 428.800,230.400 428.679,230.400 428.200 C 230.400 427.728,230.956 427.600,233.000 427.600 C 234.467 427.600,235.600 427.426,235.600 427.200 C 235.600 426.980,236.579 426.800,237.776 426.800 C 238.973 426.800,240.064 426.620,240.200 426.400 C 240.336 426.180,241.157 426.000,242.024 426.000 C 242.891 426.000,243.600 425.820,243.600 425.600 C 243.600 425.380,244.410 425.200,245.400 425.200 C 246.390 425.200,247.200 425.020,247.200 424.800 C 247.200 424.580,247.817 424.400,248.571 424.400 C 249.326 424.400,250.213 424.130,250.543 423.800 C 250.873 423.470,251.696 423.200,252.371 423.200 C 253.047 423.200,253.600 423.020,253.600 422.800 C 253.600 422.580,254.320 422.400,255.200 422.400 C 256.080 422.400,256.800 422.220,256.800 422.000 C 256.800 421.780,257.430 421.600,258.200 421.600 C 258.970 421.600,259.600 421.420,259.600 421.200 C 259.600 420.980,260.050 420.800,260.600 420.800 C 261.150 420.800,261.600 420.620,261.600 420.400 C 261.600 420.180,262.140 420.000,262.800 420.000 C 263.600 420.000,264.000 419.800,264.000 419.400 C 264.000 418.981,264.422 418.800,265.400 418.800 C 266.170 418.800,266.800 418.620,266.800 418.400 C 266.800 418.180,267.340 418.000,268.000 418.000 C 268.660 418.000,269.200 417.820,269.200 417.600 C 269.200 417.380,269.650 417.200,270.200 417.200 C 270.750 417.200,271.200 417.053,271.200 416.872 C 271.200 416.692,272.120 416.294,273.245 415.988 C 274.370 415.681,275.379 415.199,275.488 414.915 C 275.597 414.632,276.116 414.400,276.643 414.400 C 277.169 414.400,277.600 414.220,277.600 414.000 C 277.600 413.780,277.960 413.600,278.400 413.600 C 278.840 413.600,279.200 413.420,279.200 413.200 C 279.200 412.980,279.560 412.800,280.000 412.800 C 280.440 412.800,280.800 412.620,280.800 412.400 C 280.800 412.180,281.250 412.000,281.800 412.000 C 282.422 412.000,282.800 411.773,282.800 411.400 C 282.800 411.067,283.156 410.800,283.600 410.800 C 284.040 410.800,284.400 410.620,284.400 410.400 C 284.400 410.180,284.906 410.000,285.525 410.000 C 286.143 410.000,287.036 409.640,287.508 409.200 C 287.980 408.760,288.526 408.400,288.722 408.400 C 289.382 408.400,291.600 407.144,291.600 406.771 C 291.600 406.567,291.960 406.400,292.400 406.400 C 292.840 406.400,293.200 406.220,293.200 406.000 C 293.200 405.780,293.610 405.600,294.112 405.600 C 294.613 405.600,295.283 405.240,295.600 404.800 C 295.917 404.360,296.497 404.000,296.888 404.000 C 297.280 404.000,297.600 403.820,297.600 403.600 C 297.600 403.380,297.862 403.200,298.182 403.200 C 298.502 403.200,299.214 402.750,299.764 402.200 C 300.314 401.650,301.008 401.200,301.306 401.200 C 301.605 401.200,302.236 400.840,302.708 400.400 C 303.180 399.960,303.844 399.600,304.183 399.600 C 304.522 399.600,304.800 399.407,304.800 399.171 C 304.800 398.494,305.872 397.600,306.683 397.600 C 307.090 397.600,307.683 397.240,308.000 396.800 C 308.317 396.360,308.831 396.000,309.141 396.000 C 309.452 396.000,310.300 395.370,311.026 394.600 C 311.752 393.830,312.628 393.200,312.973 393.200 C 313.318 393.200,313.600 393.020,313.600 392.800 C 313.600 392.580,313.778 392.400,313.995 392.400 C 314.449 392.400,315.636 391.489,317.253 389.900 C 317.869 389.295,318.559 388.800,318.787 388.800 C 319.014 388.800,319.200 388.620,319.200 388.400 C 319.200 388.180,319.425 388.000,319.700 388.000 C 320.363 387.999,322.400 386.229,322.400 385.653 C 322.400 385.404,322.630 385.200,322.912 385.200 C 323.193 385.200,323.683 384.840,324.000 384.400 C 324.317 383.960,324.820 383.600,325.117 383.600 C 325.762 383.600,326.800 382.631,326.800 382.029 C 326.800 381.793,326.985 381.600,327.210 381.600 C 327.746 381.600,339.200 370.146,339.200 369.610 C 339.200 369.385,339.384 369.200,339.610 369.200 C 340.267 369.200,346.400 362.890,346.400 362.214 C 346.400 361.876,346.580 361.600,346.800 361.600 C 347.020 361.600,347.200 361.330,347.200 361.000 C 347.200 360.670,347.386 360.400,347.613 360.400 C 348.272 360.400,350.800 357.691,350.800 356.985 C 350.800 356.357,351.701 355.200,352.190 355.200 C 352.737 355.200,354.401 353.189,354.409 352.518 C 354.413 352.123,355.043 351.262,355.809 350.604 C 356.574 349.946,357.200 349.163,357.200 348.864 C 357.200 348.565,357.740 347.817,358.400 347.200 C 359.060 346.583,359.600 345.873,359.600 345.620 C 359.600 345.368,360.050 344.745,360.600 344.235 C 361.150 343.725,361.600 343.054,361.600 342.742 C 361.600 342.431,361.960 341.917,362.400 341.600 C 362.840 341.283,363.200 340.656,363.200 340.207 C 363.200 339.757,363.650 339.052,364.200 338.639 C 364.750 338.226,365.200 337.643,365.200 337.344 C 365.200 337.045,365.380 336.800,365.600 336.800 C 365.820 336.800,366.000 336.390,366.000 335.888 C 366.000 335.387,366.360 334.717,366.800 334.400 C 367.240 334.083,367.600 333.503,367.600 333.112 C 367.600 332.720,367.780 332.400,368.000 332.400 C 368.220 332.400,368.400 332.149,368.400 331.843 C 368.400 331.536,368.670 331.182,369.000 331.055 C 369.330 330.929,369.600 330.549,369.600 330.213 C 369.600 329.876,369.780 329.600,370.000 329.600 C 370.220 329.600,370.400 329.240,370.400 328.800 C 370.400 328.360,370.580 328.000,370.800 328.000 C 371.020 328.000,371.200 327.632,371.200 327.182 C 371.200 326.732,371.650 325.914,372.200 325.364 C 372.750 324.814,373.200 324.102,373.200 323.782 C 373.200 323.462,373.380 323.200,373.600 323.200 C 373.820 323.200,374.000 322.840,374.000 322.400 C 374.000 321.960,374.180 321.600,374.400 321.600 C 374.620 321.600,374.800 321.240,374.800 320.800 C 374.800 320.360,374.980 320.000,375.200 320.000 C 375.420 320.000,375.600 319.550,375.600 319.000 C 375.600 318.450,375.780 318.000,376.000 318.000 C 376.220 318.000,376.400 317.659,376.400 317.243 C 376.400 316.826,376.670 316.382,377.000 316.255 C 377.330 316.129,377.600 315.659,377.600 315.213 C 377.600 314.766,377.780 314.400,378.000 314.400 C 378.220 314.400,378.400 314.040,378.400 313.600 C 378.400 313.160,378.580 312.800,378.800 312.800 C 379.020 312.800,379.200 312.350,379.200 311.800 C 379.200 311.250,379.380 310.800,379.600 310.800 C 379.820 310.800,380.000 310.260,380.000 309.600 C 380.000 308.940,380.180 308.400,380.400 308.400 C 380.620 308.400,380.800 307.950,380.800 307.400 C 380.800 306.778,381.027 306.400,381.400 306.400 C 381.733 306.400,382.000 306.044,382.000 305.600 C 382.000 305.160,382.180 304.800,382.400 304.800 C 382.620 304.800,382.800 304.170,382.800 303.400 C 382.800 302.630,382.980 302.000,383.200 302.000 C 383.420 302.000,383.600 301.640,383.600 301.200 C 383.600 300.760,383.780 300.400,384.000 300.400 C 384.220 300.400,384.400 299.770,384.400 299.000 C 384.400 298.230,384.580 297.600,384.800 297.600 C 385.020 297.600,385.200 297.317,385.200 296.971 C 385.200 296.626,385.470 296.073,385.800 295.743 C 386.130 295.413,386.400 294.706,386.400 294.171 C 386.400 293.637,386.580 293.200,386.800 293.200 C 387.020 293.200,387.200 292.660,387.200 292.000 C 387.200 291.340,387.380 290.800,387.600 290.800 C 387.820 290.800,388.000 290.170,388.000 289.400 C 388.000 288.630,388.180 288.000,388.400 288.000 C 388.620 288.000,388.800 287.389,388.800 286.643 C 388.800 285.805,389.030 285.197,389.400 285.055 C 389.730 284.929,390.000 284.380,390.000 283.836 C 390.000 283.292,390.180 282.736,390.400 282.600 C 390.620 282.464,390.800 281.643,390.800 280.776 C 390.800 279.909,390.980 279.200,391.200 279.200 C 391.420 279.200,391.600 278.570,391.600 277.800 C 391.600 277.030,391.780 276.400,392.000 276.400 C 392.220 276.400,392.400 275.590,392.400 274.600 C 392.400 273.610,392.580 272.800,392.800 272.800 C 393.020 272.800,393.200 272.067,393.200 271.171 C 393.200 270.257,393.463 269.280,393.800 268.943 C 394.153 268.590,394.400 267.613,394.400 266.571 C 394.400 265.597,394.580 264.800,394.800 264.800 C 395.020 264.800,395.200 264.091,395.200 263.224 C 395.200 262.357,395.380 261.536,395.600 261.400 C 395.820 261.264,396.000 260.094,396.000 258.800 C 396.000 257.506,396.180 256.336,396.400 256.200 C 396.620 256.064,396.800 254.793,396.800 253.376 C 396.800 251.925,396.975 250.800,397.200 250.800 C 397.431 250.800,397.600 249.550,397.600 247.849 C 397.600 245.714,397.766 244.760,398.200 244.400 C 398.654 244.024,398.800 243.006,398.800 240.231 C 398.800 238.148,398.986 236.374,399.230 236.130 C 399.834 235.526,399.836 194.679,399.231 194.477 C 398.962 194.387,398.800 192.848,398.800 190.367 C 398.800 187.107,398.693 186.400,398.200 186.400 C 397.711 186.400,397.600 185.733,397.600 182.800 C 397.600 180.667,397.437 179.200,397.200 179.200 C 396.974 179.200,396.800 178.067,396.800 176.600 C 396.800 175.133,396.626 174.000,396.400 174.000 C 396.180 174.000,396.000 173.010,396.000 171.800 C 396.000 170.590,395.820 169.600,395.600 169.600 C 395.380 169.600,395.200 168.610,395.200 167.400 C 395.200 166.190,395.020 165.200,394.800 165.200 C 394.580 165.200,394.400 164.390,394.400 163.400 C 394.400 162.067,394.244 161.600,393.800 161.600 C 393.356 161.600,393.200 161.133,393.200 159.800 C 393.200 158.810,393.020 158.000,392.800 158.000 C 392.580 158.000,392.400 157.190,392.400 156.200 C 392.400 155.210,392.220 154.400,392.000 154.400 C 391.780 154.400,391.600 153.691,391.600 152.824 C 391.600 151.957,391.420 151.136,391.200 151.000 C 390.980 150.864,390.800 150.223,390.800 149.576 C 390.800 148.929,390.620 148.400,390.400 148.400 C 390.180 148.400,390.000 147.854,390.000 147.187 C 390.000 146.479,389.751 145.879,389.400 145.745 C 388.993 145.588,388.800 144.950,388.800 143.757 C 388.800 142.791,388.620 142.000,388.400 142.000 C 388.180 142.000,388.000 141.460,388.000 140.800 C 388.000 140.140,387.820 139.600,387.600 139.600 C 387.380 139.600,387.200 139.150,387.200 138.600 C 387.200 138.050,387.020 137.600,386.800 137.600 C 386.580 137.600,386.400 137.054,386.400 136.387 C 386.400 135.679,386.151 135.079,385.800 134.945 C 385.458 134.813,385.200 134.217,385.200 133.557 C 385.200 132.921,385.020 132.400,384.800 132.400 C 384.580 132.400,384.400 131.950,384.400 131.400 C 384.400 130.850,384.220 130.400,384.000 130.400 C 383.780 130.400,383.600 129.860,383.600 129.200 C 383.600 128.540,383.420 128.000,383.200 128.000 C 382.980 128.000,382.800 127.550,382.800 127.000 C 382.800 126.450,382.620 126.000,382.400 126.000 C 382.180 126.000,382.000 125.653,382.000 125.229 C 382.000 124.804,381.730 124.187,381.400 123.857 C 381.070 123.527,380.800 122.884,380.800 122.429 C 380.800 121.973,380.620 121.600,380.400 121.600 C 380.180 121.600,380.000 121.240,380.000 120.800 C 380.000 120.360,379.820 120.000,379.600 120.000 C 379.380 120.000,379.200 119.550,379.200 119.000 C 379.200 118.450,379.020 118.000,378.800 118.000 C 378.580 118.000,378.400 117.640,378.400 117.200 C 378.400 116.760,378.220 116.400,378.000 116.400 C 377.780 116.400,377.600 116.034,377.600 115.587 C 377.600 115.141,377.330 114.671,377.000 114.545 C 376.670 114.418,376.400 113.974,376.400 113.557 C 376.400 113.141,376.220 112.800,376.000 112.800 C 375.780 112.800,375.600 112.440,375.600 112.000 C 375.600 111.560,375.420 111.200,375.200 111.200 C 374.980 111.200,374.800 110.750,374.800 110.200 C 374.800 109.650,374.620 109.200,374.400 109.200 C 374.180 109.200,374.000 108.840,374.000 108.400 C 374.000 107.960,373.820 107.600,373.600 107.600 C 373.380 107.600,373.200 107.234,373.200 106.787 C 373.200 106.341,372.930 105.871,372.600 105.745 C 372.270 105.618,372.000 105.174,372.000 104.757 C 372.000 104.341,371.820 104.000,371.600 104.000 C 371.380 104.000,371.200 103.640,371.200 103.200 C 371.200 102.760,371.020 102.400,370.800 102.400 C 370.580 102.400,370.400 102.130,370.400 101.800 C 370.400 101.470,370.220 101.200,370.000 101.200 C 369.780 101.200,369.600 100.840,369.600 100.400 C 369.600 99.956,369.333 99.600,369.000 99.600 C 368.670 99.600,368.400 99.274,368.400 98.875 C 368.400 98.477,368.040 97.764,367.600 97.292 C 367.160 96.820,366.800 96.156,366.800 95.817 C 366.800 95.478,366.620 95.200,366.400 95.200 C 366.180 95.200,365.994 94.885,365.987 94.500 C 365.972 93.635,365.071 92.400,364.456 92.400 C 364.205 92.400,364.000 92.080,364.000 91.688 C 364.000 91.297,363.640 90.717,363.200 90.400 C 362.760 90.083,362.400 89.495,362.400 89.094 C 362.400 88.692,361.995 87.930,361.500 87.401 C 360.062 85.863,359.600 85.256,359.600 84.905 C 359.600 84.724,359.240 84.317,358.800 84.000 C 358.360 83.683,358.000 83.169,358.000 82.858 C 358.000 82.546,357.550 81.875,357.000 81.365 C 356.450 80.855,356.000 80.276,356.000 80.078 C 356.000 79.881,355.460 79.154,354.800 78.463 C 354.140 77.772,353.600 77.026,353.600 76.804 C 353.600 76.582,353.420 76.400,353.200 76.400 C 352.980 76.400,352.800 76.173,352.800 75.896 C 352.800 75.619,352.174 74.854,351.409 74.196 C 350.643 73.538,350.013 72.815,350.009 72.588 C 350.004 72.362,349.640 71.917,349.200 71.600 C 348.760 71.283,348.400 70.787,348.400 70.499 C 348.400 70.211,348.130 69.871,347.800 69.745 C 347.470 69.618,347.200 69.349,347.200 69.147 C 347.200 68.643,343.720 65.200,343.211 65.200 C 342.985 65.200,342.796 64.885,342.791 64.500 C 342.780 63.704,340.307 60.800,339.639 60.800 C 339.398 60.800,339.200 60.615,339.200 60.389 C 339.200 59.952,332.197 52.800,331.768 52.800 C 331.629 52.800,331.161 52.350,330.729 51.800 C 330.296 51.250,329.725 50.800,329.459 50.800 C 329.194 50.800,328.717 50.440,328.400 50.000 C 328.083 49.560,327.670 49.200,327.483 49.200 C 327.091 49.200,326.000 48.178,326.000 47.810 C 326.000 47.396,324.064 45.600,323.618 45.600 C 323.388 45.600,323.200 45.420,323.200 45.200 C 323.200 44.980,322.917 44.800,322.571 44.800 C 321.933 44.800,320.800 43.889,320.800 43.375 C 320.800 42.906,318.640 41.201,318.045 41.200 C 317.740 41.200,316.952 40.570,316.294 39.800 C 315.636 39.030,314.833 38.400,314.510 38.400 C 314.186 38.400,313.417 37.860,312.800 37.200 C 312.183 36.540,311.301 36.000,310.840 36.000 C 310.378 36.000,310.000 35.807,310.000 35.571 C 310.000 35.014,309.269 34.339,307.900 33.632 C 307.295 33.320,306.800 32.915,306.800 32.732 C 306.800 32.550,306.530 32.400,306.200 32.400 C 305.870 32.400,305.600 32.220,305.600 32.000 C 305.600 31.780,305.240 31.600,304.800 31.600 C 304.360 31.600,304.000 31.395,304.000 31.144 C 304.000 30.529,302.765 29.628,301.900 29.613 C 301.515 29.606,301.200 29.420,301.200 29.200 C 301.200 28.980,300.906 28.800,300.547 28.800 C 300.188 28.800,299.603 28.466,299.247 28.057 C 298.891 27.649,298.195 27.187,297.700 27.030 C 297.205 26.874,296.800 26.578,296.800 26.373 C 296.800 26.168,296.440 26.000,296.000 26.000 C 295.560 26.000,295.200 25.820,295.200 25.600 C 295.200 25.380,294.930 25.200,294.600 25.200 C 294.270 25.200,294.000 25.020,294.000 24.800 C 294.000 24.580,293.640 24.400,293.200 24.400 C 292.760 24.400,292.400 24.220,292.400 24.000 C 292.400 23.780,292.059 23.600,291.643 23.600 C 291.226 23.600,290.782 23.330,290.655 23.000 C 290.529 22.670,290.059 22.400,289.613 22.400 C 289.166 22.400,288.800 22.220,288.800 22.000 C 288.800 21.780,288.440 21.600,288.000 21.600 C 287.560 21.600,287.200 21.420,287.200 21.200 C 287.200 20.980,286.750 20.800,286.200 20.800 C 285.650 20.800,285.200 20.620,285.200 20.400 C 285.200 20.180,284.840 20.000,284.400 20.000 C 283.960 20.000,283.600 19.820,283.600 19.600 C 283.600 19.380,283.259 19.200,282.843 19.200 C 282.426 19.200,281.982 18.930,281.855 18.600 C 281.729 18.270,281.259 18.000,280.813 18.000 C 280.366 18.000,280.000 17.820,280.000 17.600 C 280.000 17.380,279.640 17.200,279.200 17.200 C 278.760 17.200,278.400 17.020,278.400 16.800 C 278.400 16.580,277.950 16.400,277.400 16.400 C 276.850 16.400,276.400 16.220,276.400 16.000 C 276.400 15.780,275.860 15.600,275.200 15.600 C 274.540 15.600,274.000 15.420,274.000 15.200 C 274.000 14.980,273.550 14.800,273.000 14.800 C 272.378 14.800,272.000 14.573,272.000 14.200 C 272.000 13.831,271.625 13.600,271.024 13.600 C 270.487 13.600,269.936 13.420,269.800 13.200 C 269.664 12.980,269.113 12.800,268.576 12.800 C 268.039 12.800,267.600 12.620,267.600 12.400 C 267.600 12.180,267.060 12.000,266.400 12.000 C 265.740 12.000,265.200 11.820,265.200 11.600 C 265.200 11.380,264.827 11.200,264.371 11.200 C 263.916 11.200,263.273 10.930,262.943 10.600 C 262.613 10.270,261.916 10.000,261.395 10.000 C 260.874 10.000,260.336 9.820,260.200 9.600 C 260.064 9.380,259.513 9.200,258.976 9.200 C 258.439 9.200,258.000 9.020,258.000 8.800 C 258.000 8.580,257.381 8.400,256.624 8.400 C 255.867 8.400,255.136 8.220,255.000 8.000 C 254.864 7.780,254.043 7.600,253.176 7.600 C 252.309 7.600,251.600 7.420,251.600 7.200 C 251.600 6.980,251.105 6.794,250.500 6.787 C 249.895 6.780,249.051 6.510,248.624 6.187 C 248.196 5.864,247.262 5.600,246.547 5.600 C 245.832 5.600,245.136 5.420,245.000 5.200 C 244.864 4.980,243.953 4.800,242.976 4.800 C 241.999 4.800,241.200 4.620,241.200 4.400 C 241.200 4.180,240.401 4.000,239.424 4.000 C 238.447 4.000,237.536 3.820,237.400 3.600 C 237.264 3.380,236.083 3.200,234.776 3.200 C 233.459 3.200,232.400 3.022,232.400 2.800 C 232.400 2.572,231.214 2.400,229.643 2.400 C 227.561 2.400,226.829 2.253,226.655 1.800 C 226.476 1.333,225.686 1.200,223.093 1.200 C 221.260 1.200,219.589 1.041,219.380 0.848 C 218.949 0.448,198.309 0.086,187.300 0.286 M156.667 38.631 C 156.800 38.977,157.335 39.423,157.855 39.621 C 158.375 39.818,158.800 40.243,158.800 40.563 C 158.800 40.884,159.160 41.260,159.600 41.400 C 160.040 41.540,160.400 41.916,160.400 42.237 C 160.400 42.557,160.850 42.991,161.400 43.200 C 161.950 43.409,162.400 43.811,162.400 44.094 C 162.400 44.376,162.760 44.832,163.200 45.107 C 163.752 45.452,164.000 46.040,164.000 47.003 C 164.000 48.117,164.157 48.400,164.773 48.400 C 165.198 48.400,165.660 48.760,165.800 49.200 C 165.940 49.641,166.402 50.187,166.827 50.414 C 167.355 50.697,167.600 51.253,167.600 52.167 C 167.600 53.170,167.801 53.559,168.400 53.716 C 168.939 53.857,169.200 54.262,169.200 54.956 C 169.200 55.632,169.819 56.632,171.000 57.865 C 172.227 59.145,172.800 60.088,172.800 60.825 C 172.800 61.570,173.049 61.972,173.600 62.116 C 174.204 62.274,174.400 62.662,174.400 63.698 C 174.400 64.775,174.616 65.170,175.400 65.527 C 175.950 65.778,176.400 66.236,176.400 66.545 C 176.400 66.854,176.760 67.201,177.200 67.316 C 177.818 67.477,178.000 67.862,178.000 69.000 C 178.000 70.138,178.182 70.523,178.800 70.684 C 179.240 70.799,179.600 71.111,179.600 71.377 C 179.600 71.643,180.050 72.283,180.600 72.800 C 181.189 73.354,181.600 74.184,181.600 74.823 C 181.600 75.570,181.848 75.972,182.400 76.116 C 183.009 76.275,183.200 76.662,183.200 77.736 C 183.200 78.782,183.401 79.210,183.980 79.394 C 184.408 79.530,184.865 79.975,184.995 80.384 C 185.124 80.792,185.477 81.221,185.778 81.336 C 186.078 81.451,186.442 82.079,186.585 82.731 C 186.728 83.384,187.195 84.234,187.623 84.621 C 188.050 85.007,188.400 85.725,188.400 86.215 C 188.400 86.721,189.091 87.797,190.000 88.706 C 191.182 89.888,191.600 90.631,191.600 91.553 C 191.600 92.406,191.793 92.800,192.213 92.800 C 192.549 92.800,192.936 93.088,193.071 93.440 C 193.206 93.792,193.740 94.504,194.258 95.022 C 194.776 95.540,195.200 96.401,195.200 96.935 C 195.200 97.570,195.477 97.979,196.000 98.116 C 196.636 98.282,196.800 98.662,196.800 99.963 C 196.800 101.333,196.930 101.600,197.600 101.600 C 198.118 101.600,198.400 101.867,198.400 102.357 C 198.400 102.830,198.774 103.207,199.400 103.364 C 200.257 103.579,200.400 103.843,200.400 105.208 C 200.400 106.398,200.561 106.800,201.037 106.800 C 201.388 106.800,201.767 107.154,201.881 107.587 C 201.994 108.019,202.427 108.482,202.843 108.614 C 203.335 108.770,203.602 109.229,203.606 109.927 C 203.613 111.198,203.949 111.766,204.900 112.117 C 205.386 112.296,205.600 112.807,205.600 113.787 C 205.600 114.761,205.782 115.200,206.186 115.200 C 206.508 115.200,206.972 115.574,207.216 116.030 C 207.461 116.487,208.007 117.207,208.430 117.630 C 208.854 118.054,209.200 118.829,209.200 119.353 C 209.200 119.970,209.482 120.381,210.000 120.516 C 210.609 120.675,210.800 121.062,210.800 122.136 C 210.800 123.195,210.999 123.609,211.600 123.800 C 212.040 123.940,212.400 124.291,212.400 124.581 C 212.400 124.871,212.850 125.403,213.400 125.763 C 214.201 126.288,214.400 126.749,214.400 128.078 C 214.400 131.097,214.115 131.200,205.738 131.200 L 198.400 131.200 198.400 132.610 C 198.400 133.746,198.594 134.094,199.400 134.400 C 200.197 134.703,200.400 135.057,200.400 136.143 C 200.400 137.170,200.597 137.558,201.200 137.716 C 201.818 137.877,202.000 138.262,202.000 139.400 C 202.000 140.538,202.182 140.923,202.800 141.084 C 203.403 141.242,203.600 141.630,203.600 142.657 C 203.600 143.743,203.803 144.097,204.600 144.400 C 205.150 144.609,205.600 145.053,205.600 145.387 C 205.600 145.720,205.960 146.218,206.400 146.493 C 206.890 146.799,207.200 147.426,207.200 148.109 C 207.200 148.807,207.462 149.322,207.900 149.483 C 208.838 149.830,209.187 150.400,209.194 151.604 C 209.197 152.169,209.549 152.826,210.000 153.107 C 210.543 153.446,210.800 154.040,210.800 154.957 C 210.800 155.970,210.999 156.359,211.600 156.516 C 212.214 156.676,212.400 157.062,212.400 158.172 C 212.400 159.348,212.588 159.691,213.400 160.000 C 214.238 160.319,214.400 160.641,214.400 161.990 C 214.400 163.169,214.564 163.600,215.013 163.600 C 215.349 163.600,215.741 163.901,215.882 164.269 C 216.023 164.638,216.468 165.268,216.869 165.669 C 217.271 166.071,217.600 166.732,217.600 167.139 C 217.600 167.545,217.960 168.293,218.400 168.800 C 218.840 169.307,219.200 170.027,219.200 170.399 C 219.200 170.771,219.560 171.402,220.000 171.800 C 220.440 172.198,220.800 172.993,220.800 173.566 C 220.800 174.174,221.133 174.815,221.600 175.107 C 222.134 175.441,222.400 176.040,222.400 176.909 C 222.400 177.875,222.632 178.312,223.300 178.605 C 223.962 178.895,224.233 179.397,224.324 180.500 C 224.406 181.494,224.646 182.000,225.034 182.000 C 225.356 182.000,225.782 182.425,225.979 182.945 C 226.177 183.465,226.623 184.000,226.969 184.133 C 227.379 184.290,227.600 184.870,227.600 185.787 C 227.600 186.564,227.767 187.200,227.971 187.200 C 229.371 187.200,230.263 191.177,229.120 192.320 C 228.773 192.667,225.947 192.800,218.920 192.800 L 209.200 192.800 209.200 194.400 C 209.200 195.567,209.365 196.000,209.810 196.000 C 210.145 196.000,210.582 196.425,210.779 196.945 C 210.977 197.465,211.423 198.000,211.769 198.133 C 212.116 198.266,212.400 198.799,212.400 199.318 C 212.400 199.836,212.850 200.683,213.400 201.200 C 213.967 201.732,214.400 202.588,214.400 203.174 C 214.400 203.774,214.735 204.417,215.200 204.707 C 215.682 205.008,216.002 205.643,216.004 206.303 C 216.007 207.078,216.476 207.811,217.600 208.800 C 218.826 209.878,219.193 210.493,219.196 211.473 C 219.199 212.393,219.422 212.817,220.000 213.000 C 220.621 213.197,220.800 213.605,220.800 214.827 C 220.800 215.968,220.967 216.400,221.409 216.400 C 221.743 216.400,222.222 216.850,222.473 217.400 C 222.723 217.950,223.150 218.400,223.421 218.400 C 224.003 218.400,224.400 219.294,224.400 220.606 C 224.400 221.195,224.699 221.641,225.200 221.800 C 225.791 221.988,226.000 222.405,226.000 223.400 C 226.000 224.383,226.210 224.813,226.780 224.994 C 227.208 225.130,227.670 225.592,227.807 226.021 C 227.943 226.450,228.402 226.987,228.827 227.214 C 229.313 227.475,229.600 228.051,229.600 228.767 C 229.600 229.570,229.836 229.968,230.400 230.116 C 231.036 230.282,231.200 230.662,231.200 231.963 C 231.200 233.330,231.331 233.600,231.995 233.600 C 232.615 233.600,232.848 233.956,233.049 235.215 C 233.204 236.188,233.603 236.988,234.053 237.229 C 234.464 237.448,234.800 237.892,234.800 238.214 C 234.800 238.536,235.160 238.800,235.600 238.800 C 236.267 238.800,236.400 239.067,236.400 240.410 C 236.400 241.759,236.562 242.081,237.400 242.400 C 238.201 242.704,238.400 243.056,238.400 244.163 C 238.400 245.205,238.602 245.610,239.219 245.806 C 239.938 246.034,240.023 246.344,239.919 248.333 L 239.800 250.600 202.000 250.800 L 164.200 251.000 164.098 295.505 L 163.997 340.010 149.298 339.905 L 134.600 339.800 134.498 295.300 L 134.397 250.800 97.598 250.800 L 60.800 250.800 60.800 248.363 C 60.800 246.301,60.918 245.894,61.563 245.726 C 61.983 245.616,62.416 245.183,62.526 244.763 C 62.635 244.343,63.012 244.000,63.363 244.000 C 63.824 244.000,64.000 243.615,64.000 242.603 C 64.000 241.640,64.248 241.052,64.800 240.707 C 65.240 240.432,65.600 239.826,65.600 239.359 C 65.600 238.493,67.609 235.659,68.634 235.080 C 68.945 234.904,69.200 234.364,69.200 233.880 C 69.200 233.396,69.920 232.212,70.800 231.249 C 71.680 230.287,72.400 229.101,72.400 228.614 C 72.400 228.067,73.082 227.134,74.189 226.165 C 75.584 224.944,75.981 224.324,75.989 223.347 C 75.997 222.435,76.218 222.036,76.800 221.884 C 77.288 221.756,77.600 221.338,77.600 220.811 C 77.600 219.614,78.312 218.400,79.014 218.400 C 79.336 218.400,79.600 218.052,79.600 217.627 C 79.600 217.202,79.960 216.740,80.400 216.600 C 80.959 216.423,81.200 215.995,81.200 215.182 C 81.200 214.382,81.513 213.814,82.200 213.363 C 82.750 213.003,83.200 212.442,83.200 212.117 C 83.200 211.791,83.560 211.431,84.000 211.316 C 84.627 211.152,84.800 210.770,84.800 209.553 C 84.800 208.497,84.977 208.000,85.354 208.000 C 85.659 208.000,86.203 207.550,86.563 207.000 C 86.924 206.450,87.484 206.000,87.809 206.000 C 88.230 206.000,88.400 205.548,88.400 204.427 C 88.400 203.205,88.579 202.797,89.200 202.600 C 89.724 202.434,90.000 201.995,90.000 201.329 C 90.000 200.653,90.604 199.717,91.800 198.537 C 92.865 197.487,93.600 196.398,93.600 195.870 C 93.600 195.379,93.968 194.663,94.417 194.278 C 95.997 192.925,94.983 192.800,82.456 192.800 C 73.426 192.800,70.033 192.673,69.680 192.320 C 68.875 191.515,69.084 189.555,70.000 189.316 C 70.624 189.153,70.800 188.770,70.800 187.580 C 70.800 186.405,70.984 185.995,71.600 185.800 C 72.040 185.660,72.400 185.284,72.400 184.963 C 72.400 184.643,72.850 184.209,73.400 184.000 C 74.212 183.691,74.400 183.348,74.400 182.172 C 74.400 181.085,74.590 180.676,75.163 180.526 C 75.583 180.416,76.016 179.983,76.126 179.563 C 76.235 179.143,76.612 178.800,76.963 178.800 C 77.424 178.800,77.600 178.415,77.600 177.409 C 77.600 176.367,77.851 175.854,78.600 175.363 C 79.196 174.973,79.600 174.329,79.600 173.770 C 79.600 173.218,80.244 172.176,81.164 171.237 C 82.024 170.360,82.846 169.101,82.991 168.439 C 83.141 167.758,83.590 167.130,84.028 166.991 C 84.453 166.856,84.800 166.398,84.800 165.973 C 84.800 165.467,85.076 165.200,85.600 165.200 C 86.192 165.200,86.400 164.933,86.400 164.174 C 86.400 162.832,87.077 161.600,87.814 161.600 C 88.136 161.600,88.400 161.240,88.400 160.800 C 88.400 160.267,88.667 160.000,89.200 160.000 C 89.870 160.000,90.000 159.733,90.000 158.363 C 90.000 157.062,90.164 156.682,90.800 156.516 C 91.240 156.401,91.600 156.054,91.600 155.745 C 91.600 155.436,92.050 154.978,92.600 154.727 C 93.338 154.391,93.600 153.962,93.600 153.089 C 93.600 152.235,94.044 151.475,95.200 150.354 C 96.230 149.354,96.800 148.443,96.800 147.797 C 96.800 147.244,97.160 146.484,97.600 146.107 C 98.040 145.730,98.400 145.139,98.400 144.792 C 98.400 144.105,99.291 142.790,100.700 141.398 C 101.195 140.909,101.600 140.247,101.600 139.927 C 101.600 139.124,104.054 136.000,104.686 136.000 C 105.018 136.000,105.200 135.442,105.200 134.427 C 105.200 133.231,105.383 132.796,105.963 132.612 C 106.383 132.479,106.827 132.106,106.950 131.785 C 107.142 131.285,106.106 131.200,99.802 131.200 C 91.202 131.200,91.486 131.351,91.682 126.892 C 91.785 124.543,91.915 124.150,92.700 123.805 C 93.195 123.588,93.600 123.189,93.600 122.919 C 93.600 122.649,93.960 122.235,94.400 122.000 C 94.856 121.756,95.200 121.162,95.200 120.619 C 95.200 119.251,95.600 118.400,96.243 118.400 C 96.565 118.400,96.800 117.993,96.800 117.434 C 96.800 116.866,97.455 115.754,98.389 114.734 C 99.449 113.578,99.982 112.621,99.989 111.863 C 99.997 111.067,100.240 110.662,100.800 110.516 C 101.240 110.401,101.600 110.078,101.600 109.799 C 101.600 109.520,102.050 108.997,102.600 108.637 C 103.349 108.146,103.600 107.633,103.600 106.591 C 103.600 105.467,103.753 105.200,104.400 105.200 C 105.006 105.200,105.200 104.933,105.200 104.100 C 105.201 103.495,105.651 102.477,106.200 101.838 C 106.750 101.199,107.200 100.545,107.200 100.384 C 107.200 100.224,107.560 99.999,108.000 99.884 C 108.618 99.723,108.800 99.338,108.800 98.200 C 108.800 97.085,108.986 96.676,109.563 96.526 C 109.983 96.416,110.419 95.969,110.533 95.533 C 110.647 95.097,111.114 94.643,111.570 94.524 C 112.225 94.353,112.400 93.988,112.400 92.800 C 112.400 91.630,112.579 91.247,113.200 91.084 C 113.741 90.943,114.000 90.538,114.000 89.835 C 114.000 89.132,114.583 88.220,115.800 87.021 C 117.123 85.716,117.600 84.935,117.600 84.070 C 117.600 83.230,117.829 82.833,118.400 82.684 C 118.840 82.569,119.200 82.209,119.200 81.884 C 119.200 81.559,119.560 81.199,120.000 81.084 C 120.532 80.945,120.800 80.538,120.800 79.870 C 120.800 78.342,121.206 77.600,122.043 77.600 C 122.639 77.600,122.800 77.307,122.800 76.223 C 122.800 75.350,123.066 74.654,123.526 74.323 C 123.926 74.035,124.370 73.485,124.514 73.100 C 124.657 72.715,125.051 72.400,125.387 72.400 C 125.778 72.400,126.000 72.029,126.000 71.374 C 126.000 70.032,126.677 68.800,127.414 68.800 C 127.817 68.800,128.000 68.363,128.000 67.403 C 128.000 66.440,128.248 65.852,128.800 65.507 C 129.240 65.232,129.600 64.787,129.600 64.518 C 129.600 64.249,129.960 63.835,130.400 63.600 C 130.923 63.320,131.200 62.762,131.200 61.989 C 131.200 61.240,131.493 60.624,132.000 60.307 C 132.440 60.032,132.801 59.446,132.802 59.004 C 132.803 58.562,133.613 57.308,134.602 56.217 C 135.790 54.906,136.400 53.871,136.400 53.163 C 136.400 52.430,136.651 52.028,137.200 51.884 C 137.741 51.743,138.000 51.338,138.000 50.637 C 138.000 50.067,138.360 49.240,138.800 48.800 C 139.240 48.360,139.600 47.816,139.600 47.590 C 139.600 47.365,140.050 47.009,140.600 46.800 C 141.150 46.591,141.600 46.157,141.600 45.837 C 141.600 45.516,141.960 45.140,142.400 45.000 C 142.926 44.833,143.200 44.395,143.200 43.720 C 143.200 42.301,145.857 39.601,147.253 39.600 C 147.970 39.600,148.374 39.344,148.516 38.800 C 148.800 37.715,156.256 37.560,156.667 38.631 M344.577 261.434 C 345.135 261.992,345.198 263.740,345.105 276.134 L 345.000 290.200 315.703 290.303 L 286.406 290.405 286.303 315.103 L 286.200 339.800 265.600 339.800 L 245.000 339.800 244.897 315.103 L 244.794 290.405 215.697 290.303 L 186.600 290.200 186.495 276.047 C 186.420 265.935,186.519 261.738,186.844 261.347 C 187.586 260.453,343.681 260.538,344.577 261.434 "
       stroke="none"
       fill="#44141c"
       fill-rule="evenodd" />
    <path
       id="path2"
       d="M148.516 38.800 C 148.371 39.353,147.970 39.600,147.215 39.600 C 146.183 39.600,144.800 40.642,144.800 41.420 C 144.800 41.617,145.080 41.378,145.423 40.889 C 145.834 40.302,146.458 40.000,147.260 40.000 C 148.151 40.000,148.532 39.780,148.691 39.175 C 148.893 38.400,149.149 38.357,152.816 38.475 C 154.967 38.544,156.642 38.465,156.539 38.300 C 156.054 37.519,148.731 37.976,148.516 38.800 M157.023 39.637 C 157.146 39.837,157.486 40.000,157.777 40.000 C 158.068 40.000,158.401 40.360,158.516 40.800 C 158.631 41.240,158.967 41.597,159.263 41.594 C 159.615 41.590,159.652 41.486,159.371 41.294 C 159.135 41.132,158.835 40.710,158.705 40.356 C 158.574 40.001,158.092 39.613,157.633 39.493 C 157.174 39.373,156.900 39.438,157.023 39.637 M143.680 42.080 C 143.416 42.344,143.200 43.049,143.200 43.647 C 143.200 44.244,143.016 44.825,142.790 44.937 C 142.565 45.048,142.609 45.095,142.890 45.039 C 143.171 44.984,143.461 44.412,143.535 43.769 C 143.610 43.126,143.857 42.375,144.084 42.100 C 144.612 41.462,144.313 41.447,143.680 42.080 M161.500 43.465 C 161.775 43.576,162.000 43.856,162.000 44.087 C 162.000 44.319,162.450 44.925,163.000 45.435 C 163.550 45.945,164.000 46.201,164.000 46.004 C 164.000 45.807,163.673 45.410,163.274 45.123 C 162.874 44.835,162.430 44.285,162.286 43.900 C 162.143 43.515,161.794 43.214,161.513 43.232 C 161.111 43.256,161.108 43.307,161.500 43.465 M139.712 47.500 C 139.568 47.885,139.204 48.385,138.903 48.611 C 138.254 49.098,137.517 52.000,138.042 52.000 C 138.239 52.000,138.400 51.458,138.400 50.796 C 138.400 50.087,138.729 49.311,139.200 48.907 C 139.640 48.530,140.000 48.007,140.000 47.744 C 140.000 47.482,140.225 47.176,140.500 47.065 C 140.892 46.907,140.889 46.856,140.487 46.832 C 140.206 46.814,139.857 47.115,139.712 47.500 M167.168 51.900 C 167.359 53.281,167.387 53.309,167.519 52.251 C 167.598 51.619,167.505 50.945,167.312 50.752 C 167.110 50.550,167.049 51.040,167.168 51.900 M136.400 53.117 C 136.400 53.879,135.830 54.862,134.602 56.217 C 133.613 57.308,132.803 58.562,132.802 59.004 C 132.801 59.446,132.440 60.032,132.000 60.307 C 131.493 60.624,131.200 61.240,131.200 61.989 C 131.200 62.762,130.923 63.320,130.400 63.600 C 129.960 63.835,129.600 64.249,129.600 64.518 C 129.600 64.787,129.240 65.232,128.800 65.507 C 128.360 65.782,128.000 66.208,128.000 66.453 C 128.000 66.699,128.810 66.055,129.800 65.022 C 130.855 63.921,131.600 62.766,131.600 62.233 C 131.600 61.733,131.960 60.998,132.400 60.600 C 132.840 60.202,133.200 59.544,133.200 59.138 C 133.200 58.732,133.529 58.071,133.931 57.669 C 134.332 57.268,134.777 56.638,134.918 56.269 C 135.059 55.901,135.447 55.600,135.780 55.600 C 136.324 55.600,136.493 55.193,136.987 52.700 C 137.063 52.315,136.962 52.000,136.763 52.000 C 136.563 52.000,136.400 52.503,136.400 53.117 M169.200 56.813 C 169.200 57.026,169.464 57.200,169.786 57.200 C 170.108 57.200,170.584 57.605,170.844 58.100 C 171.104 58.595,171.561 59.144,171.858 59.320 C 172.156 59.496,172.425 60.126,172.454 60.720 C 172.501 61.648,172.533 61.675,172.681 60.910 C 172.794 60.326,172.414 59.473,171.579 58.434 C 170.299 56.841,169.200 56.092,169.200 56.813 M175.314 66.100 C 175.801 66.595,176.270 66.836,176.355 66.635 C 176.440 66.434,176.181 66.029,175.779 65.735 C 174.623 64.890,174.341 65.111,175.314 66.100 M177.190 67.463 C 177.416 67.575,177.600 68.271,177.600 69.010 C 177.600 69.748,177.746 70.443,177.924 70.553 C 178.102 70.663,178.147 70.013,178.024 69.109 C 177.901 68.205,177.571 67.419,177.290 67.363 C 177.010 67.306,176.965 67.352,177.190 67.463 M126.093 71.200 C 126.093 71.970,126.175 72.285,126.276 71.900 C 126.376 71.515,126.376 70.885,126.276 70.500 C 126.175 70.115,126.093 70.430,126.093 71.200 M179.036 71.300 C 179.192 71.575,179.673 72.193,180.105 72.674 C 180.537 73.154,181.032 74.144,181.204 74.874 L 181.518 76.200 181.559 74.970 C 181.587 74.138,181.276 73.435,180.600 72.800 C 180.050 72.283,179.600 71.622,179.600 71.330 C 179.600 71.039,179.409 70.800,179.176 70.800 C 178.943 70.800,178.880 71.025,179.036 71.300 M124.514 73.100 C 124.370 73.485,123.926 74.035,123.526 74.323 C 123.127 74.610,122.800 75.007,122.800 75.204 C 122.800 75.726,124.614 73.924,124.917 73.100 C 125.059 72.715,125.085 72.400,124.975 72.400 C 124.865 72.400,124.657 72.715,124.514 73.100 M182.737 77.512 C 182.890 78.819,185.200 81.959,185.200 80.859 C 185.200 80.354,184.067 79.200,183.571 79.200 C 183.367 79.200,183.200 78.581,183.200 77.824 C 183.200 77.067,183.058 76.359,182.884 76.252 C 182.710 76.144,182.644 76.711,182.737 77.512 M120.724 79.800 C 120.634 80.570,120.704 81.200,120.880 81.200 C 121.056 81.200,121.200 80.570,121.200 79.800 C 121.200 79.030,121.130 78.400,121.044 78.400 C 120.958 78.400,120.814 79.030,120.724 79.800 M119.200 81.771 C 119.200 82.158,118.840 82.569,118.400 82.684 C 117.960 82.799,117.600 83.059,117.600 83.261 C 117.600 83.798,119.206 82.851,119.472 82.157 C 119.597 81.831,119.587 81.453,119.449 81.316 C 119.312 81.179,119.200 81.384,119.200 81.771 M185.930 82.649 C 186.036 83.558,186.424 84.260,187.046 84.667 C 187.682 85.084,188.000 85.672,188.000 86.432 C 188.000 87.207,188.288 87.723,188.900 88.044 C 189.773 88.502,189.779 88.493,189.100 87.727 C 188.715 87.292,188.400 86.574,188.400 86.130 C 188.400 85.687,188.050 85.007,187.623 84.621 C 187.195 84.234,186.731 83.398,186.592 82.763 C 186.225 81.094,185.738 81.010,185.930 82.649 M115.584 87.216 C 114.574 88.246,114.000 89.203,114.000 89.854 C 114.000 90.538,113.736 90.944,113.200 91.084 C 112.760 91.199,112.400 91.447,112.400 91.634 C 112.400 92.066,113.703 91.601,114.094 91.029 C 114.256 90.793,114.391 90.275,114.394 89.879 C 114.401 88.989,116.416 86.400,117.100 86.400 C 117.375 86.400,117.600 86.220,117.600 86.000 C 117.600 85.317,117.223 85.545,115.584 87.216 M189.600 89.105 C 189.600 89.326,189.960 89.601,190.400 89.716 C 191.014 89.877,191.200 90.262,191.200 91.375 C 191.200 92.391,191.410 92.902,191.900 93.083 C 192.285 93.225,192.732 93.535,192.894 93.771 C 193.086 94.052,193.190 94.015,193.194 93.663 C 193.197 93.367,192.850 93.034,192.422 92.922 C 191.870 92.777,191.608 92.307,191.522 91.305 C 191.412 90.031,189.600 87.956,189.600 89.105 M110.811 94.987 C 110.543 95.309,110.417 95.804,110.531 96.087 C 110.658 96.404,110.749 96.328,110.768 95.887 C 110.786 95.495,111.205 95.011,111.700 94.812 C 112.309 94.568,112.390 94.443,111.949 94.425 C 111.591 94.411,111.079 94.664,110.811 94.987 M194.860 96.937 C 194.817 97.758,195.017 98.132,195.579 98.279 C 196.158 98.430,196.397 98.909,196.509 100.141 L 196.660 101.800 196.730 100.063 C 196.787 98.645,196.657 98.288,196.023 98.122 C 195.564 98.002,195.179 97.484,195.083 96.859 L 194.920 95.800 194.860 96.937 M109.017 96.900 C 108.664 98.019,108.567 99.944,108.872 99.755 C 109.053 99.644,109.200 98.948,109.200 98.210 C 109.200 97.471,109.425 96.776,109.700 96.665 C 110.092 96.507,110.089 96.456,109.687 96.432 C 109.406 96.414,109.104 96.625,109.017 96.900 M107.200 100.371 C 107.200 100.576,106.917 101.026,106.571 101.371 C 106.226 101.717,106.115 102.000,106.325 102.000 C 106.536 102.000,107.003 101.550,107.363 101.000 C 107.724 100.450,107.834 100.000,107.609 100.000 C 107.384 100.000,107.200 100.167,107.200 100.371 M105.356 102.971 C 105.235 103.285,105.204 103.960,105.286 104.471 C 105.395 105.154,105.488 105.004,105.637 103.900 C 105.847 102.347,105.736 101.981,105.356 102.971 M200.161 105.254 C 200.193 106.602,200.373 106.976,201.120 107.251 C 201.707 107.467,201.952 107.446,201.797 107.195 C 201.663 106.978,201.304 106.800,200.999 106.800 C 200.647 106.800,200.387 106.217,200.284 105.197 L 200.122 103.594 200.161 105.254 M103.600 106.520 C 103.600 107.246,103.375 108.079,103.100 108.370 C 102.696 108.798,102.716 108.865,103.200 108.717 C 103.828 108.526,104.516 105.200,103.927 105.200 C 103.747 105.200,103.600 105.794,103.600 106.520 M100.267 110.667 C 100.120 110.813,100.000 111.412,100.000 111.997 C 100.000 112.614,99.580 113.455,99.000 114.000 C 98.450 114.517,98.000 115.102,98.000 115.300 C 98.000 116.319,100.295 113.205,100.506 111.899 C 100.756 110.359,100.727 110.207,100.267 110.667 M203.606 111.537 C 203.603 111.833,203.960 112.169,204.400 112.284 C 204.965 112.432,205.200 112.830,205.200 113.640 C 205.200 114.453,205.722 115.331,207.000 116.665 C 208.061 117.771,208.800 118.919,208.800 119.457 C 208.800 119.962,209.158 120.564,209.600 120.800 C 210.083 121.058,210.400 121.638,210.400 122.261 C 210.400 122.943,210.951 123.828,212.021 124.867 C 213.521 126.323,213.633 126.580,213.521 128.320 L 213.400 130.200 205.900 130.309 C 201.354 130.375,198.400 130.572,198.400 130.809 C 198.400 131.622,212.987 131.298,213.738 130.469 C 214.814 129.280,214.618 126.561,213.400 125.763 C 212.850 125.403,212.400 124.871,212.400 124.581 C 212.400 124.291,212.040 123.940,211.600 123.800 C 210.999 123.609,210.800 123.195,210.800 122.136 C 210.800 121.062,210.609 120.675,210.000 120.516 C 209.482 120.381,209.200 119.970,209.200 119.353 C 209.200 118.829,208.854 118.054,208.430 117.630 C 208.007 117.207,207.461 116.487,207.216 116.030 C 206.972 115.574,206.508 115.200,206.186 115.200 C 205.782 115.200,205.600 114.761,205.600 113.787 C 205.600 112.807,205.386 112.296,204.900 112.117 C 204.515 111.975,204.068 111.665,203.906 111.429 C 203.714 111.148,203.610 111.185,203.606 111.537 M96.854 117.300 C 96.822 117.947,96.571 118.400,96.243 118.400 C 95.600 118.400,95.200 119.251,95.200 120.619 C 95.200 121.162,94.856 121.756,94.400 122.000 C 93.960 122.235,93.600 122.601,93.600 122.811 C 93.600 123.022,94.050 122.803,94.600 122.325 C 95.205 121.799,95.600 121.029,95.600 120.377 C 95.600 119.724,95.932 119.077,96.440 118.740 C 97.032 118.347,97.225 117.890,97.094 117.191 C 96.914 116.227,96.907 116.230,96.854 117.300 M92.030 124.164 C 91.739 124.515,91.615 125.762,91.703 127.464 L 91.843 130.200 91.922 127.287 C 91.992 124.677,92.094 124.337,92.900 124.012 C 93.509 123.768,93.590 123.643,93.149 123.625 C 92.791 123.611,92.287 123.854,92.030 124.164 M92.195 130.791 C 92.352 131.046,95.228 131.200,99.811 131.200 C 106.107 131.200,107.142 131.285,106.950 131.785 C 106.827 132.106,106.383 132.479,105.963 132.612 C 105.357 132.804,105.213 133.199,105.264 134.527 C 105.325 136.127,105.335 136.140,105.496 134.817 C 105.592 134.017,106.085 133.042,106.662 132.508 C 108.525 130.781,107.923 130.608,99.638 130.491 C 94.473 130.418,92.025 130.517,92.195 130.791 M199.939 136.083 C 200.049 137.231,200.305 137.755,200.824 137.890 C 201.287 138.011,201.614 138.544,201.714 139.341 L 201.872 140.600 201.936 139.263 C 201.985 138.231,201.817 137.877,201.200 137.716 C 200.602 137.560,200.400 137.170,200.400 136.177 C 200.400 135.446,200.262 134.762,200.093 134.657 C 199.924 134.553,199.855 135.195,199.939 136.083 M102.886 137.673 C 102.179 138.593,101.600 139.607,101.600 139.927 C 101.600 140.247,101.150 140.925,100.600 141.435 C 100.050 141.945,99.600 142.573,99.600 142.831 C 99.600 143.089,100.230 142.613,101.000 141.772 C 101.770 140.931,102.400 139.835,102.400 139.336 C 102.400 138.837,102.760 138.235,103.200 138.000 C 103.640 137.765,104.000 137.323,104.000 137.019 C 104.000 136.715,104.225 136.376,104.500 136.265 C 104.775 136.154,104.814 136.049,104.586 136.032 C 104.358 136.014,103.593 136.753,102.886 137.673 M98.563 144.253 C 98.411 144.884,97.953 145.722,97.544 146.116 C 97.135 146.509,96.800 147.274,96.800 147.816 C 96.800 148.448,96.190 149.396,95.100 150.461 C 94.165 151.374,93.801 151.910,94.291 151.652 C 94.781 151.393,95.372 150.826,95.605 150.391 C 95.838 149.956,96.292 149.600,96.614 149.600 C 97.016 149.600,97.200 149.165,97.200 148.214 C 97.200 147.266,97.438 146.701,97.953 146.425 C 98.367 146.204,98.796 145.432,98.906 144.711 C 99.159 143.048,98.927 142.738,98.563 144.253 M205.228 145.725 C 206.118 146.651,206.800 147.756,206.800 148.271 C 206.800 148.801,207.218 149.456,207.800 149.837 C 208.479 150.282,208.800 150.857,208.800 151.632 C 208.800 152.362,209.087 152.926,209.600 153.200 C 210.170 153.505,210.400 154.038,210.400 155.052 C 210.400 156.138,210.589 156.524,211.200 156.684 C 211.827 156.848,212.000 157.230,212.000 158.447 C 212.000 159.301,212.140 160.000,212.311 160.000 C 213.022 160.000,212.307 156.701,211.553 156.504 C 211.003 156.360,210.800 155.942,210.800 154.957 C 210.800 154.040,210.543 153.446,210.000 153.107 C 209.549 152.826,209.197 152.169,209.194 151.604 C 209.187 150.400,208.838 149.830,207.900 149.483 C 207.452 149.318,207.200 148.804,207.200 148.055 C 207.200 147.379,206.944 146.787,206.594 146.653 C 206.261 146.525,205.825 145.990,205.625 145.465 C 205.425 144.939,204.900 144.415,204.459 144.300 C 203.867 144.145,204.069 144.519,205.228 145.725 M91.726 155.563 C 91.616 155.983,91.183 156.416,90.763 156.526 C 90.163 156.683,90.014 157.053,90.067 158.263 L 90.134 159.800 90.289 158.341 C 90.393 157.358,90.678 156.821,91.161 156.694 C 91.784 156.531,92.665 154.800,92.125 154.800 C 92.015 154.800,91.835 155.143,91.726 155.563 M213.660 161.668 C 214.183 163.996,214.482 164.156,214.328 162.025 C 214.257 161.056,213.992 160.194,213.738 160.110 C 213.397 159.998,213.377 160.408,213.660 161.668 M86.493 164.000 C 86.493 164.770,86.575 165.085,86.676 164.700 C 86.776 164.315,86.776 163.685,86.676 163.300 C 86.575 162.915,86.493 163.230,86.493 164.000 M216.894 166.497 C 217.129 167.214,217.388 168.051,217.470 168.357 C 217.552 168.664,217.700 168.834,217.799 168.735 C 218.060 168.473,217.233 165.668,216.819 165.412 C 216.626 165.292,216.660 165.781,216.894 166.497 M82.800 168.984 C 82.800 169.305,82.080 170.302,81.200 171.200 C 80.320 172.098,79.600 173.005,79.600 173.216 C 79.600 173.714,81.009 172.304,81.584 171.230 C 81.828 170.774,82.292 170.400,82.614 170.400 C 82.972 170.400,83.200 170.012,83.200 169.400 C 83.200 168.850,83.110 168.400,83.000 168.400 C 82.890 168.400,82.800 168.663,82.800 168.984 M218.854 170.486 C 218.819 171.189,219.073 171.718,219.575 171.986 C 220.031 172.230,220.401 172.917,220.475 173.655 C 220.558 174.486,220.938 175.109,221.600 175.500 L 222.600 176.090 221.700 175.281 C 221.205 174.836,220.800 174.034,220.800 173.498 C 220.800 172.962,220.450 172.207,220.022 171.820 C 219.595 171.433,219.169 170.730,219.077 170.258 C 218.941 169.564,218.899 169.607,218.854 170.486 M78.489 175.423 C 77.815 175.895,77.616 176.402,77.667 177.523 L 77.734 179.000 77.894 177.456 C 78.009 176.346,78.271 175.854,78.827 175.709 C 79.252 175.598,79.600 175.348,79.600 175.153 C 79.600 174.680,79.522 174.699,78.489 175.423 M223.100 178.812 C 223.801 179.094,224.000 179.494,224.000 180.625 C 224.000 181.738,224.186 182.123,224.800 182.284 C 225.240 182.399,225.600 182.732,225.600 183.023 C 225.600 183.314,225.763 183.654,225.963 183.777 C 226.162 183.900,226.225 183.617,226.102 183.147 C 225.979 182.678,225.546 182.206,225.139 182.100 C 224.616 181.963,224.400 181.536,224.400 180.633 C 224.400 179.242,223.788 178.386,222.820 178.425 C 222.440 178.441,222.548 178.591,223.100 178.812 M74.617 180.900 C 74.264 182.019,74.167 183.944,74.472 183.755 C 74.653 183.644,74.800 182.948,74.800 182.210 C 74.800 181.471,75.025 180.776,75.300 180.665 C 75.692 180.507,75.689 180.456,75.287 180.432 C 75.006 180.414,74.704 180.625,74.617 180.900 M72.519 184.787 C 72.406 185.219,71.973 185.682,71.557 185.814 C 70.957 186.004,70.814 186.402,70.867 187.727 L 70.934 189.400 71.093 187.878 C 71.180 187.040,71.499 186.260,71.801 186.144 C 72.560 185.853,73.744 184.000,73.172 184.000 C 72.926 184.000,72.633 184.354,72.519 184.787 M228.331 187.837 C 229.094 188.371,229.221 188.776,229.120 190.337 L 229.000 192.200 218.200 192.400 C 212.260 192.510,207.715 192.729,208.100 192.887 C 208.552 193.073,208.800 193.610,208.800 194.403 C 208.800 195.291,209.242 196.091,210.400 197.296 C 211.316 198.249,212.000 199.353,212.000 199.877 C 212.000 200.381,212.360 201.018,212.800 201.293 C 213.264 201.583,213.600 202.226,213.600 202.824 C 213.600 203.426,214.017 204.218,214.600 204.725 C 215.252 205.292,215.600 206.013,215.600 206.797 C 215.600 207.459,215.744 208.000,215.920 208.000 C 216.557 208.000,215.898 205.143,215.153 204.678 C 214.731 204.414,214.400 203.753,214.400 203.174 C 214.400 202.588,213.967 201.732,213.400 201.200 C 212.850 200.683,212.400 199.836,212.400 199.318 C 212.400 198.799,212.116 198.266,211.769 198.133 C 211.423 198.000,210.977 197.465,210.779 196.945 C 210.582 196.425,210.145 196.000,209.810 196.000 C 209.365 196.000,209.200 195.567,209.200 194.400 L 209.200 192.800 218.920 192.800 C 225.947 192.800,228.773 192.667,229.120 192.320 C 230.310 191.130,229.360 187.200,227.882 187.200 C 227.629 187.200,227.831 187.487,228.331 187.837 M69.467 189.467 C 68.999 189.934,69.180 191.886,69.734 192.345 C 70.093 192.643,74.324 192.823,82.634 192.894 C 94.739 192.998,94.998 193.017,94.892 193.800 C 94.803 194.463,94.883 194.428,95.360 193.600 L 95.936 192.600 82.868 192.400 L 69.800 192.200 69.800 190.700 C 69.800 189.875,69.785 189.200,69.767 189.200 C 69.748 189.200,69.613 189.320,69.467 189.467 M91.500 198.796 C 90.610 199.741,90.000 200.788,90.000 201.368 C 90.000 201.995,89.713 202.437,89.200 202.600 C 88.760 202.740,88.400 203.044,88.400 203.276 C 88.400 204.159,90.205 202.466,90.325 201.470 C 90.456 200.383,92.403 198.000,93.160 198.000 C 93.402 198.000,93.600 197.820,93.600 197.600 C 93.600 196.857,93.006 197.195,91.500 198.796 M86.911 206.500 C 86.148 207.487,85.946 208.182,86.665 207.348 C 87.069 206.880,87.670 206.399,88.000 206.280 C 88.501 206.099,88.492 206.058,87.949 206.032 C 87.591 206.014,87.124 206.225,86.911 206.500 M216.800 208.341 C 216.800 208.846,217.933 210.000,218.429 210.000 C 218.633 210.000,218.800 210.720,218.800 211.600 C 218.800 212.869,218.945 213.193,219.500 213.168 C 219.918 213.150,219.999 213.056,219.700 212.935 C 219.425 212.824,219.200 212.194,219.200 211.536 C 219.200 210.739,218.799 209.937,218.000 209.138 C 217.340 208.478,216.800 208.119,216.800 208.341 M81.680 213.680 C 81.416 213.944,81.200 214.649,81.200 215.247 C 81.200 215.844,81.016 216.425,80.790 216.537 C 80.565 216.649,80.609 216.695,80.890 216.639 C 81.171 216.584,81.461 216.012,81.535 215.369 C 81.610 214.726,81.857 213.975,82.084 213.700 C 82.612 213.062,82.313 213.047,81.680 213.680 M220.501 214.600 C 220.505 215.480,220.587 215.793,220.683 215.295 C 220.779 214.798,220.775 214.078,220.675 213.695 C 220.575 213.313,220.496 213.720,220.501 214.600 M78.171 218.847 C 77.668 219.660,77.276 222.000,77.642 222.000 C 77.839 222.000,78.000 221.538,78.000 220.974 C 78.000 220.409,78.186 219.599,78.414 219.174 C 78.851 218.358,78.644 218.081,78.171 218.847 M223.516 218.900 C 223.743 219.175,223.990 219.926,224.065 220.569 C 224.139 221.212,224.430 221.784,224.710 221.839 C 224.990 221.895,225.036 221.849,224.810 221.737 C 224.584 221.625,224.400 221.113,224.400 220.599 C 224.400 219.361,224.010 218.400,223.508 218.400 C 223.237 218.400,223.240 218.566,223.516 218.900 M75.989 223.300 C 75.980 224.333,75.611 224.922,74.189 226.165 C 73.082 227.134,72.400 228.067,72.400 228.614 C 72.400 229.101,71.680 230.287,70.800 231.249 C 69.920 232.212,69.200 233.396,69.200 233.880 C 69.200 234.364,68.945 234.904,68.634 235.080 C 67.609 235.659,65.600 238.493,65.600 239.359 C 65.600 239.826,65.240 240.432,64.800 240.707 C 64.206 241.078,64.017 241.593,64.067 242.703 L 64.134 244.200 64.291 242.701 C 64.392 241.739,64.726 241.054,65.224 240.787 C 65.671 240.548,66.000 239.952,66.000 239.383 C 66.000 238.827,66.438 238.014,67.000 237.525 C 67.550 237.047,68.000 236.439,68.000 236.175 C 68.000 235.910,68.360 235.599,68.800 235.484 C 69.359 235.338,69.604 234.932,69.613 234.137 C 69.622 233.356,70.124 232.502,71.213 231.411 C 72.193 230.429,72.800 229.449,72.800 228.847 C 72.800 228.212,73.410 227.304,74.553 226.236 C 76.169 224.728,77.314 222.000,76.331 222.000 C 76.149 222.000,75.995 222.585,75.989 223.300 M229.125 228.609 C 229.274 229.887,231.200 231.894,231.200 230.772 C 231.200 230.526,230.840 230.231,230.400 230.116 C 229.838 229.969,229.600 229.570,229.600 228.777 C 229.600 228.156,229.458 227.559,229.284 227.452 C 229.110 227.344,229.038 227.865,229.125 228.609 M232.800 236.000 C 232.800 236.660,232.949 237.200,233.131 237.200 C 233.313 237.200,233.382 236.660,233.285 236.000 C 233.188 235.340,233.040 234.800,232.955 234.800 C 232.870 234.800,232.800 235.340,232.800 236.000 M237.976 244.091 C 238.099 244.995,238.430 245.781,238.710 245.837 C 238.990 245.894,239.036 245.849,238.810 245.737 C 238.584 245.625,238.400 244.929,238.400 244.190 C 238.400 243.452,238.254 242.757,238.076 242.647 C 237.898 242.537,237.853 243.187,237.976 244.091 M62.516 244.800 C 62.401 245.240,62.068 245.600,61.777 245.600 C 61.486 245.600,61.137 245.778,61.003 245.995 C 60.849 246.244,61.085 246.269,61.646 246.061 C 62.423 245.774,63.544 244.000,62.950 244.000 C 62.826 244.000,62.631 244.360,62.516 244.800 M239.672 248.067 C 239.628 249.446,239.404 250.412,239.100 250.535 C 238.708 250.693,238.711 250.744,239.113 250.768 C 239.850 250.814,240.069 249.970,239.896 247.749 L 239.744 245.800 239.672 248.067 M134.595 295.167 C 134.599 332.843,134.686 339.762,135.156 339.919 C 135.548 340.049,135.607 339.941,135.356 339.552 C 135.157 339.243,134.910 319.514,134.795 294.800 L 134.590 250.600 134.595 295.167 M186.880 261.280 C 186.337 261.823,186.163 289.806,186.700 290.138 C 186.865 290.240,187.000 283.816,187.000 275.862 L 187.000 261.400 265.400 261.297 C 338.755 261.201,343.832 261.238,344.300 261.874 C 344.966 262.778,345.022 288.437,344.361 289.673 C 344.015 290.320,344.036 290.455,344.461 290.313 C 345.342 290.020,345.453 262.310,344.577 261.434 C 343.741 260.598,187.714 260.446,186.880 261.280 M244.892 314.876 C 244.841 328.448,244.935 339.636,245.100 339.738 C 245.372 339.907,245.368 321.751,245.091 299.000 C 245.032 294.160,244.943 301.304,244.892 314.876 M286.000 315.080 C 285.890 328.764,285.936 339.824,286.103 339.657 C 286.270 339.490,286.360 328.294,286.303 314.777 L 286.200 290.200 286.000 315.080 "
       stroke="none"
       fill="#8c7274"
       fill-rule="evenodd" />
    <path
       id="path3"
       d="M147.400 40.000 L 146.200 40.305 147.276 40.353 C 147.868 40.379,148.464 40.220,148.600 40.000 C 148.736 39.780,148.792 39.621,148.724 39.647 C 148.656 39.673,148.060 39.832,147.400 40.000 M143.552 43.913 C 143.421 44.707,143.479 45.081,143.701 44.859 C 143.903 44.657,144.001 44.067,143.919 43.546 C 143.793 42.745,143.737 42.802,143.552 43.913 M138.649 49.415 C 138.512 49.773,138.421 50.546,138.446 51.133 C 138.480 51.932,138.570 51.798,138.804 50.600 C 139.135 48.900,139.062 48.340,138.649 49.415 M136.860 53.267 C 136.827 53.854,136.696 54.664,136.570 55.067 C 136.352 55.760,136.365 55.761,136.795 55.090 C 137.046 54.699,137.177 53.889,137.086 53.290 L 136.920 52.200 136.860 53.267 M131.867 61.067 C 131.720 61.213,131.600 61.821,131.600 62.418 C 131.600 63.074,131.245 63.771,130.700 64.183 C 129.804 64.861,129.804 64.862,130.800 64.283 C 131.470 63.895,131.878 63.224,132.037 62.251 C 132.289 60.707,132.281 60.652,131.867 61.067 M177.126 69.014 C 177.213 69.761,177.580 70.595,177.942 70.867 C 178.496 71.283,178.521 71.273,178.100 70.801 C 177.825 70.492,177.600 69.747,177.600 69.144 C 177.600 68.541,177.458 67.959,177.284 67.852 C 177.110 67.744,177.039 68.267,177.126 69.014 M126.380 71.090 C 126.271 72.019,126.333 72.627,126.520 72.440 C 126.706 72.254,126.796 71.494,126.719 70.751 C 126.583 69.433,126.575 69.442,126.380 71.090 M182.400 78.000 C 182.400 78.880,182.540 79.600,182.711 79.600 C 182.881 79.600,182.952 78.880,182.869 78.000 C 182.785 77.120,182.645 76.400,182.558 76.400 C 182.471 76.400,182.400 77.120,182.400 78.000 M121.301 79.400 C 121.305 80.280,121.387 80.593,121.483 80.095 C 121.579 79.598,121.575 78.878,121.475 78.495 C 121.375 78.113,121.296 78.520,121.301 79.400 M117.660 84.900 C 117.620 85.912,117.412 86.400,117.024 86.400 C 116.707 86.400,116.346 86.563,116.223 86.763 C 116.100 86.962,116.374 87.027,116.833 86.907 C 117.843 86.643,118.115 86.034,117.890 84.534 C 117.747 83.580,117.710 83.639,117.660 84.900 M112.460 93.457 C 112.427 94.149,112.142 94.813,111.826 94.935 C 111.511 95.056,111.031 95.568,110.760 96.074 C 110.384 96.778,110.571 96.691,111.561 95.700 C 112.546 94.716,112.814 94.144,112.687 93.304 C 112.526 92.237,112.518 92.243,112.460 93.457 M194.328 96.632 C 194.416 97.388,194.611 98.083,194.761 98.176 C 194.910 98.268,194.961 97.725,194.872 96.968 C 194.784 96.212,194.589 95.517,194.439 95.424 C 194.290 95.332,194.239 95.875,194.328 96.632 M109.200 98.151 C 109.200 98.964,108.920 99.721,108.499 100.051 C 107.863 100.549,107.872 100.558,108.599 100.151 C 109.396 99.705,110.210 96.800,109.537 96.800 C 109.352 96.800,109.200 97.408,109.200 98.151 M199.693 105.200 C 199.693 105.970,199.775 106.285,199.876 105.900 C 199.976 105.515,199.976 104.885,199.876 104.500 C 199.775 104.115,199.693 104.430,199.693 105.200 M104.217 105.700 C 103.864 106.819,103.767 108.744,104.072 108.555 C 104.253 108.444,104.400 107.748,104.400 107.010 C 104.400 106.271,104.625 105.576,104.900 105.465 C 105.292 105.307,105.289 105.256,104.887 105.232 C 104.606 105.214,104.304 105.425,104.217 105.700 M203.200 110.976 C 203.200 111.513,203.347 112.044,203.528 112.155 C 203.708 112.267,203.777 111.827,203.682 111.179 C 203.472 109.749,203.200 109.635,203.200 110.976 M204.715 113.600 C 204.812 114.260,204.960 114.800,205.045 114.800 C 205.130 114.800,205.200 114.260,205.200 113.600 C 205.200 112.940,205.051 112.400,204.869 112.400 C 204.687 112.400,204.618 112.940,204.715 113.600 M208.446 119.438 C 208.421 119.899,208.760 120.602,209.200 121.000 C 209.640 121.398,210.000 122.075,210.000 122.504 C 210.000 122.933,210.450 123.819,211.000 124.473 C 211.550 125.127,212.000 125.495,212.000 125.293 C 212.000 125.090,211.640 124.598,211.200 124.200 C 210.760 123.802,210.400 123.061,210.400 122.554 C 210.400 122.046,210.059 121.309,209.643 120.916 C 209.227 120.522,208.798 119.840,208.690 119.400 C 208.500 118.630,208.491 118.632,208.446 119.438 M93.600 123.553 C 93.600 123.748,93.240 124.001,92.800 124.116 C 92.360 124.231,92.003 124.567,92.006 124.863 C 92.010 125.215,92.114 125.252,92.306 124.971 C 92.468 124.735,92.915 124.425,93.300 124.283 C 93.921 124.054,94.315 123.200,93.800 123.200 C 93.690 123.200,93.600 123.359,93.600 123.553 M213.270 127.892 L 213.200 129.984 204.900 130.100 L 196.600 130.217 204.913 130.309 C 214.181 130.411,213.762 130.545,213.495 127.546 C 213.341 125.813,213.339 125.816,213.270 127.892 M92.261 130.100 C 92.363 130.265,96.082 130.414,100.524 130.432 C 104.966 130.449,108.375 130.554,108.100 130.665 C 107.825 130.776,107.605 131.167,107.612 131.533 C 107.624 132.194,108.245 131.490,108.515 130.508 C 108.562 130.339,104.882 130.110,100.337 130.000 C 95.793 129.890,92.159 129.935,92.261 130.100 M198.093 133.200 C 198.093 133.970,198.175 134.285,198.276 133.900 C 198.376 133.515,198.376 132.885,198.276 132.500 C 198.175 132.115,198.093 132.430,198.093 133.200 M105.867 133.067 C 105.720 133.213,105.600 133.918,105.600 134.633 C 105.600 135.348,105.416 136.025,105.190 136.137 C 104.965 136.249,105.010 136.294,105.290 136.237 C 105.570 136.181,105.902 135.385,106.027 134.467 C 106.270 132.677,106.269 132.664,105.867 133.067 M199.060 134.670 C 199.312 134.851,199.611 135.450,199.723 136.000 C 199.899 136.861,199.918 136.838,199.863 135.831 C 199.828 135.171,199.538 134.591,199.200 134.500 C 198.799 134.393,198.752 134.449,199.060 134.670 M203.168 143.100 C 203.359 144.481,203.387 144.509,203.519 143.451 C 203.598 142.819,203.505 142.145,203.312 141.952 C 203.110 141.750,203.049 142.240,203.168 143.100 M98.846 145.086 C 98.821 145.573,98.440 146.165,98.000 146.400 C 97.430 146.705,97.217 147.198,97.260 148.114 L 97.320 149.400 97.493 148.238 C 97.587 147.598,98.031 146.780,98.477 146.418 C 98.979 146.012,99.214 145.462,99.091 144.980 C 98.914 144.284,98.888 144.296,98.846 145.086 M207.500 150.073 C 207.995 150.611,208.421 151.580,208.446 152.226 C 208.475 152.962,208.563 153.127,208.682 152.668 C 208.985 151.495,208.501 150.243,207.515 149.647 L 206.600 149.095 207.500 150.073 M93.654 153.467 C 93.625 154.163,93.375 154.824,93.100 154.935 C 92.708 155.093,92.711 155.144,93.113 155.168 C 93.771 155.209,94.112 154.312,93.886 153.129 C 93.748 152.403,93.697 152.477,93.654 153.467 M209.500 153.599 C 209.775 153.908,210.000 154.653,210.000 155.256 C 210.000 155.859,210.142 156.441,210.316 156.548 C 210.939 156.933,210.302 154.018,209.658 153.533 C 209.104 153.117,209.079 153.127,209.500 153.599 M211.580 158.510 C 211.775 160.158,211.783 160.167,211.919 158.849 C 211.996 158.106,211.906 157.346,211.720 157.160 C 211.533 156.973,211.471 157.581,211.580 158.510 M88.538 160.617 C 88.408 160.957,88.413 161.347,88.551 161.484 C 88.688 161.621,88.800 161.447,88.800 161.096 C 88.800 160.745,89.115 160.376,89.500 160.276 C 90.156 160.104,90.155 160.090,89.487 160.046 C 89.096 160.021,88.668 160.278,88.538 160.617 M213.293 161.600 C 213.293 162.370,213.375 162.685,213.476 162.300 C 213.576 161.915,213.576 161.285,213.476 160.900 C 213.375 160.515,213.293 160.830,213.293 161.600 M216.893 167.600 C 216.893 168.370,216.975 168.685,217.076 168.300 C 217.176 167.915,217.176 167.285,217.076 166.900 C 216.975 166.515,216.893 166.830,216.893 167.600 M78.945 175.752 C 78.141 176.550,77.367 179.391,78.072 178.955 C 78.253 178.844,78.400 178.245,78.400 177.625 C 78.400 176.902,78.723 176.281,79.300 175.893 C 79.795 175.560,80.110 175.201,80.000 175.096 C 79.890 174.990,79.415 175.286,78.945 175.752 M222.144 177.569 C 222.178 178.412,222.431 179.000,222.800 179.100 C 223.205 179.209,223.249 179.153,222.936 178.929 C 222.681 178.747,222.386 178.058,222.280 177.399 C 222.103 176.301,222.092 176.315,222.144 177.569 M75.067 181.067 C 74.920 181.213,74.800 181.837,74.800 182.453 C 74.800 183.162,74.507 183.728,74.000 184.000 C 73.560 184.235,73.200 184.609,73.200 184.830 C 73.200 185.795,75.128 183.272,75.286 182.100 C 75.475 180.699,75.468 180.665,75.067 181.067 M71.293 188.000 C 71.293 188.770,71.375 189.085,71.476 188.700 C 71.576 188.315,71.576 187.685,71.476 187.300 C 71.375 186.915,71.293 187.230,71.293 188.000 M73.800 192.280 C 82.674 192.560,97.107 192.572,96.939 192.300 C 96.836 192.135,90.778 192.037,83.476 192.083 C 76.174 192.129,71.820 192.217,73.800 192.280 M207.199 192.300 C 207.199 192.465,210.304 192.554,214.099 192.497 C 227.013 192.305,228.220 192.166,217.700 192.083 C 211.925 192.037,207.200 192.135,207.199 192.300 M208.400 194.776 C 208.400 195.423,208.542 196.041,208.716 196.148 C 208.890 196.256,208.961 195.727,208.873 194.972 C 208.676 193.291,208.400 193.177,208.400 194.776 M211.660 199.638 C 211.626 200.229,211.944 200.988,212.400 201.400 C 212.840 201.798,213.203 202.501,213.206 202.962 C 213.213 203.931,213.489 204.372,214.600 205.188 C 215.269 205.679,215.252 205.609,214.500 204.762 C 214.005 204.205,213.600 203.383,213.600 202.936 C 213.600 202.489,213.250 201.807,212.823 201.420 C 212.395 201.033,211.972 200.241,211.882 199.658 L 211.720 198.600 211.660 199.638 M88.556 203.771 C 88.435 204.085,88.416 204.760,88.514 205.271 C 88.652 205.997,88.703 205.923,88.746 204.933 C 88.775 204.237,89.025 203.576,89.300 203.465 C 89.692 203.307,89.689 203.256,89.287 203.232 C 89.006 203.214,88.676 203.457,88.556 203.771 M218.493 211.600 C 218.493 212.370,218.575 212.685,218.676 212.300 C 218.776 211.915,218.776 211.285,218.676 210.900 C 218.575 210.515,218.493 210.830,218.493 211.600 M221.875 217.479 C 222.190 218.336,224.000 220.128,224.000 219.584 C 224.000 219.377,223.640 218.982,223.200 218.707 C 222.760 218.432,222.400 217.991,222.400 217.727 C 222.400 217.463,222.222 217.137,222.005 217.003 C 221.768 216.856,221.716 217.048,221.875 217.479 M78.156 219.771 C 78.035 220.085,78.004 220.760,78.086 221.271 C 78.195 221.954,78.288 221.804,78.437 220.700 C 78.647 219.147,78.536 218.781,78.156 219.771 M76.556 222.571 C 76.435 222.885,76.416 223.560,76.514 224.071 C 76.652 224.797,76.703 224.723,76.746 223.733 C 76.775 223.037,77.025 222.376,77.300 222.265 C 77.692 222.107,77.689 222.056,77.287 222.032 C 77.006 222.014,76.676 222.257,76.556 222.571 M71.506 231.238 C 70.685 232.097,70.127 232.800,70.266 232.800 C 70.611 232.800,73.321 229.987,73.143 229.814 C 73.064 229.738,72.328 230.378,71.506 231.238 M69.552 234.313 C 69.421 235.107,69.479 235.481,69.701 235.259 C 69.903 235.057,70.001 234.467,69.919 233.946 C 69.793 233.145,69.737 233.202,69.552 234.313 M64.460 242.467 C 64.427 243.273,64.175 244.024,63.900 244.135 C 63.508 244.293,63.511 244.344,63.913 244.368 C 64.592 244.410,64.899 243.528,64.690 242.134 C 64.544 241.159,64.511 241.205,64.460 242.467 M237.701 244.200 C 237.705 245.080,237.787 245.393,237.883 244.895 C 237.979 244.398,237.975 243.678,237.875 243.295 C 237.775 242.913,237.696 243.320,237.701 244.200 M239.000 248.238 C 239.000 249.427,239.135 250.400,239.300 250.400 C 239.465 250.400,239.600 249.511,239.600 248.424 C 239.600 247.337,239.465 246.364,239.300 246.262 C 239.135 246.160,239.000 247.049,239.000 248.238 M245.200 314.920 L 245.400 339.800 245.503 315.223 C 245.560 301.706,245.470 290.510,245.303 290.343 C 245.136 290.176,245.090 301.236,245.200 314.920 M285.697 315.096 L 285.600 339.593 265.700 339.700 L 245.800 339.808 265.713 339.904 C 281.345 339.979,285.666 339.893,285.816 339.500 C 285.921 339.225,285.959 328.110,285.901 314.800 L 285.794 290.600 285.697 315.096 M142.274 339.899 C 146.055 339.965,152.355 339.965,156.274 339.899 C 160.193 339.834,157.100 339.780,149.400 339.780 C 141.700 339.780,138.493 339.834,142.274 339.899 "
       stroke="none"
       fill="#a48c8c"
       fill-rule="evenodd" />
    <path
       id="path4"
       d="M163.600 47.376 C 163.600 47.913,163.747 48.444,163.928 48.555 C 164.108 48.667,164.177 48.227,164.082 47.579 C 163.872 46.149,163.600 46.035,163.600 47.376 M127.952 67.913 C 127.821 68.707,127.879 69.081,128.101 68.859 C 128.303 68.657,128.401 68.067,128.319 67.546 C 128.193 66.745,128.137 66.802,127.952 67.913 M197.275 130.671 C 197.647 130.769,198.031 131.153,198.129 131.525 C 198.255 132.003,198.321 131.938,198.354 131.300 C 198.389 130.607,198.193 130.411,197.500 130.446 C 196.862 130.479,196.797 130.545,197.275 130.671 M225.693 223.600 C 225.693 224.370,225.775 224.685,225.876 224.300 C 225.976 223.915,225.976 223.285,225.876 222.900 C 225.775 222.515,225.693 222.830,225.693 223.600 M72.954 227.777 C 72.832 228.094,72.803 228.679,72.889 229.077 C 72.987 229.528,73.124 229.312,73.254 228.500 C 73.471 227.138,73.330 226.796,72.954 227.777 M65.952 239.513 C 65.821 240.307,65.879 240.681,66.101 240.459 C 66.303 240.257,66.401 239.667,66.319 239.146 C 66.193 238.345,66.137 238.402,65.952 239.513 M60.914 248.200 C 60.917 249.300,60.995 249.703,61.087 249.095 C 61.179 248.486,61.177 247.586,61.082 247.095 C 60.987 246.603,60.911 247.100,60.914 248.200 M79.700 250.700 C 89.765 250.759,106.235 250.759,116.300 250.700 C 126.365 250.640,118.130 250.592,98.000 250.592 C 77.870 250.592,69.635 250.640,79.700 250.700 M182.730 250.700 C 193.142 250.759,210.062 250.759,220.330 250.700 C 230.599 250.640,222.080 250.592,201.400 250.592 C 180.720 250.592,172.319 250.641,182.730 250.700 M134.993 294.800 C 134.993 318.890,135.041 328.745,135.100 316.700 C 135.159 304.655,135.159 284.945,135.100 272.900 C 135.041 260.855,134.993 270.710,134.993 294.800 M163.793 295.400 C 163.793 319.600,163.841 329.441,163.900 317.269 C 163.959 305.097,163.959 285.297,163.900 273.269 C 163.841 261.241,163.793 271.200,163.793 295.400 M226.068 261.500 C 247.556 261.557,282.836 261.557,304.468 261.500 C 326.101 261.443,308.520 261.396,265.400 261.396 C 222.280 261.396,204.581 261.443,226.068 261.500 M344.580 275.800 C 344.580 283.280,344.634 286.283,344.699 282.474 C 344.765 278.665,344.765 272.545,344.699 268.874 C 344.633 265.203,344.579 268.320,344.580 275.800 M201.500 290.300 C 209.475 290.360,222.525 290.360,230.500 290.300 C 238.475 290.239,231.950 290.190,216.000 290.190 C 200.050 290.190,193.525 290.239,201.500 290.300 M301.129 290.300 C 309.121 290.360,322.081 290.360,329.929 290.300 C 337.778 290.239,331.240 290.190,315.400 290.190 C 299.560 290.190,293.138 290.239,301.129 290.300 "
       stroke="none"
       fill="#9c8184"
       fill-rule="evenodd" />
  </g>
</svg>
