<?xml version="1.0" encoding="UTF-8" standalone="no"?>
<svg
   id="svg"
   version="1.1"
   width="400"
   height="400"
   viewBox="0, 0, 400,400"
   sodipodi:docname="centre_interpretacio.svg"
   inkscape:version="1.2.2 (732a01da63, 2022-12-09)"
   xmlns:inkscape="http://www.inkscape.org/namespaces/inkscape"
   xmlns:sodipodi="http://sodipodi.sourceforge.net/DTD/sodipodi-0.dtd"
   xmlns="http://www.w3.org/2000/svg"
   xmlns:svg="http://www.w3.org/2000/svg">
  <defs
     id="defs34" />
  <sodipodi:namedview
     id="namedview32"
     pagecolor="#ffffff"
     bordercolor="#666666"
     borderopacity="1.0"
     inkscape:showpageshadow="2"
     inkscape:pageopacity="0.0"
     inkscape:pagecheckerboard="0"
     inkscape:deskcolor="#d1d1d1"
     showgrid="false"
     inkscape:zoom="1.94"
     inkscape:cx="200.25773"
     inkscape:cy="200"
     inkscape:window-width="1920"
     inkscape:window-height="974"
     inkscape:window-x="-11"
     inkscape:window-y="-11"
     inkscape:window-maximized="1"
     inkscape:current-layer="g29" />
  <g
     id="g29">
    <path
       d="M197.2,97.493c-.33.127-1.312.837-2.182,1.577-.87.741-2.22,1.45-3,1.577-1.687.274-3.293,1.089-5.622,2.853-.944.715-2.184,1.309-2.756,1.319-1.207.023-2.829.852-5.244,2.681-.944.715-2.184,1.309-2.756,1.319-1.207.023-2.829.852-5.244,2.681-.944.715-2.184,1.309-2.756,1.319-1.207.023-2.829.852-5.244,2.681-.944.715-2.184,1.309-2.756,1.319-1.207.023-2.829.852-5.244,2.681-.944.715-2.184,1.309-2.756,1.319-1.207.023-2.829.852-5.244,2.681-.944.715-2.184,1.309-2.756,1.319-1.207.023-2.829.852-5.244,2.681-.944.715-2.184,1.309-2.756,1.319-1.207.023-2.829.852-5.244,2.681-.944.715-2.184,1.309-2.756,1.319-1.207.023-2.829.852-5.244,2.681-.944.715-2.131,1.3-2.637,1.3-1.377,0-3.008.819-4.411,2.215-.896.892-2.021,1.436-3.958,1.914-2.05.506-3.028.999-4.032,2.033-.914.941-1.924,1.493-3.256,1.779-4.915,1.054-7.702,3.672-7.702,7.235c0,1.763.156,2.398.633,2.581.824.317,205.286.307,206.467-.009c3.728-.999-2.274-9.748-6.688-9.748-.384,0-1.578-.675-2.654-1.5-1.914-1.466-4.113-2.482-5.4-2.494-.354-.003-1.524-.681-2.6-1.506-1.914-1.466-4.113-2.482-5.4-2.494-.354-.003-1.524-.681-2.6-1.506-1.914-1.466-4.113-2.482-5.4-2.494-.354-.003-1.524-.681-2.6-1.506-1.914-1.466-4.113-2.482-5.4-2.494-.354-.003-1.524-.681-2.6-1.506-1.925-1.475-4.115-2.482-5.422-2.494-.365-.003-1.535-.687-2.6-1.52-1.725-1.349-2.809-1.834-6.047-2.702-.501-.135-1.581-.86-2.4-1.613-.819-.752-1.793-1.368-2.165-1.369s-.773-.158-.891-.348c-.117-.19-.904-.439-1.748-.552-1.019-.137-2.065-.692-3.11-1.652-.866-.795-1.879-1.447-2.251-1.448s-.773-.158-.891-.348c-.117-.19-.904-.439-1.748-.552-1.019-.137-2.065-.692-3.11-1.652-.866-.795-1.879-1.447-2.251-1.448s-.773-.158-.891-.348c-.117-.19-.904-.439-1.748-.552-1.019-.137-2.065-.692-3.11-1.652-.866-.795-1.879-1.447-2.251-1.448s-.773-.158-.891-.348c-.117-.19-.904-.439-1.748-.552-1.019-.137-2.065-.692-3.11-1.652-.866-.795-1.879-1.447-2.251-1.448s-.773-.158-.891-.348c-.117-.19-.904-.439-1.748-.552-1.008-.135-2.064-.69-3.076-1.617-1.9-1.741-6.166-2.529-8.609-1.592m-71.971,75.561c-.827,1.052-.829,1.144-.829,45.182v44.128l1.3.233c.715.129,7.51.182,15.1.118l13.8-.115.11-44.4c.06-24.42.012-44.805-.108-45.3l-.217-.9h-14.164-14.163l-.829,1.054m60.217-.068c-.585.892-.646,5.172-.646,45.192v44.207l.9.219c.495.12,7.29.169,15.1.108L215,262.6l.104-44.2c.076-32.2-.018-44.499-.348-45.3l-.453-1.1h-14.106-14.105l-.646.986m60.142.045c-.249.656-.355,17.114-.29,45.3L245.4,262.6l14.2.112c7.81.061,14.605.012,15.1-.108l.9-.219v-44.304c0-39.45-.068-44.4-.623-45.192l-.622-.889h-14.188-14.187l-.392,1.031M101.446,280.986c-1.039,1.585-.963,21.003.085,21.952c1.042.942,196.156,1.032,197.098.091.808-.809.821-21.266.014-22.329-.503-.663-5.667-.7-98.541-.7h-98.01l-.646.986"
       fill="#e2dada"
       fill-rule="evenodd"
       id="path19" />
    <path
       d="M195.34,96.343c-.913.363-1.993.948-2.4,1.3-1.037.896-2.803,1.788-5.14,2.598-1.1.381-2.36.996-2.8,1.368-1.11.938-2.847,1.817-5.2,2.632-1.1.381-2.36.996-2.8,1.368-1.11.938-2.847,1.817-5.2,2.632-1.1.381-2.36.996-2.8,1.368-1.11.938-2.847,1.817-5.2,2.632-1.1.381-2.36.996-2.8,1.368-1.11.938-2.847,1.817-5.2,2.632-1.1.381-2.36.996-2.8,1.368-1.11.938-2.847,1.817-5.2,2.632-1.1.381-2.36.996-2.8,1.368-1.11.938-2.847,1.817-5.2,2.632-1.1.381-2.36.996-2.8,1.368-1.11.938-2.847,1.817-5.2,2.632-1.1.381-2.36.996-2.8,1.368-1.11.938-2.847,1.817-5.2,2.632-1.1.381-2.36.996-2.8,1.368-.855.722-2.454,1.588-4.4,2.384-2.295.939-3.8,1.735-3.8,2.009c0,.246-1.332.878-4.4,2.088-1.971.777-3.6,1.641-3.6,1.909c0,.353-1.566,1.059-4.583,2.066-3.791,1.266-7.417,5.27-7.417,8.189v2.088l2.18,1.031l2.18,1.032l103.32-.103c102.416-.101,103.334-.109,104.92-.902c1.665-.833,2.28-2.791,1.622-5.168-.648-2.342-6.76-7.081-8.384-6.501-.241.086.37.403,1.357.705c5.235,1.598,8.59,8.879,4.905,10.645-2.413,1.156-207.047,1.115-209.613-.042-3.667-1.653-.182-9.364,4.719-10.44c2.075-.456,4.461-1.589,5.794-2.751.66-.576,1.47-1.056,1.8-1.066.994-.032,4.661-1.716,5.978-2.746.678-.53,2.264-1.312,3.525-1.738c1.261-.425,3.104-1.359,4.095-2.074s2.792-1.616,4.002-2.002s3.01-1.286,4-2s2.79-1.614,4-2s3.01-1.286,4-2s2.79-1.614,4-2s3.01-1.286,4-2s2.79-1.614,4-2s3.01-1.286,4-2s2.79-1.614,4-2s3.01-1.286,4-2s2.79-1.614,4-2s3.01-1.286,4-2s2.79-1.614,4-2s3.01-1.286,4-2s2.79-1.614,4-2s3.01-1.286,4-2s2.79-1.614,4-2s3.01-1.29,4-2.009c.99-.718,2.475-1.524,3.3-1.79c1.481-.479,1.972-.862,1-.782-.275.023-1.247.339-2.16.702M202.6,96c.136.22.642.397,1.124.394.712-.005.764-.079.276-.394-.788-.509-1.715-.509-1.4,0m2.6.687c.33.123,1.41.81,2.4,1.528s2.79,1.621,4,2.007s3.01,1.286,4,2s2.79,1.614,4,2s3.01,1.286,4,2s2.79,1.612,4,1.996c1.862.591,4.472,2.09,5.2,2.986.11.135,1.28.573,2.6.973c2.019.612,4.625,2.073,5.4,3.027.11.135,1.28.573,2.6.973c2.019.612,4.625,2.073,5.4,3.027.11.135,1.28.575,2.6.977c1.32.403,3.21,1.318,4.2,2.035s2.79,1.62,4,2.006s3.063,1.326,4.119,2.088c2.311,1.669,2.806,1.571.752-.15-.809-.677-2.703-1.641-4.208-2.141-1.506-.5-3.306-1.403-4-2.006-.695-.603-2.467-1.494-3.939-1.979-1.472-.486-3.305-1.383-4.074-1.994-.769-.612-2.265-1.421-3.324-1.8-2.643-.944-4.147-1.686-5.326-2.628-.55-.438-2.215-1.235-3.7-1.769s-3.212-1.403-3.838-1.929c-.626-.527-2.021-1.274-3.1-1.66-2.681-.959-4.179-1.698-5.362-2.642-.55-.438-2.215-1.235-3.7-1.769s-3.212-1.403-3.838-1.929c-.626-.527-2.021-1.274-3.1-1.66-2.619-.937-4.088-1.673-5.721-2.863-.748-.545-1.648-.977-2-.959-.543.026-.549.065-.041.255m61.2,31.098c0,.101.765.39,1.7.641s2.534,1.068,3.554,1.815c2.359,1.73,3.022,1.77.968.059-1.82-1.516-6.222-3.296-6.222-2.515m8,4c0,.101.765.39,1.7.641s2.534,1.068,3.554,1.815c2.359,1.73,3.022,1.77.968.059-1.82-1.516-6.222-3.296-6.222-2.515m8,4c0,.101.765.39,1.7.641s2.534,1.068,3.554,1.815c2.359,1.73,3.022,1.77.968.059-1.82-1.516-6.222-3.296-6.222-2.515m8,4c0,.101.765.39,1.7.641s2.534,1.068,3.554,1.815c2.359,1.73,3.022,1.77.968.059-1.82-1.516-6.222-3.296-6.222-2.515M124.873,169.612c-3.06,1.866-2.889-1.138-2.775,48.637l.102,44.326l1.6.906c1.581.895,1.774.906,16.178.912l14.578.007l1.122-1.075l1.122-1.075-.002-44.225c-.003-46.158-.009-46.332-1.763-48.225l-.927-1-13.954.001c-13.301.002-14.016.04-15.281.811m60.207.149c-2.404,2.228-2.293-.237-2.182,48.376L183,262.568l1.359.916c1.541,1.038,29.057,1.471,30.898.486c2.551-1.366,2.343,2.683,2.343-45.595c0-47.715.072-46.194-2.296-48.562l-1.013-1.013h-14.087-14.087l-1.037.961m60.461-.434c-1.991,1.515-1.941.27-1.941,48.376v44.805l1.021.946l1.02.946h14.534c14.933,0,14.837.009,17.325-1.608l.9-.584v-44.091c0-49.88.237-46.265-3.189-48.633-1.284-.888-28.52-1.032-29.67-.157M155.457,171.6l.92,1.8.012,44.471.011,44.471-1.054.829c-1.678,1.32-28.547,1.284-31.202-.042l-1.744-.871v-43.903c0-46.315-.058-44.95,2.019-47.316l1.273-1.449l14.422.105l14.423.105.92,1.8m59.433-1.3c2.005,2.287,1.91-.078,1.91,47.591v44.331l-.9.789c-1.315,1.153-28.893,1.465-31,.351l-1.3-.688v-44.676c0-47.724-.073-45.753,1.779-47.883.765-.881,28.73-.706,29.511.185m60.405.089c2.431,1.912,2.305-.704,2.305,47.791v44.259l-1.7.772c-2.818,1.279-29.888,1.198-31.091-.094-1.263-1.355-1.092-90.118.177-92.217l.786-1.3h14.26c13.589,0,14.307.037,15.263.789M101.083,277.826c-2.003,2.003-2.284,3.805-2.27,14.545l.014,9.829l1.106,1.6l1.106,1.6l98.88.101c109.587.112,99.289.339,100.781-2.229.632-1.088.725-22.286.1-22.672-.22-.136-.4-.542-.4-.902s-.484-1.159-1.075-1.776L298.25,276.8h-98.07-98.071l-1.026,1.026m197.755.474c1.725,2.149,1.758,2.371,1.888,12.871.138,11.229.118,11.434-1.297,12.96l-.991,1.069h-98.258-98.259l-1.161-1.242-1.16-1.243v-10.544c0-10.829.158-12.066,1.8-14.056.741-.897,196.716-.714,197.438.185"
       fill="#8c7474"
       fill-rule="evenodd"
       id="path21" />
    <path
       d="M158,0.976v.976l-7.568.124c-8.401.138-8.015.032-8.318,2.291L141.895,6h-5.468C130.32,6,130,6.124,130,8.48v1.52h-4.774c-5.974,0-6.729.255-7.07,2.388L117.898,14h-3.321c-3.81,0-4.577.441-4.577,2.629v1.371h-3.371c-3.843,0-4.629.436-4.629,2.569v1.312l-3.248.251c-3.671.283-4.255.599-4.429,2.398-.117,1.21-.218,1.28-2.123,1.47l-2,.2-.122,1.9-.122,1.9h-3.349C82.773,30,82,30.438,82,32.607c0,1.326-.033,1.351-1.9,1.471l-1.9.122-.12,1.853-.12,1.854-2.28.17c-3.04.227-4.561,1.009-5.01,2.576-.319,1.114-.556,1.275-2.134,1.453-2.16.243-2.151.235-2.422,2.261C65.908,45.903,65.816,46,64.576,46C62.883,46,62,46.901,62,48.629C62,49.95,61.944,50,60.48,50c-1.916,0-2.48.564-2.48,2.48c0,1.493-.027,1.52-1.52,1.52-1.916,0-2.48.564-2.48,2.48c0,1.493-.027,1.52-1.52,1.52-1.916,0-2.48.564-2.48,2.48c0,1.464-.05,1.52-1.371,1.52C46.886,62,46,62.886,46,64.629C46,65.886,45.9,66,44.8,66c-1.63,0-2.8,1.253-2.8,3c0,1.196-.135,1.4-.924,1.4-2.003,0-3.044,1.997-3.066,5.878L38,77.956l-1.9.122-1.9.122-.122,1.9c-.12,1.867-.145,1.9-1.471,1.9C30.624,82,30,82.85,30,85.554c0,2.455-1.148,4.181-3,4.511-.644.114-.824.508-.921,2.019-.12,1.858-.139,1.881-1.798,2.209-1.923.38-2.152.915-2.234,5.207L22,102h-1.371c-2.195,0-2.629.763-2.629,4.629v3.371h-1.371c-2.188,0-2.629.767-2.629,4.577v3.321l-1.612.258c-2.133.341-2.388,1.096-2.388,7.07v4.774h-1.52c-2.356,0-2.48.32-2.48,6.427v5.468l-1.633.219c-2.259.303-2.153-.083-2.291,8.318L1.952,158h-.976-.976v42v42h.976.976l.124,7.568c.138,8.401.032,8.015,2.291,8.318L6,258.105v5.319C6,269.407,6.237,270,8.629,270h1.371v4.774c0,5.974.255,6.729,2.388,7.07l1.612.258v3.321c0,3.81.441,4.577,2.629,4.577h1.371v3.371c0,3.866.434,4.629,2.629,4.629h1.371l.047,2.3c.088,4.284.447,4.979,2.831,5.478.964.202,1.091.427,1.2,2.124L26.2,309.8l1.9.122l1.9.122v3.349c0,3.834.438,4.607,2.607,4.607c1.326,0,1.351.033,1.471,1.9l.122,1.9l1.9.122l1.9.122.031,1.878c.056,3.433.781,5.026,2.48,5.449c1.17.291,1.489.564,1.489,1.274c0,1.991.7,2.93,2.388,3.199c1.505.241,1.612.346,1.612,1.579c0,1.694.901,2.577,2.629,2.577c1.321,0,1.371.056,1.371,1.52c0,1.916.564,2.48,2.48,2.48c1.493,0,1.52.027,1.52,1.52c0,1.916.564,2.48,2.48,2.48c1.493,0,1.52.027,1.52,1.52c0,1.916.564,2.48,2.48,2.48c1.464,0,1.52.05,1.52,1.371c0,1.728.883,2.629,2.576,2.629c1.24,0,1.332.097,1.538,1.633.271,2.025.263,2.018,2.414,2.26c1.512.17,1.847.38,2.32,1.453.692,1.571,2.753,2.609,5.23,2.635l1.878.019.122,1.9.122,1.9l1.9.122c1.867.12,1.9.145,1.9,1.471c0,2.169.773,2.607,4.607,2.607h3.349l.122,1.9.122,1.9l1.881.121c1.861.12,1.884.138,2.212,1.798.38,1.923.915,2.152,5.207,2.234L102,378v1.371c0,2.188.768,2.629,4.576,2.629h3.319l.219,1.633c.291,2.175.239,2.147,4.274,2.305l3.522.138.252,1.575c.334,2.089,1.116,2.349,7.064,2.349h4.774v1.371c0,2.396.588,2.629,6.629,2.629h5.371v1.2c0,2.556.768,2.8,8.8,2.8h7.2v1v1h42h42v-1-1h7.371c8.234,0,8.629-.12,8.629-2.629v-1.371h5.371c6.041,0,6.629-.233,6.629-2.629v-1.371h4.774c5.948,0,6.73-.26,7.064-2.349l.252-1.575l3.522-.138c4.035-.158,3.983-.13,4.274-2.305l.219-1.633h3.319c3.808,0,4.576-.441,4.576-2.629v-1.371l2.3-.047c4.284-.088,4.979-.447,5.478-2.831.202-.964.427-1.091,2.124-1.2l1.898-.122.122-1.9.122-1.9h3.349c3.834,0,4.607-.438,4.607-2.607c0-1.326.033-1.351,1.9-1.471l1.9-.122.122-1.9.122-1.9l1.878-.031c3.433-.056,5.026-.781,5.449-2.48.334-1.346.498-1.489,1.7-1.489c1.673,0,2.929-1.2,2.929-2.8c0-1.1.114-1.2,1.371-1.2c1.743,0,2.629-.886,2.629-2.629c0-1.321.056-1.371,1.52-1.371c1.916,0,2.48-.564,2.48-2.48c0-1.493.027-1.52,1.52-1.52c1.916,0,2.48-.564,2.48-2.48c0-1.493.027-1.52,1.52-1.52c1.916,0,2.48-.564,2.48-2.48c0-1.464.05-1.52,1.371-1.52c1.728,0,2.629-.883,2.629-2.576c0-1.24.097-1.332,1.633-1.538c2.026-.271,2.018-.262,2.261-2.422.178-1.578.339-1.815,1.453-2.134c1.567-.449,2.349-1.97,2.576-5.01l.17-2.28l1.854-.12l1.853-.12.122-1.9c.12-1.867.145-1.9,1.471-1.9c2.169,0,2.607-.773,2.607-4.607v-3.349l1.9-.122l1.9-.122.121-1.881c.12-1.861.138-1.884,1.798-2.212c1.923-.38,2.152-.915,2.234-5.207L378,298h1.371c2.195,0,2.629-.763,2.629-4.629v-3.371h1.371c2.188,0,2.629-.767,2.629-4.577v-3.321l1.612-.258c2.133-.341,2.388-1.096,2.388-7.07v-4.774h1.371c2.392,0,2.629-.593,2.629-6.576v-5.319l1.633-.219c2.259-.303,2.153.083,2.291-8.318l.124-7.568h.976.976v-42-42h-.976-.976l-.124-7.568c-.138-8.401-.032-8.015-2.291-8.318L394,141.895v-5.319c0-5.983-.237-6.576-2.629-6.576h-1.371v-4.774c0-5.974-.255-6.729-2.388-7.07L386,117.898v-3.321c0-3.81-.441-4.577-2.629-4.577h-1.371v-3.371c0-3.866-.434-4.629-2.629-4.629h-1.371l-.047-2.5c-.082-4.292-.311-4.827-2.234-5.207-1.66-.328-1.678-.351-1.798-2.212L373.8,90.2l-1.9-.122-1.9-.122v-3.349c0-3.834-.438-4.607-2.607-4.607-1.326,0-1.351-.033-1.471-1.9l-.122-1.9-1.9-.122-1.9-.122-.031-1.878c-.055-3.398-.785-5.027-2.435-5.437-1.338-.334-1.458-.488-1.642-2.12-.241-2.143-.234-2.136-2.259-2.407-1.536-.206-1.633-.298-1.633-1.538c0-1.693-.901-2.576-2.629-2.576-1.321,0-1.371-.056-1.371-1.52c0-1.916-.564-2.48-2.48-2.48-1.493,0-1.52-.027-1.52-1.52c0-1.916-.564-2.48-2.48-2.48-1.493,0-1.52-.027-1.52-1.52c0-1.916-.564-2.48-2.48-2.48-1.464,0-1.52-.05-1.52-1.371c0-1.728-.883-2.629-2.576-2.629-1.24,0-1.332-.097-1.538-1.633-.271-2.025-.264-2.018-2.407-2.259-1.632-.184-1.786-.304-2.12-1.642-.41-1.65-2.039-2.38-5.437-2.435L322.044,38l-.122-1.9-.122-1.9-1.9-.122c-1.867-.12-1.9-.145-1.9-1.471c0-1.983-.85-2.607-3.554-2.607-2.455,0-4.181-1.148-4.511-3-.114-.644-.508-.824-2.019-.921-1.858-.12-1.881-.139-2.209-1.798-.38-1.923-.915-2.152-5.207-2.234L298,22v-1.371c0-2.195-.763-2.629-4.629-2.629L290,18v-1.371c0-2.188-.767-2.629-4.577-2.629h-3.321l-.258-1.612c-.341-2.133-1.096-2.388-7.07-2.388L270,10v-1.52c0-2.359-.316-2.48-6.48-2.48L258,6v-1.371C258,2.12,257.605,2,249.371,2L242,2v-1-1h-42-42v.976m48.501,94.322c1.588.592,3.499,2.047,3.499,2.664c0,.202.689.484,1.532.626c3.228.546,6.468,2.236,6.468,3.374c0,.202.689.484,1.532.626c3.228.546,6.468,2.236,6.468,3.374c0,.202.689.484,1.532.626c3.228.546,6.468,2.236,6.468,3.374c0,.202.689.484,1.532.626c3.228.546,6.468,2.236,6.468,3.374c0,.202.689.484,1.532.626c3.228.546,6.468,2.236,6.468,3.374c0,.202.689.484,1.532.626c3.211.543,5.888,1.814,6.255,2.97.155.49.766.849,1.727,1.016c3.18.553,5.666,1.721,6.102,2.868.223.588.808.942,1.855,1.124c3.225.562,5.707,1.723,6.145,2.876.223.588.808.942,1.855,1.124c3.225.562,5.707,1.723,6.145,2.876.223.588.808.942,1.855,1.124c3.237.564,5.707,1.723,6.149,2.886.23.606.801.949,1.887,1.132c3.18.538,6.093,1.896,6.093,2.843c0,.329.225.671.5.76s1.648.489,3.052.888c1.488.422,2.906,1.12,3.4,1.672.466.521,1.561,1.634,2.433,2.473c3.458,3.325,2.292,8.902-2.009,9.608-2.944.483-207.203.46-209.754-.024-2.922-.554-3.592-1.471-3.609-4.942-.013-2.782.937-5.058,2.114-5.065.26-.001.755-.496,1.101-1.1.81-1.417,3.314-2.661,6.255-3.107c1.169-.177,1.758-.49,1.927-1.023.37-1.163,3.036-2.434,6.242-2.976.967-.163,1.599-.52,1.747-.988.318-1.002,1.566-1.729,4.401-2.563c1.32-.388,2.625-.775,2.9-.86s.5-.39.5-.676c0-.287.675-.853,1.5-1.257.825-.405,1.777-.873,2.115-1.042.339-.168,1.396-.438,2.349-.599c1.128-.191,1.796-.53,1.911-.973.098-.374.841-1.004,1.652-1.401.81-.396,1.75-.858,2.088-1.027.339-.168,1.396-.438,2.349-.599c1.128-.191,1.796-.53,1.911-.973.098-.374.841-1.004,1.652-1.401.81-.396,1.75-.858,2.088-1.027.339-.168,1.396-.438,2.349-.599c1.128-.191,1.796-.53,1.911-.973.098-.374.841-1.004,1.652-1.401.81-.396,1.75-.858,2.088-1.027.339-.168,1.366-.433,2.284-.588c1.039-.175,1.748-.536,1.882-.957.118-.372.89-1.007,1.717-1.412.826-.405,1.779-.874,2.117-1.043.339-.168,1.366-.433,2.284-.588c1.039-.175,1.748-.536,1.882-.957.118-.372.89-1.007,1.717-1.412.826-.405,1.779-.874,2.117-1.043.339-.168,1.366-.433,2.284-.588c1.039-.175,1.748-.536,1.882-.957.118-.372.89-1.007,1.717-1.412.826-.405,1.779-.874,2.117-1.043.339-.168,1.366-.433,2.284-.588c1.039-.175,1.748-.536,1.882-.957.118-.372.89-1.007,1.717-1.412.826-.405,1.779-.874,2.117-1.043.339-.168,1.366-.433,2.284-.588c1.039-.175,1.748-.536,1.882-.957.118-.372.89-1.007,1.717-1.412.826-.405,1.779-.874,2.117-1.043.339-.168,1.366-.433,2.284-.588c1.039-.175,1.748-.536,1.882-.957.243-.764,3.424-2.472,5.619-3.017c1.495-.372,8.793.093,10.301.655m-50.727,72.921c2.093,1.372,2.026-.261,2.026,49.07v45.889l-.911.911-.91.911-15.038.118c-16.547.131-18.772-.069-20.14-1.807-.81-1.03-.814-1.289-.708-46.273.119-50.351-.092-46.821,2.907-48.519c2.103-1.191,31.011-1.455,32.774-.3m60.285.011c.867.449,1.554,1.369,2.38,3.192l1.161,2.56v44.143v44.143l-1.241,1.106c-1.947,1.735-2.869,1.826-18.43,1.826-15.492,0-16.105-.065-18.029-1.9l-1.1-1.05v-44.397-44.397l1.07-2.265c1.729-3.662.972-3.513,18.05-3.554c12.848-.032,15.089.051,16.139.593m60.55,0c4.045,1.69,3.792-1.626,3.782,49.583-.01,48.95.181,45.234-2.391,46.64-1.553.849-31.756,1.027-33.738.199-2.001-.836-1.91,1.653-1.78-48.953l.118-45.702l1.2-1.176l1.2-1.175l15.051-.023c12.826-.02,15.274.07,16.558.607M299.963,276.3c2.444,1.394,2.973,4.013,3.129,15.492l.136,9.991-1.068,2.009c-.588,1.104-1.535,2.458-2.104,3.008l-1.037,1-98.676.102-98.676.103-1.242-1.045c-2.865-2.411-3.225-4.087-3.223-14.999.002-7.877.118-9.982.6-10.907.329-.63.598-1.593.598-2.139c0-.596.497-1.459,1.242-2.155l1.243-1.16h98.925c93.48,0,98.993.039,100.153.7"
       fill="#568035"
       fill-rule="evenodd"
       id="path23"
       style="fill:#43141d;fill-opacity:1" />
    <path
       d="M196.545,96.342c-.911.362-2.448,1.227-3.416,1.922-.968.696-2.743,1.579-3.945,1.963-1.201.383-2.994,1.281-3.984,1.995s-2.79,1.614-4,2-3.01,1.286-4,2-2.79,1.614-4,2-3.01,1.286-4,2-2.79,1.614-4,2-3.01,1.286-4,2-2.79,1.614-4,2-3.01,1.286-4,2-2.79,1.614-4,2-3.01,1.286-4,2-2.79,1.614-4,2-3.01,1.286-4,2-2.79,1.614-4,2-3.01,1.286-4,2-2.79,1.614-4,2-3.011,1.287-4.002,2.002-2.834,1.649-4.095,2.074c-1.261.426-2.847,1.208-3.525,1.738-1.317,1.03-4.984,2.714-5.978,2.746-.33.01-1.14.49-1.8,1.066-1.333,1.162-3.719,2.295-5.794,2.751-4.901,1.076-8.386,8.787-4.719,10.44c2.566,1.157,207.2,1.198,209.613.042c3.84-1.84.385-8.884-5.312-10.828-1.203-.41-2.998-1.327-3.988-2.037s-2.79-1.608-4-1.994-3.01-1.286-4-2-2.79-1.614-4-2-3.01-1.286-4-2-2.79-1.614-4-2-3.01-1.286-4-2-2.79-1.614-4-2-3.01-1.286-4-2-2.79-1.614-4-2-3.01-1.289-4-2.006-2.88-1.632-4.2-2.035c-1.32-.402-2.49-.842-2.6-.977-.775-.954-3.381-2.415-5.4-3.027-1.32-.4-2.49-.838-2.6-.973-.775-.954-3.381-2.415-5.4-3.027-1.32-.4-2.49-.838-2.6-.973-.728-.896-3.338-2.395-5.2-2.986-1.21-.384-3.01-1.282-4-1.996s-2.79-1.614-4-2-3.01-1.286-4-2-2.79-1.614-4-2-3.048-1.325-4.084-2.085c-1.037-.76-2.526-1.486-3.31-1.614-.784-.127-1.522-.387-1.639-.577-.351-.568-4.243-.312-6.022.396m6.539,1.095c.652.13,1.878.872,2.725,1.648c1.012.927,2.068,1.482,3.076,1.617.844.113,1.631.362,1.748.552.118.19.519.347.891.348s1.385.653,2.251,1.448c1.045.96,2.091,1.515,3.11,1.652.844.113,1.631.362,1.748.552.118.19.519.347.891.348s1.385.653,2.251,1.448c1.045.96,2.091,1.515,3.11,1.652.844.113,1.631.362,1.748.552.118.19.519.347.891.348s1.385.653,2.251,1.448c1.045.96,2.091,1.515,3.11,1.652.844.113,1.631.362,1.748.552.118.19.519.347.891.348s1.385.653,2.251,1.448c1.045.96,2.091,1.515,3.11,1.652.844.113,1.631.362,1.748.552.118.19.519.347.891.348s1.346.617,2.165,1.369c.819.753,1.899,1.478,2.4,1.613c3.238.868,4.322,1.353,6.047,2.702c1.065.833,2.235,1.517,2.6,1.52c1.307.012,3.497,1.019,5.422,2.494c1.076.825,2.246,1.503,2.6,1.506c1.287.012,3.486,1.028,5.4,2.494c1.076.825,2.246,1.503,2.6,1.506c1.287.012,3.486,1.028,5.4,2.494c1.076.825,2.246,1.503,2.6,1.506c1.287.012,3.486,1.028,5.4,2.494c1.076.825,2.246,1.503,2.6,1.506c1.287.012,3.486,1.028,5.4,2.494c1.076.825,2.27,1.5,2.654,1.5c4.414,0,10.416,8.749,6.688,9.748-1.181.316-205.643.326-206.467.009-.477-.183-.633-.818-.633-2.581c0-3.563,2.787-6.181,7.702-7.235c1.332-.286,2.342-.838,3.256-1.779c1.004-1.034,1.982-1.527,4.032-2.033c1.937-.478,3.062-1.022,3.958-1.914c1.403-1.396,3.034-2.215,4.411-2.215.506,0,1.693-.585,2.637-1.3c2.415-1.829,4.037-2.658,5.244-2.681.572-.01,1.812-.604,2.756-1.319c2.415-1.829,4.037-2.658,5.244-2.681.572-.01,1.812-.604,2.756-1.319c2.415-1.829,4.037-2.658,5.244-2.681.572-.01,1.812-.604,2.756-1.319c2.415-1.829,4.037-2.658,5.244-2.681.572-.01,1.812-.604,2.756-1.319c2.415-1.829,4.037-2.658,5.244-2.681.572-.01,1.812-.604,2.756-1.319c2.415-1.829,4.037-2.658,5.244-2.681.572-.01,1.812-.604,2.756-1.319c2.415-1.829,4.037-2.658,5.244-2.681.572-.01,1.812-.604,2.756-1.319c2.415-1.829,4.037-2.658,5.244-2.681.572-.01,1.812-.604,2.756-1.319c2.329-1.764,3.935-2.579,5.622-2.853.78-.127,2.13-.836,3-1.577c2.2-1.872,4.521-2.342,8.066-1.633m-78.665,73.602c-2.077,2.366-2.019,1.001-2.019,47.316v43.903l1.744.871c2.655,1.326,29.524,1.362,31.202.042l1.054-.829-.011-44.471-.012-44.471-.92-1.8-.92-1.8-14.423-.105-14.422-.105-1.273,1.449m60.96-.924c-1.852,2.13-1.779.159-1.779,47.883v44.676l1.3.688c2.107,1.114,29.685.802,31-.351l.9-.789v-44.331c0-47.669.095-45.304-1.91-47.591-.781-.891-28.746-1.066-29.511-.185m59.607.785c-1.269,2.099-1.44,90.862-.177,92.217c1.203,1.292,28.273,1.373,31.091.094l1.7-.772v-44.259c0-48.495.126-45.879-2.305-47.791-.956-.752-1.674-.789-15.263-.789h-14.26l-.786,1.3m-90.384,2c.12.495.168,20.88.108,45.3l-.11,44.4-13.8.115c-7.59.064-14.385.011-15.1-.118l-1.3-.233v-44.128c0-44.038.002-44.13.829-45.182l.829-1.054h14.163h14.164l.217.9m60.154.2c.33.801.424,13.1.348,45.3L215,262.6l-14.2.112c-7.81.061-14.605.012-15.1-.108l-.9-.219v-44.207c0-40.02.061-44.3.646-45.192l.646-.986h14.105h14.106l.453,1.1m60.221-.211c.555.792.623,5.742.623,45.192v44.304l-.9.219c-.495.12-7.29.169-15.1.108l-14.2-.112-.102-44.269c-.065-28.186.041-44.644.29-45.3L245.98,172h14.187h14.188l.622.889M101.4,278.115c-1.642,1.99-1.8,3.227-1.8,14.056v10.544l1.16,1.243l1.161,1.242h98.259h98.258l.991-1.069c1.415-1.526,1.435-1.731,1.297-12.96-.13-10.5-.163-10.722-1.888-12.871-.722-.899-196.697-1.082-197.438-.185M298.643,280.7c.807,1.063.794,21.52-.014,22.329-.942.941-196.056.851-197.098-.091-1.048-.949-1.124-20.367-.085-21.952l.646-.986h98.01c92.874,0,98.038.037,98.541.7"
       fill="#a48c8c"
       fill-rule="evenodd"
       id="path25" />
    <path
       d="M196.2,94.643c-2.195.545-5.376,2.253-5.619,3.017-.134.421-.843.782-1.882.957-.918.155-1.945.42-2.284.588-.338.169-1.291.638-2.117,1.043-.827.405-1.599,1.04-1.717,1.412-.134.421-.843.782-1.882.957-.918.155-1.945.42-2.284.588-.338.169-1.291.638-2.117,1.043-.827.405-1.599,1.04-1.717,1.412-.134.421-.843.782-1.882.957-.918.155-1.945.42-2.284.588-.338.169-1.291.638-2.117,1.043-.827.405-1.599,1.04-1.717,1.412-.134.421-.843.782-1.882.957-.918.155-1.945.42-2.284.588-.338.169-1.291.638-2.117,1.043-.827.405-1.599,1.04-1.717,1.412-.134.421-.843.782-1.882.957-.918.155-1.945.42-2.284.588-.338.169-1.291.638-2.117,1.043-.827.405-1.599,1.04-1.717,1.412-.134.421-.843.782-1.882.957-.918.155-1.945.42-2.284.588-.338.169-1.278.631-2.088,1.027-.811.397-1.554,1.027-1.652,1.401-.115.443-.783.782-1.911.973-.953.161-2.01.431-2.349.599-.338.169-1.278.631-2.088,1.027-.811.397-1.554,1.027-1.652,1.401-.115.443-.783.782-1.911.973-.953.161-2.01.431-2.349.599-.338.169-1.278.631-2.088,1.027-.811.397-1.554,1.027-1.652,1.401-.115.443-.783.782-1.911.973-.953.161-2.01.431-2.349.599-.338.169-1.29.637-2.115,1.042-.825.404-1.5.97-1.5,1.257c0,.286-.225.591-.5.676s-1.58.472-2.9.86c-2.835.834-4.083,1.561-4.401,2.563-.148.468-.78.825-1.747.988-3.206.542-5.872,1.813-6.242,2.976-.169.533-.758.846-1.927,1.023-2.941.446-5.445,1.69-6.255,3.107-.346.604-.841,1.099-1.101,1.1-1.177.007-2.127,2.283-2.114,5.065.017,3.471.687,4.388,3.609,4.942c2.551.484,206.81.507,209.754.024c4.301-.706,5.467-6.283,2.009-9.608-.872-.839-1.967-1.952-2.433-2.473-.494-.552-1.912-1.25-3.4-1.672-1.404-.399-2.777-.799-3.052-.888s-.5-.431-.5-.76c0-.947-2.913-2.305-6.093-2.843-1.086-.183-1.657-.526-1.887-1.132-.442-1.163-2.912-2.322-6.149-2.886-1.047-.182-1.632-.536-1.855-1.124-.438-1.153-2.92-2.314-6.145-2.876-1.047-.182-1.632-.536-1.855-1.124-.438-1.153-2.92-2.314-6.145-2.876-1.047-.182-1.632-.536-1.855-1.124-.436-1.147-2.922-2.315-6.102-2.868-.961-.167-1.572-.526-1.727-1.016-.367-1.156-3.044-2.427-6.255-2.97-.843-.142-1.532-.424-1.532-.626c0-1.138-3.24-2.828-6.468-3.374-.843-.142-1.532-.424-1.532-.626c0-1.138-3.24-2.828-6.468-3.374-.843-.142-1.532-.424-1.532-.626c0-1.138-3.24-2.828-6.468-3.374-.843-.142-1.532-.424-1.532-.626c0-1.138-3.24-2.828-6.468-3.374-.843-.142-1.532-.424-1.532-.626c0-1.138-3.24-2.828-6.468-3.374-.843-.142-1.532-.424-1.532-.626c0-2.152-9.397-4.412-13.8-3.319m8.967,1.745c1.186.433,2.552,1.16,3.035,1.614.484.455,2.121,1.273,3.639,1.819c1.517.547,3.209,1.353,3.759,1.791c1.179.942,2.683,1.684,5.326,2.628c1.059.379,2.574,1.204,3.366,1.833.792.63,1.906,1.259,2.474,1.399c1.815.446,4.607,1.756,5.475,2.569.462.433,2.082,1.234,3.6,1.78c1.517.547,3.209,1.353,3.759,1.791c1.179.942,2.683,1.684,5.326,2.628c1.059.379,2.555,1.188,3.324,1.8.769.611,2.602,1.508,4.074,1.994c1.472.485,3.244,1.376,3.939,1.979.694.603,2.494,1.505,4,2.003c1.505.499,3.396,1.464,4.2,2.145.817.691,2.57,1.559,3.965,1.963c1.434.415,3.141,1.268,4,2c.86.732,2.566,1.585,4,2s3.141,1.268,4,2c.86.732,2.566,1.585,4,2s3.141,1.268,4,2c.86.732,2.566,1.585,4,2c1.517.439,3.134,1.266,4.109,2.1.884.757,1.83,1.376,2.102,1.376c3.798,0,8.761,5.399,8.487,9.232-.266,3.725,11.153,3.354-106.646,3.47l-103.32.103-2.18-1.032-2.18-1.031v-2.088c0-2.919,3.626-6.923,7.417-8.189c3.017-1.007,4.583-1.713,4.583-2.066c0-.268,1.629-1.132,3.6-1.909c3.068-1.21,4.4-1.842,4.4-2.088c0-.274,1.505-1.07,3.8-2.009c1.946-.796,3.545-1.662,4.4-2.384.44-.372,1.7-.987,2.8-1.368c2.353-.815,4.09-1.694,5.2-2.632.44-.372,1.7-.987,2.8-1.368c2.353-.815,4.09-1.694,5.2-2.632.44-.372,1.7-.987,2.8-1.368c2.353-.815,4.09-1.694,5.2-2.632.44-.372,1.7-.987,2.8-1.368c2.353-.815,4.09-1.694,5.2-2.632.44-.372,1.7-.987,2.8-1.368c2.353-.815,4.09-1.694,5.2-2.632.44-.372,1.7-.987,2.8-1.368c2.353-.815,4.09-1.694,5.2-2.632.44-.372,1.7-.987,2.8-1.368c2.353-.815,4.09-1.694,5.2-2.632.44-.372,1.7-.987,2.8-1.368c2.353-.815,4.09-1.694,5.2-2.632.44-.372,1.7-.987,2.8-1.368c2.337-.81,4.103-1.702,5.14-2.598c2.376-2.052,8.364-2.667,12.227-1.255M123,168.519c-2.999,1.698-2.788-1.832-2.907,48.519-.106,44.984-.102,45.243.708,46.273c1.368,1.738,3.593,1.938,20.14,1.807L155.979,265l.91-.911.911-.911v-45.889c0-49.331.067-47.698-2.026-49.07-1.763-1.155-30.671-.891-32.774.3m60.97-.219c-.567.344-1.512,1.645-2.1,2.891l-1.07,2.265v44.397v44.397l1.1,1.05c1.924,1.835,2.537,1.9,18.029,1.9c15.561,0,16.483-.091,18.43-1.826l1.241-1.106v-44.143-44.143l-1.161-2.56c-1.807-3.985-1.038-3.828-18.519-3.785-12.793.031-15.067.125-15.95.663m59.83.521l-1.2,1.176-.118,45.702c-.064,25.135-.009,46.3.124,47.031.446,2.455,1.023,2.528,18.732,2.391c16.589-.128,16.801-.152,18.353-2.068c1.062-1.311,1.085-88.631.024-91.44-1.514-4.008-1.561-4.018-19.664-3.99L245,167.646l-1.2,1.175m-88.765.979c1.754,1.893,1.76,2.067,1.763,48.225l.002,44.225-1.122,1.075-1.122,1.075-14.578-.007c-14.404-.006-14.597-.017-16.178-.912l-1.6-.906-.102-44.326c-.099-43.089-.08-44.375.673-46.077c1.495-3.38,1.437-3.369,17.383-3.371l13.954-.001.927,1m60.269.013c2.368,2.368,2.296.847,2.296,48.562c0,48.278.208,44.229-2.343,45.595-1.841.985-29.357.552-30.898-.486L183,262.568l-.102-44.431c-.111-48.613-.222-46.148,2.182-48.376l1.037-.961h14.087h14.087l1.013,1.013m59.907-.329c3.426,2.368,3.189-1.247,3.189,48.633v44.091l-.9.584c-2.488,1.617-2.392,1.608-17.325,1.608h-14.534l-1.02-.946-1.021-.946v-44.805c0-48.106-.05-46.861,1.941-48.376c1.15-.875,28.386-.731,29.67.157M99.642,276.76c-.745.696-1.242,1.559-1.242,2.155c0,.546-.269,1.509-.598,2.139-.482.925-.598,3.03-.6,10.907-.002,10.912.358,12.588,3.223,14.999l1.242,1.045l98.676-.103l98.676-.102l1.037-1c.569-.55,1.516-1.904,2.104-3.008l1.068-2.009-.136-9.991c-.124-9.119-.213-10.202-1.019-12.392-1.564-4.251,10.58-3.8-102.263-3.8h-98.925l-1.243,1.16m199.683,1.162c.591.617,1.075,1.416,1.075,1.776s.18.766.4.902c.625.386.532,21.584-.1,22.672-1.492,2.568,8.806,2.341-100.781,2.229l-98.88-.101-1.106-1.6-1.106-1.6-.014-9.829c-.014-10.74.267-12.542,2.27-14.545l1.026-1.026h98.071h98.07l1.075,1.122"
       fill="#84646c"
       fill-rule="evenodd"
       id="path27" />
  </g>
</svg>
