<svg id="emVXGNzrP1B1" xmlns="http://www.w3.org/2000/svg" xmlns:xlink="http://www.w3.org/1999/xlink" viewBox="0 0 400 400" shape-rendering="geometricPrecision" text-rendering="geometricPrecision"><g><path d="M197.07,69.644c-.622.167-1.432.65-1.8,1.074-1.012,1.165-3.689,2.882-4.493,2.882-.392,0-1.106.638-1.589,1.419-.568.919-1.281,1.5-2.027,1.649-1.053.21-1.656.679-3.664,2.846-.387.418-1.691,1.243-2.899,1.834-1.207.591-2.474,1.501-2.815,2.022-.342.522-1.52,1.335-2.619,1.807-1.288.554-2.129,1.206-2.368,1.833-.221.581-1.104,1.319-2.192,1.83-1.002.471-2.136,1.256-2.521,1.745-.873,1.11-3.533,2.801-4.962,3.153-.602.149-1.31.736-1.6,1.328-.535,1.089-.683,1.194-3.187,2.263-.806.344-1.575.969-1.708,1.39-.345,1.086-2.354,1.948-5.826,2.5-3.055.485-3.924.785-4.869,1.678-1.024.969-2.557,1.505-5.531,1.933-1.65.237-3.913.563-5.028.724-1.358.196-2.547.704-3.6,1.538-1.388,1.099-2.134,1.324-6.372,1.922-5.491.776-5.788.895-8.119,3.249-.945.956-1.847,1.737-2.003,1.737-1.088,0-1.69,2.789-2.501,11.6-.233,2.53-.593,4.771-.8,4.98-.208.209-.377.704-.377,1.1s-.159.72-.354.72c-.63,0-1.544,2.536-1.803,5-.138,1.32-.428,4.29-.644,6.6-.407,4.356-.809,5.831-2.1,7.705-.82,1.192-1.228,3.502-1.888,10.695-.437,4.762-.894,6.471-2.069,7.746-.378.41-.807,1.49-.954,2.4-.451,2.789-1.569,4.912-2.741,5.206-.576.145-1.047.412-1.047.594c0,.948-1.721,2.042-4.403,2.8-2.153.608-3.282,1.172-4.007,2.002-.725.829-1.854,1.393-4,2-2.194.62-3.27,1.165-4.043,2.049-.58.662-1.61,1.316-2.291,1.452-1.936.387-2.181,1.018-2.516,6.482-.341,5.558-.8,7.886-2.007,10.179-.862,1.637-1.218,4.531-1.914,15.576-.427,6.763-1.004,9.964-2.22,12.316-.725,1.402-1.183,5.355-1.806,15.581-.412,6.768-.691,8.259-2.062,11.017-.875,1.762-1.277,5.083-1.925,15.912-.414,6.921-.664,8.328-2,11.298-1.278,2.838-1.195,4.262.294,5.026.924.474,8.313.581,46.117.672l45.017.109l1.183-1.662c.651-.914,1.574-2.083,2.053-2.597.593-.637.946-1.668,1.111-3.246c1.059-10.149,1.649-12.856,3.085-14.147.533-.479.809-1.707,1.122-5c.725-7.633,1.989-12.565,3.219-12.565.184,0,.439-1.035.565-2.3.97-9.728,1.642-12.828,3.056-14.102.368-.331.803-1.411.968-2.4.425-2.557,1.197-3.848,2.592-4.334.667-.232,1.212-.693,1.212-1.023c0-.713,2.408-2.641,3.298-2.641.343,0,.991-.623,1.44-1.385.468-.793,1.421-1.638,2.228-1.975.775-.324,2.017-1.185,2.759-1.915c1.708-1.677,3.551-3.125,3.977-3.125.181,0,1.042-.706,1.914-1.569s2.211-1.776,2.976-2.028c.843-.279,1.592-.882,1.9-1.531.313-.661,1.313-1.455,2.607-2.072c1.154-.55,2.099-1.25,2.1-1.556.001-.671.84-1.351,3.096-2.51.932-.479,1.799-1.2,1.927-1.602.127-.403.387-.732.576-.732.19,0,.583-.232.873-.516c1.129-1.103,2.546-1.884,3.418-1.884.636,0,.911-.235.911-.78c0-1.102,2.281-2.682,4.367-3.024.971-.159,2.133-.63,2.581-1.048.698-.65.862-.674,1.146-.166.182.326.94.881,1.683,1.234c2.011.954,7.558,6.642,10.041,10.296.535.787,1.32,1.541,1.744,1.676.425.135,1.098,1.033,1.497,1.997.524,1.266,1.004,1.81,1.733,1.962.96.201,2.408,2.127,2.408,3.205c0,.268.604.706,1.341.972.965.349,1.546.937,2.067,2.093.47,1.042,1.188,1.828,2.04,2.232.885.421,1.462,1.072,1.767,1.997.317.961.909,1.605,1.975,2.149.913.466,1.681,1.222,1.92,1.891.219.613.734,1.416,1.144,1.786c2.848,2.567,2.813,2.508,3.1,5.146.783,7.171,1.003,8.474,1.534,9.102c1.499,1.769,2.075,4.878,3.086,16.667.248,2.888.565,4.529.928,4.8c1.303.977,2.474,7.129,2.893,15.213.256,4.928,1.183,7.452,3.593,9.789l1.288,1.247l35.642-.118c28.727-.095,35.743-.22,36.162-.642.827-.834.514-7.306-.435-8.996-1.47-2.617-2.053-7.54-3.058-25.803-.158-2.87-.444-4.512-.941-5.4-1.394-2.496-2.204-9.284-3.048-25.575-.161-3.111-.426-4.658-.958-5.6-.937-1.661-1.938-7.311-2.248-12.702-.404-7.001-.788-8.389-2.728-9.871-.915-.699-2.654-2.2-3.864-3.336-1.21-1.135-2.695-2.323-3.3-2.639s-1.1-.723-1.1-.905c0-.582-2.386-2.849-2.998-2.849-.326,0-1.051-.727-1.612-1.616-.561-.888-1.477-1.789-2.035-2.001-1.122-.427-2.155-1.33-2.155-1.885c0-.556-1.694-1.974-2.737-2.291-.543-.165-1.176-.859-1.508-1.652-.408-.976-1.016-1.546-2.126-1.99-1.013-.405-1.721-1.021-2.029-1.765-.26-.628-1.175-1.606-2.032-2.174-1.252-.828-1.61-1.348-1.816-2.638-.142-.883-.413-1.702-.605-1.82-.191-.119-.347-.591-.347-1.051s-.594-1.413-1.319-2.117c-1.069-1.038-1.45-1.881-2.006-4.441-.568-2.61-.923-3.38-2.041-4.431-.975-.917-1.428-1.757-1.616-3-.53-3.506-.713-3.962-2.227-5.537-1.192-1.241-1.602-2.039-1.797-3.499-.326-2.445-.97-4.094-1.989-5.092-1.11-1.088-1.655-2.323-2.414-5.472-.459-1.907-1.014-3.065-1.939-4.045-1.035-1.097-1.447-2.067-2.052-4.828-.416-1.9-.877-3.455-1.024-3.455-.727,0-2.321-2.198-2.547-3.512-.557-3.249-1.204-5.288-1.677-5.288-.823,0-2.106-2.169-2.393-4.042-.388-2.541-.736-3.007-2.753-3.694-.995-.339-2.472-1.242-3.281-2.005-.908-.856-2.302-1.625-3.633-2.004-1.188-.338-2.94-1.254-3.894-2.035-.953-.781-2.007-1.42-2.342-1.42s-.72-.18-.856-.4-.71-.4-1.276-.4c-.645,0-1.496-.492-2.277-1.317-.768-.811-2.245-1.673-3.847-2.246-1.672-.597-3.043-1.412-3.842-2.283-.684-.745-1.442-1.354-1.685-1.354-1.699,0-5.083-1.528-5.976-2.699-.546-.716-1.288-1.301-1.65-1.301-1.45,0-5.077-1.662-6.032-2.765-.661-.763-1.806-1.398-3.287-1.823-1.365-.392-2.853-1.185-3.728-1.986-.801-.734-2.422-1.638-3.603-2.01-1.215-.382-2.779-1.27-3.601-2.045-.799-.754-1.79-1.371-2.201-1.371s-.859-.18-.995-.4-.71-.4-1.276-.4c-.66,0-1.507-.506-2.358-1.409-1.462-1.55-3.917-2.277-5.896-1.747" fill="#d2c2c2" fill-rule="evenodd"/><path d="M195.231,68.211c-.973.318-2.285,1.106-2.916,1.752-.631.645-1.901,1.566-2.822,2.046-.922.48-1.901,1.196-2.177,1.59-.277.394-1.361,1.216-2.409,1.825-1.049.61-2.676,1.78-3.617,2.601-.94.821-2.29,1.77-3,2.108-.709.338-1.91,1.256-2.668,2.041-.759.784-1.599,1.426-1.867,1.426s-1.26.72-2.204,1.6c-.943.88-1.862,1.6-2.042,1.6-.535,0-3.621,2.119-4.762,3.27-.584.589-1.756,1.431-2.604,1.873-.849.441-2.057,1.359-2.686,2.039s-1.889,1.579-2.8,1.997-2.018,1.1-2.46,1.515c-.952.897-3.61,1.809-7.997,2.743-1.76.375-3.65.994-4.2,1.376-1.083.751-3.866,1.542-9.19,2.612-3.164.636-4.717,1.187-5.22,1.853-.231.305-2.778.992-5.612,1.514-6.342,1.167-9.202,3.608-9.94,8.485-.981,6.478-1.708,9.918-2.407,11.383-.619,1.299-1.218,4.371-2.173,11.14-.431,3.063-1.195,6.1-1.862,7.408-.648,1.27-1.269,4.433-1.843,9.392-.337,2.915-1.421,7.576-2.138,9.2-.39.88-1.015,3.459-1.391,5.731-.68,4.107-1.612,6.069-2.882,6.069-.283,0-1.105.514-1.828,1.142s-2.657,1.62-4.298,2.205c-1.641.586-3.441,1.49-4,2.01-.559.519-2.327,1.408-3.929,1.974-1.639.579-3.64,1.651-4.572,2.449-.913.781-1.773,1.42-1.913,1.42-.599,0-1.923,3.174-2.171,5.2-.148,1.21-.609,3.19-1.024,4.4-.713,2.074-1.195,5.662-2.018,15-.504,5.724-1.139,9.645-2.008,12.4-.72,2.282-1.192,5.819-1.975,14.8-.489,5.601-1.142,9.6-2.025,12.4-.711,2.254-1.103,5.175-1.984,14.8-.536,5.846-1.16,9.686-2.016,12.4-.954,3.023-1.676,10.084-1.338,13.083.44,3.911-4.581,3.543,48.329,3.539l46.679-.004l1.197-.852c2.431-1.731,3.617-4.682,4.167-10.366.27-2.79.898-5.24,2-7.8.811-1.885,1.57-5.372,1.958-9c.3-2.806.976-5.956,1.416-6.6.961-1.406,2.178-6.508,2.623-11c.25-2.518.988-5.305,1.811-6.843.577-1.078,1.964-6.759,1.971-8.075.003-.662.397-1.478.964-2c.527-.485,1.869-1.737,2.983-2.782s2.221-1.9,2.461-1.9s1.249-.802,2.243-1.781c.993-.98,2.191-1.904,2.662-2.053s1.092-.473,1.381-.719c.288-.246,1.43-1.167,2.536-2.047c1.107-.88,2.859-2.341,3.894-3.247s2.453-1.939,3.15-2.294c.698-.356,1.638-1.166,2.09-1.8s1.411-1.396,2.132-1.693c.72-.296,1.85-1.027,2.51-1.622c2.318-2.093,3.125-2.744,3.399-2.744.152,0,1.305-.9,2.562-2s2.443-2,2.636-2c.192,0,1.143-.816,2.113-1.814c3.387-3.485,6.478-3.231,10.09.828c1.1,1.236,2.81,3.12,3.8,4.187s2.79,3.052,4,4.412c1.21,1.359,2.936,3.218,3.835,4.129.899.912,2.028,2.232,2.51,2.934s1.186,1.376,1.565,1.497c.38.122,1.202,1.033,1.827,2.024.625.992,1.293,1.803,1.484,1.803.448,0,2.379,2.078,2.379,2.56c0,.384,2.371,2.64,2.774,2.64.127,0,.455.495.729,1.1s1.062,1.73,1.751,2.5c1.719,1.921,2.398,3.68,2.78,7.2.749,6.903,1.228,9.544,2.351,12.977.717,2.189,1.353,5.285,1.608,7.823.696,6.926,1.48,11.357,2.37,13.4.725,1.662,1.219,4.134,1.641,8.2.912,8.806,1.653,10.907,4.29,12.164c1.799.858,73.757,1.024,74.783.172c2.467-2.048,2.28-11.461-.471-23.736-.958-4.269-1.411-7.868-1.842-14.6-.489-7.659-.795-10.202-1.752-14.6-1.115-5.117-1.366-6.875-1.805-12.6-.741-9.676-1.257-14.135-2.083-18-.447-2.09-.895-4.34-.996-5-1.046-6.858-1.858-9.269-3.481-10.332-.546-.358-1.79-1.42-2.765-2.36-2.019-1.947-5.132-4.676-6.848-6.005-.641-.497-2.149-1.843-3.351-2.992s-2.483-2.184-2.848-2.3c-.364-.115-.975-.739-1.357-1.386s-1.051-1.289-1.486-1.428c-.436-.138-.792-.419-.792-.624s-.24-.373-.532-.373c-.293,0-.776-.454-1.073-1.009s-1.317-1.5-2.267-2.1-1.727-1.235-1.727-1.41c-.001-.176-.872-1.19-1.936-2.254-1.388-1.388-2.084-2.486-2.462-3.881-.623-2.299-1.432-4.042-2.391-5.146-.381-.44-1.198-2.379-1.815-4.31-.616-1.93-1.544-4-2.061-4.6-.518-.599-1.041-1.45-1.164-1.89-.122-.44-.37-1.16-.552-1.6-.181-.44-.569-1.599-.863-2.575s-.95-2.268-1.458-2.872c-.507-.603-1.444-2.659-2.082-4.568-.637-1.909-1.526-3.862-1.974-4.339s-1.11-1.853-1.47-3.057c-.934-3.122-1.77-5.035-2.58-5.904-.386-.415-1.21-2.348-1.83-4.294-.621-1.947-1.444-3.81-1.83-4.141-.698-.598-1.755-3.044-2.775-6.425-.294-.976-.934-2.248-1.421-2.826-.487-.579-1.199-1.838-1.583-2.798-.687-1.717-1.838-3.201-2.482-3.201-.18,0-1.08-.643-1.998-1.43-.919-.786-2.704-1.793-3.968-2.237-2.858-1.004-3.736-1.464-4.539-2.379-.348-.397-2.099-1.295-3.892-1.997-2.08-.814-3.344-1.544-3.494-2.016-.129-.408-.39-.741-.58-.741-.713,0-5.448-2.437-6.601-3.397-.66-.549-1.427-1-1.705-1.001s-.818-.156-1.2-.345c-2.604-1.285-3.596-1.863-4.327-2.521-.458-.411-1.718-1.068-2.8-1.459-2.494-.902-4.437-1.934-4.848-2.577-.407-.637-3.118-1.9-4.077-1.9-.402,0-1.548-.72-2.548-1.6s-2.018-1.6-2.262-1.6-.756-.165-1.138-.367c-.382-.201-1.301-.592-2.042-.868-.741-.275-1.731-.908-2.2-1.406-.469-.497-2.293-1.472-4.053-2.166-1.76-.693-3.344-1.516-3.52-1.827-.958-1.696-6.318-2.578-9.449-1.555m8.758,1.887c.977.836,2.656,1.729,4.022,2.138c1.29.386,2.94,1.216,3.667,1.844c1.547,1.336,3.069,2.157,4.639,2.502.619.136,1.816.844,2.661,1.574.844.729,2.454,1.653,3.578,2.052c1.124.4,2.134.843,2.244.986.496.644,5.122,3.165,6.213,3.386.668.135,1.748.707,2.4,1.271c1.354,1.17,3.505,2.32,5.021,2.683.568.136,1.738.808,2.599,1.492c1.484,1.179,4.515,2.774,5.273,2.774.193,0,1.071.617,1.953,1.372.881.754,2.593,1.706,3.804,2.115s2.849,1.276,3.64,1.928s2.802,1.691,4.468,2.31s3.029,1.292,3.029,1.497c0,.204.972.92,2.16,1.59c1.85,1.044,2.285,1.527,3.033,3.371.48,1.183,1.298,2.728,1.818,3.432.519.704,1.242,2.294,1.607,3.533.828,2.817,1.328,3.928,2.465,5.478.494.674,1.193,2.204,1.552,3.4c1.037,3.447,1.448,4.41,2.364,5.527.472.576,1.352,2.577,1.955,4.447s1.36,3.603,1.682,3.852c.573.442,2.564,5.061,2.564,5.947c0,.247.605,1.452,1.344,2.679.738,1.227,1.663,3.197,2.054,4.377.979,2.953,1.439,3.945,2.499,5.389.502.685,1.192,2.215,1.533,3.4.798,2.775,1.685,4.698,2.64,5.723.418.449.864,1.271.99,1.825.821,3.622,2.212,5.773,5.909,9.142.644.586,1.951,1.831,2.906,2.766s1.914,1.7,2.131,1.7.394.168.394.373.351.484.78.621c.428.136.884.553,1.012.926.128.374.826,1.13,1.551,1.68s2.565,2.111,4.088,3.47c1.523,1.358,3.849,3.388,5.169,4.512c2.417,2.057,5.743,5.052,7.172,6.459c1.061,1.045,1.749,3.228,2.065,6.552.147,1.544.523,3.977.836,5.407c1.374,6.268,1.982,11.001,2.954,23c.25,3.08.721,6.86,1.048,8.4c1.496,7.049,2.108,11.843,2.938,23c.377,5.06.733,7.415,1.632,10.8c1.973,7.427,2.142,17.855.322,19.774-.544.573-71.448.724-72.967.156-1.564-.586-3.733-2.878-4.021-4.249-.125-.595-.312-1.441-.417-1.881-.104-.44-.349-2.15-.545-3.8-.854-7.21-1.296-9.784-2.016-11.728-.833-2.252-1.516-5.683-2.005-10.072-.651-5.836-1.287-9.295-2.232-12.128-.538-1.611-1.155-4.311-1.372-6-1.212-9.432-1.273-9.659-3.265-12.072-1.75-2.121-1.927-2.353-1.927-2.525c0-.087-1.702-1.908-3.783-4.047-2.08-2.138-3.88-4.19-3.999-4.558-.119-.369-.847-1.098-1.617-1.622-.771-.523-1.401-1.13-1.401-1.349c0-.372-1.659-2.212-6.058-6.718-1.023-1.047-2.013-2.175-2.2-2.508-.692-1.223-7.945-8.733-9.162-9.485-1.697-1.049-5.396-.212-7.054,1.595-.59.644-1.85,1.674-2.8,2.289-.949.614-2.086,1.498-2.526,1.963s-1.61,1.393-2.6,2.063c-.99.669-2.25,1.62-2.8,2.113-.55.492-1.945,1.507-3.1,2.254-1.155.748-2.1,1.517-2.1,1.708c0,.192-.945.977-2.1,1.744-1.155.768-2.441,1.773-2.859,2.236-.417.462-1.534,1.294-2.481,1.849-.948.556-1.956,1.333-2.242,1.728-.285.395-1.598,1.384-2.918,2.199s-3.107,2.199-3.97,3.076c-.864.877-1.772,1.595-2.019,1.595-1.166,0-5.752,5.078-5.993,6.637-.133.86-.416,2.116-.63,2.791-.213.676-.388,1.451-.388,1.722c0,.272-.36,1.283-.799,2.248-.841,1.846-1.233,3.556-2.016,8.802-.487,3.262-1.466,7.279-1.95,8-.563.84-1.206,3.319-1.659,6.4-.896,6.09-1.725,9.957-2.314,10.784-.816,1.149-1.466,4.147-2.299,10.616-.478,3.71-2.694,7.484-4.905,8.354-1.575.62-92.681.383-93.307-.243-1.16-1.16-1.151-5.709.023-11.311c1.996-9.532,2.444-12.582,3.044-20.754.136-1.845.52-4.545.854-6c1.791-7.806,2.314-11.255,2.921-19.246.226-2.97.579-6.12.785-7c1.986-8.484,2.304-10.248,2.815-15.6.787-8.233,1.18-11.598,1.545-13.2c1.618-7.108,2.062-9.297,2.064-10.181.003-1.749,4.755-6.143,7.198-6.657.55-.116,1.313-.379,1.695-.586s.934-.376,1.228-.376c.293,0,1.281-.641,2.196-1.424.935-.799,2.285-1.524,3.082-1.654.78-.126,1.515-.386,1.632-.576.118-.19.531-.346.919-.346.387,0,1.44-.63,2.34-1.4.899-.77,1.822-1.4,2.051-1.4.969,0,2.369-2.648,2.644-5c.154-1.32.81-3.978,1.457-5.907c1.15-3.427,2.02-7.717,2.524-12.445.138-1.294.792-3.952,1.452-5.907c1.2-3.552,2.064-7.837,2.569-12.741.148-1.43.8-4.178,1.45-6.107c1.165-3.458,2.037-7.731,2.563-12.561.356-3.262,4.053-7.057,7.308-7.503c4.281-.585,6.141-1.11,9.69-2.733c1.21-.553,3.01-1.127,4-1.274c4.133-.616,6.357-1.222,9.085-2.475c1.587-.728,3.927-1.494,5.2-1.702c2.958-.482,6.195-1.561,6.733-2.243.23-.292,1.533-1.184,2.895-1.983c1.362-.798,2.666-1.806,2.899-2.241.232-.435,1.18-1.152,2.105-1.594.926-.443,2.463-1.52,3.417-2.394.954-.875,1.989-1.59,2.3-1.59s.566-.18.566-.4.232-.4.517-.4c.284,0,1.174-.62,1.978-1.378.803-.758,2.056-1.683,2.783-2.054.727-.372,1.862-1.261,2.522-1.975s1.832-1.59,2.604-1.946c.773-.356,1.88-1.088,2.461-1.627s2.11-1.65,3.396-2.469s2.588-1.837,2.891-2.262c.304-.426,1.171-1.032,1.927-1.348s2.128-1.266,3.048-2.112c2.895-2.66,8.157-2.818,11.062-.331" fill="#806064" fill-rule="evenodd"/><path d="M158,0.976v.976l-7.568.124c-8.401.138-8.015.032-8.318,2.291L141.895,6h-5.468C130.32,6,130,6.124,130,8.48v1.52h-4.774c-5.974,0-6.729.255-7.07,2.388L117.898,14h-3.321c-3.81,0-4.577.441-4.577,2.629v1.371h-3.371c-3.843,0-4.629.436-4.629,2.569v1.312l-3.248.251c-3.671.283-4.255.599-4.429,2.398-.117,1.21-.218,1.28-2.123,1.47l-2,.2-.122,1.9-.122,1.9h-3.349C82.773,30,82,30.438,82,32.607c0,1.326-.033,1.351-1.9,1.471l-1.9.122-.12,1.853-.12,1.854-2.28.17c-3.04.227-4.561,1.009-5.01,2.576-.319,1.114-.556,1.275-2.134,1.453-2.16.243-2.151.235-2.422,2.261C65.908,45.903,65.816,46,64.576,46C62.883,46,62,46.901,62,48.629C62,49.95,61.944,50,60.48,50c-1.916,0-2.48.564-2.48,2.48c0,1.493-.027,1.52-1.52,1.52-1.916,0-2.48.564-2.48,2.48c0,1.493-.027,1.52-1.52,1.52-1.916,0-2.48.564-2.48,2.48c0,1.464-.05,1.52-1.371,1.52C46.886,62,46,62.886,46,64.629C46,65.886,45.9,66,44.8,66c-1.63,0-2.8,1.253-2.8,3c0,1.196-.135,1.4-.924,1.4-2.003,0-3.044,1.997-3.066,5.878L38,77.956l-1.9.122-1.9.122-.122,1.9c-.12,1.867-.145,1.9-1.471,1.9C30.624,82,30,82.85,30,85.554c0,2.455-1.148,4.181-3,4.511-.644.114-.824.508-.921,2.019-.12,1.858-.139,1.881-1.798,2.209-1.923.38-2.152.915-2.234,5.207L22,102h-1.371c-2.195,0-2.629.763-2.629,4.629v3.371h-1.371c-2.188,0-2.629.767-2.629,4.577v3.321l-1.612.258c-2.133.341-2.388,1.096-2.388,7.07v4.774h-1.52c-2.356,0-2.48.32-2.48,6.427v5.468l-1.633.219c-2.259.303-2.153-.083-2.291,8.318L1.952,158h-.976-.976v42v42h.976.976l.124,7.568c.138,8.401.032,8.015,2.291,8.318L6,258.105v5.319C6,269.407,6.237,270,8.629,270h1.371v4.774c0,5.948.26,6.73,2.349,7.064l1.575.252.138,3.522c.158,4.035.13,3.983,2.305,4.274l1.633.219v3.319c0,3.808.441,4.576,2.629,4.576h1.371l.047,2.3c.088,4.284.447,4.979,2.831,5.478.964.202,1.091.427,1.2,2.124L26.2,309.8l1.9.122l1.9.122v3.349c0,3.834.438,4.607,2.607,4.607c1.326,0,1.351.033,1.471,1.9l.122,1.9l1.9.122l1.9.122.031,1.878c.056,3.433.781,5.026,2.48,5.449c1.17.291,1.489.564,1.489,1.274c0,1.991.7,2.93,2.388,3.199c1.505.241,1.612.346,1.612,1.579c0,1.694.901,2.577,2.629,2.577c1.321,0,1.371.056,1.371,1.52c0,1.916.564,2.48,2.48,2.48c1.493,0,1.52.027,1.52,1.52c0,1.916.564,2.48,2.48,2.48c1.493,0,1.52.027,1.52,1.52c0,1.916.564,2.48,2.48,2.48c1.464,0,1.52.05,1.52,1.371c0,1.728.883,2.629,2.576,2.629c1.24,0,1.332.097,1.538,1.633.271,2.025.263,2.018,2.414,2.26c1.512.17,1.847.38,2.32,1.453.692,1.571,2.753,2.609,5.23,2.635l1.878.019.122,1.9.122,1.9l1.9.122c1.867.12,1.9.145,1.9,1.471c0,2.169.773,2.607,4.607,2.607h3.349l.122,1.9.122,1.9l1.881.121c1.861.12,1.884.138,2.212,1.798.38,1.923.915,2.152,5.207,2.234L102,378v1.371c0,2.188.768,2.629,4.576,2.629h3.319l.219,1.633c.291,2.175.239,2.147,4.274,2.305l3.522.138.252,1.575c.334,2.089,1.116,2.349,7.064,2.349h4.774v1.371c0,2.396.588,2.629,6.629,2.629h5.371v1.2c0,2.556.768,2.8,8.8,2.8h7.2v1v1h42h42v-1-1h7.371c8.234,0,8.629-.12,8.629-2.629v-1.371h5.371c6.041,0,6.629-.233,6.629-2.629v-1.371h4.774c5.948,0,6.73-.26,7.064-2.349l.252-1.575l3.522-.138c4.035-.158,3.983-.13,4.274-2.305l.219-1.633h3.319c3.808,0,4.576-.441,4.576-2.629v-1.371l2.3-.047c4.284-.088,4.979-.447,5.478-2.831.202-.964.427-1.091,2.124-1.2l1.898-.122.122-1.9.122-1.9h3.349c3.834,0,4.607-.438,4.607-2.607c0-1.326.033-1.351,1.9-1.471l1.9-.122.122-1.9.122-1.9l1.878-.031c3.433-.056,5.026-.781,5.449-2.48.334-1.346.498-1.489,1.7-1.489c1.673,0,2.929-1.2,2.929-2.8c0-1.1.114-1.2,1.371-1.2c1.743,0,2.629-.886,2.629-2.629c0-1.321.056-1.371,1.52-1.371c1.916,0,2.48-.564,2.48-2.48c0-1.493.027-1.52,1.52-1.52c1.916,0,2.48-.564,2.48-2.48c0-1.493.027-1.52,1.52-1.52c1.916,0,2.48-.564,2.48-2.48c0-1.464.05-1.52,1.371-1.52c1.728,0,2.629-.883,2.629-2.576c0-1.24.097-1.332,1.633-1.538c2.026-.271,2.018-.262,2.261-2.422.178-1.578.339-1.815,1.453-2.134c1.567-.449,2.349-1.97,2.576-5.01l.17-2.28l1.854-.12l1.853-.12.122-1.9c.12-1.867.145-1.9,1.471-1.9c2.169,0,2.607-.773,2.607-4.607v-3.349l1.9-.122l1.9-.122.121-1.881c.12-1.861.138-1.884,1.798-2.212c1.923-.38,2.152-.915,2.234-5.207L378,298h1.371c2.195,0,2.629-.763,2.629-4.629v-3.371h1.371c2.188,0,2.629-.767,2.629-4.577v-3.321l1.612-.258c2.133-.341,2.388-1.096,2.388-7.07v-4.774h1.371c2.392,0,2.629-.593,2.629-6.576v-5.319l1.633-.219c2.259-.303,2.153.083,2.291-8.318l.124-7.568h.976.976v-42-42h-.976-.976l-.124-7.568c-.138-8.401-.032-8.015-2.291-8.318L394,141.895v-5.319c0-5.983-.237-6.576-2.629-6.576h-1.371v-4.774c0-5.974-.255-6.729-2.388-7.07L386,117.898v-3.321c0-3.81-.441-4.577-2.629-4.577h-1.371v-3.371c0-3.866-.434-4.629-2.629-4.629h-1.371l-.047-2.5c-.082-4.292-.311-4.827-2.234-5.207-1.66-.328-1.678-.351-1.798-2.212L373.8,90.2l-1.9-.122-1.9-.122v-3.349c0-3.834-.438-4.607-2.607-4.607-1.326,0-1.351-.033-1.471-1.9l-.122-1.9-1.9-.122-1.9-.122-.031-1.878c-.055-3.398-.785-5.027-2.435-5.437-1.338-.334-1.458-.488-1.642-2.12-.241-2.143-.234-2.136-2.259-2.407-1.536-.206-1.633-.298-1.633-1.538c0-1.693-.901-2.576-2.629-2.576-1.321,0-1.371-.056-1.371-1.52c0-1.916-.564-2.48-2.48-2.48-1.493,0-1.52-.027-1.52-1.52c0-1.916-.564-2.48-2.48-2.48-1.493,0-1.52-.027-1.52-1.52c0-1.916-.564-2.48-2.48-2.48-1.464,0-1.52-.05-1.52-1.371c0-1.728-.883-2.629-2.576-2.629-1.24,0-1.332-.097-1.538-1.633-.271-2.025-.264-2.018-2.407-2.259-1.632-.184-1.786-.304-2.12-1.642-.41-1.65-2.039-2.38-5.437-2.435L322.044,38l-.122-1.9-.122-1.9-1.9-.122c-1.867-.12-1.9-.145-1.9-1.471c0-1.983-.85-2.607-3.554-2.607-2.455,0-4.181-1.148-4.511-3-.114-.644-.508-.824-2.019-.921-1.858-.12-1.881-.139-2.209-1.798-.38-1.923-.915-2.152-5.207-2.234L298,22v-1.371c0-2.195-.763-2.629-4.629-2.629L290,18v-1.371c0-2.188-.767-2.629-4.577-2.629h-3.321l-.258-1.612c-.341-2.133-1.096-2.388-7.07-2.388L270,10v-1.52c0-2.359-.316-2.48-6.48-2.48L258,6v-1.371C258,2.12,257.605,2,249.371,2L242,2v-1-1h-42-42v.976M203.523,67.34c.728.264,1.898,1.038,2.6,1.72.702.683,1.888,1.373,2.634,1.535c2.37.513,3.951,1.353,4.805,2.551.536.754,1.328,1.257,2.249,1.43c2.433.456,4.768,1.665,5.363,2.775.398.745.995,1.131,1.997,1.291c2.118.34,4.975,1.835,5.413,2.833.378.861,1.309,1.309,2.741,1.32c1.152.008,5.075,2.079,5.075,2.678c0,.609.891,1.027,3.738,1.756c1.188.304,2.504,1.031,3.4,1.879.804.76,2.342,1.667,3.417,2.015c1.075.349,2.552,1.198,3.283,1.887.789.744,2.321,1.554,3.772,1.993c1.708.517,2.727,1.101,3.383,1.94.656.838,1.566,1.36,3.021,1.732c3.14.804,4.764,1.699,5.034,2.773.15.599.53.952,1.026.952c1.111,0,3.126,2.141,3.126,3.322c0,.639.455,1.33,1.3,1.975c1.388,1.059,2.075,2.592,2.477,5.528.168,1.231.638,2.251,1.442,3.131c1.602,1.755,2.22,3.071,2.522,5.377.179,1.368.635,2.379,1.562,3.462c1.437,1.679,2.005,3.047,2.688,6.473.332,1.662.714,2.44,1.429,2.908c1.191.78,2.068,2.781,2.432,5.547.212,1.611.558,2.346,1.542,3.277c1.433,1.357,2.054,2.756,2.431,5.483.191,1.376.617,2.25,1.586,3.247c1.282,1.32,1.91,2.883,2.382,5.92.128.829.729,1.977,1.403,2.683c1.427,1.493,2.186,3.218,2.584,5.874.249,1.659.592,2.262,2.047,3.598.962.882,1.944,2.167,2.184,2.855.304.871.761,1.315,1.512,1.468.592.12,1.984,1.086,3.093,2.145c3.367,3.218,7.286,6.639,8.337,7.277.547.332,1.224,1.033,1.506,1.56.281.526,1.289,1.412,2.24,1.969.95.557,1.977,1.494,2.28,2.081.304.588,1.063,1.324,1.687,1.637c1.692.848,2.534,1.647,2.534,2.404c0,.407.661.975,1.656,1.424c1.736.783,2.317,1.715,3.346,5.375.279.99.896,2.857,1.373,4.148c1.056,2.864,1.436,6.196,2.036,17.852.365,7.089.631,9.467,1.253,11.2c1.587,4.421,1.965,6.668,2.352,13.961.683,12.896,1.074,16.65,1.919,18.399c2.757,5.706,3.407,28.062.876,30.112-1.213.982-74.632,1.148-76.964.173-2.445-1.021-3.027-2.39-3.453-8.125-.496-6.665-.747-8.034-1.78-9.72-1.313-2.143-1.796-4.294-2.028-9.049-.312-6.387-1.036-11.253-1.793-12.067-1.428-1.533-2.105-5.056-2.781-14.48-.366-5.101-.442-5.436-1.399-6.133-.557-.406-1.013-.899-1.013-1.097c0-.75-2.771-4.647-4.128-5.807-.78-.665-1.538-1.689-1.684-2.274-.147-.586-.565-1.16-.928-1.276-1.27-.408-2.755-2.029-3.038-3.317-.191-.871-.52-1.3-.995-1.3-.994,0-2.827-1.798-2.827-2.773c0-.539-.52-1.076-1.55-1.601-1.097-.56-1.732-1.249-2.178-2.362-.446-1.116-.98-1.693-1.844-1.994-.856-.299-1.479-.965-2.102-2.247-.495-1.02-1.164-1.823-1.517-1.823-.611,0-1.995-1.304-2.022-1.905-.023-.496-1.324-1.855-2.508-2.618-.617-.398-1.232-1.028-1.366-1.4-.499-1.388-1.449-1.957-2.713-1.625-.66.173-1.65.41-2.2.526-.604.129-1.242.71-1.612,1.468-.4.824-1.085,1.411-1.986,1.705-.794.26-1.753,1.012-2.272,1.784-.493.734-1.565,1.675-2.382,2.091-.816.417-1.975,1.353-2.575,2.081s-2.087,1.811-3.304,2.407c-1.217.595-2.574,1.591-3.017,2.213-.442.621-1.519,1.365-2.393,1.654-1.102.363-1.808.93-2.302,1.847-.486.903-1.259,1.531-2.435,1.981-1.173.447-1.798.955-1.957,1.587-.154.616-1.034,1.356-2.617,2.199-1.311.699-3.139,1.989-4.062,2.867-.922.878-2.168,1.694-2.767,1.814-.724.145-1.334.69-1.819,1.623-.491.948-1.175,1.551-2.1,1.853-1.576.515-1.693.865-2.41,7.234-.378,3.356-.642,4.271-1.669,5.793-1.26,1.866-1.361,2.347-2.352,11.155-.391,3.475-.747,4.516-2.525,7.392-.297.48-.844,3.729-1.216,7.218-.67,6.279-.922,7.228-2.375,8.932-.559.655-.927,2.343-1.465,6.717-.702,5.701-.935,6.418-2.587,7.949-1.539,1.427-2.616,1.458-50.198,1.458h-47.545l-.803-1.021c-2.277-2.894-.657-22.176,2.033-24.195.158-.119.389-2.279.513-4.8.694-14.128,1.783-21.121,3.487-22.4.158-.119.389-2.279.513-4.8.632-12.858,1.492-19.1,3.001-21.788.593-1.055.849-2.457,1.007-5.506.706-13.668,1.588-19.892,3.039-21.45.414-.443.752-1.181.752-1.638c0-.745,2.012-3.084,4.217-4.902.45-.371,1.977-.971,3.394-1.334s2.851-.954,3.186-1.313c1.426-1.528,2.376-2.063,4.736-2.667c1.632-.418,2.973-1.075,3.864-1.893.751-.689,2.139-1.554,3.084-1.922c1.514-.589,1.73-.831,1.814-2.02.477-6.78,1.654-12.047,2.943-13.178.525-.46.78-1.47.958-3.8.676-8.864,1.591-13.365,3.033-14.912.64-.687.861-1.769,1.173-5.754.627-7.983,1.371-11.223,2.938-12.789.459-.46.717-1.691.878-4.185.531-8.229,2.916-10.988,10.157-11.746c2.353-.246,3.479-.541,3.721-.973.821-1.467,4.348-2.477,11.294-3.234c1.697-.185,2.546-.482,2.927-1.026.938-1.339,4.001-2.219,10.367-2.977c1.49-.177,2.148-.447,2.307-.947.258-.814,4.846-3.23,6.133-3.23.598,0,.876-.244.876-.771c0-.907,1.528-2.204,3.325-2.821.701-.241,1.638-1.017,2.081-1.723.444-.707,1.209-1.343,1.7-1.413.492-.07.894-.295.894-.5s.242-.372.539-.372c.296,0,1.164-.585,1.928-1.3c2.237-2.092,3.098-2.7,3.838-2.706.98-.009,1.693-.533,2.231-1.64.255-.525,1.38-1.393,2.5-1.929c1.119-.536,2.301-1.436,2.625-2s1.593-1.516,2.821-2.116c1.228-.601,2.671-1.613,3.207-2.25c1.137-1.351,2.33-2.059,3.471-2.059.446,0,1.023-.405,1.28-.9c1.461-2.808,8.228-4.174,12.683-2.56" fill="#adb311" fill-rule="evenodd"/><path d="M195.4,68.669c-.44.123-1.553.915-2.473,1.76-.92.846-2.292,1.796-3.048,2.112s-1.623.922-1.927,1.348c-.303.425-1.605,1.443-2.891,2.262s-2.815,1.93-3.396,2.469-1.688,1.271-2.461,1.627c-.772.356-1.944,1.232-2.604,1.946s-1.795,1.603-2.522,1.975c-.727.371-1.98,1.296-2.783,2.054-.804.758-1.694,1.378-1.978,1.378-.285,0-.517.18-.517.4s-.255.4-.566.4-1.346.715-2.3,1.59c-.954.874-2.491,1.951-3.417,2.394-.925.442-1.873,1.159-2.105,1.594-.233.435-1.537,1.443-2.899,2.241-1.362.799-2.665,1.691-2.895,1.983-.538.682-3.775,1.761-6.733,2.243-1.273.208-3.613.974-5.2,1.702-2.728,1.253-4.952,1.859-9.085,2.475-.99.147-2.79.721-4,1.274-3.549,1.623-5.409,2.148-9.69,2.733-3.255.446-6.952,4.241-7.308,7.503-.526,4.83-1.398,9.103-2.563,12.561-.65,1.929-1.302,4.677-1.45,6.107-.505,4.904-1.369,9.189-2.569,12.741-.66,1.955-1.314,4.613-1.452,5.907-.504,4.728-1.374,9.018-2.524,12.445-.647,1.929-1.303,4.587-1.457,5.907-.275,2.352-1.675,5-2.644,5-.229,0-1.152.63-2.051,1.4-.9.77-1.953,1.4-2.34,1.4-.388,0-.801.156-.919.346-.117.19-.852.45-1.632.576-.797.13-2.147.855-3.082,1.654-.915.783-1.903,1.424-2.196,1.424-.294,0-.846.169-1.228.376s-1.145.47-1.695.586c-2.443.514-7.195,4.908-7.198,6.657-.002.884-.446,3.073-2.064,10.181-.365,1.602-.758,4.967-1.545,13.2-.511,5.352-.829,7.116-2.815,15.6-.206.88-.559,4.03-.785,7-.607,7.991-1.13,11.44-2.921,19.246-.334,1.455-.718,4.155-.854,6-.6,8.172-1.048,11.222-3.044,20.754-1.174,5.602-1.183,10.151-.023,11.311.626.626,91.732.863,93.307.243c2.211-.87,4.427-4.644,4.905-8.354.833-6.469,1.483-9.467,2.299-10.616.589-.827,1.418-4.694,2.314-10.784.453-3.081,1.096-5.56,1.659-6.4.484-.721,1.463-4.738,1.95-8c.783-5.246,1.175-6.956,2.016-8.802.439-.965.799-1.976.799-2.248c0-.271.175-1.046.388-1.722.214-.675.497-1.931.63-2.791.241-1.559,4.827-6.637,5.993-6.637.247,0,1.155-.718,2.019-1.595.863-.877,2.65-2.261,3.97-3.076s2.633-1.804,2.918-2.199c.286-.395,1.294-1.172,2.242-1.728.947-.555,2.064-1.387,2.481-1.849.418-.463,1.704-1.468,2.859-2.236c1.155-.767,2.1-1.552,2.1-1.744c0-.191.945-.96,2.1-1.708c1.155-.747,2.55-1.762,3.1-2.254.55-.493,1.81-1.444,2.8-2.113.99-.67,2.16-1.598,2.6-2.063s1.577-1.349,2.526-1.963c.95-.615,2.21-1.645,2.8-2.289c1.658-1.807,5.357-2.644,7.054-1.595c1.217.752,8.47,8.262,9.162,9.485.187.333,1.177,1.461,2.2,2.508c4.399,4.506,6.058,6.346,6.058,6.718c0,.219.63.826,1.401,1.349.77.524,1.498,1.253,1.617,1.622.119.368,1.919,2.42,3.999,4.558c2.081,2.139,3.783,3.96,3.783,4.047c0,.172.177.404,1.927,2.525c1.992,2.413,2.053,2.64,3.265,12.072.217,1.689.834,4.389,1.372,6c.945,2.833,1.581,6.292,2.232,12.128.489,4.389,1.172,7.82,2.005,10.072.72,1.944,1.162,4.518,2.016,11.728.196,1.65.441,3.36.545,3.8.105.44.292,1.286.417,1.881.288,1.371,2.457,3.663,4.021,4.249c1.519.568,72.423.417,72.967-.156c1.82-1.919,1.651-12.347-.322-19.774-.899-3.385-1.255-5.74-1.632-10.8-.83-11.157-1.442-15.951-2.938-23-.327-1.54-.798-5.32-1.048-8.4-.972-11.999-1.58-16.732-2.954-23-.313-1.43-.689-3.863-.836-5.407-.316-3.324-1.004-5.507-2.065-6.552-1.429-1.407-4.755-4.402-7.172-6.459-1.32-1.124-3.646-3.154-5.169-4.512-1.523-1.359-3.363-2.92-4.088-3.47s-1.423-1.306-1.551-1.68c-.128-.373-.584-.79-1.012-.926-.429-.137-.78-.416-.78-.621s-.177-.373-.394-.373-1.176-.765-2.131-1.7-2.262-2.18-2.906-2.766c-3.697-3.369-5.088-5.52-5.909-9.142-.126-.554-.572-1.376-.99-1.825-.955-1.025-1.842-2.948-2.64-5.723-.341-1.185-1.031-2.715-1.533-3.4-1.06-1.444-1.52-2.436-2.499-5.389-.391-1.18-1.316-3.15-2.054-4.377-.739-1.227-1.344-2.432-1.344-2.679c0-.886-1.991-5.505-2.564-5.947-.322-.249-1.079-1.982-1.682-3.852s-1.483-3.871-1.955-4.447c-.916-1.117-1.327-2.08-2.364-5.527-.359-1.196-1.058-2.726-1.552-3.4-1.137-1.55-1.637-2.661-2.465-5.478-.365-1.239-1.088-2.829-1.607-3.533-.52-.704-1.338-2.249-1.818-3.432-.748-1.844-1.183-2.327-3.033-3.371-1.188-.67-2.16-1.386-2.16-1.59c0-.205-1.363-.878-3.029-1.497s-3.677-1.658-4.468-2.31-2.429-1.519-3.64-1.928-2.923-1.361-3.804-2.115c-.882-.755-1.76-1.372-1.953-1.372-.758,0-3.789-1.595-5.273-2.774-.861-.684-2.031-1.356-2.599-1.492-1.516-.363-3.667-1.513-5.021-2.683-.652-.564-1.732-1.136-2.4-1.271-1.091-.221-5.717-2.742-6.213-3.386-.11-.143-1.12-.586-2.244-.986-1.124-.399-2.734-1.323-3.578-2.052-.845-.73-2.042-1.438-2.661-1.574-1.57-.345-3.092-1.166-4.639-2.502-.727-.628-2.377-1.458-3.667-1.844-1.366-.409-3.045-1.302-4.022-2.138-1.698-1.453-5.956-2.162-8.589-1.429m7.566,2.722c.851.903,1.698,1.409,2.358,1.409.566,0,1.14.18,1.276.4s.584.4.995.4s1.402.617,2.201,1.371c.822.775,2.386,1.663,3.601,2.045c1.181.372,2.802,1.276,3.603,2.01.875.801,2.363,1.594,3.728,1.986c1.481.425,2.626,1.06,3.287,1.823.955,1.103,4.582,2.765,6.032,2.765.362,0,1.104.585,1.65,1.301.893,1.171,4.277,2.699,5.976,2.699.243,0,1.001.609,1.685,1.354.799.871,2.17,1.686,3.842,2.283c1.602.573,3.079,1.435,3.847,2.246.781.825,1.632,1.317,2.277,1.317.566,0,1.14.18,1.276.4s.521.4.856.4s1.389.639,2.342,1.42c.954.781,2.706,1.697,3.894,2.035c1.331.379,2.725,1.148,3.633,2.004.809.763,2.286,1.666,3.281,2.005c2.017.687,2.365,1.153,2.753,3.694.287,1.873,1.57,4.042,2.393,4.042.473,0,1.12,2.039,1.677,5.288.226,1.314,1.82,3.512,2.547,3.512.147,0,.608,1.555,1.024,3.455.605,2.761,1.017,3.731,2.052,4.828.925.98,1.48,2.138,1.939,4.045.759,3.149,1.304,4.384,2.414,5.472c1.019.998,1.663,2.647,1.989,5.092.195,1.46.605,2.258,1.797,3.499c1.514,1.575,1.697,2.031,2.227,5.537.188,1.243.641,2.083,1.616,3c1.118,1.051,1.473,1.821,2.041,4.431.556,2.56.937,3.403,2.006,4.441.725.704,1.319,1.657,1.319,2.117s.156.932.347,1.051c.192.118.463.937.605,1.82.206,1.29.564,1.81,1.816,2.638.857.568,1.772,1.546,2.032,2.174.308.744,1.016,1.36,2.029,1.765c1.11.444,1.718,1.014,2.126,1.99.332.793.965,1.487,1.508,1.652c1.043.317,2.737,1.735,2.737,2.291c0,.555,1.033,1.458,2.155,1.885.558.212,1.474,1.113,2.035,2.001.561.889,1.286,1.616,1.612,1.616.612,0,2.998,2.267,2.998,2.849c0,.182.495.589,1.1.905s2.09,1.504,3.3,2.639c1.21,1.136,2.949,2.637,3.864,3.336c1.94,1.482,2.324,2.87,2.728,9.871.31,5.391,1.311,11.041,2.248,12.702.532.942.797,2.489.958,5.6.844,16.291,1.654,23.079,3.048,25.575.497.888.783,2.53.941,5.4c1.005,18.263,1.588,23.186,3.058,25.803.949,1.69,1.262,8.162.435,8.996-.419.422-7.435.547-36.162.642l-35.642.118-1.288-1.247c-2.41-2.337-3.337-4.861-3.593-9.789-.419-8.084-1.59-14.236-2.893-15.213-.363-.271-.68-1.912-.928-4.8-1.011-11.789-1.587-14.898-3.086-16.667-.531-.628-.751-1.931-1.534-9.102-.287-2.638-.252-2.579-3.1-5.146-.41-.37-.925-1.173-1.144-1.786-.239-.669-1.007-1.425-1.92-1.891-1.066-.544-1.658-1.188-1.975-2.149-.305-.925-.882-1.576-1.767-1.997-.852-.404-1.57-1.19-2.04-2.232-.521-1.156-1.102-1.744-2.067-2.093-.737-.266-1.341-.704-1.341-.972c0-1.078-1.448-3.004-2.408-3.205-.729-.152-1.209-.696-1.733-1.962-.399-.964-1.072-1.862-1.497-1.997-.424-.135-1.209-.889-1.744-1.676-2.483-3.654-8.03-9.342-10.041-10.296-.743-.353-1.501-.908-1.683-1.234-.284-.508-.448-.484-1.146.166-.448.418-1.61.889-2.581,1.048-2.086.342-4.367,1.922-4.367,3.024c0,.545-.275.78-.911.78-.872,0-2.289.781-3.418,1.884-.29.284-.683.516-.873.516-.189,0-.449.329-.576.732-.128.402-.995,1.123-1.927,1.602-2.256,1.159-3.095,1.839-3.096,2.51-.001.306-.946,1.006-2.1,1.556-1.294.617-2.294,1.411-2.607,2.072-.308.649-1.057,1.252-1.9,1.531-.765.252-2.104,1.165-2.976,2.028s-1.733,1.569-1.914,1.569c-.426,0-2.269,1.448-3.977,3.125-.742.73-1.984,1.591-2.759,1.915-.807.337-1.76,1.182-2.228,1.975-.449.762-1.097,1.385-1.44,1.385-.89,0-3.298,1.928-3.298,2.641c0,.33-.545.791-1.212,1.023-1.395.486-2.167,1.777-2.592,4.334-.165.989-.6,2.069-.968,2.4-1.414,1.274-2.086,4.374-3.056,14.102-.126,1.265-.381,2.3-.565,2.3-1.23,0-2.494,4.932-3.219,12.565-.313,3.293-.589,4.521-1.122,5-1.436,1.291-2.026,3.998-3.085,14.147-.165,1.578-.518,2.609-1.111,3.246-.479.514-1.402,1.683-2.053,2.597l-1.183,1.662-45.017-.109c-37.804-.091-45.193-.198-46.117-.672-1.489-.764-1.572-2.188-.294-5.026c1.336-2.97,1.586-4.377,2-11.298.648-10.829,1.05-14.15,1.925-15.912c1.371-2.758,1.65-4.249,2.062-11.017.623-10.226,1.081-14.179,1.806-15.581c1.216-2.352,1.793-5.553,2.22-12.316.696-11.045,1.052-13.939,1.914-15.576c1.207-2.293,1.666-4.621,2.007-10.179.335-5.464.58-6.095,2.516-6.482.681-.136,1.711-.79,2.291-1.452.773-.884,1.849-1.429,4.043-2.049c2.146-.607,3.275-1.171,4-2c.725-.83,1.854-1.394,4.007-2.002c2.682-.758,4.403-1.852,4.403-2.8c0-.182.471-.449,1.047-.594c1.172-.294,2.29-2.417,2.741-5.206.147-.91.576-1.99.954-2.4c1.175-1.275,1.632-2.984,2.069-7.746.66-7.193,1.068-9.503,1.888-10.695c1.291-1.874,1.693-3.349,2.1-7.705.216-2.31.506-5.28.644-6.6.259-2.464,1.173-5,1.803-5c.195,0,.354-.324.354-.72s.169-.891.377-1.1c.207-.209.567-2.45.8-4.98.811-8.811,1.413-11.6,2.501-11.6.156,0,1.058-.781,2.003-1.737c2.331-2.354,2.628-2.473,8.119-3.249c4.238-.598,4.984-.823,6.372-1.922c1.053-.834,2.242-1.342,3.6-1.538c1.115-.161,3.378-.487,5.028-.724c2.974-.428,4.507-.964,5.531-1.933.945-.893,1.814-1.193,4.869-1.678c3.472-.552,5.481-1.414,5.826-2.5.133-.421.902-1.046,1.708-1.39c2.504-1.069,2.652-1.174,3.187-2.263.29-.592.998-1.179,1.6-1.328c1.429-.352,4.089-2.043,4.962-3.153.385-.489,1.519-1.274,2.521-1.745c1.088-.511,1.971-1.249,2.192-1.83.239-.627,1.08-1.279,2.368-1.833c1.099-.472,2.277-1.285,2.619-1.807.341-.521,1.608-1.431,2.815-2.022c1.208-.591,2.512-1.416,2.899-1.834c2.008-2.167,2.611-2.636,3.664-2.846.746-.149,1.459-.73,2.027-1.649.483-.781,1.197-1.419,1.589-1.419.804,0,3.481-1.717,4.493-2.882c1.653-1.903,5.59-1.559,7.696.673" fill="#9c7c84" fill-rule="evenodd"/><path d="M193.818,67.292c-1.361.494-2.311,1.326-2.978,2.608-.257.495-.834.9-1.28.9-1.141,0-2.334.708-3.471,2.059-.536.637-1.979,1.649-3.207,2.25-1.228.6-2.497,1.552-2.821,2.116s-1.506,1.464-2.625,2c-1.12.536-2.245,1.404-2.5,1.929-.538,1.107-1.251,1.631-2.231,1.64-.74.006-1.601.614-3.838,2.706-.764.715-1.632,1.3-1.928,1.3-.297,0-.539.167-.539.372s-.402.43-.894.5c-.491.07-1.256.706-1.7,1.413-.443.706-1.38,1.482-2.081,1.723-1.797.617-3.325,1.914-3.325,2.821c0,.527-.278.771-.876.771-1.287,0-5.875,2.416-6.133,3.23-.159.5-.817.77-2.307.947-6.366.758-9.429,1.638-10.367,2.977-.381.544-1.23.841-2.927,1.026-6.946.757-10.473,1.767-11.294,3.234-.242.432-1.368.727-3.721.973-7.241.758-9.626,3.517-10.157,11.746-.161,2.494-.419,3.725-.878,4.185-1.567,1.566-2.311,4.806-2.938,12.789-.312,3.985-.533,5.067-1.173,5.754-1.442,1.547-2.357,6.048-3.033,14.912-.178,2.33-.433,3.34-.958,3.8-1.289,1.131-2.466,6.398-2.943,13.178-.084,1.189-.3,1.431-1.814,2.02-.945.368-2.333,1.233-3.084,1.922-.891.818-2.232,1.475-3.864,1.893-2.36.604-3.31,1.139-4.736,2.667-.335.359-1.769.95-3.186,1.313s-2.944.963-3.394,1.334c-2.205,1.818-4.217,4.157-4.217,4.902c0,.457-.338,1.195-.752,1.638-1.451,1.558-2.333,7.782-3.039,21.45-.158,3.049-.414,4.451-1.007,5.506-1.509,2.688-2.369,8.93-3.001,21.788-.124,2.521-.355,4.681-.513,4.8-1.704,1.279-2.793,8.272-3.487,22.4-.124,2.521-.355,4.681-.513,4.8-2.69,2.019-4.31,21.301-2.033,24.195l.803,1.021h47.545c47.582,0,48.659-.031,50.198-1.458c1.652-1.531,1.885-2.248,2.587-7.949.538-4.374.906-6.062,1.465-6.717c1.453-1.704,1.705-2.653,2.375-8.932.372-3.489.919-6.738,1.216-7.218c1.778-2.876,2.134-3.917,2.525-7.392.991-8.808,1.092-9.289,2.352-11.155c1.027-1.522,1.291-2.437,1.669-5.793.717-6.369.834-6.719,2.41-7.234.925-.302,1.609-.905,2.1-1.853.485-.933,1.095-1.478,1.819-1.623.599-.12,1.845-.936,2.767-1.814.923-.878,2.751-2.168,4.062-2.867c1.583-.843,2.463-1.583,2.617-2.199.159-.632.784-1.14,1.957-1.587c1.176-.45,1.949-1.078,2.435-1.981.494-.917,1.2-1.484,2.302-1.847.874-.289,1.951-1.033,2.393-1.654.443-.622,1.8-1.618,3.017-2.213c1.217-.596,2.704-1.679,3.304-2.407s1.759-1.664,2.575-2.081c.817-.416,1.889-1.357,2.382-2.091.519-.772,1.478-1.524,2.272-1.784.901-.294,1.586-.881,1.986-1.705.37-.758,1.008-1.339,1.612-1.468.55-.116,1.54-.353,2.2-.526c1.264-.332,2.214.237,2.713,1.625.134.372.749,1.002,1.366,1.4c1.184.763,2.485,2.122,2.508,2.618.027.601,1.411,1.905,2.022,1.905.353,0,1.022.803,1.517,1.823.623,1.282,1.246,1.948,2.102,2.247.864.301,1.398.878,1.844,1.994.446,1.113,1.081,1.802,2.178,2.362c1.03.525,1.55,1.062,1.55,1.601c0,.975,1.833,2.773,2.827,2.773.475,0,.804.429.995,1.3.283,1.288,1.768,2.909,3.038,3.317.363.116.781.69.928,1.276.146.585.904,1.609,1.684,2.274c1.357,1.16,4.128,5.057,4.128,5.807c0,.198.456.691,1.013,1.097.957.697,1.033,1.032,1.399,6.133.676,9.424,1.353,12.947,2.781,14.48.757.814,1.481,5.68,1.793,12.067.232,4.755.715,6.906,2.028,9.049c1.033,1.686,1.284,3.055,1.78,9.72.426,5.735,1.008,7.104,3.453,8.125c2.332.975,75.751.809,76.964-.173c2.531-2.05,1.881-24.406-.876-30.112-.845-1.749-1.236-5.503-1.919-18.399-.387-7.293-.765-9.54-2.352-13.961-.622-1.733-.888-4.111-1.253-11.2-.6-11.656-.98-14.988-2.036-17.852-.477-1.291-1.094-3.158-1.373-4.148-1.029-3.66-1.61-4.592-3.346-5.375-.995-.449-1.656-1.017-1.656-1.424c0-.757-.842-1.556-2.534-2.404-.624-.313-1.383-1.049-1.687-1.637-.303-.587-1.33-1.524-2.28-2.081-.951-.557-1.959-1.443-2.24-1.969-.282-.527-.959-1.228-1.506-1.56-1.051-.638-4.97-4.059-8.337-7.277-1.109-1.059-2.501-2.025-3.093-2.145-.751-.153-1.208-.597-1.512-1.468-.24-.688-1.222-1.973-2.184-2.855-1.455-1.336-1.798-1.939-2.047-3.598-.398-2.656-1.157-4.381-2.584-5.874-.674-.706-1.275-1.854-1.403-2.683-.472-3.037-1.1-4.6-2.382-5.92-.969-.997-1.395-1.871-1.586-3.247-.377-2.727-.998-4.126-2.431-5.483-.984-.931-1.33-1.666-1.542-3.277-.364-2.766-1.241-4.767-2.432-5.547-.715-.468-1.097-1.246-1.429-2.908-.683-3.426-1.251-4.794-2.688-6.473-.927-1.083-1.383-2.094-1.562-3.462-.302-2.306-.92-3.622-2.522-5.377-.804-.88-1.274-1.9-1.442-3.131-.402-2.936-1.089-4.469-2.477-5.528-.845-.645-1.3-1.336-1.3-1.975c0-1.181-2.015-3.322-3.126-3.322-.496,0-.876-.353-1.026-.952-.27-1.074-1.894-1.969-5.034-2.773-1.455-.372-2.365-.894-3.021-1.732-.656-.839-1.675-1.423-3.383-1.94-1.451-.439-2.983-1.249-3.772-1.993-.731-.689-2.208-1.538-3.283-1.887-1.075-.348-2.613-1.255-3.417-2.015-.896-.848-2.212-1.575-3.4-1.879-2.847-.729-3.738-1.147-3.738-1.756c0-.599-3.923-2.67-5.075-2.678-1.432-.011-2.363-.459-2.741-1.32-.438-.998-3.295-2.493-5.413-2.833-1.002-.16-1.599-.546-1.997-1.291-.595-1.11-2.93-2.319-5.363-2.775-.921-.173-1.713-.676-2.249-1.43-.854-1.198-2.435-2.038-4.805-2.551-.746-.162-1.932-.852-2.634-1.535-2.167-2.105-8.764-3.053-12.305-1.768m9.414,1.324c.62.321,1.272.839,1.448,1.15s1.76,1.134,3.52,1.827c1.76.694,3.584,1.669,4.053,2.166.469.498,1.459,1.131,2.2,1.406.741.276,1.66.667,2.042.868.382.202.894.367,1.138.367s1.262.72,2.262,1.6s2.146,1.6,2.548,1.6c.959,0,3.67,1.263,4.077,1.9.411.643,2.354,1.675,4.848,2.577c1.082.391,2.342,1.048,2.8,1.459.731.658,1.723,1.236,4.327,2.521.382.189.922.344,1.2.345s1.045.452,1.705,1.001c1.153.96,5.888,3.397,6.601,3.397.19,0,.451.333.58.741.15.472,1.414,1.202,3.494,2.016c1.793.702,3.544,1.6,3.892,1.997.803.915,1.681,1.375,4.539,2.379c1.264.444,3.049,1.451,3.968,2.237.918.787,1.818,1.43,1.998,1.43.644,0,1.795,1.484,2.482,3.201.384.96,1.096,2.219,1.583,2.798.487.578,1.127,1.85,1.421,2.826c1.02,3.381,2.077,5.827,2.775,6.425.386.331,1.209,2.194,1.83,4.141.62,1.946,1.444,3.879,1.83,4.294.81.869,1.646,2.782,2.58,5.904.36,1.204,1.022,2.58,1.47,3.057s1.337,2.43,1.974,4.339c.638,1.909,1.575,3.965,2.082,4.568.508.604,1.164,1.896,1.458,2.872s.682,2.135.863,2.575c.182.44.43,1.16.552,1.6.123.44.646,1.291,1.164,1.89.517.6,1.445,2.67,2.061,4.6.617,1.931,1.434,3.87,1.815,4.31.959,1.104,1.768,2.847,2.391,5.146.378,1.395,1.074,2.493,2.462,3.881c1.064,1.064,1.935,2.078,1.936,2.254c0,.175.777.81,1.727,1.41s1.97,1.545,2.267,2.1.78,1.009,1.073,1.009c.292,0,.532.168.532.373s.356.486.792.624c.435.139,1.104.781,1.486,1.428s.993,1.271,1.357,1.386c.365.116,1.646,1.151,2.848,2.3s2.71,2.495,3.351,2.992c1.716,1.329,4.829,4.058,6.848,6.005.975.94,2.219,2.002,2.765,2.36c1.623,1.063,2.435,3.474,3.481,10.332.101.66.549,2.91.996,5c.826,3.865,1.342,8.324,2.083,18c.439,5.725.69,7.483,1.805,12.6.957,4.398,1.263,6.941,1.752,14.6.431,6.732.884,10.331,1.842,14.6c2.751,12.275,2.938,21.688.471,23.736-1.026.852-72.984.686-74.783-.172-2.637-1.257-3.378-3.358-4.29-12.164-.422-4.066-.916-6.538-1.641-8.2-.89-2.043-1.674-6.474-2.37-13.4-.255-2.538-.891-5.634-1.608-7.823-1.123-3.433-1.602-6.074-2.351-12.977-.382-3.52-1.061-5.279-2.78-7.2-.689-.77-1.477-1.895-1.751-2.5s-.602-1.1-.729-1.1c-.403,0-2.774-2.256-2.774-2.64c0-.482-1.931-2.56-2.379-2.56-.191,0-.859-.811-1.484-1.803-.625-.991-1.447-1.902-1.827-2.024-.379-.121-1.083-.795-1.565-1.497s-1.611-2.022-2.51-2.934c-.899-.911-2.625-2.77-3.835-4.129-1.21-1.36-3.01-3.345-4-4.412s-2.7-2.951-3.8-4.187c-3.612-4.059-6.703-4.313-10.09-.828-.97.998-1.921,1.814-2.113,1.814-.193,0-1.379.9-2.636,2s-2.41,2-2.562,2c-.274,0-1.081.651-3.399,2.744-.66.595-1.79,1.326-2.51,1.622-.721.297-1.68,1.059-2.132,1.693s-1.392,1.444-2.09,1.8c-.697.355-2.115,1.388-3.15,2.294s-2.787,2.367-3.894,3.247c-1.106.88-2.248,1.801-2.536,2.047-.289.246-.91.57-1.381.719s-1.669,1.073-2.662,2.053c-.994.979-2.003,1.781-2.243,1.781s-1.347.855-2.461,1.9-2.456,2.297-2.983,2.782c-.567.522-.961,1.338-.964,2-.007,1.316-1.394,6.997-1.971,8.075-.823,1.538-1.561,4.325-1.811,6.843-.445,4.492-1.662,9.594-2.623,11-.44.644-1.116,3.794-1.416,6.6-.388,3.628-1.147,7.115-1.958,9-1.102,2.56-1.73,5.01-2,7.8-.55,5.684-1.736,8.635-4.167,10.366l-1.197.852-46.679.004c-52.91.004-47.889.372-48.329-3.539-.338-2.999.384-10.06,1.338-13.083.856-2.714,1.48-6.554,2.016-12.4.881-9.625,1.273-12.546,1.984-14.8.883-2.8,1.536-6.799,2.025-12.4.783-8.981,1.255-12.518,1.975-14.8.869-2.755,1.504-6.676,2.008-12.4.823-9.338,1.305-12.926,2.018-15c.415-1.21.876-3.19,1.024-4.4.248-2.026,1.572-5.2,2.171-5.2.14,0,1-.639,1.913-1.42.932-.798,2.933-1.87,4.572-2.449c1.602-.566,3.37-1.455,3.929-1.974.559-.52,2.359-1.424,4-2.01c1.641-.585,3.575-1.577,4.298-2.205s1.545-1.142,1.828-1.142c1.27,0,2.202-1.962,2.882-6.069.376-2.272,1.001-4.851,1.391-5.731.717-1.624,1.801-6.285,2.138-9.2.574-4.959,1.195-8.122,1.843-9.392.667-1.308,1.431-4.345,1.862-7.408.955-6.769,1.554-9.841,2.173-11.14.699-1.465,1.426-4.905,2.407-11.383.738-4.877,3.598-7.318,9.94-8.485c2.834-.522,5.381-1.209,5.612-1.514.503-.666,2.056-1.217,5.22-1.853c5.324-1.07,8.107-1.861,9.19-2.612.55-.382,2.44-1.001,4.2-1.376c4.387-.934,7.045-1.846,7.997-2.743.442-.415,1.549-1.097,2.46-1.515s2.171-1.317,2.8-1.997s1.837-1.598,2.686-2.039c.848-.442,2.02-1.284,2.604-1.873c1.141-1.151,4.227-3.27,4.762-3.27.18,0,1.099-.72,2.042-1.6.944-.88,1.936-1.6,2.204-1.6s1.108-.642,1.867-1.426c.758-.785,1.959-1.703,2.668-2.041.71-.338,2.06-1.287,3-2.108.941-.821,2.568-1.991,3.617-2.601c1.048-.609,2.132-1.431,2.409-1.825.276-.394,1.255-1.11,2.177-1.59.921-.48,2.191-1.401,2.822-2.046c2.189-2.24,7.842-2.937,10.917-1.347" fill="#74545c" fill-rule="evenodd"/></g></svg>
