<?xml version="1.0" encoding="UTF-8" standalone="no"?>
<svg
   id="svg"
   version="1.1"
   width="400"
   height="400"
   viewBox="0, 0, 400,400"
   sodipodi:docname="dinosaures.svg"
   inkscape:version="1.2.2 (732a01da63, 2022-12-09)"
   xmlns:inkscape="http://www.inkscape.org/namespaces/inkscape"
   xmlns:sodipodi="http://sodipodi.sourceforge.net/DTD/sodipodi-0.dtd"
   xmlns="http://www.w3.org/2000/svg"
   xmlns:svg="http://www.w3.org/2000/svg">
  <defs
     id="defs10598" />
  <sodipodi:namedview
     id="namedview10596"
     pagecolor="#ffffff"
     bordercolor="#666666"
     borderopacity="1.0"
     inkscape:showpageshadow="2"
     inkscape:pageopacity="0.0"
     inkscape:pagecheckerboard="0"
     inkscape:deskcolor="#d1d1d1"
     showgrid="false"
     inkscape:zoom="1.94"
     inkscape:cx="200.25773"
     inkscape:cy="200"
     inkscape:window-width="1920"
     inkscape:window-height="974"
     inkscape:window-x="-11"
     inkscape:window-y="-11"
     inkscape:window-maximized="1"
     inkscape:current-layer="svgg" />
  <g
     id="svgg">
    <path
       id="path0"
       d="M326.400 91.262 C 325.630 91.471,324.370 91.787,323.600 91.965 C 319.513 92.906,317.377 93.787,315.842 95.165 C 314.939 95.976,313.390 96.979,312.400 97.395 C 310.249 98.297,309.200 99.118,309.200 99.898 C 309.200 100.524,307.661 101.965,306.970 101.987 C 306.288 102.008,304.932 103.665,304.258 105.302 C 303.881 106.218,303.086 107.131,302.220 107.641 C 301.369 108.143,300.800 108.790,300.800 109.255 C 300.800 109.682,300.440 110.738,300.000 111.600 C 299.560 112.462,299.200 113.510,299.200 113.928 C 299.200 114.346,298.449 115.541,297.530 116.584 C 296.415 117.852,295.764 119.031,295.567 120.140 C 294.397 126.752,294.179 127.353,291.737 130.729 C 291.367 131.239,290.939 132.409,290.785 133.329 C 290.071 137.595,288.685 141.494,287.750 141.867 C 287.046 142.149,284.800 148.249,284.800 149.880 C 284.800 150.203,284.025 151.487,283.077 152.734 C 282.130 153.980,281.013 156.080,280.596 157.400 C 279.771 160.008,278.860 161.568,278.147 161.587 C 277.899 161.594,277.019 163.175,276.192 165.100 C 275.365 167.025,274.309 168.866,273.845 169.191 C 272.346 170.238,271.200 171.695,271.196 172.558 C 271.193 173.297,269.864 175.274,268.000 177.315 C 266.975 178.438,266.626 178.950,265.800 180.545 C 265.360 181.394,264.211 182.740,263.247 183.536 C 262.283 184.332,261.062 185.669,260.533 186.507 C 260.003 187.345,259.129 188.199,258.590 188.404 C 258.050 188.609,256.842 189.573,255.904 190.546 C 254.134 192.384,250.933 194.400,249.785 194.400 C 248.830 194.400,246.800 195.683,246.800 196.286 C 246.800 196.569,246.530 196.800,246.200 196.800 C 245.870 196.800,245.600 196.962,245.600 197.160 C 245.600 197.567,241.013 198.607,237.400 199.019 C 236.080 199.170,229.960 199.422,223.800 199.580 C 213.376 199.846,212.378 199.936,209.400 200.876 C 205.076 202.241,202.619 202.854,200.000 203.219 C 195.444 203.856,193.412 204.471,192.519 205.483 C 191.500 206.636,189.123 207.996,188.101 208.009 C 186.858 208.024,183.997 209.542,183.019 210.705 C 182.135 211.755,178.868 213.630,176.987 214.167 C 176.539 214.295,175.867 214.917,175.493 215.551 C 174.870 216.605,172.684 218.000,171.655 218.000 C 171.422 218.000,170.369 218.838,169.315 219.862 C 168.262 220.886,166.827 221.963,166.127 222.256 C 165.427 222.548,164.742 222.971,164.604 223.194 C 164.466 223.417,164.025 223.600,163.625 223.600 C 163.224 223.600,162.237 224.405,161.430 225.389 C 160.423 226.618,159.447 227.334,158.315 227.673 C 157.408 227.945,156.021 228.807,155.233 229.589 C 153.325 231.484,152.274 232.092,149.300 233.020 C 147.925 233.449,146.800 233.935,146.800 234.100 C 146.800 235.274,143.881 236.672,139.400 237.645 C 137.676 238.019,136.718 238.484,136.000 239.296 C 135.450 239.917,134.280 240.749,133.400 241.145 C 129.506 242.897,128.738 243.200,128.186 243.200 C 127.864 243.200,127.600 243.457,127.600 243.771 C 127.600 244.500,124.830 246.800,123.953 246.800 C 122.980 246.800,120.442 248.034,118.549 249.427 C 117.008 250.561,113.632 251.603,109.553 252.203 C 108.611 252.342,107.570 252.937,106.570 253.908 C 104.944 255.488,103.268 256.280,100.521 256.768 C 98.768 257.080,98.065 257.492,96.399 259.183 C 95.351 260.247,93.692 261.007,91.000 261.656 C 90.051 261.885,88.749 262.669,87.800 263.583 C 86.280 265.046,84.793 265.702,80.534 266.787 C 79.603 267.024,78.280 267.794,77.534 268.532 C 76.214 269.839,72.589 271.192,70.374 271.206 C 69.159 271.213,65.094 272.464,64.352 273.058 C 62.809 274.294,60.626 274.957,56.525 275.433 C 49.852 276.210,31.808 276.874,25.400 276.579 C 20.988 276.376,19.520 276.443,18.481 276.893 L 17.163 277.463 19.360 277.990 C 20.876 278.354,22.771 278.436,25.478 278.253 C 30.880 277.890,34.878 278.704,40.200 281.251 C 43.882 283.014,56.575 283.010,62.150 281.244 C 66.323 279.923,73.033 278.811,77.054 278.776 C 80.155 278.748,86.704 277.577,87.124 276.974 C 87.913 275.843,96.655 273.600,100.279 273.600 C 102.040 273.600,106.465 272.535,106.787 272.034 C 108.899 268.745,128.832 268.565,132.800 271.798 C 133.558 272.416,136.473 273.131,140.083 273.584 C 142.620 273.903,143.017 274.080,144.287 275.467 L 145.689 276.998 145.409 280.999 C 144.971 287.254,144.139 293.373,143.583 294.433 C 143.304 294.965,142.922 295.670,142.735 296.000 C 142.066 297.179,140.800 301.553,140.800 302.684 C 140.800 303.930,139.274 307.103,138.370 307.736 C 137.509 308.339,136.000 311.006,136.000 311.924 C 136.000 312.838,134.873 314.930,133.700 316.192 C 132.520 317.462,131.201 320.072,131.198 321.144 C 131.197 321.505,130.776 322.629,130.262 323.642 L 129.328 325.483 131.080 326.542 C 132.044 327.124,133.196 327.600,133.639 327.600 C 134.338 327.600,137.412 329.081,138.600 329.990 C 139.906 330.989,142.110 331.270,144.728 330.771 C 147.251 330.290,147.329 330.243,146.130 329.927 C 141.877 328.807,142.387 316.530,146.692 316.413 C 146.963 316.406,147.593 315.546,148.092 314.503 C 148.607 313.428,149.591 312.213,150.365 311.699 C 151.116 311.200,152.088 310.028,152.525 309.096 C 152.962 308.163,153.607 306.782,153.960 306.026 C 154.633 304.581,155.783 303.200,156.314 303.200 C 156.835 303.200,158.000 300.941,157.997 299.938 C 157.986 297.072,160.328 290.156,161.456 289.723 C 163.526 288.929,166.343 294.988,165.955 299.400 C 164.850 311.975,163.445 318.800,161.959 318.800 C 161.315 318.800,160.298 324.890,160.507 327.491 C 160.821 331.408,160.521 331.292,170.464 331.346 C 179.069 331.393,182.847 330.891,180.600 330.000 C 177.491 328.768,175.679 322.921,176.913 318.106 C 177.295 316.618,177.605 314.770,177.602 314.000 C 177.595 311.530,179.876 302.914,180.848 301.742 C 181.066 301.480,181.226 297.002,181.223 291.238 L 181.217 281.192 182.869 279.996 C 184.324 278.942,184.858 278.798,187.360 278.781 C 190.975 278.756,196.191 277.626,198.000 276.474 C 198.770 275.984,199.850 275.482,200.400 275.358 C 200.950 275.235,202.210 274.872,203.200 274.553 C 204.190 274.234,206.080 273.864,207.400 273.730 C 209.832 273.484,212.800 272.309,212.800 271.592 C 212.800 271.376,213.034 271.200,213.320 271.200 C 213.606 271.200,214.053 270.987,214.314 270.726 C 215.387 269.653,219.255 268.808,220.394 269.397 C 222.497 270.484,222.541 270.682,222.607 279.329 C 222.667 287.179,223.427 293.781,224.338 294.373 C 225.599 295.191,227.564 301.350,227.602 304.600 C 227.615 305.700,227.886 308.400,228.205 310.600 C 228.524 312.800,228.788 317.039,228.792 320.020 C 228.797 323.001,228.968 325.611,229.174 325.820 C 229.380 326.029,229.875 327.190,230.274 328.400 C 231.725 332.798,241.234 333.180,240.636 328.816 C 240.499 327.817,240.149 324.450,239.858 321.333 C 239.432 316.767,239.128 315.252,238.295 313.533 C 236.588 310.013,236.103 308.077,235.409 302.000 C 235.045 298.810,234.490 295.120,234.176 293.800 C 233.122 289.372,232.894 286.959,233.433 285.931 C 233.707 285.408,234.147 283.814,234.411 282.390 C 235.988 273.865,239.031 272.143,244.315 276.783 C 252.325 283.818,253.726 287.088,252.553 296.010 C 251.829 301.519,251.651 314.309,252.282 315.426 C 253.436 317.468,261.841 317.294,260.820 315.250 C 258.700 311.010,259.583 297.824,262.216 294.400 C 263.359 292.913,264.013 288.860,264.030 283.151 L 264.047 277.400 262.738 276.300 C 262.019 275.695,261.263 275.200,261.059 275.200 C 260.605 275.200,259.696 274.094,259.220 272.961 C 259.025 272.500,258.188 271.801,257.358 271.407 C 255.649 270.596,254.874 269.901,253.837 268.249 C 253.440 267.616,252.639 266.915,252.058 266.691 C 249.271 265.617,247.905 260.694,249.147 256.200 C 251.242 248.619,251.793 246.957,252.793 245.200 C 253.215 244.457,253.403 242.142,253.521 236.200 C 253.727 225.871,254.505 222.698,257.164 221.350 C 258.269 220.790,260.400 218.774,260.400 218.289 C 260.400 217.831,262.061 216.431,262.625 216.413 C 263.185 216.396,265.200 214.281,265.200 213.711 C 265.200 213.466,265.875 212.856,266.700 212.356 C 267.525 211.856,269.197 210.401,270.416 209.123 C 271.634 207.845,272.849 206.800,273.116 206.800 C 273.382 206.800,273.600 206.614,273.600 206.387 C 273.600 206.161,273.891 205.863,274.246 205.727 C 274.831 205.502,277.422 202.949,281.800 198.282 C 282.680 197.344,283.760 195.890,284.200 195.052 C 284.640 194.214,285.468 193.283,286.041 192.984 C 287.204 192.377,288.400 190.760,288.400 189.794 C 288.400 188.822,289.589 186.713,290.764 185.600 C 291.870 184.553,293.205 181.285,293.202 179.635 C 293.198 177.725,295.233 171.808,296.114 171.165 C 296.683 170.750,297.990 164.673,298.000 162.400 C 298.015 158.730,299.401 152.005,300.595 149.805 C 301.736 147.705,302.155 145.959,302.853 140.400 C 303.350 136.442,304.376 133.294,305.645 131.834 C 306.468 130.888,307.094 129.526,307.979 126.756 C 308.420 125.375,309.586 124.011,310.700 123.573 C 311.195 123.379,311.600 122.939,311.600 122.596 C 311.600 121.339,318.013 114.000,319.111 114.000 C 319.350 114.000,320.196 113.207,320.991 112.237 C 322.503 110.393,324.468 109.209,326.060 109.186 C 326.577 109.179,327.720 108.832,328.600 108.416 C 330.142 107.687,330.243 107.685,331.400 108.374 C 334.786 110.391,353.049 111.351,354.796 109.604 C 355.791 108.609,355.392 107.145,353.910 106.352 C 353.175 105.959,351.149 103.065,349.588 100.180 C 349.196 99.455,346.448 97.484,344.800 96.745 C 344.470 96.598,343.469 95.765,342.574 94.895 C 341.181 93.539,340.496 93.219,337.774 92.652 C 336.029 92.288,333.684 91.722,332.565 91.395 C 330.299 90.733,328.493 90.694,326.400 91.262 M7.270 275.500 C 7.228 276.755,7.370 277.600,7.624 277.600 C 7.857 277.600,7.944 277.768,7.817 277.972 C 7.691 278.177,7.770 278.458,7.993 278.596 C 8.217 278.734,8.397 279.062,8.394 279.324 C 8.390 279.610,8.233 279.561,8.000 279.200 C 7.697 278.731,7.611 278.838,7.606 279.686 C 7.599 280.883,8.971 282.001,9.336 281.097 C 9.495 280.703,9.543 280.704,9.568 281.100 C 9.586 281.375,9.881 281.600,10.224 281.600 C 10.606 281.600,10.738 281.407,10.565 281.100 C 10.348 280.715,10.399 280.708,10.790 281.069 C 11.468 281.695,12.400 281.294,12.400 280.376 C 12.400 279.172,13.280 277.601,13.964 277.584 C 14.314 277.576,13.982 277.301,13.228 276.973 C 12.326 276.582,11.134 276.446,9.750 276.577 L 7.645 276.777 7.492 275.089 C 7.348 273.488,7.336 273.510,7.270 275.500 "
       stroke="none"
       fill="#e0d7d7"
       fill-rule="evenodd"
       style="fill:#e0d6d6;fill-opacity:1" />
    <path
       id="path1"
       d="M152.000 1.200 L 152.000 2.400 145.254 2.400 C 139.461 2.400,138.372 2.499,137.549 3.100 C 137.022 3.485,136.233 3.992,135.795 4.226 C 135.358 4.461,134.730 5.222,134.400 5.918 L 133.800 7.183 129.400 7.197 C 123.325 7.216,123.304 7.225,122.978 9.840 L 122.708 12.000 118.350 12.000 C 114.487 12.000,113.914 12.091,113.307 12.800 C 112.930 13.240,112.424 13.600,112.181 13.600 C 111.638 13.600,110.208 15.149,109.872 16.100 C 109.678 16.652,109.160 16.800,107.432 16.800 C 105.436 16.800,101.352 17.612,100.406 18.196 C 100.195 18.327,99.830 19.146,99.595 20.017 C 99.191 21.517,99.088 21.600,97.611 21.600 C 94.679 21.600,94.000 22.115,94.000 24.339 L 94.000 26.297 89.577 26.584 C 84.705 26.899,84.400 27.103,84.400 30.026 C 84.400 31.097,84.279 31.200,83.026 31.200 C 80.267 31.200,79.600 31.743,79.600 33.990 C 79.600 35.980,79.588 36.000,78.333 36.000 C 73.510 36.000,70.807 37.176,70.443 39.433 C 70.192 40.989,70.176 41.001,68.205 41.126 C 65.617 41.289,65.200 41.695,65.200 44.049 L 65.200 46.000 63.043 46.000 C 60.601 46.000,60.400 46.229,60.400 49.013 L 60.400 50.760 58.100 50.880 L 55.800 51.000 55.681 53.281 L 55.561 55.561 53.281 55.681 L 51.000 55.800 50.880 58.100 L 50.760 60.400 48.860 60.400 C 46.474 60.400,46.000 60.878,46.000 63.280 L 46.000 65.200 44.276 65.200 C 41.892 65.200,41.258 65.801,41.117 68.195 C 41.001 70.180,40.992 70.191,39.433 70.443 C 37.176 70.807,36.000 73.510,36.000 78.333 C 36.000 79.588,35.980 79.600,33.990 79.600 C 31.743 79.600,31.200 80.267,31.200 83.026 C 31.200 84.279,31.097 84.400,30.026 84.400 C 27.103 84.400,26.899 84.705,26.584 89.577 L 26.297 94.000 24.339 94.000 C 22.115 94.000,21.600 94.679,21.600 97.611 C 21.600 99.088,21.517 99.191,20.017 99.595 C 19.146 99.830,18.327 100.195,18.196 100.406 C 17.640 101.306,16.800 105.390,16.800 107.193 C 16.800 108.871,16.673 109.185,15.900 109.420 C 13.216 110.238,12.000 113.101,12.000 118.605 L 12.000 122.708 9.840 122.978 C 7.225 123.304,7.216 123.325,7.197 129.400 L 7.183 133.800 5.918 134.400 C 5.222 134.730,4.461 135.358,4.226 135.795 C 3.992 136.233,3.485 137.022,3.100 137.549 C 2.499 138.372,2.400 139.461,2.400 145.254 L 2.400 152.000 1.200 152.000 L 0.000 152.000 0.000 200.000 L 0.000 248.000 1.200 248.000 L 2.400 248.000 2.400 254.746 C 2.400 260.539,2.499 261.628,3.100 262.451 C 3.485 262.978,3.992 263.767,4.226 264.205 C 4.461 264.642,5.222 265.270,5.918 265.600 C 7.167 266.193,7.183 266.237,7.214 269.200 C 7.249 272.481,7.866 276.578,7.954 274.114 C 8.030 271.977,8.840 271.852,16.200 272.838 C 27.819 274.394,50.761 273.436,55.133 271.212 C 57.677 269.918,62.206 268.800,64.903 268.800 C 68.307 268.800,70.919 268.074,72.119 266.795 C 73.541 265.280,76.333 264.000,78.216 264.000 C 79.768 264.000,81.640 263.128,82.983 261.780 C 84.371 260.386,86.780 259.200,88.223 259.200 C 89.296 259.200,89.953 258.847,91.198 257.602 C 93.074 255.726,95.379 254.404,96.794 254.391 C 98.213 254.379,100.888 253.063,101.600 252.028 C 102.297 251.013,104.984 249.732,107.117 249.397 C 109.342 249.048,111.600 248.315,111.600 247.941 C 111.600 246.892,115.860 245.218,120.995 244.248 C 122.819 243.903,123.425 243.615,123.536 243.037 C 123.804 241.644,126.578 239.600,128.199 239.600 C 128.550 239.600,129.620 238.829,130.576 237.887 C 132.305 236.182,135.458 234.803,137.635 234.798 C 138.631 234.796,139.747 234.174,142.060 232.334 C 142.797 231.748,144.660 230.871,146.200 230.385 C 148.113 229.782,149.432 229.069,150.363 228.133 C 151.710 226.780,155.331 224.800,156.459 224.800 C 157.180 224.800,158.000 224.013,158.000 223.320 C 158.000 222.714,159.420 221.200,159.989 221.200 C 160.883 221.200,164.013 219.390,164.214 218.757 C 164.575 217.617,168.590 215.200,170.122 215.200 C 170.752 215.200,171.432 214.659,172.261 213.500 C 173.121 212.295,174.046 211.578,175.438 211.036 C 177.387 210.278,178.800 209.189,178.800 208.446 C 178.800 207.899,183.798 205.600,184.985 205.600 C 185.526 205.600,186.201 205.314,186.484 204.965 C 187.448 203.778,189.227 202.000,189.451 202.000 C 191.675 202.000,197.818 200.206,198.642 199.316 C 200.805 196.983,202.182 196.803,221.000 196.390 C 238.021 196.017,240.800 195.844,240.800 195.155 C 240.800 194.090,244.008 192.228,246.586 191.797 C 248.702 191.443,250.288 190.584,250.592 189.626 C 250.728 189.196,251.686 188.322,252.720 187.684 C 254.610 186.518,260.400 181.059,260.400 180.443 C 260.400 180.261,261.120 179.502,261.999 178.756 C 262.879 178.010,263.789 176.826,264.022 176.125 C 264.581 174.441,265.883 172.825,267.032 172.388 C 267.691 172.137,268.135 171.440,268.572 169.971 C 268.909 168.835,269.638 167.486,270.192 166.972 C 270.747 166.458,271.200 165.850,271.200 165.619 C 271.200 165.389,271.425 165.199,271.700 165.199 C 272.187 165.197,273.600 162.291,273.600 161.290 C 273.600 160.347,275.399 157.996,276.500 157.500 C 277.235 157.169,277.600 156.701,277.600 156.090 C 277.600 155.586,277.870 154.528,278.200 153.738 C 278.530 152.949,278.800 152.036,278.800 151.712 C 278.800 150.535,280.122 148.373,281.248 147.708 C 282.084 147.214,282.400 146.718,282.400 145.901 C 282.400 145.281,282.670 144.128,283.000 143.338 C 283.330 142.549,283.600 141.427,283.600 140.845 C 283.600 139.539,284.952 136.872,286.158 135.800 C 287.150 134.918,287.811 132.951,288.241 129.600 C 288.612 126.700,289.706 124.211,290.975 123.380 C 291.665 122.927,292.000 122.347,292.000 121.604 C 292.000 120.997,292.270 119.735,292.600 118.800 C 292.930 117.865,293.200 116.665,293.200 116.134 C 293.200 114.805,294.568 112.241,295.789 111.280 C 296.345 110.843,296.800 110.306,296.800 110.088 C 296.800 109.870,297.069 109.176,297.398 108.546 C 297.726 107.916,298.002 107.130,298.011 106.800 C 298.035 105.863,299.313 104.559,300.497 104.262 C 301.314 104.057,301.669 103.627,301.981 102.471 C 302.206 101.634,302.776 100.601,303.246 100.175 C 303.717 99.749,304.934 98.567,305.951 97.549 C 307.828 95.670,309.856 94.400,310.980 94.400 C 311.321 94.400,311.600 94.141,311.600 93.825 C 311.600 92.213,314.577 90.606,319.181 89.731 C 319.958 89.584,320.962 88.994,321.476 88.382 C 324.333 84.987,334.405 85.008,337.635 88.416 C 338.205 89.017,339.285 89.634,340.035 89.787 C 342.508 90.292,345.600 91.340,345.600 91.673 C 345.600 91.853,345.870 92.000,346.200 92.000 C 346.530 92.000,346.800 92.157,346.800 92.350 C 346.800 92.959,349.432 95.600,350.039 95.600 C 351.107 95.600,352.460 96.875,353.183 98.561 C 353.577 99.478,354.472 100.672,355.173 101.214 C 361.971 106.472,356.812 117.530,348.200 116.158 C 343.978 115.486,342.012 114.946,340.620 114.076 C 337.856 112.349,329.180 111.737,325.231 112.990 C 324.851 113.111,324.284 113.785,323.970 114.488 C 323.625 115.263,322.690 116.174,321.600 116.798 C 320.465 117.448,319.530 118.376,319.069 119.310 C 318.617 120.227,317.799 121.047,316.927 121.462 C 315.901 121.948,315.302 122.632,314.734 123.966 C 313.938 125.833,312.296 127.600,311.356 127.600 C 311.066 127.600,310.726 128.264,310.587 129.100 C 310.450 129.925,310.082 131.397,309.769 132.371 C 309.456 133.345,309.200 134.541,309.200 135.028 C 309.200 136.231,308.000 138.810,306.885 140.004 C 306.381 140.543,305.900 141.348,305.816 141.792 C 305.509 143.405,304.389 153.831,304.394 155.015 C 304.402 156.624,303.141 160.142,302.008 161.675 C 301.291 162.644,300.992 163.878,300.584 167.551 C 299.663 175.837,299.233 177.497,297.536 179.317 C 296.398 180.538,295.973 181.382,295.799 182.767 C 295.367 186.220,294.745 187.768,293.213 189.200 C 291.619 190.691,290.800 191.965,290.800 192.956 C 290.800 193.834,288.987 196.404,287.384 197.800 C 286.626 198.460,285.586 199.810,285.074 200.800 C 284.563 201.790,283.674 202.829,283.101 203.108 C 282.110 203.590,281.090 204.680,279.481 206.975 C 279.086 207.539,278.456 208.006,278.081 208.013 C 277.229 208.028,275.374 209.632,275.040 210.642 C 274.902 211.059,273.723 212.079,272.419 212.909 C 271.115 213.740,269.942 214.754,269.812 215.164 C 269.682 215.573,268.861 216.404,267.988 217.009 C 267.114 217.614,266.400 218.264,266.400 218.454 C 266.400 218.644,266.209 218.800,265.976 218.800 C 265.742 218.800,264.406 219.925,263.005 221.300 C 261.605 222.675,259.951 224.251,259.329 224.803 C 256.986 226.883,256.800 227.880,256.800 238.371 C 256.800 249.026,256.328 251.796,254.100 254.229 C 251.546 257.018,251.374 262.384,253.800 263.603 C 255.885 264.652,256.662 265.365,257.066 266.600 C 257.305 267.328,257.919 268.002,258.630 268.314 C 261.213 269.448,261.757 269.853,262.366 271.091 C 262.715 271.801,263.239 272.386,263.531 272.391 C 266.395 272.440,268.081 279.180,267.067 286.531 C 266.698 289.209,266.390 292.480,266.384 293.800 C 266.372 296.566,265.179 302.944,264.404 304.392 C 263.626 305.846,263.860 308.271,265.157 312.205 L 266.311 315.704 265.531 317.028 C 264.355 319.021,260.607 320.176,256.207 319.901 C 252.853 319.692,249.200 318.482,249.200 317.580 C 249.200 317.324,248.634 315.928,247.941 314.477 C 246.508 311.474,246.407 310.025,247.532 308.595 C 248.738 307.063,249.276 302.013,249.129 293.612 L 249.000 286.225 247.479 285.372 C 246.534 284.842,245.650 283.895,245.142 282.868 C 244.424 281.417,244.051 281.134,242.062 280.533 C 240.818 280.156,239.507 279.604,239.148 279.306 C 236.487 277.091,236.914 299.655,239.600 303.200 C 241.046 305.109,241.893 308.271,242.171 312.800 C 242.783 322.776,243.254 325.733,244.400 326.800 C 248.794 330.890,243.837 335.171,235.279 334.678 C 225.774 334.130,225.544 333.758,225.313 318.600 C 225.139 307.176,224.908 305.294,223.500 303.823 C 222.050 302.308,221.314 299.828,220.642 294.194 C 220.276 291.117,219.874 287.745,219.750 286.700 C 219.626 285.655,219.398 284.800,219.243 284.800 C 218.648 284.800,218.000 282.031,218.000 279.486 C 218.000 276.577,217.561 276.001,215.296 275.936 C 212.386 275.852,206.800 276.985,206.800 277.659 C 206.800 279.267,199.272 281.185,192.830 281.217 C 184.610 281.259,185.049 280.580,184.766 293.719 C 184.473 307.374,183.327 314.000,181.258 314.000 C 179.251 314.000,179.659 325.583,181.693 326.361 C 184.634 327.486,185.408 331.201,183.101 333.116 C 181.639 334.329,175.227 334.912,168.600 334.433 C 157.144 333.605,157.943 334.368,157.983 324.294 C 157.999 320.282,158.204 316.280,158.439 315.400 C 158.674 314.520,158.961 313.305,159.078 312.700 C 159.195 312.095,159.450 311.600,159.645 311.600 C 159.840 311.600,160.000 311.330,160.000 311.000 C 160.000 310.670,160.329 310.071,160.731 309.669 C 162.243 308.157,163.122 302.453,162.184 300.235 L 161.662 299.000 161.197 300.200 C 160.941 300.860,160.592 302.266,160.422 303.324 C 160.251 304.382,159.907 305.453,159.656 305.704 C 159.405 305.955,159.200 306.542,159.200 307.008 C 159.200 307.579,158.778 308.043,157.907 308.428 C 157.196 308.743,156.409 309.450,156.158 310.000 C 154.675 313.245,154.251 313.855,153.082 314.422 C 152.296 314.803,151.490 315.680,150.999 316.689 C 150.072 318.592,148.601 320.000,147.539 320.000 C 146.882 320.000,146.800 320.355,146.800 323.200 C 146.800 326.075,146.877 326.400,147.559 326.400 C 150.073 326.400,151.453 330.458,149.631 332.494 L 148.461 333.800 141.931 333.769 C 135.006 333.736,132.324 333.050,130.728 330.905 C 130.438 330.515,129.480 329.856,128.600 329.439 C 127.720 329.023,126.730 328.555,126.400 328.399 C 124.030 327.279,124.126 323.643,126.585 321.400 C 127.568 320.503,128.171 319.344,128.971 316.810 C 130.025 313.473,130.619 312.553,132.301 311.653 C 132.901 311.332,133.235 310.642,133.434 309.312 C 133.843 306.584,134.930 304.427,136.602 303.023 L 138.065 301.794 138.637 296.397 C 138.952 293.429,139.381 289.020,139.589 286.600 C 139.798 284.180,140.156 281.571,140.385 280.803 C 141.480 277.118,140.860 276.605,134.851 276.234 C 131.090 276.001,127.588 275.524,123.733 274.719 C 121.735 274.303,118.969 274.424,113.800 275.154 C 112.480 275.341,109.600 275.704,107.400 275.962 C 98.989 276.947,98.539 277.050,96.892 278.374 C 95.094 279.819,88.563 281.200,83.529 281.200 C 80.390 281.200,77.476 281.810,76.000 282.776 C 69.579 286.980,25.200 287.031,25.200 282.835 C 25.200 281.890,21.774 281.126,18.600 281.364 C 16.840 281.496,14.586 281.634,13.592 281.672 L 11.784 281.740 12.010 284.108 C 12.168 285.754,12.445 286.593,12.918 286.858 C 13.293 287.068,13.600 287.469,13.600 287.750 C 13.600 288.350,15.097 289.774,16.100 290.128 C 16.652 290.322,16.800 290.840,16.800 292.568 C 16.800 294.564,17.612 298.648,18.196 299.594 C 18.327 299.805,19.146 300.170,20.017 300.405 C 21.517 300.809,21.600 300.912,21.600 302.389 C 21.600 305.321,22.115 306.000,24.339 306.000 L 26.297 306.000 26.584 310.423 C 26.898 315.279,27.108 315.600,29.970 315.600 C 31.015 315.600,31.104 315.733,31.327 317.610 C 31.645 320.299,31.742 320.400,34.024 320.400 C 35.976 320.400,36.000 320.415,36.000 321.667 C 36.000 326.490,37.176 329.193,39.433 329.557 C 40.992 329.809,41.001 329.820,41.117 331.805 C 41.258 334.199,41.892 334.800,44.276 334.800 L 46.000 334.800 46.000 336.720 C 46.000 339.122,46.474 339.600,48.860 339.600 L 50.760 339.600 50.880 341.900 L 51.000 344.200 53.281 344.319 L 55.561 344.439 55.681 346.719 L 55.800 349.000 58.100 349.120 L 60.400 349.240 60.400 351.171 C 60.400 353.461,60.827 353.909,63.340 354.254 C 65.162 354.503,65.200 354.539,65.206 355.954 C 65.215 358.065,65.703 358.554,68.254 359.007 C 70.280 359.367,70.581 359.544,70.845 360.533 C 71.277 362.145,71.899 362.745,73.445 363.035 C 74.195 363.176,74.907 363.450,75.028 363.645 C 75.149 363.840,76.227 364.000,77.424 364.000 L 79.600 364.000 79.600 365.986 C 79.600 368.282,80.175 368.800,82.722 368.800 C 84.295 368.800,84.296 368.801,84.503 370.635 C 84.787 373.159,84.961 373.254,89.761 373.499 L 94.000 373.715 94.000 375.667 C 94.000 377.945,94.666 378.400,97.999 378.400 C 99.539 378.400,99.995 378.554,100.180 379.137 C 100.517 380.198,102.159 381.632,103.120 381.704 C 103.574 381.738,103.844 381.929,103.721 382.128 C 103.311 382.791,104.574 383.188,107.113 383.194 C 109.141 383.199,109.673 383.335,109.872 383.900 C 110.208 384.851,111.638 386.400,112.181 386.400 C 112.424 386.400,112.930 386.760,113.307 387.200 C 113.914 387.909,114.487 388.000,118.345 388.000 L 122.697 388.000 122.964 390.016 C 123.304 392.573,123.829 392.797,129.526 392.809 L 133.800 392.817 134.400 394.082 C 134.730 394.778,135.358 395.539,135.795 395.774 C 136.233 396.008,137.022 396.515,137.549 396.900 C 138.372 397.501,139.461 397.600,145.254 397.600 L 152.000 397.600 152.000 398.800 L 152.000 400.000 200.000 400.000 L 248.000 400.000 248.000 398.800 L 248.000 397.600 254.626 397.600 C 261.472 397.600,262.800 397.343,262.800 396.017 C 262.800 395.601,263.340 394.721,264.001 394.061 L 265.201 392.860 270.768 392.730 C 277.099 392.582,276.851 392.688,277.109 390.009 L 277.302 388.000 281.655 388.000 C 285.513 388.000,286.086 387.909,286.693 387.200 C 287.070 386.760,287.576 386.400,287.819 386.400 C 288.362 386.400,289.792 384.851,290.128 383.900 C 290.323 383.346,290.842 383.200,292.612 383.200 C 296.962 383.200,300.400 381.503,300.400 379.356 C 300.400 378.458,300.541 378.400,302.720 378.400 C 305.526 378.400,306.000 377.992,306.000 375.577 L 306.000 373.715 310.239 373.499 C 315.039 373.254,315.213 373.159,315.497 370.635 L 315.704 368.800 317.572 368.800 C 319.918 368.800,320.400 368.315,320.400 365.954 L 320.400 364.068 322.900 363.869 C 327.774 363.482,329.600 362.480,329.600 360.192 C 329.600 359.401,329.867 359.259,331.801 359.017 C 334.257 358.710,334.800 358.142,334.800 355.877 C 334.800 354.515,334.820 354.500,336.843 354.306 C 339.226 354.076,339.586 353.660,339.594 351.120 L 339.600 349.240 341.900 349.120 L 344.200 349.000 344.319 346.719 L 344.439 344.439 346.719 344.319 L 349.000 344.200 349.120 341.900 L 349.240 339.600 351.120 339.594 C 353.660 339.586,354.076 339.226,354.306 336.843 C 354.500 334.820,354.515 334.800,355.877 334.800 C 358.142 334.800,358.710 334.257,359.017 331.801 C 359.260 329.859,359.399 329.600,360.202 329.600 C 362.380 329.600,363.943 326.583,363.982 322.300 L 364.000 320.400 365.920 320.400 C 368.316 320.400,368.800 319.925,368.800 317.572 L 368.800 315.704 370.635 315.497 C 373.159 315.213,373.254 315.039,373.499 310.239 L 373.715 306.000 375.577 306.000 C 377.988 306.000,378.400 305.525,378.400 302.747 C 378.400 300.717,378.503 300.422,379.300 300.180 C 381.586 299.483,383.200 296.403,383.200 292.737 C 383.200 290.848,383.340 290.325,383.900 290.128 C 384.851 289.792,386.400 288.362,386.400 287.819 C 386.400 287.576,386.760 287.070,387.200 286.693 C 387.909 286.086,388.000 285.513,388.000 281.656 L 388.000 277.304 389.835 277.097 C 392.479 276.799,392.583 276.584,392.735 271.081 L 392.869 266.200 394.108 265.600 C 394.790 265.270,395.539 264.642,395.774 264.205 C 396.008 263.767,396.515 262.978,396.900 262.451 C 397.501 261.628,397.600 260.539,397.600 254.746 L 397.600 248.000 398.800 248.000 L 400.000 248.000 400.000 200.000 L 400.000 152.000 398.800 152.000 L 397.600 152.000 397.600 145.254 C 397.600 139.461,397.501 138.372,396.900 137.549 C 396.515 137.022,396.008 136.233,395.774 135.795 C 395.539 135.358,394.778 134.730,394.082 134.400 L 392.817 133.800 392.809 129.526 C 392.797 123.829,392.573 123.304,390.016 122.964 L 388.000 122.697 388.000 118.345 C 388.000 114.487,387.909 113.914,387.200 113.307 C 386.760 112.930,386.400 112.424,386.400 112.181 C 386.400 111.638,384.851 110.208,383.900 109.872 C 383.346 109.677,383.200 109.158,383.200 107.388 C 383.200 103.038,381.503 99.600,379.356 99.600 C 378.474 99.600,378.400 99.443,378.400 97.574 C 378.400 94.576,377.956 94.000,375.643 94.000 L 373.715 94.000 373.499 89.761 C 373.254 84.961,373.159 84.787,370.635 84.503 C 368.801 84.296,368.800 84.295,368.800 82.722 C 368.800 80.175,368.282 79.600,365.986 79.600 L 364.000 79.600 363.982 77.700 C 363.943 73.425,362.380 70.400,360.211 70.400 C 359.427 70.400,359.280 70.137,359.070 68.358 C 358.757 65.720,358.285 65.200,356.207 65.200 L 354.511 65.200 354.266 63.130 C 353.980 60.709,353.639 60.414,351.120 60.406 L 349.240 60.400 349.120 58.100 L 349.000 55.800 346.719 55.681 L 344.439 55.561 344.319 53.281 L 344.200 51.000 341.900 50.880 L 339.600 50.760 339.600 49.013 C 339.600 46.229,339.399 46.000,336.957 46.000 L 334.800 46.000 334.800 44.276 C 334.800 41.892,334.199 41.258,331.805 41.117 C 329.820 41.001,329.809 40.992,329.557 39.433 C 329.193 37.176,326.490 36.000,321.667 36.000 C 320.415 36.000,320.400 35.976,320.400 34.024 C 320.400 31.742,320.299 31.645,317.610 31.327 C 315.605 31.089,315.600 31.085,315.600 29.621 C 315.600 27.135,315.121 26.857,310.300 26.553 L 306.000 26.282 306.000 24.331 C 306.000 22.122,305.317 21.600,302.425 21.600 C 300.966 21.600,300.892 21.535,300.655 20.052 C 300.280 17.707,298.079 16.800,292.768 16.800 C 290.850 16.800,290.326 16.661,290.128 16.100 C 289.792 15.149,288.362 13.600,287.819 13.600 C 287.576 13.600,287.070 13.240,286.693 12.800 C 286.086 12.091,285.513 12.000,281.660 12.000 L 277.311 12.000 277.068 9.946 C 276.751 7.264,277.087 7.420,271.268 7.266 L 266.200 7.132 265.600 5.892 C 265.270 5.210,264.642 4.461,264.205 4.226 C 263.767 3.992,262.978 3.485,262.451 3.100 C 261.628 2.499,260.539 2.400,254.746 2.400 L 248.000 2.400 248.000 1.200 L 248.000 0.000 200.000 0.000 L 152.000 0.000 152.000 1.200 "
       stroke="none"
       fill="#44141c"
       fill-rule="evenodd" />
    <path
       id="path2"
       d="M327.069 88.059 C 326.007 88.263,324.440 88.870,323.586 89.409 C 322.733 89.947,321.337 90.545,320.485 90.736 C 318.898 91.093,317.051 91.966,317.837 91.988 C 319.007 92.020,324.750 89.746,325.255 89.050 C 325.395 88.858,326.796 88.608,328.370 88.495 C 331.270 88.287,331.336 88.304,335.332 90.249 C 335.955 90.552,336.765 90.785,337.132 90.767 C 337.797 90.735,334.664 89.127,332.000 88.134 C 330.420 87.545,329.804 87.536,327.069 88.059 M339.200 91.400 C 341.033 92.106,342.148 92.094,340.600 91.386 C 339.940 91.083,339.040 90.842,338.600 90.848 C 338.081 90.857,338.292 91.050,339.200 91.400 M314.174 93.525 C 313.300 94.365,311.729 95.479,310.682 96.002 C 309.635 96.525,308.298 97.593,307.711 98.376 C 307.124 99.159,306.376 99.962,306.049 100.161 C 305.115 100.727,303.200 102.786,303.200 103.223 C 303.200 103.441,304.701 102.104,306.536 100.253 C 308.371 98.401,310.486 96.577,311.236 96.198 C 311.986 95.820,313.140 95.012,313.800 94.402 C 314.460 93.792,315.540 93.010,316.200 92.663 C 317.187 92.144,317.254 92.029,316.581 92.016 C 316.130 92.007,315.047 92.686,314.174 93.525 M342.565 92.524 C 342.986 92.786,343.619 93.270,343.972 93.600 C 345.469 94.999,348.052 96.882,348.229 96.704 C 348.335 96.598,347.742 95.998,346.911 95.370 C 346.080 94.743,345.195 94.042,344.945 93.814 C 343.578 92.571,342.738 92.003,342.295 92.024 C 342.023 92.036,342.144 92.261,342.565 92.524 M350.071 98.153 C 350.837 98.898,351.697 100.068,351.981 100.753 C 352.265 101.439,352.655 102.000,352.849 102.000 C 353.042 102.000,353.200 102.190,353.200 102.422 C 353.200 102.654,353.739 103.419,354.398 104.122 C 355.057 104.825,355.603 105.580,355.611 105.800 C 355.619 106.020,355.908 106.560,356.254 107.000 C 356.865 107.777,356.874 107.771,356.595 106.800 C 356.437 106.250,355.833 105.190,355.254 104.444 C 353.474 102.152,352.000 99.987,352.000 99.664 C 352.000 99.250,349.451 96.800,349.020 96.800 C 348.831 96.800,349.304 97.409,350.071 98.153 M302.307 104.800 C 302.032 105.240,301.662 105.600,301.485 105.600 C 301.082 105.600,299.136 107.670,299.344 107.877 C 299.515 108.049,303.200 104.549,303.200 104.215 C 303.200 103.762,302.786 104.033,302.307 104.800 M298.414 109.800 C 297.911 111.356,296.826 113.596,296.379 114.000 C 295.829 114.497,294.402 117.150,294.416 117.647 C 294.425 117.951,294.722 117.660,295.077 117.000 C 295.432 116.340,296.125 115.260,296.618 114.600 C 297.785 113.036,299.329 109.387,299.106 108.721 C 299.009 108.434,298.698 108.920,298.414 109.800 M355.879 110.374 C 355.068 111.746,353.316 112.374,349.200 112.768 C 346.751 113.003,346.689 113.033,348.128 113.288 C 348.969 113.437,350.105 113.388,350.654 113.179 C 351.203 112.971,352.241 112.800,352.962 112.800 C 354.302 112.800,357.021 110.462,356.722 109.566 C 356.649 109.348,356.270 109.712,355.879 110.374 M327.444 110.295 C 325.338 110.512,320.790 113.849,320.802 115.168 C 320.803 115.296,321.598 114.562,322.568 113.538 C 324.491 111.507,324.698 111.408,328.687 110.615 C 331.288 110.097,330.737 109.956,327.444 110.295 M333.400 111.009 C 334.500 111.292,336.030 111.522,336.800 111.521 C 337.913 111.519,337.707 111.407,335.800 110.976 C 332.714 110.280,330.672 110.308,333.400 111.009 M341.200 112.217 C 342.410 112.519,344.120 112.756,345.000 112.744 C 346.407 112.724,346.287 112.657,344.000 112.185 C 340.450 111.453,338.240 111.478,341.200 112.217 M318.814 116.250 C 318.128 116.827,317.659 117.393,317.773 117.507 C 317.887 117.621,318.559 117.148,319.266 116.457 C 320.827 114.931,320.538 114.799,318.814 116.250 M315.790 119.557 C 313.972 121.284,312.800 122.675,312.800 123.105 C 312.800 123.268,311.983 124.279,310.984 125.352 C 309.985 126.424,309.241 127.375,309.331 127.464 C 309.610 127.744,312.411 124.739,313.083 123.438 C 313.435 122.757,314.629 121.349,315.737 120.309 C 316.845 119.269,317.667 118.334,317.566 118.232 C 317.464 118.130,316.665 118.726,315.790 119.557 M293.612 120.558 C 293.337 121.538,293.193 122.578,293.291 122.870 C 293.389 123.161,293.699 122.445,293.980 121.278 C 294.605 118.679,294.303 118.089,293.612 120.558 M292.399 124.900 C 292.091 125.725,291.704 126.400,291.538 126.400 C 291.142 126.400,289.594 129.917,289.622 130.751 C 289.635 131.108,289.950 130.680,290.322 129.800 C 290.695 128.920,291.506 127.422,292.124 126.470 C 292.742 125.519,293.182 124.439,293.103 124.070 C 293.010 123.640,292.758 123.936,292.399 124.900 M308.499 129.342 C 307.765 130.954,307.884 132.073,308.641 130.677 C 308.976 130.059,309.193 129.260,309.124 128.900 C 309.033 128.430,308.858 128.554,308.499 129.342 M288.894 133.046 C 288.622 133.952,288.400 134.915,288.400 135.186 C 288.400 135.912,287.178 138.423,286.154 139.800 C 285.664 140.460,285.157 141.540,285.028 142.200 C 284.798 143.380,284.806 143.376,285.497 141.993 C 285.884 141.219,286.606 140.020,287.102 139.328 C 288.116 137.915,289.718 133.105,289.518 132.074 C 289.446 131.700,289.168 132.132,288.894 133.046 M307.224 133.000 C 306.965 133.660,306.310 135.142,305.768 136.294 C 305.226 137.445,304.694 138.975,304.585 139.694 C 304.431 140.713,304.556 140.561,305.157 139.000 C 305.581 137.900,306.403 136.037,306.984 134.860 C 307.565 133.683,307.963 132.513,307.868 132.260 C 307.773 132.007,307.483 132.340,307.224 133.000 M303.612 144.739 C 303.327 146.248,303.176 147.727,303.276 148.027 C 303.376 148.327,303.696 147.180,303.987 145.477 C 304.278 143.775,304.429 142.296,304.323 142.189 C 304.216 142.083,303.896 143.230,303.612 144.739 M284.033 144.903 C 283.760 145.730,283.611 146.630,283.702 146.903 C 283.794 147.177,284.093 146.723,284.367 145.897 C 284.640 145.070,284.789 144.170,284.698 143.897 C 284.606 143.623,284.307 144.077,284.033 144.903 M282.318 149.289 C 280.332 151.910,277.942 157.778,279.169 157.019 C 279.372 156.894,279.661 156.234,279.810 155.554 C 280.207 153.748,281.576 150.800,282.019 150.800 C 282.228 150.800,282.400 150.589,282.400 150.331 C 282.400 150.074,282.699 149.533,283.064 149.129 C 283.430 148.725,283.635 148.301,283.520 148.187 C 283.405 148.072,282.865 148.568,282.318 149.289 M302.464 151.034 C 302.169 152.115,301.674 153.679,301.364 154.508 C 300.680 156.337,300.582 157.815,301.217 156.727 C 301.923 155.517,303.252 150.766,303.124 149.907 C 303.044 149.364,302.811 149.762,302.464 151.034 M277.167 159.171 C 276.415 160.035,275.274 161.970,274.632 163.471 C 273.989 164.972,272.684 167.047,271.732 168.083 C 270.153 169.799,269.171 171.686,270.600 170.257 C 270.930 169.927,271.200 169.544,271.200 169.406 C 271.200 169.268,271.725 168.670,272.367 168.077 C 273.009 167.485,274.197 165.596,275.008 163.880 C 275.818 162.164,277.003 160.189,277.641 159.491 C 278.659 158.377,279.080 157.600,278.667 157.600 C 278.594 157.600,277.919 158.307,277.167 159.171 M299.884 160.082 C 299.508 161.557,299.213 163.267,299.229 163.882 C 299.245 164.497,299.610 163.565,300.041 161.811 C 300.472 160.056,300.767 158.346,300.696 158.011 C 300.626 157.675,300.261 158.607,299.884 160.082 M298.447 168.726 C 298.156 170.335,298.001 171.734,298.102 171.836 C 298.387 172.121,299.302 167.423,299.130 166.563 C 299.045 166.143,298.738 167.117,298.447 168.726 M269.600 171.567 C 269.600 171.769,268.880 172.684,268.000 173.600 C 267.120 174.516,266.400 175.332,266.400 175.413 C 266.400 175.494,265.860 176.360,265.200 177.338 C 263.889 179.281,263.665 179.976,264.600 179.200 C 264.930 178.926,265.200 178.454,265.200 178.151 C 265.200 177.848,265.368 177.600,265.573 177.600 C 265.778 177.600,266.048 177.285,266.172 176.900 C 266.296 176.515,267.208 175.308,268.199 174.217 C 269.765 172.492,270.451 171.200,269.800 171.200 C 269.690 171.200,269.600 171.365,269.600 171.567 M296.666 174.791 C 296.043 176.152,295.626 177.359,295.740 177.473 C 296.058 177.791,298.063 173.616,297.923 172.925 C 297.855 172.590,297.290 173.429,296.666 174.791 M294.870 179.170 C 294.612 179.912,294.413 180.808,294.428 181.160 C 294.444 181.512,294.717 181.089,295.035 180.220 C 295.353 179.351,295.552 178.456,295.477 178.231 C 295.402 178.006,295.129 178.429,294.870 179.170 M261.591 181.934 C 260.596 182.960,259.466 184.296,259.081 184.901 C 258.695 185.507,257.709 186.432,256.890 186.956 C 256.070 187.480,254.590 188.644,253.600 189.541 C 252.610 190.439,251.034 191.568,250.098 192.051 C 249.161 192.533,248.464 192.997,248.548 193.081 C 248.885 193.418,251.895 191.713,253.400 190.333 C 255.438 188.464,257.051 187.200,257.397 187.200 C 257.546 187.200,258.238 186.527,258.934 185.704 C 259.630 184.882,261.055 183.377,262.100 182.360 C 263.145 181.344,264.000 180.397,264.000 180.256 C 264.000 179.681,263.307 180.164,261.591 181.934 M293.627 184.005 C 293.317 184.992,292.586 186.340,292.004 187.000 C 290.629 188.557,289.596 190.238,289.616 190.886 C 289.625 191.169,289.921 190.860,290.274 190.200 C 290.626 189.540,291.363 188.550,291.910 188.000 C 293.052 186.853,294.489 183.760,294.311 182.835 C 294.245 182.491,293.937 183.017,293.627 184.005 M287.175 194.224 C 285.979 195.667,284.939 197.019,284.865 197.229 C 284.558 198.096,276.357 206.800,275.847 206.800 C 275.711 206.800,275.267 207.115,274.859 207.500 C 273.855 208.449,264.690 216.635,262.376 218.650 C 260.765 220.053,259.086 222.020,259.309 222.242 C 259.424 222.357,260.200 221.635,261.034 220.637 C 261.868 219.639,263.416 218.232,264.475 217.511 C 265.533 216.790,266.399 216.065,266.399 215.900 C 266.400 215.570,267.883 214.000,268.194 214.000 C 268.301 214.000,269.459 212.995,270.768 211.766 C 272.077 210.537,274.019 208.872,275.084 208.066 C 277.388 206.323,283.600 200.177,283.600 199.642 C 283.600 199.436,283.745 199.207,283.923 199.133 C 284.101 199.060,284.800 198.190,285.477 197.200 C 286.154 196.210,287.359 194.712,288.154 193.872 C 289.384 192.572,289.949 191.600,289.475 191.600 C 289.407 191.600,288.372 192.781,287.175 194.224 M245.805 193.911 C 245.148 194.290,244.428 194.813,244.205 195.072 C 243.982 195.332,243.170 195.812,242.400 196.140 C 241.346 196.588,241.208 196.743,241.840 196.767 C 242.302 196.785,243.425 196.260,244.337 195.600 C 245.248 194.940,246.130 194.394,246.297 194.387 C 246.463 194.380,246.949 194.110,247.376 193.787 C 248.489 192.946,247.318 193.038,245.805 193.911 M238.200 197.067 C 237.760 197.154,235.960 197.390,234.200 197.592 L 231.000 197.960 235.004 197.803 C 237.206 197.716,239.456 197.466,240.004 197.248 L 241.000 196.851 240.000 196.880 C 239.450 196.896,238.640 196.980,238.200 197.067 M206.213 198.681 C 204.680 199.010,202.991 199.621,202.459 200.039 C 201.927 200.458,201.111 200.806,200.646 200.814 C 199.825 200.828,197.433 201.957,198.165 201.986 C 198.945 202.016,203.052 200.608,204.000 199.985 C 204.580 199.604,206.762 199.117,209.200 198.824 C 214.452 198.192,214.873 198.061,211.600 198.073 C 210.170 198.079,207.746 198.352,206.213 198.681 M194.000 202.600 C 193.119 202.939,192.897 203.139,193.400 203.139 C 193.840 203.139,194.830 202.897,195.600 202.600 C 196.481 202.261,196.703 202.061,196.200 202.061 C 195.760 202.061,194.770 202.303,194.000 202.600 M189.991 204.339 C 189.226 204.965,188.180 205.699,187.666 205.971 C 187.152 206.243,186.831 206.565,186.953 206.687 C 187.149 206.882,192.400 203.640,192.400 203.324 C 192.400 202.859,191.161 203.381,189.991 204.339 M183.642 207.604 C 182.895 208.021,181.815 208.804,181.242 209.344 C 180.669 209.885,179.030 210.965,177.600 211.746 C 175.223 213.043,171.077 216.406,171.866 216.396 C 172.050 216.393,172.926 215.697,173.813 214.849 C 174.700 214.000,176.410 212.839,177.613 212.268 C 178.816 211.697,180.406 210.674,181.146 209.995 C 181.887 209.316,183.282 208.390,184.246 207.936 C 185.211 207.483,186.000 207.042,186.000 206.956 C 186.000 206.597,184.910 206.896,183.642 207.604 M169.115 217.155 C 168.518 217.538,167.607 218.290,167.090 218.826 C 166.132 219.820,165.482 220.247,162.590 221.785 C 160.943 222.660,156.834 226.400,157.518 226.400 C 157.719 226.400,158.723 225.584,159.749 224.587 C 160.774 223.591,162.016 222.599,162.507 222.383 C 164.135 221.669,166.325 220.217,167.761 218.900 C 168.541 218.185,169.329 217.600,169.513 217.600 C 169.697 217.600,170.196 217.336,170.624 217.013 C 171.762 216.152,170.492 216.271,169.115 217.155 M257.069 223.590 C 256.519 224.245,255.945 225.338,255.796 226.019 C 255.382 227.905,255.801 227.825,256.409 225.902 C 256.705 224.966,257.409 223.801,257.973 223.314 C 258.538 222.827,258.791 222.422,258.536 222.414 C 258.280 222.406,257.620 222.936,257.069 223.590 M154.768 227.129 C 154.201 227.498,153.301 228.256,152.768 228.814 C 152.236 229.372,150.990 230.157,150.000 230.559 C 149.010 230.961,147.511 231.574,146.668 231.920 C 145.826 232.267,144.566 233.054,143.868 233.669 C 143.171 234.284,142.330 234.796,142.000 234.808 C 141.234 234.834,139.227 235.967,139.913 235.986 C 140.808 236.011,143.219 234.851,144.735 233.667 C 145.541 233.038,147.540 232.017,149.178 231.397 C 150.973 230.718,152.687 229.740,153.492 228.935 C 154.226 228.201,154.956 227.594,155.113 227.587 C 155.271 227.580,155.749 227.310,156.176 226.987 C 157.281 226.152,156.087 226.272,154.768 227.129 M255.277 234.400 C 255.165 241.433,254.417 248.143,253.660 248.900 C 253.407 249.153,253.200 249.669,253.200 250.047 C 253.200 250.424,253.049 250.793,252.865 250.867 C 252.049 251.191,250.401 257.249,250.460 259.704 L 250.521 262.200 250.814 259.200 C 251.110 256.163,252.094 253.062,253.541 250.611 C 255.061 248.035,255.628 243.621,255.500 235.384 L 255.381 227.800 255.277 234.400 M135.986 236.732 C 134.069 237.637,132.212 239.145,132.572 239.505 C 132.733 239.667,133.096 239.484,133.377 239.099 C 133.658 238.715,134.078 238.400,134.311 238.400 C 134.543 238.400,134.793 238.233,134.867 238.029 C 134.940 237.825,135.900 237.295,137.000 236.851 C 138.100 236.407,138.640 236.048,138.200 236.054 C 137.760 236.060,136.763 236.365,135.986 236.732 M130.576 240.187 C 130.149 240.510,129.980 240.775,130.200 240.775 C 130.420 240.775,130.949 240.510,131.376 240.187 C 131.804 239.864,131.973 239.600,131.753 239.600 C 131.533 239.600,131.004 239.864,130.576 240.187 M127.103 241.808 C 126.287 242.362,125.429 243.172,125.196 243.608 C 124.963 244.043,124.508 244.400,124.186 244.400 C 123.864 244.400,123.600 244.567,123.600 244.771 C 123.600 244.975,123.285 245.224,122.900 245.324 C 122.259 245.492,122.257 245.511,122.883 245.554 C 123.259 245.579,124.339 244.863,125.283 243.962 C 126.227 243.061,127.630 241.989,128.400 241.579 C 129.170 241.170,129.527 240.827,129.193 240.818 C 128.859 240.808,127.918 241.253,127.103 241.808 M118.600 246.536 C 117.500 247.008,116.510 247.486,116.400 247.600 C 116.043 247.970,113.454 249.146,111.200 249.962 C 109.990 250.400,109.308 250.768,109.685 250.779 C 110.547 250.805,113.766 249.580,117.400 247.843 C 118.940 247.107,120.650 246.313,121.200 246.079 C 122.034 245.725,122.068 245.656,121.400 245.667 C 120.960 245.674,119.700 246.065,118.600 246.536 M104.712 252.409 C 103.454 253.282,101.691 254.290,100.795 254.648 C 99.900 255.007,99.262 255.396,99.379 255.513 C 99.691 255.824,102.781 254.416,104.395 253.227 C 105.163 252.662,106.423 251.900,107.195 251.532 C 108.210 251.050,108.378 250.859,107.800 250.843 C 107.360 250.831,105.970 251.535,104.712 252.409 M95.600 256.852 C 93.416 258.342,92.484 259.200,93.052 259.200 C 93.285 259.200,93.999 258.739,94.638 258.176 C 95.277 257.613,96.430 256.811,97.200 256.394 C 97.970 255.977,98.330 255.633,98.000 255.630 C 97.670 255.628,96.590 256.178,95.600 256.852 M90.800 259.595 C 90.470 259.787,89.328 260.340,88.263 260.826 C 87.197 261.311,85.875 262.124,85.326 262.634 C 84.776 263.143,83.398 263.869,82.263 264.246 C 81.128 264.623,80.441 265.013,80.735 265.111 C 81.505 265.369,84.285 264.045,86.565 262.336 C 87.645 261.525,89.299 260.668,90.241 260.431 C 91.182 260.194,92.064 259.820,92.200 259.600 C 92.499 259.116,91.631 259.113,90.800 259.595 M250.813 263.050 C 250.833 263.575,252.271 265.200,252.717 265.200 C 252.930 265.200,254.112 266.315,255.342 267.677 C 256.573 269.039,257.665 270.068,257.769 269.964 C 257.873 269.860,256.843 268.655,255.479 267.286 C 251.671 263.461,250.799 262.670,250.813 263.050 M77.000 266.073 C 76.120 266.533,75.310 267.020,75.200 267.155 C 74.786 267.662,73.025 268.494,70.850 269.209 C 69.613 269.616,68.998 269.961,69.485 269.975 C 70.647 270.008,74.211 268.590,75.760 267.479 C 76.435 266.996,77.619 266.300,78.393 265.932 C 79.167 265.565,79.530 265.258,79.200 265.250 C 78.870 265.242,77.880 265.612,77.000 266.073 M63.600 270.650 C 62.610 270.973,61.260 271.477,60.600 271.771 C 59.940 272.064,58.592 272.549,57.605 272.847 C 56.481 273.188,56.086 273.444,56.548 273.533 C 57.260 273.670,59.697 272.920,62.200 271.793 C 62.860 271.496,64.390 270.985,65.600 270.658 C 67.224 270.220,67.486 270.064,66.600 270.064 C 65.940 270.063,64.590 270.327,63.600 270.650 M260.218 271.900 C 261.262 272.945,262.809 274.511,263.658 275.381 C 264.506 276.250,265.200 276.775,265.200 276.547 C 265.200 276.320,264.642 275.608,263.959 274.967 C 263.277 274.325,261.900 272.945,260.900 271.900 C 259.899 270.855,258.910 270.000,258.701 270.000 C 258.492 270.000,259.175 270.855,260.218 271.900 M218.767 270.829 C 218.329 271.106,218.393 271.189,219.051 271.194 C 220.657 271.205,220.849 271.988,220.591 277.461 C 220.458 280.288,220.520 283.410,220.730 284.400 C 221.029 285.810,221.122 284.626,221.156 278.946 C 221.203 271.219,220.724 269.590,218.767 270.829 M115.000 271.388 C 114.780 271.457,113.610 271.807,112.400 272.166 C 109.635 272.987,108.599 273.585,109.926 273.594 C 110.436 273.597,111.233 273.396,111.699 273.147 C 115.146 271.302,125.076 271.193,127.948 272.968 C 129.213 273.750,139.424 275.757,138.800 275.101 C 138.690 274.985,136.980 274.580,135.000 274.201 C 133.020 273.822,129.901 272.991,128.068 272.356 C 124.990 271.288,117.172 270.709,115.000 271.388 M215.758 272.226 C 215.074 272.769,213.274 273.647,211.758 274.177 C 210.089 274.760,209.395 275.146,210.000 275.154 C 211.409 275.173,218.000 272.048,218.000 271.360 C 218.000 270.910,216.858 271.350,215.758 272.226 M50.400 274.065 C 49.190 274.269,45.230 274.595,41.600 274.790 L 35.000 275.144 42.600 274.965 C 46.780 274.866,51.460 274.539,53.000 274.238 C 56.339 273.584,54.123 273.437,50.400 274.065 M106.735 273.798 C 106.626 273.907,105.381 274.264,103.968 274.592 C 101.460 275.174,101.447 275.183,103.400 275.011 C 105.891 274.792,109.528 273.699,107.967 273.640 C 107.398 273.618,106.844 273.689,106.735 273.798 M19.400 274.837 C 18.096 274.992,19.071 275.085,22.200 275.106 C 24.840 275.123,26.820 275.074,26.600 274.997 C 25.770 274.708,21.322 274.609,19.400 274.837 M9.522 275.012 C 9.385 275.148,8.942 275.309,8.537 275.368 C 8.131 275.427,7.734 275.819,7.654 276.238 C 7.511 276.979,7.531 276.978,8.376 276.218 C 9.111 275.555,9.853 275.433,13.221 275.418 C 15.408 275.408,17.198 275.288,17.199 275.151 C 17.200 274.823,9.844 274.690,9.522 275.012 M95.800 275.967 C 94.480 276.344,92.950 276.851,92.400 277.093 C 91.850 277.336,90.680 277.809,89.800 278.146 C 88.907 278.488,88.540 278.768,88.969 278.779 C 89.391 278.791,90.921 278.324,92.369 277.743 C 93.816 277.161,96.260 276.365,97.800 275.975 C 99.455 275.554,100.109 275.268,99.400 275.273 C 98.740 275.278,97.120 275.591,95.800 275.967 M140.800 275.800 C 142.652 276.513,143.177 276.509,142.224 275.787 C 141.796 275.464,140.986 275.214,140.424 275.230 C 139.493 275.258,139.527 275.310,140.800 275.800 M205.200 275.857 C 204.210 276.184,202.680 276.770,201.800 277.161 C 200.920 277.551,199.750 278.068,199.200 278.308 C 198.209 278.742,198.208 278.746,199.116 278.773 C 199.620 278.788,200.790 278.406,201.716 277.924 C 202.642 277.443,204.570 276.647,206.000 276.156 C 207.430 275.665,208.240 275.263,207.800 275.263 C 207.360 275.263,206.190 275.530,205.200 275.857 M237.829 276.629 C 237.483 276.974,237.205 277.469,237.212 277.729 C 237.219 277.988,237.405 277.891,237.625 277.513 C 237.845 277.135,238.335 276.645,238.713 276.425 C 239.091 276.205,239.188 276.019,238.929 276.012 C 238.669 276.005,238.174 276.283,237.829 276.629 M240.400 277.213 C 240.950 277.646,241.631 278.193,241.914 278.429 C 242.196 278.664,242.646 278.785,242.912 278.696 C 243.179 278.607,242.636 278.054,241.706 277.467 C 239.739 276.225,238.948 276.071,240.400 277.213 M143.247 279.220 L 143.294 281.800 143.654 279.627 C 143.890 278.206,143.874 277.314,143.607 277.047 C 143.331 276.771,143.215 277.470,143.247 279.220 M265.368 283.300 L 265.337 289.400 265.848 285.800 C 266.272 282.819,266.017 277.199,265.459 277.200 C 265.427 277.200,265.386 279.945,265.368 283.300 M83.400 279.408 C 81.160 279.879,81.106 279.915,82.600 279.949 C 83.480 279.968,85.100 279.734,86.200 279.428 C 88.820 278.699,86.836 278.684,83.400 279.408 M193.600 279.448 L 191.000 279.981 193.600 279.815 C 195.030 279.723,196.650 279.469,197.200 279.250 L 198.200 278.851 197.200 278.883 C 196.650 278.900,195.030 279.155,193.600 279.448 M236.485 279.773 C 236.218 280.359,236.013 281.234,236.028 281.719 C 236.048 282.340,236.227 282.134,236.635 281.020 C 237.311 279.175,237.195 278.215,236.485 279.773 M245.459 280.705 C 247.664 282.868,250.185 285.908,250.515 286.800 C 250.702 287.305,250.742 287.297,250.768 286.754 C 250.816 285.775,244.790 278.800,243.897 278.800 C 243.689 278.800,244.392 279.657,245.459 280.705 M13.300 280.412 C 12.805 280.611,12.400 280.881,12.400 281.011 C 12.400 281.141,12.588 281.131,12.818 280.989 C 13.048 280.847,14.443 280.590,15.918 280.418 L 18.600 280.105 16.400 280.078 C 15.190 280.063,13.795 280.213,13.300 280.412 M25.600 280.772 C 27.030 281.170,29.100 281.894,30.200 282.382 C 31.494 282.955,33.260 283.323,35.200 283.424 L 38.200 283.580 34.800 282.890 C 32.930 282.510,31.178 282.056,30.908 281.881 C 29.783 281.152,25.773 280.002,24.437 280.024 C 23.185 280.045,23.335 280.141,25.600 280.772 M74.600 280.609 C 71.766 281.338,74.180 281.350,77.400 280.624 C 79.596 280.128,79.664 280.083,78.200 280.089 C 77.320 280.092,75.700 280.326,74.600 280.609 M184.089 281.177 C 182.945 282.222,182.801 282.594,182.805 284.477 C 182.808 285.645,182.747 290.560,182.671 295.400 C 182.592 300.368,182.669 303.503,182.848 302.600 C 183.021 301.720,183.188 298.030,183.217 294.400 C 183.324 281.195,183.379 280.988,187.000 280.372 L 188.600 280.100 186.989 280.050 C 185.723 280.011,185.102 280.252,184.089 281.177 M69.200 281.679 C 68.650 281.915,66.940 282.430,65.400 282.824 C 62.861 283.474,62.749 283.543,64.200 283.565 C 65.080 283.578,67.330 283.064,69.200 282.422 C 71.564 281.611,72.234 281.255,71.400 281.253 C 70.740 281.252,69.750 281.444,69.200 281.679 M142.443 285.600 C 142.137 287.470,141.644 289.810,141.348 290.800 C 140.620 293.229,140.649 295.263,141.379 293.000 C 142.507 289.503,143.248 285.680,143.127 283.985 C 143.012 282.372,142.946 282.529,142.443 285.600 M40.600 284.054 C 43.760 284.395,58.049 284.403,60.600 284.065 C 61.700 283.919,57.110 283.799,50.400 283.798 C 43.690 283.796,39.280 283.912,40.600 284.054 M235.454 285.456 C 235.123 287.875,235.195 291.537,235.600 292.800 C 235.799 293.422,235.935 291.875,235.960 288.700 C 236.002 283.292,235.869 282.434,235.454 285.456 M221.262 288.400 C 221.247 289.170,221.479 290.880,221.776 292.200 C 222.477 295.307,222.511 293.447,221.820 289.800 C 221.451 287.851,221.281 287.425,221.262 288.400 M250.905 293.000 C 250.917 297.209,250.929 297.272,251.188 294.451 C 251.337 292.830,251.331 290.850,251.175 290.051 C 250.996 289.131,250.897 290.211,250.905 293.000 M264.685 292.000 C 264.042 295.232,263.621 296.747,262.638 299.359 C 262.067 300.876,261.616 302.676,261.636 303.359 C 261.666 304.363,261.784 304.180,262.255 302.400 C 262.575 301.190,263.076 299.660,263.369 299.000 C 264.140 297.260,265.297 292.187,265.117 291.331 C 265.019 290.869,264.861 291.114,264.685 292.000 M161.027 294.882 C 160.138 296.151,160.216 297.116,161.117 296.003 C 161.983 294.934,162.370 295.300,163.228 298.000 C 163.730 299.580,163.815 299.669,163.924 298.730 C 164.195 296.383,162.010 293.480,161.027 294.882 M222.427 295.508 C 222.394 296.606,224.903 301.891,225.131 301.206 C 225.220 300.941,224.846 299.796,224.302 298.662 C 223.757 297.528,223.118 296.150,222.883 295.600 C 222.461 294.617,222.454 294.616,222.427 295.508 M236.226 297.439 C 236.342 299.000,236.593 300.800,236.784 301.439 L 237.131 302.600 237.134 301.400 C 237.136 300.740,236.884 298.940,236.576 297.400 L 236.015 294.600 236.226 297.439 M140.100 296.919 C 139.396 299.585,139.521 301.038,140.251 298.663 C 140.578 297.597,140.791 296.344,140.723 295.877 C 140.642 295.318,140.429 295.676,140.100 296.919 M159.685 298.360 C 158.998 300.287,159.112 301.276,159.830 299.621 C 160.159 298.862,160.370 297.962,160.299 297.621 C 160.224 297.263,159.964 297.576,159.685 298.360 M249.855 306.200 C 249.154 311.460,249.149 311.937,249.769 314.051 C 250.354 316.048,252.000 318.432,252.000 317.282 C 252.000 317.039,251.759 316.696,251.465 316.520 C 250.204 315.767,249.592 311.247,250.241 307.484 C 250.573 305.559,250.790 303.223,250.723 302.292 C 250.639 301.142,250.361 302.394,249.855 306.200 M138.885 302.573 C 138.215 304.044,138.278 304.352,139.030 303.279 C 139.376 302.784,139.595 302.184,139.515 301.944 C 139.435 301.705,139.152 301.988,138.885 302.573 M158.233 303.136 C 157.910 303.761,157.188 304.706,156.630 305.236 C 156.071 305.766,155.619 306.380,155.625 306.600 C 155.641 307.185,159.200 303.115,159.200 302.511 C 159.200 301.696,158.866 301.912,158.233 303.136 M225.237 302.400 C 225.223 302.730,225.467 303.810,225.779 304.800 C 226.168 306.032,226.345 306.285,226.343 305.600 C 226.339 304.504,225.276 301.429,225.237 302.400 M237.232 303.892 C 237.202 304.722,237.964 307.120,238.860 309.017 C 239.073 309.466,239.580 311.086,239.987 312.617 C 240.519 314.616,240.738 315.054,240.764 314.171 C 240.801 312.924,239.978 309.980,238.984 307.800 C 238.684 307.140,238.173 305.790,237.850 304.800 C 237.479 303.663,237.252 303.328,237.232 303.892 M136.875 305.584 C 135.597 307.313,135.818 307.621,137.206 306.046 C 138.480 304.601,138.586 304.400,138.075 304.400 C 137.897 304.400,137.357 304.933,136.875 305.584 M163.526 306.000 C 163.375 306.990,163.152 308.520,163.031 309.400 L 162.810 311.000 163.416 309.200 C 163.749 308.210,163.972 306.680,163.911 305.800 L 163.800 304.200 163.526 306.000 M181.511 306.500 C 181.141 307.655,180.379 309.944,179.819 311.586 C 179.259 313.228,178.814 314.938,178.831 315.386 C 178.847 315.834,179.202 315.045,179.618 313.633 C 180.034 312.221,180.763 310.241,181.238 309.233 C 182.017 307.578,182.745 304.400,182.345 304.400 C 182.257 304.400,181.882 305.345,181.511 306.500 M261.324 307.000 C 261.326 308.320,261.401 308.812,261.490 308.093 C 261.579 307.374,261.577 306.294,261.486 305.693 C 261.395 305.092,261.322 305.680,261.324 307.000 M154.857 308.057 C 154.575 308.509,154.432 308.966,154.540 309.073 C 154.647 309.181,154.944 308.878,155.200 308.400 C 155.805 307.270,155.524 306.990,154.857 308.057 M135.232 308.339 C 134.995 308.784,134.800 309.387,134.800 309.680 C 134.800 310.476,133.250 313.260,132.159 314.422 C 131.632 314.984,131.200 315.609,131.200 315.811 C 131.200 317.073,134.100 312.799,135.189 309.931 C 135.994 307.814,136.019 306.869,135.232 308.339 M226.680 313.600 C 227.189 324.644,227.548 328.170,227.352 320.200 C 227.249 316.020,227.004 311.700,226.807 310.600 C 226.555 309.190,226.518 310.076,226.680 313.600 M154.000 309.916 C 154.000 310.162,152.920 311.475,151.600 312.832 C 148.713 315.801,148.365 316.767,151.190 313.972 C 153.441 311.745,154.629 310.096,154.254 309.721 C 154.114 309.581,154.000 309.669,154.000 309.916 M261.636 311.200 C 261.622 311.750,262.071 313.007,262.635 313.994 L 263.660 315.787 262.530 316.692 C 261.909 317.189,261.625 317.597,261.900 317.598 C 263.761 317.605,264.253 315.780,263.049 313.333 C 262.526 312.270,262.000 311.130,261.881 310.800 C 261.751 310.441,261.652 310.602,261.636 311.200 M161.634 313.200 C 160.335 315.827,159.206 319.593,159.237 321.200 C 159.267 322.806,159.324 322.675,160.020 319.400 C 160.301 318.080,161.046 315.936,161.677 314.635 C 162.308 313.335,162.756 312.075,162.674 311.835 C 162.592 311.596,162.124 312.210,161.634 313.200 M130.467 317.075 C 129.777 318.364,129.900 319.121,130.630 318.079 C 130.976 317.584,131.187 316.960,131.097 316.691 C 130.999 316.396,130.749 316.548,130.467 317.075 M147.947 317.136 C 147.600 317.542,146.896 318.167,146.382 318.527 C 145.869 318.887,145.535 319.268,145.640 319.374 C 145.746 319.479,146.635 318.861,147.616 318.000 C 148.597 317.139,149.215 316.426,148.989 316.417 C 148.763 316.408,148.294 316.731,147.947 317.136 M240.880 318.000 C 240.869 318.990,241.093 321.330,241.378 323.200 C 241.705 325.352,241.902 326.013,241.913 325.000 C 241.923 324.120,241.699 321.780,241.416 319.800 C 241.050 317.242,240.895 316.721,240.880 318.000 M178.152 318.900 C 177.896 320.040,177.916 321.324,178.212 322.800 L 178.655 325.000 178.655 321.100 C 178.655 316.620,178.660 316.643,178.152 318.900 M252.832 317.972 C 254.113 318.766,258.504 318.931,260.000 318.242 C 261.344 317.623,261.352 317.607,260.200 317.845 C 258.424 318.213,256.447 318.226,254.200 317.884 C 252.846 317.678,252.404 317.707,252.832 317.972 M129.285 320.360 C 128.643 322.161,128.673 322.359,129.428 321.282 C 129.773 320.789,129.991 320.073,129.913 319.693 C 129.815 319.220,129.615 319.432,129.285 320.360 M145.053 320.314 C 144.947 320.486,144.806 321.814,144.741 323.266 C 144.620 325.965,144.914 326.740,146.516 327.934 C 149.013 329.795,148.898 331.605,146.250 332.124 C 145.515 332.269,145.535 332.297,146.400 332.339 C 147.304 332.382,149.200 330.938,149.200 330.207 C 149.200 330.054,148.280 329.041,147.157 327.958 L 145.113 325.989 145.264 322.994 C 145.417 319.962,145.401 319.751,145.053 320.314 M127.300 323.727 C 125.840 325.872,126.029 326.233,129.573 328.075 C 131.589 329.122,131.524 328.666,129.486 327.472 C 127.364 326.228,126.363 325.150,127.100 324.902 C 127.375 324.809,127.600 324.498,127.600 324.209 C 127.600 323.921,127.870 323.582,128.200 323.455 C 128.530 323.329,128.800 323.039,128.800 322.813 C 128.800 322.039,128.201 322.404,127.300 323.727 M178.800 325.954 C 178.800 326.128,179.610 327.029,180.600 327.957 C 182.628 329.858,182.796 330.542,181.500 331.623 C 181.005 332.036,180.812 332.379,181.071 332.387 C 182.012 332.413,183.252 330.350,182.719 329.643 C 181.870 328.516,178.800 325.626,178.800 325.954 M242.032 327.320 C 242.015 327.716,242.270 328.562,242.600 329.200 C 244.263 332.415,235.936 334.325,230.800 331.905 C 228.989 331.052,228.419 330.473,227.940 329.000 C 227.739 328.383,227.671 328.486,227.640 329.454 C 227.545 332.443,235.403 334.658,239.946 332.923 C 241.731 332.241,244.601 330.000,243.689 330.000 C 243.420 330.000,243.192 329.775,243.182 329.500 C 243.149 328.587,242.068 326.536,242.032 327.320 M131.600 328.927 C 131.600 329.027,132.185 329.407,132.900 329.771 C 133.615 330.134,134.920 330.867,135.800 331.399 C 136.701 331.943,138.011 332.361,138.800 332.355 C 140.163 332.345,140.148 332.328,138.250 331.745 C 137.177 331.416,135.647 330.735,134.850 330.232 C 133.388 329.309,131.600 328.592,131.600 328.927 M159.200 330.525 C 159.200 330.942,160.752 332.586,160.944 332.371 C 161.027 332.277,160.669 331.754,160.148 331.208 C 159.627 330.663,159.200 330.356,159.200 330.525 M141.500 332.682 C 141.995 332.778,142.805 332.778,143.300 332.682 C 143.795 332.587,143.390 332.509,142.400 332.509 C 141.410 332.509,141.005 332.587,141.500 332.682 M163.800 332.853 C 166.862 333.185,177.436 333.185,178.958 332.853 C 179.595 332.714,175.905 332.598,170.758 332.596 C 165.611 332.594,162.480 332.710,163.800 332.853 "
       stroke="none"
       fill="#947474"
       fill-rule="evenodd" />
    <path
       id="path3"
       d="M323.689 86.664 C 322.968 87.020,321.969 87.796,321.470 88.390 C 320.961 88.994,319.954 89.584,319.181 89.731 C 314.577 90.606,311.600 92.213,311.600 93.825 C 311.600 94.141,311.321 94.400,310.980 94.400 C 309.856 94.400,307.828 95.670,305.951 97.549 C 304.934 98.567,303.717 99.749,303.246 100.175 C 302.776 100.601,302.206 101.634,301.981 102.471 C 301.669 103.627,301.314 104.057,300.497 104.262 C 299.313 104.559,298.035 105.863,298.011 106.800 C 298.002 107.130,297.726 107.916,297.398 108.546 C 297.069 109.176,296.800 109.870,296.800 110.088 C 296.800 110.306,296.345 110.843,295.789 111.280 C 294.568 112.241,293.200 114.805,293.200 116.134 C 293.200 116.665,292.930 117.865,292.600 118.800 C 292.270 119.735,292.000 120.997,292.000 121.604 C 292.000 122.347,291.665 122.927,290.975 123.380 C 289.706 124.211,288.612 126.700,288.241 129.600 C 287.811 132.951,287.150 134.918,286.158 135.800 C 284.952 136.872,283.600 139.539,283.600 140.845 C 283.600 141.427,283.330 142.549,283.000 143.338 C 282.670 144.128,282.400 145.281,282.400 145.901 C 282.400 146.718,282.084 147.214,281.248 147.708 C 280.122 148.373,278.800 150.535,278.800 151.712 C 278.800 152.036,278.530 152.949,278.200 153.738 C 277.870 154.528,277.600 155.586,277.600 156.090 C 277.600 156.701,277.235 157.169,276.500 157.500 C 275.399 157.996,273.600 160.347,273.600 161.290 C 273.600 162.291,272.187 165.197,271.700 165.199 C 271.425 165.199,271.200 165.389,271.200 165.619 C 271.200 165.850,270.747 166.458,270.192 166.972 C 269.638 167.486,268.909 168.835,268.572 169.971 C 268.135 171.440,267.691 172.137,267.032 172.388 C 265.883 172.825,264.581 174.441,264.022 176.125 C 263.789 176.826,262.879 178.010,261.999 178.756 C 261.120 179.502,260.400 180.261,260.400 180.443 C 260.400 181.059,254.610 186.518,252.720 187.684 C 251.686 188.322,250.728 189.196,250.592 189.626 C 250.288 190.584,248.702 191.443,246.586 191.797 C 244.008 192.228,240.800 194.090,240.800 195.155 C 240.800 195.844,238.021 196.017,221.000 196.390 C 202.182 196.803,200.805 196.983,198.642 199.316 C 197.818 200.206,191.675 202.000,189.451 202.000 C 189.227 202.000,187.448 203.778,186.484 204.965 C 186.201 205.314,185.526 205.600,184.985 205.600 C 183.798 205.600,178.800 207.899,178.800 208.446 C 178.800 209.189,177.387 210.278,175.438 211.036 C 174.046 211.578,173.121 212.295,172.261 213.500 C 171.432 214.659,170.752 215.200,170.122 215.200 C 168.590 215.200,164.575 217.617,164.214 218.757 C 164.013 219.390,160.883 221.200,159.989 221.200 C 159.420 221.200,158.000 222.714,158.000 223.320 C 158.000 224.013,157.180 224.800,156.459 224.800 C 155.331 224.800,151.710 226.780,150.363 228.133 C 149.432 229.069,148.113 229.782,146.200 230.385 C 144.660 230.871,142.797 231.748,142.060 232.334 C 139.747 234.174,138.631 234.796,137.635 234.798 C 135.458 234.803,132.305 236.182,130.576 237.887 C 129.620 238.829,128.550 239.600,128.199 239.600 C 126.578 239.600,123.804 241.644,123.536 243.037 C 123.425 243.615,122.819 243.903,120.995 244.248 C 115.860 245.218,111.600 246.892,111.600 247.941 C 111.600 248.315,109.342 249.048,107.117 249.397 C 104.984 249.732,102.297 251.013,101.600 252.028 C 100.888 253.063,98.213 254.379,96.794 254.391 C 95.379 254.404,93.074 255.726,91.198 257.602 C 89.953 258.847,89.296 259.200,88.223 259.200 C 86.780 259.200,84.371 260.386,82.983 261.780 C 81.640 263.128,79.768 264.000,78.216 264.000 C 76.333 264.000,73.541 265.280,72.119 266.795 C 70.919 268.074,68.307 268.800,64.903 268.800 C 62.206 268.800,57.677 269.918,55.133 271.212 C 50.761 273.436,27.819 274.394,16.200 272.838 C 8.839 271.852,8.186 271.955,7.930 274.151 C 7.787 275.375,7.857 275.495,8.585 275.276 C 9.033 275.141,11.290 274.997,13.600 274.956 C 15.910 274.916,18.790 274.832,20.000 274.770 C 21.210 274.708,24.180 274.791,26.600 274.954 C 37.031 275.658,56.146 273.932,60.125 271.928 C 61.590 271.189,65.836 270.010,67.048 270.005 C 69.037 269.997,74.420 268.114,75.200 267.154 C 75.530 266.747,78.732 265.200,79.243 265.200 C 80.306 265.200,84.462 263.434,85.362 262.601 C 86.222 261.803,88.284 260.714,91.200 259.518 C 92.586 258.949,92.842 258.799,95.335 257.100 C 96.545 256.275,97.797 255.600,98.117 255.600 C 99.091 255.600,102.453 253.970,104.839 252.341 C 106.081 251.494,107.449 250.800,107.879 250.800 C 109.255 250.800,115.595 248.417,116.400 247.596 C 116.755 247.234,120.960 245.668,122.300 245.398 C 123.015 245.254,123.600 244.971,123.600 244.768 C 123.600 244.566,123.836 244.400,124.125 244.400 C 124.413 244.400,125.018 243.902,125.467 243.294 C 126.235 242.255,126.993 241.790,130.684 240.089 C 131.507 239.710,132.634 238.984,133.190 238.476 C 134.349 237.416,136.376 236.446,138.400 235.983 C 140.752 235.445,142.751 234.587,143.822 233.656 C 144.819 232.789,146.377 232.007,150.000 230.555 C 150.990 230.159,152.250 229.369,152.800 228.801 C 154.051 227.508,155.788 226.400,156.562 226.400 C 156.887 226.400,158.007 225.558,159.051 224.529 C 160.095 223.499,161.688 222.265,162.590 221.785 C 165.488 220.244,166.135 219.820,167.177 218.776 C 168.460 217.490,170.193 216.400,170.952 216.400 C 171.272 216.400,172.313 215.672,173.266 214.782 C 174.220 213.892,176.260 212.472,177.800 211.626 C 179.340 210.780,180.937 209.714,181.348 209.259 C 182.214 208.300,184.946 206.800,185.826 206.800 C 186.470 206.800,187.747 206.059,190.000 204.380 C 191.444 203.304,195.135 202.011,196.835 201.986 C 197.366 201.978,198.250 201.714,198.800 201.400 C 199.350 201.086,200.181 200.822,200.646 200.814 C 201.111 200.806,201.921 200.463,202.446 200.052 C 204.257 198.633,207.055 198.320,220.800 198.003 C 236.753 197.636,244.379 196.638,244.405 194.914 C 244.407 194.741,245.172 194.266,246.105 193.859 C 250.120 192.102,251.909 191.072,253.600 189.540 C 254.590 188.643,256.070 187.480,256.890 186.956 C 257.709 186.432,258.693 185.507,259.077 184.901 C 259.460 184.296,260.724 182.871,261.887 181.735 C 263.049 180.599,264.000 179.545,264.000 179.393 C 264.000 179.240,264.540 178.316,265.200 177.338 C 265.860 176.360,266.400 175.485,266.400 175.393 C 266.400 175.302,267.041 174.585,267.825 173.801 C 268.610 173.017,269.525 171.706,269.861 170.888 C 270.196 170.070,271.147 168.680,271.975 167.800 C 272.803 166.920,274.002 164.968,274.640 163.461 C 275.278 161.955,276.431 160.015,277.203 159.152 C 278.051 158.202,278.912 156.595,279.379 155.090 C 280.087 152.808,282.374 148.710,283.239 148.176 C 283.438 148.053,283.600 147.571,283.600 147.105 C 283.600 145.758,285.244 141.116,286.187 139.800 C 287.208 138.375,288.400 135.883,288.400 135.175 C 288.400 133.764,290.649 127.277,291.372 126.600 C 291.974 126.037,293.200 123.302,293.200 122.522 C 293.200 120.842,295.186 115.341,296.200 114.214 C 296.882 113.455,297.585 112.069,298.420 109.837 C 299.147 107.895,300.770 105.600,301.417 105.600 C 301.819 105.600,303.172 103.852,303.187 103.314 C 303.201 102.800,305.044 100.770,306.049 100.161 C 306.376 99.962,307.124 99.159,307.711 98.376 C 308.298 97.593,309.635 96.525,310.682 96.002 C 311.729 95.479,313.300 94.365,314.174 93.525 C 315.047 92.686,316.094 92.000,316.500 92.000 C 316.907 92.000,317.726 91.756,318.320 91.457 C 318.914 91.159,319.980 90.804,320.688 90.669 C 321.397 90.535,322.686 89.977,323.552 89.430 C 324.418 88.884,326.319 88.229,327.776 87.975 C 330.660 87.473,330.802 87.503,335.501 89.655 C 336.877 90.285,338.227 90.799,338.501 90.798 C 338.775 90.797,339.900 91.112,341.000 91.498 C 342.811 92.134,343.559 92.571,344.945 93.806 C 346.313 95.025,348.764 96.800,349.079 96.800 C 349.509 96.800,352.000 99.303,352.000 99.735 C 352.000 100.103,353.426 102.154,354.927 103.944 C 358.042 107.661,356.902 112.800,352.962 112.800 C 352.241 112.800,351.202 112.971,350.651 113.180 C 350.012 113.424,348.739 113.416,347.125 113.160 C 345.736 112.940,342.890 112.491,340.800 112.163 C 338.710 111.835,335.440 111.288,333.533 110.948 C 328.199 109.996,325.313 110.708,322.280 113.723 C 321.352 114.645,319.920 115.970,319.097 116.666 C 318.273 117.362,317.600 118.102,317.600 118.309 C 317.600 118.517,316.869 119.298,315.976 120.044 C 315.082 120.790,313.891 122.172,313.329 123.115 C 312.766 124.059,311.631 125.499,310.806 126.315 C 309.981 127.132,309.209 128.340,309.091 129.000 C 308.815 130.538,307.926 132.907,306.431 136.081 C 305.086 138.935,304.697 140.456,303.792 146.400 C 303.135 150.711,302.371 153.936,301.421 156.400 C 300.696 158.281,299.200 165.253,299.200 166.750 C 299.200 168.725,297.737 174.235,296.668 176.285 C 295.561 178.405,294.400 181.762,294.400 182.838 C 294.400 184.007,292.966 186.940,291.856 188.043 C 291.278 188.616,290.418 189.961,289.945 191.031 C 289.471 192.102,288.567 193.494,287.936 194.126 C 287.304 194.757,286.216 196.112,285.517 197.137 C 284.818 198.162,284.101 199.060,283.923 199.133 C 283.745 199.207,283.600 199.436,283.600 199.642 C 283.600 200.177,277.388 206.323,275.084 208.066 C 274.019 208.872,272.077 210.537,270.768 211.766 C 269.459 212.995,268.301 214.000,268.194 214.000 C 267.883 214.000,266.400 215.570,266.399 215.900 C 266.399 216.065,265.484 216.824,264.365 217.586 C 263.247 218.348,261.974 219.475,261.535 220.091 C 261.097 220.707,259.911 221.842,258.900 222.614 C 256.024 224.810,255.600 226.487,255.600 235.658 C 255.600 243.926,255.050 247.767,253.430 250.800 C 250.564 256.167,249.894 261.839,251.900 263.745 C 252.505 264.320,254.157 265.962,255.572 267.395 C 256.987 268.828,258.355 270.000,258.613 270.000 C 258.870 270.000,259.885 270.873,260.867 271.939 C 261.849 273.006,262.911 274.041,263.227 274.239 C 266.780 276.476,266.869 291.169,263.376 299.000 C 261.290 303.677,261.098 309.565,262.914 313.133 C 264.197 315.653,264.212 315.791,263.292 316.700 C 261.905 318.072,258.605 318.915,255.800 318.615 C 249.813 317.974,248.608 315.241,249.974 305.405 C 250.662 300.447,250.833 297.590,250.731 292.762 L 250.600 286.524 249.000 284.567 C 246.489 281.496,243.588 278.800,242.793 278.800 C 242.393 278.800,242.007 278.665,241.933 278.500 C 241.628 277.812,239.101 276.352,238.569 276.557 C 235.068 277.900,235.382 301.550,238.984 307.800 C 239.928 309.438,240.776 313.579,241.402 319.600 C 242.044 325.790,243.004 330.000,243.772 330.000 C 244.620 330.000,241.642 332.275,239.946 332.923 C 236.750 334.144,231.183 333.349,228.504 331.289 C 227.553 330.557,227.318 328.251,226.557 312.200 C 226.283 306.410,225.456 302.584,223.702 299.000 C 221.758 295.026,220.160 283.726,220.580 276.916 C 220.954 270.834,220.193 269.940,216.658 272.313 C 214.550 273.728,211.126 275.198,209.926 275.205 C 208.690 275.212,204.689 276.486,201.986 277.733 C 199.189 279.023,194.844 279.897,189.877 280.168 C 183.162 280.534,183.289 280.267,183.252 294.001 C 183.233 300.936,182.472 306.663,181.224 309.245 C 177.702 316.535,177.661 324.480,181.129 327.929 C 184.936 331.717,182.295 333.217,171.880 333.182 C 159.337 333.141,159.124 333.011,159.133 325.422 C 159.141 319.709,159.677 317.122,161.708 313.000 C 164.305 307.730,164.576 298.822,162.234 295.659 C 161.750 295.005,160.400 296.430,160.400 297.595 C 160.400 297.984,160.130 298.949,159.800 299.738 C 159.470 300.528,159.199 301.585,159.197 302.087 C 159.196 302.589,158.433 303.888,157.503 304.974 C 156.572 306.060,155.335 307.946,154.754 309.165 C 153.732 311.309,151.559 313.935,147.407 318.047 C 145.418 320.016,145.414 320.025,145.264 323.004 L 145.113 325.989 147.157 327.958 C 149.511 330.227,149.525 330.278,148.167 331.567 C 146.572 333.080,138.642 333.026,135.999 331.484 C 135.009 330.906,132.760 329.701,131.000 328.806 C 125.840 326.182,125.487 325.576,127.728 323.181 C 128.252 322.621,129.069 321.042,129.544 319.671 C 130.532 316.815,131.053 315.804,132.259 314.400 C 133.283 313.208,134.800 310.413,134.800 309.718 C 134.800 308.982,136.322 306.202,137.323 305.112 C 138.512 303.816,139.601 301.409,139.597 300.086 C 139.595 299.489,139.879 297.740,140.228 296.200 C 142.443 286.432,143.200 282.058,143.200 279.019 L 143.200 276.527 140.900 275.881 C 139.635 275.526,137.664 275.132,136.521 275.007 C 134.368 274.770,128.672 273.415,127.948 272.968 C 125.038 271.169,116.809 271.263,111.400 273.155 C 108.975 274.004,103.707 275.200,102.373 275.205 C 100.623 275.211,95.649 276.446,92.800 277.581 C 89.876 278.747,86.109 279.604,82.200 279.992 C 77.154 280.494,73.260 281.222,69.800 282.312 C 60.930 285.104,36.230 285.061,29.855 282.241 C 25.473 280.303,22.431 279.826,17.513 280.303 C 10.887 280.946,10.371 281.924,16.890 281.483 C 21.755 281.154,25.200 281.711,25.200 282.825 C 25.200 287.030,69.567 286.987,76.000 282.776 C 77.476 281.810,80.390 281.200,83.529 281.200 C 88.563 281.200,95.094 279.819,96.892 278.374 C 98.539 277.050,98.989 276.947,107.400 275.962 C 109.600 275.704,112.480 275.341,113.800 275.154 C 118.969 274.424,121.735 274.303,123.733 274.719 C 127.588 275.524,131.090 276.001,134.851 276.234 C 140.860 276.605,141.480 277.118,140.385 280.803 C 140.156 281.571,139.798 284.180,139.589 286.600 C 139.381 289.020,138.952 293.429,138.637 296.397 L 138.065 301.794 136.602 303.023 C 134.930 304.427,133.843 306.584,133.434 309.312 C 133.235 310.642,132.901 311.332,132.301 311.653 C 130.619 312.553,130.025 313.473,128.971 316.810 C 128.171 319.344,127.568 320.503,126.585 321.400 C 124.126 323.643,124.030 327.279,126.400 328.399 C 126.730 328.555,127.720 329.023,128.600 329.439 C 129.480 329.856,130.438 330.515,130.728 330.905 C 132.324 333.050,135.006 333.736,141.931 333.769 L 148.461 333.800 149.631 332.494 C 151.453 330.458,150.073 326.400,147.559 326.400 C 146.877 326.400,146.800 326.075,146.800 323.200 C 146.800 320.355,146.882 320.000,147.539 320.000 C 148.601 320.000,150.072 318.592,150.999 316.689 C 151.490 315.680,152.296 314.803,153.082 314.422 C 154.251 313.855,154.675 313.245,156.158 310.000 C 156.409 309.450,157.196 308.743,157.907 308.428 C 158.778 308.043,159.200 307.579,159.200 307.008 C 159.200 306.542,159.405 305.955,159.656 305.704 C 159.907 305.453,160.251 304.382,160.422 303.324 C 160.592 302.266,160.941 300.860,161.197 300.200 L 161.662 299.000 162.184 300.235 C 163.122 302.453,162.243 308.157,160.731 309.669 C 160.329 310.071,160.000 310.670,160.000 311.000 C 160.000 311.330,159.840 311.600,159.645 311.600 C 159.450 311.600,159.195 312.095,159.078 312.700 C 158.961 313.305,158.674 314.520,158.439 315.400 C 158.204 316.280,157.999 320.282,157.983 324.294 C 157.943 334.368,157.144 333.605,168.600 334.433 C 175.227 334.912,181.639 334.329,183.101 333.116 C 185.408 331.201,184.634 327.486,181.693 326.361 C 179.659 325.583,179.251 314.000,181.258 314.000 C 183.327 314.000,184.473 307.374,184.766 293.719 C 185.049 280.580,184.610 281.259,192.830 281.217 C 199.272 281.185,206.800 279.267,206.800 277.659 C 206.800 276.985,212.386 275.852,215.296 275.936 C 217.561 276.001,218.000 276.577,218.000 279.486 C 218.000 282.031,218.648 284.800,219.243 284.800 C 219.398 284.800,219.626 285.655,219.750 286.700 C 219.874 287.745,220.276 291.117,220.642 294.194 C 221.314 299.828,222.050 302.308,223.500 303.823 C 224.908 305.294,225.139 307.176,225.313 318.600 C 225.544 333.758,225.774 334.130,235.279 334.678 C 243.837 335.171,248.794 330.890,244.400 326.800 C 243.254 325.733,242.783 322.776,242.171 312.800 C 241.893 308.271,241.046 305.109,239.600 303.200 C 237.337 300.214,236.621 288.107,238.232 280.082 C 238.465 278.917,238.572 278.826,239.148 279.306 C 239.507 279.604,240.818 280.156,242.062 280.533 C 244.051 281.134,244.424 281.417,245.142 282.868 C 245.650 283.895,246.534 284.842,247.479 285.372 L 249.000 286.225 249.129 293.612 C 249.276 302.013,248.738 307.063,247.532 308.595 C 246.407 310.025,246.508 311.474,247.941 314.477 C 248.634 315.928,249.200 317.324,249.200 317.580 C 249.200 318.482,252.853 319.692,256.207 319.901 C 260.607 320.176,264.355 319.021,265.531 317.028 L 266.311 315.704 265.157 312.205 C 263.860 308.271,263.626 305.846,264.404 304.392 C 265.179 302.944,266.372 296.566,266.384 293.800 C 266.390 292.480,266.698 289.209,267.067 286.531 C 268.081 279.180,266.395 272.440,263.531 272.391 C 263.239 272.386,262.715 271.801,262.366 271.091 C 261.757 269.853,261.213 269.448,258.630 268.314 C 257.919 268.002,257.305 267.328,257.066 266.600 C 256.662 265.365,255.885 264.652,253.800 263.603 C 251.374 262.384,251.546 257.018,254.100 254.229 C 256.328 251.796,256.800 249.026,256.800 238.371 C 256.800 227.880,256.986 226.883,259.329 224.803 C 259.951 224.251,261.605 222.675,263.005 221.300 C 264.406 219.925,265.742 218.800,265.976 218.800 C 266.209 218.800,266.400 218.644,266.400 218.454 C 266.400 218.264,267.114 217.614,267.988 217.009 C 268.861 216.404,269.682 215.573,269.812 215.164 C 269.942 214.754,271.115 213.740,272.419 212.909 C 273.723 212.079,274.902 211.059,275.040 210.642 C 275.374 209.632,277.229 208.028,278.081 208.013 C 278.456 208.006,279.086 207.539,279.481 206.975 C 281.090 204.680,282.110 203.590,283.101 203.108 C 283.674 202.829,284.563 201.790,285.074 200.800 C 285.586 199.810,286.626 198.460,287.384 197.800 C 288.987 196.404,290.800 193.834,290.800 192.956 C 290.800 191.965,291.619 190.691,293.213 189.200 C 294.745 187.768,295.367 186.220,295.799 182.767 C 295.973 181.382,296.398 180.538,297.536 179.317 C 299.233 177.497,299.663 175.837,300.584 167.551 C 300.992 163.878,301.291 162.644,302.008 161.675 C 303.141 160.142,304.402 156.624,304.394 155.015 C 304.389 153.831,305.509 143.405,305.816 141.792 C 305.900 141.348,306.381 140.543,306.885 140.004 C 308.000 138.810,309.200 136.231,309.200 135.028 C 309.200 134.541,309.456 133.345,309.769 132.371 C 310.082 131.397,310.450 129.925,310.587 129.100 C 310.726 128.264,311.066 127.600,311.356 127.600 C 312.296 127.600,313.938 125.833,314.734 123.966 C 315.302 122.632,315.901 121.948,316.927 121.462 C 317.799 121.047,318.617 120.227,319.069 119.310 C 319.530 118.376,320.465 117.448,321.600 116.798 C 322.690 116.174,323.625 115.263,323.970 114.488 C 324.284 113.785,324.851 113.111,325.231 112.990 C 329.180 111.737,337.856 112.349,340.620 114.076 C 342.012 114.946,343.978 115.486,348.200 116.158 C 356.812 117.530,361.971 106.472,355.173 101.214 C 354.472 100.672,353.577 99.478,353.183 98.561 C 352.460 96.875,351.107 95.600,350.039 95.600 C 349.432 95.600,346.800 92.959,346.800 92.350 C 346.800 92.157,346.530 92.000,346.200 92.000 C 345.870 92.000,345.600 91.853,345.600 91.673 C 345.600 91.340,342.508 90.292,340.035 89.787 C 339.285 89.634,338.205 89.017,337.635 88.416 C 335.390 86.047,327.064 85.001,323.689 86.664 "
       stroke="none"
       fill="#7e5a60"
       fill-rule="evenodd" />
    <path
       id="path4"
       d="M326.200 88.693 C 325.760 88.803,325.310 89.016,325.200 89.167 C 324.866 89.626,322.351 90.677,319.513 91.545 C 316.244 92.544,314.848 93.242,313.799 94.402 C 313.360 94.888,312.299 95.643,311.441 96.081 C 309.831 96.902,303.200 103.300,303.200 104.032 C 303.200 104.259,302.300 105.308,301.200 106.363 C 300.100 107.417,299.200 108.554,299.200 108.889 C 299.200 109.849,297.603 113.214,296.132 115.353 C 295.393 116.428,294.691 117.778,294.572 118.353 C 293.628 122.904,292.892 125.238,291.944 126.691 C 290.819 128.413,290.269 129.905,288.820 135.159 C 288.372 136.787,287.592 138.677,287.087 139.359 C 286.062 140.744,285.257 142.638,284.181 146.200 C 283.782 147.520,283.218 148.884,282.928 149.231 C 282.638 149.579,282.400 150.074,282.400 150.331 C 282.400 150.589,282.228 150.800,282.019 150.800 C 281.649 150.800,280.000 154.126,280.000 154.873 C 280.000 155.653,278.422 158.660,277.477 159.680 C 276.933 160.266,275.823 162.153,275.011 163.873 C 274.198 165.593,273.009 167.485,272.367 168.077 C 271.725 168.670,271.200 169.268,271.200 169.406 C 271.200 169.544,270.930 169.927,270.600 170.257 C 270.270 170.587,270.000 171.167,270.000 171.545 C 270.000 171.924,269.189 173.126,268.199 174.217 C 267.208 175.308,266.296 176.515,266.172 176.900 C 266.048 177.285,265.799 177.600,265.620 177.600 C 265.440 177.600,265.179 177.915,265.040 178.300 C 264.563 179.619,263.788 180.675,261.995 182.445 C 261.008 183.419,259.630 184.888,258.934 185.708 C 258.238 186.529,257.546 187.200,257.397 187.200 C 257.033 187.200,255.367 188.523,253.323 190.433 C 252.401 191.295,251.547 192.000,251.425 192.000 C 250.873 192.000,245.674 194.630,244.549 195.477 C 242.035 197.372,239.955 197.643,225.000 198.027 C 210.906 198.389,205.780 198.875,203.978 200.023 C 203.440 200.365,201.830 200.962,200.400 201.349 C 198.970 201.736,196.884 202.311,195.765 202.626 C 194.646 202.942,193.503 203.200,193.227 203.200 C 192.951 203.200,191.517 204.010,190.042 205.000 C 188.566 205.990,187.158 206.800,186.912 206.800 C 186.069 206.800,182.406 208.839,181.104 210.034 C 180.387 210.692,178.820 211.695,177.622 212.264 C 176.423 212.832,174.803 213.910,174.022 214.658 C 173.240 215.406,171.790 216.419,170.800 216.909 C 169.810 217.399,168.402 218.340,167.672 219.000 C 166.298 220.242,164.073 221.697,162.491 222.389 C 161.991 222.608,160.870 223.492,159.999 224.354 C 159.129 225.215,157.584 226.324,156.565 226.817 C 155.547 227.310,154.138 228.289,153.435 228.992 C 152.693 229.734,150.906 230.745,149.178 231.402 C 147.540 232.024,145.408 233.134,144.440 233.869 C 143.472 234.603,141.942 235.402,141.040 235.644 C 138.011 236.457,134.800 237.695,134.800 238.049 C 134.800 238.242,134.530 238.400,134.200 238.400 C 133.870 238.400,133.600 238.565,133.600 238.766 C 133.600 238.967,132.115 239.845,130.300 240.717 C 128.485 241.589,126.272 242.999,125.382 243.851 C 124.400 244.791,123.011 245.618,121.851 245.953 C 120.799 246.258,118.917 247.035,117.669 247.681 C 114.879 249.126,110.549 250.800,109.603 250.800 C 108.644 250.800,105.413 252.262,104.836 252.956 C 104.268 253.641,100.219 255.600,99.373 255.600 C 98.573 255.600,96.006 256.938,95.000 257.879 C 93.953 258.858,91.279 260.231,89.774 260.562 C 89.117 260.706,87.684 261.494,86.590 262.312 C 84.343 263.992,81.934 265.200,80.830 265.200 C 79.887 265.200,77.354 266.339,75.762 267.479 C 74.155 268.631,70.656 269.998,69.285 270.009 C 68.076 270.020,62.648 271.393,61.887 271.881 C 57.905 274.435,50.092 275.092,21.114 275.310 C 10.571 275.390,9.152 275.476,8.553 276.075 C 7.920 276.708,8.002 276.738,9.870 276.565 C 11.131 276.448,12.363 276.598,13.230 276.974 C 13.984 277.301,14.314 277.576,13.964 277.584 C 13.324 277.600,12.400 279.150,12.400 280.209 C 12.400 280.657,12.622 280.696,13.426 280.390 C 16.646 279.166,28.736 280.232,30.956 281.936 C 32.427 283.064,40.003 283.751,50.800 283.734 C 61.895 283.717,63.018 283.608,68.400 282.020 C 71.769 281.026,77.040 280.001,78.809 279.996 C 82.098 279.986,91.606 277.870,92.997 276.838 C 93.446 276.505,97.545 275.583,103.000 274.588 C 108.045 273.668,109.100 273.398,111.600 272.388 C 115.288 270.896,123.631 270.802,127.600 272.207 C 130.599 273.269,139.007 275.188,140.694 275.196 C 141.185 275.198,142.129 275.695,142.792 276.300 L 143.996 277.400 143.581 281.200 C 143.085 285.745,142.595 288.452,141.267 294.000 C 141.030 294.990,140.535 297.240,140.168 299.000 C 139.467 302.354,138.416 304.777,136.995 306.315 C 136.530 306.819,135.919 307.899,135.636 308.715 C 134.713 311.386,133.520 313.638,132.350 314.920 C 131.717 315.612,131.194 316.453,131.187 316.789 C 131.180 317.125,130.910 317.749,130.587 318.176 C 130.264 318.604,130.000 319.222,130.000 319.550 C 130.000 320.409,128.396 323.600,127.964 323.600 C 127.764 323.600,127.600 323.855,127.600 324.167 C 127.600 324.478,127.388 324.804,127.129 324.890 C 126.097 325.234,129.934 328.228,132.400 329.003 C 132.950 329.176,134.054 329.729,134.852 330.233 C 138.686 332.653,145.830 333.152,147.840 331.141 C 148.895 330.087,148.669 329.539,146.516 327.934 C 144.041 326.088,143.971 320.417,146.400 318.548 C 147.759 317.503,149.200 316.014,149.200 315.654 C 149.200 315.443,150.183 314.279,151.385 313.067 C 152.700 311.741,154.066 309.816,154.814 308.232 C 155.498 306.784,156.183 305.600,156.335 305.600 C 156.876 305.600,159.200 301.634,159.200 300.710 C 159.200 298.569,161.310 293.774,162.051 294.232 C 165.033 296.074,164.758 308.343,161.592 314.759 C 160.138 317.706,159.574 320.380,159.348 325.400 C 159.045 332.137,159.115 332.206,166.677 332.612 C 180.536 333.356,184.845 331.935,180.652 328.006 C 178.402 325.897,177.400 321.940,178.269 318.590 C 178.552 317.496,178.788 316.144,178.792 315.586 C 178.797 315.028,179.256 313.228,179.813 311.586 C 180.371 309.944,181.194 307.520,181.643 306.200 C 182.419 303.921,182.833 296.176,182.805 284.477 C 182.798 281.384,184.347 280.000,187.819 280.000 C 192.351 280.000,199.618 278.477,202.200 276.985 C 202.640 276.731,204.170 276.215,205.600 275.838 C 211.588 274.259,213.887 273.469,215.400 272.468 C 220.600 269.031,221.198 269.697,221.209 278.946 C 221.221 288.563,222.266 295.012,224.525 299.400 C 226.158 302.573,227.128 309.726,227.564 321.800 C 227.873 330.363,227.954 330.618,230.749 331.895 C 235.970 334.281,244.271 332.430,242.625 329.248 C 242.016 328.070,240.800 320.279,240.800 317.553 C 240.800 315.922,239.384 309.744,238.839 309.000 C 237.622 307.337,235.981 298.398,235.352 290.000 C 235.032 285.731,236.770 277.171,238.131 276.314 C 238.780 275.905,239.901 276.301,241.920 277.650 C 242.866 278.283,243.783 278.800,243.958 278.800 C 244.229 278.800,247.139 281.778,249.758 284.735 C 250.861 285.981,251.544 290.950,251.162 294.947 C 250.990 296.736,250.833 299.640,250.811 301.400 C 250.790 303.160,250.516 306.035,250.204 307.789 C 249.568 311.358,250.207 315.407,251.630 316.830 C 252.584 317.784,257.969 318.659,259.115 318.045 C 259.573 317.800,260.274 317.599,260.674 317.598 C 261.073 317.597,261.907 317.191,262.526 316.695 L 263.652 315.794 262.540 313.805 C 260.914 310.894,260.936 303.637,262.585 299.400 C 263.184 297.860,263.834 295.823,264.030 294.873 C 264.226 293.924,264.491 292.977,264.619 292.769 C 265.076 292.030,265.618 282.550,265.365 279.713 L 265.108 276.827 261.711 273.413 C 259.842 271.536,258.107 269.999,257.856 269.998 C 257.605 269.997,256.437 268.917,255.260 267.598 C 254.083 266.279,252.913 265.194,252.660 265.187 C 251.623 265.159,250.684 263.072,250.490 260.364 C 250.296 257.645,252.008 250.800,252.882 250.800 C 253.057 250.800,253.200 250.476,253.200 250.080 C 253.200 249.684,253.407 249.153,253.660 248.900 C 254.431 248.129,255.171 241.344,255.186 234.920 C 255.205 226.855,256.373 222.400,258.470 222.400 C 258.689 222.400,259.438 221.741,260.134 220.936 C 260.830 220.131,261.839 219.096,262.376 218.636 C 264.112 217.150,273.689 208.605,274.859 207.500 C 275.267 207.115,275.711 206.800,275.847 206.800 C 276.375 206.800,284.794 197.840,284.805 197.266 C 284.808 197.120,285.886 195.740,287.200 194.200 C 288.514 192.660,289.592 191.169,289.595 190.886 C 289.601 190.227,290.652 188.531,292.002 187.000 C 292.585 186.340,293.376 184.720,293.760 183.400 C 295.290 178.150,295.711 176.915,296.696 174.800 C 297.709 172.625,299.191 166.123,299.204 163.800 C 299.207 163.140,299.756 160.620,300.424 158.200 C 301.091 155.780,301.785 153.236,301.966 152.547 C 302.146 151.858,302.412 151.105,302.555 150.873 C 302.698 150.641,302.984 149.225,303.190 147.726 C 304.205 140.337,305.336 136.396,307.613 132.305 C 307.826 131.923,308.000 131.361,308.000 131.056 C 308.000 129.864,309.771 126.591,311.247 125.055 C 312.101 124.166,312.800 123.297,312.800 123.124 C 312.800 122.550,314.057 121.226,321.891 113.541 C 325.421 110.078,328.542 109.494,336.000 110.900 C 349.645 113.474,354.227 113.255,356.137 109.937 L 356.979 108.475 356.104 106.737 C 355.623 105.782,354.773 104.513,354.215 103.917 C 353.657 103.322,353.200 102.647,353.200 102.417 C 353.200 102.188,353.042 102.000,352.849 102.000 C 352.655 102.000,352.265 101.439,351.981 100.753 C 351.446 99.462,348.965 96.800,348.296 96.800 C 347.923 96.800,344.991 94.637,344.200 93.778 C 343.408 92.919,341.754 92.142,339.200 91.431 C 336.686 90.731,335.044 90.107,332.668 88.951 C 331.581 88.423,327.874 88.274,326.200 88.693 M332.565 91.395 C 333.684 91.722,336.029 92.288,337.774 92.652 C 340.496 93.219,341.181 93.539,342.574 94.895 C 343.469 95.765,344.470 96.598,344.800 96.745 C 346.448 97.484,349.196 99.455,349.588 100.180 C 351.149 103.065,353.175 105.959,353.910 106.352 C 355.392 107.145,355.791 108.609,354.796 109.604 C 353.049 111.351,334.786 110.391,331.400 108.374 C 330.243 107.685,330.142 107.687,328.600 108.416 C 327.720 108.832,326.577 109.179,326.060 109.186 C 324.468 109.209,322.503 110.393,320.991 112.237 C 320.196 113.207,319.350 114.000,319.111 114.000 C 318.013 114.000,311.600 121.339,311.600 122.596 C 311.600 122.939,311.195 123.379,310.700 123.573 C 309.586 124.011,308.420 125.375,307.979 126.756 C 307.094 129.526,306.468 130.888,305.645 131.834 C 304.376 133.294,303.350 136.442,302.853 140.400 C 302.155 145.959,301.736 147.705,300.595 149.805 C 299.401 152.005,298.015 158.730,298.000 162.400 C 297.990 164.673,296.683 170.750,296.114 171.165 C 295.233 171.808,293.198 177.725,293.202 179.635 C 293.205 181.285,291.870 184.553,290.764 185.600 C 289.589 186.713,288.400 188.822,288.400 189.794 C 288.400 190.760,287.204 192.377,286.041 192.984 C 285.468 193.283,284.640 194.214,284.200 195.052 C 283.760 195.890,282.680 197.344,281.800 198.282 C 277.422 202.949,274.831 205.502,274.246 205.727 C 273.891 205.863,273.600 206.161,273.600 206.387 C 273.600 206.614,273.382 206.800,273.116 206.800 C 272.849 206.800,271.634 207.845,270.416 209.123 C 269.197 210.401,267.525 211.856,266.700 212.356 C 265.875 212.856,265.200 213.466,265.200 213.711 C 265.200 214.281,263.185 216.396,262.625 216.413 C 262.061 216.431,260.400 217.831,260.400 218.289 C 260.400 218.774,258.269 220.790,257.164 221.350 C 254.505 222.698,253.727 225.871,253.521 236.200 C 253.403 242.142,253.215 244.457,252.793 245.200 C 251.793 246.957,251.242 248.619,249.147 256.200 C 247.905 260.694,249.271 265.617,252.058 266.691 C 252.639 266.915,253.440 267.616,253.837 268.249 C 254.874 269.901,255.649 270.596,257.358 271.407 C 258.188 271.801,259.025 272.500,259.220 272.961 C 259.696 274.094,260.605 275.200,261.059 275.200 C 261.263 275.200,262.019 275.695,262.738 276.300 L 264.047 277.400 264.030 283.151 C 264.013 288.860,263.359 292.913,262.216 294.400 C 259.583 297.824,258.700 311.010,260.820 315.250 C 261.841 317.294,253.436 317.468,252.282 315.426 C 251.651 314.309,251.829 301.519,252.553 296.010 C 253.726 287.088,252.325 283.818,244.315 276.783 C 239.031 272.143,235.988 273.865,234.411 282.390 C 234.147 283.814,233.707 285.408,233.433 285.931 C 232.894 286.959,233.122 289.372,234.176 293.800 C 234.490 295.120,235.045 298.810,235.409 302.000 C 236.103 308.077,236.588 310.013,238.295 313.533 C 239.128 315.252,239.432 316.767,239.858 321.333 C 240.149 324.450,240.499 327.817,240.636 328.816 C 241.234 333.180,231.725 332.798,230.274 328.400 C 229.875 327.190,229.380 326.029,229.174 325.820 C 228.968 325.611,228.797 323.001,228.792 320.020 C 228.788 317.039,228.524 312.800,228.205 310.600 C 227.886 308.400,227.615 305.700,227.602 304.600 C 227.564 301.350,225.599 295.191,224.338 294.373 C 223.427 293.781,222.667 287.179,222.607 279.329 C 222.541 270.682,222.497 270.484,220.394 269.397 C 219.255 268.808,215.387 269.653,214.314 270.726 C 214.053 270.987,213.606 271.200,213.320 271.200 C 213.034 271.200,212.800 271.376,212.800 271.592 C 212.800 272.309,209.832 273.484,207.400 273.730 C 206.080 273.864,204.190 274.234,203.200 274.553 C 202.210 274.872,200.950 275.235,200.400 275.358 C 199.850 275.482,198.770 275.984,198.000 276.474 C 196.191 277.626,190.975 278.756,187.360 278.781 C 184.858 278.798,184.324 278.942,182.869 279.996 L 181.217 281.192 181.223 291.238 C 181.226 297.002,181.066 301.480,180.848 301.742 C 179.876 302.914,177.595 311.530,177.602 314.000 C 177.605 314.770,177.295 316.618,176.913 318.106 C 175.679 322.921,177.491 328.768,180.600 330.000 C 182.847 330.891,179.069 331.393,170.464 331.346 C 160.521 331.292,160.821 331.408,160.507 327.491 C 160.298 324.890,161.315 318.800,161.959 318.800 C 163.445 318.800,164.850 311.975,165.955 299.400 C 166.343 294.988,163.526 288.929,161.456 289.723 C 160.328 290.156,157.986 297.072,157.997 299.938 C 158.000 300.941,156.835 303.200,156.314 303.200 C 155.783 303.200,154.633 304.581,153.960 306.026 C 153.607 306.782,152.962 308.163,152.525 309.096 C 152.088 310.028,151.116 311.200,150.365 311.699 C 149.591 312.213,148.607 313.428,148.092 314.503 C 147.593 315.546,146.963 316.406,146.692 316.413 C 142.387 316.530,141.877 328.807,146.130 329.927 C 147.329 330.243,147.251 330.290,144.728 330.771 C 142.110 331.270,139.906 330.989,138.600 329.990 C 137.412 329.081,134.338 327.600,133.639 327.600 C 133.196 327.600,132.044 327.124,131.080 326.542 L 129.328 325.483 130.262 323.642 C 130.776 322.629,131.197 321.505,131.198 321.144 C 131.201 320.072,132.520 317.462,133.700 316.192 C 134.873 314.930,136.000 312.838,136.000 311.924 C 136.000 311.006,137.509 308.339,138.370 307.736 C 139.274 307.103,140.800 303.930,140.800 302.684 C 140.800 301.553,142.066 297.179,142.735 296.000 C 142.922 295.670,143.304 294.965,143.583 294.433 C 144.139 293.373,144.971 287.254,145.409 280.999 L 145.689 276.998 144.287 275.467 C 143.017 274.080,142.620 273.903,140.083 273.584 C 136.473 273.131,133.558 272.416,132.800 271.798 C 128.832 268.565,108.899 268.745,106.787 272.034 C 106.465 272.535,102.040 273.600,100.279 273.600 C 96.655 273.600,87.913 275.843,87.124 276.974 C 86.704 277.577,80.155 278.748,77.054 278.776 C 73.033 278.811,66.323 279.923,62.150 281.244 C 56.575 283.010,43.882 283.014,40.200 281.251 C 34.878 278.704,30.880 277.890,25.478 278.253 C 22.771 278.436,20.876 278.354,19.360 277.990 L 17.163 277.463 18.481 276.893 C 19.520 276.443,20.988 276.376,25.400 276.579 C 31.808 276.874,49.852 276.210,56.525 275.433 C 60.626 274.957,62.809 274.294,64.352 273.058 C 65.094 272.464,69.159 271.213,70.374 271.206 C 72.589 271.192,76.214 269.839,77.534 268.532 C 78.280 267.794,79.603 267.024,80.534 266.787 C 84.793 265.702,86.280 265.046,87.800 263.583 C 88.749 262.669,90.051 261.885,91.000 261.656 C 93.692 261.007,95.351 260.247,96.399 259.183 C 98.065 257.492,98.768 257.080,100.521 256.768 C 103.268 256.280,104.944 255.488,106.570 253.908 C 107.570 252.937,108.611 252.342,109.553 252.203 C 113.632 251.603,117.008 250.561,118.549 249.427 C 120.442 248.034,122.980 246.800,123.953 246.800 C 124.830 246.800,127.600 244.500,127.600 243.771 C 127.600 243.457,127.864 243.200,128.186 243.200 C 128.738 243.200,129.506 242.897,133.400 241.145 C 134.280 240.749,135.450 239.917,136.000 239.296 C 136.718 238.484,137.676 238.019,139.400 237.645 C 143.881 236.672,146.800 235.274,146.800 234.100 C 146.800 233.935,147.925 233.449,149.300 233.020 C 152.274 232.092,153.325 231.484,155.233 229.589 C 156.021 228.807,157.408 227.945,158.315 227.673 C 159.447 227.334,160.423 226.618,161.430 225.389 C 162.237 224.405,163.224 223.600,163.625 223.600 C 164.025 223.600,164.466 223.417,164.604 223.194 C 164.742 222.971,165.427 222.548,166.127 222.256 C 166.827 221.963,168.262 220.886,169.315 219.862 C 170.369 218.838,171.422 218.000,171.655 218.000 C 172.684 218.000,174.870 216.605,175.493 215.551 C 175.867 214.917,176.539 214.295,176.987 214.167 C 178.868 213.630,182.135 211.755,183.019 210.705 C 183.997 209.542,186.858 208.024,188.101 208.009 C 189.123 207.996,191.500 206.636,192.519 205.483 C 193.412 204.471,195.444 203.856,200.000 203.219 C 202.619 202.854,205.076 202.241,209.400 200.876 C 212.378 199.936,213.376 199.846,223.800 199.580 C 229.960 199.422,236.080 199.170,237.400 199.019 C 241.013 198.607,245.600 197.567,245.600 197.160 C 245.600 196.962,245.870 196.800,246.200 196.800 C 246.530 196.800,246.800 196.569,246.800 196.286 C 246.800 195.683,248.830 194.400,249.785 194.400 C 250.933 194.400,254.134 192.384,255.904 190.546 C 256.842 189.573,258.050 188.609,258.590 188.404 C 259.129 188.199,260.003 187.345,260.533 186.507 C 261.062 185.669,262.283 184.332,263.247 183.536 C 264.211 182.740,265.360 181.394,265.800 180.545 C 266.626 178.950,266.975 178.438,268.000 177.315 C 269.864 175.274,271.193 173.297,271.196 172.558 C 271.200 171.695,272.346 170.238,273.845 169.191 C 274.309 168.866,275.365 167.025,276.192 165.100 C 277.019 163.175,277.899 161.594,278.147 161.587 C 278.860 161.568,279.771 160.008,280.596 157.400 C 281.013 156.080,282.130 153.980,283.077 152.734 C 284.025 151.487,284.800 150.203,284.800 149.880 C 284.800 148.249,287.046 142.149,287.750 141.867 C 288.685 141.494,290.071 137.595,290.785 133.329 C 290.939 132.409,291.367 131.239,291.737 130.729 C 294.179 127.353,294.397 126.752,295.567 120.140 C 295.764 119.031,296.415 117.852,297.530 116.584 C 298.449 115.541,299.200 114.346,299.200 113.928 C 299.200 113.510,299.560 112.462,300.000 111.600 C 300.440 110.738,300.800 109.682,300.800 109.255 C 300.800 108.790,301.369 108.143,302.220 107.641 C 303.086 107.131,303.881 106.218,304.258 105.302 C 304.932 103.665,306.288 102.008,306.970 101.987 C 307.661 101.965,309.200 100.524,309.200 99.898 C 309.200 99.118,310.249 98.297,312.400 97.395 C 313.390 96.979,314.939 95.976,315.842 95.165 C 317.377 93.787,319.513 92.906,323.600 91.965 C 324.370 91.787,325.630 91.471,326.400 91.262 C 328.493 90.694,330.299 90.733,332.565 91.395 "
       stroke="none"
       fill="#947c7c"
       fill-rule="evenodd" />
  </g>
</svg>
