<svg id="eiqDhSWdcHr1" xmlns="http://www.w3.org/2000/svg" xmlns:xlink="http://www.w3.org/1999/xlink" viewBox="0 0 400 400" shape-rendering="geometricPrecision" text-rendering="geometricPrecision"><g><path d="M129.495,49.1c-.486.54-.66,1.862-.762,5.79-.183,7.013-1.353,7.889-10.559,7.904l-4.026.006-.674,1.414c-.398.834-.674,2.387-.674,3.792c0,2.864-.422,2.699,7.411,2.899c9.357.24,8.661-1.278,8.507,18.559l-.118,15.263-1.307,1.536c-.719.846-1.709,2.347-2.2,3.337s-1.229,2.07-1.64,2.4c-1.763,1.414-2.292,2.095-2.521,3.242-.139.691-.753,1.593-1.424,2.087-.648.479-1.655,1.861-2.235,3.071-.581,1.21-1.714,2.855-2.519,3.655-.804.8-1.674,2.098-1.934,2.883-.296.899-.98,1.743-1.845,2.278-.756.467-1.375,1.114-1.375,1.436c0,.972-1.222,3.039-2.93,4.956-3.037,3.41-2.801-5.291-2.946,108.475l-.13,101.883l1.189,1.217l1.19,1.217h40.167h40.167l.241-.9c.133-.495.244-11.97.247-25.5.007-29.803.458-35.574,2.896-37.063.303-.186.882-1.237,1.285-2.337.841-2.294,1.643-3.346,2.924-3.836.495-.189.9-.643.9-1.008c0-.927,1.911-2.484,3.724-3.034.838-.255,1.692-.777,1.897-1.162c1.901-3.551,22.075-3.517,23.979.039.233.436.913.907,1.512,1.049c1.585.375,3.688,2.069,3.688,2.972c0,.429.242.78.539.78.967,0,2.2,1.415,2.999,3.443.431,1.094,1.321,2.563,1.977,3.266c1.758,1.882,1.736,1.512,2.021,33.091.145,16.06.41,29.425.588,29.7.254.393,6.792.5,30.472.5h30.15l.802-1.127c.809-1.136,1.262-91.303.499-99.286L299.4,245.4l-1.856-.944c-1.02-.519-2.032-1.329-2.247-1.8-.269-.589-1.174-1.087-2.899-1.596-1.502-.443-3.061-1.245-3.888-2-1.755-1.603-2.874-2.228-4.019-2.246-.5-.008-1.681-.726-2.625-1.596-1.115-1.028-2.539-1.833-4.065-2.3-1.712-.523-2.519-1.013-2.975-1.808-.373-.649-1.111-1.193-1.826-1.346-.66-.141-1.38-.391-1.6-.555s-.929-.426-1.576-.581c-1.103-.264-2.624-1.572-2.624-2.257c0-.168-1.361-.71-3.025-1.204-2.268-.674-3.294-1.215-4.1-2.164-.719-.846-1.832-1.497-3.36-1.967-1.302-.399-2.907-1.27-3.728-2.023-.8-.733-2.453-1.639-3.71-2.034-1.247-.392-2.569-1.097-2.938-1.566-.7-.889-3.281-2.296-5.339-2.911-.66-.197-1.56-.924-2-1.615s-1.054-1.263-1.365-1.272c-1.691-.046-5.002-1.5-5.998-2.634-.756-.861-1.885-1.489-3.603-2.003-1.7-.509-2.848-1.144-3.582-1.98-1.057-1.204-2.391-1.903-4.509-2.362-.581-.126-1.688-.861-2.46-1.633s-1.68-1.403-2.019-1.403-.715-.16-.836-.355-.866-.476-1.656-.624c-1.003-.188-1.637-.617-2.098-1.42-.894-1.559-6.074-2.271-6.074-.835c0,.882-1.698,2.004-4.2,2.776-2.091.645-2.994,1.153-3.566,2.005-.552.823-1.435,1.342-3.169,1.861-1.418.425-3.002,1.26-3.861,2.036-.801.723-2.344,1.611-3.43,1.973s-2.604,1.26-3.374,1.995c-.868.829-2.147,1.522-3.365,1.826-1.279.319-2.484.992-3.446,1.926-1.313,1.273-3.111,2.093-6.669,3.042-.483.129-.984.566-1.113.971-.325,1.024-2.319,1.805-3.287,1.287-2.426-1.298-2.52-2.819-2.52-40.851v-34.348l-1.5-1.564c-1.584-1.653-2.297-2.859-2.658-4.501-.121-.55-.753-1.3-1.405-1.667-.758-.426-1.502-1.401-2.061-2.7-.481-1.118-1.126-2.033-1.434-2.033-.69,0-2.804-3.26-3.157-4.869-.156-.71-.652-1.361-1.242-1.63-.605-.276-1.397-1.338-2.063-2.77-.594-1.277-1.277-2.325-1.518-2.327-.632-.006-1.552-1.142-2.595-3.204-.501-.99-1.593-2.556-2.428-3.479-.911-1.009-1.7-2.406-1.975-3.5-.253-1.004-.695-1.821-.984-1.821-1.998,0-2.18-1.393-2.18-16.717c0-17.885-.367-17.267,10.267-17.278c2.457-.003,4.752-.114,5.1-.248.92-.353.873-4.87-.067-6.522l-.7-1.23-3.965-.002c-8.711-.006-10.635-1.556-10.635-8.572c0-5.228-.355-5.831-3.427-5.831-1.445,0-2.235.206-2.678.7m9.811,107.075c.585.383,1.164.995,1.288,1.361.124.365,1.003,1.134,1.952,1.709c1.746,1.056,2.44,2.392,3.24,6.227.146.7.5,1.468.788,1.706c1.776,1.474,1.865,2.774,1.743,25.347l-.117,21.411-.97,1.033c-1.537,1.634-3.122,1.826-15.108,1.829-15.57.003-14.077,2.587-14.097-24.398-.019-23.554.826-30.928,3.647-31.823.378-.12.795-.56.928-.977s.583-.867,1-1s.857-.55.977-.928c.218-.685,2.102-1.844,3.623-2.229c1.969-.497,10.041.035,11.106.732" fill="#d1c1c1" fill-rule="evenodd"/><path d="M129.551,46.52c-1.641,1.249-2.351,3.526-2.351,7.541c0,6.131-.344,6.41-8.2,6.653-6.19.192-6.691.42-7.568,3.436-1.939,6.67-.399,8.126,8.807,8.327c7.746.169,6.961-1.58,6.961,15.512c0,15.973.332,13.695-2.846,19.55-.519.957-1.505,2.397-2.19,3.2-.686.804-1.54,2.032-1.899,2.73-.36.698-1.376,2.104-2.259,3.124-.883,1.021-1.606,2.023-1.606,2.227c0,.365-.374.875-2.446,3.337-.576.684-1.455,2.049-1.954,3.033-.5.985-1.394,2.245-1.988,2.8-.595.556-1.381,1.64-1.749,2.41s-1.261,2.03-1.985,2.8c-.725.77-1.836,2.66-2.471,4.2s-1.436,3.134-1.78,3.542c-1.106,1.309-1.143,204.553-.038,206.836c1.579,3.262-1.891,3.022,43.711,3.022c44.818,0,41.246.204,42.125-2.4.185-.55.435-13.69.556-29.2.222-28.605.28-29.685,1.648-30.8.135-.11.857-1.704,1.605-3.543.829-2.039,1.828-3.76,2.562-4.412.662-.588,1.708-1.739,2.324-2.557.617-.819,1.383-1.488,1.705-1.488.321,0,2.157-.851,4.079-1.892l3.496-1.892l6.6-.008c6.538-.008,6.621.003,8.8,1.164c1.21.645,3.1,1.628,4.2,2.184c1.1.557,2.163,1.289,2.362,1.628s1.082,1.31,1.962,2.159s1.995,2.469,2.476,3.6c.482,1.131,1.482,3.317,2.223,4.857l1.346,2.8.216,28.6c.184,24.44.303,28.775.82,29.8l.606,1.2l30.637.102c34.749.117,31.816.397,33.56-3.212.944-1.954,1.267-94.43.347-99.323-.487-2.59-3.149-5.667-6.161-7.121-.76-.367-2.019-.976-2.798-1.353-.778-.377-1.996-1.182-2.706-1.788-.709-.607-1.47-1.105-1.69-1.108-.835-.01-4.445-1.959-5.491-2.965-.601-.577-1.64-1.158-2.309-1.292s-1.314-.4-1.432-.592c-.118-.191-.473-.348-.789-.348-.505,0-1.697-.851-3.151-2.247-.256-.246-.907-.584-1.447-.752-1.751-.542-4.158-1.886-5.162-2.881-.539-.535-1.488-1.074-2.108-1.198s-1.225-.382-1.343-.574c-.118-.191-.52-.35-.892-.352s-1.43-.603-2.352-1.336-2.542-1.664-3.6-2.068-2.174-.985-2.48-1.291c-.978-.978-2.534-1.879-4.662-2.701-1.14-.44-2.73-1.329-3.533-1.976s-2.672-1.692-4.154-2.322c-1.482-.631-3.055-1.561-3.495-2.067s-1.25-1.048-1.8-1.204c-1.655-.469-4.211-1.834-5.266-2.812-.546-.506-1.429-1.056-1.963-1.221-1.646-.511-4.771-2.192-4.771-2.566c0-.195-1.255-.879-2.789-1.52-1.534-.64-3.397-1.717-4.14-2.393s-1.916-1.353-2.606-1.505c-.691-.151-1.359-.442-1.484-.645-.126-.203-.495-.369-.821-.369-.327,0-.991-.382-1.477-.848-2.906-2.791-10.283-3.269-10.283-.667c0,.361-3.91,2.315-4.631,2.315-.265,0-1.309.684-2.32,1.519-1.011.836-2.786,1.856-3.944,2.268-1.158.411-2.778,1.318-3.6,2.015-.823.697-2.238,1.512-3.146,1.811-.907.3-2.574,1.201-3.704,2.004s-2.897,1.776-3.926,2.164-2.245,1.054-2.702,1.48c-1.061.989-4.259,2.576-5.873,2.916-.685.145-1.619.61-2.075,1.035-2.241,2.088-2.258,1.828-2.479-37.212-.214-37.873-.122-36.333-2.315-38.856-.643-.739-1.464-1.974-1.825-2.744-.361-.771-1.377-2.166-2.258-3.101s-1.602-1.936-1.602-2.224-.317-.873-.704-1.3c-1.312-1.446-3.118-3.97-3.703-5.175-.32-.66-1.131-1.74-1.802-2.4s-1.448-1.755-1.726-2.433c-.279-.678-1.103-1.848-1.832-2.6-.728-.752-1.815-2.306-2.414-3.454-.599-1.147-1.594-2.587-2.211-3.2-.617-.612-1.71-2.328-2.429-3.813-.718-1.485-1.458-2.7-1.643-2.7s-.336-6.437-.336-14.304v-14.304l.9-.587c.644-.419,2.382-.623,6.1-.714c2.86-.07,5.65-.324,6.2-.565s1.545-.702,2.211-1.025l1.211-.587-.272-3.057c-.5-5.635-1.437-6.422-7.663-6.443-7.589-.025-8.687-.883-8.687-6.787c0-4.541-.233-5.239-2.378-7.127-1.162-1.022-4.531-1.248-5.671-.38m5.36,2.685c.558.651.689,1.609.689,5.026c0,7.016,1.924,8.566,10.635,8.572l3.965.002.7,1.23c.94,1.652.987,6.169.067,6.522-.348.134-2.643.245-5.1.248-10.634.011-10.267-.607-10.267,17.278c0,15.324.182,16.717,2.18,16.717.289,0,.731.817.984,1.821.275,1.094,1.064,2.491,1.975,3.5.835.923,1.927,2.489,2.428,3.479c1.043,2.062,1.963,3.198,2.595,3.204.241.002.924,1.05,1.518,2.327.666,1.432,1.458,2.494,2.063,2.77.59.269,1.086.92,1.242,1.63.353,1.609,2.467,4.869,3.157,4.869.308,0,.953.915,1.434,2.033.559,1.299,1.303,2.274,2.061,2.7.652.367,1.284,1.117,1.405,1.667.361,1.642,1.074,2.848,2.658,4.501l1.5,1.564v34.348c0,38.032.094,39.553,2.52,40.851.968.518,2.962-.263,3.287-1.287.129-.405.63-.842,1.113-.971c3.558-.949,5.356-1.769,6.669-3.042.962-.934,2.167-1.607,3.446-1.926c1.218-.304,2.497-.997,3.365-1.826.77-.735,2.288-1.633,3.374-1.995s2.629-1.25,3.43-1.973c.859-.776,2.443-1.611,3.861-2.036c1.734-.519,2.617-1.038,3.169-1.861.572-.852,1.475-1.36,3.566-2.005c2.502-.772,4.2-1.894,4.2-2.776c0-1.436,5.18-.724,6.074.835.461.803,1.095,1.232,2.098,1.42.79.148,1.535.429,1.656.624s.497.355.836.355s1.247.631,2.019,1.403s1.879,1.507,2.46,1.633c2.118.459,3.452,1.158,4.509,2.362.734.836,1.882,1.471,3.582,1.98c1.718.514,2.847,1.142,3.603,2.003.996,1.134,4.307,2.588,5.998,2.634.311.009.925.581,1.365,1.272s1.34,1.418,2,1.615c2.058.615,4.639,2.022,5.339,2.911.369.469,1.691,1.174,2.938,1.566c1.257.395,2.91,1.301,3.71,2.034.821.753,2.426,1.624,3.728,2.023c1.528.47,2.641,1.121,3.36,1.967.806.949,1.832,1.49,4.1,2.164c1.664.494,3.025,1.036,3.025,1.204c0,.685,1.521,1.993,2.624,2.257.647.155,1.356.417,1.576.581s.94.414,1.6.555c.715.153,1.453.697,1.826,1.346.456.795,1.263,1.285,2.975,1.808c1.526.467,2.95,1.272,4.065,2.3.944.87,2.125,1.588,2.625,1.596c1.145.018,2.264.643,4.019,2.246.827.755,2.386,1.557,3.888,2c1.725.509,2.63,1.007,2.899,1.596.215.471,1.227,1.281,2.247,1.8l1.856.944.247,2.587c.763,7.983.31,98.15-.499,99.286l-.802,1.127h-30.15c-23.68,0-30.218-.107-30.472-.5-.178-.275-.443-13.64-.588-29.7-.285-31.579-.263-31.209-2.021-33.091-.656-.703-1.546-2.172-1.977-3.266-.799-2.028-2.032-3.443-2.999-3.443-.297,0-.539-.351-.539-.78c0-.903-2.103-2.597-3.688-2.972-.599-.142-1.279-.613-1.512-1.049-1.904-3.556-22.078-3.59-23.979-.039-.205.385-1.059.907-1.897,1.162-1.813.55-3.724,2.107-3.724,3.034c0,.365-.405.819-.9,1.008-1.281.49-2.083,1.542-2.924,3.836-.403,1.1-.982,2.151-1.285,2.337-2.438,1.489-2.889,7.26-2.896,37.063-.003,13.53-.114,25.005-.247,25.5l-.241.9h-40.167-40.167l-1.19-1.217-1.189-1.217.13-101.883c.145-113.766-.091-105.065,2.946-108.475c1.708-1.917,2.93-3.984,2.93-4.956c0-.322.619-.969,1.375-1.436.865-.535,1.549-1.379,1.845-2.278.26-.785,1.13-2.083,1.934-2.883.805-.8,1.938-2.445,2.519-3.655.58-1.21,1.587-2.592,2.235-3.071.671-.494,1.285-1.396,1.424-2.087.229-1.147.758-1.828,2.521-3.242.411-.33,1.149-1.41,1.64-2.4s1.481-2.491,2.2-3.337l1.307-1.536.118-15.263c.154-19.837.85-18.319-8.507-18.559-7.833-.2-7.411-.035-7.411-2.899c0-1.405.276-2.958.674-3.792l.674-1.414l4.026-.006c9.206-.015,10.376-.891,10.559-7.904.158-6.09.37-6.49,3.44-6.49c1.558,0,2.214.193,2.738.805M128.2,155.443c-1.521.385-3.405,1.544-3.623,2.229-.12.378-.56.795-.977.928s-.867.583-1,1-.55.857-.928.977c-2.821.895-3.666,8.269-3.647,31.823.02,26.985-1.473,24.401,14.097,24.398c11.986-.003,13.571-.195,15.108-1.829l.97-1.033.117-21.411c.122-22.573.033-23.873-1.743-25.347-.288-.238-.642-1.006-.788-1.706-.8-3.835-1.494-5.171-3.24-6.227-.949-.575-1.828-1.344-1.952-1.709-.593-1.747-8.488-3.08-12.394-2.093m9.289,1.918c.611.327,1.686,1.144,2.389,1.816.703.673,1.437,1.223,1.631,1.223c1.492,0,2.799,3.516,4.088,11c.655,3.804.484,38.582-.201,40.89-.888,2.99-1.183,3.054-13.396,2.93-11.388-.115-11.145-.065-11.866-2.476-.62-2.073-.771-41.607-.168-43.944.198-.77.476-2.076.616-2.901.513-3.021,6.437-8.688,9.646-9.23c1.96-.33,6.082.063,7.261.692" fill="#947c7c" fill-rule="evenodd"/><path d="M129.078,46.01c-1.862,1.465-2.278,2.903-2.278,7.874v4.561l-1.9.867c-1.516.693-2.93.91-6.992,1.078-6.575.271-7.062.634-7.396,5.51-.121,1.767-.114,3.638.016,4.157.239.95,2.855,2.693,3.33,2.218.139-.139-.177-.431-.703-.65-2.546-1.06-3.007-3.059-1.723-7.475.877-3.016,1.378-3.244,7.568-3.436c7.856-.243,8.2-.522,8.2-6.653c0-5.85,1.352-8.025,5-8.048c3.89-.024,5.4,2.217,5.4,8.014c0,5.904,1.098,6.762,8.687,6.787c6.226.021,7.163.808,7.663,6.443l.272,3.057-1.211.604c-.666.333-1.571.733-2.011.89-.526.187-.623.351-.285.477.63.235,2.986-.843,3.686-1.686.661-.796.325-6.888-.448-8.126-.993-1.589-2.734-2.073-7.463-2.073-3.977,0-4.563-.097-6.24-1.034l-1.85-1.034-.002-4.266c-.002-4.756-.666-6.533-3.021-8.085-1.632-1.075-4.914-1.06-6.299.029M123.6,72.738c.77.173,1.805.534,2.3.802l.9.488v14.051v14.051l-1.148,1.835c-.631,1.009-1.395,2.42-1.697,3.135-.303.715-.667,1.3-.809,1.3-.143,0-.369.438-.504.973-.134.536-.558,1.075-.943,1.199-.697.225-2.099,2.309-2.099,3.12c0,.235-.622,1.031-1.382,1.77-.76.738-1.679,1.967-2.041,2.73-.362.764-1.341,2.163-2.175,3.11-.833.947-1.916,2.575-2.406,3.616-.489,1.042-1.409,2.264-2.043,2.715-.634.452-1.157,1.034-1.163,1.294-.005.26-.634,1.283-1.398,2.273-2.187,2.836-3.194,4.463-3.948,6.377-.384.977-1.092,2.327-1.572,3L100.6,141.8v102.8c0,113.676-.188,104.687,2.215,105.804.322.149.988.48,1.48.734c1.339.692,81.665.635,82.505-.059c1.829-1.51,1.788-.88,2.018-30.479.12-15.4.369-28.45.554-29s.941-2.276,1.68-3.836c.738-1.56,1.456-3.403,1.594-4.095.239-1.194.779-1.881,3.131-3.983.563-.503,1.023-1.157,1.023-1.455c0-.517,2.258-1.831,3.146-1.831.387,0,3.692-1.701,4.654-2.396c1.571-1.134,10.674-1.654,13.44-.769c1.552.497,4.062,1.65,4.36,2.002.11.13,1.1.569,2.2.975s2.36,1.186,2.8,1.733c.44.546,1.52,1.746,2.4,2.665c1.053,1.1,1.856,2.477,2.35,4.031.413,1.297,1.112,2.871,1.554,3.496.473.67,1.012,2.479,1.31,4.4l.507,3.263.039-2.509c.032-2.032-.2-3.02-1.222-5.2-.694-1.48-1.656-3.617-2.138-4.748-.481-1.131-1.596-2.751-2.476-3.6s-1.763-1.82-1.962-2.159-1.262-1.071-2.362-1.628c-1.1-.556-2.99-1.539-4.2-2.184-2.179-1.161-2.262-1.172-8.8-1.164l-6.6.008-3.496,1.892c-1.922,1.041-3.758,1.892-4.079,1.892-.322,0-1.088.669-1.705,1.488-.616.818-1.662,1.969-2.324,2.557-.734.652-1.733,2.373-2.562,4.412-.748,1.839-1.47,3.433-1.605,3.543-1.368,1.115-1.426,2.195-1.648,30.8-.121,15.51-.371,28.65-.556,29.2-.879,2.604,2.693,2.4-42.125,2.4-45.602,0-42.132.24-43.711-3.022-1.105-2.283-1.068-205.527.038-206.836.344-.408,1.145-2.002,1.78-3.542s1.746-3.43,2.471-4.2c.724-.77,1.617-2.03,1.985-2.8s1.154-1.854,1.749-2.41c.594-.555,1.488-1.815,1.988-2.8.499-.984,1.378-2.349,1.954-3.033c2.072-2.462,2.446-2.972,2.446-3.337c0-.204.723-1.206,1.606-2.227.883-1.02,1.899-2.426,2.259-3.124.359-.698,1.213-1.926,1.899-2.73.685-.803,1.671-2.243,2.19-3.2c3.178-5.855,2.846-3.577,2.846-19.55c0-16.008.186-15.066-3.04-15.376-1.594-.153-1.698-.13-.56.125m16.4-.077c-.33.109-1.005.395-1.5.636l-.9.438v14.333c0,7.882.151,14.332.336,14.332s.925,1.215,1.643,2.7c.719,1.485,1.812,3.201,2.429,3.813.617.613,1.612,2.053,2.211,3.2.599,1.148,1.686,2.702,2.414,3.454.729.752,1.553,1.922,1.832,2.6.278.678,1.055,1.773,1.726,2.433s1.482,1.74,1.802,2.4c.585,1.205,2.391,3.729,3.703,5.175.387.427.704,1.012.704,1.3s.721,1.289,1.602,2.224s1.897,2.33,2.258,3.101c.361.77,1.182,2.005,1.825,2.744c2.193,2.523,2.101.983,2.315,38.856.221,39.04.238,39.3,2.479,37.212.456-.425,1.39-.89,2.075-1.035c1.614-.34,4.812-1.927,5.873-2.916.457-.426,1.673-1.092,2.702-1.48s2.796-1.361,3.926-2.164s2.797-1.704,3.704-2.004c.908-.299,2.323-1.114,3.146-1.811.822-.697,2.442-1.604,3.6-2.015c1.158-.412,2.933-1.432,3.944-2.268c1.011-.835,2.055-1.519,2.32-1.519.721,0,4.631-1.954,4.631-2.315c0-2.602,7.377-2.124,10.283.667.486.466,1.15.848,1.477.848.326,0,.695.166.821.369.125.203.793.494,1.484.645.69.152,1.863.829,2.606,1.505s2.606,1.753,4.14,2.393c1.534.641,2.789,1.325,2.789,1.52c0,.374,3.125,2.055,4.771,2.566.534.165,1.417.715,1.963,1.221c1.055.978,3.611,2.343,5.266,2.812.55.156,1.36.698,1.8,1.204s2.013,1.436,3.495,2.067c1.482.63,3.351,1.675,4.154,2.322s2.393,1.536,3.533,1.976c2.128.822,3.684,1.723,4.662,2.701.306.306,1.422.887,2.48,1.291s2.678,1.335,3.6,2.068s1.98,1.334,2.352,1.336.774.161.892.352c.118.192.723.45,1.343.574s1.569.663,2.108,1.198c.996.987,3.409,2.338,5.125,2.87.852.263,2.041,1.121,3.481,2.51.285.275.79.5,1.123.5s.702.157.82.348c.118.192.763.458,1.432.592s1.708.715,2.309,1.292c1.046,1.006,4.656,2.955,5.491,2.965.22.003.981.501,1.69,1.108.71.606,1.88,1.385,2.6,1.731.721.346,1.98.954,2.798,1.353c3.121,1.519,5.775,4.558,6.267,7.178.92,4.893.597,97.369-.347,99.323-1.744,3.609,1.189,3.329-33.56,3.212l-30.637-.102-.606-1.2c-.515-1.021-.636-5.075-.815-27.2l-.209-26-.091,25.881c-.092,26.562-.07,26.999,1.449,28.819.548.655,2.518.7,30.909.7c34.49,0,32.333.206,34.148-3.265l1.004-1.92-.002-48.708c-.002-33.461-.137-49.208-.432-50.307-.536-1.994-4.477-5.897-7.133-7.064-2.796-1.229-4.148-2.015-5.096-2.962-.475-.475-1.71-1.114-2.745-1.419-1.034-.305-2.536-1.112-3.337-1.794-1.425-1.213-3.335-2.232-5.181-2.764-.51-.147-1.511-.781-2.226-1.409-.715-.627-2.663-1.762-4.33-2.522-1.667-.759-3.185-1.648-3.374-1.976-.189-.327-1.713-1.162-3.387-1.856s-3.435-1.678-3.914-2.188-1.63-1.17-2.557-1.466c-1.94-.619-3.426-1.478-4.286-2.476-.33-.383-1.831-1.137-3.335-1.677-1.62-.581-3.211-1.479-3.903-2.204-.643-.673-1.342-1.223-1.554-1.223-.793,0-5.021-2.125-5.349-2.688-.187-.322-1.807-1.261-3.6-2.086-1.792-.824-3.483-1.77-3.757-2.101-.273-.331-1.263-.919-2.2-1.306-2.567-1.064-4.009-1.89-4.965-2.845-.475-.475-1.71-1.114-2.745-1.419-1.034-.305-2.536-1.112-3.337-1.794-.8-.681-2.175-1.557-3.055-1.947s-2.23-.984-3-1.319c-.77-.336-1.544-.854-1.72-1.153-1.458-2.472-8.462-2.574-10.161-.148-.272.388-1.714,1.21-3.206,1.826-1.492.617-3.253,1.602-3.913,2.189-.66.588-2.251,1.483-3.535,1.99s-3.043,1.514-3.909,2.237c-.865.724-1.975,1.431-2.465,1.572-1.57.45-3.667,1.471-4.491,2.184-.879.761-2.349,1.567-4.8,2.631-.88.383-1.69.822-1.8.976-.51.716-3.595,2.312-5.4,2.793-1.1.292-2.222.704-2.493.914-1.406,1.086-1.502-1.011-1.707-37.306l-.2-35.4-1.117-1.9c-.614-1.045-1.256-1.9-1.426-1.9s-.728-.765-1.238-1.7c-.511-.935-1.605-2.42-2.431-3.3s-1.63-2.024-1.786-2.543c-.278-.927-.562-1.336-2.648-3.814-.575-.684-1.171-1.645-1.325-2.136-.153-.491-1.002-1.661-1.887-2.6s-1.969-2.461-2.408-3.382c-.439-.922-1.234-1.961-1.766-2.309-.533-.349-.968-.808-.968-1.019c0-.66-2.525-4.537-3.792-5.822-.664-.674-1.44-1.999-1.724-2.945-.284-.945-.779-1.982-1.1-2.303-.49-.49-.584-2.836-.584-14.541c0-15.594-.238-14.292,2.777-15.207.781-.237.834-.311.223-.313-.44-.002-1.07.086-1.4.195m-9.772,84.008c-3.209.542-9.133,6.209-9.646,9.23-.14.825-.418,2.131-.616,2.901-.603,2.337-.452,41.871.168,43.944.721,2.411.478,2.361,11.866,2.476c12.213.124,12.508.06,13.396-2.93.685-2.308.856-37.086.201-40.89-1.289-7.484-2.596-11-4.088-11-.194,0-.928-.55-1.631-1.223-2.344-2.242-5.839-3.15-9.65-2.508m5.295.658c.948.284,2.298.992,3,1.573.702.582,1.907,1.476,2.677,1.986c3.268,2.168,3.969,7.75,3.975,31.627.004,19.286-.238,21.435-2.488,22.038-2.148.576-20.612.267-21.235-.356-1.281-1.281-1.551-46.752-.29-48.995c1.027-1.827,4.105-5.177,5.582-6.073.801-.487,1.554-1.024,1.673-1.195.666-.953,4.773-1.302,7.106-.605" fill="#7c5c64" fill-rule="evenodd"/><path d="M128.289,44.269c-.622.328-1.478,1.367-1.946,2.363-.46.978-.995,1.877-1.189,1.997-.195.12-.354,2.347-.354,4.948c0,5.59.44,5.209-6.029,5.218-7.975.01-9.987,1.373-10.279,6.962-.352,6.728,1.143,7.836,10.575,7.841c2.457.001,4.752.111,5.1.245.919.352.938,27.92.02,29.133-.323.428-.587,1.11-.587,1.516c0,.955-1.503,3.908-1.989,3.908-.572,0-2.795,3.42-3.049,4.692-.139.693-.692,1.397-1.429,1.821-.769.441-1.507,1.41-2.047,2.686-.463,1.099-1.174,2.102-1.58,2.231-.923.293-2.51,2.767-2.893,4.51-.186.849-.715,1.577-1.486,2.046-1.185.721-2.327,2.408-2.327,3.439c0,.294-.638,1.021-1.418,1.616-1.281.977-2.982,3.813-2.982,4.973c0,.253-.62,1.183-1.377,2.067-1.973,2.305-1.873-3.893-1.742,108.119.132,113.384-.094,103.732,2.466,105.433.882.586,81.85,1.125,84.952.565c2.771-.499,2.678.491,2.901-30.798l.2-28l.9-1.262c.495-.694.9-1.438.9-1.654s.269-.908.598-1.538c.328-.63.598-1.643.6-2.251.001-.608.153-1.418.337-1.8s.589-1.217.9-1.855c.311-.639.916-1.359,1.345-1.6c1.154-.65,2.192-1.942,2.207-2.749.007-.389.418-.866.913-1.06c1.241-.485,5.119-1.631,5.519-1.631.18,0,1.269-.585,2.419-1.3c3.004-1.868,9.276-1.961,11.851-.177c1.543,1.069,5.954,2.667,7.38,2.674.4.002.843.531,1.102,1.316.466,1.411,1.464,2.454,2.735,2.857.547.174.923.838,1.214,2.141c1.004,4.499,2.567,8.489,3.324,8.489.204,0,.356,11.304.356,26.541c0,30.142.042,30.992,1.63,32.692l1.112,1.19l31.929-.111c30.922-.108,31.965-.137,33.084-.894c2.581-1.747,2.432,1.206,2.57-51.218.138-52.722.089-54.711-1.387-55.968-.537-.458-1.858-1.692-2.936-2.743-1.963-1.915-4.081-3.089-5.573-3.089-.438,0-1.463-.72-2.277-1.6s-1.801-1.6-2.193-1.6c-.391,0-.81-.159-.93-.354-.121-.194-1.031-.475-2.024-.624-1.151-.173-1.805-.474-1.805-.831c0-.992-1.56-2.053-4.111-2.795-1.716-.5-2.862-1.129-3.689-2.025-.729-.789-2.031-1.564-3.315-1.973-1.247-.396-2.364-1.052-2.721-1.597-.58-.885-3.479-2.252-5.906-2.786-.643-.142-1.229-.581-1.339-1.005-.234-.894-3.699-2.69-5.819-3.016-1.01-.155-1.5-.439-1.5-.868c0-1.211-2.707-2.683-5.785-3.145-1.15-.172-1.815-.475-1.815-.826c0-.933-1.308-1.918-3.608-2.716-1.205-.418-2.785-1.341-3.509-2.05-.77-.754-2.264-1.588-3.596-2.007-1.253-.394-2.579-1.1-2.948-1.569-.836-1.063-3.668-2.476-5.598-2.794-1.08-.178-1.519-.477-1.689-1.153-.252-1.004-2.98-2.422-5.552-2.885-.825-.148-1.5-.489-1.5-.756c0-.904-1.789-2.138-4.174-2.88-1.436-.446-2.859-1.229-3.6-1.979-3.192-3.232-10.528-2.897-13.823.631-.618.662-1.474,1.203-1.902,1.203-1.108,0-2.98,1.006-4.404,2.367-.672.643-2.231,1.487-3.464,1.875-2.332.735-3.833,1.803-3.833,2.728c0,.327-.671.643-1.7.801-2.285.353-5.208,1.872-5.7,2.964-.266.591-.876.964-1.828,1.116-2.061.329-4.907,1.853-5.367,2.872-.442.982-1.99,1.404-4.423,1.206L165.8,210.6l-.203-35.6c-.15-26.221-.33-35.953-.684-36.939-.418-1.167-2.301-3.259-2.934-3.261-.122,0-.536-.875-.92-1.945-.452-1.255-1.042-2.101-1.664-2.385-.605-.275-1.415-1.402-2.171-3.018-.663-1.419-1.739-3.001-2.391-3.516s-1.545-1.781-1.985-2.813c-.527-1.236-1.218-2.094-2.024-2.511-.673-.348-1.224-.905-1.224-1.238c0-1.031-1.461-3.495-3.113-5.248-.867-.921-1.683-2.206-1.813-2.856-.151-.757-.712-1.475-1.558-1.999-2.492-1.54-2.743-3.403-2.621-19.508L140.6,73.8l5.6-.265c9.916-.47,10.858-1.108,10.422-7.055-.473-6.436-2.161-7.624-10.889-7.662-5.688-.025-5.333.308-5.333-4.999c0-5.628-1.005-7.873-4.28-9.56-1.606-.827-6.252-.821-7.831.01m7.088,1.712c2.355,1.552,3.019,3.329,3.021,8.085l.002,4.266l1.85,1.034c1.677.937,2.263,1.034,6.24,1.034c6.834,0,7.873.792,8.215,6.264.313,5.025-.548,5.615-8.505,5.823-3.99.105-5.503.299-6.5.835l-1.3.699v13.961c0,11.708.094,14.055.584,14.545.321.321.816,1.358,1.1,2.303.284.946,1.06,2.271,1.724,2.945c1.267,1.285,3.792,5.162,3.792,5.822c0,.211.435.67.968,1.019.532.348,1.327,1.387,1.766,2.309.439.921,1.523,2.443,2.408,3.382s1.734,2.109,1.887,2.6c.154.491.75,1.452,1.325,2.136c2.086,2.478,2.37,2.887,2.648,3.814.156.519.96,1.663,1.786,2.543s1.92,2.365,2.431,3.3c.51.935,1.068,1.7,1.238,1.7s.812.855,1.426,1.9l1.117,1.9.2,35.4c.205,36.295.301,38.392,1.707,37.306.271-.21,1.393-.622,2.493-.914c1.805-.481,4.89-2.077,5.4-2.793.11-.154.92-.593,1.8-.976c2.451-1.064,3.921-1.87,4.8-2.631.824-.713,2.921-1.734,4.491-2.184.49-.141,1.6-.848,2.465-1.572.866-.723,2.625-1.73,3.909-2.237s2.875-1.402,3.535-1.99c.66-.587,2.421-1.572,3.913-2.189c1.492-.616,2.934-1.438,3.206-1.826c1.699-2.426,8.703-2.324,10.161.148.176.299.995.839,1.82,1.2.825.362,2.175.956,3,1.319.825.364,2.155,1.219,2.955,1.9.801.682,2.303,1.489,3.337,1.794c1.035.305,2.27.944,2.745,1.419.956.955,2.398,1.781,4.965,2.845.937.387,1.927.975,2.2,1.306.274.331,1.965,1.277,3.757,2.101c1.793.825,3.413,1.764,3.6,2.086.328.563,4.556,2.688,5.349,2.688.212,0,.911.55,1.554,1.223.692.725,2.283,1.623,3.903,2.204c1.504.54,3.005,1.294,3.335,1.677.86.998,2.346,1.857,4.286,2.476.927.296,2.078.956,2.557,1.466s2.24,1.494,3.914,2.188s3.198,1.529,3.387,1.856c.189.328,1.707,1.217,3.374,1.976c1.667.76,3.615,1.895,4.33,2.522.715.628,1.716,1.262,2.226,1.409c1.846.532,3.756,1.551,5.181,2.764.801.682,2.303,1.489,3.337,1.794c1.035.305,2.27.944,2.745,1.419.948.947,2.3,1.733,5.096,2.962c2.656,1.167,6.597,5.07,7.133,7.064.295,1.099.43,16.846.432,50.307l.002,48.708-1.004,1.92c-1.815,3.471.342,3.265-34.148,3.265-28.391,0-30.361-.045-30.909-.7-1.511-1.81-1.539-2.326-1.542-28.619-.003-27.458-.245-31.811-1.901-34.156-.438-.619-1.133-2.187-1.546-3.484-.494-1.554-1.297-2.931-2.35-4.031-.88-.919-1.96-2.119-2.4-2.665-.44-.547-1.7-1.327-2.8-1.733s-2.09-.845-2.2-.975c-.298-.352-2.808-1.505-4.36-2.002-2.766-.885-11.869-.365-13.44.769-.962.695-4.267,2.396-4.654,2.396-.888,0-3.146,1.314-3.146,1.831c0,.298-.46.952-1.023,1.455-2.352,2.102-2.892,2.789-3.131,3.983-.138.692-.856,2.535-1.594,4.095-.739,1.56-1.495,3.286-1.68,3.836s-.434,13.6-.554,29c-.23,29.599-.189,28.969-2.018,30.479-.84.694-81.166.751-82.505.059-.492-.254-1.158-.585-1.48-.734-2.403-1.117-2.215,7.872-2.215-105.804v-102.8l.872-1.223c.48-.673,1.188-2.023,1.572-3c.754-1.914,1.761-3.541,3.948-6.377.764-.99,1.393-2.013,1.398-2.273.006-.26.529-.842,1.163-1.294.634-.451,1.554-1.673,2.043-2.715.49-1.041,1.573-2.669,2.406-3.616.834-.947,1.813-2.346,2.175-3.11.362-.763,1.281-1.992,2.041-2.73.76-.739,1.382-1.535,1.382-1.77c0-.811,1.402-2.895,2.099-3.12.385-.124.809-.663.943-1.199.135-.535.361-.973.504-.973.142,0,.506-.585.809-1.3.302-.715,1.066-2.126,1.697-3.135l1.148-1.835v-14.055-14.054l-1.3-.679c-.977-.509-2.642-.717-6.7-.837-8.123-.24-8.693-.694-8.288-6.605.334-4.876.821-5.239,7.396-5.51c4.062-.168,5.476-.385,6.992-1.078l1.9-.867v-4.561c0-4.971.416-6.409,2.278-7.874c1.385-1.089,4.667-1.104,6.299-.029m-5.16,111.27c-.871.204-1.681.511-1.8.681-.119.171-.872.708-1.673,1.195-1.477.896-4.555,4.246-5.582,6.073-1.261,2.243-.991,47.714.29,48.995.623.623,19.087.932,21.235.356c2.25-.603,2.492-2.752,2.488-22.038-.006-23.877-.707-29.459-3.975-31.627-.77-.51-1.975-1.404-2.677-1.986-2.217-1.835-5.081-2.404-8.306-1.649m6.841,2.649c5.255,3.139,5.189,3.058,5.909,7.232.975,5.651.939,42.2-.044,44.261l-.677,1.42-10.198-.106-10.198-.107-.349-1.351c-.193-.743-.294-11.157-.226-23.141l.125-21.79l1.46-1.259c.803-.692,1.591-1.701,1.752-2.24.399-1.334,1.006-1.872,2.481-2.196.687-.15,1.667-.691,2.178-1.201c1.953-1.948,3.928-1.827,7.787.478" fill="#74545c" fill-rule="evenodd"/><path d="M158,0.976v.976l-7.568.124c-8.401.138-8.015.032-8.318,2.291L141.895,6h-5.468C130.32,6,130,6.124,130,8.48v1.52h-4.774c-5.974,0-6.729.255-7.07,2.388L117.898,14h-3.321c-3.81,0-4.577.441-4.577,2.629v1.371h-3.371c-3.843,0-4.629.436-4.629,2.569v1.312l-3.248.251c-3.671.283-4.255.599-4.429,2.398-.117,1.21-.218,1.28-2.123,1.47l-2,.2-.122,1.9-.122,1.9h-3.349C82.773,30,82,30.438,82,32.607c0,1.326-.033,1.351-1.9,1.471l-1.9.122-.12,1.853-.12,1.854-2.28.17c-3.04.227-4.561,1.009-5.01,2.576-.319,1.114-.556,1.275-2.134,1.453-2.16.243-2.151.235-2.422,2.261C65.908,45.903,65.816,46,64.576,46C62.883,46,62,46.901,62,48.629C62,49.95,61.944,50,60.48,50c-1.916,0-2.48.564-2.48,2.48c0,1.493-.027,1.52-1.52,1.52-1.916,0-2.48.564-2.48,2.48c0,1.493-.027,1.52-1.52,1.52-1.916,0-2.48.564-2.48,2.48c0,1.464-.05,1.52-1.371,1.52C46.886,62,46,62.886,46,64.629C46,65.886,45.9,66,44.8,66c-1.63,0-2.8,1.253-2.8,3c0,1.196-.135,1.4-.924,1.4-2.003,0-3.044,1.997-3.066,5.878L38,77.956l-1.9.122-1.9.122-.122,1.9c-.12,1.867-.145,1.9-1.471,1.9C30.624,82,30,82.85,30,85.554c0,2.455-1.148,4.181-3,4.511-.644.114-.824.508-.921,2.019-.12,1.858-.139,1.881-1.798,2.209-1.923.38-2.152.915-2.234,5.207L22,102h-1.371c-2.195,0-2.629.763-2.629,4.629v3.371h-1.371c-2.188,0-2.629.767-2.629,4.577v3.321l-1.612.258c-2.133.341-2.388,1.096-2.388,7.07v4.774h-1.52c-2.356,0-2.48.32-2.48,6.427v5.468l-1.633.219c-2.259.303-2.153-.083-2.291,8.318L1.952,158h-.976-.976v42v42h.976.976l.124,7.568c.138,8.401.032,8.015,2.291,8.318L6,258.105v5.319C6,269.407,6.237,270,8.629,270h1.371v4.774c0,5.948.26,6.73,2.349,7.064l1.575.252.138,3.522c.158,4.035.13,3.983,2.305,4.274l1.633.219v3.319c0,3.808.441,4.576,2.629,4.576h1.371l.047,2.3c.088,4.284.447,4.979,2.831,5.478.964.202,1.091.427,1.2,2.124L26.2,309.8l1.9.122l1.9.122v3.349c0,3.834.438,4.607,2.607,4.607c1.326,0,1.351.033,1.471,1.9l.122,1.9l1.9.122l1.9.122.031,1.878c.056,3.433.781,5.026,2.48,5.449c1.17.291,1.489.564,1.489,1.274c0,1.991.7,2.93,2.388,3.199c1.505.241,1.612.346,1.612,1.579c0,1.694.901,2.577,2.629,2.577c1.321,0,1.371.056,1.371,1.52c0,1.916.564,2.48,2.48,2.48c1.493,0,1.52.027,1.52,1.52c0,1.916.564,2.48,2.48,2.48c1.493,0,1.52.027,1.52,1.52c0,1.916.564,2.48,2.48,2.48c1.464,0,1.52.05,1.52,1.371c0,1.728.883,2.629,2.576,2.629c1.24,0,1.332.097,1.538,1.633.271,2.025.263,2.018,2.414,2.26c1.512.17,1.847.38,2.32,1.453.692,1.571,2.753,2.609,5.23,2.635l1.878.019.122,1.9.122,1.9l1.9.122c1.867.12,1.9.145,1.9,1.471c0,2.169.773,2.607,4.607,2.607h3.349l.122,1.9.122,1.9l1.881.121c1.861.12,1.884.138,2.212,1.798.38,1.923.915,2.152,5.207,2.234L102,378v1.371c0,2.188.768,2.629,4.576,2.629h3.319l.219,1.633c.291,2.175.239,2.147,4.274,2.305l3.522.138.252,1.575c.334,2.089,1.116,2.349,7.064,2.349h4.774v1.371c0,2.396.588,2.629,6.629,2.629h5.371v1.2c0,2.556.768,2.8,8.8,2.8h7.2v1v1h42h42v-1-1h7.371c8.234,0,8.629-.12,8.629-2.629v-1.371h5.371c6.041,0,6.629-.233,6.629-2.629v-1.371h4.774c5.948,0,6.73-.26,7.064-2.349l.252-1.575l3.522-.138c4.035-.158,3.983-.13,4.274-2.305l.219-1.633h3.319c3.808,0,4.576-.441,4.576-2.629v-1.371l2.3-.047c4.284-.088,4.979-.447,5.478-2.831.202-.964.427-1.091,2.124-1.2l1.898-.122.122-1.9.122-1.9h3.349c3.834,0,4.607-.438,4.607-2.607c0-1.326.033-1.351,1.9-1.471l1.9-.122.122-1.9.122-1.9l1.878-.031c3.433-.056,5.026-.781,5.449-2.48.334-1.346.498-1.489,1.7-1.489c1.673,0,2.929-1.2,2.929-2.8c0-1.1.114-1.2,1.371-1.2c1.743,0,2.629-.886,2.629-2.629c0-1.321.056-1.371,1.52-1.371c1.916,0,2.48-.564,2.48-2.48c0-1.493.027-1.52,1.52-1.52c1.916,0,2.48-.564,2.48-2.48c0-1.493.027-1.52,1.52-1.52c1.916,0,2.48-.564,2.48-2.48c0-1.464.05-1.52,1.371-1.52c1.728,0,2.629-.883,2.629-2.576c0-1.24.097-1.332,1.633-1.538c2.026-.271,2.018-.262,2.261-2.422.178-1.578.339-1.815,1.453-2.134c1.567-.449,2.349-1.97,2.576-5.01l.17-2.28l1.854-.12l1.853-.12.122-1.9c.12-1.867.145-1.9,1.471-1.9c2.169,0,2.607-.773,2.607-4.607v-3.349l1.9-.122l1.9-.122.121-1.881c.12-1.861.138-1.884,1.798-2.212c1.923-.38,2.152-.915,2.234-5.207L378,298h1.371c2.195,0,2.629-.763,2.629-4.629v-3.371h1.371c2.188,0,2.629-.767,2.629-4.577v-3.321l1.612-.258c2.133-.341,2.388-1.096,2.388-7.07v-4.774h1.371c2.392,0,2.629-.593,2.629-6.576v-5.319l1.633-.219c2.259-.303,2.153.083,2.291-8.318l.124-7.568h.976.976v-42-42h-.976-.976l-.124-7.568c-.138-8.401-.032-8.015-2.291-8.318L394,141.895v-5.319c0-5.983-.237-6.576-2.629-6.576h-1.371v-4.774c0-5.974-.255-6.729-2.388-7.07L386,117.898v-3.321c0-3.81-.441-4.577-2.629-4.577h-1.371v-3.371c0-3.866-.434-4.629-2.629-4.629h-1.371l-.047-2.5c-.082-4.292-.311-4.827-2.234-5.207-1.66-.328-1.678-.351-1.798-2.212L373.8,90.2l-1.9-.122-1.9-.122v-3.349c0-3.834-.438-4.607-2.607-4.607-1.326,0-1.351-.033-1.471-1.9l-.122-1.9-1.9-.122-1.9-.122-.031-1.878c-.055-3.398-.785-5.027-2.435-5.437-1.338-.334-1.458-.488-1.642-2.12-.241-2.143-.234-2.136-2.259-2.407-1.536-.206-1.633-.298-1.633-1.538c0-1.693-.901-2.576-2.629-2.576-1.321,0-1.371-.056-1.371-1.52c0-1.916-.564-2.48-2.48-2.48-1.493,0-1.52-.027-1.52-1.52c0-1.916-.564-2.48-2.48-2.48-1.493,0-1.52-.027-1.52-1.52c0-1.916-.564-2.48-2.48-2.48-1.464,0-1.52-.05-1.52-1.371c0-1.728-.883-2.629-2.576-2.629-1.24,0-1.332-.097-1.538-1.633-.271-2.025-.264-2.018-2.407-2.259-1.632-.184-1.786-.304-2.12-1.642-.41-1.65-2.039-2.38-5.437-2.435L322.044,38l-.122-1.9-.122-1.9-1.9-.122c-1.867-.12-1.9-.145-1.9-1.471c0-1.983-.85-2.607-3.554-2.607-2.455,0-4.181-1.148-4.511-3-.114-.644-.508-.824-2.019-.921-1.858-.12-1.881-.139-2.209-1.798-.38-1.923-.915-2.152-5.207-2.234L298,22v-1.371c0-2.195-.763-2.629-4.629-2.629L290,18v-1.371c0-2.188-.767-2.629-4.577-2.629h-3.321l-.258-1.612c-.341-2.133-1.096-2.388-7.07-2.388L270,10v-1.52c0-2.359-.316-2.48-6.48-2.48L258,6v-1.371C258,2.12,257.605,2,249.371,2L242,2v-1-1h-42-42v.976M136.12,44.259c3.275,1.687,4.28,3.932,4.28,9.56c0,5.307-.355,4.974,5.333,4.999c8.728.038,10.416,1.226,10.889,7.662.436,5.947-.506,6.585-10.422,7.055l-5.6.265-.105,13.963c-.122,16.105.129,17.968,2.621,19.508.846.524,1.407,1.242,1.558,1.999.13.65.946,1.935,1.813,2.856c1.652,1.753,3.113,4.217,3.113,5.248c0,.333.551.89,1.224,1.238.806.417,1.497,1.275,2.024,2.511.44,1.032,1.333,2.298,1.985,2.813s1.728,2.097,2.391,3.516c.756,1.616,1.566,2.743,2.171,3.018.622.284,1.212,1.13,1.664,2.385.384,1.07.798,1.945.92,1.945.633.002,2.516,2.094,2.934,3.261.354.986.534,10.718.684,36.939l.203,35.6l1.582.129c2.433.198,3.981-.224,4.423-1.206.46-1.019,3.306-2.543,5.367-2.872.952-.152,1.562-.525,1.828-1.116.492-1.092,3.415-2.611,5.7-2.964c1.029-.158,1.7-.474,1.7-.801c0-.925,1.501-1.993,3.833-2.728c1.233-.388,2.792-1.232,3.464-1.875c1.424-1.361,3.296-2.367,4.404-2.367.428,0,1.284-.541,1.902-1.203c3.295-3.528,10.631-3.863,13.823-.631.741.75,2.164,1.533,3.6,1.979c2.385.742,4.174,1.976,4.174,2.88c0,.267.675.608,1.5.756c2.572.463,5.3,1.881,5.552,2.885.17.676.609.975,1.689,1.153c1.93.318,4.762,1.731,5.598,2.794.369.469,1.695,1.175,2.948,1.569c1.332.419,2.826,1.253,3.596,2.007.724.709,2.304,1.632,3.509,2.05c2.3.798,3.608,1.783,3.608,2.716c0,.351.665.654,1.815.826c3.078.462,5.785,1.934,5.785,3.145c0,.429.49.713,1.5.868c2.12.326,5.585,2.122,5.819,3.016.11.424.696.863,1.339,1.005c2.427.534,5.326,1.901,5.906,2.786.357.545,1.474,1.201,2.721,1.597c1.284.409,2.586,1.184,3.315,1.973.827.896,1.973,1.525,3.689,2.025c2.551.742,4.111,1.803,4.111,2.795c0,.357.654.658,1.805.831.993.149,1.903.43,2.024.624.12.195.539.354.93.354.392,0,1.379.72,2.193,1.6s1.839,1.6,2.277,1.6c1.492,0,3.61,1.174,5.573,3.089c1.078,1.051,2.399,2.285,2.936,2.743c1.476,1.257,1.525,3.246,1.387,55.968-.138,52.424.011,49.471-2.57,51.218-1.119.757-2.162.786-33.084.894l-31.929.111-1.112-1.19c-1.588-1.7-1.63-2.55-1.63-32.692c0-15.237-.152-26.541-.356-26.541-.757,0-2.32-3.99-3.324-8.489-.291-1.303-.667-1.967-1.214-2.141-1.271-.403-2.269-1.446-2.735-2.857-.259-.785-.702-1.314-1.102-1.316-1.426-.007-5.837-1.605-7.38-2.674-2.575-1.784-8.847-1.691-11.851.177-1.15.715-2.239,1.3-2.419,1.3-.4,0-4.278,1.146-5.519,1.631-.495.194-.906.671-.913,1.06-.015.807-1.053,2.099-2.207,2.749-.429.241-1.034.961-1.345,1.6-.311.638-.716,1.473-.9,1.855s-.336,1.192-.337,1.8c-.002.608-.272,1.621-.6,2.251-.329.63-.598,1.322-.598,1.538s-.405.96-.9,1.654l-.9,1.262-.2,28c-.223,31.289-.13,30.299-2.901,30.798-3.102.56-84.07.021-84.952-.565-2.56-1.701-2.334,7.951-2.466-105.433-.131-112.012-.231-105.814,1.742-108.119.757-.884,1.377-1.814,1.377-2.067c0-1.16,1.701-3.996,2.982-4.973.78-.595,1.418-1.322,1.418-1.616c0-1.031,1.142-2.718,2.327-3.439.771-.469,1.3-1.197,1.486-2.046.383-1.743,1.97-4.217,2.893-4.51.406-.129,1.117-1.132,1.58-2.231.54-1.276,1.278-2.245,2.047-2.686.737-.424,1.29-1.128,1.429-1.821.254-1.272,2.477-4.692,3.049-4.692.486,0,1.989-2.953,1.989-3.908c0-.406.264-1.088.587-1.516.918-1.213.899-28.781-.02-29.133-.348-.134-2.643-.244-5.1-.245-9.432-.005-10.927-1.113-10.575-7.841.292-5.589,2.304-6.952,10.279-6.962c6.469-.009,6.029.372,6.029-5.218c0-2.601.159-4.828.354-4.948.194-.12.729-1.019,1.189-1.997c1.355-2.882,6.407-4.108,9.777-2.373M131,158.294c-.44.111-1.218.618-1.729,1.128s-1.491,1.051-2.178,1.201c-1.475.324-2.082.862-2.481,2.196-.161.539-.949,1.548-1.752,2.24l-1.46,1.259-.125,21.79c-.068,11.984.033,22.398.226,23.141l.349,1.351l10.198.107l10.198.106.677-1.42c.983-2.061,1.019-38.61.044-44.261-.72-4.174-.654-4.093-5.909-7.232-3.016-1.801-4.118-2.094-6.058-1.606" fill="#adb311" fill-rule="evenodd"/></g></svg>
