<svg id="evfKlHCkz8I1" xmlns="http://www.w3.org/2000/svg" xmlns:xlink="http://www.w3.org/1999/xlink" viewBox="0 0 400 400" shape-rendering="geometricPrecision" text-rendering="geometricPrecision"><g><path d="M160.8,105.606c-2.09.17-4.79.667-6,1.104s-3.64,1.096-5.4,1.463c-2.752.575-4.779,1.064-6.909,1.665-.28.079-.627.463-.77.853-.374,1.015-2,2.463-3.067,2.731-.574.144-1.097.74-1.41,1.608-.324.896-.98,1.626-1.873,2.084-.756.388-1.705,1.322-2.109,2.075-.405.754-1.394,1.712-2.199,2.13-.82.426-1.463,1.061-1.463,1.445c0,.741-1.779,2.571-2.87,2.953-.368.129-.984.897-1.368,1.707-.43.905-1.173,1.671-1.93,1.987-.722.302-1.563,1.14-2.032,2.025-.44.831-1.324,1.798-1.965,2.15-.64.352-1.289.904-1.443,1.227-1.087,2.29-1.853,3.591-2.925,4.965-1.295,1.661-1.457,2.347-2.268,9.601-.342,3.06-.753,4.63-1.779,6.8-2.823,5.968-3.086,36.86-.34,39.938c1.064,1.192,2.12,3.582,2.12,4.798c0,1.408.868,2.908,2.973,5.139c1.005,1.065,1.833,2.073,1.84,2.241.076,1.743,4.593,3.439,9.037,3.393c4.77-.05,7.165-1.617,8.426-5.513.398-1.229,1.303-2.919,2.011-3.754.851-1.003,1.366-2.112,1.521-3.269.927-6.956,1.712-9.74,2.999-10.642.472-.331.831-1.217.977-2.416.829-6.799,1.811-10.1,3.159-10.617.318-.122.695-.999.838-1.949.584-3.872,1.223-5.669,2.471-6.954.698-.72,1.4-1.908,1.559-2.641.495-2.289,1.865-4.782,2.827-5.147.615-.234,1.003-.797,1.173-1.704.264-1.405,1.431-3.075,3.47-4.963.285-.264.735-.714,1-1c.264-.285.714-.735,1-1c.285-.264.73-.714.988-1c.258-.285,1.014-.969,1.68-1.519s1.902-1.637,2.745-2.416c1.503-1.387,2.882-2.098,4.933-2.541.564-.122,1.25-.64,1.524-1.151.769-1.437,1.623-1.785,6.224-2.534c3.209-.523,4.366-.873,4.652-1.409.21-.392,1.595-1.284,3.077-1.983c3.314-1.562,3.871-2.035,4.847-4.119c1.356-2.895,2.003-8.444,1.307-11.202-.229-.905-.631-2.89-.895-4.411l-.478-2.766-3.84-3.834-3.84-3.834-9.202-.052c-5.062-.028-10.913.088-13.003.258m56.775,42.152c-.113.113-1.908.397-3.99.631-6.286.709-8.681,1.233-9.433,2.064-1.087,1.201-2.965,2.194-5.148,2.723-1.365.331-2.316.868-3.009,1.697-.939,1.125-4.205,2.719-5.595,2.732-.33.003-1.004.629-1.498,1.392-.516.796-1.368,1.503-2,1.658-1.441.355-2.78,1.187-4.502,2.797-.77.72-2.083,1.593-2.917,1.941-.835.348-1.636.942-1.78,1.32-.398,1.042-1.363,1.892-2.793,2.462-.894.356-1.446.943-1.795,1.91-.345.954-.981,1.638-2.01,2.163-.828.423-1.505,1.041-1.505,1.374c0,.774-1.099,2.481-2.471,3.836-1.066,1.054-2.727,4.226-2.732,5.22-.001.287-.631.95-1.4,1.474-.768.523-1.397,1.273-1.397,1.667c0,1.919-1.39,5.926-2.6,7.496-1.388,1.802-1.323,1.506-2.553,11.485-.217,1.76-.624,4.19-.904,5.4-.743,3.204-.654,11.996.155,15.3.363,1.485.78,4.275.926,6.2.381,5.008,1.25,8.986,2.122,9.717c1.061.888,1.485,1.829,2.247,4.983.514,2.13.982,3.087,1.956,4c.704.66,1.683,2.263,2.176,3.562.802,2.117,2.097,3.838,2.887,3.838.159,0,.658.855,1.109,1.9.507,1.175,1.288,2.175,2.047,2.621.675.397,1.348,1.202,1.495,1.789.273,1.088,1.582,2.453,2.375,2.477.582.017,1.762,1.344,1.762,1.98c0,.536,1.558,1.997,2.153,2.02.498.018,1.847,1.639,1.847,2.219c0,.265.794.904,1.764,1.419c1.095.58,2.003,1.436,2.394,2.255.346.726.93,1.32,1.298,1.32c1.023,0,3.344,1.945,3.344,2.802c0,.555.383.834,1.406,1.026.87.163,2.107.925,3.242,1.997c1.009.953,2.839,2.147,4.067,2.654c1.406.58,2.464,1.322,2.855,2.002.456.791,1.053,1.149,2.226,1.332c3.363.527,6.382,1.652,7.934,2.958l1.224,1.029h10.289c9.945,0,10.315-.028,11.023-.838c1.054-1.203,3.076-2.03,6.734-2.752c2.096-.414,3.425-.9,3.853-1.407.887-1.053,4.253-2.803,5.39-2.803.565,0,1.5-.622,2.405-1.6.814-.88,1.724-1.6,2.022-1.6.297,0,.853-.17,1.235-.378s1.327-.478,2.1-.601c.943-.149,1.535-.518,1.8-1.121.442-1.008,3.263-2.519,5.399-2.892.96-.168,1.602-.593,2.035-1.347.418-.728,1.382-1.388,2.848-1.949c1.317-.504,2.971-1.581,4.078-2.657c1.024-.995,2.252-1.934,2.73-2.085c1.288-.409,1.745-1.007,2.564-3.359.407-1.171,1.318-2.727,2.022-3.458c1.421-1.474,1.916-2.996,2.323-7.153.256-2.613,1.852-7,2.545-7c.367,0,1.146-4.795,1.46-8.984.246-3.269.951-6.216,1.488-6.216.167,0,.303-.211.303-.469c0-.257.252-.752.56-1.1c2.3-2.593,2.009-30.358-.344-32.815-1.2-1.253-2.216-3.608-2.216-5.138c0-.799-.504-1.678-1.658-2.89-.911-.959-2.085-2.678-2.608-3.82-.683-1.492-1.297-2.221-2.177-2.586-.675-.279-1.654-1.185-2.177-2.013-.522-.828-1.336-1.628-1.808-1.778-.966-.307-1.808-.936-4.094-3.064-.871-.811-2.145-1.703-2.831-1.983-1.521-.622-2.059-1.121-2.413-2.237-.165-.52-.938-1.11-1.975-1.506-1.18-.451-1.931-1.073-2.444-2.026-.408-.756-.955-1.375-1.217-1.375-.92,0-3.104-1.318-3.276-1.977-.158-.603-4.018-3.223-4.748-3.223-.166,0-1.038-.791-1.938-1.758-.968-1.041-2.145-1.865-2.884-2.02-.872-.184-1.472-.678-1.991-1.642-.441-.819-1.048-1.38-1.493-1.38-1.044,0-4.633-2.07-4.869-2.808-.233-.727-2.305-1.843-4.07-2.192-.699-.138-1.892-.836-2.651-1.552-1.512-1.426-3.416-1.899-10.678-2.654-2.09-.218-4.165-.495-4.61-.618-.446-.122-.902-.13-1.015-.018" fill="#dfd2d3" fill-rule="evenodd"/><path d="M162.084,104.436c-7.364.3-11.336.776-13.084,1.568-2.108.957-5.995,2.396-6.469,2.396-.292,0-1.508.945-2.702,2.1-1.195,1.155-2.359,2.28-2.588,2.5-.23.22-.974,1.066-1.654,1.881-.68.814-1.544,1.578-1.919,1.698-.376.119-1.006.815-1.4,1.547-.394.731-1.237,1.638-1.873,2.013-.636.376-1.564,1.263-2.063,1.972-1.195,1.7-1.785,2.289-2.294,2.289-.231,0-.739.488-1.129,1.084-.39.597-2.329,2.712-4.309,4.7-1.98,1.989-4.097,4.336-4.704,5.216-.608.88-1.536,2.187-2.064,2.904-.574.782-1.06,2.145-1.213,3.4-.454,3.724-1.778,9.303-2.634,11.096-1.604,3.36-2.931,20.74-2.358,30.9.563,9.992,1.238,13.927,2.639,15.399.261.275,1.034,1.948,1.717,3.718.887,2.302,1.76,3.756,3.06,5.101c1,1.035,2.15,2.242,2.556,2.682.405.44,2.056,1.313,3.669,1.94c1.612.627,3.335,1.331,3.828,1.565c2.147,1.02,9.262-2.541,10.53-5.271.468-1.008,1.125-2.419,1.458-3.134.334-.715.742-1.3.907-1.3.475,0,1.509-3.111,2.194-6.6.346-1.76,1.172-4.399,1.837-5.864.664-1.466,1.559-4.526,1.988-6.8.468-2.48,1.262-5.097,1.982-6.536.661-1.32,1.571-3.84,2.022-5.6s1.169-3.65,1.594-4.2c.879-1.135,1.603-2.596,2.579-5.2.371-.99,1.094-2.25,1.607-2.8s1.428-1.897,2.034-2.994c1.857-3.358,11.685-12.667,14.572-13.801.77-.303,2.36-1.155,3.534-1.894c1.174-.74,3.064-1.535,4.2-1.768s2.696-.56,3.466-.727c1.481-.322,3.665-1.226,4-1.656.11-.142,1.337-.955,2.728-1.809c2.639-1.62,3.096-2.229,5.265-7.016c1.662-3.669,1.664-6.763.007-10.935-.66-1.661-1.2-3.297-1.2-3.636c0-2.97-6.074-9.37-9.614-10.13-2.229-.478-8.898-.477-20.702.002m24.761,4.798l3.84,3.834.478,2.766c.264,1.521.666,3.506.895,4.411.696,2.758.049,8.307-1.307,11.202-.976,2.084-1.533,2.557-4.847,4.119-1.482.699-2.867,1.591-3.077,1.983-.286.536-1.443.886-4.652,1.409-4.601.749-5.455,1.097-6.224,2.534-.274.511-.96,1.029-1.524,1.151-2.051.443-3.43,1.154-4.933,2.541-.843.779-2.079,1.866-2.745,2.416s-1.422,1.234-1.68,1.519c-.258.286-.703.736-.988,1-.286.265-.736.715-1,1-.265.286-.715.736-1,1-2.039,1.888-3.206,3.558-3.47,4.963-.17.907-.558,1.47-1.173,1.704-.962.365-2.332,2.858-2.827,5.147-.159.733-.861,1.921-1.559,2.641-1.248,1.285-1.887,3.082-2.471,6.954-.143.95-.52,1.827-.838,1.949-1.348.517-2.33,3.818-3.159,10.617-.146,1.199-.505,2.085-.977,2.416-1.287.902-2.072,3.686-2.999,10.642-.155,1.157-.67,2.266-1.521,3.269-.708.835-1.613,2.525-2.011,3.754-1.261,3.896-3.656,5.463-8.426,5.513-4.444.046-8.961-1.65-9.037-3.393-.007-.168-.835-1.176-1.84-2.241-2.105-2.231-2.973-3.731-2.973-5.139c0-1.216-1.056-3.606-2.12-4.798-2.746-3.078-2.483-33.97.34-39.938c1.026-2.17,1.437-3.74,1.779-6.8.811-7.254.973-7.94,2.268-9.601c1.072-1.374,1.838-2.675,2.925-4.965.154-.323.803-.875,1.443-1.227.641-.352,1.525-1.319,1.965-2.15.469-.885,1.31-1.723,2.032-2.025.757-.316,1.5-1.082,1.93-1.987.384-.81,1-1.578,1.368-1.707c1.091-.382,2.87-2.212,2.87-2.953c0-.384.643-1.019,1.463-1.445.805-.418,1.794-1.376,2.199-2.13.404-.753,1.353-1.687,2.109-2.075.893-.458,1.549-1.188,1.873-2.084.313-.868.836-1.464,1.41-1.608c1.067-.268,2.693-1.716,3.067-2.731.143-.39.49-.774.77-.853c2.13-.601,4.157-1.09,6.909-1.665c1.76-.367,4.19-1.026,5.4-1.463c2.946-1.064,7.963-1.424,19.003-1.362l9.202.052l3.84,3.834m29.555,36.27c-1.411.109-5.118,1.064-6.6,1.701-.44.189-2.042.64-3.559,1.003-2.899.692-3.872,1.125-5.221,2.318-.882.781-2.609,1.638-4.22,2.093-.55.155-1.826.883-2.835,1.618s-2.629,1.681-3.6,2.102c-.971.422-2.305,1.247-2.965,1.834s-2.166,1.532-3.347,2.099-2.529,1.469-2.995,2.005-1.48,1.356-2.253,1.823c-.773.466-2.053,1.49-2.844,2.274-.792.784-1.962,1.884-2.6,2.445-.639.56-1.611,1.597-2.16,2.304-.55.708-1.306,1.383-1.68,1.502s-.801.598-.949,1.065c-.309.972-.74,1.559-2.239,3.049-.586.584-1.523,2.051-2.081,3.261s-1.532,2.795-2.164,3.522-1.479,2.421-1.881,3.763c-.71,2.369-1.704,4.707-2.176,5.115-.654.566-1.251,2.213-1.621,4.476-.227,1.388-.875,4.324-1.439,6.524-2.771,10.795-2.884,19.616-.372,28.8.361,1.32,1.019,4.2,1.461,6.4.566,2.812,1.211,4.691,2.172,6.329.753,1.28,1.368,2.498,1.368,2.705s.169.689.376,1.071.472,1.16.591,1.729c.118.568.783,1.738,1.477,2.6.695.861,1.669,2.466,2.166,3.566s1.328,2.379,1.847,2.843c1.235,1.104,2.343,2.479,2.343,2.908c0,.619,7.052,8.187,11.529,12.373c1.249,1.168,2.901,2.721,3.671,3.452.77.73,1.94,1.665,2.6,2.076s1.613,1.233,2.117,1.826s1.584,1.485,2.4,1.983c.816.497,1.933,1.373,2.483,1.946s2.215,1.631,3.7,2.351s2.7,1.461,2.7,1.646c0,.387,4.085,2.396,4.872,2.396.286,0,1.808.636,3.381,1.413c7.059,3.488,25.043,3.401,30.061-.146.597-.422,1.716-.891,2.486-1.042c2.548-.5,6.4-2.053,6.4-2.581c0-.175.585-.598,1.3-.94c4.572-2.186,6.027-2.981,6.589-3.603.349-.385.791-.701.981-.701.598,0,5.53-2.512,5.53-2.817c0-.339,4.194-2.38,4.911-2.389.269-.004,1.104-.549,1.856-1.212s2.683-1.855,4.291-2.65c1.608-.794,3.027-1.77,3.153-2.168.127-.398.581-.834,1.009-.97.429-.137.78-.416.78-.621s.193-.373.429-.373c.656,0,1.331-.821,2.342-2.852.508-1.019,1.421-2.436,2.03-3.149.661-.774,1.375-2.366,1.772-3.948c1.29-5.138,1.516-5.87,2.439-7.901.512-1.128,1.137-3.468,1.389-5.2.944-6.503,1.739-10.295,2.337-11.134c3.546-4.987,3.616-34.477.095-40.029-.626-.986-1.54-2.869-2.032-4.183-.491-1.315-1.509-3.043-2.261-3.84-.752-.798-1.725-2.151-2.162-3.007s-.963-1.557-1.169-1.557-1.357-.99-2.557-2.2-2.334-2.2-2.518-2.2c-.185,0-1.194-.799-2.242-1.775-1.048-.977-2.263-1.889-2.699-2.027-.436-.139-.793-.42-.793-.625s-.187-.373-.415-.373c-.229,0-1.165-.72-2.081-1.6s-1.887-1.6-2.158-1.6-1.27-.776-2.219-1.725c-.95-.948-2.267-2.057-2.927-2.463s-1.642-1.263-2.182-1.904-1.53-1.404-2.2-1.694c-1.263-.548-2.215-1.24-4.287-3.114-.668-.605-1.439-1.1-1.711-1.1-.273,0-1.524-.9-2.781-2s-2.501-2-2.765-2-1.462-.806-2.663-1.791c-1.2-.985-3.019-2.091-4.04-2.458-1.022-.368-2.524-1.244-3.338-1.947-.957-.827-2.212-1.425-3.556-1.694-2.314-.463-7.934-1.942-9.477-2.494-1.152-.412-4.36-.668-6.4-.512m6.8,2.89c7.262.755,9.166,1.228,10.678,2.654.759.716,1.952,1.414,2.651,1.552c1.765.349,3.837,1.465,4.07,2.192.236.738,3.825,2.808,4.869,2.808.445,0,1.052.561,1.493,1.38.519.964,1.119,1.458,1.991,1.642.739.155,1.916.979,2.884,2.02.9.967,1.772,1.758,1.938,1.758.73,0,4.59,2.62,4.748,3.223.172.659,2.356,1.977,3.276,1.977.262,0,.809.619,1.217,1.375.513.953,1.264,1.575,2.444,2.026c1.037.396,1.81.986,1.975,1.506.354,1.116.892,1.615,2.413,2.237.686.28,1.96,1.172,2.831,1.983c2.286,2.128,3.128,2.757,4.094,3.064.472.15,1.286.95,1.808,1.778.523.828,1.502,1.734,2.177,2.013.88.365,1.494,1.094,2.177,2.586.523,1.142,1.697,2.861,2.608,3.82c1.154,1.212,1.658,2.091,1.658,2.89c0,1.53,1.016,3.885,2.216,5.138c2.353,2.457,2.644,30.222.344,32.815-.308.348-.56.843-.56,1.1c0,.258-.136.469-.303.469-.537,0-1.242,2.947-1.488,6.216-.314,4.189-1.093,8.984-1.46,8.984-.693,0-2.289,4.387-2.545,7-.407,4.157-.902,5.679-2.323,7.153-.704.731-1.615,2.287-2.022,3.458-.819,2.352-1.276,2.95-2.564,3.359-.478.151-1.706,1.09-2.73,2.085-1.107,1.076-2.761,2.153-4.078,2.657-1.466.561-2.43,1.221-2.848,1.949-.433.754-1.075,1.179-2.035,1.347-2.136.373-4.957,1.884-5.399,2.892-.265.603-.857.972-1.8,1.121-.773.123-1.718.393-2.1.601s-.938.378-1.235.378c-.298,0-1.208.72-2.022,1.6-.905.978-1.84,1.6-2.405,1.6-1.137,0-4.503,1.75-5.39,2.803-.428.507-1.757.993-3.853,1.407-3.658.722-5.68,1.549-6.734,2.752-.708.81-1.078.838-11.023.838h-10.289l-1.224-1.029c-1.552-1.306-4.571-2.431-7.934-2.958-1.173-.183-1.77-.541-2.226-1.332-.391-.68-1.449-1.422-2.855-2.002-1.228-.507-3.058-1.701-4.067-2.654-1.135-1.072-2.372-1.834-3.242-1.997-1.023-.192-1.406-.471-1.406-1.026c0-.857-2.321-2.802-3.344-2.802-.368,0-.952-.594-1.298-1.32-.391-.819-1.299-1.675-2.394-2.255-.97-.515-1.764-1.154-1.764-1.419c0-.58-1.349-2.201-1.847-2.219-.595-.023-2.153-1.484-2.153-2.02c0-.636-1.18-1.963-1.762-1.98-.793-.024-2.102-1.389-2.375-2.477-.147-.587-.82-1.392-1.495-1.789-.759-.446-1.54-1.446-2.047-2.621-.451-1.045-.95-1.9-1.109-1.9-.79,0-2.085-1.721-2.887-3.838-.493-1.299-1.472-2.902-2.176-3.562-.974-.913-1.442-1.87-1.956-4-.762-3.154-1.186-4.095-2.247-4.983-.872-.731-1.741-4.709-2.122-9.717-.146-1.925-.563-4.715-.926-6.2-.809-3.304-.898-12.096-.155-15.3.28-1.21.687-3.64.904-5.4c1.23-9.979,1.165-9.683,2.553-11.485c1.21-1.57,2.6-5.577,2.6-7.496c0-.394.629-1.144,1.397-1.667.769-.524,1.399-1.187,1.4-1.474.005-.994,1.666-4.166,2.732-5.22c1.372-1.355,2.471-3.062,2.471-3.836c0-.333.677-.951,1.505-1.374c1.029-.525,1.665-1.209,2.01-2.163.349-.967.901-1.554,1.795-1.91c1.43-.57,2.395-1.42,2.793-2.462.144-.378.945-.972,1.78-1.32.834-.348,2.147-1.221,2.917-1.941c1.722-1.61,3.061-2.442,4.502-2.797.632-.155,1.484-.862,2-1.658.494-.763,1.168-1.389,1.498-1.392c1.39-.013,4.656-1.607,5.595-2.732.693-.829,1.644-1.366,3.009-1.697c2.183-.529,4.061-1.522,5.148-2.723.752-.831,3.147-1.355,9.433-2.064c2.082-.234,3.877-.518,3.99-.631.113-.112.569-.104,1.015.018.445.123,2.52.4,4.61.618M70.4,358.424c0,.233.171.318.38.188.209-.129.569.119.8.551.612,1.144.49,1.563-.193.661-.323-.428-.587-.59-.587-.362c0,.713,1.455,1.769,2.098,1.522.509-.196.451-.399-.342-1.192-.526-.525-.956-1.144-.956-1.374s-.27-.418-.6-.418-.6.191-.6.424" fill="#845c64" fill-rule="evenodd"/><path d="M158,1v1l-5.1.049c-2.805.027-5.955.019-7-.017-1.045-.037-1.9.101-1.9.306s-.315.348-.7.318c-.439-.035-.679.205-.644.644.03.385-.105.7-.3.7-.196,0-.356.45-.356,1v1h-4.32c-2.902,0-4.497.164-4.859.5-.431.4-.482.4-.256,0c.186-.33.001-.5-.541-.5-.453,0-.824.191-.824.424s.225.292.5.131.157.098-.262.576c-.789.9-1.271,1.169-.838.469.136-.22.057-.4-.176-.4s-.424.371-.424.824c0,.485.177.714.43.558.236-.146.192.113-.097.576-.528.846-3.291,1.132-8.433.875-1.395-.069-1.711.186-1.552,1.253.023.157-.257.17-.622.03-.501-.192-.602-.091-.41.41.14.365.127.645-.03.622-.877-.131-1.286.14-1.286.852c0,.733-.267.8-3.2.8-1.798,0-3.2.17-3.2.387c0,.214-.301.272-.669.131-.508-.195-.608-.095-.413.413.141.368.083.669-.131.669-.213,0-.387.54-.387,1.2c0,1.292-.618,1.447-4.9,1.233-1.4-.07-1.717.19-1.547,1.267.026.165-.088.279-.253.253-1.094-.173-1.38.121-1.215,1.247l.176,1.2h-2.154c-1.185,0-2.056.16-1.935.355.12.195-.157.452-.617.573-.561.146-.731.391-.518.745.233.387.131.376-.383-.041-.604-.49-.682-.49-.577,0c.069.319-.126.514-.445.445-.49-.105-.49-.027,0,.577.313.385.354.571.093.414-.263-.157-.634-.002-.83.348-.234.419-.943.64-2.101.656-2.089.029-2.756.591-2.708,2.28.048,1.674.087,1.655-3.425,1.691-2.893.03-3.278.185-3.108,1.257.026.165-.088.279-.253.253-1.094-.173-1.38.121-1.215,1.247.147.997.036,1.206-.654,1.237-3.456.153-3.226.021-3.289,1.888-.071,2.105-.028,2.061-2.069,2.141-1.249.049-1.721.254-1.903.829-.134.421-.326.683-.427.581-.265-.265-2.41,1.866-2.239,2.224.079.165-.047.3-.28.3-.668,0-.495-.721.276-1.152.385-.215.7-.539.7-.72c0-.18.09-.309.2-.285.11.023.533-.309.939-.74.724-.765.72-.776-.2-.495-1.311.4-2.224,1.281-2.511,2.421-.189.756-.507.971-1.436.971-.655,0-1.192.16-1.192.356c0,.195-.315.33-.7.3-.439-.035-.679.205-.644.644.03.385-.105.7-.3.7-.196,0-.356.509-.356,1.131c0,1.029-.108,1.115-1.2.954-1.126-.165-1.42.121-1.247,1.215.026.165-.088.279-.253.253-1.094-.173-1.38.121-1.215,1.247.18,1.222-.067,1.393-1.763,1.225-.951-.095-2.436,1.497-2.208,2.368.31,1.184-.361,1.8-1.825,1.674-1.678-.145-2.446.682-2.199,2.366.186,1.267-.808,2.121-1.959,1.684-.57-.217-2.184,1.32-2.098,1.997.232,1.826-.027,2.267-1.191,2.034-1.596-.319-3.018,1.072-2.704,2.644.209,1.042.124,1.121-1.406,1.326-2.025.272-2.341.584-2.608,2.574-.192,1.43-.358,1.625-1.658,1.948-1.653.412-2.38,2.041-2.435,5.46-.032,1.962-.205,2.117-2.134,1.92-.905-.092-1.969.972-1.877,1.877C34.201,81.666,34.007,82,32.8,82c-.66,0-1.2.174-1.2.387c0,.214-.301.272-.669.131-.508-.195-.608-.095-.413.413.141.368.083.669-.131.669-.213,0-.387.921-.387,2.047c0,2.284-1.489,4.553-2.987,4.553-.647,0-.803.305-.874,1.702-.094,1.873-.93,3.03-1.914,2.652-.963-.369-1.917.627-1.643,1.716.128.512.073.93-.122.93s-.378,1.006-.406,2.236c-.064,2.749-.136,2.872-1.572,2.661-1.438-.211-2.556.813-2.464,2.256.282,4.414.026,5.647-1.171,5.647-.817,0-1.215.233-1.363.8-.115.44-.496.8-.847.8-.53,0-.637.539-.637,3.2c0,3.166-.011,3.2-1.024,3.2-.579,0-.916.173-.776.399.142.231-.144.358-.677.3-.749-.08-.904.075-.824.824.062.572-.063.823-.328.659-.284-.175-.401.324-.347,1.477.256,5.483-.009,8.139-.866,8.674-.463.289-.722.333-.576.097.156-.253-.073-.43-.558-.43-.453,0-.824.191-.824.424s.225.292.5.131.157.098-.262.576c-.789.9-1.271,1.169-.838.469.136-.22.057-.4-.176-.4s-.424.371-.424.824c0,.542.17.727.5.541.4-.226.4-.175,0,.256-.336.362-.5,1.957-.5,4.859v4.32h-1.153c-.817,0-1.215.233-1.363.8-.115.44-.504.8-.864.8-.524,0-.642.38-.588,1.9.036,1.045.044,4.285.017,7.2L2,158h-1-1v41.8v41.8h1h1l.036,5.5c.019,3.025.006,6.342-.029,7.372-.048,1.417.138,2.073.765,2.7.898.898,1.628,1.079,1.628.404c0-.233-.144-.334-.319-.226-.176.108-.581.029-.9-.178-.432-.278-.329-.339.398-.236.538.075,1.048.346,1.133.601.085.254.41.463.721.463.551,0,.8,3.712.608,9.062-.067,1.854.982,3.46,1.611,2.468.276-.435.337-.432.342.017.004.348.296.471.806.337c1.085-.284,1.133-.136,1.224,3.733.043,1.861.281,3.643.527,3.96.343.441.331.506-.051.276-.348-.209-.5.011-.5.723c0,.563.163,1.024.363,1.024.199,0,.273.34.165.755-.109.415.029.895.305,1.065.356.22.427.114.244-.364-.318-.828,1.118-.199,1.458.639.16.396.286.388.585-.038.617-.881.879.039.913,3.206.045,4.284,1.234,6.53,2.447,4.622.238-.375.309-.372.314.015.003.275.276.5.606.5.619,0,.803,1.441.65,5.1-.042,1,.107,1.7.363,1.7.239,0,.335.161.213.358-.317.513.707.818,2.142.636c1.23-.156,1.642,1.182,1.262,4.106-.036.275.111.5.326.5s.306.468.202,1.041c-.251,1.388.411,2.095,1.869,1.994c1.292-.089,1.491.26,1.69,2.961.099,1.348.163,1.4,1.88,1.52c2.223.156,2.047-.14,2.047,3.44c0,1.674.165,3.044.366,3.044s.261.27.135.6c-.127.33-.045.6.183.6.227,0,.496-.315.596-.7.146-.557.193-.526.23.15.034.632.307.85,1.063.85c1.319,0,1.512.23,1.469,1.748-.045,1.577.536,2.154,2.293,2.279c1.691.12,1.57-.018,1.657,1.888.127,2.801.372,3.476,1.053,2.911.485-.402.692-.367,1.094.183.273.373.642.546.821.385.178-.162.202-.08.052.181-.15.262.021.64.379.841.598.334.598.386.009.612-.354.136-.644.062-.644-.164s-.178-.301-.395-.167c-.236.146-.289-.035-.131-.446.209-.544.111-.631-.461-.411-.639.245-.662.193-.191-.431.509-.676.499-.677-.23-.009-.989.907-.047,2.033,1.701,2.033c1.055,0,1.12.093.969,1.388-.095.813-.005,1.291.217,1.153.209-.129.367.162.351.646-.023.657.193.873.85.85.484-.016.789.119.677.3-.113.182.076.33.419.33s.624-.187.624-.416c0-.255.198-.23.512.063.293.273.446,1.052.357,1.816-.128,1.091-.02,1.338.587,1.343.56.005.612.09.21.344-.421.268-.386.395.168.608.405.155.84.052,1.028-.244.259-.409.327-.403.332.033.004.348.296.471.806.337.831-.217.97.138.81,2.061-.046.552.09.841.327.694.223-.138.521.114.662.559.186.583.561.787,1.341.728c1.57-.12,1.971.283,1.802,1.812-.183,1.664.494,2.312,2.206,2.113c1.454-.17,1.845.254,1.722,1.866-.049.638.08,1.037.293.906.209-.129.498.139.643.595.171.539.567.806,1.129.762c1.952-.154,2.133-.033,1.967,1.32-.118.969-.055,1.15.248.711.348-.503.447-.483.687.141.171.445.062.884-.279,1.126-.438.312-.407.349.142.172.406-.13.703-.02.706.263.004.308.149.266.394-.113.303-.468.389-.48.394-.053.004.348.296.471.806.337.659-.172.8-.012.8.911c0,.69.264,1.221.689,1.384.59.226.604.317.1.636-.629.398-.114.579,1.151.406.297-.041.422.118.277.352-.146.235-.089.427.126.427s.481-.225.592-.5c.161-.4.208-.4.233,0c.019.294.582.5,1.365.5.734,0,1.469.135,1.634.3s.51.308.766.318c.257.01.42.24.363.511s.183.603.534.738c.512.196.533.311.104.583-.702.444-1.238.442-.962-.005.121-.195-.049-.577-.376-.849-.328-.272-.596-.348-.596-.169s-.264-.023-.587-.451c-.356-.469-.593-.571-.6-.258-.023.909,1.967,2.58,2.81,2.36.445-.116.777-.002.777.269c0,.275.684.499,1.641.536c1.986.079,2.091.169,2.045,1.765-.04,1.43.604,2.264,1.739,2.251c1.984-.023,2.175.091,2.175,1.301c0,.66.174,1.2.387,1.2.214,0,.272.301.131.669-.195.508-.095.608.413.413.368-.141.669-.095.669.103s1.362.355,3.027.348c3.455-.013,3.508.013,3.459,1.715-.041,1.457.675,2.347,1.758,2.184c1.597-.241,2.906.551,2.709,1.637-.246,1.358.425,2.067,1.862,1.967.652-.045,1.185.051,1.185.213s.495.285,1.1.273c3.442-.071,3.573-.018,3.402,1.378-.118.969-.055,1.15.248.711.348-.503.447-.483.687.141.171.445.062.884-.279,1.126-.438.312-.407.349.142.172.406-.13.703-.02.706.263.004.308.149.266.394-.113.228-.352.39-.405.394-.128.004.282.609.461,1.506.445c3.743-.064,4.1.026,4.1,1.04c0,.537.303,1.074.689,1.222.59.226.604.317.1.636-.629.398-.114.579,1.151.406.297-.041.422.118.277.352-.146.235-.074.427.159.427s.427-.225.43-.5c.005-.374.092-.365.345.034.186.294.679.499,1.094.454c2.448-.261,3.755.022,3.755.812c0,.44.163.8.363.8.199,0,.273.34.165.755-.109.415.029.895.305,1.065.354.219.427.114.248-.354-.141-.366-.071-.666.155-.666s.283-.208.126-.462c-.171-.277-.111-.353.152-.191.24.148.37.616.289,1.038-.109.568.019.705.49.524.424-.163.541-.088.349.223-.174.281-.04.468.334.468.343,0,.627-.225.63-.5.004-.352.093-.368.3-.053.176.267,1.817.479,4.074.526c4.425.092,4.336.058,4.117,1.545-.202,1.376.985,2.911,1.555,2.012.235-.37.338-.385.342-.05.004.303.634.467,1.706.445c6.938-.146,8.3.027,8.3,1.055c0,.539.315,1.164.7,1.388.554.323.575.413.1.432-1.083.044.847.915,2.278,1.029.864.068,1.236-.045,1.063-.324-.176-.285-.076-.307.297-.067.659.425,1.121.459,7.062.517L158,398l.047,1.1.048,1.1.305-1.2.305-1.2.048,1.1.047,1.1h41.2h41.2v-1-1l5.3-.035c2.915-.02,6.335-.044,7.6-.055c1.265-.01,2.3-.185,2.3-.388s.168-.266.372-.139c.205.126.477.061.605-.146s-.084-.459-.472-.56c-.591-.154-.574-.192.108-.231.578-.033.838-.354.901-1.114.117-1.42-.333-1.309,5.612-1.379c2.908-.034,5.274-.228,5.274-.431s.175-.261.388-.129c.469.29.99-1.553.673-2.379-.342-.89.027-.969,5.071-1.081c2.567-.057,4.668-.256,4.668-.442s.164-.237.364-.113c.546.337,1.636-.19,1.636-.791c0-.291-.315-.611-.7-.711-.503-.132-.435-.196.243-.23.675-.033.876-.221.707-.661-.313-.814.152-.94,4.032-1.089c3.781-.146,3.715-.108,4.004-2.263l.219-1.633l2.248-.042c1.236-.024,2.742-.01,3.347.03s1.1-.132,1.1-.381c0-.25.175-.346.388-.214.469.29.99-1.553.673-2.379-.302-.786.05-.952,2.265-1.066c1.317-.069,1.874-.268,1.874-.672c0-.44.127-.468.548-.119c1.609,1.335,3.944-1,2.609-2.609-.37-.446-.184-.557.994-.598c3.539-.122,3.548-.127,3.72-2.221.15-1.831-.166-1.669,3.439-1.764c1.699-.045,3.09-.236,3.09-.423c0-.188.225-.297.5-.242s.455-.125.4-.4.08-.5.3-.5.379-.135.353-.3c-.266-1.685.066-2.057,1.947-2.178l1.9-.122.122-1.9.122-1.9l1.678-.047c.923-.026,1.813-.026,1.978,0s.3-.127.3-.34c0-.214.315-.289.7-.168.667.21.667.193,0-.356-.811-.668-.913-1.133-.218-.989.265.055.49-.17.5-.5s.288-.608.618-.618.555-.235.5-.5c-.144-.695.321-.593.989.218.549.667.566.667.356,0-.137-.436-.011-.7.334-.7.305,0,.645-.225.756-.5.161-.4.208-.4.233,0c.018.275.313.5.656.5s.532-.148.419-.33c-.112-.181.193-.316.677-.3.657.023.873-.193.85-.85-.016-.484.119-.789.3-.677.182.113.33-.076.33-.419s-.193-.624-.429-.624c-.253,0-.212-.216.102-.53.291-.291,1.119-.489,1.839-.439c1.714.119,2.461-.672,2.298-2.43-.129-1.383.346-1.73,1.953-1.427.2.037.512-.166.694-.453.267-.42.332-.415.337.028.005.45.118.456.625.035.494-.41.514-.58.1-.843-.419-.265-.414-.33.024-.335.298-.003.457-.231.352-.506-.449-1.18.404-2.207,1.707-2.055c1.629.19,2.433-.614,2.243-2.243-.152-1.303.875-2.156,2.055-1.707.275.105.503-.054.506-.352.005-.438.07-.443.335-.024.263.414.433.394.843-.1.421-.507.415-.62-.035-.625-.443-.005-.448-.07-.028-.337.287-.182.49-.494.453-.694-.218-1.157.075-2.119.585-1.923.734.281,3.562-2.547,3.281-3.281-.124-.322.034-.559.373-.559.323,0,.59-.225.593-.5.004-.334.137-.301.4.1.35.533.438.533.788,0c.217-.33.397-.443.4-.251s.274.127.602-.145c.327-.272.506-.639.397-.815s.028-.412.305-.524c.38-.155.356-.307-.098-.628-.407-.288-.439-.427-.1-.431.275-.003.5-.276.5-.606s.202-.6.449-.6c.292,0,.257-.233-.1-.664-.5-.606-.472-.617.319-.124c1.578.983,2.823-.806,3.209-4.612.246-2.428.099-2.271,2.198-2.342c1.869-.063,1.743.16,1.888-3.345.025-.588.226-.815.596-.673.896.344,3.391-2.42,3.364-3.726-.087-4.084-.099-4.059,1.977-4.192l1.9-.122.125-1.744c.142-1.979.725-2.82,1.765-2.548c1.034.27,2.006-.694,1.798-1.784-.098-.508-.022-.924.167-.924.19,0,.345-1.164.345-2.587c0-2.053.116-2.543.559-2.373.804.308,3.413-2.431,3.366-3.535-.122-2.88.102-4.305.675-4.305.33,0,.603-.225.606-.5.005-.387.076-.39.314-.015.17.267.691.385,1.157.263.978-.256,1.527-1.771.808-2.228-.324-.205-.336-.31-.037-.314.274-.004.469-.95.503-2.449.062-2.765.228-3.217,1.062-2.897.323.124.587.057.587-.149s.405-.36.9-.343c.685.024.892-.183.868-.868-.017-.495.087-.9.232-.9s.303-2.102.352-4.672c.103-5.396.057-5.247,1.566-5.025c2.108.309,2.409-.473,2.457-6.379.042-5.296.28-6.189,1.525-5.732.276.101.503-.125.506-.505.004-.44.112-.523.3-.231.215.333.426.314.782-.071.385-.414.385-.568,0-.724-.295-.12-.229-.21.168-.229.36-.018.647-.257.637-.532-.011-.275.009-3.515.044-7.2l.063-6.7h1h1v-41.4-41.4l-1.1-.047-1.1-.048l1.2-.305l1.2-.305-1.1-.048L398,158l-.047-5.9c-.026-3.245-.015-6.142.026-6.437.04-.295-.254-.791-.653-1.101-.698-.542-.697-.554.02-.302.637.223.703.121.45-.699-.388-1.262-.289-1.196-2.163-1.447L394,141.895l-.051-3.248c-.027-1.786-.061-3.967-.075-4.847-.015-.944-.281-1.805-.65-2.101-.552-.443-.543-.473.081-.255.531.185.643.086.455-.403-.26-.677-1.867-1.269-2.456-.905-.899.555-1.256-.556-1.331-4.143-.047-2.266-.259-3.911-.526-4.087-.315-.207-.299-.296.053-.3.275-.003.5-.287.5-.63c0-.374-.187-.508-.468-.334-.311.192-.386.075-.223-.349.181-.471.044-.599-.524-.49-.422.081-.89-.049-1.038-.289-.162-.263-.086-.323.191-.152.254.157.462.1.462-.126s.3-.296.666-.155c.468.179.573.106.354-.248-.17-.276-.65-.414-1.065-.305-.415.108-.755.034-.755-.165c0-.2-.36-.363-.8-.363-.854,0-.943-.497-.806-4.5.038-1.094-.112-1.9-.352-1.9-.229,0-.301-.301-.16-.669.195-.508.095-.608-.413-.413-.368.141-.669.083-.669-.131c0-.213-.54-.387-1.2-.387-1.137,0-1.203-.09-1.255-1.7-.068-2.143-.205-4.741-.284-5.424-.034-.288-.241-.412-.461-.276s-.4.033-.4-.229c0-.32-.457-.401-1.4-.248l-1.4.227-.046-1.875c-.025-1.031-.014-2.19.025-2.575s-.103-.7-.316-.7c-.214,0-.294-.361-.178-.802.115-.441-.014-1.071-.287-1.4-.55-.664-1.388-.83-.998-.198.136.22.057.4-.176.4s-.424-.21-.424-.467c0-.256-.111-.355-.248-.219-.524.524-1.323-.899-1.439-2.564l-.122-1.741-1.782-.125c-2.205-.154-2.011.125-2.104-3.026-.045-1.505-.258-2.661-.492-2.664-.227-.003-.143-.181.187-.394.379-.245.421-.39.113-.394-.283-.003-.393-.3-.263-.706.177-.549.14-.58-.172-.142-.242.341-.681.45-1.126.279-.624-.24-.644-.339-.141-.687.439-.303.258-.366-.711-.248-1.39.17-1.325.292-1.45-2.702-.047-1.13-.15-1.203-1.775-1.258-2.133-.072-2.094-.029-2.14-2.329-.022-1.078-.172-1.677-.349-1.391-.179.29-.293-.119-.269-.966.058-2.05-1.019-3.152-2.017-2.064-.668.729-.667.739.009.23.624-.471.676-.448.431.191-.22.572-.133.67.411.461.411-.158.592-.105.446.131-.134.217-.07.395.142.395s.284.392.158.871l-.227.87-.332-.896c-.209-.566-.517-.789-.835-.607-.276.16-.371.144-.209-.034.161-.179-.012-.548-.385-.821-.574-.42-.596-.596-.145-1.14.453-.546.436-.643-.115-.643-.357,0-.649-.27-.649-.6s-.225-.603-.5-.606c-.334-.004-.301-.137.1-.4.492-.323.503-.456.066-.739-.294-.189-.519-.459-.5-.6.129-.969-.003-1.122-.566-.655-.49.406-.6.383-.6-.124c0-.382-.426-.672-1.1-.749-.883-.102-1.075-.305-.975-1.027.075-.538-.086-.902-.4-.906-.43-.005-.429-.067.005-.342c1.002-.635-.646-1.736-2.311-1.544l-1.464.169.126-1.593c.157-1.982-.386-2.671-2.056-2.608-1.782.067-2.146-.252-1.974-1.728.199-1.712-.449-2.389-2.113-2.206-1.545.171-1.871-.161-1.822-1.853.038-1.359-.774-2.375-1.813-2.269-1.984.203-2.561-.008-2.297-.839.147-.463.028-1.105-.273-1.477-.373-.46-.384-.568-.038-.36.338.202.419.098.256-.327-.265-.692-1.849-1.219-2.691-.895-.298.114-.837-.136-1.197-.557s-.477-.765-.259-.765.396-.191.396-.424-.211-.293-.468-.134c-.305.188-.387.079-.237-.313.127-.331.07-.855-.126-1.165-.301-.476-.36-.471-.376.036-.014.468-.143.436-.585-.148-.394-.52-.92-.697-1.721-.579-1.041.152-1.154.058-1.154-.971c0-1.755-1.124-2.701-2.033-1.71-.668.729-.667.739.009.23.624-.471.676-.448.431.191-.22.572-.133.67.411.461.411-.158.592-.105.446.131-.134.217-.059.395.167.395s.3.29.164.644c-.226.589-.278.589-.612-.009-.201-.358-.579-.529-.841-.379-.261.15-.343.126-.181-.052.161-.179-.012-.548-.385-.821-.562-.411-.59-.603-.165-1.116.549-.661-.215-.913-3.518-1.163-1.341-.102-1.374-.146-1.4-1.904-.027-1.902.023-1.863-2.526-1.954-1.168-.041-1.3-.168-1.3-1.246c0-.66-.174-1.2-.387-1.2-.214,0-.272-.301-.131-.669.195-.508.095-.608-.413-.413-.368.141-.669.083-.669-.131c0-.213-.956-.387-2.125-.387-2.242,0-4.458-1.531-4.47-3.087-.003-.354-.255-.728-.561-.83-.37-.125-.45-.016-.238.327.229.37.161.415-.244.162-.309-.193-1.012-.412-1.562-.486-.55-.075-1.06-.305-1.134-.513s-.318-.264-.543-.125c-.258.159-.309-.062-.139-.598.246-.776-.031-1.026-1.017-.92-.129.014-.234-.225-.234-.531c0-.439.176-.462.834-.112.762.406.784.385.257-.254-.352-.426-.934-.629-1.5-.521-.508.098-.924.046-.924-.115c0-.16-1.006-.315-2.236-.343-2.655-.062-2.955-.202-2.68-1.254.134-.51.011-.802-.337-.806-.449-.005-.452-.066-.017-.342c1.279-.811-.61-1.575-3.985-1.612-3.678-.039-3.645-.026-3.645-1.423c0-.559-.152-1.017-.337-1.017-.186,0-.234-.272-.106-.605.166-.432.049-.534-.412-.357-.355.136-.645.048-.645-.195c0-.289-1.175-.443-3.376-.443-1.857,0-3.488-.18-3.624-.4s-.057-.4.176-.4c.728,0,.463-.798-.276-.832-.452-.02-.515-.105-.179-.24.391-.156.341-.349-.2-.769-.687-.534-.685-.548.045-.292.554.195.679.13.454-.234-.17-.276-.65-.414-1.065-.305-.415.108-.755.034-.755-.165c0-.2-.461-.363-1.024-.363-.712,0-.932.152-.723.5.23.382.165.394-.276.051-.317-.246-2.099-.484-3.96-.527-3.806-.089-4.143-.196-3.821-1.21.139-.439-.01-.811-.384-.954-.337-.129-.612-.613-.612-1.076c0-.627-.229-.823-.9-.768-.495.04-2.925.053-5.4.028L258,6v-1.2c0-.864-.196-1.209-.7-1.232-.418-.018-.499-.112-.2-.233.275-.111.5-.386.5-.611s-.27-.306-.6-.179c-.33.126-.6.056-.6-.158c0-.235-2.822-.387-7.2-.387h-7.2v-1-1h-42-42v1M95.029,23.029c-.346.345-.618.93-.604,1.3.018.475.132.406.391-.238.201-.501.774-1.074,1.275-1.275.644-.259.713-.373.238-.391-.37-.014-.955.258-1.3.604M40.542,72.464c-.339.375-.871.585-1.18.466-.441-.169-.37-.417.331-1.145c1.044-1.085,1.857-.435.849.679M24.206,95.21c.139.225.015.36-.276.3-.292-.061-.472.16-.401.49.098.458.016.49-.346.135-.484-.476-.217-1.335.417-1.335.194,0,.467.184.606.41m161.868,8.324c1.038.452,2.108,1.26,2.4,1.814.289.549,1.269,1.535,2.177,2.192c1.597,1.155,2.949,3.764,2.949,5.689c0,.377.542,1.266,1.204,1.975c1.641,1.757,1.796,2.54,1.796,9.077v5.681l-1.471,1.519c-.81.836-1.892,2.329-2.405,3.319-.625,1.207-1.233,1.843-1.843,1.93-.5.071-1.671.923-2.601,1.894-1.649,1.721-1.795,1.782-5.998,2.508-3.637.628-4.494.921-5.497,1.882-1.087,1.042-4.881,2.566-6.422,2.58-.35.003-.98.642-1.399,1.42-.503.935-1.169,1.52-1.963,1.725-.766.198-1.603.908-2.312,1.962-.61.909-1.502,1.776-1.981,1.928-1.042.331-1.908,1.138-1.908,1.778c0,.255-.796,1.238-1.769,2.183-1.026.998-1.938,2.335-2.173,3.186-.223.807-.885,1.845-1.472,2.306-1.166.918-2.586,3.838-2.586,5.321c0,.514-.651,1.788-1.446,2.831-1.614,2.114-1.976,3.112-2.594,7.166-.32,2.093-.729,3.182-1.624,4.314-1.176,1.488-1.778,3.847-2.542,9.957-.13,1.035-.668,2.464-1.206,3.2-1.386,1.898-1.648,2.586-2.173,5.729-.258,1.54-.552,3.253-.653,3.806-.101.554-.677,1.544-1.278,2.2-1.472,1.607-2.301,2.966-2.635,4.32-.193.785-.706,1.306-1.69,1.717-.777.325-2.206,1.321-3.175,2.215-2.515,2.318-10.984,2.296-10.984-.029c0-.456-2.328-1.824-3.684-2.164-.732-.184-1.339-.824-1.959-2.066-.504-1.008-1.18-1.799-1.539-1.799-1.093,0-3.218-3.535-3.218-5.352c0-.295-.605-1.177-1.344-1.961-1.543-1.636-1.706-2.268-2.293-8.853-.259-2.9-.668-5.205-1.024-5.761-1.493-2.334-1.568-12.014-.127-16.426.403-1.236.84-4.047.971-6.247.653-10.99,1.483-15.596,3.066-17.02.485-.437.816-1.739,1.119-4.4.585-5.141.885-6.051,2.301-6.98.671-.44,1.56-1.503,1.977-2.361.479-.99,1.305-1.847,2.255-2.34.847-.439,1.499-1.076,1.499-1.463c0-.851,1.921-2.708,3-2.901.456-.082.853-.516.924-1.008.157-1.098,1.964-2.927,2.891-2.927.409,0,.872-.463,1.099-1.1.515-1.446,1.668-2.717,2.785-3.069.495-.157,1.005-.705,1.134-1.22.279-1.112,1.614-2.412,2.866-2.792.495-.15,1.009-.711,1.144-1.247.271-1.081,2.3-2.972,3.188-2.972.313,0,.569-.262.569-.582c0-1.024,1.976-2.6,3.851-3.072.999-.252,1.914-.711,2.032-1.019.719-1.872,4.389-2.489,17.517-2.943c14.001-.485,22.003-.238,24.274.75m40.407,40.727c1.107.348,1.976.889,2.111,1.315.166.522.809.801,2.31,1c3.733.495,5.574,1.174,6.847,2.523.675.716,1.484,1.301,1.799,1.301c1.324,0,4.866,2.115,5.099,3.045.174.693.678,1.065,1.881,1.389.973.263,2.279,1.079,3.205,2.004.858.859,1.765,1.565,2.014,1.57.858.014,4.343,2.451,4.53,3.167.104.394,1.107,1.146,2.231,1.671c1.273.595,2.29,1.406,2.699,2.154.362.66,1.003,1.266,1.425,1.347c1.26.24,2.862,1.578,3.12,2.603.175.698.608,1.029,1.589,1.213.742.139,1.672.609,2.066,1.045s.963.792,1.264.792c.3,0,.734.412.964.916.229.504.748,1.089,1.152,1.3.405.211,1.358.708,2.119,1.103.761.396,1.575,1.14,1.809,1.654s1.203,1.363,2.153,1.887s1.968,1.455,2.262,2.069c.294.613.953,1.274,1.464,1.469c1.229.467,2.606,1.977,2.606,2.857c0,.387.658,1.206,1.462,1.819c1.521,1.16,2.914,3.657,2.929,5.249.005.507.538,1.407,1.184,2c1.621,1.487,2.028,2.751,2.643,8.21.36,3.196.768,5.079,1.257,5.8c1.051,1.547,1.066,11.203.022,13.235-.737,1.433-1.488,6.68-1.494,10.432-.004,2.851-.897,7.081-1.851,8.77-.414.732-.974,1.731-1.245,2.22-.271.49-.598,2.492-.726,4.45-.383,5.834-1.328,9.307-2.984,10.963-.453.453-.831,1.619-.992,3.064-.354,3.163-.907,4.51-2.45,5.965-.719.678-1.601,1.966-1.96,2.863-.447,1.118-1.032,1.789-1.858,2.131-.664.275-1.634,1.177-2.157,2.005-.522.828-1.362,1.624-1.865,1.769-1.827.526-3.383,1.387-4.588,2.539-.677.647-2.2,1.458-3.385,1.802-1.384.403-2.626,1.114-3.476,1.991-.95.98-2.043,1.56-3.877,2.056-1.957.53-2.782.989-3.525,1.964-.897,1.176-4.147,2.638-5.899,2.653-.311.003-.961.616-1.445,1.363-.889,1.373-1.286,1.539-6.248,2.606-.841.181-1.795.709-2.121,1.174-2.607,3.722-30.52,3.965-35.215.307-.954-.743-2.836-1.658-4.196-2.04-1.503-.421-2.948-1.152-3.703-1.872-.68-.649-2.166-1.612-3.302-2.14-1.176-.547-2.35-1.443-2.727-2.081-.365-.617-1.369-1.423-2.23-1.79-.967-.412-1.891-1.217-2.412-2.1-.465-.788-1.162-1.432-1.55-1.432-1.043,0-14.816-12.822-14.816-13.792c0-.177-.783-1.082-1.739-2.011-.957-.93-1.847-2.21-1.979-2.844-.148-.713-.691-1.405-1.425-1.814-.713-.397-1.508-1.39-1.995-2.492-.446-1.007-1.289-2.311-1.875-2.896-1.189-1.19-2.328-3.607-2.737-5.812-.15-.804-.526-1.559-.838-1.679-1.392-.534-2.661-4.07-3.207-8.931-.162-1.451-.494-2.554-.802-2.672-3.363-1.291-3.555-33.624-.213-35.965.466-.326.826-1.241.986-2.503.716-5.651,1.839-9.002,3.191-9.521.292-.112.647-.713.791-1.336.794-3.446,1.374-4.818,2.585-6.105.738-.785,1.621-2.147,1.962-3.027.75-1.937,1.596-2.977,2.795-3.436.501-.192.9-.684.9-1.112c0-.894,2.07-3.25,2.86-3.256.297-.002.833-.703,1.192-1.557.488-1.163,1.015-1.684,2.098-2.075.81-.293,1.561-.885,1.706-1.344.327-1.037,2.137-2.619,2.998-2.62.36,0,.978-.495,1.373-1.1c1.044-1.596,1.384-1.867,3.301-2.629.95-.378,2.354-1.295,3.12-2.039c1.391-1.351,2.547-1.946,4.694-2.418.657-.144,1.228-.579,1.345-1.024.228-.874,3.514-2.546,5.813-2.958.825-.147,1.5-.416,1.5-.596c0-1.363,2.85-2.702,7.289-3.425.818-.134,1.729-.587,2.024-1.008c1.537-2.194,12.99-3.031,18.368-1.342M327.404,360.149c.076,1.036.733,1.25,1.393.455.584-.704.326-1.129-.733-1.207-.489-.036-.701.205-.66.752" fill="#6f3392" fill-rule="evenodd"/><path d="M161,104.025c-1.32.16,2.469.199,8.419.088c13.752-.258,14.39-.145,18.131,3.215c2.599,2.334,4.85,5.693,4.85,7.236c0,.339.54,1.975,1.2,3.636c1.657,4.172,1.655,7.266-.007,10.935-2.169,4.787-2.626,5.396-5.265,7.016-1.391.854-2.618,1.669-2.728,1.811-.347.451-3.335,1.573-5,1.877-.999.182-1.319.357-.852.465c1.638.379,6.38-1.575,8.172-3.367.295-.295.768-.537,1.049-.537c1.782,0,6.194-7.589,6.546-11.26.205-2.125-.491-5.978-1.328-7.356-.272-.448-.99-2.279-1.596-4.067-.605-1.788-1.481-3.626-1.946-4.085-6.333-6.255-5.723-6.051-17.845-5.964-5.17.036-10.48.197-11.8.357m-9.8.658c-.77.085-2.03.434-2.8.775-.77.342-2.12.94-3,1.329-.88.39-2.216.946-2.969,1.238-1.146.443-6.656,5.635-11.287,10.635-.581.627-1.481,1.522-2,1.99-.519.467-1.521,1.457-2.226,2.2-.706.742-1.606,1.675-2,2.072-4.715,4.746-9.318,9.731-9.318,10.092c0,.136-.556.803-1.235,1.482-1.474,1.475-1.683,2.005-2.329,5.904-.687,4.151-1.553,7.498-2.448,9.464-.417.915-.846,2.895-.952,4.4-.166,2.339-.143,2.475.156.936.568-2.921.897-4.175,1.207-4.6.691-.949,2.144-6.995,2.62-10.896.153-1.255.639-2.618,1.213-3.4.528-.717,1.456-2.024,2.064-2.904.607-.88,2.724-3.227,4.704-5.216c1.98-1.988,3.919-4.103,4.309-4.7.39-.596.898-1.084,1.129-1.084.509,0,1.099-.589,2.294-2.289.499-.709,1.427-1.596,2.063-1.972.636-.375,1.479-1.282,1.873-2.013.394-.732,1.024-1.428,1.4-1.547.375-.12,1.239-.884,1.919-1.698.68-.815,1.424-1.661,1.654-1.881.229-.22,1.393-1.345,2.588-2.5c1.194-1.155,2.41-2.1,2.702-2.1.538,0,5.159-1.734,6.28-2.356.715-.397,5.399-1.208,7.989-1.383.99-.067.45-.124-1.2-.127s-3.63.064-4.4.149M176,140.93c-.55.289-1.72.974-2.6,1.523-.88.548-2.23,1.245-3,1.549-2.893,1.143-12.717,10.45-14.572,13.804-.606,1.097-1.521,2.444-2.034,2.994s-1.236,1.81-1.607,2.8c-.976,2.604-1.7,4.065-2.579,5.2-.425.55-1.143,2.44-1.594,4.2s-1.361,4.28-2.022,5.6c-.722,1.443-1.514,4.058-1.986,6.558-.438,2.323-1.321,5.303-1.999,6.753-.668,1.427-1.299,3.336-1.403,4.242-.158,1.378-.135,1.451.14.447.181-.66.874-2.37,1.54-3.8c1.181-2.534,1.801-4.752,2.346-8.381.241-1.603.594-2.597,2.351-6.618.852-1.948,1.343-3.505,1.604-5.084.268-1.622.758-2.691,2.081-4.537.477-.665,1.223-2.265,1.659-3.555.435-1.29,1.224-2.814,1.752-3.385.529-.572,1.552-2.011,2.274-3.199c1.229-2.019,9.133-10.441,9.8-10.441.166,0,.965-.631,1.776-1.402.81-.771,2.063-1.568,2.783-1.771.721-.202,2.445-1.085,3.832-1.961s2.958-1.675,3.49-1.775l.968-.182-1-.052c-.55-.029-1.45.184-2,.473m37.4,4.331c-.66.219-1.56.549-2,.734-1.084.457-4.319,1.475-7.035,2.215-1.229.335-2.579.929-3,1.319-.913.848-2.516,1.723-4.965,2.71-.99.399-2.29,1.123-2.89,1.609-.599.486-2.129,1.385-3.4,1.999-1.27.614-2.614,1.454-2.986,1.868s-1.72,1.294-2.996,1.956-3.082,1.907-4.015,2.766c-.932.86-1.859,1.563-2.06,1.563-.292,0-3.273,2.652-5.453,4.852-2.86,2.886-4.288,4.499-5.187,5.857-.594.897-1.325,1.725-1.624,1.84s-1.127,1.433-1.84,2.93c-.712,1.496-1.688,3.126-2.168,3.621-.48.496-1.167,1.711-1.527,2.7-.36.99-.943,2.597-1.297,3.571s-.996,2.15-1.427,2.612c-.432.463-.864,1.511-.961,2.329-.097.819-.071,1.218.057.888.446-1.15,1.174-2.601,1.405-2.8.471-.407,1.466-2.744,2.176-5.115.402-1.342,1.249-3.036,1.881-3.763s1.606-2.312,2.164-3.522s1.495-2.677,2.081-3.261c1.499-1.49,1.93-2.077,2.239-3.049.148-.467.575-.946.949-1.065s1.13-.794,1.68-1.502c.549-.707,1.521-1.744,2.16-2.304.638-.561,1.808-1.661,2.6-2.445.791-.784,2.071-1.808,2.844-2.274.773-.467,1.787-1.287,2.253-1.823s1.814-1.438,2.995-2.005s2.687-1.512,3.347-2.099s1.994-1.412,2.965-1.834c.971-.421,2.591-1.367,3.6-2.102s2.285-1.463,2.835-1.618c1.611-.455,3.338-1.312,4.22-2.093c1.349-1.193,2.322-1.626,5.221-2.318c1.517-.363,3.119-.812,3.559-.998c3.793-1.605,10.433-2.245,12.957-1.248c1.382.546,6.916,2.027,9.52,2.548c1.344.269,2.599.867,3.556,1.694.814.703,2.316,1.579,3.338,1.947c1.021.367,2.84,1.473,4.04,2.458c1.201.985,2.399,1.791,2.663,1.791s1.508.9,2.765,2s2.508,2,2.781,2c.272,0,1.043.495,1.711,1.1c2.072,1.874,3.024,2.566,4.287,3.114.67.29,1.66,1.053,2.2,1.694s1.522,1.498,2.182,1.904s1.977,1.515,2.927,2.463c.949.949,1.948,1.725,2.219,1.725s1.242.72,2.158,1.6s1.852,1.6,2.081,1.6c.228,0,.415.168.415.373s.357.486.793.625c.436.138,1.651,1.05,2.699,2.027c1.048.976,2.057,1.775,2.242,1.775.184,0,1.318.99,2.518,2.2s2.351,2.2,2.557,2.2.732.701,1.169,1.557s1.41,2.209,2.162,3.007c.752.797,1.77,2.525,2.261,3.84.492,1.314,1.408,3.2,2.037,4.192.65,1.024,1.4,3.054,1.737,4.703.52,2.536.577,2.65.457.901-.193-2.797-.827-4.929-1.767-5.939-.44-.473-1.105-1.671-1.477-2.661-1.28-3.41-1.852-4.451-3.218-5.858-.753-.776-1.37-1.579-1.37-1.784c0-.435-5.9-6.358-6.334-6.358-.16,0-1.198-.855-2.307-1.9s-2.946-2.44-4.083-3.1c-1.136-.66-2.157-1.47-2.268-1.8s-1.095-1.101-2.187-1.713-2.365-1.647-2.83-2.3-1.081-1.187-1.369-1.187-1.31-.756-2.273-1.68c-1.699-1.633-3.354-2.865-8.749-6.518-1.43-.968-3.05-2.193-3.6-2.721s-1.633-1.245-2.406-1.595c-.773-.349-1.853-1.115-2.4-1.702s-2.301-1.673-3.898-2.414c-1.598-.741-3.292-1.708-3.766-2.149-.754-.703-4.318-2.021-5.463-2.021-.226,0-2.313-.63-4.639-1.4-4.48-1.483-9.615-1.871-12.428-.939M107.871,162.6c-.166,1.98-.475,5.024-.686,6.764-.503,4.137-.494,15.379.015,18.212.219,1.223.52,3.304.667,4.624.148,1.32.348,2.047.446,1.617.098-.431-.041-2.382-.307-4.334-.626-4.579-.634-17.631-.015-23.283.266-2.42.415-5.03.332-5.8-.09-.839-.271.042-.452,2.2m.737,33.924c.101,1.059.465,2.206.809,2.55.639.639,1.601,2.616,2.722,5.593c1.455,3.862,8.836,9.447,13.461,10.186c3.022.483,8.904-2.875,10.478-5.981.593-1.17,1.582-2.97,2.198-4c1.284-2.149,2.129-4.623,2.074-6.072-.024-.633-.228-.266-.554,1-.725,2.814-1.42,4.6-1.791,4.6-.174,0-.714.855-1.2,1.9-.485,1.045-1.142,2.456-1.459,3.135-1.005,2.156-8.426,5.537-10.25,4.67-.493-.234-2.216-.938-3.828-1.565-1.613-.627-3.264-1.5-3.669-1.94-.406-.44-1.556-1.647-2.556-2.682-1.3-1.345-2.173-2.799-3.06-5.101-.683-1.77-1.461-3.443-1.729-3.718-.485-.496-1.218-2.172-1.619-3.699-.116-.44-.128.066-.027,1.124m47.248.876c-.394,2.163-.819,3.755-2.138,8-1.703,5.485-1.699,20.871.007,26.4c1.24,4.017,1.527,5.106,2.464,9.338.357,1.616,1.098,3.615,1.645,4.441.547.827,1.442,2.738,1.99,4.246.547,1.509,1.333,3.11,1.747,3.559s1.419,2.035,2.232,3.524c.814,1.489,1.776,2.868,2.138,3.063.362.196,1.199,1.27,1.859,2.387.66,1.118,1.506,2.134,1.88,2.258.373.124.789.571.923.995.135.423,2.709,3.21,5.721,6.194c7.621,7.549,8.743,8.595,9.217,8.595.228,0,1.301.9,2.383,2c1.083,1.1,2.151,2,2.373,2s1.147.7,2.056,1.555c.908.856,2.325,1.872,3.149,2.259s2.474,1.399,3.668,2.248c1.193.85,2.903,1.738,3.8,1.975.896.237,2.8,1.013,4.23,1.726c3.063,1.525,6.368,2.36,8.6,2.172c1.306-.111.998-.219-1.677-.589-2.293-.317-4.155-.888-6.203-1.9-1.61-.795-3.162-1.446-3.448-1.446-.787,0-4.872-2.009-4.872-2.396c0-.185-1.215-.926-2.7-1.646s-3.15-1.778-3.7-2.351-1.667-1.449-2.483-1.946c-.816-.498-1.896-1.39-2.4-1.983s-1.457-1.415-2.117-1.826-1.83-1.346-2.6-2.076c-.77-.731-2.422-2.284-3.671-3.452-4.477-4.186-11.529-11.754-11.529-12.373c0-.429-1.108-1.804-2.343-2.908-.519-.464-1.35-1.743-1.847-2.843s-1.471-2.705-2.166-3.566c-.694-.862-1.359-2.032-1.477-2.6-.119-.569-.384-1.347-.591-1.729s-.376-.864-.376-1.071-.615-1.425-1.368-2.705c-.961-1.638-1.606-3.517-2.172-6.329-.442-2.2-1.1-5.08-1.461-6.4-2.585-9.449-2.42-17.75.592-29.772.685-2.735,1.181-5.345,1.101-5.8-.094-.54-.246-.271-.436.772m136.735,18.482c-.006,7.199.103,10.061.333,8.718.427-2.498.422-16.337-.007-18.118-.182-.756-.321,3.256-.326,9.4m-.928,14.618c-.428,3.4-1.042,5.837-1.75,6.935-.594.923-1.384,4.718-2.312,11.115-.252,1.732-.877,4.072-1.389,5.2-.923,2.031-1.149,2.763-2.439,7.901-.397,1.582-1.111,3.174-1.772,3.948-.609.713-1.522,2.13-2.03,3.149-1.011,2.031-1.686,2.852-2.342,2.852-.236,0-.429.168-.429.373s-.351.484-.78.621c-.428.136-.882.572-1.009.97-.126.398-1.545,1.374-3.153,2.168-1.608.795-3.539,1.987-4.291,2.65s-1.587,1.208-1.856,1.212c-.717.009-4.911,2.05-4.911,2.389c0,.305-4.932,2.817-5.53,2.817-.19,0-.642.327-1.004.727s-1.47,1.133-2.462,1.628c-.992.496-1.804.978-1.804,1.073c0,.593,1.524-.091,4.069-1.825c1.612-1.099,3.235-1.999,3.606-2c.371-.002,1.82-.787,3.22-1.746c1.4-.958,3.219-1.965,4.043-2.236.823-.272,2.311-1.116,3.306-1.875.995-.76,2.752-1.812,3.905-2.34c1.152-.527,2.535-1.478,3.073-2.114s1.541-1.482,2.228-1.881c.717-.415,1.891-1.82,2.751-3.29.825-1.411,1.71-2.781,1.965-3.043.614-.632,1.613-3.435,2.429-6.816.364-1.506.993-3.329,1.399-4.052.406-.722,1.037-3,1.403-5.062c1.546-8.722,1.84-10.036,2.616-11.686.899-1.912,1.477-4.65,1.85-8.762.361-3.985-.062-3.28-.6,1M247.9,289.103c-.605.375-1.1.812-1.1.971c0,.262-.515.526-3.6,1.845-.632.27-.76.437-.349.454c1.059.044,3.422-1.087,4.834-2.313.723-.628,1.585-1.245,1.915-1.37.533-.202.533-.229,0-.248-.33-.011-1.095.286-1.7.661m-8.1,3.59c-.44.11-1.296.552-1.902.982-1.481,1.051-3.027,1.5-7.298,2.119-3.558.515-3.572.521-1.2.549c3.152.037,6.387-.765,9.108-2.258c1.212-.665,2.538-1.295,2.948-1.401.672-.173.667-.191-.056-.191-.44,0-1.16.09-1.6.2m-20.1,4.003c1.265.079,3.335.079,4.6,0c1.265-.08.23-.145-2.3-.145s-3.565.065-2.3.145" fill="#9c7c84" fill-rule="evenodd"/><path d="M118.978,11.235c-.147.239-.057.644.201.9.357.355.399.283.175-.304-.235-.618-.157-.718.397-.505.411.158.592.105.446-.131-.322-.52-.884-.502-1.219.04M326.894,40.117c.381.309.606.649.5.756-.107.106.068.194.388.194.761,0,.404-.551-.704-1.087-.792-.383-.81-.369-.184.137m32,32c.381.309.606.649.5.756-.107.106.068.194.388.194.761,0,.404-.551-.704-1.087-.792-.383-.81-.369-.184.137m8.876,10.635c.12.193.591.449,1.047.568.68.178.744.115.357-.351-.506-.61-1.767-.805-1.404-.217M161.8,102.784c-13.128.454-16.798,1.071-17.517,2.943-.118.308-1.033.767-2.032,1.019-1.875.472-3.851,2.048-3.851,3.072c0,.32-.256.582-.569.582-.888,0-2.917,1.891-3.188,2.972-.135.536-.649,1.097-1.144,1.247-1.252.38-2.587,1.68-2.866,2.792-.129.515-.639,1.063-1.134,1.22-1.117.352-2.27,1.623-2.785,3.069-.227.637-.69,1.1-1.099,1.1-.927,0-2.734,1.829-2.891,2.927-.071.492-.468.926-.924,1.008-1.079.193-3,2.05-3,2.901c0,.387-.652,1.024-1.499,1.463-.95.493-1.776,1.35-2.255,2.34-.417.858-1.306,1.921-1.977,2.361-1.416.929-1.716,1.839-2.301,6.98-.303,2.661-.634,3.963-1.119,4.4-1.583,1.424-2.413,6.03-3.066,17.02-.131,2.2-.568,5.011-.971,6.247-1.441,4.412-1.366,14.092.127,16.426.356.556.765,2.861,1.024,5.761.587,6.585.75,7.217,2.293,8.853.739.784,1.344,1.666,1.344,1.961c0,1.817,2.125,5.352,3.218,5.352.359,0,1.035.791,1.539,1.799.62,1.242,1.227,1.882,1.959,2.066c1.356.34,3.684,1.708,3.684,2.164c0,2.325,8.469,2.347,10.984.029.969-.894,2.398-1.89,3.175-2.215.984-.411,1.497-.932,1.69-1.717.334-1.354,1.163-2.713,2.635-4.32.601-.656,1.177-1.646,1.278-2.2.101-.553.395-2.266.653-3.806.525-3.143.787-3.831,2.173-5.729.538-.736,1.076-2.165,1.206-3.2.764-6.11,1.366-8.469,2.542-9.957.895-1.132,1.304-2.221,1.624-4.314.618-4.054.98-5.052,2.594-7.166.795-1.043,1.446-2.317,1.446-2.831c0-1.483,1.42-4.403,2.586-5.321.587-.461,1.249-1.499,1.472-2.306.235-.851,1.147-2.188,2.173-3.186.973-.945,1.769-1.928,1.769-2.183c0-.64.866-1.447,1.908-1.778.479-.152,1.371-1.019,1.981-1.928.709-1.054,1.546-1.764,2.312-1.962.794-.205,1.46-.79,1.963-1.725.419-.778,1.049-1.417,1.399-1.42c1.541-.014,5.335-1.538,6.422-2.58c1.003-.961,1.86-1.254,5.497-1.882c4.203-.726,4.349-.787,5.998-2.508.93-.971,2.101-1.823,2.601-1.894.61-.087,1.218-.723,1.843-1.93.513-.99,1.595-2.483,2.405-3.319l1.471-1.519v-5.681c0-6.537-.155-7.32-1.796-9.077-.662-.709-1.204-1.598-1.204-1.975c0-1.925-1.352-4.534-2.949-5.689-.908-.657-1.888-1.643-2.177-2.192-1.406-2.669-7.298-3.235-26.674-2.564m22.281,1.531c1.034.393,2.744,1.562,3.8,2.598c1.055,1.036,2.299,2.26,2.764,2.719s1.341,2.297,1.946,4.085c.606,1.788,1.324,3.619,1.596,4.067.837,1.378,1.533,5.231,1.328,7.356-.352,3.671-4.764,11.26-6.546,11.26-.281,0-.754.242-1.049.537-1.803,1.803-4.954,3.082-9.109,3.698-1.033.153-2.848.934-4.29,1.845-1.375.868-3.09,1.745-3.811,1.947-.72.203-1.973,1-2.783,1.771-.811.771-1.61,1.402-1.776,1.402-.667,0-8.571,8.422-9.8,10.441-.722,1.188-1.745,2.627-2.274,3.199-.528.571-1.317,2.095-1.752,3.385-.436,1.29-1.182,2.89-1.659,3.555-1.323,1.846-1.813,2.915-2.081,4.537-.261,1.579-.752,3.136-1.604,5.084-1.757,4.021-2.11,5.015-2.351,6.618-.551,3.673-1.171,5.861-2.43,8.581-.713,1.54-1.417,3.61-1.563,4.6-.46,3.106-1.148,5.35-2.085,6.8-.498.77-1.501,2.57-2.228,4-1.825,3.584-7.459,6.975-10.724,6.453-4.625-.739-12.006-6.324-13.461-10.186-1.112-2.954-2.081-4.952-2.703-5.574-.365-.365-.858-2.337-1.237-4.95-.346-2.389-.803-5.344-1.014-6.567-.499-2.883-.495-13.787.006-18.499.215-2.023.68-6.365,1.033-9.65.4-3.731.919-6.585,1.381-7.6.879-1.932,1.748-5.301,2.431-9.427.646-3.899.855-4.429,2.329-5.904.679-.679,1.235-1.346,1.235-1.482c0-.361,4.603-5.346,9.318-10.092.394-.397,1.294-1.33,2-2.072.705-.743,1.707-1.733,2.226-2.2.519-.468,1.419-1.363,2-1.99c4.619-4.988,10.142-10.193,11.287-10.638c1.88-.73,5.622-2.372,6.452-2.83.376-.208,3.706-.58,7.4-.828s6.792-.521,6.884-.607c.633-.595,19.182-.1,20.914.558M214,143.601c-3.414.319-5.113.897-5.887,2.002-.295.421-1.206.874-2.024,1.008-4.439.723-7.289,2.062-7.289,3.425c0,.18-.675.449-1.5.596-2.299.412-5.585,2.084-5.813,2.958-.117.445-.688.88-1.345,1.024-2.147.472-3.303,1.067-4.694,2.418-.766.744-2.17,1.661-3.12,2.039-1.917.762-2.257,1.033-3.301,2.629-.395.605-1.013,1.1-1.373,1.1-.861.001-2.671,1.583-2.998,2.62-.145.459-.896,1.051-1.706,1.344-1.083.391-1.61.912-2.098,2.075-.359.854-.895,1.555-1.192,1.557-.79.006-2.86,2.362-2.86,3.256c0,.428-.399.92-.9,1.112-1.199.459-2.045,1.499-2.795,3.436-.341.88-1.224,2.242-1.962,3.027-1.211,1.287-1.791,2.659-2.585,6.105-.144.623-.499,1.224-.791,1.336-1.352.519-2.475,3.87-3.191,9.521-.16,1.262-.52,2.177-.986,2.503-3.342,2.341-3.15,34.674.213,35.965.308.118.64,1.221.802,2.672.546,4.861,1.815,8.397,3.207,8.931.312.12.688.875.838,1.679.409,2.205,1.548,4.622,2.737,5.812.586.585,1.429,1.889,1.875,2.896.487,1.102,1.282,2.095,1.995,2.492.734.409,1.277,1.101,1.425,1.814.132.634,1.022,1.914,1.979,2.844.956.929,1.739,1.834,1.739,2.011c0,.97,13.773,13.792,14.816,13.792.388,0,1.085.644,1.55,1.432.521.883,1.445,1.688,2.412,2.1.861.367,1.865,1.173,2.23,1.79.377.638,1.551,1.534,2.727,2.081c1.136.528,2.622,1.491,3.302,2.14.755.72,2.2,1.451,3.703,1.872c1.36.382,3.242,1.297,4.196,2.04c4.695,3.658,32.608,3.415,35.215-.307.326-.465,1.28-.993,2.121-1.174c4.962-1.067,5.359-1.233,6.248-2.606.484-.747,1.134-1.36,1.445-1.363c1.752-.015,5.002-1.477,5.899-2.653.743-.975,1.568-1.434,3.525-1.964c1.834-.496,2.927-1.076,3.877-2.056.85-.877,2.092-1.588,3.476-1.991c1.185-.344,2.708-1.155,3.385-1.802c1.205-1.152,2.761-2.013,4.588-2.539.503-.145,1.343-.941,1.865-1.769.523-.828,1.493-1.73,2.157-2.005.826-.342,1.411-1.013,1.858-2.131.359-.897,1.241-2.185,1.96-2.863c1.543-1.455,2.096-2.802,2.45-5.965.161-1.445.539-2.611.992-3.064c1.656-1.656,2.601-5.129,2.984-10.963.128-1.958.455-3.96.726-4.45.271-.489.831-1.488,1.245-2.22.954-1.689,1.847-5.919,1.851-8.77.006-3.752.757-8.999,1.494-10.432c1.044-2.032,1.029-11.688-.022-13.235-.489-.721-.897-2.604-1.257-5.8-.615-5.459-1.022-6.723-2.643-8.21-.646-.593-1.179-1.493-1.184-2-.015-1.592-1.408-4.089-2.929-5.249-.804-.613-1.462-1.432-1.462-1.819c0-.88-1.377-2.39-2.606-2.857-.511-.195-1.17-.856-1.464-1.469-.294-.614-1.312-1.545-2.262-2.069s-1.919-1.373-2.153-1.887-1.048-1.258-1.809-1.654c-.761-.395-1.714-.892-2.119-1.103-.404-.211-.923-.796-1.152-1.3-.23-.504-.664-.916-.964-.916-.301,0-.87-.356-1.264-.792s-1.324-.906-2.066-1.045c-.981-.184-1.414-.515-1.589-1.213-.258-1.025-1.86-2.363-3.12-2.603-.422-.081-1.063-.687-1.425-1.347-.409-.748-1.426-1.559-2.699-2.154-1.124-.525-2.127-1.277-2.231-1.671-.187-.716-3.672-3.153-4.53-3.167-.249-.005-1.156-.711-2.014-1.57-.926-.925-2.232-1.741-3.205-2.004-1.203-.324-1.707-.696-1.881-1.389-.233-.93-3.775-3.045-5.099-3.045-.315,0-1.124-.585-1.799-1.301-1.273-1.349-3.114-2.028-6.847-2.523-1.501-.199-2.144-.478-2.31-1-.509-1.604-7.887-2.603-14.592-1.975m11.828,2.599c2.326.77,4.413,1.4,4.639,1.4c1.145,0,4.709,1.318,5.463,2.021.474.441,2.168,1.408,3.766,2.149c1.597.741,3.351,1.827,3.898,2.414s1.627,1.353,2.4,1.702c.773.35,1.856,1.067,2.406,1.595s2.17,1.753,3.6,2.721c5.395,3.653,7.05,4.885,8.749,6.518.963.924,1.985,1.68,2.273,1.68s.904.534,1.369,1.187s1.738,1.688,2.83,2.3s2.076,1.383,2.187,1.713s1.132,1.14,2.268,1.8c1.137.66,2.974,2.055,4.083,3.1s2.147,1.9,2.307,1.9c.434,0,6.334,5.923,6.334,6.358c0,.205.617,1.008,1.37,1.784c1.366,1.407,1.938,2.448,3.218,5.858.372.99,1.037,2.188,1.477,2.661c1.981,2.129,3.503,15.169,2.741,23.477-1.092,11.902-1.634,15.341-2.797,17.749-.762,1.577-1.062,2.918-2.612,11.661-.366,2.062-.997,4.34-1.403,5.062-.406.723-1.035,2.546-1.399,4.052-.816,3.381-1.815,6.184-2.429,6.816-.255.262-1.14,1.632-1.965,3.043-.86,1.47-2.034,2.875-2.751,3.29-.687.399-1.69,1.245-2.228,1.881s-1.921,1.587-3.073,2.114c-1.153.528-2.91,1.58-3.905,2.34-.995.759-2.483,1.603-3.306,1.875-.824.271-2.643,1.278-4.043,2.236-1.4.959-2.859,1.743-3.242,1.743s-1.853.814-3.266,1.809-3.29,2.003-4.171,2.241c-.882.237-2.197.953-2.924,1.591-1.494,1.312-3.191,2.102-5.405,2.517-.832.156-2.518.835-3.746,1.509-6.577,3.609-24.406,3.617-31.541.014-1.32-.667-3.134-1.406-4.03-1.643-.897-.237-2.607-1.126-3.8-1.976-1.194-.849-2.844-1.861-3.668-2.248s-2.241-1.403-3.149-2.259c-.909-.855-1.834-1.555-2.056-1.555s-1.29-.9-2.373-2c-1.082-1.1-2.155-2-2.383-2-.474,0-1.596-1.046-9.217-8.595-3.012-2.984-5.586-5.771-5.721-6.194-.134-.424-.55-.871-.923-.995-.374-.124-1.22-1.14-1.88-2.258-.66-1.117-1.497-2.191-1.859-2.387-.362-.195-1.324-1.574-2.138-3.063-.813-1.489-1.818-3.075-2.232-3.524s-1.2-2.05-1.747-3.559c-.548-1.508-1.443-3.419-1.99-4.246-.547-.826-1.288-2.825-1.645-4.441-.937-4.232-1.224-5.321-2.464-9.338-1.56-5.054-1.713-21.048-.244-25.426.925-2.755,1.56-5.099,2.105-7.774.18-.88.522-2.548.761-3.707s.78-2.477,1.201-2.929s1.055-1.619,1.409-2.593.937-2.581,1.297-3.571c.36-.989,1.047-2.204,1.527-2.7.48-.495,1.456-2.125,2.168-3.621.713-1.497,1.541-2.815,1.84-2.93s1.03-.943,1.624-1.84c.899-1.358,2.327-2.971,5.187-5.857c2.18-2.2,5.161-4.852,5.453-4.852.201,0,1.128-.703,2.06-1.563.933-.859,2.739-2.104,4.015-2.766s2.624-1.542,2.996-1.956s1.716-1.254,2.986-1.868c1.271-.614,2.801-1.513,3.4-1.999.6-.486,1.9-1.21,2.89-1.609c2.449-.987,4.052-1.862,4.965-2.71.421-.39,1.771-.984,3-1.319c2.716-.74,5.951-1.758,7.035-2.215c4.088-1.721,8.814-1.654,14.428.205M380.491,296.573c-.631.665-.727.932-.312.871.756-.111,1.154-.506,1.264-1.256.109-.746.127-.753-.952.385m-12,20c-.631.665-.727.932-.312.871.756-.111,1.154-.506,1.264-1.256.109-.746.127-.753-.952.385M39.98,327.078c.536,1.108,1.087,1.465,1.087.704c0-.32-.088-.495-.194-.388-.107.106-.447-.119-.756-.5-.506-.626-.52-.608-.137.184m312.511,9.495c-.631.665-.727.932-.312.871.756-.111,1.154-.506,1.264-1.256.109-.746.127-.753-.952.385M62.4,352.127c0,.316.256.787.569,1.047.466.387.529.323.351-.357-.261-1.001-.92-1.494-.92-.69m9.2,6.18c0,.555,1.788,2.094,2.426,2.087.481-.005.477-.068-.026-.386-.33-.208-.6-.61-.6-.893s-.18-.518-.4-.521-.625-.149-.9-.324c-.275-.174-.5-.158-.5.037m255.569.66c-.592.645-.172,1.379.461.806.424-.384.77-.729.77-.768c0-.069-1.169-.106-1.231-.038M102.4,380.127c0,.316.256.787.569,1.047.466.387.529.323.351-.357-.261-1.001-.92-1.494-.92-.69" fill="#a4848c" fill-rule="evenodd"/></g></svg>
