<?xml version="1.0" encoding="UTF-8" standalone="no"?>
<svg
   id="svg"
   version="1.1"
   width="400"
   height="400"
   viewBox="0, 0, 400,400"
   sodipodi:docname="exposicio_aire_lliure.svg"
   inkscape:version="1.2.2 (732a01da63, 2022-12-09)"
   xmlns:inkscape="http://www.inkscape.org/namespaces/inkscape"
   xmlns:sodipodi="http://sodipodi.sourceforge.net/DTD/sodipodi-0.dtd"
   xmlns="http://www.w3.org/2000/svg"
   xmlns:svg="http://www.w3.org/2000/svg">
  <defs
     id="defs58237" />
  <sodipodi:namedview
     id="namedview58235"
     pagecolor="#ffffff"
     bordercolor="#666666"
     borderopacity="1.0"
     inkscape:showpageshadow="2"
     inkscape:pageopacity="0.0"
     inkscape:pagecheckerboard="0"
     inkscape:deskcolor="#d1d1d1"
     showgrid="false"
     inkscape:zoom="0.97"
     inkscape:cx="74.742268"
     inkscape:cy="139.17526"
     inkscape:window-width="1920"
     inkscape:window-height="974"
     inkscape:window-x="-11"
     inkscape:window-y="-11"
     inkscape:window-maximized="1"
     inkscape:current-layer="g58232">
    <inkscape:grid
       type="xygrid"
       id="grid64429" />
  </sodipodi:namedview>
  <g
     id="g58232">
    <path
       d="m 158,1 v 1 l -5.1,0.049 c -2.805,0.027 -5.955,0.019 -7,-0.017 -1.045,-0.037 -1.9,0.101 -1.9,0.306 0,0.205 -0.315,0.348 -0.7,0.318 -0.439,-0.035 -0.679,0.205 -0.644,0.644 0.03,0.385 -0.105,0.7 -0.3,0.7 C 142.16,4 142,4.45 142,5 v 1 h -4.32 c -2.902,0 -4.497,0.164 -4.859,0.5 -0.431,0.4 -0.482,0.4 -0.256,0 0.186,-0.33 0.001,-0.5 -0.541,-0.5 -0.453,0 -0.824,0.191 -0.824,0.424 0,0.233 0.225,0.292 0.5,0.131 0.275,-0.161 0.157,0.098 -0.262,0.576 -0.789,0.9 -1.271,1.169 -0.838,0.469 0.136,-0.22 0.057,-0.4 -0.176,-0.4 -0.233,0 -0.424,0.371 -0.424,0.824 0,0.485 0.177,0.714 0.43,0.558 0.236,-0.146 0.192,0.113 -0.097,0.576 -0.528,0.846 -3.291,1.132 -8.433,0.875 -1.395,-0.069 -1.711,0.186 -1.552,1.253 0.023,0.157 -0.257,0.17 -0.622,0.03 -0.501,-0.192 -0.602,-0.091 -0.41,0.41 0.14,0.365 0.127,0.645 -0.03,0.622 -0.877,-0.131 -1.286,0.14 -1.286,0.852 0,0.733 -0.267,0.8 -3.2,0.8 -1.798,0 -3.2,0.17 -3.2,0.387 0,0.214 -0.301,0.272 -0.669,0.131 -0.508,-0.195 -0.608,-0.095 -0.413,0.413 0.141,0.368 0.083,0.669 -0.131,0.669 -0.213,0 -0.387,0.54 -0.387,1.2 0,1.292 -0.618,1.447 -4.9,1.233 -1.4,-0.07 -1.717,0.19 -1.547,1.267 0.026,0.165 -0.088,0.279 -0.253,0.253 -1.094,-0.173 -1.38,0.121 -1.215,1.247 l 0.176,1.2 h -2.154 c -1.185,0 -2.056,0.16 -1.935,0.355 0.12,0.195 -0.157,0.452 -0.617,0.573 -0.561,0.146 -0.731,0.391 -0.518,0.745 0.233,0.387 0.131,0.376 -0.383,-0.041 -0.604,-0.49 -0.682,-0.49 -0.577,0 0.069,0.319 -0.126,0.514 -0.445,0.445 -0.49,-0.105 -0.49,-0.027 0,0.577 0.313,0.385 0.354,0.571 0.093,0.414 -0.263,-0.157 -0.634,-0.002 -0.83,0.348 -0.234,0.419 -0.943,0.64 -2.101,0.656 -2.089,0.029 -2.756,0.591 -2.708,2.28 0.048,1.674 0.087,1.655 -3.425,1.691 -2.893,0.03 -3.278,0.185 -3.108,1.257 0.026,0.165 -0.088,0.279 -0.253,0.253 -1.094,-0.173 -1.38,0.121 -1.215,1.247 0.147,0.997 0.036,1.206 -0.654,1.237 -3.456,0.153 -3.226,0.021 -3.289,1.888 -0.071,2.105 -0.028,2.061 -2.069,2.141 -1.249,0.049 -1.721,0.254 -1.903,0.829 -0.134,0.421 -0.326,0.683 -0.427,0.581 -0.265,-0.265 -2.41,1.866 -2.239,2.224 0.079,0.165 -0.047,0.3 -0.28,0.3 -0.668,0 -0.495,-0.721 0.276,-1.152 0.385,-0.215 0.7,-0.539 0.7,-0.72 0,-0.18 0.09,-0.309 0.2,-0.285 0.11,0.023 0.533,-0.309 0.939,-0.74 0.724,-0.765 0.72,-0.776 -0.2,-0.495 -1.311,0.4 -2.224,1.281 -2.511,2.421 C 70.439,41.785 70.121,42 69.192,42 68.537,42 68,42.16 68,42.356 c 0,0.195 -0.315,0.33 -0.7,0.3 -0.439,-0.035 -0.679,0.205 -0.644,0.644 0.03,0.385 -0.105,0.7 -0.3,0.7 C 66.16,44 66,44.509 66,45.131 c 0,1.029 -0.108,1.115 -1.2,0.954 -1.126,-0.165 -1.42,0.121 -1.247,1.215 0.026,0.165 -0.088,0.279 -0.253,0.253 -1.094,-0.173 -1.38,0.121 -1.215,1.247 0.18,1.222 -0.067,1.393 -1.763,1.225 -0.951,-0.095 -2.436,1.497 -2.208,2.368 0.31,1.184 -0.361,1.8 -1.825,1.674 -1.678,-0.145 -2.446,0.682 -2.199,2.366 0.186,1.267 -0.808,2.121 -1.959,1.684 -0.57,-0.217 -2.184,1.32 -2.098,1.997 0.232,1.826 -0.027,2.267 -1.191,2.034 -1.596,-0.319 -3.018,1.072 -2.704,2.644 0.209,1.042 0.124,1.121 -1.406,1.326 -2.025,0.272 -2.341,0.584 -2.608,2.574 -0.192,1.43 -0.358,1.625 -1.658,1.948 -1.653,0.412 -2.38,2.041 -2.435,5.46 -0.032,1.962 -0.205,2.117 -2.134,1.92 -0.905,-0.092 -1.969,0.972 -1.877,1.877 C 34.201,81.666 34.007,82 32.8,82 c -0.66,0 -1.2,0.174 -1.2,0.387 0,0.214 -0.301,0.272 -0.669,0.131 -0.508,-0.195 -0.608,-0.095 -0.413,0.413 0.141,0.368 0.083,0.669 -0.131,0.669 -0.213,0 -0.387,0.921 -0.387,2.047 0,2.284 -1.489,4.553 -2.987,4.553 -0.647,0 -0.803,0.305 -0.874,1.702 -0.094,1.873 -0.93,3.03 -1.914,2.652 -0.963,-0.369 -1.917,0.627 -1.643,1.716 0.128,0.512 0.073,0.93 -0.122,0.93 -0.195,0 -0.378,1.006 -0.406,2.236 -0.064,2.749 -0.136,2.872 -1.572,2.661 -1.438,-0.211 -2.556,0.813 -2.464,2.256 0.282,4.414 0.026,5.647 -1.171,5.647 -0.817,0 -1.215,0.233 -1.363,0.8 -0.115,0.44 -0.496,0.8 -0.847,0.8 -0.53,0 -0.637,0.539 -0.637,3.2 0,3.166 -0.011,3.2 -1.024,3.2 -0.579,0 -0.916,0.173 -0.776,0.399 0.142,0.231 -0.144,0.358 -0.677,0.3 -0.749,-0.08 -0.904,0.075 -0.824,0.824 0.062,0.572 -0.063,0.823 -0.328,0.659 -0.284,-0.175 -0.401,0.324 -0.347,1.477 0.256,5.483 -0.009,8.139 -0.866,8.674 -0.463,0.289 -0.722,0.333 -0.576,0.097 C 8.738,130.177 8.509,130 8.024,130 7.571,130 7.2,130.191 7.2,130.424 c 0,0.233 0.225,0.292 0.5,0.131 0.275,-0.161 0.157,0.098 -0.262,0.576 -0.789,0.9 -1.271,1.169 -0.838,0.469 0.136,-0.22 0.057,-0.4 -0.176,-0.4 -0.233,0 -0.424,0.371 -0.424,0.824 0,0.542 0.17,0.727 0.5,0.541 0.4,-0.226 0.4,-0.175 0,0.256 C 6.164,133.183 6,134.778 6,137.68 V 142 H 4.847 c -0.817,0 -1.215,0.233 -1.363,0.8 -0.115,0.44 -0.504,0.8 -0.864,0.8 -0.524,0 -0.642,0.38 -0.588,1.9 0.036,1.045 0.044,4.285 0.017,7.2 L 2,158 H 1 0 v 41.8 41.8 h 1 1 l 0.036,5.5 c 0.019,3.025 0.006,6.342 -0.029,7.372 -0.048,1.417 0.138,2.073 0.765,2.7 0.898,0.898 1.628,1.079 1.628,0.404 0,-0.233 -0.144,-0.334 -0.319,-0.226 -0.176,0.108 -0.581,0.029 -0.9,-0.178 -0.432,-0.278 -0.329,-0.339 0.398,-0.236 0.538,0.075 1.048,0.346 1.133,0.601 0.085,0.254 0.41,0.463 0.721,0.463 0.551,0 0.8,3.712 0.608,9.062 -0.067,1.854 0.982,3.46 1.611,2.468 0.276,-0.435 0.337,-0.432 0.342,0.017 0.004,0.348 0.296,0.471 0.806,0.337 1.085,-0.284 1.133,-0.136 1.224,3.733 0.043,1.861 0.281,3.643 0.527,3.96 0.343,0.441 0.331,0.506 -0.051,0.276 -0.348,-0.209 -0.5,0.011 -0.5,0.723 0,0.563 0.163,1.024 0.363,1.024 0.199,0 0.273,0.34 0.165,0.755 -0.109,0.415 0.029,0.895 0.305,1.065 0.356,0.22 0.427,0.114 0.244,-0.364 -0.318,-0.828 1.118,-0.199 1.458,0.639 0.16,0.396 0.286,0.388 0.585,-0.038 0.617,-0.881 0.879,0.039 0.913,3.206 0.045,4.284 1.234,6.53 2.447,4.622 0.238,-0.375 0.309,-0.372 0.314,0.015 0.003,0.275 0.276,0.5 0.606,0.5 0.619,0 0.803,1.441 0.65,5.1 -0.042,1 0.107,1.7 0.363,1.7 0.239,0 0.335,0.161 0.213,0.358 -0.317,0.513 0.707,0.818 2.142,0.636 1.23,-0.156 1.642,1.182 1.262,4.106 -0.036,0.275 0.111,0.5 0.326,0.5 0.215,0 0.306,0.468 0.202,1.041 -0.251,1.388 0.411,2.095 1.869,1.994 1.292,-0.089 1.491,0.26 1.69,2.961 0.099,1.348 0.163,1.4 1.88,1.52 2.223,0.156 2.047,-0.14 2.047,3.44 0,1.674 0.165,3.044 0.366,3.044 0.201,0 0.261,0.27 0.135,0.6 -0.127,0.33 -0.045,0.6 0.183,0.6 0.227,0 0.496,-0.315 0.596,-0.7 0.146,-0.557 0.193,-0.526 0.23,0.15 0.034,0.632 0.307,0.85 1.063,0.85 1.319,0 1.512,0.23 1.469,1.748 -0.045,1.577 0.536,2.154 2.293,2.279 1.691,0.12 1.57,-0.018 1.657,1.888 0.127,2.801 0.372,3.476 1.053,2.911 0.485,-0.402 0.692,-0.367 1.094,0.183 0.273,0.373 0.642,0.546 0.821,0.385 0.178,-0.162 0.202,-0.08 0.052,0.181 -0.15,0.262 0.021,0.64 0.379,0.841 0.598,0.334 0.598,0.386 0.009,0.612 -0.354,0.136 -0.644,0.062 -0.644,-0.164 0,-0.226 -0.178,-0.301 -0.395,-0.167 -0.236,0.146 -0.289,-0.035 -0.131,-0.446 0.209,-0.544 0.111,-0.631 -0.461,-0.411 -0.639,0.245 -0.662,0.193 -0.191,-0.431 0.509,-0.676 0.499,-0.677 -0.23,-0.009 -0.989,0.907 -0.047,2.033 1.701,2.033 1.055,0 1.12,0.093 0.969,1.388 -0.095,0.813 -0.005,1.291 0.217,1.153 0.209,-0.129 0.367,0.162 0.351,0.646 -0.023,0.657 0.193,0.873 0.85,0.85 0.484,-0.016 0.789,0.119 0.677,0.3 -0.113,0.182 0.076,0.33 0.419,0.33 0.343,0 0.624,-0.187 0.624,-0.416 0,-0.255 0.198,-0.23 0.512,0.063 0.293,0.273 0.446,1.052 0.357,1.816 -0.128,1.091 -0.02,1.338 0.587,1.343 0.56,0.005 0.612,0.09 0.21,0.344 -0.421,0.268 -0.386,0.395 0.168,0.608 0.405,0.155 0.84,0.052 1.028,-0.244 0.259,-0.409 0.327,-0.403 0.332,0.033 0.004,0.348 0.296,0.471 0.806,0.337 0.831,-0.217 0.97,0.138 0.81,2.061 -0.046,0.552 0.09,0.841 0.327,0.694 0.223,-0.138 0.521,0.114 0.662,0.559 0.186,0.583 0.561,0.787 1.341,0.728 1.57,-0.12 1.971,0.283 1.802,1.812 -0.183,1.664 0.494,2.312 2.206,2.113 1.454,-0.17 1.845,0.254 1.722,1.866 -0.049,0.638 0.08,1.037 0.293,0.906 0.209,-0.129 0.498,0.139 0.643,0.595 0.171,0.539 0.567,0.806 1.129,0.762 1.952,-0.154 2.133,-0.033 1.967,1.32 -0.118,0.969 -0.055,1.15 0.248,0.711 0.348,-0.503 0.447,-0.483 0.687,0.141 0.171,0.445 0.062,0.884 -0.279,1.126 -0.438,0.312 -0.407,0.349 0.142,0.172 0.406,-0.13 0.703,-0.02 0.706,0.263 0.004,0.308 0.149,0.266 0.394,-0.113 0.303,-0.468 0.389,-0.48 0.394,-0.053 0.004,0.348 0.296,0.471 0.806,0.337 0.659,-0.172 0.8,-0.012 0.8,0.911 0,0.69 0.264,1.221 0.689,1.384 0.59,0.226 0.604,0.317 0.1,0.636 -0.629,0.398 -0.114,0.579 1.151,0.406 0.297,-0.041 0.422,0.118 0.277,0.352 -0.146,0.235 -0.089,0.427 0.126,0.427 0.215,0 0.481,-0.225 0.592,-0.5 0.161,-0.4 0.208,-0.4 0.233,0 0.019,0.294 0.582,0.5 1.365,0.5 0.734,0 1.469,0.135 1.634,0.3 0.165,0.165 0.51,0.308 0.766,0.318 0.257,0.01 0.42,0.24 0.363,0.511 -0.057,0.271 0.183,0.603 0.534,0.738 0.512,0.196 0.533,0.311 0.104,0.583 -0.702,0.444 -1.238,0.442 -0.962,-0.005 0.121,-0.195 -0.049,-0.577 -0.376,-0.849 C 72.268,359.324 72,359.248 72,359.427 c 0,0.179 -0.264,-0.023 -0.587,-0.451 -0.356,-0.469 -0.593,-0.571 -0.6,-0.258 -0.023,0.909 1.967,2.58 2.81,2.36 0.445,-0.116 0.777,-0.002 0.777,0.269 0,0.275 0.684,0.499 1.641,0.536 1.986,0.079 2.091,0.169 2.045,1.765 -0.04,1.43 0.604,2.264 1.739,2.251 1.984,-0.023 2.175,0.091 2.175,1.301 0,0.66 0.174,1.2 0.387,1.2 0.214,0 0.272,0.301 0.131,0.669 -0.195,0.508 -0.095,0.608 0.413,0.413 0.368,-0.141 0.669,-0.095 0.669,0.103 0,0.198 1.362,0.355 3.027,0.348 3.455,-0.013 3.508,0.013 3.459,1.715 -0.041,1.457 0.675,2.347 1.758,2.184 1.597,-0.241 2.906,0.551 2.709,1.637 -0.246,1.358 0.425,2.067 1.862,1.967 0.652,-0.045 1.185,0.051 1.185,0.213 0,0.162 0.495,0.285 1.1,0.273 3.442,-0.071 3.573,-0.018 3.402,1.378 -0.118,0.969 -0.055,1.15 0.248,0.711 0.348,-0.503 0.447,-0.483 0.687,0.141 0.171,0.445 0.062,0.884 -0.279,1.126 -0.438,0.312 -0.407,0.349 0.142,0.172 0.406,-0.13 0.703,-0.02 0.706,0.263 0.004,0.308 0.149,0.266 0.394,-0.113 0.228,-0.352 0.39,-0.405 0.394,-0.128 0.004,0.282 0.609,0.461 1.506,0.445 3.743,-0.064 4.1,0.026 4.1,1.04 0,0.537 0.303,1.074 0.689,1.222 0.59,0.226 0.604,0.317 0.1,0.636 -0.629,0.398 -0.114,0.579 1.151,0.406 0.297,-0.041 0.422,0.118 0.277,0.352 -0.146,0.235 -0.074,0.427 0.159,0.427 0.233,0 0.427,-0.225 0.43,-0.5 0.005,-0.374 0.092,-0.365 0.345,0.034 0.186,0.294 0.679,0.499 1.094,0.454 2.448,-0.261 3.755,0.022 3.755,0.812 0,0.44 0.163,0.8 0.363,0.8 0.199,0 0.273,0.34 0.165,0.755 -0.109,0.415 0.029,0.895 0.305,1.065 0.354,0.219 0.427,0.114 0.248,-0.354 -0.141,-0.366 -0.071,-0.666 0.155,-0.666 0.226,0 0.283,-0.208 0.126,-0.462 -0.171,-0.277 -0.111,-0.353 0.152,-0.191 0.24,0.148 0.37,0.616 0.289,1.038 -0.109,0.568 0.019,0.705 0.49,0.524 0.424,-0.163 0.541,-0.088 0.349,0.223 -0.174,0.281 -0.04,0.468 0.334,0.468 0.343,0 0.627,-0.225 0.63,-0.5 0.004,-0.352 0.093,-0.368 0.3,-0.053 0.176,0.267 1.817,0.479 4.074,0.526 4.425,0.092 4.336,0.058 4.117,1.545 -0.202,1.376 0.985,2.911 1.555,2.012 0.235,-0.37 0.338,-0.385 0.342,-0.05 0.004,0.303 0.634,0.467 1.706,0.445 6.938,-0.146 8.3,0.027 8.3,1.055 0,0.539 0.315,1.164 0.7,1.388 0.554,0.323 0.575,0.413 0.1,0.432 -1.083,0.044 0.847,0.915 2.278,1.029 0.864,0.068 1.236,-0.045 1.063,-0.324 -0.176,-0.285 -0.076,-0.307 0.297,-0.067 0.659,0.425 1.121,0.459 7.062,0.517 l 4.5,0.045 0.047,1.1 0.048,1.1 0.305,-1.2 0.305,-1.2 0.048,1.1 0.047,1.1 h 41.2 41.2 v -1 -1 l 5.3,-0.035 c 2.915,-0.02 6.335,-0.044 7.6,-0.055 1.265,-0.01 2.3,-0.185 2.3,-0.388 0,-0.203 0.168,-0.266 0.372,-0.139 0.205,0.126 0.477,0.061 0.605,-0.146 0.128,-0.207 -0.084,-0.459 -0.472,-0.56 -0.591,-0.154 -0.574,-0.192 0.108,-0.231 0.578,-0.033 0.838,-0.354 0.901,-1.114 0.117,-1.42 -0.333,-1.309 5.612,-1.379 2.908,-0.034 5.274,-0.228 5.274,-0.431 0,-0.203 0.175,-0.261 0.388,-0.129 0.469,0.29 0.99,-1.553 0.673,-2.379 -0.342,-0.89 0.027,-0.969 5.071,-1.081 2.567,-0.057 4.668,-0.256 4.668,-0.442 0,-0.186 0.164,-0.237 0.364,-0.113 0.546,0.337 1.636,-0.19 1.636,-0.791 0,-0.291 -0.315,-0.611 -0.7,-0.711 -0.503,-0.132 -0.435,-0.196 0.243,-0.23 0.675,-0.033 0.876,-0.221 0.707,-0.661 -0.313,-0.814 0.152,-0.94 4.032,-1.089 3.781,-0.146 3.715,-0.108 4.004,-2.263 l 0.219,-1.633 2.248,-0.042 c 1.236,-0.024 2.742,-0.01 3.347,0.03 0.605,0.04 1.1,-0.132 1.1,-0.381 0,-0.25 0.175,-0.346 0.388,-0.214 0.469,0.29 0.99,-1.553 0.673,-2.379 -0.302,-0.786 0.05,-0.952 2.265,-1.066 1.317,-0.069 1.874,-0.268 1.874,-0.672 0,-0.44 0.127,-0.468 0.548,-0.119 1.609,1.335 3.944,-1 2.609,-2.609 -0.37,-0.446 -0.184,-0.557 0.994,-0.598 3.539,-0.122 3.548,-0.127 3.72,-2.221 0.15,-1.831 -0.166,-1.669 3.439,-1.764 1.699,-0.045 3.09,-0.236 3.09,-0.423 0,-0.188 0.225,-0.297 0.5,-0.242 0.275,0.055 0.455,-0.125 0.4,-0.4 -0.055,-0.275 0.08,-0.5 0.3,-0.5 0.22,0 0.379,-0.135 0.353,-0.3 -0.266,-1.685 0.066,-2.057 1.947,-2.178 l 1.9,-0.122 0.122,-1.9 0.122,-1.9 1.678,-0.047 c 0.923,-0.026 1.813,-0.026 1.978,0 0.165,0.026 0.3,-0.127 0.3,-0.34 0,-0.214 0.315,-0.289 0.7,-0.168 0.667,0.21 0.667,0.193 0,-0.356 -0.811,-0.668 -0.913,-1.133 -0.218,-0.989 0.265,0.055 0.49,-0.17 0.5,-0.5 0.01,-0.33 0.288,-0.608 0.618,-0.618 0.33,-0.01 0.555,-0.235 0.5,-0.5 -0.144,-0.695 0.321,-0.593 0.989,0.218 0.549,0.667 0.566,0.667 0.356,0 -0.137,-0.436 -0.011,-0.7 0.334,-0.7 0.305,0 0.645,-0.225 0.756,-0.5 0.161,-0.4 0.208,-0.4 0.233,0 0.018,0.275 0.313,0.5 0.656,0.5 0.343,0 0.532,-0.148 0.419,-0.33 -0.112,-0.181 0.193,-0.316 0.677,-0.3 0.657,0.023 0.873,-0.193 0.85,-0.85 -0.016,-0.484 0.119,-0.789 0.3,-0.677 0.182,0.113 0.33,-0.076 0.33,-0.419 0,-0.343 -0.193,-0.624 -0.429,-0.624 -0.253,0 -0.212,-0.216 0.102,-0.53 0.291,-0.291 1.119,-0.489 1.839,-0.439 1.714,0.119 2.461,-0.672 2.298,-2.43 -0.129,-1.383 0.346,-1.73 1.953,-1.427 0.2,0.037 0.512,-0.166 0.694,-0.453 0.267,-0.42 0.332,-0.415 0.337,0.028 0.005,0.45 0.118,0.456 0.625,0.035 0.494,-0.41 0.514,-0.58 0.1,-0.843 -0.419,-0.265 -0.414,-0.33 0.024,-0.335 0.298,-0.003 0.457,-0.231 0.352,-0.506 -0.449,-1.18 0.404,-2.207 1.707,-2.055 1.629,0.19 2.433,-0.614 2.243,-2.243 -0.152,-1.303 0.875,-2.156 2.055,-1.707 0.275,0.105 0.503,-0.054 0.506,-0.352 0.005,-0.438 0.07,-0.443 0.335,-0.024 0.263,0.414 0.433,0.394 0.843,-0.1 0.421,-0.507 0.415,-0.62 -0.035,-0.625 -0.443,-0.005 -0.448,-0.07 -0.028,-0.337 0.287,-0.182 0.49,-0.494 0.453,-0.694 -0.218,-1.157 0.075,-2.119 0.585,-1.923 0.734,0.281 3.562,-2.547 3.281,-3.281 -0.124,-0.322 0.034,-0.559 0.373,-0.559 0.323,0 0.59,-0.225 0.593,-0.5 0.004,-0.334 0.137,-0.301 0.4,0.1 0.35,0.533 0.438,0.533 0.788,0 0.217,-0.33 0.397,-0.443 0.4,-0.251 0.003,0.192 0.274,0.127 0.602,-0.145 0.327,-0.272 0.506,-0.639 0.397,-0.815 -0.109,-0.176 0.028,-0.412 0.305,-0.524 0.38,-0.155 0.356,-0.307 -0.098,-0.628 -0.407,-0.288 -0.439,-0.427 -0.1,-0.431 0.275,-0.003 0.5,-0.276 0.5,-0.606 0,-0.33 0.202,-0.6 0.449,-0.6 0.292,0 0.257,-0.233 -0.1,-0.664 -0.5,-0.606 -0.472,-0.617 0.319,-0.124 1.578,0.983 2.823,-0.806 3.209,-4.612 0.246,-2.428 0.099,-2.271 2.198,-2.342 1.869,-0.063 1.743,0.16 1.888,-3.345 0.025,-0.588 0.226,-0.815 0.596,-0.673 0.896,0.344 3.391,-2.42 3.364,-3.726 -0.087,-4.084 -0.099,-4.059 1.977,-4.192 l 1.9,-0.122 0.125,-1.744 c 0.142,-1.979 0.725,-2.82 1.765,-2.548 1.034,0.27 2.006,-0.694 1.798,-1.784 -0.098,-0.508 -0.022,-0.924 0.167,-0.924 0.19,0 0.345,-1.164 0.345,-2.587 0,-2.053 0.116,-2.543 0.559,-2.373 0.804,0.308 3.413,-2.431 3.366,-3.535 -0.122,-2.88 0.102,-4.305 0.675,-4.305 0.33,0 0.603,-0.225 0.606,-0.5 0.005,-0.387 0.076,-0.39 0.314,-0.015 0.17,0.267 0.691,0.385 1.157,0.263 0.978,-0.256 1.527,-1.771 0.808,-2.228 -0.324,-0.205 -0.336,-0.31 -0.037,-0.314 0.274,-0.004 0.469,-0.95 0.503,-2.449 0.062,-2.765 0.228,-3.217 1.062,-2.897 0.323,0.124 0.587,0.057 0.587,-0.149 0,-0.206 0.405,-0.36 0.9,-0.343 0.685,0.024 0.892,-0.183 0.868,-0.868 -0.017,-0.495 0.087,-0.9 0.232,-0.9 0.145,0 0.303,-2.102 0.352,-4.672 0.103,-5.396 0.057,-5.247 1.566,-5.025 2.108,0.309 2.409,-0.473 2.457,-6.379 0.042,-5.296 0.28,-6.189 1.525,-5.732 0.276,0.101 0.503,-0.125 0.506,-0.505 0.004,-0.44 0.112,-0.523 0.3,-0.231 0.215,0.333 0.426,0.314 0.782,-0.071 0.385,-0.414 0.385,-0.568 0,-0.724 -0.295,-0.12 -0.229,-0.21 0.168,-0.229 0.36,-0.018 0.647,-0.257 0.637,-0.532 -0.011,-0.275 0.009,-3.515 0.044,-7.2 L 398,241.6 h 1 1 v -41.4 -41.4 l -1.1,-0.047 -1.1,-0.048 1.2,-0.305 1.2,-0.305 -1.1,-0.048 -1.1,-0.047 -0.047,-5.9 c -0.026,-3.245 -0.015,-6.142 0.026,-6.437 0.04,-0.295 -0.254,-0.791 -0.653,-1.101 -0.698,-0.542 -0.697,-0.554 0.02,-0.302 0.637,0.223 0.703,0.121 0.45,-0.699 -0.388,-1.262 -0.289,-1.196 -2.163,-1.447 l -1.633,-0.219 -0.051,-3.248 c -0.027,-1.786 -0.061,-3.967 -0.075,-4.847 -0.015,-0.944 -0.281,-1.805 -0.65,-2.101 -0.552,-0.443 -0.543,-0.473 0.081,-0.255 0.531,0.185 0.643,0.086 0.455,-0.403 -0.26,-0.677 -1.867,-1.269 -2.456,-0.905 -0.899,0.555 -1.256,-0.556 -1.331,-4.143 -0.047,-2.266 -0.259,-3.911 -0.526,-4.087 -0.315,-0.207 -0.299,-0.296 0.053,-0.3 0.275,-0.003 0.5,-0.287 0.5,-0.63 0,-0.374 -0.187,-0.508 -0.468,-0.334 -0.311,0.192 -0.386,0.075 -0.223,-0.349 0.181,-0.471 0.044,-0.599 -0.524,-0.49 -0.422,0.081 -0.89,-0.049 -1.038,-0.289 -0.162,-0.263 -0.086,-0.323 0.191,-0.152 0.254,0.157 0.462,0.1 0.462,-0.126 0,-0.226 0.3,-0.296 0.666,-0.155 0.468,0.179 0.573,0.106 0.354,-0.248 -0.17,-0.276 -0.65,-0.414 -1.065,-0.305 -0.415,0.108 -0.755,0.034 -0.755,-0.165 0,-0.2 -0.36,-0.363 -0.8,-0.363 -0.854,0 -0.943,-0.497 -0.806,-4.5 0.038,-1.094 -0.112,-1.9 -0.352,-1.9 -0.229,0 -0.301,-0.301 -0.16,-0.669 0.195,-0.508 0.095,-0.608 -0.413,-0.413 -0.368,0.141 -0.669,0.083 -0.669,-0.131 0,-0.213 -0.54,-0.387 -1.2,-0.387 -1.137,0 -1.203,-0.09 -1.255,-1.7 -0.068,-2.143 -0.205,-4.741 -0.284,-5.424 -0.034,-0.288 -0.241,-0.412 -0.461,-0.276 -0.22,0.136 -0.4,0.033 -0.4,-0.229 0,-0.32 -0.457,-0.401 -1.4,-0.248 l -1.4,0.227 -0.046,-1.875 c -0.025,-1.031 -0.014,-2.19 0.025,-2.575 0.039,-0.385 -0.103,-0.7 -0.316,-0.7 -0.214,0 -0.294,-0.361 -0.178,-0.802 0.115,-0.441 -0.014,-1.071 -0.287,-1.4 -0.55,-0.664 -1.388,-0.83 -0.998,-0.198 0.136,0.22 0.057,0.4 -0.176,0.4 -0.233,0 -0.424,-0.21 -0.424,-0.467 0,-0.256 -0.111,-0.355 -0.248,-0.219 -0.524,0.524 -1.323,-0.899 -1.439,-2.564 l -0.122,-1.741 -1.782,-0.125 c -2.205,-0.154 -2.011,0.125 -2.104,-3.026 -0.045,-1.505 -0.258,-2.661 -0.492,-2.664 -0.227,-0.003 -0.143,-0.181 0.187,-0.394 0.379,-0.245 0.421,-0.39 0.113,-0.394 -0.283,-0.003 -0.393,-0.3 -0.263,-0.706 0.177,-0.549 0.14,-0.58 -0.172,-0.142 -0.242,0.341 -0.681,0.45 -1.126,0.279 -0.624,-0.24 -0.644,-0.339 -0.141,-0.687 0.439,-0.303 0.258,-0.366 -0.711,-0.248 -1.39,0.17 -1.325,0.292 -1.45,-2.702 -0.047,-1.13 -0.15,-1.203 -1.775,-1.258 -2.133,-0.072 -2.094,-0.029 -2.14,-2.329 -0.022,-1.078 -0.172,-1.677 -0.349,-1.391 -0.179,0.29 -0.293,-0.119 -0.269,-0.966 0.058,-2.05 -1.019,-3.152 -2.017,-2.064 -0.668,0.729 -0.667,0.739 0.009,0.23 0.624,-0.471 0.676,-0.448 0.431,0.191 -0.22,0.572 -0.133,0.67 0.411,0.461 0.411,-0.158 0.592,-0.105 0.446,0.131 -0.134,0.217 -0.07,0.395 0.142,0.395 0.212,0 0.284,0.392 0.158,0.871 l -0.227,0.87 -0.332,-0.896 c -0.209,-0.566 -0.517,-0.789 -0.835,-0.607 -0.276,0.16 -0.371,0.144 -0.209,-0.034 0.161,-0.179 -0.012,-0.548 -0.385,-0.821 -0.574,-0.42 -0.596,-0.596 -0.145,-1.14 0.453,-0.546 0.436,-0.643 -0.115,-0.643 -0.357,0 -0.649,-0.27 -0.649,-0.6 0,-0.33 -0.225,-0.603 -0.5,-0.606 -0.334,-0.004 -0.301,-0.137 0.1,-0.4 0.492,-0.323 0.503,-0.456 0.066,-0.739 -0.294,-0.189 -0.519,-0.459 -0.5,-0.6 0.129,-0.969 -0.003,-1.122 -0.566,-0.655 -0.49,0.406 -0.6,0.383 -0.6,-0.124 0,-0.382 -0.426,-0.672 -1.1,-0.749 -0.883,-0.102 -1.075,-0.305 -0.975,-1.027 0.075,-0.538 -0.086,-0.902 -0.4,-0.906 -0.43,-0.005 -0.429,-0.067 0.005,-0.342 1.002,-0.635 -0.646,-1.736 -2.311,-1.544 l -1.464,0.169 0.126,-1.593 c 0.157,-1.982 -0.386,-2.671 -2.056,-2.608 -1.782,0.067 -2.146,-0.252 -1.974,-1.728 0.199,-1.712 -0.449,-2.389 -2.113,-2.206 -1.545,0.171 -1.871,-0.161 -1.822,-1.853 0.038,-1.359 -0.774,-2.375 -1.813,-2.269 -1.984,0.203 -2.561,-0.008 -2.297,-0.839 0.147,-0.463 0.028,-1.105 -0.273,-1.477 -0.373,-0.46 -0.384,-0.568 -0.038,-0.36 0.338,0.202 0.419,0.098 0.256,-0.327 -0.265,-0.692 -1.849,-1.219 -2.691,-0.895 -0.298,0.114 -0.837,-0.136 -1.197,-0.557 -0.36,-0.421 -0.477,-0.765 -0.259,-0.765 0.218,0 0.396,-0.191 0.396,-0.424 0,-0.233 -0.211,-0.293 -0.468,-0.134 -0.305,0.188 -0.387,0.079 -0.237,-0.313 0.127,-0.331 0.07,-0.855 -0.126,-1.165 -0.301,-0.476 -0.36,-0.471 -0.376,0.036 -0.014,0.468 -0.143,0.436 -0.585,-0.148 -0.394,-0.52 -0.92,-0.697 -1.721,-0.579 -1.041,0.152 -1.154,0.058 -1.154,-0.971 0,-1.755 -1.124,-2.701 -2.033,-1.71 -0.668,0.729 -0.667,0.739 0.009,0.23 0.624,-0.471 0.676,-0.448 0.431,0.191 -0.22,0.572 -0.133,0.67 0.411,0.461 0.411,-0.158 0.592,-0.105 0.446,0.131 -0.134,0.217 -0.059,0.395 0.167,0.395 0.226,0 0.3,0.29 0.164,0.644 -0.226,0.589 -0.278,0.589 -0.612,-0.009 -0.201,-0.358 -0.579,-0.529 -0.841,-0.379 -0.261,0.15 -0.343,0.126 -0.181,-0.052 0.161,-0.179 -0.012,-0.548 -0.385,-0.821 -0.562,-0.411 -0.59,-0.603 -0.165,-1.116 0.549,-0.661 -0.215,-0.913 -3.518,-1.163 -1.341,-0.102 -1.374,-0.146 -1.4,-1.904 -0.027,-1.902 0.023,-1.863 -2.526,-1.954 -1.168,-0.041 -1.3,-0.168 -1.3,-1.246 0,-0.66 -0.174,-1.2 -0.387,-1.2 -0.214,0 -0.272,-0.301 -0.131,-0.669 0.195,-0.508 0.095,-0.608 -0.413,-0.413 -0.368,0.141 -0.669,0.083 -0.669,-0.131 0,-0.213 -0.956,-0.387 -2.125,-0.387 -2.242,0 -4.458,-1.531 -4.47,-3.087 -0.003,-0.354 -0.255,-0.728 -0.561,-0.83 -0.37,-0.125 -0.45,-0.016 -0.238,0.327 0.229,0.37 0.161,0.415 -0.244,0.162 -0.309,-0.193 -1.012,-0.412 -1.562,-0.486 -0.55,-0.075 -1.06,-0.305 -1.134,-0.513 -0.074,-0.208 -0.318,-0.264 -0.543,-0.125 -0.258,0.159 -0.309,-0.062 -0.139,-0.598 0.246,-0.776 -0.031,-1.026 -1.017,-0.92 -0.129,0.014 -0.234,-0.225 -0.234,-0.531 0,-0.439 0.176,-0.462 0.834,-0.112 0.762,0.406 0.784,0.385 0.257,-0.254 -0.352,-0.426 -0.934,-0.629 -1.5,-0.521 -0.508,0.098 -0.924,0.046 -0.924,-0.115 0,-0.16 -1.006,-0.315 -2.236,-0.343 -2.655,-0.062 -2.955,-0.202 -2.68,-1.254 0.134,-0.51 0.011,-0.802 -0.337,-0.806 -0.449,-0.005 -0.452,-0.066 -0.017,-0.342 1.279,-0.811 -0.61,-1.575 -3.985,-1.612 -3.678,-0.039 -3.645,-0.026 -3.645,-1.423 0,-0.559 -0.152,-1.017 -0.337,-1.017 -0.186,0 -0.234,-0.272 -0.106,-0.605 0.166,-0.432 0.049,-0.534 -0.412,-0.357 -0.355,0.136 -0.645,0.048 -0.645,-0.195 0,-0.289 -1.175,-0.443 -3.376,-0.443 -1.857,0 -3.488,-0.18 -3.624,-0.4 -0.136,-0.22 -0.057,-0.4 0.176,-0.4 0.728,0 0.463,-0.798 -0.276,-0.832 -0.452,-0.02 -0.515,-0.105 -0.179,-0.24 0.391,-0.156 0.341,-0.349 -0.2,-0.769 -0.687,-0.534 -0.685,-0.548 0.045,-0.292 0.554,0.195 0.679,0.13 0.454,-0.234 -0.17,-0.276 -0.65,-0.414 -1.065,-0.305 -0.415,0.108 -0.755,0.034 -0.755,-0.165 0,-0.2 -0.461,-0.363 -1.024,-0.363 -0.712,0 -0.932,0.152 -0.723,0.5 0.23,0.382 0.165,0.394 -0.276,0.051 -0.317,-0.246 -2.099,-0.484 -3.96,-0.527 -3.806,-0.089 -4.143,-0.196 -3.821,-1.21 0.139,-0.439 -0.01,-0.811 -0.384,-0.954 -0.337,-0.129 -0.612,-0.613 -0.612,-1.076 0,-0.627 -0.229,-0.823 -0.9,-0.768 -0.495,0.04 -2.925,0.053 -5.4,0.028 L 258,6 V 4.8 c 0,-0.864 -0.196,-1.209 -0.7,-1.232 -0.418,-0.018 -0.499,-0.112 -0.2,-0.233 0.275,-0.111 0.5,-0.386 0.5,-0.611 0,-0.225 -0.27,-0.306 -0.6,-0.179 -0.33,0.126 -0.6,0.056 -0.6,-0.158 C 256.4,2.152 253.578,2 249.2,2 H 242 V 1 0 H 200 158 V 1 M 95.029,23.029 c -0.346,0.345 -0.618,0.93 -0.604,1.3 0.018,0.475 0.132,0.406 0.391,-0.238 0.201,-0.501 0.774,-1.074 1.275,-1.275 0.644,-0.259 0.713,-0.373 0.238,-0.391 -0.37,-0.014 -0.955,0.258 -1.3,0.604 M 40.542,72.464 c -0.339,0.375 -0.871,0.585 -1.18,0.466 -0.441,-0.169 -0.37,-0.417 0.331,-1.145 1.044,-1.085 1.857,-0.435 0.849,0.679 M 24.206,95.21 c 0.139,0.225 0.015,0.36 -0.276,0.3 -0.292,-0.061 -0.472,0.16 -0.401,0.49 0.098,0.458 0.016,0.49 -0.346,0.135 C 22.699,95.659 22.966,94.8 23.6,94.8 c 0.194,0 0.467,0.184 0.606,0.41 m 303.198,264.939 c 0.076,1.036 0.733,1.25 1.393,0.455 0.584,-0.704 0.326,-1.129 -0.733,-1.207 -0.489,-0.036 -0.701,0.205 -0.66,0.752"
       fill="#6f3392"
       fill-rule="evenodd"
       id="path58226"
       style="display:inline;fill:#ff9955;fill-opacity:1"
       sodipodi:nodetypes="ccccsccsscsccsssccsscccccccsssccsscccccscccscccccccccccccccccscsccccssccssccccccccccccccccccssccssscccscccscssscccccccsssccssccscscscccccccccccssccccscccccccssccccccccscscscsccccsscsccscccccccccscccccscccccssccccccsccccccccccccccccccccsccccsccssssccccscccscccssccscccccsccccccccscsccccscccsscccsccsscscccccccscccccccccccccccccccscscsccsccsscsccccsccsscccscscccssssccccccssccssscccsccsccccsssscccsccccssccccsccccscccscscccssccccccccccccssccsccscccssccsccccccccccccccccccccccccccccccscccccccscssccscccsscsccssccsscccsscccsscccccccccccccccccccccccscccccccsscccccscccccccccccccccccsssccscccscccccscccccccccssccsscccscscccscccscccccssscssssccccccsscccccscccsccscssccccccccccccccccccccscccsc" />
    <path
       d="M 312.83609,154.38843 C 304.68139,140.5514 289.96332,124.19876 278.92306,116.73216 260.05366,103.97081 226.1213,91.171335 204.02428,88.464483 197.60263,88.112186 191.3557,87.47531 185.07634,87.296029 l -4.86391,-28.761112 -15.42494,2.038098 5.06083,27.564784 c -4.06995,0.660206 -8.22185,1.754666 -12.50295,3.454696 l -15.38112,-31.224937 -12.98389,5.922515 16.81991,33.068962 c -1.57823,2.006245 -3.3329,4.345985 -5.01244,6.206515 -11.47566,12.71412 -13.58547,30.73833 -5.3972,45.9692 8.51155,15.83189 7.08129,26.75035 -3.94929,30.14984 -4.67153,1.43937 -6.72842,1.05406 -17.03904,-2.99824 -6.44953,-2.5344 -14.04817,-4.58844 -16.87398,-4.57023 -7.983953,0.0517 -15.682188,4.85708 -19.872231,12.36636 -3.145086,5.63566 -3.687481,8.13649 -3.722199,17.90812 -0.04496,12.49271 1.478637,16.88537 11.642404,34.09913 10.324842,17.48694 25.599536,33.1828 43.219096,44.39721 12.11367,7.71077 34.39508,15.86318 47.66467,17.59794 7.93843,1.03755 18.41296,2.54407 32.79807,2.31584 l 5.72844,31.20275 c 0.65223,5.0005 11.81201,3.61521 11.62021,-1.12861 l -5.18377,-30.65296 c 6.76485,-0.52817 14.24055,-1.44107 22.53242,-2.89523 1.05519,-0.24587 2.10982,-0.51508 3.1633,-0.79566 l 8.17689,16.08515 c 2.07566,4.61005 11.48135,0.41035 9.88887,-4.0728 l -7.56164,-15.35722 c 20.2786,-7.51611 39.00628,-20.47267 50.00272,-33.08036 13.43748,-15.40616 15.7966,-22.27231 19.14885,-38.81391 4.08303,-20.15339 -1.52132,-47.83599 -13.93833,-68.90344 z m -84.4109,-20.34804 c 3.09444,-3.5469 7.15585,-8.74831 9.03688,-11.55931 2.63456,-3.93733 3.79391,-4.87983 7.36186,-4.9009 0.50996,-0.003 1.05521,0.0131 1.67443,0.0415 7.24179,0.33067 13.76931,2.82466 16.52225,6.30725 3.15648,3.99141 7.74491,24.15846 6.80355,29.9017 -0.74956,4.57534 -10.89456,17.22571 -13.81369,17.22571 -0.68468,0 -2.029,0.28799 -2.99882,0.64086 -0.96983,0.35345 -3.86222,-0.28287 -6.41084,-1.40579 -2.54806,-1.12349 -6.24124,-2.08705 -8.20934,-2.15079 -6.02324,-0.19408 -9.85701,-3.16102 -12.80005,-9.90539 -4.54461,-10.41648 -3.80643,-16.58372 2.83377,-24.19489 z m -55.18477,-27.42476 5.04716,27.49193 -12.47051,-25.3161 c 2.29878,-1.09901 4.79732,-1.84288 7.42335,-2.17583 z m 0.93055,48.51952 c -12.46198,-1.09844 -22.25694,-11.57581 -22.25694,-24.32065 0,-4.59869 1.27658,-8.89915 3.49226,-12.57126 z m -43.12234,83.43654 c -6.89177,5.73924 -9.01126,6.72102 -14.43349,6.72102 -6.50304,0 -11.64241,-3.58049 -11.64241,-8.10633 0,-1.12576 -1.54637,-5.36873 -3.43251,-9.42901 -2.997114,-6.45125 -3.24184,-8.05736 -2.005659,-12.78013 1.727919,-6.60093 7.793289,-13.54391 11.890549,-13.75108 0.13204,-0.007 0.24417,-0.008 0.37222,0 1.70403,0.10068 7.26911,0.36425 12.36637,0.57939 5.09669,0.21456 10.01522,0.95217 10.93894,1.61295 2.22764,1.59304 8.25088,15.27696 8.25088,18.75557 -0.001,4.33859 -3.59926,9.14785 -12.30489,16.39762 z m 63.93935,13.54448 c -1.45644,3.2686 -2.6653,6.98965 -2.68807,8.27137 -0.0233,1.28228 -1.56286,4.31354 -3.41202,6.72102 -2.94475,3.83319 -4.49965,4.45128 -12.51035,5.10751 -7.58897,0.62207 -9.2668,0.35172 -9.94693,-1.67443 -0.45077,-1.34318 -3.52869,-4.00108 -6.84452,-5.89348 -4.09158,-2.33464 -6.62769,-5.02442 -7.83711,-8.33342 -3.83433,-10.48874 -0.35687,-24.86475 6.26569,-25.9319 1.76549,-0.28401 4.12061,-1.45075 5.23158,-2.58449 1.11096,-1.1343 4.54404,-2.52017 7.61003,-3.08134 1.14682,-0.21002 2.12803,-0.32043 3.08134,-0.33068 2.85881,-0.0307 5.28906,0.94365 9.8018,3.55659 7.10918,4.11662 13.89622,12.03512 13.89622,16.19157 -0.001,1.12919 -1.19179,4.71308 -2.64766,7.98168 z m -6.08984,-142.22113 c 7.09211,4.26858 11.83819,12.04023 11.83819,20.91946 0,5.94186 -2.12688,11.39028 -5.65728,15.62755 z m 60.47497,154.93865 c -3.72733,0.91462 -8.91166,2.6727 -11.53883,3.92881 -10.79268,5.161 -19.17446,0.31018 -20.86482,-12.09716 -2.92312,-21.46413 -2.92825,-21.4021 2.99882,-28.18458 3.19233,-3.65391 5.22589,-5.45069 8.25088,-5.60437 0.16677,-0.009 0.32271,-0.0222 0.49629,-0.0205 2.59815,0.0216 5.97886,1.16618 11.29069,3.24639 3.27656,1.28343 7.72043,2.87646 9.9048,3.55659 3.07168,0.95729 4.79164,3.13086 7.54799,9.57414 6.5668,15.35437 4.2868,22.56371 -8.08582,25.60066 z m 57.13523,-65.36562 c -1.17186,4.15191 -2.4291,10.16776 -2.79166,13.39993 -1.49115,13.27813 -9.34989,19.16933 -19.58253,14.64066 -17.70323,-7.83484 -17.66167,-7.81492 -19.83126,-17.08059 -2.19916,-9.39542 -1.4166,-11.41816 8.20933,-21.03043 2.60953,-2.60554 6.0648,-6.2401 7.67207,-8.06478 1.83606,-2.08534 3.8218,-2.87189 7.85817,-2.8332 0.93113,0.009 1.97038,0.0735 3.14281,0.16563 14.90191,1.16732 19.21146,7.02096 15.32307,20.80278 z"
       fill="param(fill)"
       fill-opacity="param(fill-opacity)"
       stroke="param(outline)"
       stroke-opacity="param(outline-opacity)"
       stroke-width="0.569144"
       id="path59190"
       style="display:inline;fill:#fffeff;fill-opacity:1" />
  </g>
</svg>
