<svg id="e5NDw87qXEn1" xmlns="http://www.w3.org/2000/svg" xmlns:xlink="http://www.w3.org/1999/xlink" viewBox="0 0 400 400" shape-rendering="geometricPrecision" text-rendering="geometricPrecision"><g><path d="M181.2,76.463c-9.939.423-14.933,1.018-17.2,2.049-3.266,1.486-4.556,1.855-7.393,2.118-4.526.42-7.215,1.178-8.878,2.506-1.091.871-2.159,1.301-3.729,1.503-2.649.341-4.978,1.299-6.6,2.713-.66.576-1.404,1.047-1.654,1.048-1.227.001-4.84,1.411-5.549,2.165-1.279,1.36-2.705,2.235-3.643,2.235-.477,0-1.773.814-2.879,1.808-1.106.995-2.846,2.178-3.867,2.63-1.02.451-1.971,1.122-2.112,1.491-.388,1.019-1.36,1.878-2.749,2.43-.701.279-1.567,1.084-1.968,1.829-.394.731-1.309,1.612-2.033,1.957-.774.369-1.637,1.256-2.095,2.154-.428.84-1.257,1.783-1.842,2.096s-1.397,1.298-1.804,2.187c-.408.89-1.31,2.158-2.005,2.818-1.118,1.061-2.8,3.993-2.8,4.88c0,.179-.622.843-1.381,1.476-1.106.923-1.524,1.707-2.1,3.943-.458,1.779-1.163,3.318-1.944,4.246-1.203,1.429-1.558,2.573-2.56,8.24-.232,1.312-.942,3.383-1.576,4.602-2.82,5.418-2.918,31.995-.14,38.013c1.143,2.475,1.611,4.188,1.916,7c.367,3.391,1.101,5.725,2.493,7.919.662,1.044,1.327,2.72,1.477,3.723.403,2.682,1.23,4.771,2.56,6.46.679.865,1.364,2.399,1.619,3.629.525,2.538.825,3.144,2.376,4.805.69.739,1.379,2.093,1.66,3.263.32,1.333.939,2.46,1.855,3.376.862.862,1.728,2.382,2.317,4.066.648,1.854,1.239,2.847,1.9,3.193.527.277,1.199,1.012,1.492,1.635c1.188,2.521,1.641,3.225,3.008,4.674.785.833,1.428,1.851,1.428,2.262s.18.859.4.995.407.552.415.924c.009.372.594,1.037,1.3,1.478.729.454,1.441,1.328,1.645,2.018.198.67,1.052,1.737,1.902,2.377.848.638,1.919,1.938,2.379,2.888.46.951,1.142,1.892,1.515,2.091.373.2,1.571,1.635,2.661,3.19c1.091,1.555,2.287,2.927,2.658,3.05.372.122,1.177,1.014,1.789,1.982s1.489,1.854,1.948,1.969c.475.12,1.214.97,1.716,1.975.573,1.146,1.308,1.942,2.098,2.269.683.283,1.602,1.179,2.095,2.043.483.847,1.131,1.541,1.439,1.543s1.517.948,2.686,2.103c1.17,1.155,2.732,2.586,3.471,3.179c2.57,2.062,3.515,3.914,3.768,7.383.231,3.169,1.156,5.338,2.276,5.338.279,0,.988.54,1.576,1.2l1.069,1.2h6.378c6.895,0,7.904.225,8.948,1.993.917,1.553-.074,6.304-1.767,8.47-3.565,4.561-2.851,6.337,2.549,6.337c4.171,0,5.886-.778,5.886-2.668c0-1.319,1.298-4.109,2.017-4.337.521-.166.918-1.119,1.45-3.48c1.351-5.996,2.23-6.317,17.239-6.309c14.573.008,15.462.315,16.672,5.752.392,1.764.971,3.234,1.442,3.66c1.042.943,1.941,2.797,2.229,4.597.35,2.19,1.653,2.785,6.099,2.785c3.074,0,3.682-.109,4.007-.716.529-.988-.23-4.349-1.125-4.984-1.154-.819-2.83-5.325-2.83-7.611c0-.902,1.88-3.043,2.731-3.11.148-.012,2.616-.162,5.483-.333c4.836-.289,5.287-.384,6.2-1.317c1.832-1.868,2.786-3.491,2.786-4.736c0-5.004,2.523-10.393,4.865-10.393.515,0,1.535-1.031,1.535-1.551c0-.581,2.546-2.449,3.338-2.449.364,0,.662-.208.662-.462c0-.827,1.945-3.037,2.884-3.278.515-.132,1.266-.896,1.716-1.747.44-.832,1.355-1.781,2.032-2.108.711-.343,1.549-1.246,1.98-2.131.41-.844,1.234-1.787,1.829-2.095s1.482-1.208,1.972-2c.49-.793,1.471-2.012,2.179-2.71.709-.698,1.811-2.072,2.449-3.053.637-.981,1.834-2.397,2.659-3.147.825-.749,1.5-1.688,1.5-2.087c0-.669.6-1.275,2.721-2.747.448-.311.92-1.121,1.05-1.8.134-.703.757-1.647,1.446-2.191.666-.526,1.668-1.955,2.226-3.175s1.703-2.887,2.545-3.704s1.653-2.042,1.803-2.722c.149-.68.864-1.796,1.588-2.479.796-.75,1.616-2.136,2.069-3.495.462-1.382,1.323-2.826,2.231-3.739.883-.889,1.663-2.181,1.937-3.209.512-1.924,1.962-4.721,2.447-4.721.543,0,1.447-2.127,1.743-4.1.206-1.374.699-2.361,1.808-3.62c1.221-1.388,1.613-2.244,1.972-4.306.546-3.136,1.422-5.499,2.445-6.599.495-.532.982-2.09,1.375-4.4c1.008-5.931,1.433-7.506,2.446-9.083c2.427-3.775,2.588-33.206.201-36.644-.922-1.326-1.824-4.16-2.628-8.248-.346-1.76-.817-3.263-1.047-3.34-.759-.254-2.273-3.056-2.556-4.727-.152-.903-.58-1.977-.95-2.387-2.067-2.292-2.895-3.545-3.277-4.965-.265-.986-.836-1.845-1.511-2.277-1.465-.937-1.759-1.272-2.647-3.01-.42-.822-.927-1.494-1.129-1.494-.442,0-.957-.53-2.428-2.5-.617-.825-1.316-1.5-1.554-1.5-.459,0-2.325-1.998-2.326-2.492c0-.16-.735-.667-1.633-1.125s-1.933-1.362-2.3-2.009c-.414-.729-1.318-1.426-2.379-1.834-1.004-.386-1.986-1.121-2.374-1.778-.463-.783-1.39-1.382-3.088-1.994-1.51-.544-2.994-1.448-3.93-2.394-1.136-1.147-2.029-1.628-3.649-1.964-1.39-.289-2.69-.907-3.696-1.758-1.526-1.29-3.403-1.963-6.942-2.488-1.77-.262-3.051-.87-4.609-2.188-.791-.67-3.328-1.223-8.838-1.929-1.647-.211-3.914-.865-5.4-1.56-5.247-2.45-31.224-3.544-57.562-2.424m29.612,15.692c3.786.475,5.988,1.172,5.988,1.896c0,.142.855.381,1.9.531c3.947.566,6.58,1.528,8.3,3.034.44.385,1.43,1.04,2.2,1.456c2.398,1.296,3.2,1.903,3.2,2.421c0,.559,2.32,2.907,2.873,2.907.195,0,.968,1.305,1.719,2.9.75,1.595,1.796,3.297,2.324,3.782.74.68,1.117,1.735,1.647,4.6.441,2.382,1.218,4.796,2.163,6.718l1.474,3v20.8c0,22.143-.11,23.697-1.991,28.2-.861,2.059-1.226,4.054-2.138,11.672-.27,2.25-.683,3.588-1.544,5-1.086,1.78-1.515,3.451-2.342,9.128-.293,2.01-1.05,4.2-1.451,4.2-.696,0-2.331,4.843-2.336,6.92-.004,1.666-.844,3.905-1.947,5.191-.683.796-1.306,2.207-1.629,3.689-1.02,4.689-1.254,5.377-2.221,6.526-1.227,1.459-1.766,2.849-2.247,5.8-.412,2.521-.864,3.517-2.254,4.97-.495.517-.9,1.234-.9,1.594c0,.359-.168,1.206-.374,1.882-.206.675-.562,1.956-.792,2.847-.229.89-.92,2.181-1.534,2.869-1.181,1.323-1.856,2.929-2.285,5.436-.157.918-.815,2.138-1.657,3.07-1.052,1.165-1.564,2.261-2.077,4.449-.558,2.381-.987,3.233-2.381,4.73-.935,1.004-1.7,1.933-1.7,2.065s-.375.672-.834,1.201l-.834.961h-8.949c-10.16,0-9.27.295-11.231-3.729-.571-1.171-1.266-2.216-1.545-2.324-.701-.269-3.007-6.281-3.007-7.84c0-.221-.524-.998-1.164-1.727-1.117-1.273-2.436-4.806-2.436-6.528c0-.453-.507-1.343-1.126-1.976-1.326-1.357-1.739-2.384-2.683-6.676-.414-1.881-1.004-3.461-1.432-3.834-.972-.845-1.494-2.268-2.405-6.544-.428-2.014-1.088-3.938-1.508-4.4-1.501-1.654-1.869-2.733-2.872-8.422-.233-1.32-.76-2.76-1.172-3.2-1.106-1.182-1.569-2.676-2.481-8-.452-2.64-.954-4.89-1.116-5-1.21-.824-2.18-4.584-3.03-11.747-.445-3.754-.902-5.961-1.413-6.827-3.117-5.284-3.069-49.062.058-53.454.474-.666,1.001-2.679,1.417-5.416.603-3.962,2.116-8.156,2.944-8.156.139,0,.584-.972.987-2.159.699-2.056,2.255-4.241,3.021-4.241.197,0,.478-.405.625-.9.353-1.186,6.056-6.7,6.93-6.7.374,0,1.263-.618,1.976-1.374c1.334-1.415,3.622-2.288,7.347-2.806c1.027-.142,2.077-.511,2.332-.819c1.62-1.952,15.88-2.868,25.613-1.646m-75.486,20.627c.752,1.274.754,1.253-.595,6.618-1.346,5.354-1.381,25.384-.053,30.6c1.063,4.176,1.642,8.434,1.93,14.2.405,8.11.98,11.797,2.258,14.481.855,1.794,1.293,3.511,1.583,6.2.713,6.615,1.241,9.291,2.117,10.719c1.453,2.367,1.822,3.523,2.082,6.516.382,4.392,1.61,8.684,2.486,8.684.478,0,1.273,2.53,1.531,4.871.35,3.173,1.237,6.363,2.031,7.299c1.226,1.445,1.66,2.501,1.931,4.695.351,2.839,1.274,5.678,2.152,6.62c1.127,1.209,1.489,2.126,1.984,5.024.591,3.452.957,4.39,2.436,6.23.936,1.165,1.282,2.112,1.562,4.278.197,1.531.657,3.648,1.023,4.706.365,1.057.599,2.497.52,3.2-.141,1.263-.315,1.123-.891-.723-.123-.391-.714-.604-1.7-.613-1.892-.016-2.471-.457-4.125-3.144-.728-1.183-2.091-2.859-3.03-3.724-.938-.865-1.822-2.101-1.964-2.746s-.468-1.179-.726-1.186c-.837-.024-2.27-1.495-2.882-2.958-.328-.786-.765-1.429-.971-1.429-.631,0-2.287-1.746-2.599-2.739-.162-.517-.987-1.632-1.833-2.478s-1.994-2.501-2.551-3.678c-.556-1.177-1.539-2.529-2.182-3.005-.644-.476-1.481-1.678-1.86-2.672-.38-.993-.999-1.904-1.377-2.024-.676-.215-3.213-4.646-3.213-5.613c0-.273-.585-.943-1.3-1.489-.876-.669-1.483-1.616-1.86-2.903-.309-1.05-.996-2.287-1.527-2.749-1.052-.915-1.71-2.184-2.705-5.219-.355-1.084-.967-2.254-1.36-2.6-1.253-1.107-1.917-2.551-2.641-5.743-.444-1.956-.978-3.302-1.438-3.625-1.082-.758-1.959-3.227-2.759-7.774-.205-1.162-.748-2.641-1.208-3.287-4.007-5.627-4.027-43.698-.024-46.502.393-.275.845-1.13,1.004-1.9.772-3.729,1.574-5.746,2.776-6.983.705-.727,1.533-2.08,1.839-3.008.306-.927,1.074-2.164,1.707-2.748.633-.583,1.486-1.705,1.897-2.493c1.031-1.979,6.578-7.57,7.908-7.971c2.407-.725,3.872-.476,4.617.785m133.889-.834c1.739.405,8.385,6.899,8.385,8.194c0,.203.709,1.137,1.575,2.077s1.773,2.445,2.016,3.346c.252.939.846,1.903,1.39,2.259c1.218.798,2.129,2.735,2.663,5.658.233,1.275.747,2.678,1.143,3.118c2.473,2.749,3.001,6.815,2.99,23-.012,16.226-.6,21.062-2.966,24.385-.404.567-.856,1.927-1.005,3.023-.477,3.511-1.671,6.85-2.778,7.769-.632.524-1.048,1.722-1.841,5.304-.379,1.708-.893,2.685-2.046,3.885-.858.892-1.545,2.009-1.55,2.519-.012,1.299-1.325,4.027-2.481,5.156-.539.528-1.311,1.859-1.716,2.959-.404,1.1-1.333,2.582-2.064,3.293-.732.711-1.33,1.524-1.33,1.806c0,.955-1.684,3.694-3.046,4.955-.745.69-1.354,1.641-1.354,2.115c0,.494-.766,1.605-1.8,2.61-.99.962-1.8,1.938-1.8,2.169c0,.801-2.171,4.008-3.021,4.463-.471.252-1.163,1.155-1.539,2.007s-1.381,2.102-2.235,2.778c-.853.676-1.745,1.808-1.982,2.516-.247.738-1.028,1.674-1.827,2.192-.768.497-1.396,1.149-1.396,1.449s-.987,1.653-2.194,3.005c-1.207,1.353-2.45,2.95-2.762,3.551-.94,1.807-2.325,2.825-4.028,2.963-1.298.105-1.625.304-1.811,1.098-.303,1.297-1.207,1.57-1.199.363.003-.513.271-1.693.594-2.623.324-.929.799-2.999,1.055-4.6.493-3.076,1.544-5.646,2.536-6.201.328-.184.797-1.318,1.043-2.521c1.154-5.652,1.456-6.532,2.687-7.828.467-.492,1.077-2.147,1.473-4c.885-4.138,1.76-6.615,2.605-7.377.436-.393.941-2.066,1.39-4.6.792-4.474,1.544-6.805,2.575-7.983.909-1.038,1.502-3.275,1.853-6.991.31-3.284.965-5.49,2.119-7.135.941-1.343,1.553-4.089,1.887-8.474.302-3.958,1.058-7.193,2.095-8.953c1.026-1.744,1.614-5.215,1.872-11.047.276-6.234.868-11.151,1.903-15.8c1.69-7.594,1.755-26.639.113-33-1.665-6.449-.839-7.933,3.809-6.852M160.8,321.06c-2.582.388-3.887.974-4.328,1.942-.253.555-.958,1.228-1.566,1.496-4.047,1.778-2.364,8.198,2.811,10.725c2.492,1.217,2.593,1.36,3.682,5.262.509,1.823,1.38,4.395,1.935,5.715.556,1.32,1.205,3.93,1.444,5.8.816,6.404.751,6.214,2.359,6.934.804.36,1.859,1.271,2.342,2.023c1.211,1.885,2.087,1.931,33.56,1.773l26.039-.13l1.801-1.854c.991-1.02,2.171-1.971,2.622-2.115.899-.285,1.013-.626,1.684-5.031.748-4.91,1.739-8.782,2.442-9.536.362-.39.782-1.598.934-2.686.44-3.165,1.799-5.778,3.007-5.778c4.922,0,7.565-8.955,3.363-11.398-.697-.406-1.478-1.129-1.734-1.607-.917-1.714-3.026-1.799-43.443-1.741-20.875.03-38.404.123-38.954.206" fill="#ded4d4" fill-rule="evenodd"/><path d="M158,0.976v.976l-7.568.124c-8.401.138-8.015.032-8.318,2.291L141.895,6h-5.468C130.32,6,130,6.124,130,8.48v1.52h-4.774c-5.974,0-6.729.255-7.07,2.388L117.898,14h-3.321c-3.81,0-4.577.441-4.577,2.629v1.371h-3.371c-3.843,0-4.629.436-4.629,2.569v1.312l-3.248.251c-3.671.283-4.255.599-4.429,2.398-.117,1.21-.218,1.28-2.123,1.47l-2,.2-.122,1.9-.122,1.9h-3.349C82.773,30,82,30.438,82,32.607c0,1.326-.033,1.351-1.9,1.471l-1.9.122-.122,1.9-.122,1.9-1.878.019c-2.477.026-4.538,1.064-5.23,2.635-.473,1.073-.808,1.283-2.32,1.453-2.151.242-2.143.235-2.414,2.26C65.908,45.903,65.816,46,64.576,46C62.883,46,62,46.901,62,48.629C62,49.95,61.944,50,60.48,50c-1.916,0-2.48.564-2.48,2.48c0,1.493-.027,1.52-1.52,1.52-1.916,0-2.48.564-2.48,2.48c0,1.493-.027,1.52-1.52,1.52-1.916,0-2.48.564-2.48,2.48c0,1.464-.05,1.52-1.371,1.52C46.901,62,46,62.883,46,64.577c0,1.233-.107,1.338-1.612,1.579C42.7,66.425,42,67.364,42,69.355c0,.71-.319.983-1.489,1.274-1.699.423-2.424,2.016-2.48,5.449L38,77.956l-1.9.122-1.9.122-.122,1.9c-.12,1.867-.145,1.9-1.471,1.9C30.438,82,30,82.773,30,86.607v3.349l-1.9.122-1.9.122-.121,1.881c-.12,1.861-.138,1.884-1.798,2.212-1.923.38-2.152.915-2.234,5.207L22,102h-1.371c-2.195,0-2.629.763-2.629,4.629v3.371h-1.371c-2.188,0-2.629.767-2.629,4.577v3.321l-1.612.258c-2.133.341-2.388,1.096-2.388,7.07v4.774h-1.52c-2.356,0-2.48.32-2.48,6.427v5.468l-1.633.219c-2.259.303-2.153-.083-2.291,8.318L1.952,158h-.976-.976v42v42h.976.976l.124,7.568c.138,8.401.032,8.015,2.291,8.318L6,258.105v5.319C6,269.407,6.237,270,8.629,270h1.371v4.774c0,5.974.255,6.729,2.388,7.07l1.612.258v3.321c0,3.81.441,4.577,2.629,4.577h1.371v3.371c0,3.866.434,4.629,2.629,4.629h1.371l.047,2.3c.088,4.284.447,4.979,2.831,5.478.964.202,1.091.427,1.2,2.124L26.2,309.8l1.9.122l1.9.122v3.349c0,3.834.438,4.607,2.607,4.607c1.326,0,1.351.033,1.471,1.9l.122,1.9l1.9.122l1.9.122.031,1.878c.056,3.433.781,5.026,2.48,5.449c1.17.291,1.489.564,1.489,1.274c0,1.991.7,2.93,2.388,3.199c1.505.241,1.612.346,1.612,1.579c0,1.694.901,2.577,2.629,2.577c1.321,0,1.371.056,1.371,1.52c0,1.916.564,2.48,2.48,2.48c1.493,0,1.52.027,1.52,1.52c0,1.916.564,2.48,2.48,2.48c1.493,0,1.52.027,1.52,1.52c0,1.916.564,2.48,2.48,2.48c1.464,0,1.52.05,1.52,1.371c0,1.728.883,2.629,2.576,2.629c1.24,0,1.332.097,1.538,1.633.271,2.025.263,2.018,2.414,2.26c1.512.17,1.847.38,2.32,1.453.692,1.571,2.753,2.609,5.23,2.635l1.878.019.122,1.9.122,1.9l1.9.122c1.867.12,1.9.145,1.9,1.471c0,2.169.773,2.607,4.607,2.607h3.349l.122,1.9.122,1.9l1.881.121c1.861.12,1.884.138,2.212,1.798.38,1.923.915,2.152,5.207,2.234L102,378v1.371c0,2.188.768,2.629,4.576,2.629h3.319l.219,1.633c.291,2.175.239,2.147,4.274,2.305l3.522.138.252,1.575c.334,2.089,1.116,2.349,7.064,2.349h4.774v1.371c0,2.396.588,2.629,6.629,2.629h5.371v1.2c0,2.556.768,2.8,8.8,2.8h7.2v1v1h42h42v-1-1h7.371c8.234,0,8.629-.12,8.629-2.629v-1.371h5.371c6.041,0,6.629-.233,6.629-2.629v-1.371h4.774c5.948,0,6.73-.26,7.064-2.349l.252-1.575l3.522-.138c4.035-.158,3.983-.13,4.274-2.305l.219-1.633h3.319c3.808,0,4.576-.441,4.576-2.629v-1.371l2.3-.047c4.284-.088,4.979-.447,5.478-2.831.202-.964.427-1.091,2.124-1.2l1.898-.122.122-1.9.122-1.9h3.349c3.834,0,4.607-.438,4.607-2.607c0-1.326.033-1.351,1.9-1.471l1.9-.122.122-1.9.122-1.9l1.878-.031c3.433-.056,5.026-.781,5.449-2.48.334-1.346.498-1.489,1.7-1.489c1.673,0,2.929-1.2,2.929-2.8c0-1.1.114-1.2,1.371-1.2c1.743,0,2.629-.886,2.629-2.629c0-1.321.056-1.371,1.52-1.371c1.916,0,2.48-.564,2.48-2.48c0-1.493.027-1.52,1.52-1.52c1.916,0,2.48-.564,2.48-2.48c0-1.493.027-1.52,1.52-1.52c1.916,0,2.48-.564,2.48-2.48c0-1.464.05-1.52,1.371-1.52c1.728,0,2.629-.883,2.629-2.576c0-1.24.097-1.332,1.633-1.538c2.026-.271,2.018-.262,2.261-2.422.178-1.578.339-1.815,1.453-2.134c1.567-.449,2.349-1.97,2.576-5.01l.17-2.28l1.854-.12l1.853-.12.122-1.9c.12-1.867.145-1.9,1.471-1.9c2.169,0,2.607-.773,2.607-4.607v-3.349l1.9-.122l1.9-.122.121-1.881c.12-1.861.138-1.884,1.798-2.212c1.923-.38,2.152-.915,2.234-5.207L378,298h1.371c2.195,0,2.629-.763,2.629-4.629v-3.371h1.371c2.188,0,2.629-.767,2.629-4.577v-3.321l1.612-.258c2.133-.341,2.388-1.096,2.388-7.07v-4.774h1.371c2.392,0,2.629-.593,2.629-6.576v-5.319l1.633-.219c2.259-.303,2.153.083,2.291-8.318l.124-7.568h.976.976v-42-42h-.976-.976l-.124-7.568c-.138-8.401-.032-8.015-2.291-8.318L394,141.895v-5.319c0-5.983-.237-6.576-2.629-6.576h-1.371v-4.774c0-5.974-.255-6.729-2.388-7.07L386,117.898v-3.321c0-3.81-.441-4.577-2.629-4.577h-1.371v-3.371c0-3.866-.434-4.629-2.629-4.629h-1.371l-.047-2.5c-.082-4.292-.311-4.827-2.234-5.207-1.66-.328-1.678-.351-1.798-2.212L373.8,90.2l-1.9-.122-1.9-.122v-3.349c0-3.834-.438-4.607-2.607-4.607-1.326,0-1.351-.033-1.471-1.9l-.122-1.9-1.9-.122-1.9-.122-.031-1.878c-.055-3.398-.785-5.027-2.435-5.437-1.338-.334-1.458-.488-1.642-2.12-.241-2.143-.234-2.136-2.259-2.407-1.536-.206-1.633-.298-1.633-1.538c0-1.693-.901-2.576-2.629-2.576-1.321,0-1.371-.056-1.371-1.52c0-1.916-.564-2.48-2.48-2.48-1.493,0-1.52-.027-1.52-1.52c0-1.916-.564-2.48-2.48-2.48-1.493,0-1.52-.027-1.52-1.52c0-1.916-.564-2.48-2.48-2.48-1.464,0-1.52-.05-1.52-1.371c0-1.728-.883-2.629-2.576-2.629-1.24,0-1.332-.097-1.538-1.633-.271-2.025-.264-2.018-2.407-2.259-1.632-.184-1.786-.304-2.12-1.642-.41-1.65-2.039-2.38-5.437-2.435L322.044,38l-.122-1.9-.122-1.9-1.9-.122c-1.867-.12-1.9-.145-1.9-1.471c0-1.983-.85-2.607-3.554-2.607-2.455,0-4.181-1.148-4.511-3-.114-.644-.508-.824-2.019-.921-1.858-.12-1.881-.139-2.209-1.798-.38-1.923-.915-2.152-5.207-2.234L298,22v-1.371c0-2.195-.763-2.629-4.629-2.629L290,18v-1.371c0-2.188-.767-2.629-4.577-2.629h-3.321l-.258-1.612c-.341-2.133-1.096-2.388-7.07-2.388L270,10v-1.52c0-2.359-.316-2.48-6.48-2.48L258,6v-1.371C258,2.12,257.605,2,249.371,2L242,2v-1-1h-42-42v.976m58.662,71.23c3.046.334,6.644.96,7.995,1.392c1.352.432,3.422.877,4.6.989c1.179.112,4.393.404,7.143.647c5.348.475,8.25,1.194,9.493,2.353.426.396,1.569.837,2.54.98c6.616.971,8.967,1.69,10.485,3.208.331.331,2.008.892,3.727,1.247c3.562.736,5.148,1.444,5.75,2.569.23.43,1.176.986,2.101,1.235c2.145.578,4.647,1.996,4.901,2.78.109.333,1.309,1.047,2.669,1.587c1.686.67,2.672,1.336,3.103,2.093.347.612,1.204,1.302,1.904,1.535s2.099,1.178,3.11,2.101c1.01.923,2.386,2.128,3.058,2.678s1.432,1.234,1.69,1.519c.258.286.697.736.976,1c.279.265,1.179,1.169,2,2.01s1.877,1.89,2.347,2.332c.469.441,1.171,1.508,1.56,2.371.389.862.938,1.568,1.22,1.568.65,0,2.166,2.104,2.166,3.008c0,.376.665,1.293,1.478,2.038c1.365,1.25,2.921,4.321,2.922,5.766c0,.337.609,1.187,1.354,1.889c1.244,1.173,2.646,5.158,2.646,7.517c0,.287.405,1.03.9,1.653c1.664,2.094,1.946,2.978,2.316,7.262.202,2.347.582,6.427.844,9.067.528,5.316.507,9.606-.083,16.8-1.188,14.506-1.195,14.546-2.919,17.091-.793,1.172-1.204,2.637-1.87,6.667-.281,1.703-.815,3.107-1.599,4.2-.647.903-1.452,2.632-1.789,3.842-.336,1.21-.79,2.855-1.009,3.655-.218.8-.934,1.981-1.591,2.624-.758.74-1.325,1.819-1.548,2.945-.509,2.571-.986,3.582-2.607,5.523-.795.951-1.445,2.081-1.445,2.511c0,1.121-.939,2.762-2.345,4.098-.669.636-1.33,1.673-1.468,2.304-.411,1.871-1.384,3.514-2.624,4.431-.64.473-1.163,1.113-1.163,1.424c0,1.016-1.227,3.179-2.579,4.545-.73.737-1.708,2.185-2.173,3.217-.496,1.098-1.344,2.171-2.045,2.585-.779.46-1.28,1.14-1.43,1.942-.144.767-.837,1.75-1.831,2.596-.879.748-1.829,1.91-2.111,2.58-.283.671-1.224,1.94-2.092,2.82s-2.104,2.446-2.747,3.479-1.534,1.978-1.981,2.1c-.446.121-1.302,1.035-1.901,2.03-.6.995-1.498,1.96-1.997,2.145-.498.184-1.267,1.023-1.709,1.863-.442.841-1.342,1.825-2.001,2.187-.658.361-1.532,1.294-1.942,2.073-.414.787-1.34,1.698-2.085,2.054-.737.351-1.63,1.2-1.984,1.885-.368.711-1.235,1.493-2.016,1.82-.788.329-1.792,1.239-2.359,2.137-.543.86-1.39,1.692-1.883,1.848-1.742.553-2.013,1.23-2.235,5.586l-.213,4.177-1.743,1.768c-.959.972-1.743,1.938-1.743,2.147c0,1.948-3.438,2.863-10.851,2.888-5.182.018-5.874,1.06-2.972,4.481c3.15,3.714,3.367,10.994.396,13.236-3.099,2.337-11.996-.566-12.788-4.173-.14-.637-.67-1.43-1.178-1.763s-1.054-1.002-1.213-1.487c-.856-2.605-1.361-4.58-1.376-5.385-.01-.497-.558-1.468-1.218-2.159s-1.2-1.38-1.2-1.532c0-1.086-20.805-1.869-23.277-.877-1.751.703-3.562,3.612-4.202,6.749-.506,2.483-.895,3.372-1.972,4.508-.738.778-1.344,1.646-1.346,1.929-.028,4.2-10.87,6.722-13.724,3.193-2.141-2.647-1.19-9.506,1.753-12.653.551-.589.901-1.495.926-2.4l.042-1.454-7-.242c-7.957-.275-9.221-.489-10.507-1.774-1.192-1.192-2.691-4.207-2.699-5.428-.008-1.248-.806-3.404-1.909-5.156-.485-.77-.883-1.656-.884-1.969-.001-.715-1.169-2.031-1.802-2.031-.566,0-2.199-1.352-2.199-1.821c0-.549-1.704-2.179-2.278-2.179-.296,0-1.102-.799-1.791-1.777-.688-.977-1.763-1.988-2.387-2.246-.701-.29-1.469-1.14-2.01-2.224-.488-.976-1.16-1.753-1.516-1.753-.618,0-2.004-1.3-2.031-1.905-.022-.489-1.318-1.851-2.466-2.591-.594-.382-1.386-1.342-1.761-2.133-.376-.79-1.081-1.589-1.569-1.774-.743-.283-3.391-3.905-3.391-4.639c0-.126-.79-.997-1.755-1.935-.995-.967-1.876-2.252-2.032-2.965-.152-.692-.487-1.264-.745-1.271-.557-.016-2.268-1.386-2.268-1.817c0-.893-1.401-3.269-2.119-3.594-.894-.404-3.081-4.294-3.081-5.481c0-.396-.315-.833-.7-.972-.975-.35-2.1-1.573-2.1-2.283c0-.326-.18-.704-.4-.84s-.4-.584-.4-.995-.446-1.098-.992-1.527c-1.13-.889-3.008-4.39-3.008-5.608c0-.799-.961-2.07-1.564-2.07-.605,0-2.42-4.422-2.43-5.919-.003-.506-.481-1.36-1.063-1.898-1.441-1.336-1.954-2.433-2.727-5.833-.438-1.926-.932-3.096-1.464-3.469-1.259-.881-1.866-2.79-2.75-8.649-.291-1.922-.649-2.929-1.172-3.296-4.308-3.017-4.355-48.385-.054-52.115.396-.344.849-1.434,1.006-2.423.679-4.28,2.024-7.882,3.066-8.213.383-.122.822-.791.974-1.487.443-2.016,1.622-4.502,2.639-5.566c1.015-1.062,2.339-3.337,2.339-4.019c0-.506,1.886-2.313,2.415-2.313.206,0,.654-.668.995-1.485.773-1.85,1.714-2.915,2.575-2.915.381,0,.945-.645,1.333-1.524.438-.992,1.232-1.838,2.277-2.425.883-.496,1.605-1.136,1.605-1.422c0-.765,1.996-2.629,2.815-2.629.388,0,1.074-.623,1.523-1.385.45-.762,1.414-1.635,2.143-1.939.728-.305,2.021-1.23,2.873-2.057c1.572-1.528,4.275-2.994,5.546-3.01.385-.005.7-.182.7-.393c0-.912,2.332-2.417,4.767-3.076c1.81-.49,3.027-1.107,3.895-1.975.695-.695,1.775-1.364,2.4-1.488c4.139-.819,5.21-1.161,5.777-1.845.975-1.175,3.159-1.929,7.761-2.678c2.588-.422,4.465-.941,4.914-1.36c1.566-1.459,4.914-2.067,16.595-3.012c1.709-.139,3.658-.526,4.33-.861.672-.336,2.513-.772,4.091-.97c1.579-.199,4.13-.516,5.67-.705c4.936-.606,23.987-.505,30.062.16M187.573,96.583c-5.705.573-7.52,1.109-9.185,2.712-.556.536-1.811,1.228-2.788,1.539-1.24.395-2.057.989-2.706,1.966-.511.77-1.47,1.629-2.13,1.908-.824.35-1.441,1.071-1.969,2.303-.462,1.079-1.176,1.98-1.791,2.26-.583.266-1.116.91-1.238,1.498-.118.567-.361,1.308-.541,1.646-.179.339-.448,1.335-.596,2.213-.15.888-.862,2.347-1.603,3.283-1.428,1.804-1.859,3.792-2.45,11.289-.148,1.87-.523,4.57-.834,6-1.739,7.992-1.877,9.356-1.842,18.2.026,6.596.196,9.478.678,11.507c1.118,4.709,1.768,9.12,2.201,14.935.51,6.85.981,9.486,1.947,10.89c1.207,1.756,1.642,3.271,2.083,7.252.552,4.996.675,5.441,2.224,8.016.964,1.604,1.434,3.013,1.735,5.2.556,4.039.947,5.242,2.388,7.335.882,1.282,1.351,2.599,1.679,4.715.563,3.629.854,4.407,2.343,6.271c1.113,1.393,1.474,2.632,2.299,7.894.105.668.795,1.914,1.533,2.768.834.965,1.44,2.172,1.6,3.185.468,2.973,1.056,4.459,2.357,5.965.965,1.117,1.473,2.307,2.028,4.753.541,2.385,1.042,3.579,1.861,4.435.616.645,1.237,1.556,1.379,2.026.933,3.064,1.74,4.162,3.255,4.431c2.708.479,8.977.71,11.89.437l2.849-.267.986-1.874c.542-1.031,1.467-2.35,2.056-2.932.717-.708,1.292-1.964,1.742-3.8.733-2.997,1.443-4.354,2.861-5.471.571-.449.926-1.155.926-1.84c0-2.198,1.739-6.294,2.818-6.637.423-.134.867-1.29,1.343-3.497.907-4.214,1.362-5.391,2.487-6.444.644-.603,1.096-1.791,1.541-4.053.656-3.336,1.436-5.183,2.621-6.2.406-.349.978-1.937,1.367-3.8.849-4.065,1.33-5.356,2.456-6.6.674-.744,1.073-2.022,1.559-5c.737-4.513,1.519-6.856,2.603-7.796.548-.475.909-1.831,1.389-5.223.731-5.155,1.589-8.2,2.644-9.381.553-.618.861-2.257,1.354-7.2.862-8.643,1.363-12.142,2.35-16.4c1.265-5.455,1.476-25.579.303-28.94-.916-2.627-1.427-5.086-2.229-10.735-.798-5.624-.95-6.111-2.469-7.897-.735-.865-1.337-1.819-1.337-2.12c0-.972-1.214-2.933-3-4.844-.958-1.025-2.34-2.507-3.071-3.293-1.166-1.254-3.663-2.771-4.561-2.771-.171,0-.864-.603-1.54-1.34-.744-.812-1.78-1.445-2.628-1.605-6.656-1.256-24.697-1.73-33.227-.872M128.52,117.894c-.616.822-1.622,1.923-2.235,2.448s-1.357,1.535-1.654,2.246-1.081,1.678-1.741,2.148c-.877.624-1.399,1.518-1.936,3.31-.482,1.608-1.199,2.919-2.078,3.798-1.174,1.174-1.416,1.785-1.922,4.849-.388,2.348-1.026,4.366-1.93,6.107-3.048,5.87-3.032,27.809.024,34.267.881,1.861,1.444,3.757,1.604,5.4.382,3.912,1.189,6.579,2.489,8.227.957,1.214,2.459,6.038,2.459,7.899c0,.058.606.768,1.346,1.576.892.974,1.576,2.322,2.031,4.002.482,1.779,1.077,2.912,1.998,3.805.875.847,1.558,2.099,2.047,3.748.554,1.867,1.109,2.804,2.256,3.807.837.732,1.522,1.567,1.522,1.854c0,.815.988,2.523,2.279,3.942.646.71,1.514,2.233,1.927,3.382.414,1.15.898,2.091,1.076,2.091.649,0,2.718,2.15,2.718,2.824c0,.381.778,1.516,1.73,2.523.951,1.008,2.2,2.793,2.775,3.967.628,1.281,1.455,2.322,2.07,2.602.608.277,1.287,1.122,1.669,2.078.443,1.107,1.063,1.809,1.981,2.245.894.424,1.483,1.075,1.777,1.966.596,1.807,1.214,2.265,2.139,1.589.407-.298.639-.702.518-.899-.122-.197-.421-1.603-.664-3.124-.26-1.629-.682-2.9-1.028-3.093-1.2-.672-2.34-4.107-3.167-9.539-.122-.804-.479-1.56-.793-1.681-1.292-.496-2.216-3.27-2.992-8.98-.235-1.727-.598-2.743-1.151-3.223-1.384-1.2-2.12-3.806-3.063-10.851-.133-.987-.562-2.157-.954-2.6-1.374-1.549-2.135-4.765-3.079-13.004-.141-1.232-.565-2.552-.964-3-.393-.44-.986-1.79-1.32-3-.541-1.964-.828-4.341-1.712-14.155-.136-1.515-.583-3.352-.993-4.083-1.727-3.075-2.057-7.195-2.231-27.904-.188-22.213-.293-22.944-2.828-19.564m140.861-1.063c-.146.237-.244,7.302-.217,15.7.065,20.313-.63,28.933-2.698,33.477-.611,1.343-.89,3.043-1.085,6.6-.373,6.831-1.176,11.194-2.541,13.82-.863,1.659-1.225,3.037-1.42,5.4-.455,5.507-1.251,8.544-2.886,11.006-.677,1.021-1.017,2.232-1.179,4.2-.125,1.521-.375,3.306-.555,3.966-.181.66-.434,1.681-.564,2.269s-.702,1.623-1.271,2.299c-1.039,1.236-1.787,3.945-2.334,8.459-.21,1.725-.574,2.578-1.617,3.785-.74.857-1.432,2.105-1.537,2.773-.901,5.742-1.71,8.035-3.198,9.064-1.093.755-1.806,6.94-.843,7.31.874.335,1.116.122,1.946-1.718.472-1.048,1.185-1.819,2.069-2.238.742-.352,1.349-.93,1.349-1.284c0-.901,1.918-3.319,2.633-3.319.326,0,.693-.315.816-.7.62-1.945,2.393-4.894,3.201-5.327.502-.268,1.385-1.422,1.963-2.563.579-1.144,1.573-2.384,2.218-2.765.829-.489,1.295-1.192,1.603-2.414.248-.986,1.005-2.313,1.767-3.097.733-.754,1.818-2.398,2.413-3.653.594-1.254,1.205-2.281,1.357-2.281.839,0,2.02-1.829,2.417-3.741.337-1.625.845-2.584,2.026-3.826.867-.911,1.681-2.147,1.809-2.745.495-2.317,1.478-4.509,2.324-5.184c1.095-.872,1.716-2.467,2.04-5.239.269-2.296.732-3.344,2.053-4.641.941-.924,1.184-1.753,1.941-6.624.603-3.878,1.028-5.356,2.154-7.492c1.337-2.532,1.665-5.797,1.665-16.555c0-11.41-.232-13.239-2.201-17.353-.816-1.704-1.44-3.74-1.596-5.2-.293-2.744-.752-3.844-2.298-5.5-.602-.646-1.295-1.922-1.54-2.837-.745-2.783-1.112-3.456-2.14-3.924-.542-.248-1.291-1.1-1.663-1.894-.372-.795-1.326-2.075-2.119-2.845-.794-.77-1.847-1.895-2.34-2.5-.959-1.175-1.494-1.361-1.922-.669M243.223,319.254c4.018,1.204,6.742,5.794,6.268,10.56-.489,4.924-1.201,6.014-4.879,7.476-2.86,1.137-3.52,2.459-3.939,7.892-.206,2.674-.532,3.882-1.665,6.175-.774,1.567-1.408,3.155-1.408,3.527c0,1.824-1.251,5.355-2.097,5.915-.496.329-1.585,1.319-2.419,2.2l-1.517,1.601-30.883.113c-33.997.124-32.337.205-33.556-1.654-.477-.729-1.378-1.618-2.002-1.975-1.334-.766-1.852-1.949-2.4-5.484-.23-1.482-.719-2.944-1.138-3.4-.996-1.087-1.849-3.867-2.148-7-.567-5.957-.888-6.616-3.825-7.856-3.995-1.686-4.89-3.272-4.844-8.583.042-4.895,1.927-7.95,5.739-9.299c2.198-.779,84.154-.975,86.713-.208" fill="#2c76b6" fill-rule="evenodd"/><path d="M188.08,73.94c-.506.143,5.4.26,13.125.26s13.629-.117,13.12-.26-6.415-.26-13.125-.26-12.614.117-13.12.26m-3.775.743c.497.096,1.217.092,1.6-.008.382-.1-.025-.179-.905-.174-.88.004-1.193.086-.695.182m32.595-.007c.385.1,1.015.1,1.4,0c.385-.101.07-.183-.7-.183s-1.085.082-.7.183m-39.5.524c-1.73.44.157.455,2.6.02l1.8-.32-1.6-.003c-.88-.001-2.14.135-2.8.303m44.4.002c1.617.356,4.474.525,4.167.247-.092-.083-1.427-.251-2.967-.375-2.152-.172-2.43-.143-1.2.128m9.5,1.074c.385.1,1.015.1,1.4,0c.385-.101.07-.183-.7-.183s-1.085.082-.7.183m7.9.924c.33.213.87.388,1.2.388.533,0,.533-.043,0-.388-.33-.213-.87-.388-1.2-.388-.533,0-.533.043,0,.388m-79.8.8c-.136.22.023.4.353.4s.711-.18.847-.4-.023-.4-.353-.4-.711.18-.847.4m85.4,1.2c.33.213.87.388,1.2.388.533,0,.533-.043,0-.388-.33-.213-.87-.388-1.2-.388-.533,0-.533.043,0,.388m3.6.8c.55.176,1.36.32,1.8.32.633,0,.592-.066-.2-.32-.55-.176-1.36-.32-1.8-.32-.633,0-.592.066.2.32M146.2,81.81c-.88.542-1.42.981-1.2.975.22-.005,1.12-.453,2-.995s1.42-.981,1.2-.975c-.22.005-1.12.453-2,.995M255,81.79c.88.542,1.78.99,2,.995.22.006-.32-.433-1.2-.975s-1.78-.99-2-.995c-.22-.006.32.433,1.2.975m10.6,3.996c0,.313,2.45,1.897,2.64,1.707.107-.107-.444-.57-1.223-1.03s-1.417-.764-1.417-.677m8.8,5.204c0,.234,2.239,1.411,2.68,1.409.176-.001-.269-.361-.99-.8-1.339-.817-1.69-.943-1.69-.609M122.073,93.686c-.92.707-1.673,1.434-1.673,1.615c0,.182.405-.059.9-.534s1.44-1.201,2.1-1.614c.66-.412,1.008-.751.773-.752-.235,0-1.18.578-2.1,1.285m76.827-.19c1.265.079,3.335.079,4.6,0c1.265-.08.23-.145-2.3-.145s-3.565.065-2.3.145m-8.9.527c-.426.291-.02.332,1.4.142c1.1-.147,2.075-.334,2.167-.416.401-.359-3.028-.095-3.567.274M208.6,94c1.797.457,3.464.457,2.4,0-.44-.189-1.43-.335-2.2-.325l-1.4.02l1.2.305m-23.2,1.2c-.504.217-.578.344-.2.344.33,0,.96-.155,1.4-.344.504-.217.578-.344.2-.344-.33,0-.96.155-1.4.344m29.8,0c.33.213.87.388,1.2.388.533,0,.533-.043,0-.388-.33-.213-.87-.388-1.2-.388-.533,0-.533.043,0,.388m-33.4.8c-.504.217-.578.344-.2.344.33,0,.96-.155,1.4-.344.504-.217.578-.344.2-.344-.33,0-.96.155-1.4.344M219,96c.44.189,1.07.344,1.4.344.378,0,.304-.127-.2-.344-.44-.189-1.07-.344-1.4-.344-.378,0-.304.127.2.344m65.593,1.993c.855.876,1.629,1.519,1.718,1.429.188-.187-2.652-3.022-3.027-3.022-.135,0,.453.717,1.309,1.593m-107.318-.377c-1.261,1.174-1.076,1.357.325.321.66-.488,1.2-.944,1.2-1.012c0-.368-.756-.026-1.525.691m45.925-.705c0,.076.585.567,1.3,1.09.804.589,1.084.686.733.254-.533-.656-2.033-1.648-2.033-1.344m64.41,3.545c.336.299,1.045.994,1.575,1.544l.965,1-.604-.971c-.333-.534-1.041-1.228-1.575-1.543-.728-.43-.818-.438-.361-.03m2.79,2.394c0,.114.828,1.071,1.84,2.128c1.013,1.056,1.657,1.583,1.433,1.171-.429-.788-3.273-3.655-3.273-3.299m-181.342,1.731c-.582.539-1.053,1.214-1.046,1.5.007.285.22.161.473-.276.254-.437.833-1.106,1.288-1.487.455-.38.718-.697.585-.705-.132-.007-.717.428-1.3.968m125.058,1.193c.387.386.973,1.225,1.304,1.864.33.639.704,1.162.831,1.162.427,0-1.754-3.368-2.298-3.549-.327-.109-.263.096.163.523m60.284,1.243c0,.12.475.705,1.056,1.3l1.056,1.083-.883-1.3c-.835-1.228-1.229-1.575-1.229-1.083m-57.137,4.361c.245.538.693,1.073.995,1.189.323.124.188-.279-.329-.978-1.069-1.445-1.255-1.504-.666-.211m-134.663.941c-.44.38-1.062,1.049-1.383,1.486-.32.437.085.175.9-.583c1.333-1.24,1.685-1.649,1.383-1.609-.055.008-.46.325-.9.706m28.486,2.271c1.27.553,1.525,1.052,1.844,3.61.083.66.177.201.21-1.02.069-2.535-.368-3.187-2.12-3.164l-1.22.015l1.286.559m136.614-.325c-.303.122-.476.86-.44,1.868.044,1.213.106,1.365.227.558.189-1.25,1.786-2.502,2.731-2.14.358.138.52.072.379-.156-.252-.407-2.013-.487-2.897-.13m34.279,3.113c.528.562,1.021,1.022,1.094,1.022.361,0-.934-1.615-1.455-1.814-.33-.127-.167.23.361.792M267.309,120c0,.99.078,1.395.173.9.096-.495.096-1.305,0-1.8-.095-.495-.173-.09-.173.9m-142.99.003c-.877,1.54-.617,1.539.481-.003.47-.66.707-1.199.527-1.197-.18.001-.634.541-1.008,1.2m8.221,4.797c0,1.87.069,2.635.153,1.7s.084-2.465,0-3.4-.153-.17-.153,1.7m144.66-2.275c0,.069.585.654,1.3,1.3L279.8,125l-1.175-1.3c-1.095-1.212-1.425-1.484-1.425-1.175M159,126.8c-.152.691-.193,1.341-.091,1.442.102.102.3-.389.441-1.092.333-1.667.01-1.99-.35-.35m108.765,7.4c.001,3.96.061,5.526.133,3.48.073-2.046.073-5.286,0-7.2-.074-1.914-.133-.24-.133,3.72m-149.273-5.171c-.495.754-.82,1.371-.723,1.371.278,0,1.935-2.429,1.77-2.594-.082-.082-.553.468-1.047,1.223M243.069,130.6c.127,1.32.299,2.475.381,2.567.291.323.066-2.981-.271-3.967-.221-.648-.259-.155-.11,1.4M157.8,132c-.152.691-.186,1.347-.076,1.457s.324-.366.476-1.057.186-1.347.076-1.457-.324.366-.476,1.057m-.782,4.218c-.153,1.021-.196,1.937-.096,2.037s.307-.653.46-1.673c.153-1.021.196-1.937.096-2.037s-.307.653-.46,1.673m86.747,8.382c.001,3.96.061,5.526.133,3.48.073-2.046.073-5.286,0-7.2-.074-1.914-.133-.24-.133,3.72m-129.708-4.943c-.282.452-.425.909-.317,1.016.107.108.404-.195.66-.673s.398-.935.317-1.016-.378.222-.66.673m172.129.643c.349.715.72,1.3.824,1.3.398,0,.142-.637-.643-1.6l-.815-1l.634,1.3M89,140.4c-.15.473-.183.95-.073,1.06s.323-.187.473-.66.183-.95.073-1.06-.323.187-.473.66m43.544,3.6c0,2.09.068,2.945.15,1.9s.082-2.755,0-3.8-.15-.19-.15,1.9m24.031,9c0,5.94.056,8.426.124,5.524s.068-7.762,0-10.8-.124-.664-.124,5.276m-68.474-5.2c.004.88.086,1.193.182.695.096-.497.092-1.217-.008-1.6-.1-.382-.179.025-.174.905m179.208,1.8c0,.99.078,1.395.173.9.096-.495.096-1.305,0-1.8-.095-.495-.173-.09-.173.9m20.792-.2c.004.88.086,1.193.182.695.096-.497.092-1.217-.008-1.6-.1-.382-.179.025-.174.905m-176,.4c.004.88.086,1.193.182.695.096-.497.092-1.217-.008-1.6-.1-.382-.179.025-.174.905m-24.392,1.8c0,.99.078,1.395.173.9.096-.495.096-1.305,0-1.8-.095-.495-.173-.09-.173.9m45.177,0c-.003.77.138,1.85.314,2.4.45,1.404.465-.063.023-2.2l-.331-1.6-.006,1.4M312.564,157c-.001,3.74.059,5.324.133,3.52.074-1.805.075-4.865.001-6.8-.073-1.936-.134-.46-.134,3.28m-200.83-2.2c0,1.65.071,2.325.157,1.5.087-.825.087-2.175,0-3-.086-.825-.157-.15-.157,1.5m154.884-.074c-.165,1.169-.205,2.22-.089,2.336.285.285.802-3.275.571-3.937-.1-.289-.318.432-.482,1.601M133.634,157.2c-.012.55.153,1.27.366,1.6.509.787.509-.616,0-1.8-.315-.733-.346-.716-.366.2m154.897,2.2c.002,1.54.074,2.121.161,1.291s.085-2.09-.003-2.8c-.089-.71-.16-.031-.158,1.509m-45.257-.556c-.041.794-.163,2.324-.272,3.4-.184,1.813-.168,1.859.219.624.23-.733.353-2.263.273-3.4-.104-1.478-.167-1.656-.22-.624m22.614-.311c-.158.403-.277,1.123-.263,1.6.024.823.046.817.415-.108.214-.536.333-1.256.263-1.6-.104-.514-.178-.495-.415.108M111.731,164.2c.002,1.54.074,2.121.161,1.291s.085-2.09-.003-2.8c-.089-.71-.16-.031-.158,1.509m23.149-.8c0,.44.144,1.25.32,1.8.254.792.32.833.32.2c0-.44-.144-1.25-.32-1.8-.254-.792-.32-.833-.32-.2m129.738,2.818c-.153,1.021-.196,1.937-.096,2.037s.307-.653.46-1.673c.153-1.021.196-1.937.096-2.037s-.307.653-.46,1.673M156.893,168c.002,1.765.598,4.388.637,2.8.013-.55-.125-1.72-.307-2.6l-.331-1.6.001,1.4M87.72,169.6c0,1.21.075,1.705.167,1.1.091-.605.091-1.595,0-2.2-.092-.605-.167-.11-.167,1.1m24.389-.4c0,.99.078,1.395.173.9.096-.495.096-1.305,0-1.8-.095-.495-.173-.09-.173.9m129.779-1.067c-.158.403-.277,1.123-.263,1.6.024.823.046.817.415-.108.214-.536.333-1.256.263-1.6-.104-.514-.178-.495-.415.108m46.221,1.067c0,.99.078,1.395.173.9.096-.495.096-1.305,0-1.8-.095-.495-.173-.09-.173.9m23.757.768c-.147,1.41-.192,2.639-.1,2.732.248.247.749-4.154.544-4.77-.097-.29-.296.627-.444,2.038m-176.19-.768c-.009.55.127,1.81.304,2.8.24,1.35.327,1.5.347.6.015-.66-.122-1.92-.304-2.8-.207-1.002-.337-1.226-.347-.6M241,172.4c-.154.91-.189,1.744-.079,1.854s.325-.544.479-1.454.189-1.744.079-1.854-.325.544-.479,1.454m23.093,0c0,.77.082,1.085.183.7.1-.385.1-1.015,0-1.4-.101-.385-.183-.07-.183.7m-176,1.2c0,.77.082,1.085.183.7.1-.385.1-1.015,0-1.4-.101-.385-.183-.07-.183.7m69.54-.2c-.012.44.238,1.52.555,2.4.747,2.072.773.949.033-1.4-.312-.99-.577-1.44-.588-1m-44.805,4.076c-.015.482.152.988.372,1.124.473.292.473-.099,0-1.2-.331-.771-.345-.769-.372.076m173.458,1.741c-.372.949-.6,1.802-.505,1.897.243.244,1.465-2.776,1.31-3.24-.07-.21-.432.394-.805,1.343m-127.43-.617c0,.44.155,1.16.344,1.6l.344.8v-.8c0-.44-.155-1.16-.344-1.6l-.344-.8v.8m-22.044.6c0,.33.175.87.388,1.2.345.533.388.533.388,0c0-.33-.175-.87-.388-1.2-.345-.533-.388-.533-.388,0m-23.198.254c-.008.25.255.97.584,1.6.328.63.592.876.585.546-.014-.717-1.148-2.8-1.169-2.146M88.963,180.6c.214,1.439.994,3.576,1.222,3.348.09-.089-.189-1.149-.619-2.355-.433-1.217-.701-1.659-.603-.993m173.637-.2c-.15.473-.183.95-.073,1.06s.323-.187.473-.66.183-.95.073-1.06-.323.187-.473.66m22,3.6c-.15.473-.183.95-.073,1.06s.323-.187.473-.66.183-.95.073-1.06-.323.187-.473.66m-45.571,1.029c-.148.586-.191,1.143-.097,1.237.095.094.292-.308.439-.895.148-.586.191-1.143.097-1.237-.095-.094-.292.308-.439.895m-100.195.371c-.012.44.153,1.07.366,1.4.514.795.514-.204,0-1.4l-.344-.8-.022.8m-23.178.2c0,.33.155.96.344,1.4.217.504.344.578.344.2c0-.33-.155-.96-.344-1.4-.217-.504-.344-.578-.344-.2m144.994,1.65c-.333,1.667-.01,1.99.35.35.152-.691.193-1.341.091-1.442-.102-.102-.3.389-.441,1.092m23.179.179c-.148.586-.191,1.143-.097,1.237.095.094.292-.308.439-.895.148-.586.191-1.143.097-1.237-.095-.094-.292.308-.439.895m23.016,2.271c-.397,1.189-.383,1.234.16.524.327-.428.595-1.013.595-1.3c0-.892-.303-.581-.755.776m-188.764,3.07c.722,1.303,1.379,2.304,1.459,2.223.173-.173-2.314-4.593-2.585-4.593-.103,0,.404,1.066,1.126,2.37m141.741-.548c-.15.803-.194,1.54-.096,1.638.098.097.301-.479.452-1.282.15-.803.194-1.54.096-1.638-.098-.097-.301.479-.452,1.282m45.592.013c-.373.569-.609,1.103-.525,1.187.084.085.469-.381.855-1.034.862-1.46.604-1.579-.33-.153m-143.801,1.419c-.007.14.256.77.585,1.4.328.63.598.865.6.522.002-.586-1.158-2.468-1.185-1.922m-67.967,2.342c.493.877.962,1.53,1.041,1.45.172-.172-1.481-3.046-1.752-3.046-.102,0,.217.718.711,1.596m142.204.054c-.333,1.667-.01,1.99.35.35.152-.691.193-1.341.091-1.442-.102-.102-.3.389-.441,1.092m-73.038.75c0,.33.175.87.388,1.2.345.533.388.533.388,0c0-.33-.175-.87-.388-1.2-.345-.533-.388-.533-.388,0m72.032,3.244c-.246.707-.378,1.356-.292,1.441.086.086.357-.423.604-1.129.246-.707.378-1.356.292-1.441-.086-.086-.357.423-.604,1.129M142.812,201.2c0,.33.175.87.388,1.2.345.533.388.533.388,0c0-.33-.175-.87-.388-1.2-.345-.533-.388-.533-.388,0m113.837,1.415c-.137.358-.234.951-.215,1.318s.193.136.387-.513c.377-1.262.244-1.887-.172-.805m44.216.402c-.67,1.471-.542,1.785.182.448.339-.625.541-1.211.449-1.302-.091-.092-.375.293-.631.854M143.668,204.8c.02,1.039.65,2.746.664,1.8.006-.44-.143-1.16-.332-1.6-.211-.49-.339-.568-.332-.2m21.132,1.353c0,.429,1.19,2.647,1.421,2.647.11,0-.098-.585-.462-1.3-.742-1.46-.959-1.764-.959-1.347m2.868,7.247c-.006.44.143,1.16.332,1.6.438,1.019.438-.032,0-1.4-.257-.804-.323-.843-.332-.2m126.763,2.699c-.902,1.112-.91,1.157-.108.656.771-.481,1.473-1.524,1.186-1.76-.06-.049-.545.448-1.078,1.104m-42.602,3.73c-.148.586-.191,1.143-.097,1.237.095.094.292-.308.439-.895.148-.586.191-1.143.097-1.237-.095-.094-.292.308-.439.895m15.045,1.969c-.251.551-.621,1.002-.823,1.002-.201,0-.482.305-.625.678-.221.573-.129.558.594-.096.942-.852,1.739-2.157,1.477-2.418-.092-.092-.372.283-.623.834m-39.793.902c-.092.165-.672,1.2-1.29,2.3-.617,1.1-.937,1.82-.71,1.6.579-.561,2.641-4.2,2.381-4.2-.118,0-.29.135-.381.3m63.087.626c-.572.655-2.023,2.989-1.538,2.474c1.844-1.959,2.66-2.998,2.345-2.985-.206.009-.569.238-.807.511M135.455,225c.925,1.579.945,1.603.945,1.111c0-.232-.371-.847-.824-1.367l-.823-.944.702,1.2m113.959,1.235c-.373.569-.587,1.126-.475,1.237.111.111.49-.354.842-1.035.778-1.504.563-1.622-.367-.202m13.704.99c-.596.845-.866,1.452-.6,1.349.47-.182,2.018-2.582,1.794-2.784-.061-.056-.599.59-1.194,1.435M151.656,229.6c0,.33.155.96.344,1.4.217.504.344.578.344.2c0-.33-.155-.96-.344-1.4-.217-.504-.344-.578-.344-.2m-10.368,3.992c.272.436.764.896,1.094,1.022.33.127.167-.23-.361-.792-1.152-1.225-1.404-1.305-.733-.23M115.237,236c1.159,1.796,1.163,1.801,1.161,1.367-.001-.202-.466-.907-1.033-1.567l-1.031-1.2.903,1.4m60.419-.4c0,.33.155.96.344,1.4.217.504.344.578.344.2c0-.33-.155-.96-.344-1.4-.217-.504-.344-.578-.344-.2m-59.009,3.3c.122.275.882,1.03,1.688,1.677l1.465,1.177-1.581-1.677c-1.688-1.79-1.922-1.966-1.572-1.177m136.272,1.725c-.396.564-1.124,1.535-1.619,2.158-.965,1.215-1.236,2.019-.386,1.146.683-.702,3.105-4.329,2.891-4.329-.092,0-.491.461-.886,1.025m-97.263.175c0,.33.155.96.344,1.4.217.504.344.578.344.2c0-.33-.155-.96-.344-1.4-.217-.504-.344-.578-.344-.2m93.373,4.229c-.346.345-.629.825-.629,1.066s.047.363.104.272c.058-.092.446-.572.862-1.067.862-1.024.614-1.223-.337-.271m24.974.63c-.661.693-1.203,1.443-1.203,1.667s.045.33.1.236.72-.844,1.478-1.666c1.666-1.808,1.33-2.02-.375-.237m-151.018.641c.617.935,1.198,1.7,1.291,1.7.288,0-1.243-2.434-1.844-2.931-.312-.258-.064.296.553,1.231m33.837-.9c.005.529,1.12,1.991,1.347,1.765.097-.097-.167-.624-.587-1.171-.421-.547-.762-.814-.76-.594m90.637,1.991c-.132.343-.874.999-1.649,1.456-.776.458-1.41,1.001-1.41,1.208c0,.224.203.215.5-.022c2.184-1.739,3.261-2.805,3.049-3.017-.138-.138-.358.031-.49.375M180.802,249.8c0,.22.449.923.998,1.562.55.639.994.999.986.8-.021-.512-1.982-2.848-1.984-2.362m-21.954,2.414c-.487,1.351-.61,1.452-1.044.859-.784-1.072-1.091-.778-.358.342l.665,1.014.765-1.258c.421-.693.711-1.535.645-1.873-.067-.338-.369.074-.673.916m84.18-.014c-.874,1.624-1.244,1.746-1.565.517-.127-.485-.335-.778-.462-.651-.262.261.601,2.341.963,2.321.353-.019,2.453-3.587,2.112-3.587-.162,0-.633.63-1.048,1.4m-109.393,7.1c.093.055.798.64,1.567,1.3l1.398,1.2-1.175-1.3c-.646-.715-1.351-1.3-1.567-1.3-.215,0-.315.045-.223.1m52.804,2.076c.462.783.917,1.424,1.011,1.424.284,0-1.014-2.331-1.448-2.599-.222-.137-.025.392.437,1.175m72.287,1.471c-.591.634-.913,1.153-.716,1.153.435,0,1.99-1.621,1.99-2.075c0-.433-.033-.409-1.274.922m-119.8,1.737c.62.604,1.215,1.008,1.323.9s-.398-.602-1.126-1.096l-1.323-.9l1.126,1.096m52.475,2.686c2.155.382,14.999.408,14.997.03-.001-.165-3.735-.303-8.299-.307-4.563-.003-7.578.121-6.698.277m60.906,1.497c-.719.642-1.217,1.227-1.107,1.3s.802-.452,1.537-1.167c1.663-1.616,1.341-1.716-.43-.133M151.08,278.691c.31,2.009.52,2.17.52.399c0-.793-.169-1.547-.376-1.675-.225-.139-.283.376-.144,1.276M245.836,280c-.179,1.21-.53,2.47-.781,2.8-.394.52-.363.528.234.06.76-.595,1.266-2.624,1.026-4.108-.096-.593-.276-.124-.479,1.248m-93.649,3.575c.334.646.789,1.286,1.011,1.424.222.137.025-.392-.437-1.175-1.013-1.717-1.426-1.896-.574-.249m90.613,2.412c0,.213-.495.656-1.1.984s-.885.604-.622.613c.262.009.982-.428,1.6-.971.617-.543.897-.993.622-1s-.5.161-.5.374m-84.5,1.895c.495.096,1.305.096,1.8,0c.495-.095.09-.173-.9-.173s-1.395.078-.9.173m75.9.118l-4.4.242l4.2.051c2.31.028,4.56-.104,5-.293s.53-.321.2-.293-2.58.16-5,.293m-65.7.276c.385.1,1.015.1,1.4,0c.385-.101.07-.183-.7-.183s-1.085.082-.7.183m59.622,1.278c-.304.486-.319.899-.048,1.282.327.459.363.443.195-.087-.114-.358-.008-.85.236-1.094.243-.243.357-.526.253-.63-.103-.104-.39.134-.636.529M181.273,299.8c-.251.55-.39,1-.31,1s.44-.45.8-1c.361-.55.5-1,.31-1-.189,0-.55.45-.8,1m39.689,4.1c.419.495,1.049.886,1.4.868.542-.026.547-.065.038-.252-.33-.121-.96-.512-1.4-.868-.793-.642-.794-.64-.038.252m9.8.746c-.437.526-1.12.613-3.668.465-1.722-.099-2.897-.033-2.612.148c1.127.715,5.75.389,6.518-.459.398-.44.628-.8.511-.8s-.454.291-.749.646m-61.159.654c-.004.385,5.154.339,6.158-.055.418-.164-.794-.286-2.698-.271-1.902.014-3.459.161-3.46.326m11.267,14.6c10.488.059,27.768.059,38.4,0c10.631-.059,2.05-.108-19.07-.108s-29.819.049-19.33.108m-21.365.383c.497.096,1.217.092,1.6-.008.382-.1-.025-.179-.905-.174-.88.004-1.193.086-.695.182m-7.899,8.75c.003.862.164,1.816.357,2.121.215.339.269-.205.141-1.4-.262-2.437-.506-2.79-.498-.721m1.207,4.855c.016.399,1.986,1.846,2.209,1.623.093-.092-.37-.565-1.027-1.051s-1.189-.744-1.182-.572m86.216,10.741c-.148.586-.191,1.143-.097,1.237.095.094.292-.308.439-.895.148-.586.191-1.143.097-1.237-.095-.094-.292.308-.439.895m-78.201.847c-.015.482.152.988.372,1.124.473.292.473-.099,0-1.2-.331-.771-.345-.769-.372.076m77.273,2.18c-.268.71-.405,1.373-.305,1.473.238.239,1.065-1.945.911-2.407-.065-.196-.338.224-.606.934M237,350.4c-.15.473-.183.95-.073,1.06s.323-.187.473-.66.183-.95.073-1.06-.323.187-.473.66m-68.313,12.009c.708.742,1.355,1.269,1.438,1.17.083-.098-.496-.706-1.287-1.35l-1.438-1.171l1.287,1.351m62.913-.568c0,.205-.495.681-1.1,1.056s-.92.682-.7.683c.671.003,2.408-1.506,2.094-1.819-.162-.162-.294-.126-.294.08M186.329,363.9c7.551.061,19.791.061,27.2,0s1.231-.111-13.729-.111-21.022.05-13.471.111" fill="#94747c" fill-rule="evenodd"/><path d="M187.4,74.406c-2.247.288-5.58.636-15.8,1.65-6.702.665-9.061,1.043-10.476,1.679-2.496,1.123-8.576,2.665-10.51,2.665-.432,0-2.233.707-4.001,1.571-1.769.864-4.385,1.886-5.814,2.271-1.43.385-3.409,1.268-4.399,1.962-.99.695-2.88,1.585-4.2,1.98-1.32.394-2.94,1.223-3.6,1.841-.66.619-2.28,1.67-3.6,2.336-1.32.667-3.118,1.848-3.996,2.625-.877.778-1.832,1.414-2.122,1.414s-1.435.894-2.544,1.986c-1.11,1.092-2.35,2.091-2.757,2.22s-.837.541-.956.914c-.119.374-.875,1.22-1.681,1.88-.805.66-1.662,1.446-1.904,1.747s-1.258,1.381-2.257,2.4-2.203,2.486-2.675,3.26-1.322,1.843-1.89,2.376-1.47,1.88-2.005,2.993c-.536,1.113-1.527,2.654-2.203,3.424s-1.341,1.85-1.477,2.4c-.369,1.488-1.767,4.437-2.75,5.8-.476.66-1.173,2.55-1.548,4.2-.667,2.935-1.052,4.175-2.048,6.6-1.225,2.98-1.428,3.855-1.816,7.803-1.356,13.811-.642,29.356,1.674,36.437c1.446,4.421,2.162,7.087,2.563,9.547.16.983.719,2.464,1.242,3.292.522.828.95,1.691.95,1.918c0,.228.18.771.4,1.208s.558,1.117.751,1.51c.192.394.475,1.453.627,2.354.152.902.605,1.992,1.007,2.423.965,1.036,1.751,2.628,2.619,5.308.393,1.21,1.399,3.163,2.237,4.34.838,1.178,1.739,2.798,2.002,3.6.263.803.883,2,1.378,2.66c1.276,1.703,2.579,4.124,2.579,4.793c0,.313.618,1.169,1.374,1.903.755.734,1.834,2.251,2.398,3.373.563,1.121,1.745,2.911,2.626,3.978.881,1.066,1.602,2.223,1.602,2.571s.563,1.161,1.252,1.807c.688.646,1.864,2.12,2.612,3.275s1.53,2.1,1.737,2.1c.206,0,1.146,1.149,2.087,2.554c1.984,2.96,3.669,5.041,6.632,8.192c4.464,4.746,5.9,6.318,6.48,7.096.33.442,1.174,1.203,1.876,1.691s1.38,1.198,1.506,1.577c.127.38,1.038,1.23,2.027,1.89.988.66,1.895,1.47,2.015,1.8s1.072,1.249,2.116,2.042c2.682,2.038,4.86,5.801,4.86,8.395c0,2.936,1.704,5.454,4.799,7.093.648.343,3.3.611,7.526.762c9.175.327,9.667.776,7.133,6.508-.243.55-.828,1.54-1.3,2.2-3.012,4.211-1.829,8.603,2.316,8.598c5.445-.008,7.298-.932,8.799-4.39.428-.986.915-1.886,1.084-2c.559-.38,1.513-2.656,2.243-5.354c1.397-5.16,2.23-5.449,15.723-5.452c13.785-.003,16.477,1.103,16.477,6.766c0,.545,1.204,3.298,1.588,3.632.527.458,1.612,2.411,1.612,2.901c0,1.342,2.192,3.105,4.355,3.503c8.347,1.535,10.621-2.059,5.856-9.258-.556-.841-1.019-1.758-1.029-2.037-.009-.28-.255-1.176-.546-1.991-1.001-2.802.174-3.381,7.385-3.64c7.343-.263,9.2-1.996,10.564-9.857.678-3.905.821-4.264,2.17-5.466c3.991-3.554,14.953-14.196,16.057-15.587.336-.424,1.057-1.131,1.602-1.57.544-.439,1.289-1.248,1.655-1.798s1.355-1.752,2.198-2.671c1.781-1.941,2.074-2.312,3.103-3.929.42-.66,1.157-1.56,1.637-2s1.434-1.633,2.119-2.652c.686-1.018,1.477-1.944,1.76-2.056s.87-.899,1.306-1.748c.435-.849,1.345-2.084,2.022-2.744s1.664-2.069,2.195-3.131c.53-1.062,1.437-2.426,2.015-3.031s1.478-1.955,2-3s1.451-2.426,2.066-3.069c.614-.642,1.417-1.933,1.785-2.869.368-.935,1.132-2.397,1.697-3.249c1.36-2.048,1.81-2.852,2.996-5.349.548-1.154,1.358-2.485,1.8-2.959.441-.474,1.181-2.087,1.645-3.584.463-1.498,1.275-3.316,1.805-4.041c1.28-1.754,1.729-2.822,2.49-5.918.351-1.43,1.043-3.23,1.538-4c1.054-1.64,2.381-5.764,2.761-8.583.147-1.091.611-2.716,1.033-3.612c2.047-4.356,2.755-10.293,2.744-23.005-.012-12.236-.629-17.153-2.688-21.4-.427-.88-1.094-2.95-1.482-4.6-.735-3.119-1.397-4.704-2.506-5.999-.359-.419-1.069-1.871-1.579-3.227-.51-1.357-1.456-3.068-2.102-3.804s-1.486-2.02-1.867-2.854-1.167-1.966-1.746-2.516c-.58-.55-1.577-1.72-2.216-2.6-1.318-1.814-9.249-9.8-9.732-9.8-.174,0-.845-.559-1.491-1.241-.646-.683-2.12-1.851-3.275-2.595-1.155-.745-2.1-1.544-2.1-1.776s-1.132-.929-2.515-1.55c-1.384-.621-3.139-1.704-3.9-2.406-.762-.703-1.884-1.38-2.493-1.506-.61-.126-1.206-.386-1.324-.578-.118-.191-.495-.348-.838-.348s-1.467-.62-2.5-1.378c-1.278-.938-2.822-1.592-4.839-2.051-1.629-.371-4.058-1.266-5.399-1.99-1.34-.723-3.147-1.431-4.014-1.572-4.33-.705-9.508-1.998-10.378-2.592-.22-.15-1.12-.488-2-.751-1.458-.435-3.33-.661-13.8-1.671-1.87-.18-6.1-.609-9.4-.953-6.352-.662-24.319-.81-28.8-.236m31.2,2.003c13.549.59,17.037,1.019,20.162,2.478c1.486.695,3.753,1.349,5.4,1.56c5.51.706,8.047,1.259,8.838,1.929c1.558,1.318,2.839,1.926,4.609,2.188c3.539.525,5.416,1.198,6.942,2.488c1.006.851,2.306,1.469,3.696,1.758c1.62.336,2.513.817,3.649,1.964.936.946,2.42,1.85,3.93,2.394c1.698.612,2.625,1.211,3.088,1.994.388.657,1.37,1.392,2.374,1.778c1.061.408,1.965,1.105,2.379,1.834.367.647,1.402,1.551,2.3,2.009s1.633.965,1.633,1.125c.001.494,1.867,2.492,2.326,2.492.238,0,.937.675,1.554,1.5c1.471,1.97,1.986,2.5,2.428,2.5.202,0,.709.672,1.129,1.494.888,1.738,1.182,2.073,2.647,3.01.675.432,1.246,1.291,1.511,2.277.382,1.42,1.21,2.673,3.277,4.965.37.41.798,1.484.95,2.387.283,1.671,1.797,4.473,2.556,4.727.23.077.701,1.58,1.047,3.34.804,4.088,1.706,6.922,2.628,8.248c2.387,3.438,2.226,32.869-.201,36.644-1.013,1.577-1.438,3.152-2.446,9.083-.393,2.31-.88,3.868-1.375,4.4-1.023,1.1-1.899,3.463-2.445,6.599-.359,2.062-.751,2.918-1.972,4.306-1.109,1.259-1.602,2.246-1.808,3.62-.296,1.973-1.2,4.1-1.743,4.1-.485,0-1.935,2.797-2.447,4.721-.274,1.028-1.054,2.32-1.937,3.209-.908.913-1.769,2.357-2.231,3.739-.453,1.359-1.273,2.745-2.069,3.495-.724.683-1.439,1.799-1.588,2.479-.15.68-.961,1.905-1.803,2.722s-1.987,2.484-2.545,3.704-1.56,2.649-2.226,3.175c-.689.544-1.312,1.488-1.446,2.191-.13.679-.602,1.489-1.05,1.8-2.121,1.472-2.721,2.078-2.721,2.747c0,.399-.675,1.338-1.5,2.087-.825.75-2.022,2.166-2.659,3.147-.638.981-1.74,2.355-2.449,3.053-.708.698-1.689,1.917-2.179,2.71-.49.792-1.377,1.692-1.972,2s-1.419,1.251-1.829,2.095c-.431.885-1.269,1.788-1.98,2.131-.677.327-1.592,1.276-2.032,2.108-.45.851-1.201,1.615-1.716,1.747-.939.241-2.884,2.451-2.884,3.278c0,.254-.298.462-.662.462-.792,0-3.338,1.868-3.338,2.449c0,.52-1.02,1.551-1.535,1.551-2.342,0-4.865,5.389-4.865,10.393c0,1.245-.954,2.868-2.786,4.736-.913.933-1.364,1.028-6.2,1.317-2.867.171-5.335.321-5.483.333-.851.067-2.731,2.208-2.731,3.11c0,2.286,1.676,6.792,2.83,7.611.895.635,1.654,3.996,1.125,4.984-.325.607-.933.716-4.007.716-4.446,0-5.749-.595-6.099-2.785-.288-1.8-1.187-3.654-2.229-4.597-.471-.426-1.05-1.896-1.442-3.66-1.21-5.437-2.099-5.744-16.672-5.752-15.009-.008-15.888.313-17.239,6.309-.532,2.361-.929,3.314-1.45,3.48-.719.228-2.017,3.018-2.017,4.337c0,1.89-1.715,2.668-5.886,2.668-5.4,0-6.114-1.776-2.549-6.337c1.693-2.166,2.684-6.917,1.767-8.47-1.044-1.768-2.053-1.993-8.948-1.993h-6.378l-1.069-1.2c-.588-.66-1.297-1.2-1.576-1.2-1.12,0-2.045-2.169-2.276-5.338-.253-3.469-1.198-5.321-3.768-7.383-.739-.593-2.301-2.024-3.471-3.179-1.169-1.155-2.378-2.101-2.686-2.103s-.956-.696-1.439-1.543c-.493-.864-1.412-1.76-2.095-2.043-.79-.327-1.525-1.123-2.098-2.269-.502-1.005-1.241-1.855-1.716-1.975-.459-.115-1.336-1.001-1.948-1.969s-1.417-1.86-1.789-1.982c-.371-.123-1.567-1.495-2.658-3.05-1.09-1.555-2.288-2.99-2.661-3.19-.373-.199-1.055-1.14-1.515-2.091-.46-.95-1.531-2.25-2.379-2.888-.85-.64-1.704-1.707-1.902-2.377-.204-.69-.916-1.564-1.645-2.018-.706-.441-1.291-1.106-1.3-1.478-.008-.372-.195-.788-.415-.924s-.4-.584-.4-.995-.643-1.429-1.428-2.262c-1.367-1.449-1.82-2.153-3.008-4.674-.293-.623-.965-1.358-1.492-1.635-.661-.346-1.252-1.339-1.9-3.193-.589-1.684-1.455-3.204-2.317-4.066-.916-.916-1.535-2.043-1.855-3.376-.281-1.17-.97-2.524-1.66-3.263-1.551-1.661-1.851-2.267-2.376-4.805-.255-1.23-.94-2.764-1.619-3.629-1.33-1.689-2.157-3.778-2.56-6.46-.15-1.003-.815-2.679-1.477-3.723-1.392-2.194-2.126-4.528-2.493-7.919-.305-2.812-.773-4.525-1.916-7-2.778-6.018-2.68-32.595.14-38.013.634-1.219,1.344-3.29,1.576-4.602c1.002-5.667,1.357-6.811,2.56-8.24.781-.928,1.486-2.467,1.944-4.246.576-2.236.994-3.02,2.1-3.943.759-.633,1.381-1.297,1.381-1.476c0-.887,1.682-3.819,2.8-4.88.695-.66,1.597-1.928,2.005-2.818.407-.889,1.219-1.874,1.804-2.187s1.414-1.256,1.842-2.096c.458-.898,1.321-1.785,2.095-2.154.724-.345,1.639-1.226,2.033-1.957.401-.745,1.267-1.55,1.968-1.829c1.389-.552,2.361-1.411,2.749-2.43.141-.369,1.092-1.04,2.112-1.491c1.021-.452,2.761-1.635,3.867-2.63c1.106-.994,2.402-1.808,2.879-1.808.938,0,2.364-.875,3.643-2.235.709-.754,4.322-2.164,5.549-2.165.25-.001.994-.472,1.654-1.048c1.622-1.414,3.951-2.372,6.6-2.713c1.57-.202,2.638-.632,3.729-1.503c1.663-1.328,4.352-2.086,8.878-2.506c2.837-.263,4.127-.632,7.393-2.118c4.481-2.039,31.877-3.094,54.6-2.103M191.341,92.01c-3.281.345-5.472.985-6.142,1.791-.255.308-1.305.677-2.332.819-3.725.518-6.013,1.391-7.347,2.806-.713.756-1.602,1.374-1.976,1.374-.874,0-6.577,5.514-6.93,6.7-.147.495-.428.9-.625.9-.766,0-2.322,2.185-3.021,4.241-.403,1.187-.848,2.159-.987,2.159-.828,0-2.341,4.194-2.944,8.156-.416,2.737-.943,4.75-1.417,5.416-3.127,4.392-3.175,48.17-.058,53.454.511.866.968,3.073,1.413,6.827.85,7.163,1.82,10.923,3.03,11.747.162.11.664,2.36,1.116,5c.912,5.324,1.375,6.818,2.481,8c.412.44.939,1.88,1.172,3.2c1.003,5.689,1.371,6.768,2.872,8.422.42.462,1.08,2.386,1.508,4.4.911,4.276,1.433,5.699,2.405,6.544.428.373,1.018,1.953,1.432,3.834.944,4.292,1.357,5.319,2.683,6.676.619.633,1.126,1.523,1.126,1.976c0,1.722,1.319,5.255,2.436,6.528.64.729,1.164,1.506,1.164,1.727c0,1.559,2.306,7.571,3.007,7.84.279.108.974,1.153,1.545,2.324c1.961,4.024,1.071,3.729,11.231,3.729h8.949l.834-.961c.459-.529.834-1.069.834-1.201s.765-1.061,1.7-2.065c1.394-1.497,1.823-2.349,2.381-4.73.513-2.188,1.025-3.284,2.077-4.449.842-.932,1.5-2.152,1.657-3.07.429-2.507,1.104-4.113,2.285-5.436.614-.688,1.305-1.979,1.534-2.869.23-.891.586-2.172.792-2.847.206-.676.374-1.523.374-1.882c0-.36.405-1.077.9-1.594c1.39-1.453,1.842-2.449,2.254-4.97.481-2.951,1.02-4.341,2.247-5.8.967-1.149,1.201-1.837,2.221-6.526.323-1.482.946-2.893,1.629-3.689c1.103-1.286,1.943-3.525,1.947-5.191.005-2.077,1.64-6.92,2.336-6.92.401,0,1.158-2.19,1.451-4.2.827-5.677,1.256-7.348,2.342-9.128.861-1.412,1.274-2.75,1.544-5c.912-7.618,1.277-9.613,2.138-11.672c1.881-4.503,1.991-6.057,1.991-28.2v-20.8l-1.474-3c-.945-1.922-1.722-4.336-2.163-6.718-.53-2.865-.907-3.92-1.647-4.6-.528-.485-1.574-2.187-2.324-3.782-.751-1.595-1.524-2.9-1.719-2.9-.553,0-2.873-2.348-2.873-2.907c0-.518-.802-1.125-3.2-2.421-.77-.416-1.76-1.071-2.2-1.456-1.72-1.506-4.353-2.468-8.3-3.034-1.045-.15-1.9-.389-1.9-.531c0-1.866-15.402-3.101-25.459-2.041M207.8,93.613c3.747.424,6.899.981,8.709,1.54.71.22,2.371.619,3.691.889c2.741.56,3.56.911,5.093,2.186.602.5,1.952,1.328,3,1.841c1.049.512,2.26,1.381,2.692,1.931s1.581,1.798,2.555,2.772c.973.975,2.128,2.595,2.567,3.6.439,1.006,1.374,2.638,2.078,3.628.768,1.081,1.477,2.758,1.776,4.2c1.189,5.738,1.749,8.027,2.06,8.413c2.084,2.589,2.538,31.848.648,41.787-.314,1.65-.935,4.89-1.38,7.2s-1.023,5.73-1.283,7.6c-.546,3.917-.947,5.404-2.222,8.238-.504,1.121-1.034,2.921-1.177,4-.462,3.478-1.459,7.103-2.631,9.562-.629,1.32-1.431,3.84-1.781,5.6-.656,3.3-1.386,5.255-2.617,7.014-.39.557-.833,1.727-.985,2.6-.44,2.53-1.362,5.044-2.572,7.013-.618,1.004-1.318,2.734-1.556,3.844-.457,2.131-1.945,6.181-2.397,6.525-.556.423-1.223,1.96-1.501,3.455-.357,1.921-1.473,4.579-2.538,6.042-.443.609-1.249,2.431-1.792,4.048-.542,1.618-1.444,3.603-2.004,4.411-.559.808-1.392,2.611-1.851,4.006-.799,2.437-2.311,5.228-3.445,6.362-.295.295-.537.672-.537.837c0,.164-.528.891-1.174,1.614l-1.174,1.315-7.726-.155c-8.978-.181-8.762-.1-10.695-3.98-.753-1.511-1.69-3.093-2.084-3.515-.393-.422-.832-1.278-.975-1.902-.767-3.347-1.803-5.771-3.026-7.084-.41-.441-.746-1.013-.746-1.273c0-1.236-2.088-6.817-2.76-7.377-.59-.491-1.223-2.089-1.839-4.641-.781-3.235-1.806-6.159-2.158-6.159-.399,0-1.137-1.992-1.852-5-.366-1.54-1.269-4.011-2.007-5.49-.738-1.48-1.625-3.91-1.972-5.4-.805-3.461-1.779-6.386-2.634-7.91-.37-.66-.984-2.91-1.363-5-.842-4.631-1.65-7.303-3.047-10.071-.186-.369-.542-2.259-.791-4.2-.804-6.279-1.13-8.282-1.779-10.929-1.032-4.214-1.35-6.295-1.834-12-.596-7.041-.202-27.524.6-31.2.313-1.43.854-3.86,1.204-5.4.745-3.283,1.656-7.757,2.025-9.949.25-1.482.907-3.022,1.472-3.453.146-.111.836-1.641,1.534-3.4s1.526-3.343,1.839-3.52c.314-.178,1.154-1.186,1.866-2.241c1.489-2.205,5.106-5.619,6.965-6.574.698-.358,1.824-1.158,2.502-1.778.851-.777,2.193-1.356,4.331-1.87c1.704-.41,4.448-1.102,6.098-1.538c4.855-1.285,14.331-1.774,20.6-1.064m-77.091,18.384c-1.33.401-6.877,5.992-7.908,7.971-.411.788-1.264,1.91-1.897,2.493-.633.584-1.401,1.821-1.707,2.748-.306.928-1.134,2.281-1.839,3.008-1.202,1.237-2.004,3.254-2.776,6.983-.159.77-.611,1.625-1.004,1.9-4.003,2.804-3.983,40.875.024,46.502.46.646,1.003,2.125,1.208,3.287.8,4.547,1.677,7.016,2.759,7.774.46.323.994,1.669,1.438,3.625.724,3.192,1.388,4.636,2.641,5.743.393.346,1.005,1.516,1.36,2.6.995,3.035,1.653,4.304,2.705,5.219.531.462,1.218,1.699,1.527,2.749.377,1.287.984,2.234,1.86,2.903.715.546,1.3,1.216,1.3,1.489c0,.967,2.537,5.398,3.213,5.613.378.12.997,1.031,1.377,2.024.379.994,1.216,2.196,1.86,2.672.643.476,1.626,1.828,2.182,3.005.557,1.177,1.705,2.832,2.551,3.678s1.671,1.961,1.833,2.478c.312.993,1.968,2.739,2.599,2.739.206,0,.643.643.971,1.429.612,1.463,2.045,2.934,2.882,2.958.258.007.584.541.726,1.186s1.026,1.881,1.964,2.746c.939.865,2.302,2.541,3.03,3.724c1.654,2.687,2.233,3.128,4.125,3.144.986.009,1.577.222,1.7.613.576,1.846.75,1.986.891.723.079-.703-.155-2.143-.52-3.2-.366-1.058-.826-3.175-1.023-4.706-.28-2.166-.626-3.113-1.562-4.278-1.479-1.84-1.845-2.778-2.436-6.23-.495-2.898-.857-3.815-1.984-5.024-.878-.942-1.801-3.781-2.152-6.62-.271-2.194-.705-3.25-1.931-4.695-.794-.936-1.681-4.126-2.031-7.299-.258-2.341-1.053-4.871-1.531-4.871-.876,0-2.104-4.292-2.486-8.684-.26-2.993-.629-4.149-2.082-6.516-.876-1.428-1.404-4.104-2.117-10.719-.29-2.689-.728-4.406-1.583-6.2-1.278-2.684-1.853-6.371-2.258-14.481-.288-5.766-.867-10.024-1.93-14.2-1.328-5.216-1.293-25.246.053-30.6c1.349-5.365,1.347-5.344.595-6.618-.745-1.261-2.21-1.51-4.617-.785m134.351.644c-.812,1.114-.771,1.83.346,6.159c1.642,6.361,1.577,25.406-.113,33-1.035,4.649-1.627,9.566-1.903,15.8-.258,5.832-.846,9.303-1.872,11.047-1.037,1.76-1.793,4.995-2.095,8.953-.334,4.385-.946,7.131-1.887,8.474-1.154,1.645-1.809,3.851-2.119,7.135-.351,3.716-.944,5.953-1.853,6.991-1.031,1.178-1.783,3.509-2.575,7.983-.449,2.534-.954,4.207-1.39,4.6-.845.762-1.72,3.239-2.605,7.377-.396,1.853-1.006,3.508-1.473,4-1.231,1.296-1.533,2.176-2.687,7.828-.246,1.203-.715,2.337-1.043,2.521-.992.555-2.043,3.125-2.536,6.201-.256,1.601-.731,3.671-1.055,4.6-.323.93-.591,2.11-.594,2.623-.008,1.207.896.934,1.199-.363.186-.794.513-.993,1.811-1.098c1.703-.138,3.088-1.156,4.028-2.963.312-.601,1.555-2.198,2.762-3.551c1.207-1.352,2.194-2.705,2.194-3.005s.628-.952,1.396-1.449c.799-.518,1.58-1.454,1.827-2.192.237-.708,1.129-1.84,1.982-2.516.854-.676,1.859-1.926,2.235-2.778s1.068-1.755,1.539-2.007c.85-.455,3.021-3.662,3.021-4.463c0-.231.81-1.207,1.8-2.169c1.034-1.005,1.8-2.116,1.8-2.61c0-.474.609-1.425,1.354-2.115c1.362-1.261,3.046-4,3.046-4.955c0-.282.598-1.095,1.33-1.806.731-.711,1.66-2.193,2.064-3.293.405-1.1,1.177-2.431,1.716-2.959c1.156-1.129,2.469-3.857,2.481-5.156.005-.51.692-1.627,1.55-2.519c1.153-1.2,1.667-2.177,2.046-3.885.793-3.582,1.209-4.78,1.841-5.304c1.107-.919,2.301-4.258,2.778-7.769.149-1.096.601-2.456,1.005-3.023c2.366-3.323,2.954-8.159,2.966-24.385.011-16.185-.517-20.251-2.99-23-.396-.44-.91-1.843-1.143-3.118-.534-2.923-1.445-4.86-2.663-5.658-.544-.356-1.138-1.32-1.39-2.259-.243-.901-1.15-2.406-2.016-3.346s-1.575-1.874-1.575-2.077c0-1.295-6.646-7.789-8.385-8.194-2.388-.555-3.364-.392-4.155.693M132.759,114.55c.342.412.343,2.949.004,10.1-.337,7.097-.337,11.862-.002,18.55.452,9.017.591,10.307,1.828,17c.808,4.373,1.27,7.822,1.811,13.539.27,2.858.822,5.557,1.616,7.907c1.084,3.21,1.83,6.697,2.557,11.954.258,1.866.781,3.465,2.026,6.2.723,1.587.913,2.38,1.775,7.4.446,2.602,1.149,4.824,1.644,5.2.468.355,1.898,4.926,2.378,7.6.256,1.43,1.014,3.68,1.683,5c1.252,2.467,2.045,4.851,2.505,7.527.144.84.607,2.1,1.027,2.8c1.292,2.149,1.89,3.683,2.628,6.738.394,1.628,1.3,3.862,2.035,5.016c1.532,2.405,1.707,4.274.573,6.138l-.754,1.239-1.426-2.329c-.784-1.281-1.938-2.666-2.565-3.078-.628-.412-1.542-1.446-2.032-2.298s-1.333-1.838-1.874-2.192c-.54-.354-1.384-1.3-1.876-2.102-.491-.803-1.497-1.998-2.235-2.657-.737-.659-1.615-1.776-1.949-2.481-.335-.706-1.065-1.775-1.621-2.375-.557-.601-1.559-2.004-2.227-3.119s-1.787-2.657-2.487-3.427-1.741-2.224-2.314-3.232c-.572-1.007-1.317-2.061-1.654-2.341-.338-.28-1.092-1.525-1.676-2.768-.585-1.242-1.669-2.935-2.41-3.76-.741-.826-1.347-1.7-1.347-1.942c0-.697-1.886-4.269-2.737-5.182-.425-.456-1.16-1.852-1.634-3.102-.473-1.25-1.372-2.993-1.997-3.873s-1.452-2.77-1.838-4.2-1.288-3.68-2.005-5c-.716-1.32-1.767-4.253-2.335-6.517-.568-2.265-1.326-4.785-1.684-5.6-.358-.816-.811-1.843-1.005-2.283-2.506-5.67-1.764-33.48,1.047-39.249.763-1.567,1.388-3.081,1.388-3.365c0-1.123,1.431-5.032,2.118-5.786.401-.44,1.278-1.915,1.95-3.278.671-1.363,1.558-2.784,1.971-3.158.414-.374,1.319-1.564,2.013-2.645c3.16-4.924,7.734-8.223,9.107-6.569m139.782,1.737c1.287,1.253,3.023,3.283,3.858,4.511.834,1.229,1.808,2.476,2.164,2.771s1.173,1.638,1.816,2.984c.644,1.346,1.508,2.808,1.92,3.25.722.772,1.312,2.275,2.746,6.997.367,1.21.981,2.65,1.364,3.2c2.977,4.275,2.802,33.979-.239,40.627-.533,1.167-.97,2.345-.97,2.619c0,.273-.173,1.05-.385,1.726-.212.675-.686,2.436-1.055,3.912-.368,1.475-1.004,3.042-1.413,3.481-.721.773-1.092,1.732-2.515,6.481-.37,1.236-.999,2.597-1.398,3.025s-1.02,1.443-1.38,2.254-.952,2.15-1.316,2.975-1.065,2.04-1.559,2.7-1.436,2.395-2.093,3.855-1.474,2.81-1.815,3.001-1.23,1.559-1.975,3.039-1.926,3.319-2.625,4.087-1.271,1.567-1.271,1.775c0,.716-1.401,2.845-2,3.041-.33.107-1.097,1.083-1.706,2.167-.608,1.085-1.741,2.733-2.517,3.663-.777.93-1.862,2.457-2.411,3.395-.55.937-1.254,1.802-1.566,1.921-.311.12-1.054.991-1.651,1.937-.597.945-1.655,2.259-2.351,2.919s-1.764,1.887-2.373,2.727-1.494,1.705-1.966,1.921c-.473.217-1.489,1.462-2.259,2.767-1.617,2.741-1.732,2.797-2.403,1.178-.869-2.099-.695-4.127.487-5.677c1.019-1.335,2.347-4.912,2.939-7.916.152-.77.602-1.86.999-2.423c1.056-1.494,2.449-5.503,2.971-8.543.147-.862.704-2.208,1.238-2.993.533-.785.969-1.734.969-2.11s.16-.783.356-.904c.195-.121.443-.806.551-1.523.545-3.64,1.242-6.106,2.286-8.091.645-1.227,1.446-3.739,1.818-5.703.878-4.636,1.339-6.293,2.445-8.799.855-1.936,1.217-3.517,2.129-9.311.466-2.964,1.154-6.025,1.572-7c.189-.44.538-1.286.776-1.88.237-.594.712-3.474,1.054-6.4.942-8.056,1.846-14.405,2.209-15.52c1.118-3.435,1.403-8.789,1.386-26-.012-11.946.119-17.897.4-18.094c1.127-.792,2.493-.223,4.759,1.981M159.561,320.359c-2.39.257-2.836.509-5.425,3.053-3.827,3.76-2.717,10.034,2.199,12.434c3.414,1.666,3.072,1.004,4.933,9.554.239,1.1.567,2.18.729,2.4.387.528,1.378,4.055,2.213,7.878.666,3.045.702,3.103,3.46,5.5l2.787,2.422h29.482c27.284,0,29.557-.052,30.472-.691.903-.631,1.934-1.534,4.223-3.702.787-.745,1.28-2.36,2.138-7.007.203-1.1.922-3.584,1.599-5.519.676-1.936,1.23-3.916,1.231-4.4.005-2.799,1.348-4.836,4.164-6.316c7.525-3.957,5.331-14.483-3.249-15.589-3-.386-77.38-.402-80.956-.017m80.659.904c1.883.347,2.629.681,2.977,1.332.256.478,1.037,1.201,1.734,1.607c2.767,1.609,3.034,6.653.482,9.117-.972.939-3.235,2.281-3.845,2.281-1.208,0-2.567,2.613-3.007,5.778-.152,1.088-.572,2.296-.934,2.686-.703.754-1.694,4.626-2.442,9.536-.671,4.405-.785,4.746-1.684,5.031-.451.144-1.631,1.095-2.622,2.115l-1.801,1.854-26.039.13c-31.473.158-32.349.112-33.56-1.773-.483-.752-1.538-1.663-2.342-2.023-1.608-.72-1.543-.53-2.359-6.934-.239-1.87-.888-4.48-1.444-5.8-.555-1.32-1.426-3.892-1.935-5.715-1.089-3.902-1.19-4.045-3.682-5.262-5.175-2.527-6.858-8.947-2.811-10.725.608-.268,1.313-.941,1.566-1.496.441-.968,1.746-1.554,4.328-1.942c2.781-.419,77.075-.229,79.42.203" fill="#9c7e84" fill-rule="evenodd"/><path d="M186.6,72.046c-1.54.189-4.091.506-5.67.705-1.578.198-3.419.634-4.091.97-.672.335-2.621.722-4.33.861-11.681.945-15.029,1.553-16.595,3.012-.449.419-2.326.938-4.914,1.36-4.602.749-6.786,1.503-7.761,2.678-.567.684-1.638,1.026-5.777,1.845-.625.124-1.705.793-2.4,1.488-.868.868-2.085,1.485-3.895,1.975-2.435.659-4.767,2.164-4.767,3.076c0,.211-.315.388-.7.393-1.271.016-3.974,1.482-5.546,3.01-.852.827-2.145,1.752-2.873,2.057-.729.304-1.693,1.177-2.143,1.939-.449.762-1.135,1.385-1.523,1.385-.819,0-2.815,1.864-2.815,2.629c0,.286-.722.926-1.605,1.422-1.045.587-1.839,1.433-2.277,2.425-.388.879-.952,1.524-1.333,1.524-.861,0-1.802,1.065-2.575,2.915-.341.817-.789,1.485-.995,1.485-.529,0-2.415,1.807-2.415,2.313c0,.682-1.324,2.957-2.339,4.019-1.017,1.064-2.196,3.55-2.639,5.566-.152.696-.591,1.365-.974,1.487-1.042.331-2.387,3.933-3.066,8.213-.157.989-.61,2.079-1.006,2.423-3.044,2.64-4.203,26.444-2.19,44.979.366,3.366,1.356,6.514,2.244,7.136.523.367.881,1.374,1.172,3.296.884,5.859,1.491,7.768,2.75,8.649.532.373,1.026,1.543,1.464,3.469.773,3.4,1.286,4.497,2.727,5.833.582.538,1.06,1.392,1.063,1.898.01,1.497,1.825,5.919,2.43,5.919.603,0,1.564,1.271,1.564,2.07c0,1.218,1.878,4.719,3.008,5.608.546.429.992,1.116.992,1.527s.18.859.4.995.4.514.4.84c0,.71,1.125,1.933,2.1,2.283.385.139.7.576.7.972c0,1.187,2.187,5.077,3.081,5.481.718.325,2.119,2.701,2.119,3.594c0,.431,1.711,1.801,2.268,1.817.258.007.593.579.745,1.271.156.713,1.037,1.998,2.032,2.965.965.938,1.755,1.809,1.755,1.935c0,.734,2.648,4.356,3.391,4.639.488.185,1.193.984,1.569,1.774.375.791,1.167,1.751,1.761,2.133c1.148.74,2.444,2.102,2.466,2.591.027.605,1.413,1.905,2.031,1.905.356,0,1.028.777,1.516,1.753.541,1.084,1.309,1.934,2.01,2.224.624.258,1.699,1.269,2.387,2.246.689.978,1.495,1.777,1.791,1.777.574,0,2.278,1.63,2.278,2.179c0,.469,1.633,1.821,2.199,1.821.633,0,1.801,1.316,1.802,2.031.001.313.399,1.199.884,1.969c1.103,1.752,1.901,3.908,1.909,5.156.008,1.221,1.507,4.236,2.699,5.428c1.286,1.285,2.55,1.499,10.507,1.774l7,.242-.042,1.454c-.025.905-.375,1.811-.926,2.4-2.943,3.147-3.894,10.006-1.753,12.653c2.854,3.529,13.696,1.007,13.724-3.193.002-.283.608-1.151,1.346-1.929c1.077-1.136,1.466-2.025,1.972-4.508.64-3.137,2.451-6.046,4.202-6.749c2.472-.992,23.277-.209,23.277.877c0,.152.54.841,1.2,1.532s1.208,1.662,1.218,2.159c.015.805.52,2.78,1.376,5.385.159.485.705,1.154,1.213,1.487s1.038,1.126,1.178,1.763c.792,3.607,9.689,6.51,12.788,4.173c2.971-2.242,2.754-9.522-.396-13.236-2.902-3.421-2.21-4.463,2.972-4.481c7.413-.025,10.851-.94,10.851-2.888c0-.209.784-1.175,1.743-2.147l1.743-1.768.213-4.177c.222-4.356.493-5.033,2.235-5.586.493-.156,1.34-.988,1.883-1.848.567-.898,1.571-1.808,2.359-2.137.781-.327,1.648-1.109,2.016-1.82.354-.685,1.247-1.534,1.984-1.885.745-.356,1.671-1.267,2.085-2.054.41-.779,1.284-1.712,1.942-2.073.659-.362,1.559-1.346,2.001-2.187.442-.84,1.211-1.679,1.709-1.863.499-.185,1.397-1.15,1.997-2.145.599-.995,1.455-1.909,1.901-2.03.447-.122,1.338-1.067,1.981-2.1s1.879-2.599,2.747-3.479s1.809-2.149,2.092-2.82c.282-.67,1.232-1.832,2.111-2.58.994-.846,1.687-1.829,1.831-2.596.15-.802.651-1.482,1.43-1.942.701-.414,1.549-1.487,2.045-2.585.465-1.032,1.443-2.48,2.173-3.217c1.352-1.366,2.579-3.529,2.579-4.545c0-.311.523-.951,1.163-1.424c1.24-.917,2.213-2.56,2.624-4.431.138-.631.799-1.668,1.468-2.304c1.406-1.336,2.345-2.977,2.345-4.098c0-.43.65-1.56,1.445-2.511c1.621-1.941,2.098-2.952,2.607-5.523.223-1.126.79-2.205,1.548-2.945.657-.643,1.373-1.824,1.591-2.624.219-.8.673-2.445,1.009-3.655.337-1.21,1.142-2.939,1.789-3.842.784-1.093,1.318-2.497,1.599-4.2.666-4.03,1.077-5.495,1.87-6.667c1.724-2.545,1.731-2.585,2.919-17.091.59-7.194.611-11.484.083-16.8-.262-2.64-.642-6.72-.844-9.067-.37-4.284-.652-5.168-2.316-7.262-.495-.623-.9-1.366-.9-1.653c0-2.359-1.402-6.344-2.646-7.517-.745-.702-1.354-1.552-1.354-1.889-.001-1.445-1.557-4.516-2.922-5.766-.813-.745-1.478-1.662-1.478-2.038c0-.904-1.516-3.008-2.166-3.008-.282,0-.831-.706-1.22-1.568-.389-.863-1.091-1.93-1.56-2.371-.47-.442-1.526-1.491-2.347-2.332s-1.721-1.745-2-2.01c-.279-.264-.718-.714-.976-1-.258-.285-1.018-.969-1.69-1.519s-2.048-1.755-3.058-2.678c-1.011-.923-2.41-1.868-3.11-2.101s-1.557-.923-1.904-1.535c-.431-.757-1.417-1.423-3.103-2.093-1.36-.54-2.56-1.254-2.669-1.587-.254-.784-2.756-2.202-4.901-2.78-.925-.249-1.871-.805-2.101-1.235-.602-1.125-2.188-1.833-5.75-2.569-1.719-.355-3.396-.916-3.727-1.247-1.518-1.518-3.869-2.237-10.485-3.208-.971-.143-2.114-.584-2.54-.98-1.243-1.159-4.145-1.878-9.493-2.353-2.75-.243-5.964-.535-7.143-.647-1.178-.112-3.248-.557-4.6-.989-5.472-1.749-28.729-2.697-38.057-1.552m34.4,2.66c7.605.923,12.465,1.491,16.37,1.913c1.304.141,3.317.689,4.475,1.219c1.157.529,2.327.962,2.601.962.273,0,1.05.17,1.726.378.675.208,2.668.663,4.428,1.011c1.76.349,4.46,1.238,6,1.977s4.06,1.668,5.6,2.064c1.54.397,2.89.84,3,.986.405.536,3.452,2.26,5.2,2.943.99.386,2.25,1.114,2.8,1.616s2.058,1.421,3.35,2.041c1.293.62,2.913,1.68,3.6,2.355.688.676,1.839,1.557,2.56,1.957c2.401,1.336,12.111,10.716,14.033,13.557.701,1.037,1.517,2.027,1.814,2.2.296.173,1.119,1.35,1.829,2.615s1.42,2.3,1.579,2.3c.423,0,1.847,2.665,2.832,5.3.473,1.265.987,2.3,1.141,2.3.62,0,2.229,3.96,2.659,6.547.141.851.667,2.471,1.168,3.6c2.441,5.505,2.817,8.527,2.816,22.653-.001,13.436-.546,17.806-2.839,22.748-.344.742-.867,2.632-1.162,4.2-.849,4.516-1.177,5.523-2.5,7.666-.684,1.108-1.365,2.818-1.514,3.8-.293,1.93-2.02,5.986-2.548,5.986-.179,0-.421.315-.538.7-.806,2.639-2.386,6.3-3.194,7.398-1.003,1.364-2.686,4.806-2.686,5.495c0,.22-.54.882-1.2,1.47s-1.2,1.214-1.2,1.391c0,.854-2.264,5.123-3.456,6.518-.739.865-1.344,1.777-1.344,2.028s-.6,1.163-1.334,2.028c-.733.865-1.847,2.472-2.474,3.572s-1.723,2.66-2.435,3.467c-.712.806-1.714,2.202-2.226,3.1-.512.899-1.201,1.726-1.531,1.838-.33.113-1.109,1.058-1.73,2.1-.622,1.042-2.017,2.869-3.1,4.06-1.084,1.19-1.97,2.323-1.97,2.517s-.855,1.264-1.9,2.379c-1.045,1.114-2.8,3.01-3.9,4.213-1.1,1.202-3.035,3.244-4.3,4.537-1.265,1.292-2.3,2.498-2.3,2.678c0,.181-.598.651-1.328,1.044-.731.394-1.633,1.231-2.005,1.862-.373.63-1.261,1.507-1.974,1.947-.712.441-1.835,1.404-2.494,2.141-.66.736-1.76,1.735-2.446,2.218-1.56,1.099-2.02,2.265-2.483,6.299-.351,3.062-2.449,7.398-4.061,8.394-1.208.747-5.338,1.406-8.813,1.406-5.992,0-6.785,1.662-3.432,7.2c3.872,6.395,2.797,10.242-2.755,9.867-5.732-.387-6.349-.709-8.057-4.202-.61-1.246-1.424-2.604-1.81-3.019s-.812-1.315-.947-2-.438-1.786-.673-2.446c-2.064-5.787-2.365-5.891-16.5-5.724-13.648.162-13.401.049-15.474,7.09-.286.971-1.111,2.748-1.834,3.949-.723,1.2-1.32,2.385-1.328,2.633-.065,2.02-4.165,3.852-8.622,3.852-3.095,0-5.164-2.277-4.253-4.68.233-.616.529-1.604.658-2.196s.77-1.942,1.425-3c3.981-6.43,2.821-7.64-7.394-7.709-5.528-.038-7.199-.569-9.298-2.96-1.342-1.528-1.417-1.731-2.089-5.617-.374-2.16-2.3-5.967-3.4-6.721-1.48-1.014-2.449-1.815-2.991-2.474-.342-.416-1.072-1.136-1.622-1.6s-3.183-3.093-5.852-5.843-5.633-5.766-6.588-6.703c-.954-.937-1.921-2.047-2.148-2.467-.226-.419-1.136-1.543-2.021-2.496-.885-.954-2.212-2.684-2.949-3.846-.737-1.161-1.642-2.331-2.01-2.6-.368-.268-1.075-1.155-1.572-1.971-.498-.816-1.398-1.898-2.001-2.406-.603-.507-1.499-1.755-1.992-2.772-.492-1.018-1.384-2.365-1.981-2.994-.597-.63-1.442-1.955-1.878-2.945s-1.471-2.482-2.3-3.315c-.829-.834-1.508-1.708-1.508-1.942c0-.687-1.896-4.264-2.739-5.17-.426-.457-1.088-1.673-1.471-2.702-.604-1.623-2.227-4.257-3-4.871-.138-.11-.56-1.19-.936-2.4-.825-2.649-1.362-3.814-2.493-5.4-.471-.66-1.233-2.469-1.695-4.019-.462-1.551-1.382-3.836-2.045-5.077-.662-1.242-1.491-3.663-1.841-5.381-.702-3.449-1.474-5.996-2.463-8.123-2.826-6.08-2.81-38.112.023-44.493c1.327-2.99,1.718-4.141,2.466-7.266.364-1.518,1.091-3.409,1.616-4.202s1.425-2.611,2.001-4.041c.576-1.429,1.463-3.048,1.97-3.598s1.487-2.131,2.177-3.514c.691-1.382,1.711-2.91,2.268-3.394.558-.485,1.362-1.445,1.788-2.134s1.568-2.103,2.537-3.142c.97-1.04,2.034-2.188,2.364-2.553s1.81-1.743,3.288-3.063s3.25-2.962,3.937-3.649c.686-.688,1.819-1.54,2.517-1.895.698-.354,1.868-1.199,2.6-1.876s2.474-1.787,3.872-2.467c1.397-.68,2.927-1.637,3.4-2.127.472-.49,2.016-1.283,3.431-1.763c2.98-1.01,4.071-1.547,4.628-2.279.22-.289,2.11-1.083,4.2-1.764c2.09-.682,4.547-1.673,5.46-2.203.914-.53,3.164-1.247,5-1.594c3.49-.657,7.455-1.707,8.14-2.155c1.032-.674,3.562-1.252,7.211-1.647c2.194-.237,5.519-.6,7.389-.807c1.87-.206,5.47-.566,8-.8s5.14-.58,5.8-.769c2.512-.72,25.49-.235,33.2.701M191.8,94.042c-1.1.194-3.08.616-4.4.939-1.32.322-3.75.893-5.4,1.269-2.213.505-3.643,1.139-5.451,2.417-1.348.953-2.627,1.733-2.842,1.733-.534,0-4.833,4.233-6.297,6.201-.654.879-1.484,1.869-1.843,2.199s-.97,1.5-1.358,2.6-1.293,3.08-2.012,4.4-1.429,3.21-1.579,4.2-.817,4.41-1.483,7.6c-2.332,11.163-2.319,11.025-2.33,24.8-.01,12.764.256,16.81,1.446,22c1.344,5.859,1.413,6.272,2.361,14.2.243,2.033.919,4.467,1.446,5.21.718,1.013,1.859,5.532,2.57,10.184.151.987.852,2.982,1.558,4.432.706,1.451,1.617,4.244,2.024,6.206s1.061,4.108,1.453,4.768c1.246,2.097,1.848,3.652,2.578,6.665.392,1.614,1.289,4.015,1.994,5.335s1.596,3.75,1.98,5.4c.383,1.65,1.257,3.99,1.941,5.2c1.214,2.147,2.565,5.636,2.618,6.762.014.309.435,1.119.934,1.8c1.338,1.824,3.092,6.086,3.092,7.514c0,.247.447,1.034.993,1.751.546.716,1.62,2.551,2.387,4.079l1.394,2.777l2.472.259c7.959.832,15.554.157,15.554-1.382c0-.216.177-.611.394-.877c1.969-2.415,2.542-3.295,3.354-5.149.513-1.174,1.062-2.663,1.219-3.31.157-.646.679-1.724,1.16-2.394c1.287-1.796,1.654-2.588,2.481-5.35.412-1.373,1.049-2.82,1.416-3.213.976-1.048,1.868-3.119,2.613-6.067.361-1.43.97-3.05,1.354-3.6c1.115-1.601,1.942-3.611,2.632-6.4.353-1.43,1.221-3.59,1.927-4.8s1.529-3.28,1.828-4.6c.534-2.362,1.533-5.008,2.038-5.4.46-.357,1.532-3.724,2.228-6.998.374-1.759.977-3.739,1.339-4.4c1.123-2.048,1.925-4.649,2.651-8.602.383-2.09,1.091-4.7,1.573-5.8c1.274-2.908,1.954-6.134,2.823-13.4.309-2.584,1.194-6.992,1.505-7.494c2.266-3.667,1.83-37.988-.553-43.549-.415-.968-.873-2.704-1.017-3.858-.498-3.988-1.734-7.899-2.496-7.899-.167,0-.899-1.247-1.627-2.771-.747-1.564-2.263-3.765-3.483-5.054-1.187-1.256-2.159-2.411-2.159-2.566c0-.156-.675-.624-1.5-1.041s-2.657-1.557-4.071-2.534c-1.696-1.171-3.262-1.9-4.6-2.14-1.116-.2-2.749-.52-3.629-.711-8.922-1.93-19.37-2.569-25.2-1.541m24.6,2.76c5.179.672,5.74.852,7.028,2.258.676.737,1.369,1.34,1.54,1.34.898,0,3.395,1.517,4.561,2.771.731.786,2.113,2.268,3.071,3.293c1.786,1.911,3,3.872,3,4.844c0,.301.602,1.255,1.337,2.12c1.519,1.786,1.671,2.273,2.469,7.897.802,5.649,1.313,8.108,2.229,10.735c1.173,3.361.962,23.485-.303,28.94-.987,4.258-1.488,7.757-2.35,16.4-.493,4.943-.801,6.582-1.354,7.2-1.055,1.181-1.913,4.226-2.644,9.381-.48,3.392-.841,4.748-1.389,5.223-1.084.94-1.866,3.283-2.603,7.796-.486,2.978-.885,4.256-1.559,5-1.126,1.244-1.607,2.535-2.456,6.6-.389,1.863-.961,3.451-1.367,3.8-1.185,1.017-1.965,2.864-2.621,6.2-.445,2.262-.897,3.45-1.541,4.053-1.125,1.053-1.58,2.23-2.487,6.444-.476,2.207-.92,3.363-1.343,3.497-1.079.343-2.818,4.439-2.818,6.637c0,.685-.355,1.391-.926,1.84-1.418,1.117-2.128,2.474-2.861,5.471-.45,1.836-1.025,3.092-1.742,3.8-.589.582-1.514,1.901-2.056,2.932l-.986,1.874-2.849.267c-2.913.273-9.182.042-11.89-.437-1.515-.269-2.322-1.367-3.255-4.431-.142-.47-.763-1.381-1.379-2.026-.819-.856-1.32-2.05-1.861-4.435-.555-2.446-1.063-3.636-2.028-4.753-1.301-1.506-1.889-2.992-2.357-5.965-.16-1.013-.766-2.22-1.6-3.185-.738-.854-1.428-2.1-1.533-2.768-.825-5.262-1.186-6.501-2.299-7.894-1.489-1.864-1.78-2.642-2.343-6.271-.328-2.116-.797-3.433-1.679-4.715-1.441-2.093-1.832-3.296-2.388-7.335-.301-2.187-.771-3.596-1.735-5.2-1.549-2.575-1.672-3.02-2.224-8.016-.441-3.981-.876-5.496-2.083-7.252-.966-1.404-1.437-4.04-1.947-10.89-.433-5.815-1.083-10.226-2.201-14.935-.482-2.029-.652-4.911-.678-11.507-.035-8.844.103-10.208,1.842-18.2.311-1.43.686-4.13.834-6c.591-7.497,1.022-9.485,2.45-11.289.741-.936,1.453-2.395,1.603-3.283.148-.878.417-1.874.596-2.213.18-.338.423-1.079.541-1.646.122-.588.655-1.232,1.238-1.498.615-.28,1.329-1.181,1.791-2.26.528-1.232,1.145-1.953,1.969-2.303.66-.279,1.619-1.138,2.13-1.908.649-.977,1.466-1.571,2.706-1.966.977-.311,2.232-1.003,2.788-1.539c3.029-2.916,24.106-4.299,38.012-2.493M127.797,116.5c-1.994,2.097-4.197,4.857-4.197,5.26c0,.117-.544.769-1.209,1.449-.664.68-1.595,2.081-2.068,3.114-.473,1.032-1.451,2.7-2.173,3.706-.723,1.006-1.492,2.536-1.709,3.4-.218.864-.561,2.222-.764,3.018-.203.795-.938,2.651-1.634,4.123-2.725,5.768-2.922,31.546-.293,38.353c1.598,4.139,2.25,6.357,2.827,9.611.15.843.788,2.373,1.419,3.4c1.218,1.981,2.178,4.525,2.614,6.931.146.806.565,1.796.931,2.2c1.095,1.21,1.888,2.621,2.66,4.735.402,1.1,1.137,2.555,1.634,3.233c1.309,1.786,2.394,3.81,2.698,5.032.145.586.816,1.576,1.489,2.2c1.027.952,2.778,3.927,2.778,4.719c0,.125.81,1.222,1.8,2.437.99,1.216,1.8,2.466,1.8,2.779s.675,1.254,1.5,2.09c.825.837,1.84,2.149,2.257,2.916.416.767,1.161,1.844,1.657,2.394.495.55,1.544,2.017,2.33,3.261.787,1.244,1.858,2.597,2.38,3.008s1.425,1.5,2.007,2.422c.582.921,1.403,1.859,1.825,2.085s1.323,1.314,2.002,2.418c.679,1.103,1.474,2.006,1.766,2.006.559,0,2.276,1.766,2.276,2.341c0,.184.428.832.95,1.44l.95,1.106.686-1.794c.739-1.936.387-3.282-1.345-5.141-.37-.398-1.006-2.125-1.413-3.838-.406-1.713-1.34-4.336-2.075-5.83-.735-1.493-1.694-4.19-2.132-5.991-.437-1.802-1.339-4.314-2.004-5.583s-1.491-3.703-1.835-5.409c-.678-3.363-1.56-6.014-2.628-7.901-.373-.66-.974-2.82-1.334-4.8-.784-4.311-1.292-6.128-2.475-8.85-.49-1.128-1.177-3.828-1.527-6-.35-2.173-.71-4.31-.8-4.75-.414-2.031-1.064-4.472-1.385-5.2-1.18-2.678-1.229-2.962-2.462-14.2-.205-1.87-.65-4.84-.99-6.6-1.996-10.355-2.292-14.832-2.087-31.565.215-17.527-.13-18.535-4.697-13.735m140.669-1.4c-1.064.906-1.094,1.425-.715,12.1.375,10.526-.223,25.977-1.169,30.2-.94,4.199-1.718,9.109-2.187,13.8-.519,5.19-1.254,9.067-2.315,12.2-.802,2.371-1.048,3.496-2.235,10.245-.333,1.894-1.045,4.414-1.582,5.6-.537,1.185-1.193,3.235-1.458,4.555-1.316,6.559-1.702,8.013-2.377,8.966-.837,1.18-2.028,4.487-2.028,5.628c0,1.479-1.17,5.239-2.338,7.512-.648,1.262-1.486,3.644-1.861,5.294-.376,1.65-1.287,4.127-2.025,5.505s-1.453,3.178-1.589,4c-.444,2.685-1.458,5.196-2.879,7.133-1.013,1.381-1.16,3.061-.408,4.679.648,1.395.823,1.363,1.728-.317.415-.77.893-1.4,1.063-1.4s.309-.265.309-.59c0-.324.495-.847,1.1-1.162c1.3-.676,2.713-2.229,3.08-3.384.143-.452.567-.926.94-1.052.374-.126,1.13-.889,1.68-1.695s1.765-2.225,2.7-3.152s1.7-1.974,1.7-2.325c0-.352.18-.64.4-.64s.4-.19.4-.422.544-.997,1.21-1.7c.665-.703,1.683-2.088,2.262-3.078.578-.99,1.662-2.485,2.408-3.321.746-.837,1.572-2.007,1.836-2.6.512-1.155.904-1.721,1.937-2.798.359-.375,1.157-1.671,1.773-2.881.617-1.21,1.718-2.876,2.447-3.701.73-.826,1.327-1.7,1.327-1.942c0-.698,1.887-4.269,2.739-5.184.426-.457,1.085-1.673,1.466-2.702.719-1.947,2.514-5.324,3.014-5.671.159-.11.599-1.37.979-2.8.686-2.588,1.702-5.219,2.161-5.6.595-.494,1.224-2.092,1.826-4.641.916-3.878,1.818-6.869,2.689-8.917c2.91-6.843,2.45-32.919-.695-39.46-.759-1.576-1.379-3.13-1.379-3.453c0-1.252-1.375-4.612-2.59-6.329-.701-.99-1.517-2.43-1.814-3.2s-1.095-2.03-1.775-2.8c-.679-.77-1.648-2.07-2.154-2.889-1.12-1.815-5.596-6.311-6.282-6.311-.273,0-.866.315-1.319.7m-137.689,2.058c.252.469.469,8.187.571,20.3.174,20.709.504,24.829,2.231,27.904.41.731.857,2.568.993,4.083.884,9.814,1.171,12.191,1.712,14.155.334,1.21.927,2.56,1.32,3c.399.448.823,1.768.964,3c.944,8.239,1.705,11.455,3.079,13.004.392.443.821,1.613.954,2.6.943,7.045,1.679,9.651,3.063,10.851.553.48.916,1.496,1.151,3.223.776,5.71,1.7,8.484,2.992,8.98.314.121.671.877.793,1.681.827,5.432,1.967,8.867,3.167,9.539.346.193.768,1.464,1.028,3.093.243,1.521.542,2.927.664,3.124.121.197-.111.601-.518.899-.925.676-1.543.218-2.139-1.589-.294-.891-.883-1.542-1.777-1.966-.918-.436-1.538-1.138-1.981-2.245-.382-.956-1.061-1.801-1.669-2.078-.615-.28-1.442-1.321-2.07-2.602-.575-1.174-1.824-2.959-2.775-3.967-.952-1.007-1.73-2.142-1.73-2.523c0-.674-2.069-2.824-2.718-2.824-.178,0-.662-.941-1.076-2.091-.413-1.149-1.281-2.672-1.927-3.382-1.291-1.419-2.279-3.127-2.279-3.942c0-.287-.685-1.122-1.522-1.854-1.147-1.003-1.702-1.94-2.256-3.807-.489-1.649-1.172-2.901-2.047-3.748-.921-.893-1.516-2.026-1.998-3.805-.455-1.68-1.139-3.028-2.031-4.002-.74-.808-1.346-1.518-1.346-1.576c0-1.861-1.502-6.685-2.459-7.899-1.3-1.648-2.107-4.315-2.489-8.227-.16-1.643-.723-3.539-1.604-5.4-3.056-6.458-3.072-28.397-.024-34.267.904-1.741,1.542-3.759,1.93-6.107.506-3.064.748-3.675,1.922-4.849.879-.879,1.596-2.19,2.078-3.798.537-1.792,1.059-2.686,1.936-3.31.66-.47,1.444-1.437,1.741-2.148s1.041-1.721,1.654-2.246s1.619-1.626,2.235-2.448c1.266-1.688,1.677-1.822,2.257-.736m140.526.342c.493.605,1.546,1.73,2.34,2.5.793.77,1.747,2.05,2.119,2.845.372.794,1.121,1.646,1.663,1.894c1.028.468,1.395,1.141,2.14,3.924.245.915.938,2.191,1.54,2.837c1.546,1.656,2.005,2.756,2.298,5.5.156,1.46.78,3.496,1.596,5.2c2.938,6.138,3.294,28.682.536,33.908-1.126,2.136-1.551,3.614-2.154,7.492-.757,4.871-1,5.7-1.941,6.624-1.321,1.297-1.784,2.345-2.053,4.641-.324,2.772-.945,4.367-2.04,5.239-.846.675-1.829,2.867-2.324,5.184-.128.598-.942,1.834-1.809,2.745-1.181,1.242-1.689,2.201-2.026,3.826-.397,1.912-1.578,3.741-2.417,3.741-.152,0-.763,1.027-1.357,2.281-.595,1.255-1.68,2.899-2.413,3.653-.762.784-1.519,2.111-1.767,3.097-.308,1.222-.774,1.925-1.603,2.414-.645.381-1.639,1.621-2.218,2.765-.578,1.141-1.461,2.295-1.963,2.563-.808.433-2.581,3.382-3.201,5.327-.123.385-.49.7-.816.7-.715,0-2.633,2.418-2.633,3.319c0,.354-.607.932-1.349,1.284-.884.419-1.597,1.19-2.069,2.238-.83,1.84-1.072,2.053-1.946,1.718-.963-.37-.25-6.555.843-7.31c1.488-1.029,2.297-3.322,3.198-9.064.105-.668.797-1.916,1.537-2.773c1.043-1.207,1.407-2.06,1.617-3.785.547-4.514,1.295-7.223,2.334-8.459.569-.676,1.141-1.711,1.271-2.299s.383-1.609.564-2.269c.18-.66.43-2.445.555-3.966.162-1.968.502-3.179,1.179-4.2c1.635-2.462,2.431-5.499,2.886-11.006.195-2.363.557-3.741,1.42-5.4c1.365-2.626,2.168-6.989,2.541-13.82.195-3.557.474-5.257,1.085-6.6c2.068-4.544,2.763-13.164,2.698-33.477-.056-17.231.004-17.648,2.139-15.031M156.51,319.462c-3.812,1.349-5.697,4.404-5.739,9.299-.046,5.311.849,6.897,4.844,8.583c2.937,1.24,3.258,1.899,3.825,7.856.299,3.133,1.152,5.913,2.148,7c.419.456.908,1.918,1.138,3.4.548,3.535,1.066,4.718,2.4,5.484.624.357,1.525,1.246,2.002,1.975c1.219,1.859-.441,1.778,33.556,1.654l30.883-.113l1.517-1.601c.834-.881,1.923-1.871,2.419-2.2.846-.56,2.097-4.091,2.097-5.915c0-.372.634-1.96,1.408-3.527c1.133-2.293,1.459-3.501,1.665-6.175.419-5.433,1.079-6.755,3.939-7.892c3.678-1.462,4.39-2.552,4.879-7.476.474-4.766-2.25-9.356-6.268-10.56-2.559-.767-84.515-.571-86.713.208m84.141.735c2.285.437,3.361.856,4.014,1.56.491.529,1.044,1.025,1.23,1.103c1.37.569,2.505,3.119,2.505,5.629c0,4.37-1.068,6.006-5.26,8.059l-2.259,1.107-.671,3.072c-.979,4.492-1.856,7.817-2.181,8.273-.424.595-1.169,3.307-1.594,5.8-.472,2.771-.956,4.018-1.894,4.882-.408.375-1.511,1.394-2.452,2.263-2.295,2.122-2.749,2.148-35.598,1.986l-26.508-.131-1.492-1.489c-.82-.819-1.99-1.899-2.599-2.4-.817-.671-1.268-1.596-1.711-3.511-.826-3.565-1.739-6.803-2.256-8-.963-2.228-1.09-2.688-1.334-4.8-.396-3.426-1.715-6.8-2.659-6.8-.533,0-3.615-1.49-4.332-2.094-.33-.278-.938-1.523-1.351-2.766-1.856-5.582,1.548-11.039,7.41-11.878c4.722-.675,77.387-.554,80.992.135" fill="#8c6971" fill-rule="evenodd"/></g></svg>
