<svg id="ebORQVAlhY11" xmlns="http://www.w3.org/2000/svg" xmlns:xlink="http://www.w3.org/1999/xlink" viewBox="0 0 400 400" shape-rendering="geometricPrecision" text-rendering="geometricPrecision"><g><path d="M211.4,90.66c-.44.091-1.97.51-3.4.929s-4.04.872-5.8,1.006c-6.533.498-8.5.998-9.601,2.442-.549.72-1.371,1.427-1.827,1.572-1.162.369-5.716,5.009-6.303,6.421-.267.643-1.049,1.492-1.738,1.886l-1.251.716.252,4.416c.193,3.372.456,4.811,1.111,6.084.472.917,1.012,1.975,1.2,2.351.188.375.462,1.435.61,2.356.504,3.151,1.553,5.29,2.819,5.743c1.669.599,4.218,2.21,4.981,3.15c1.527,1.88,29.163,2.452,30.472.63.065-.089.432-.665.817-1.28s1.136-1.317,1.668-1.559c.695-.317,1.146-1.056,1.602-2.624.652-2.242.92-2.702,2.513-4.306c1.379-1.388,2.267-7.655,1.696-11.957-.232-1.74-.424-3.99-.427-5-.007-2.103-.257-2.623-1.435-2.99-.463-.145-1.267-1.09-1.787-2.1-.52-1.011-1.221-1.937-1.558-2.059-.338-.121-1.341-1.001-2.23-1.954-1.192-1.278-1.927-1.736-2.8-1.744-.651-.006-2.439-.546-3.972-1.2-2.643-1.127-3.77-1.314-5.612-.929m-45.934,70.101c-1.386,4.976-1.931,7.948-1.841,10.039.131,3.034.047,5.63-.218,6.7-.13.528-.038.9.224.9.245,0,.934.348,1.532.773.597.426,1.615.906,2.261,1.068.647.162,1.986.669,2.976,1.126c1.328.614,3.373.963,7.8,1.333c13.299,1.11,13.581,1.202,14.521,4.739c1.196,4.498-.245,40.201-1.985,49.161-.547,2.821-.944,7.805-1.344,16.905-.723,16.416-.304,15.733-9.992,16.245-2.86.151-6.46.551-8,.887-1.54.337-3.61.791-4.6,1.01s-2.43.499-3.2.623c-2.969.479-2.975.51-2.453,12.131.442,9.846.429,10.39-.305,12.101-.607,1.416-.697,2.158-.429,3.545.186.964.451,2.78.589,4.034.293,2.665-.079,2.479,6.198,3.109c2.53.254,5.95.632,7.6.841c1.65.208,5.7.554,9,.768c3.3.215,7.08.572,8.4.793c4,.672,40.309.523,46.015-.189c2.632-.328,5.528-.598,6.435-.6c1.527-.003,1.669-.096,1.9-1.253.568-2.841-.053-14.77-.924-17.75-.257-.88-.741-3.49-1.076-5.8s-.759-5.19-.942-6.4-.545-3.884-.805-5.942c-.789-6.249-.973-6.343-13.374-6.828l-7.572-.296-1.087-1.302c-1.363-1.633-1.739-4.338-1.173-8.432.228-1.65.604-5.43.834-8.4.231-2.97.771-6.832,1.201-8.581.612-2.492.868-5.657,1.181-14.6.737-21.076,1.435-29.064,2.822-32.3c1.098-2.561,1.109-10.935.018-13.181-1.655-3.406-2.801-9.019-2.847-13.938-.01-1.1-.15-2.205-.312-2.455-.396-.615-8.256-1.309-19.694-1.739-5.17-.195-12.704-.578-16.741-.852-5.602-.38-7.498-.387-8-.031-3.464,2.455-8.731,2.8-10.976.719l-.993-.921-.624,2.24" fill="#e0d6d6" fill-rule="evenodd"/><path d="M158,0.976v.976l-7.568.124c-8.401.138-8.015.032-8.318,2.291L141.895,6h-5.468C130.32,6,130,6.124,130,8.48v1.52h-4.774c-5.974,0-6.729.255-7.07,2.388L117.898,14h-3.321c-3.81,0-4.577.441-4.577,2.629v1.371h-3.371c-3.843,0-4.629.436-4.629,2.569v1.312l-3.248.251c-3.671.283-4.255.599-4.429,2.398-.117,1.21-.218,1.28-2.123,1.47l-2,.2-.122,1.9-.122,1.9h-3.349C82.773,30,82,30.438,82,32.607c0,1.326-.033,1.351-1.9,1.471l-1.9.122-.12,1.853-.12,1.854-2.28.17c-3.04.227-4.561,1.009-5.01,2.576-.319,1.114-.556,1.275-2.134,1.453-2.16.243-2.151.235-2.422,2.261C65.908,45.903,65.816,46,64.576,46C62.883,46,62,46.901,62,48.629C62,49.95,61.944,50,60.48,50c-1.916,0-2.48.564-2.48,2.48c0,1.493-.027,1.52-1.52,1.52-1.916,0-2.48.564-2.48,2.48c0,1.493-.027,1.52-1.52,1.52-1.916,0-2.48.564-2.48,2.48c0,1.464-.05,1.52-1.371,1.52C46.886,62,46,62.886,46,64.629C46,65.886,45.9,66,44.8,66c-1.63,0-2.8,1.253-2.8,3c0,1.196-.135,1.4-.924,1.4-2.003,0-3.044,1.997-3.066,5.878L38,77.956l-1.9.122-1.9.122-.122,1.9c-.12,1.867-.145,1.9-1.471,1.9C30.624,82,30,82.85,30,85.554c0,2.455-1.148,4.181-3,4.511-.644.114-.824.508-.921,2.019-.12,1.858-.139,1.881-1.798,2.209-1.923.38-2.152.915-2.234,5.207L22,102h-1.371c-2.195,0-2.629.763-2.629,4.629v3.371h-1.371c-2.188,0-2.629.767-2.629,4.577v3.321l-1.612.258c-2.133.341-2.388,1.096-2.388,7.07v4.774h-1.52c-2.356,0-2.48.32-2.48,6.427v5.468l-1.633.219c-2.259.303-2.153-.083-2.291,8.318L1.952,158h-.976-.976v42v42h.976.976l.124,7.568c.138,8.401.032,8.015,2.291,8.318L6,258.105v5.319C6,269.407,6.237,270,8.629,270h1.371v4.774c0,5.948.26,6.73,2.349,7.064l1.575.252.138,3.522c.158,4.035.13,3.983,2.305,4.274l1.633.219v3.319c0,3.808.441,4.576,2.629,4.576h1.371l.047,2.3c.088,4.284.447,4.979,2.831,5.478.964.202,1.091.427,1.2,2.124L26.2,309.8l1.9.122l1.9.122v3.349c0,3.834.438,4.607,2.607,4.607c1.326,0,1.351.033,1.471,1.9l.122,1.9l1.9.122l1.9.122.031,1.878c.056,3.433.781,5.026,2.48,5.449c1.17.291,1.489.564,1.489,1.274c0,1.991.7,2.93,2.388,3.199c1.505.241,1.612.346,1.612,1.579c0,1.694.901,2.577,2.629,2.577c1.321,0,1.371.056,1.371,1.52c0,1.916.564,2.48,2.48,2.48c1.493,0,1.52.027,1.52,1.52c0,1.916.564,2.48,2.48,2.48c1.493,0,1.52.027,1.52,1.52c0,1.916.564,2.48,2.48,2.48c1.464,0,1.52.05,1.52,1.371c0,1.728.883,2.629,2.576,2.629c1.24,0,1.332.097,1.538,1.633.271,2.025.263,2.018,2.414,2.26c1.512.17,1.847.38,2.32,1.453.692,1.571,2.753,2.609,5.23,2.635l1.878.019.122,1.9.122,1.9l1.9.122c1.867.12,1.9.145,1.9,1.471c0,2.169.773,2.607,4.607,2.607h3.349l.122,1.9.122,1.9l1.898.122c1.697.109,1.922.236,2.124,1.2.499,2.384,1.194,2.743,5.478,2.831L102,378v1.371c0,2.188.768,2.629,4.576,2.629h3.319l.219,1.633c.291,2.175.239,2.147,4.274,2.305l3.522.138.252,1.575c.334,2.089,1.116,2.349,7.064,2.349h4.774v1.371c0,2.396.588,2.629,6.629,2.629h5.371v1.2c0,2.556.768,2.8,8.8,2.8h7.2v1v1h42h42v-1-1h7.371c8.234,0,8.629-.12,8.629-2.629v-1.371h5.371c6.041,0,6.629-.233,6.629-2.629v-1.371h4.774c5.948,0,6.73-.26,7.064-2.349l.252-1.575l3.522-.138c4.035-.158,3.983-.13,4.274-2.305l.219-1.633h3.319c3.808,0,4.576-.441,4.576-2.629v-1.371l2.3-.047c4.284-.088,4.979-.447,5.478-2.831.202-.964.427-1.091,2.124-1.2l1.898-.122.122-1.9.122-1.9h3.349c3.834,0,4.607-.438,4.607-2.607c0-1.326.033-1.351,1.9-1.471l1.9-.122.122-1.9.122-1.9l1.878-.031c3.433-.056,5.026-.781,5.449-2.48.334-1.346.498-1.489,1.7-1.489c1.673,0,2.929-1.2,2.929-2.8c0-1.1.114-1.2,1.371-1.2c1.743,0,2.629-.886,2.629-2.629c0-1.321.056-1.371,1.52-1.371c1.916,0,2.48-.564,2.48-2.48c0-1.493.027-1.52,1.52-1.52c1.916,0,2.48-.564,2.48-2.48c0-1.493.027-1.52,1.52-1.52c1.916,0,2.48-.564,2.48-2.48c0-1.464.05-1.52,1.371-1.52c1.728,0,2.629-.883,2.629-2.576c0-1.24.097-1.332,1.633-1.538c2.026-.271,2.018-.262,2.261-2.422.178-1.578.339-1.815,1.453-2.134c1.567-.449,2.349-1.97,2.576-5.01l.17-2.28l1.854-.12l1.853-.12.122-1.9c.12-1.867.145-1.9,1.471-1.9c2.169,0,2.607-.773,2.607-4.607v-3.349l1.9-.122l1.9-.122.121-1.881c.12-1.861.138-1.884,1.798-2.212c1.923-.38,2.152-.915,2.234-5.207L378,298h1.371c2.195,0,2.629-.763,2.629-4.629v-3.371h1.371c2.188,0,2.629-.767,2.629-4.577v-3.321l1.612-.258c2.133-.341,2.388-1.096,2.388-7.07v-4.774h1.371c2.392,0,2.629-.593,2.629-6.576v-5.319l1.633-.219c2.259-.303,2.153.083,2.291-8.318l.124-7.568h.976.976v-42-42h-.976-.976l-.124-7.568c-.138-8.401-.032-8.015-2.291-8.318L394,141.895v-5.319c0-5.983-.237-6.576-2.629-6.576h-1.371v-4.774c0-5.974-.255-6.729-2.388-7.07L386,117.898v-3.321c0-3.81-.441-4.577-2.629-4.577h-1.371v-3.371c0-3.866-.434-4.629-2.629-4.629h-1.371l-.047-2.5c-.082-4.292-.311-4.827-2.234-5.207-1.66-.328-1.678-.351-1.798-2.212L373.8,90.2l-1.9-.122-1.9-.122v-3.349c0-3.834-.438-4.607-2.607-4.607-1.326,0-1.351-.033-1.471-1.9l-.122-1.9-1.9-.122-1.9-.122-.031-1.878c-.055-3.398-.785-5.027-2.435-5.437-1.338-.334-1.458-.488-1.642-2.12-.241-2.143-.234-2.136-2.259-2.407-1.536-.206-1.633-.298-1.633-1.538c0-1.693-.901-2.576-2.629-2.576-1.321,0-1.371-.056-1.371-1.52c0-1.916-.564-2.48-2.48-2.48-1.493,0-1.52-.027-1.52-1.52c0-1.916-.564-2.48-2.48-2.48-1.493,0-1.52-.027-1.52-1.52c0-1.916-.564-2.48-2.48-2.48-1.464,0-1.52-.05-1.52-1.371c0-1.728-.883-2.629-2.576-2.629-1.24,0-1.332-.097-1.538-1.633-.271-2.025-.264-2.018-2.407-2.259-1.632-.184-1.786-.304-2.12-1.642-.41-1.65-2.039-2.38-5.437-2.435L322.044,38l-.122-1.9-.122-1.9-1.9-.122c-1.867-.12-1.9-.145-1.9-1.471c0-1.983-.85-2.607-3.554-2.607-2.455,0-4.181-1.148-4.511-3-.114-.644-.508-.824-2.019-.921-1.858-.12-1.881-.139-2.209-1.798-.38-1.923-.915-2.152-5.207-2.234L298,22v-1.371c0-2.195-.763-2.629-4.629-2.629L290,18v-1.371c0-2.188-.767-2.629-4.577-2.629h-3.321l-.258-1.612c-.341-2.133-1.096-2.388-7.07-2.388L270,10v-1.52c0-2.359-.316-2.48-6.48-2.48L258,6v-1.371C258,2.12,257.605,2,249.371,2L242,2v-1-1h-42-42v.976M219.691,88.18c.8.335,1.693.942,1.982,1.35.29.407,1.056.872,1.703,1.032c1.865.462,4.1,2.152,5.482,4.147.346.499,1.277,1.608,2.069,2.464c1.419,1.533,2.673,5.224,2.673,7.865c0,.544.45,1.877,1,2.962c1.343,2.65,1.356,5.468.034,7.509-.531.82-1.268,2.882-1.638,4.583-.534,2.452-.942,3.361-1.976,4.4-.716.719-1.612,2.118-1.991,3.108-1.023,2.677-3.13,4.643-5.794,5.407-1.229.352-3.193,1.125-4.363,1.717-3.118,1.576-12.944,1.57-17.872-.012-1.76-.564-4.55-1.232-6.2-1.484-1.65-.251-3.545-.541-4.211-.644-.767-.118-1.833-.847-2.904-1.985-.931-.99-1.933-1.799-2.227-1.799-.739,0-1.571-1.077-2.471-3.2-.42-.99-1.083-2.091-1.474-2.446-1.318-1.198-1.91-3.944-2.342-10.852-.471-7.533-.354-8.151,2.022-10.695.66-.706,1.771-2.166,2.471-3.245.699-1.079,1.405-1.962,1.569-1.962.374,0,2.121-1.457,3.451-2.878c1.248-1.334,3.754-2.521,6.074-2.879.967-.149,2.227-.602,2.8-1.007c3.01-2.125,18.148-3.121,22.133-1.456M171.6,156.127c1.21.007,3.19-.18,4.4-.417c2.874-.562,36.745-.268,42.131.365c5.483.645,7.469,2.647,7.469,7.53c0,1.81.311,2.936,1.5,5.439l1.5,3.156.128,10.803c.169,14.33-.456,23.393-2.11,30.597-1.003,4.363-1.365,9.622-1.792,26.014-.35,13.456-.447,14.768-1.218,16.568l-.838,1.954l1.309,1.195c1.674,1.529,2.032,1.616,13.321,3.226c6.29.897,7.396,1.649,7.404,5.032.006,2.231.735,4.637,2.404,7.933l1.276,2.522.441,13.078c.678,20.153.664,20.293-2.046,21.324-.721.275-13.488.357-38.479.25-40.308-.173-38.887-.098-42.419-2.251-.759-.463-1.831-.85-2.381-.86-1.874-.034-4.564-1.674-5.01-3.054-.226-.699-.7-1.599-1.054-2-.734-.834-1.936-4.742-1.936-6.293c0-.682.562-1.6,1.641-2.679l1.641-1.641-.274-6.659c-.205-5.001-.467-7.221-1.051-8.915-1.105-3.204-1.084-4.767.081-6.014.529-.566,1.482-1.661,2.117-2.433c1.648-2.001,3.057-2.277,12.904-2.524c9.078-.228,12.141-.647,12.141-1.663c0-.323.372-1.109.827-1.748.899-1.262.774.843,1.961-33.162.614-17.567,1.089-23.126,2.427-28.4.195-.77.467-3.937.604-7.037.286-6.469.099-6.963-2.629-6.963-1.672,0-3.13-.512-4.921-1.73-1.799-1.223-3.634-1.538-10.756-1.847l-6.687-.289-1.978-1.767c-1.088-.972-2.442-2.127-3.009-2.567l-1.031-.8-.004-6.92c-.004-7.217.19-8.223,1.989-10.28.385-.44.818-1.429.963-2.197.69-3.664,2.272-4.977,5.167-4.288.922.22,2.667.405,3.877.412" fill="#7ace44" fill-rule="evenodd"/><path d="M208,89.419c-1.21.284-3.46.814-5,1.179s-3.61.829-4.6,1.031c-.99.201-2.562.523-3.493.714s-2.011.595-2.4.898C187.919,96.819,184,100.5,184,101.232c0,.187-.519.872-1.154,1.521-2.416,2.472-2.459,2.618-2.22,7.632.26,5.453.667,7.295,2.41,10.916.716,1.486,1.421,3.249,1.568,3.918.186.846.773,1.529,1.932,2.247.915.567,2.114,1.445,2.664,1.951c2.145,1.975,5.778,2.735,16.34,3.415c14.282.92,19.619-.802,22.689-7.324.546-1.159,1.429-2.706,1.962-3.438c3.433-4.709,3.279-19.198-.243-22.975-.852-.913-1.548-1.763-1.548-1.89c0-.643-4.031-4.227-5.6-4.978-.99-.475-2.43-1.209-3.2-1.631-3.215-1.764-7.315-2.18-11.6-1.177m9.012,2.17c1.533.654,3.321,1.194,3.972,1.2.873.008,1.608.466,2.8,1.744.889.953,1.892,1.833,2.23,1.954.337.122,1.038,1.048,1.558,2.059.52,1.01,1.324,1.955,1.787,2.1c1.178.367,1.428.887,1.435,2.99.003,1.01.195,3.26.427,5c.571,4.302-.317,10.569-1.696,11.957-1.593,1.604-1.861,2.064-2.513,4.306-.456,1.568-.907,2.307-1.602,2.624-.532.242-1.283.944-1.668,1.559s-.752,1.191-.817,1.28c-1.309,1.822-28.945,1.25-30.472-.63-.763-.94-3.312-2.551-4.981-3.15-1.266-.453-2.315-2.592-2.819-5.743-.148-.921-.422-1.981-.61-2.356-.188-.376-.728-1.434-1.2-2.351-.655-1.273-.918-2.712-1.111-6.084l-.252-4.416l1.251-.716c.689-.394,1.471-1.243,1.738-1.886.587-1.412,5.141-6.052,6.303-6.421.456-.145,1.278-.852,1.827-1.572c1.101-1.444,3.068-1.944,9.601-2.442c1.76-.134,4.37-.587,5.8-1.006c5.027-1.474,5.555-1.474,9.012,0m-51.525,65.939c-.322.37-.97,1.932-1.439,3.472-.47,1.54-1.228,3.415-1.685,4.166-.736,1.21-.838,2.055-.888,7.379l-.057,6.013l2.689,1.919c2.981,2.126,6.838,3.113,12.245,3.133c1.457.005,4.178.373,6.048.817s4.373.987,5.563,1.206c2.717.5,2.574.396,3.635,2.653c1.077,2.29.492,17.719-1.278,33.714-.804,7.262-1.057,11.064-1.49,22.4-.75,19.605-1.247,23.147-3.25,23.187-.341.007-.836.229-1.099.492-.317.317-3.153.584-8.38.787-11.917.465-14.006,1.053-16.382,4.616-.323.486-.501,1.026-.395,1.2.106.175.424,4.59.706,9.81.559,10.329.522,10.616-1.592,12.609-.864.814-.912,1.019-.463,2.003.749,1.641,1.536,4.112,1.837,5.77.437,2.41,1.073,2.761,6.839,3.77c1.952.341,4.359.789,5.349.996.99.206,2.97.548,4.4.759c3.464.512,52.085.992,62.113.612l7.912-.299.54-1.056c.945-1.847,1.063-4.069.628-11.856-.794-14.25-1.039-16.719-1.906-19.2-.811-2.325-1.431-5.049-2.091-9.2-.427-2.679-.993-4.037-1.817-4.353-1.493-.572-8.769-1.447-12.041-1.447-8.199,0-10.436-2.62-8.197-9.6.628-1.958.943-4.526,1.274-10.4.241-4.29.594-10.5.784-13.8s.539-9.51.775-13.8c.407-7.372.73-10.33,1.642-15c2.039-10.452,1.812-25.334-.446-29.161-.717-1.215-.934-2.326-1.091-5.575-.387-8.04-1.36-8.338-29.59-9.062l-16.911-.433-2.022,1.015c-2.724,1.369-5.742,1.385-8.143.044-1.619-.904-1.781-.925-2.326-.3m4.382,3.103c3.096.465,5.697-.142,8.19-1.908.502-.356,2.398-.349,8,.031c4.037.274,11.571.657,16.741.852c11.438.43,19.298,1.124,19.694,1.739.162.25.302,1.355.312,2.455.046,4.919,1.192,10.532,2.847,13.938c1.091,2.246,1.08,10.62-.018,13.181-1.387,3.236-2.085,11.224-2.822,32.3-.313,8.943-.569,12.108-1.181,14.6-.43,1.749-.97,5.611-1.201,8.581-.23,2.97-.606,6.75-.834,8.4-.566,4.094-.19,6.799,1.173,8.432l1.087,1.302l7.572.296c12.401.485,12.585.579,13.374,6.828.26,2.058.622,4.732.805,5.942s.607,4.09.942,6.4.819,4.92,1.076,5.8c.871,2.98,1.492,14.909.924,17.75-.231,1.157-.373,1.25-1.9,1.253-.907.002-3.803.272-6.435.6-5.706.712-42.015.861-46.015.189-1.32-.221-5.1-.578-8.4-.793-3.3-.214-7.35-.56-9-.768-1.65-.209-5.07-.587-7.6-.841-6.277-.63-5.905-.444-6.198-3.109-.138-1.254-.403-3.07-.589-4.034-.268-1.387-.178-2.129.429-3.545.734-1.711.747-2.255.305-12.101-.522-11.621-.516-11.652,2.453-12.131.77-.124,2.21-.404,3.2-.623s3.06-.673,4.6-1.01c1.54-.336,5.14-.736,8-.887c9.688-.512,9.269.171,9.992-16.245.4-9.1.797-14.084,1.344-16.905c1.74-8.96,3.181-44.663,1.985-49.161-.94-3.537-1.222-3.629-14.521-4.739-4.427-.37-6.472-.719-7.8-1.333-.99-.457-2.329-.964-2.976-1.126-.646-.162-1.664-.642-2.261-1.068-.598-.425-1.287-.773-1.532-.773-.262,0-.354-.372-.224-.9.265-1.07.349-3.666.218-6.7-.09-2.091.455-5.063,1.841-10.039l.624-2.24.993.921c.563.522,1.77,1.037,2.786,1.189" fill="#ac9094" fill-rule="evenodd"/><path d="M211.507,88.69c.719.089,1.799.087,2.4-.004s.013-.164-1.307-.162-1.812.077-1.093.166M203.6,89.789c-1.87.496-4.48,1.124-5.8,1.395-3.253.667-5.876,1.615-6.6,2.386-.33.351-1.23,1.107-2,1.68-1.672,1.243-4.29,3.855-5.4,5.387-.44.608-1.386,1.811-2.103,2.675-1.352,1.63-1.925,3.081-1.568,3.971.114.284.222.062.239-.494.035-1.116.731-2.249,2.478-4.036.635-.649,1.154-1.334,1.154-1.521c0-.916,7.6-7.742,9.4-8.444.44-.171,1.88-.522,3.2-.78c1.32-.257,3.03-.624,3.8-.815s2.66-.63,4.2-.977c1.54-.346,3.43-.79,4.2-.987l1.4-.357-1.6.007c-.88.003-3.13.413-5,.91m12.8-.514c.77.216,1.76.588,2.2.827.44.24,1.97,1.015,3.4,1.724c2.197,1.089,6.4,4.621,6.4,5.379c0,.127.749,1.032,1.665,2.013c1.699,1.817,1.454.744-.277-1.218-3.927-4.45-4.707-5.113-7.961-6.763-1.885-.956-3.427-1.895-3.427-2.087c0-.193-.765-.332-1.7-.309l-1.7.041l1.4.393M231.835,103c.147,1.1.334,2.075.416,2.167.359.401.095-3.028-.274-3.567-.291-.426-.332-.02-.142,1.4m.752,8.162c.007,3.169.067,5.419.134,5c.066-.419.314-1.153.55-1.63.427-.861.282-3.701-.373-7.332-.233-1.289-.321-.166-.311,3.962M180.542,112.2c-.001,1.98.066,2.84.15,1.912s.085-2.548.003-3.6c-.083-1.052-.152-.292-.153,1.688m.298,4.572c-.048,1.169.793,3.628,1.24,3.628.176,0,.32.19.32.422s.364,1.221.809,2.199c.446.977.978,2.22,1.184,2.761.206.542,1.147,1.487,2.091,2.1s1.947,1.425,2.23,1.804c.964,1.293,4.991,2.736,7.446,2.669c1.483-.04,1.391-.092-.96-.543-3.255-.624-4.727-1.21-6-2.389-.55-.51-1.749-1.39-2.664-1.957-1.154-.715-1.746-1.401-1.93-2.239-.146-.664-.815-2.337-1.486-3.717-.671-1.381-1.45-3.23-1.731-4.11-.393-1.234-.519-1.378-.549-.628m50.845,2.057c-.251.995-.907,2.431-1.46,3.19-.552.76-1.45,2.33-1.996,3.489-1.178,2.503-4.552,5.93-6.349,6.45-.906.262-1.033.38-.436.406c2.231.095,7.356-5.124,7.356-7.491c0-.224.142-.466.317-.54c1.225-.516,3.608-5.558,3.202-6.776-.098-.295-.384.278-.634,1.272M200,132.859c4.476.727,15.615.845,18.2.192l2.4-.606-2.8.278c-3.468.343-8.04.352-14.8.028-3.644-.175-4.542-.143-3,.108m-34.696,24.25c-.42.38-1.167,1.918-1.659,3.418-.493,1.499-1.334,3.551-1.87,4.559-.903,1.699-.975,2.257-.975,7.602c0,6.148-.01,6.114,2.2,7.539.66.425,1.615,1.129,2.123,1.565c1.213,1.041,3.836,1.803,6.077,1.766c1.578-.026,1.419-.099-1.291-.589-2.587-.468-3.532-.873-5.792-2.485l-2.699-1.926.057-6.013c.05-5.324.152-6.169.888-7.379.457-.751,1.215-2.626,1.685-4.166c1.244-4.082,1.599-4.381,3.765-3.172c2.39,1.334,5.421,1.324,8.112-.028c1.644-.825,2.644-1.014,5.733-1.082l3.742-.083-3.566-.134c-3.479-.131-7.434.709-7.434,1.578c0,.454-4.56.401-5.02-.058-1.137-1.134-3.297-1.618-4.076-.912m34.496.286c18.041.581,22.138,1.163,23.482,3.338.479.775.94,1.201,1.024.948.359-1.076-2.081-2.769-4.906-3.406-5.651-1.272-8.704-1.474-21.277-1.409l-12.723.066l14.4.463m24.773,9.205c.093,2.921.308,3.979,1.135,5.6.599,1.176,1.154,3.154,1.347,4.8.293,2.498.342,2.615.46,1.084.145-1.876-.802-5.634-1.805-7.165-.367-.561-.764-2.43-.944-4.444L224.457,163l.116,3.6M227.74,184c0,1.87.069,2.635.153,1.7s.084-2.465,0-3.4-.153-.17-.153,1.7M175,183.87c4.669.397,8.481,1.055,9.95,1.717.908.41,2.467.855,3.465.991c2.889.391,3.298,1.525,3.288,9.108l-.008,6.114.387-5.588c.553-7.966-.182-9.872-4.082-10.578-1.21-.22-3.73-.763-5.6-1.207-1.97-.468-4.578-.784-6.2-.75-1.54.032-2.08.119-1.2.193m52.248,5.53c-.234,3.081-1.268,11.847-1.651,14-.594,3.339-1.17,9.932-1.119,12.8.037,2.105.081,1.957.358-1.2.316-3.609.745-7.173,1.492-12.4.922-6.444,1.341-10.909,1.181-12.6-.12-1.277-.196-1.451-.261-.6M191.07,206.6c-.431,5.813-.927,11.174-1.664,18-.534,4.947-.796,12.676-.393,11.6.082-.22.337-2.83.567-5.8.229-2.97.578-6.84.776-8.6.755-6.7,1.317-14.893,1.182-17.2-.122-2.075-.185-1.805-.468,2m32.781,19c-.182,2.97-.26,5.94-.174,6.6.211,1.616.835-8.371.65-10.4-.08-.88-.295.83-.476,3.8m-.571,9.4c-.047.44-.27,4.31-.495,8.6-.312,5.949-.608,8.417-1.244,10.4-2.36,7.358-.345,9.321,10.059,9.794c2.75.125,5.72.314,6.6.42c1.172.142,1.38.097.778-.168-.452-.199-3.753-.573-7.336-.831-7.183-.516-7.433-.567-8.777-1.775-1.964-1.765-2.243-4.194-.75-6.521.509-.794,1.526-13.449,1.383-17.213-.073-1.929-.172-3.146-.218-2.706m-34.726,6.6c0,2.75.064,3.875.142,2.5s.078-3.625,0-5-.142-.25-.142,2.5m-.695,14.326c-.187,3.809-.25,7.017-.139,7.127.33.33.748-6.988.609-10.653-.105-2.767-.192-2.111-.47,3.526m-.833,9.02c-.292,1.36-.578,1.658-2.379,2.477-1.386.63-1.764.938-1.171.954.482.013.988-.157,1.124-.377s.552-.406.924-.413c.995-.018,2.151-1.826,1.981-3.096-.134-.993-.176-.952-.479.455m54.142-.059c.991.372,1.506.898,1.869,1.913.436,1.215.504,1.268.52.4.025-1.429-.834-2.364-2.4-2.612l-1.357-.214l1.368.513m-67.868,3.81c1.705.075,4.495.075,6.2,0s.31-.136-3.1-.136-4.805.061-3.1.136m70.375.903c-.01.77.136,1.76.325,2.2.457,1.064.457-.603,0-2.4l-.305-1.2-.02,1.4m-79.743-.144c-3.842,1.177-5.45,3.798-4.8,7.822l.407,2.522-.014-2.8c-.018-3.656-.077-3.415,1.181-4.83c1.276-1.435,2.828-2.077,6.694-2.769l2.8-.5-2.2-.009c-1.21-.005-3.041.249-4.068.564m80.702,4.998c.111,1.019.564,2.819,1.007,4c.563,1.499.923,3.895,1.195,7.946.496,7.394.815,8.14.599,1.4-.157-4.907-.66-8.593-1.418-10.4-.465-1.106-1.131-3.042-1.378-4-.113-.44-.116.034-.005,1.054M159.836,287.2c.181,7.549.176,7.571-2.129,9.996-.52.548-.758,1.12-.569,1.372.178.237.837,2.052,1.464,4.032s1.506,3.96,1.954,4.4l.814.8-.64-.8c-.353-.44-.767-1.43-.922-2.2-.337-1.678-1.145-4.189-1.833-5.696-.449-.984-.401-1.189.463-2.003c2.013-1.898,2.106-2.464,1.651-9.976l-.42-6.925.167,7M247.753,301c.04,6.074-.059,7.393-.631,8.437l-.677,1.237-5.723.261c-16.049.734-62.947.075-67.322-.946-1.1-.256-2.63-.62-3.4-.807s-2.3-.418-3.4-.512c-1.1-.095-1.64-.092-1.2.006s1.97.516,3.4.929c5.508,1.59,8.669,1.728,43,1.888c37.295.173,35.16.333,36.107-2.699.541-1.735.583-6.319.106-11.594-.248-2.74-.298-2.003-.26,3.8m-85.963,6.984c.142.229.727.416,1.3.416c1.254,0,1.109-.192-.424-.56-.743-.178-1.045-.129-.876.144" fill="#94747c" fill-rule="evenodd"/><path d="M206.4,87.589c-4.482.43-7.561,1.143-8.842,2.047-.573.405-1.833.858-2.8,1.007-2.32.358-4.826,1.545-6.074,2.879-1.33,1.421-3.077,2.878-3.451,2.878-.164,0-.87.883-1.569,1.962-.7,1.079-1.811,2.539-2.471,3.245-2.376,2.544-2.493,3.162-2.022,10.695.432,6.908,1.024,9.654,2.342,10.852.391.355,1.054,1.456,1.474,2.446.9,2.123,1.732,3.2,2.471,3.2.294,0,1.296.809,2.227,1.799c1.071,1.138,2.137,1.867,2.904,1.985.666.103,2.561.393,4.211.644c1.65.252,4.44.92,6.2,1.484c4.928,1.582,14.754,1.588,17.872.012c1.17-.592,3.134-1.365,4.363-1.717c2.664-.764,4.771-2.73,5.794-5.407.379-.99,1.275-2.389,1.991-3.108c1.034-1.039,1.442-1.948,1.976-4.4.37-1.701,1.107-3.763,1.638-4.583c1.322-2.041,1.309-4.859-.034-7.509-.55-1.085-1-2.418-1-2.962c0-2.641-1.254-6.332-2.673-7.865-.792-.856-1.723-1.965-2.069-2.464-1.382-1.995-3.617-3.685-5.482-4.147-.647-.16-1.413-.625-1.703-1.032-1.322-1.861-7.683-2.669-15.273-1.941m12.27,1.824c.306.306,1.902,1.222,3.547,2.035c2.811,1.389,3.624,2.092,7.574,6.552c2.32,2.618,4.889,14.806,3.483,16.515-.22.267-.526,1.336-.681,2.376-.475,3.194-2.478,7.497-3.493,7.506-.165.002-.3.201-.3.443c0,1.711-3.291,5.785-5.6,6.934-4.388,2.182-24.502,2.199-30.6.025-2.011-.716-3.413-1.479-3.886-2.113-.283-.379-1.286-1.191-2.23-1.804s-1.885-1.558-2.091-2.1c-.206-.541-.738-1.784-1.184-2.761-.445-.978-.809-1.967-.809-2.199s-.144-.422-.32-.422c-.75,0-1.372-3.241-1.675-8.726-.344-6.243-.292-6.532,1.554-8.693.572-.67,1.401-1.72,1.841-2.333c1.097-1.529,3.712-4.143,5.4-5.398.77-.573,1.67-1.329,2-1.68.724-.771,3.346-1.719,6.6-2.387c1.32-.27,3.75-.843,5.4-1.273c6.01-1.565,14.141-1.826,15.47-.497m-53.751,66.448c-1.199.581-1.936,1.872-2.363,4.142-.145.768-.578,1.757-.963,2.197-1.799,2.057-1.993,3.063-1.989,10.28l.004,6.92l1.031.8c.567.44,1.921,1.595,3.009,2.567l1.978,1.767l6.687.289c7.122.309,8.957.624,10.756,1.847c1.791,1.218,3.249,1.73,4.921,1.73c2.728,0,2.915.494,2.629,6.963-.137,3.1-.409,6.267-.604,7.037-1.338,5.274-1.813,10.833-2.427,28.4-1.187,34.005-1.062,31.9-1.961,33.162-.455.639-.827,1.425-.827,1.748c0,1.016-3.063,1.435-12.141,1.663-9.847.247-11.256.523-12.904,2.524-.635.772-1.588,1.867-2.117,2.433-1.165,1.247-1.186,2.81-.081,6.014.584,1.694.846,3.914,1.051,8.915l.274,6.659-1.641,1.641c-1.079,1.079-1.641,1.997-1.641,2.679c0,1.551,1.202,5.459,1.936,6.293.354.401.828,1.301,1.054,2c.446,1.38,3.136,3.02,5.01,3.054.55.01,1.622.397,2.381.86c3.532,2.153,2.111,2.078,42.419,2.251c24.991.107,37.758.025,38.479-.25c2.71-1.031,2.724-1.171,2.046-21.324l-.441-13.078-1.276-2.522c-1.669-3.296-2.398-5.702-2.404-7.933-.008-3.383-1.114-4.135-7.404-5.032-11.289-1.61-11.647-1.697-13.321-3.226l-1.309-1.195.838-1.954c.771-1.8.868-3.112,1.218-16.568.427-16.392.789-21.651,1.792-26.014c1.654-7.204,2.279-16.267,2.11-30.597L228.6,172.2l-1.5-3.156c-1.189-2.503-1.5-3.629-1.5-5.439c0-4.883-1.986-6.885-7.469-7.53-5.386-.633-39.257-.927-42.131-.365-2.715.531-6.059.533-8.277.005-1.27-.302-1.952-.267-2.804.146m4.461,2.16c.456.455,5.02.514,5.02.065c0-1.541,28.566-2.167,39-.854c9.918,1.248,10.848,1.933,11.365,8.361.222,2.76.586,4.778.968,5.361c2.589,3.95,2.749,21.642.308,34.046-.727,3.696-1.275,9.545-1.665,17.8-1.157,24.418-1.631,31.138-2.266,32.127-1.488,2.317-1.208,4.734.755,6.527c1.282,1.171,1.705,1.257,8.535,1.742c11.382.809,11.74,1.011,12.79,7.204.599,3.531.973,4.968,1.827,7c.184.44.538,1.79.785,3c.407,1.993.603,4.861,1.454,21.249.572,11.007,4.179,10.033-36.456,9.844-34.366-.16-37.521-.299-43-1.895-1.43-.417-3.533-.878-4.672-1.026-3.06-.395-4.156-1.578-5.536-5.972-.622-1.98-1.276-3.795-1.454-4.032-.189-.252.049-.824.569-1.372c2.316-2.437,2.327-2.485,2.082-9.396-.124-3.52-.417-7.887-.65-9.705-.966-7.546,1.734-9.221,15.461-9.592c10.313-.279,11.78-.765,12.512-4.147.448-2.069,1.002-12.057,1.516-27.356.133-3.96.5-9.63.815-12.6s.747-7.47.96-10c2.078-24.665,1.89-27.297-1.988-27.822-.998-.136-2.551-.579-3.452-.984-1.743-.787-5.706-1.403-11.563-1.798-4.853-.327-7.055-.905-8.607-2.259-.716-.626-1.412-1.137-1.547-1.137-.135-.001-.741-.427-1.346-.947l-1.1-.946v-5.794c0-5.372.071-5.927.975-7.627.536-1.008,1.377-3.06,1.87-4.559c1.339-4.076,3.302-4.934,5.735-2.506" fill="#8c7474" fill-rule="evenodd"/></g></svg>
