<svg id="svg" version="1.1" xmlns="http://www.w3.org/2000/svg" xmlns:xlink="http://www.w3.org/1999/xlink" width="400" height="400" viewBox="0, 0, 400,400"><g id="svgg"><path id="path0" d="M160.800 105.611 C 158.710 105.783,156.280 106.239,155.400 106.623 C 153.818 107.313,153.276 107.452,147.800 108.579 C 142.928 109.580,142.287 109.799,141.838 110.606 C 141.148 111.847,139.651 113.172,138.654 113.422 C 138.080 113.566,137.557 114.162,137.243 115.032 C 136.897 115.988,136.260 116.659,135.172 117.214 C 134.307 117.655,133.600 118.250,133.600 118.536 C 133.600 119.313,131.516 121.486,130.605 121.659 C 130.167 121.741,129.744 122.167,129.665 122.605 C 129.481 123.617,128.059 125.185,126.929 125.622 C 126.449 125.807,125.746 126.614,125.366 127.416 C 124.966 128.258,124.146 129.125,123.422 129.470 C 122.734 129.798,121.817 130.723,121.385 131.524 C 120.953 132.325,120.214 133.172,119.743 133.406 C 118.413 134.065,117.600 134.844,117.600 135.458 C 117.600 136.078,115.881 138.903,114.655 140.297 C 113.844 141.220,113.454 143.130,112.823 149.280 C 112.431 153.102,111.838 155.195,110.651 156.951 C 108.249 160.504,108.277 193.422,110.684 196.120 C 111.745 197.310,112.800 199.700,112.800 200.915 C 112.800 202.323,113.668 203.823,115.773 206.054 C 116.778 207.119,117.606 208.127,117.613 208.295 C 117.689 210.038,122.206 211.734,126.650 211.688 C 131.420 211.638,133.815 210.071,135.076 206.175 C 135.474 204.946,136.379 203.256,137.087 202.421 C 137.938 201.418,138.453 200.309,138.608 199.152 C 139.535 192.196,140.320 189.412,141.607 188.510 C 142.079 188.179,142.438 187.293,142.584 186.094 C 143.432 179.140,144.230 176.333,145.563 175.620 C 146.049 175.360,146.422 174.589,146.585 173.505 C 147.164 169.659,147.806 167.857,149.052 166.574 C 149.750 165.854,150.452 164.666,150.611 163.933 C 151.099 161.679,152.475 159.149,153.455 158.702 C 154.041 158.435,154.475 157.805,154.626 157.002 C 154.876 155.671,156.073 153.978,158.081 152.119 C 158.366 151.855,158.816 151.405,159.081 151.119 C 159.345 150.834,159.795 150.384,160.081 150.119 C 160.366 149.855,160.811 149.405,161.069 149.119 C 161.327 148.834,162.083 148.150,162.749 147.600 C 163.415 147.050,164.651 145.963,165.494 145.184 C 166.997 143.797,168.376 143.086,170.427 142.643 C 170.991 142.521,171.677 142.003,171.951 141.492 C 172.720 140.055,173.574 139.707,178.175 138.958 C 181.384 138.435,182.541 138.085,182.827 137.549 C 183.037 137.157,184.422 136.265,185.904 135.566 C 191.196 133.072,193.555 127.175,192.048 120.202 C 191.810 119.101,191.361 116.990,191.050 115.510 C 190.498 112.888,190.390 112.727,186.742 109.110 L 183.000 105.400 173.800 105.348 C 168.740 105.320,162.890 105.438,160.800 105.611 M217.573 147.760 C 217.462 147.872,215.667 148.154,213.585 148.387 C 206.532 149.176,205.127 149.543,203.600 150.994 C 202.657 151.891,201.359 152.558,199.622 153.037 C 197.795 153.542,196.730 154.106,195.964 154.974 C 194.992 156.076,191.755 157.592,190.346 157.605 C 190.046 157.608,189.396 158.234,188.902 158.997 C 188.386 159.793,187.534 160.500,186.902 160.655 C 185.461 161.010,184.122 161.842,182.400 163.452 C 181.630 164.172,180.317 165.045,179.483 165.393 C 178.648 165.741,177.847 166.335,177.703 166.713 C 177.306 167.751,176.341 168.605,174.929 169.167 C 174.052 169.516,173.470 170.141,173.055 171.178 C 172.648 172.196,172.007 172.895,171.078 173.336 C 170.120 173.791,169.633 174.336,169.474 175.132 C 169.348 175.761,168.621 176.899,167.858 177.662 C 166.258 179.262,165.008 181.345,164.638 183.027 C 164.481 183.739,163.833 184.574,162.990 185.152 C 162.225 185.675,161.600 186.425,161.600 186.819 C 161.600 188.738,160.210 192.745,159.000 194.315 C 157.612 196.117,157.677 195.821,156.447 205.800 C 156.230 207.560,155.823 209.990,155.543 211.200 C 154.780 214.497,154.862 222.799,155.693 226.400 C 156.074 228.050,156.555 231.290,156.762 233.600 C 157.258 239.140,157.890 241.878,158.825 242.533 C 159.758 243.186,160.521 245.019,161.227 248.300 C 161.523 249.675,161.863 250.800,161.983 250.800 C 162.354 250.801,164.400 252.675,164.400 253.015 C 164.400 253.924,166.948 258.393,167.580 258.594 C 167.983 258.722,168.683 259.675,169.135 260.713 C 169.647 261.890,170.411 262.853,171.164 263.273 C 171.863 263.663,172.489 264.416,172.651 265.062 C 172.934 266.190,174.232 267.562,175.038 267.587 C 175.620 267.604,176.800 268.931,176.800 269.567 C 176.800 270.103,178.358 271.564,178.953 271.587 C 179.451 271.605,180.800 273.226,180.800 273.806 C 180.800 274.071,181.606 274.716,182.591 275.239 C 183.637 275.794,184.569 276.642,184.834 277.281 C 185.082 277.882,185.672 278.490,186.143 278.633 C 187.589 279.071,189.600 280.798,189.600 281.602 C 189.600 282.157,189.983 282.436,191.006 282.628 C 191.876 282.791,193.113 283.553,194.248 284.625 C 195.257 285.578,197.087 286.772,198.315 287.279 C 199.721 287.859,200.779 288.601,201.170 289.281 C 201.626 290.072,202.223 290.430,203.396 290.613 C 206.760 291.140,209.778 292.265,211.329 293.571 C 213.400 295.314,232.013 295.365,233.873 293.632 C 235.097 292.492,237.141 291.693,240.600 291.003 C 242.679 290.588,244.010 290.100,244.400 289.611 C 245.212 288.593,248.696 286.800,249.863 286.800 C 250.383 286.800,251.121 286.418,251.504 285.951 C 252.736 284.448,253.738 283.600,254.281 283.600 C 254.572 283.600,255.123 283.430,255.505 283.222 C 255.887 283.014,256.832 282.744,257.605 282.621 C 258.548 282.472,259.140 282.103,259.405 281.500 C 259.849 280.488,262.670 278.981,264.827 278.604 C 265.811 278.432,266.460 278.007,266.914 277.238 C 267.345 276.508,268.324 275.834,269.738 275.293 C 271.005 274.808,272.676 273.713,273.765 272.655 C 274.789 271.660,276.017 270.721,276.495 270.570 C 277.610 270.216,278.400 269.421,278.400 268.652 C 278.400 268.319,278.566 267.945,278.769 267.819 C 278.972 267.694,279.256 267.054,279.401 266.397 C 279.545 265.741,280.270 264.579,281.013 263.814 C 282.501 262.282,282.993 260.797,283.404 256.600 C 283.660 253.987,285.256 249.600,285.949 249.600 C 286.323 249.600,287.104 244.716,287.385 240.625 C 287.631 237.034,288.165 235.147,289.436 233.384 C 291.925 229.931,292.020 202.568,289.551 200.268 C 288.429 199.223,287.220 196.493,287.209 194.981 C 287.202 194.106,286.740 193.282,285.571 192.066 C 284.675 191.134,283.508 189.422,282.977 188.262 C 282.267 186.710,281.645 185.979,280.624 185.492 C 279.861 185.128,278.946 184.269,278.592 183.584 C 278.237 182.898,277.374 182.096,276.673 181.802 C 275.973 181.507,274.500 180.429,273.400 179.404 C 272.300 178.380,270.710 177.184,269.867 176.746 C 269.024 176.308,268.034 175.421,267.667 174.774 C 267.265 174.065,266.355 173.350,265.378 172.974 C 264.281 172.553,263.515 171.905,263.015 170.975 C 262.607 170.219,262.053 169.600,261.783 169.600 C 260.892 169.600,259.137 168.493,258.060 167.253 C 257.477 166.581,256.143 165.588,255.097 165.046 C 254.050 164.504,252.520 163.346,251.697 162.474 C 250.860 161.588,249.650 160.772,248.952 160.624 C 248.081 160.439,247.479 159.942,246.961 158.980 C 246.520 158.161,245.913 157.600,245.468 157.600 C 244.424 157.600,240.835 155.530,240.599 154.792 C 240.365 154.062,238.267 152.949,236.578 152.660 C 235.906 152.545,234.687 151.838,233.868 151.088 C 232.247 149.604,230.653 149.199,223.200 148.380 C 221.110 148.150,219.035 147.871,218.588 147.760 C 218.141 147.648,217.685 147.649,217.573 147.760 " stroke="none" fill="#e3dada" fill-rule="evenodd"></path><path id="path1" d="M162.232 104.410 C 154.463 104.744,150.253 105.307,148.435 106.255 C 147.866 106.552,147.209 106.796,146.975 106.798 C 146.741 106.799,145.805 107.160,144.894 107.600 C 143.984 108.040,142.960 108.400,142.619 108.400 C 142.279 108.400,141.023 109.345,139.829 110.500 C 138.634 111.655,137.470 112.780,137.241 113.000 C 137.011 113.220,136.267 114.066,135.587 114.881 C 134.907 115.695,134.043 116.459,133.668 116.579 C 133.292 116.698,132.662 117.394,132.268 118.126 C 131.874 118.857,131.031 119.764,130.395 120.139 C 129.759 120.515,128.831 121.402,128.332 122.111 C 127.137 123.811,126.547 124.400,126.038 124.400 C 125.807 124.400,125.299 124.891,124.909 125.490 C 124.519 126.090,122.577 128.205,120.594 130.191 C 118.610 132.177,116.570 134.477,116.061 135.301 C 115.551 136.126,114.825 137.025,114.447 137.300 C 113.457 138.020,112.917 139.667,112.186 144.200 C 111.831 146.400,110.932 150.005,110.188 152.211 C 106.568 162.942,106.614 195.372,110.254 199.099 C 110.522 199.374,111.300 201.047,111.983 202.817 C 112.870 205.119,113.743 206.573,115.043 207.918 C 116.043 208.953,117.190 210.160,117.592 210.600 C 117.993 211.040,119.464 211.833,120.861 212.362 C 122.257 212.891,123.923 213.566,124.561 213.862 C 125.938 214.500,127.057 214.554,127.400 214.000 C 127.536 213.780,128.004 213.600,128.440 213.600 C 131.029 213.600,134.955 210.544,136.225 207.542 C 136.689 206.444,137.372 205.191,137.744 204.757 C 138.714 203.624,139.474 201.461,140.189 197.800 C 140.533 196.040,141.359 193.397,142.026 191.926 C 142.693 190.456,143.609 187.325,144.061 184.969 C 144.608 182.118,145.337 179.802,146.240 178.043 C 146.986 176.589,147.597 175.149,147.598 174.843 C 147.602 173.601,149.283 168.743,149.773 168.555 C 150.292 168.356,150.888 167.137,152.196 163.600 C 152.562 162.610,153.281 161.350,153.794 160.800 C 154.307 160.250,155.222 158.903,155.828 157.806 C 157.376 155.007,168.236 144.400,169.554 144.400 C 170.070 144.400,173.471 142.535,174.719 141.568 C 175.224 141.176,176.214 140.743,176.919 140.606 C 181.866 139.644,185.188 138.653,185.599 138.015 C 185.709 137.843,186.937 137.005,188.328 136.151 C 190.967 134.531,191.424 133.922,193.593 129.135 C 195.255 125.466,195.257 122.372,193.600 118.200 C 192.940 116.539,192.400 114.895,192.400 114.548 C 192.400 112.335,187.540 106.448,184.471 104.942 C 182.713 104.080,174.510 103.884,162.232 104.410 M186.742 109.110 C 190.390 112.727,190.498 112.888,191.050 115.510 C 191.361 116.990,191.810 119.101,192.048 120.202 C 193.555 127.175,191.196 133.072,185.904 135.566 C 184.422 136.265,183.037 137.157,182.827 137.549 C 182.541 138.085,181.384 138.435,178.175 138.958 C 173.574 139.707,172.720 140.055,171.951 141.492 C 171.677 142.003,170.991 142.521,170.427 142.643 C 168.376 143.086,166.997 143.797,165.494 145.184 C 164.651 145.963,163.415 147.050,162.749 147.600 C 162.083 148.150,161.327 148.834,161.069 149.119 C 160.811 149.405,160.366 149.855,160.081 150.119 C 159.795 150.384,159.345 150.834,159.081 151.119 C 158.816 151.405,158.366 151.855,158.081 152.119 C 156.073 153.978,154.876 155.671,154.626 157.002 C 154.475 157.805,154.041 158.435,153.455 158.702 C 152.475 159.149,151.099 161.679,150.611 163.933 C 150.452 164.666,149.750 165.854,149.052 166.574 C 147.806 167.857,147.164 169.659,146.585 173.505 C 146.422 174.589,146.049 175.360,145.563 175.620 C 144.230 176.333,143.432 179.140,142.584 186.094 C 142.438 187.293,142.079 188.179,141.607 188.510 C 140.320 189.412,139.535 192.196,138.608 199.152 C 138.453 200.309,137.938 201.418,137.087 202.421 C 136.379 203.256,135.474 204.946,135.076 206.175 C 133.815 210.071,131.420 211.638,126.650 211.688 C 122.206 211.734,117.689 210.038,117.613 208.295 C 117.606 208.127,116.778 207.119,115.773 206.054 C 113.668 203.823,112.800 202.323,112.800 200.915 C 112.800 199.700,111.745 197.310,110.684 196.120 C 108.277 193.422,108.249 160.504,110.651 156.951 C 111.838 155.195,112.431 153.102,112.823 149.280 C 113.454 143.130,113.844 141.220,114.655 140.297 C 115.881 138.903,117.600 136.078,117.600 135.458 C 117.600 134.844,118.413 134.065,119.743 133.406 C 120.214 133.172,120.953 132.325,121.385 131.524 C 121.817 130.723,122.734 129.798,123.422 129.470 C 124.146 129.125,124.966 128.258,125.366 127.416 C 125.746 126.614,126.449 125.807,126.929 125.622 C 128.059 125.185,129.481 123.617,129.665 122.605 C 129.744 122.167,130.167 121.741,130.605 121.659 C 131.516 121.486,133.600 119.313,133.600 118.536 C 133.600 118.250,134.307 117.655,135.172 117.214 C 136.260 116.659,136.897 115.988,137.243 115.032 C 137.557 114.162,138.080 113.566,138.654 113.422 C 139.651 113.172,141.148 111.847,141.838 110.606 C 142.287 109.799,142.928 109.580,147.800 108.579 C 153.276 107.452,153.818 107.313,155.400 106.623 C 157.607 105.660,162.983 105.287,173.800 105.348 L 183.000 105.400 186.742 109.110 M215.800 145.645 C 214.700 145.790,212.810 146.213,211.600 146.585 C 210.390 146.958,208.140 147.607,206.600 148.029 C 203.395 148.906,202.178 149.459,200.883 150.627 C 200.378 151.082,199.028 151.785,197.883 152.188 C 196.737 152.591,194.974 153.518,193.965 154.247 C 192.956 154.976,191.336 155.918,190.365 156.339 C 189.394 156.761,188.060 157.586,187.400 158.173 C 186.740 158.760,185.234 159.705,184.053 160.272 C 182.872 160.839,181.524 161.741,181.058 162.277 C 180.592 162.813,179.578 163.633,178.805 164.100 C 178.032 164.566,176.752 165.590,175.961 166.374 C 175.169 167.158,173.999 168.258,173.361 168.819 C 172.722 169.379,171.750 170.416,171.201 171.123 C 170.651 171.831,169.895 172.506,169.521 172.625 C 169.147 172.744,168.718 173.229,168.567 173.704 C 168.416 174.178,167.673 175.204,166.914 175.983 C 166.156 176.762,165.018 178.480,164.384 179.800 C 163.751 181.120,162.721 182.790,162.096 183.510 C 161.470 184.231,160.643 185.851,160.258 187.110 C 159.386 189.965,158.333 192.400,157.972 192.400 C 157.507 192.400,156.893 194.416,156.023 198.800 C 155.565 201.110,154.907 203.990,154.561 205.200 C 152.185 213.504,152.202 223.317,154.606 232.200 C 154.963 233.520,155.618 236.400,156.060 238.600 C 156.606 241.311,157.279 243.309,158.151 244.800 C 158.858 246.010,159.758 248.029,160.151 249.287 C 160.544 250.544,161.415 252.254,162.086 253.087 C 162.758 253.919,163.723 255.528,164.232 256.662 C 164.740 257.796,165.496 258.966,165.912 259.262 C 166.328 259.558,167.193 260.601,167.834 261.579 C 168.973 263.316,169.780 264.253,174.506 269.325 C 177.299 272.322,177.082 272.104,179.907 274.737 C 181.168 275.912,182.830 277.466,183.600 278.189 C 184.370 278.912,185.540 279.841,186.200 280.252 C 186.860 280.663,187.813 281.485,188.317 282.078 C 188.821 282.671,189.901 283.563,190.717 284.061 C 191.533 284.558,192.650 285.434,193.200 286.007 C 193.750 286.580,195.415 287.638,196.900 288.358 C 198.385 289.078,199.600 289.819,199.600 290.004 C 199.600 290.391,203.685 292.400,204.472 292.400 C 204.758 292.400,206.280 293.036,207.853 293.813 C 214.928 297.309,232.926 297.213,237.927 293.652 C 238.532 293.221,239.741 292.740,240.614 292.582 C 241.486 292.425,242.380 292.177,242.600 292.031 C 242.820 291.886,243.720 291.524,244.600 291.227 C 245.480 290.931,246.623 290.269,247.140 289.758 C 247.658 289.247,248.468 288.721,248.940 288.589 C 250.294 288.213,253.986 286.271,254.814 285.500 C 255.228 285.115,255.674 284.800,255.806 284.800 C 256.341 284.800,260.879 282.378,261.491 281.766 C 262.168 281.090,265.332 279.600,266.092 279.600 C 266.326 279.600,267.256 279.003,268.159 278.274 C 269.061 277.545,271.012 276.346,272.494 275.609 C 273.975 274.872,275.289 273.948,275.414 273.555 C 275.539 273.162,275.947 272.743,276.320 272.622 C 277.320 272.301,279.600 270.255,279.600 269.679 C 279.600 269.146,281.388 266.258,282.445 265.084 C 282.800 264.689,283.394 263.159,283.765 261.684 C 285.067 256.500,285.288 255.783,286.212 253.750 C 286.724 252.622,287.349 250.282,287.601 248.550 C 288.545 242.047,289.340 238.255,289.938 237.416 C 293.484 232.428,293.542 202.921,290.017 197.362 C 289.400 196.389,288.493 194.518,288.001 193.204 C 287.510 191.889,286.492 190.161,285.740 189.364 C 284.988 188.566,284.015 187.213,283.578 186.357 C 283.141 185.501,282.615 184.800,282.409 184.800 C 282.203 184.800,281.052 183.810,279.852 182.600 C 278.652 181.390,277.518 180.400,277.334 180.400 C 277.149 180.400,276.140 179.601,275.092 178.625 C 274.044 177.648,272.829 176.736,272.393 176.598 C 271.957 176.459,271.600 176.178,271.600 175.973 C 271.600 175.768,271.396 175.600,271.147 175.600 C 270.898 175.600,270.133 175.006,269.447 174.280 C 268.761 173.554,267.570 172.609,266.800 172.180 C 266.030 171.751,265.040 170.973,264.600 170.451 C 264.160 169.929,263.080 169.048,262.200 168.492 C 261.320 167.936,260.158 166.955,259.618 166.312 C 259.078 165.669,258.088 164.904,257.418 164.614 C 256.155 164.066,255.203 163.374,253.131 161.500 C 252.463 160.895,251.664 160.400,251.358 160.400 C 251.051 160.400,250.800 160.220,250.800 160.000 C 250.800 159.780,250.564 159.600,250.275 159.600 C 249.986 159.600,249.221 159.043,248.575 158.362 C 247.929 157.681,246.680 156.782,245.800 156.363 C 244.920 155.945,243.515 154.993,242.678 154.247 C 241.841 153.501,240.292 152.555,239.235 152.145 C 238.178 151.735,236.653 150.869,235.846 150.219 C 234.483 149.123,232.449 148.450,225.400 146.764 C 224.520 146.553,223.350 146.218,222.800 146.020 C 221.386 145.509,218.149 145.336,215.800 145.645 M223.200 148.380 C 230.653 149.199,232.247 149.604,233.868 151.088 C 234.687 151.838,235.906 152.545,236.578 152.660 C 238.267 152.949,240.365 154.062,240.599 154.792 C 240.835 155.530,244.424 157.600,245.468 157.600 C 245.913 157.600,246.520 158.161,246.961 158.980 C 247.479 159.942,248.081 160.439,248.952 160.624 C 249.650 160.772,250.860 161.588,251.697 162.474 C 252.520 163.346,254.050 164.504,255.097 165.046 C 256.143 165.588,257.477 166.581,258.060 167.253 C 259.137 168.493,260.892 169.600,261.783 169.600 C 262.053 169.600,262.607 170.219,263.015 170.975 C 263.515 171.905,264.281 172.553,265.378 172.974 C 266.355 173.350,267.265 174.065,267.667 174.774 C 268.034 175.421,269.024 176.308,269.867 176.746 C 270.710 177.184,272.300 178.380,273.400 179.404 C 274.500 180.429,275.973 181.507,276.673 181.802 C 277.374 182.096,278.237 182.898,278.592 183.584 C 278.946 184.269,279.861 185.128,280.624 185.492 C 281.645 185.979,282.267 186.710,282.977 188.262 C 283.508 189.422,284.675 191.134,285.571 192.066 C 286.740 193.282,287.202 194.106,287.209 194.981 C 287.220 196.493,288.429 199.223,289.551 200.268 C 292.020 202.568,291.925 229.931,289.436 233.384 C 288.165 235.147,287.631 237.034,287.385 240.625 C 287.104 244.716,286.323 249.600,285.949 249.600 C 285.256 249.600,283.660 253.987,283.404 256.600 C 282.993 260.797,282.501 262.282,281.013 263.814 C 280.270 264.579,279.545 265.741,279.401 266.397 C 279.256 267.054,278.972 267.694,278.769 267.819 C 278.566 267.945,278.400 268.319,278.400 268.652 C 278.400 269.421,277.610 270.216,276.495 270.570 C 276.017 270.721,274.789 271.660,273.765 272.655 C 272.676 273.713,271.005 274.808,269.738 275.293 C 268.324 275.834,267.345 276.508,266.914 277.238 C 266.460 278.007,265.811 278.432,264.827 278.604 C 262.670 278.981,259.849 280.488,259.405 281.500 C 259.140 282.103,258.548 282.472,257.605 282.621 C 256.832 282.744,255.887 283.014,255.505 283.222 C 255.123 283.430,254.572 283.600,254.281 283.600 C 253.738 283.600,252.736 284.448,251.504 285.951 C 251.121 286.418,250.383 286.800,249.863 286.800 C 248.696 286.800,245.212 288.593,244.400 289.611 C 244.010 290.100,242.679 290.588,240.600 291.003 C 237.141 291.693,235.097 292.492,233.873 293.632 C 232.013 295.365,213.400 295.314,211.329 293.571 C 209.778 292.265,206.760 291.140,203.396 290.613 C 202.223 290.430,201.626 290.072,201.170 289.281 C 200.779 288.601,199.721 287.859,198.315 287.279 C 197.087 286.772,195.257 285.578,194.248 284.625 C 193.113 283.553,191.876 282.791,191.006 282.628 C 189.983 282.436,189.600 282.157,189.600 281.602 C 189.600 280.798,187.589 279.071,186.143 278.633 C 185.672 278.490,185.082 277.882,184.834 277.281 C 184.569 276.642,183.637 275.794,182.591 275.239 C 181.606 274.716,180.800 274.071,180.800 273.806 C 180.800 273.226,179.451 271.605,178.953 271.587 C 178.358 271.564,176.800 270.103,176.800 269.567 C 176.800 268.931,175.620 267.604,175.038 267.587 C 174.232 267.562,172.934 266.190,172.651 265.062 C 172.489 264.416,171.863 263.663,171.164 263.273 C 170.411 262.853,169.647 261.890,169.135 260.713 C 168.683 259.675,167.983 258.722,167.580 258.594 C 166.948 258.393,164.400 253.924,164.400 253.015 C 164.400 252.675,162.354 250.801,161.983 250.800 C 161.863 250.800,161.523 249.675,161.227 248.300 C 160.521 245.019,159.758 243.186,158.825 242.533 C 157.890 241.878,157.258 239.140,156.762 233.600 C 156.555 231.290,156.074 228.050,155.693 226.400 C 154.862 222.799,154.780 214.497,155.543 211.200 C 155.823 209.990,156.230 207.560,156.447 205.800 C 157.677 195.821,157.612 196.117,159.000 194.315 C 160.210 192.745,161.600 188.738,161.600 186.819 C 161.600 186.425,162.225 185.675,162.990 185.152 C 163.833 184.574,164.481 183.739,164.638 183.027 C 165.008 181.345,166.258 179.262,167.858 177.662 C 168.621 176.899,169.348 175.761,169.474 175.132 C 169.633 174.336,170.120 173.791,171.078 173.336 C 172.007 172.895,172.648 172.196,173.055 171.178 C 173.470 170.141,174.052 169.516,174.929 169.167 C 176.341 168.605,177.306 167.751,177.703 166.713 C 177.847 166.335,178.648 165.741,179.483 165.393 C 180.317 165.045,181.630 164.172,182.400 163.452 C 184.122 161.842,185.461 161.010,186.902 160.655 C 187.534 160.500,188.386 159.793,188.902 158.997 C 189.396 158.234,190.046 157.608,190.346 157.605 C 191.755 157.592,194.992 156.076,195.964 154.974 C 196.730 154.106,197.795 153.542,199.622 153.037 C 201.359 152.558,202.657 151.891,203.600 150.994 C 205.127 149.543,206.532 149.176,213.585 148.387 C 215.667 148.154,217.462 147.872,217.573 147.760 C 217.685 147.649,218.141 147.648,218.588 147.760 C 219.035 147.871,221.110 148.150,223.200 148.380 " stroke="none" fill="#a68e94" fill-rule="evenodd"></path><path id="path2" d="M162.600 103.808 C 162.380 103.888,159.410 104.146,156.000 104.383 C 146.352 105.051,142.873 106.681,135.864 113.816 C 133.063 116.667,130.475 119.270,130.111 119.600 C 129.748 119.930,129.080 120.625,128.625 121.144 C 128.171 121.663,127.287 122.563,126.660 123.144 C 126.032 123.725,125.222 124.524,124.860 124.921 C 124.497 125.317,122.489 127.387,120.398 129.521 C 118.307 131.654,116.158 134.030,115.623 134.800 C 115.087 135.570,114.244 136.618,113.750 137.129 C 113.255 137.640,112.740 138.630,112.604 139.329 C 112.365 140.561,112.171 141.535,111.159 146.600 C 110.895 147.920,110.462 149.540,110.196 150.200 C 109.930 150.860,109.510 151.897,109.263 152.504 C 108.848 153.523,108.327 157.587,107.224 168.400 C 106.395 176.522,106.702 185.928,108.019 192.800 C 108.339 194.473,108.351 194.431,108.185 192.200 C 107.409 181.784,107.289 177.588,107.615 172.200 C 108.394 159.302,108.762 156.437,110.188 152.211 C 110.932 150.005,111.831 146.400,112.186 144.200 C 112.917 139.667,113.457 138.020,114.447 137.300 C 114.825 137.025,115.551 136.126,116.061 135.301 C 116.570 134.477,118.610 132.177,120.594 130.191 C 122.577 128.205,124.519 126.090,124.909 125.490 C 125.299 124.891,125.807 124.400,126.038 124.400 C 126.547 124.400,127.137 123.811,128.332 122.111 C 128.831 121.402,129.759 120.515,130.395 120.139 C 131.031 119.764,131.874 118.857,132.268 118.126 C 132.662 117.394,133.292 116.698,133.668 116.579 C 134.043 116.459,134.907 115.695,135.587 114.881 C 136.267 114.066,137.011 113.220,137.241 113.000 C 137.470 112.780,138.634 111.655,139.829 110.500 C 141.023 109.345,142.279 108.400,142.619 108.400 C 142.960 108.400,143.984 108.040,144.894 107.600 C 145.805 107.160,146.714 106.800,146.915 106.800 C 147.115 106.800,147.846 106.544,148.540 106.230 C 153.063 104.186,180.791 103.219,184.496 104.977 C 187.505 106.405,192.400 112.332,192.400 114.548 C 192.400 114.895,192.940 116.539,193.600 118.200 C 195.257 122.372,195.255 125.466,193.593 129.135 C 191.424 133.922,190.967 134.531,188.328 136.151 C 186.937 137.005,185.709 137.843,185.599 138.015 C 185.188 138.653,181.866 139.644,176.919 140.606 C 176.214 140.743,175.224 141.176,174.719 141.568 C 173.471 142.535,170.070 144.400,169.554 144.400 C 168.236 144.400,157.376 155.007,155.828 157.806 C 155.222 158.903,154.307 160.250,153.794 160.800 C 153.281 161.350,152.562 162.610,152.196 163.600 C 150.888 167.137,150.292 168.356,149.773 168.555 C 149.283 168.743,147.602 173.601,147.598 174.843 C 147.597 175.149,146.986 176.589,146.240 178.043 C 145.335 179.806,144.608 182.119,144.057 184.991 C 143.592 187.409,142.696 190.439,142.011 191.901 C 141.341 193.334,140.708 195.247,140.604 196.153 C 140.447 197.526,140.469 197.599,140.739 196.588 C 140.917 195.922,141.616 194.212,142.291 192.788 C 143.579 190.074,144.189 187.931,144.619 184.606 C 144.761 183.509,145.413 181.439,146.068 180.006 C 147.516 176.839,148.251 174.717,148.633 172.600 C 148.896 171.147,150.477 168.093,151.222 167.600 C 151.389 167.489,151.910 166.208,152.380 164.753 C 152.850 163.297,153.683 161.686,154.230 161.172 C 154.778 160.657,155.625 159.437,156.113 158.459 C 156.924 156.835,165.439 147.600,166.127 147.600 C 166.289 147.600,167.058 147.020,167.837 146.312 C 168.615 145.604,170.005 144.729,170.926 144.368 C 171.847 144.007,173.643 143.072,174.918 142.291 C 176.415 141.374,177.975 140.778,179.318 140.611 C 182.409 140.226,185.605 139.009,187.031 137.675 C 187.488 137.248,188.208 136.787,188.631 136.651 C 190.235 136.137,191.680 134.365,193.607 130.547 C 196.323 125.166,196.350 122.883,193.770 116.800 C 193.257 115.590,192.725 114.150,192.587 113.600 C 192.175 111.956,191.304 110.250,190.442 109.400 C 184.396 103.438,184.871 103.591,172.587 103.632 C 167.314 103.649,162.820 103.728,162.600 103.808 M211.000 146.059 C 209.240 146.726,206.461 147.627,204.825 148.061 C 203.189 148.495,201.569 149.167,201.225 149.554 C 200.476 150.396,198.833 151.300,196.427 152.194 C 195.451 152.556,194.173 153.256,193.587 153.750 C 193.000 154.244,191.458 155.163,190.160 155.794 C 188.862 156.424,187.491 157.289,187.112 157.717 C 186.734 158.144,185.225 159.097,183.758 159.835 C 182.291 160.573,180.846 161.528,180.546 161.956 C 180.246 162.384,179.354 163.134,178.565 163.622 C 177.314 164.395,174.520 166.848,172.455 168.988 C 172.095 169.361,171.071 170.416,170.179 171.333 C 169.288 172.250,168.038 173.720,167.401 174.600 C 166.765 175.480,165.998 176.350,165.697 176.534 C 165.397 176.717,164.590 178.067,163.906 179.534 C 163.221 181.000,162.273 182.560,161.799 183.000 C 161.326 183.440,160.601 184.790,160.188 186.000 C 159.776 187.210,159.295 188.371,159.119 188.580 C 158.944 188.789,158.800 189.206,158.800 189.507 C 158.800 189.807,158.360 190.630,157.822 191.335 C 156.903 192.541,156.401 194.132,155.596 198.400 C 155.096 201.054,154.433 203.691,154.038 204.600 C 152.781 207.496,152.600 209.261,152.600 218.600 C 152.600 227.784,152.938 231.122,154.016 232.600 C 154.325 233.024,155.025 235.795,155.588 238.822 C 156.175 241.975,156.859 244.158,157.585 245.196 C 158.378 246.329,159.203 248.117,160.214 250.894 C 160.594 251.936,161.165 253.005,161.483 253.269 C 161.801 253.532,162.784 255.067,163.669 256.678 C 164.553 258.290,165.587 259.832,165.965 260.104 C 166.344 260.377,167.137 261.320,167.727 262.200 C 169.312 264.565,170.856 266.282,176.459 271.914 C 183.606 279.100,185.429 280.800,185.985 280.800 C 186.254 280.800,187.198 281.610,188.084 282.600 C 188.970 283.590,189.922 284.400,190.198 284.400 C 190.475 284.400,191.446 285.101,192.356 285.958 C 193.266 286.816,194.789 287.883,195.741 288.330 C 196.693 288.778,197.996 289.580,198.636 290.113 C 200.169 291.388,200.916 291.762,204.008 292.799 C 205.433 293.277,206.870 293.886,207.200 294.152 C 208.828 295.462,213.153 296.560,215.800 296.335 C 217.107 296.224,216.801 296.117,214.123 295.746 C 211.830 295.429,209.968 294.858,207.920 293.846 C 206.310 293.051,204.758 292.400,204.472 292.400 C 203.685 292.400,199.600 290.391,199.600 290.004 C 199.600 289.819,198.385 289.078,196.900 288.358 C 195.415 287.638,193.750 286.580,193.200 286.007 C 192.650 285.434,191.533 284.558,190.717 284.061 C 189.901 283.563,188.821 282.671,188.317 282.078 C 187.813 281.485,186.860 280.663,186.200 280.252 C 185.540 279.841,184.370 278.912,183.600 278.189 C 182.830 277.466,181.168 275.912,179.907 274.737 C 177.082 272.104,177.299 272.322,174.506 269.325 C 169.780 264.253,168.973 263.316,167.834 261.579 C 167.193 260.601,166.328 259.558,165.912 259.262 C 165.496 258.966,164.740 257.796,164.232 256.662 C 163.723 255.528,162.758 253.919,162.086 253.087 C 161.415 252.254,160.544 250.544,160.151 249.287 C 159.758 248.029,158.858 246.010,158.151 244.800 C 157.279 243.309,156.606 241.311,156.060 238.600 C 155.618 236.400,154.963 233.520,154.606 232.200 C 152.202 223.317,152.185 213.504,154.561 205.200 C 154.907 203.990,155.565 201.110,156.023 198.800 C 156.893 194.416,157.507 192.400,157.972 192.400 C 158.333 192.400,159.386 189.965,160.258 187.110 C 160.643 185.851,161.470 184.231,162.096 183.510 C 162.721 182.790,163.751 181.120,164.384 179.800 C 165.018 178.480,166.156 176.762,166.914 175.983 C 167.673 175.204,168.416 174.178,168.567 173.704 C 168.718 173.229,169.147 172.744,169.521 172.625 C 169.895 172.506,170.651 171.831,171.201 171.123 C 171.750 170.416,172.722 169.379,173.361 168.819 C 173.999 168.258,175.169 167.158,175.961 166.374 C 176.752 165.590,178.032 164.566,178.805 164.100 C 179.578 163.633,180.592 162.813,181.058 162.277 C 181.524 161.741,182.872 160.839,184.053 160.272 C 185.234 159.705,186.740 158.760,187.400 158.173 C 188.060 157.586,189.394 156.761,190.365 156.339 C 191.336 155.918,192.956 154.976,193.965 154.247 C 194.974 153.518,196.737 152.591,197.883 152.188 C 199.028 151.785,200.378 151.082,200.883 150.627 C 202.178 149.459,203.395 148.906,206.600 148.029 C 208.140 147.607,210.390 146.960,211.600 146.590 C 216.131 145.204,219.929 145.191,224.800 146.542 C 226.010 146.878,228.660 147.577,230.689 148.095 C 233.197 148.737,234.848 149.416,235.846 150.219 C 236.653 150.869,238.178 151.735,239.235 152.145 C 240.292 152.555,241.841 153.501,242.678 154.247 C 243.515 154.993,244.920 155.945,245.800 156.363 C 246.680 156.782,247.929 157.681,248.575 158.362 C 249.221 159.043,249.986 159.600,250.275 159.600 C 250.564 159.600,250.800 159.780,250.800 160.000 C 250.800 160.220,251.051 160.400,251.358 160.400 C 251.664 160.400,252.463 160.895,253.131 161.500 C 255.203 163.374,256.155 164.066,257.418 164.614 C 258.088 164.904,259.078 165.669,259.618 166.312 C 260.158 166.955,261.320 167.936,262.200 168.492 C 263.080 169.048,264.160 169.929,264.600 170.451 C 265.040 170.973,266.030 171.751,266.800 172.180 C 267.570 172.609,268.761 173.554,269.447 174.280 C 270.133 175.006,270.898 175.600,271.147 175.600 C 271.396 175.600,271.600 175.768,271.600 175.973 C 271.600 176.178,271.957 176.459,272.393 176.598 C 272.829 176.736,274.044 177.648,275.092 178.625 C 276.140 179.601,277.149 180.400,277.334 180.400 C 277.518 180.400,278.652 181.390,279.852 182.600 C 281.052 183.810,282.203 184.800,282.409 184.800 C 282.615 184.800,283.141 185.501,283.578 186.357 C 284.015 187.213,284.988 188.566,285.740 189.364 C 286.492 190.161,287.510 191.889,288.001 193.204 C 288.493 194.518,289.400 196.389,290.017 197.362 C 291.999 200.488,292.569 204.738,292.571 216.400 C 292.572 223.401,292.680 225.973,292.917 224.600 C 293.467 221.417,293.427 209.354,292.856 205.600 C 292.391 202.550,292.154 201.396,291.409 198.571 C 291.289 198.114,290.871 197.394,290.481 196.971 C 290.090 196.547,289.524 195.570,289.222 194.800 C 287.862 191.329,287.062 189.838,286.001 188.801 C 285.373 188.187,284.489 186.959,284.037 186.072 C 283.584 185.184,282.884 184.354,282.482 184.226 C 282.080 184.098,281.062 183.185,280.219 182.197 C 279.377 181.209,278.535 180.400,278.348 180.400 C 277.932 180.400,276.564 179.307,275.472 178.101 C 275.024 177.606,273.521 176.526,272.132 175.701 C 270.744 174.875,269.517 173.930,269.407 173.600 C 269.297 173.270,268.313 172.499,267.221 171.887 C 266.129 171.275,264.883 170.278,264.452 169.673 C 264.020 169.067,263.157 168.313,262.534 167.998 C 261.910 167.682,260.860 166.870,260.200 166.193 C 259.540 165.516,258.323 164.549,257.495 164.045 C 256.668 163.541,255.259 162.517,254.364 161.770 C 253.469 161.023,251.850 159.914,250.765 159.306 C 249.681 158.697,248.703 157.919,248.594 157.576 C 248.484 157.232,247.630 156.624,246.697 156.224 C 245.764 155.824,244.370 154.910,243.600 154.193 C 242.830 153.476,240.982 152.334,239.494 151.655 C 238.006 150.976,236.399 150.058,235.924 149.615 C 234.950 148.708,235.213 148.804,229.800 147.380 C 227.600 146.801,225.620 146.196,225.400 146.034 C 223.122 144.359,215.447 144.373,211.000 146.059 M108.608 196.520 C 108.718 197.679,109.165 198.948,109.735 199.720 C 110.255 200.424,111.151 202.201,111.726 203.670 C 113.845 209.076,121.838 215.056,126.701 214.873 C 129.987 214.750,134.848 211.534,136.322 208.510 C 136.942 207.239,137.902 205.480,138.457 204.600 C 139.748 202.553,140.412 200.609,140.356 199.040 C 140.318 197.990,140.234 198.107,139.803 199.800 C 139.126 202.466,138.582 203.778,137.755 204.744 C 137.377 205.185,136.689 206.444,136.225 207.542 C 134.955 210.544,131.029 213.600,128.440 213.600 C 128.004 213.600,127.536 213.780,127.400 214.000 C 127.057 214.554,125.938 214.500,124.561 213.862 C 123.923 213.566,122.257 212.891,120.861 212.362 C 119.464 211.833,117.993 211.040,117.592 210.600 C 117.190 210.160,116.043 208.953,115.043 207.918 C 113.743 206.573,112.870 205.119,111.983 202.817 C 111.300 201.047,110.522 199.374,110.254 199.099 C 109.769 198.603,109.036 196.927,108.635 195.400 C 108.519 194.960,108.507 195.464,108.608 196.520 M291.699 230.400 C 291.238 233.897,290.617 236.343,289.913 237.435 C 289.319 238.358,288.529 242.153,287.601 248.550 C 287.349 250.282,286.724 252.622,286.212 253.750 C 285.288 255.783,285.067 256.500,283.765 261.684 C 283.394 263.159,282.800 264.689,282.445 265.084 C 281.388 266.258,279.600 269.146,279.600 269.679 C 279.600 270.255,277.320 272.301,276.320 272.622 C 275.947 272.743,275.539 273.162,275.414 273.555 C 275.289 273.948,273.975 274.872,272.494 275.609 C 271.012 276.346,269.061 277.545,268.159 278.274 C 267.256 279.003,266.326 279.600,266.092 279.600 C 265.332 279.600,262.168 281.090,261.491 281.766 C 260.879 282.378,256.341 284.800,255.806 284.800 C 255.674 284.800,255.228 285.115,254.814 285.500 C 253.986 286.271,250.294 288.213,248.940 288.589 C 248.468 288.721,247.658 289.247,247.140 289.758 C 246.623 290.269,245.480 290.930,244.600 291.226 C 242.819 291.824,241.932 292.400,242.792 292.400 C 244.365 292.400,246.695 291.162,248.625 289.300 C 248.910 289.025,249.407 288.800,249.731 288.800 C 250.531 288.800,254.568 286.647,255.640 285.649 C 256.117 285.204,257.038 284.723,257.685 284.581 C 258.333 284.439,259.973 283.568,261.331 282.645 C 262.689 281.722,264.614 280.660,265.608 280.285 C 266.603 279.911,268.376 278.883,269.548 278.002 C 270.721 277.121,272.000 276.400,272.390 276.400 C 272.780 276.400,274.193 275.424,275.530 274.231 C 276.868 273.037,278.218 271.912,278.531 271.731 C 278.844 271.549,279.866 270.140,280.802 268.600 C 281.738 267.060,282.644 265.709,282.815 265.599 C 283.275 265.303,284.198 262.610,285.010 259.200 C 285.403 257.550,286.028 255.750,286.400 255.200 C 287.029 254.269,287.382 252.663,288.973 243.503 C 289.307 241.580,289.924 239.330,290.343 238.503 C 291.334 236.548,292.489 230.655,292.327 228.381 C 292.223 226.921,292.110 227.284,291.699 230.400 M239.800 292.693 C 239.360 292.803,238.504 293.245,237.898 293.675 C 236.417 294.726,234.871 295.175,230.600 295.794 C 227.042 296.309,227.028 296.315,229.400 296.343 C 232.944 296.385,236.490 295.429,239.442 293.636 C 240.125 293.221,241.025 292.794,241.442 292.687 C 242.145 292.507,242.142 292.493,241.400 292.493 C 240.960 292.493,240.240 292.583,239.800 292.693 M219.916 296.697 C 221.299 296.775,223.459 296.774,224.716 296.695 C 225.972 296.616,224.840 296.552,222.200 296.553 C 219.560 296.553,218.532 296.618,219.916 296.697 " stroke="none" fill="#8c6c74" fill-rule="evenodd"></path><path id="path3" d="M172.400 102.643 C 151.026 103.453,146.502 103.940,145.002 105.598 C 144.619 106.021,143.472 106.650,142.453 106.997 C 140.426 107.686,139.103 108.630,138.705 109.670 C 138.564 110.038,137.833 110.631,137.082 110.988 C 135.811 111.591,135.202 112.370,134.649 114.100 C 134.526 114.485,134.069 114.800,133.633 114.800 C 132.863 114.800,131.170 116.687,130.672 118.100 C 130.536 118.485,130.168 118.800,129.854 118.800 C 129.540 118.800,128.727 119.475,128.048 120.300 C 127.369 121.125,126.586 122.016,126.307 122.280 C 125.531 123.015,122.820 125.735,122.280 126.321 C 122.016 126.607,121.260 127.350,120.600 127.972 C 119.940 128.594,118.937 129.619,118.372 130.251 C 117.806 130.883,116.992 131.670,116.563 132.000 C 116.134 132.330,115.430 133.276,114.999 134.102 C 114.568 134.929,113.913 135.701,113.544 135.818 C 112.578 136.124,111.760 137.554,111.493 139.400 C 111.365 140.280,111.055 142.416,110.803 144.147 C 110.514 146.129,110.074 147.584,109.613 148.078 C 108.437 149.340,108.002 151.624,106.997 161.800 C 106.476 167.080,105.762 172.893,105.410 174.717 C 104.748 178.155,104.841 179.433,106.364 187.800 C 106.564 188.900,106.950 191.780,107.221 194.200 C 107.746 198.878,107.977 199.621,109.398 201.200 C 109.892 201.750,110.607 203.210,110.986 204.444 C 111.622 206.518,113.182 208.800,113.963 208.800 C 114.145 208.800,114.774 209.525,115.360 210.411 C 116.100 211.530,117.089 212.326,118.590 213.013 C 119.781 213.557,120.874 214.197,121.021 214.434 C 122.543 216.896,128.747 216.844,131.656 214.345 C 132.395 213.709,133.581 212.977,134.291 212.718 C 135.267 212.361,135.853 211.702,136.688 210.023 C 137.295 208.800,138.370 206.981,139.076 205.981 C 139.962 204.724,140.490 203.364,140.785 201.581 C 141.478 197.380,141.890 195.972,142.690 195.061 C 143.782 193.820,144.336 192.327,144.600 189.916 C 145.146 184.947,146.018 181.886,147.199 180.800 C 147.702 180.337,148.354 178.372,148.608 176.552 C 149.016 173.625,149.878 171.309,151.168 169.670 C 151.804 168.861,152.444 167.623,152.590 166.917 C 152.983 165.023,154.186 162.732,155.368 161.626 C 155.941 161.090,156.587 160.010,156.804 159.226 C 157.291 157.471,157.508 157.167,158.921 156.267 C 159.538 155.875,160.153 155.249,160.287 154.877 C 160.628 153.932,166.390 148.400,167.033 148.400 C 167.322 148.400,168.022 147.794,168.587 147.052 C 169.331 146.078,170.249 145.507,171.908 144.989 C 174.343 144.229,175.903 143.411,176.668 142.496 C 177.134 141.937,180.523 141.072,184.065 140.606 C 185.540 140.413,186.330 139.989,187.843 138.581 C 188.894 137.601,189.982 136.800,190.259 136.800 C 190.937 136.800,192.800 134.903,192.800 134.212 C 192.800 133.909,193.412 132.860,194.159 131.881 C 196.529 128.777,196.593 128.551,196.555 123.537 C 196.522 119.220,196.440 118.745,195.453 117.137 C 194.867 116.182,194.225 115.130,194.027 114.800 C 193.828 114.470,193.357 113.141,192.979 111.846 C 192.281 109.455,191.841 108.829,189.852 107.400 C 189.240 106.960,188.498 106.144,188.204 105.586 C 186.991 103.289,181.645 102.293,172.400 102.643 M183.987 104.257 C 185.567 104.829,186.816 105.825,190.442 109.400 C 191.304 110.250,192.175 111.956,192.587 113.600 C 192.725 114.150,193.257 115.590,193.770 116.800 C 196.350 122.883,196.323 125.166,193.607 130.547 C 191.680 134.365,190.235 136.137,188.631 136.651 C 188.208 136.787,187.488 137.248,187.031 137.675 C 185.605 139.009,182.409 140.226,179.318 140.611 C 177.975 140.778,176.415 141.374,174.918 142.291 C 173.643 143.072,171.847 144.007,170.926 144.368 C 170.005 144.729,168.615 145.604,167.837 146.312 C 167.058 147.020,166.289 147.600,166.127 147.600 C 165.439 147.600,156.924 156.835,156.113 158.459 C 155.625 159.437,154.778 160.657,154.230 161.172 C 153.683 161.686,152.850 163.297,152.380 164.753 C 151.910 166.208,151.389 167.489,151.222 167.600 C 150.477 168.093,148.896 171.147,148.633 172.600 C 148.251 174.717,147.516 176.839,146.068 180.006 C 145.413 181.439,144.761 183.509,144.619 184.606 C 144.184 187.969,143.573 190.080,142.182 193.027 C 141.448 194.582,140.731 196.832,140.589 198.027 C 140.243 200.939,139.679 202.682,138.463 204.600 C 137.905 205.480,136.942 207.239,136.322 208.510 C 134.848 211.534,129.987 214.750,126.701 214.873 C 121.838 215.056,113.845 209.076,111.726 203.670 C 111.151 202.201,110.268 200.441,109.763 199.757 C 109.103 198.861,108.670 197.354,108.214 194.357 C 107.866 192.071,107.405 189.099,107.191 187.754 C 106.671 184.499,106.690 173.637,107.224 168.400 C 108.327 157.587,108.848 153.523,109.263 152.504 C 109.510 151.897,109.930 150.860,110.196 150.200 C 110.462 149.540,110.895 147.920,111.159 146.600 C 112.171 141.535,112.365 140.561,112.604 139.329 C 112.740 138.630,113.255 137.640,113.750 137.129 C 114.244 136.618,115.087 135.570,115.623 134.800 C 116.158 134.030,118.307 131.654,120.398 129.521 C 122.489 127.387,124.497 125.317,124.860 124.921 C 125.222 124.524,126.032 123.725,126.660 123.144 C 127.287 122.563,128.171 121.663,128.625 121.144 C 129.080 120.625,129.748 119.930,130.111 119.600 C 130.475 119.270,133.063 116.667,135.864 113.816 C 142.873 106.681,146.352 105.051,156.000 104.383 C 159.410 104.146,162.380 103.888,162.600 103.808 C 164.083 103.271,182.321 103.654,183.987 104.257 M212.192 144.181 C 209.972 144.725,208.400 145.457,208.400 145.947 C 208.400 146.123,206.840 146.608,204.934 147.026 C 202.012 147.666,201.215 148.022,199.852 149.293 C 198.963 150.122,197.927 150.800,197.551 150.800 C 196.340 150.800,193.086 152.401,192.011 153.525 C 191.438 154.125,190.202 154.869,189.266 155.178 C 188.329 155.487,186.929 156.339,186.153 157.070 C 185.378 157.802,184.656 158.400,184.550 158.400 C 183.345 158.400,179.905 160.672,179.251 161.900 C 178.988 162.395,178.522 162.800,178.217 162.800 C 177.408 162.800,175.189 164.776,174.775 165.865 C 174.580 166.379,174.089 166.800,173.685 166.800 C 172.767 166.800,171.269 168.165,170.783 169.446 C 170.580 169.978,169.954 170.589,169.391 170.804 C 168.828 171.018,168.059 171.772,167.683 172.480 C 167.308 173.187,166.327 174.454,165.505 175.293 C 164.683 176.133,163.624 177.671,163.150 178.710 C 162.677 179.750,161.730 181.257,161.045 182.059 C 160.309 182.922,159.495 184.594,159.053 186.149 C 158.643 187.596,158.046 188.996,157.727 189.261 C 156.379 190.380,155.767 192.192,154.800 197.934 C 154.566 199.328,154.027 200.948,153.602 201.534 C 150.761 205.459,150.736 231.849,153.570 235.453 C 153.990 235.987,154.447 237.183,154.585 238.112 C 155.362 243.319,156.133 245.769,157.447 247.205 C 157.953 247.757,158.751 249.453,159.221 250.973 C 159.720 252.590,160.521 254.182,161.152 254.813 C 161.744 255.406,162.580 256.680,163.009 257.645 C 163.889 259.624,164.593 260.480,165.900 261.160 C 166.395 261.417,166.800 261.894,166.800 262.220 C 166.800 263.369,169.160 266.398,170.057 266.400 C 170.198 266.400,170.425 266.846,170.562 267.391 C 170.699 267.937,171.611 268.972,172.590 269.691 C 173.568 270.411,174.376 271.187,174.384 271.416 C 174.393 271.645,175.853 273.175,177.628 274.816 C 179.404 276.457,181.628 278.555,182.571 279.478 C 183.514 280.401,184.717 281.270,185.243 281.408 C 185.769 281.547,186.564 282.231,187.008 282.930 C 187.453 283.628,188.425 284.487,189.168 284.838 C 189.912 285.190,191.078 286.090,191.760 286.838 C 192.442 287.587,193.835 288.593,194.856 289.073 C 195.876 289.553,197.351 290.508,198.133 291.195 C 198.915 291.881,200.199 292.548,200.987 292.675 C 201.775 292.803,202.516 293.064,202.633 293.254 C 202.751 293.444,203.135 293.600,203.486 293.600 C 203.837 293.600,204.681 294.022,205.362 294.538 C 208.202 296.689,212.139 297.355,222.200 297.384 C 232.861 297.415,239.292 296.299,240.490 294.212 C 240.650 293.934,242.228 293.378,243.997 292.976 C 246.949 292.306,247.738 291.885,249.066 290.273 C 249.322 289.961,250.650 289.372,252.017 288.962 C 253.577 288.495,254.967 287.755,255.751 286.974 C 257.257 285.473,258.150 284.986,260.013 284.651 C 260.790 284.511,261.967 283.902,262.629 283.298 C 264.446 281.640,265.651 280.948,267.236 280.654 C 268.026 280.508,269.106 279.920,269.636 279.347 C 270.166 278.775,271.860 277.701,273.400 276.960 C 275.360 276.016,276.471 275.191,277.104 274.206 C 277.601 273.433,278.267 272.800,278.583 272.800 C 279.209 272.800,281.200 270.413,281.200 269.663 C 281.200 269.409,281.827 268.537,282.593 267.725 C 284.011 266.221,284.930 263.985,285.415 260.859 C 285.563 259.901,286.232 258.236,286.902 257.159 C 288.178 255.106,288.539 253.537,289.221 247.072 C 289.541 244.042,289.906 242.625,290.817 240.872 C 292.157 238.295,292.986 233.999,293.377 227.600 C 293.518 225.290,294.011 221.985,294.472 220.255 C 295.398 216.786,295.317 212.633,294.256 209.200 C 293.950 208.210,293.579 206.050,293.432 204.400 C 292.943 198.931,292.046 196.166,290.353 194.910 C 289.990 194.640,289.567 193.749,289.413 192.928 C 289.017 190.816,287.819 188.635,286.625 187.853 C 286.064 187.485,285.347 186.570,285.034 185.819 C 284.711 185.048,283.752 183.983,282.831 183.373 C 281.934 182.780,281.200 182.147,281.200 181.967 C 281.200 181.387,279.426 179.719,278.500 179.429 C 278.005 179.273,277.126 178.525,276.547 177.767 C 275.969 177.008,274.619 175.895,273.548 175.294 C 272.477 174.692,271.601 174.075,271.600 173.922 C 271.600 173.419,267.086 170.400,266.335 170.400 C 265.907 170.400,265.600 170.113,265.600 169.713 C 265.600 168.879,263.802 167.266,262.511 166.942 C 261.994 166.812,261.316 166.212,261.004 165.607 C 260.691 165.003,259.752 164.186,258.918 163.794 C 258.083 163.401,256.836 162.486,256.147 161.761 C 255.458 161.037,253.798 159.868,252.456 159.165 C 251.115 158.462,249.750 157.479,249.423 156.980 C 249.096 156.480,247.832 155.616,246.614 155.058 C 245.396 154.500,244.400 153.802,244.400 153.507 C 244.400 152.976,241.102 151.104,239.241 150.579 C 238.714 150.430,237.716 149.744,237.023 149.054 C 235.809 147.844,234.487 147.384,229.900 146.575 C 229.075 146.430,228.400 146.194,228.400 146.052 C 228.400 144.153,217.457 142.890,212.192 144.181 M223.354 145.270 C 224.259 145.529,225.180 145.872,225.400 146.034 C 225.620 146.196,227.600 146.801,229.800 147.380 C 235.213 148.804,234.950 148.708,235.924 149.615 C 236.399 150.058,238.006 150.976,239.494 151.655 C 240.982 152.334,242.830 153.476,243.600 154.193 C 244.370 154.910,245.764 155.824,246.697 156.224 C 247.630 156.624,248.484 157.232,248.594 157.576 C 248.703 157.919,249.681 158.697,250.765 159.306 C 251.850 159.914,253.469 161.023,254.364 161.770 C 255.259 162.517,256.668 163.541,257.495 164.045 C 258.323 164.549,259.540 165.516,260.200 166.193 C 260.860 166.870,261.910 167.682,262.534 167.998 C 263.157 168.313,264.020 169.067,264.452 169.673 C 264.883 170.278,266.129 171.275,267.221 171.887 C 268.313 172.499,269.297 173.270,269.407 173.600 C 269.517 173.930,270.744 174.875,272.132 175.701 C 273.521 176.526,275.024 177.606,275.472 178.101 C 276.564 179.307,277.932 180.400,278.348 180.400 C 278.535 180.400,279.377 181.209,280.219 182.197 C 281.062 183.185,282.080 184.098,282.482 184.226 C 282.884 184.354,283.584 185.184,284.037 186.072 C 284.489 186.959,285.373 188.187,286.001 188.801 C 287.062 189.838,287.862 191.329,289.222 194.800 C 289.524 195.570,290.090 196.547,290.481 196.971 C 290.871 197.394,291.289 198.114,291.409 198.571 C 292.158 201.410,292.390 202.550,292.842 205.600 C 294.164 214.535,292.697 233.894,290.347 238.503 C 289.925 239.330,289.307 241.580,288.973 243.503 C 287.382 252.663,287.029 254.269,286.400 255.200 C 286.028 255.750,285.403 257.550,285.010 259.200 C 284.198 262.610,283.275 265.303,282.815 265.599 C 282.644 265.709,281.738 267.060,280.802 268.600 C 279.866 270.140,278.844 271.549,278.531 271.731 C 278.218 271.912,276.868 273.037,275.530 274.231 C 274.193 275.424,272.780 276.400,272.390 276.400 C 272.000 276.400,270.721 277.121,269.548 278.002 C 268.376 278.883,266.603 279.911,265.608 280.285 C 264.614 280.660,262.689 281.722,261.331 282.645 C 259.973 283.568,258.333 284.439,257.685 284.581 C 257.038 284.723,256.117 285.204,255.640 285.649 C 254.589 286.628,250.537 288.800,249.762 288.800 C 249.280 288.800,248.448 289.388,246.647 291.000 C 246.126 291.466,243.986 292.215,242.030 292.614 C 241.277 292.768,240.107 293.231,239.430 293.642 C 235.493 296.036,232.852 296.497,222.800 296.545 C 213.052 296.592,209.568 296.058,207.200 294.152 C 206.870 293.886,205.433 293.277,204.008 292.799 C 200.916 291.762,200.169 291.388,198.636 290.113 C 197.996 289.580,196.693 288.778,195.741 288.330 C 194.789 287.883,193.266 286.816,192.356 285.958 C 191.446 285.101,190.475 284.400,190.198 284.400 C 189.922 284.400,188.970 283.590,188.084 282.600 C 187.198 281.610,186.254 280.800,185.985 280.800 C 184.820 280.800,170.238 265.945,167.727 262.200 C 167.137 261.320,166.344 260.377,165.965 260.104 C 165.587 259.832,164.553 258.290,163.669 256.678 C 162.784 255.067,161.801 253.532,161.483 253.269 C 161.165 253.005,160.594 251.936,160.214 250.894 C 159.203 248.117,158.378 246.329,157.585 245.196 C 156.859 244.158,156.175 241.975,155.588 238.822 C 155.025 235.795,154.325 233.024,154.016 232.600 C 152.938 231.122,152.600 227.784,152.600 218.600 C 152.600 209.261,152.781 207.496,154.038 204.600 C 154.433 203.691,155.096 201.054,155.596 198.400 C 156.401 194.132,156.903 192.541,157.822 191.335 C 158.360 190.630,158.800 189.807,158.800 189.507 C 158.800 189.206,158.944 188.789,159.119 188.580 C 159.295 188.371,159.776 187.210,160.188 186.000 C 160.601 184.790,161.326 183.440,161.799 183.000 C 162.273 182.560,163.221 181.000,163.906 179.534 C 164.590 178.067,165.397 176.717,165.697 176.534 C 165.998 176.350,166.765 175.480,167.401 174.600 C 168.038 173.720,169.288 172.250,170.179 171.333 C 171.071 170.416,172.095 169.361,172.455 168.988 C 174.520 166.848,177.314 164.395,178.565 163.622 C 179.354 163.134,180.246 162.384,180.546 161.956 C 180.846 161.528,182.291 160.573,183.758 159.835 C 185.225 159.097,186.734 158.144,187.112 157.717 C 187.491 157.289,188.862 156.424,190.160 155.794 C 191.458 155.163,193.000 154.244,193.587 153.750 C 194.173 153.256,195.451 152.556,196.427 152.194 C 198.833 151.300,200.476 150.396,201.225 149.554 C 201.569 149.167,203.189 148.495,204.825 148.061 C 206.461 147.627,209.240 146.726,211.000 146.059 C 214.571 144.705,220.130 144.350,223.354 145.270 " stroke="none" fill="#84646c" fill-rule="evenodd"></path><path id="path4" d="M158.000 0.976 L 158.000 1.952 150.432 2.076 C 142.031 2.214,142.417 2.108,142.114 4.367 L 141.895 6.000 136.427 6.000 C 130.320 6.000,130.000 6.124,130.000 8.480 L 130.000 10.000 125.226 10.000 C 119.252 10.000,118.497 10.255,118.156 12.388 L 117.898 14.000 114.577 14.000 C 110.767 14.000,110.000 14.441,110.000 16.629 L 110.000 18.000 106.629 18.000 C 102.763 18.000,102.000 18.434,102.000 20.629 L 102.000 22.000 99.500 22.047 C 95.208 22.129,94.673 22.358,94.293 24.281 C 93.965 25.941,93.942 25.959,92.081 26.079 L 90.200 26.200 90.078 28.100 L 89.956 30.000 86.607 30.000 C 82.773 30.000,82.000 30.438,82.000 32.607 C 82.000 33.933,81.967 33.958,80.100 34.078 L 78.200 34.200 78.078 36.100 L 77.956 38.000 76.278 38.010 C 72.435 38.031,70.400 39.075,70.400 41.024 C 70.400 41.762,70.120 41.927,68.580 42.101 C 66.372 42.350,66.386 42.337,66.114 44.367 C 65.908 45.903,65.816 46.000,64.576 46.000 C 62.883 46.000,62.000 46.901,62.000 48.629 C 62.000 49.950,61.944 50.000,60.480 50.000 C 58.564 50.000,58.000 50.564,58.000 52.480 C 58.000 53.973,57.973 54.000,56.480 54.000 C 54.564 54.000,54.000 54.564,54.000 56.480 C 54.000 57.973,53.973 58.000,52.480 58.000 C 50.564 58.000,50.000 58.564,50.000 60.480 C 50.000 61.944,49.950 62.000,48.629 62.000 C 46.886 62.000,46.000 62.886,46.000 64.629 C 46.000 65.886,45.900 66.000,44.800 66.000 C 43.170 66.000,42.000 67.253,42.000 69.000 C 42.000 70.196,41.865 70.400,41.076 70.400 C 39.073 70.400,38.032 72.397,38.010 76.278 L 38.000 77.956 36.100 78.078 L 34.200 78.200 34.078 80.100 C 33.958 81.967,33.933 82.000,32.607 82.000 C 30.438 82.000,30.000 82.773,30.000 86.607 L 30.000 89.956 28.100 90.078 L 26.200 90.200 26.079 92.081 C 25.959 93.942,25.941 93.965,24.281 94.293 C 22.358 94.673,22.129 95.208,22.047 99.500 L 22.000 102.000 20.629 102.000 C 18.434 102.000,18.000 102.763,18.000 106.629 L 18.000 110.000 16.629 110.000 C 14.441 110.000,14.000 110.767,14.000 114.577 L 14.000 117.898 12.388 118.156 C 10.255 118.497,10.000 119.252,10.000 125.226 L 10.000 130.000 8.480 130.000 C 6.121 130.000,6.000 130.316,6.000 136.480 L 6.000 142.000 4.629 142.000 C 2.120 142.000,2.000 142.395,2.000 150.629 L 2.000 158.000 1.000 158.000 L 0.000 158.000 0.000 200.000 L 0.000 242.000 0.976 242.000 L 1.952 242.000 2.076 249.568 C 2.214 257.969,2.108 257.583,4.367 257.886 L 6.000 258.105 6.000 263.424 C 6.000 269.407,6.237 270.000,8.629 270.000 L 10.000 270.000 10.000 274.774 C 10.000 280.722,10.260 281.504,12.349 281.838 L 13.924 282.090 14.062 285.612 C 14.220 289.647,14.192 289.595,16.367 289.886 L 18.000 290.105 18.000 293.424 C 18.000 297.232,18.441 298.000,20.629 298.000 L 22.000 298.000 22.047 300.300 C 22.135 304.584,22.494 305.279,24.878 305.778 C 25.842 305.980,25.969 306.205,26.078 307.902 L 26.200 309.800 28.100 309.922 L 30.000 310.044 30.000 313.393 C 30.000 317.227,30.438 318.000,32.607 318.000 C 33.933 318.000,33.958 318.033,34.078 319.900 L 34.200 321.800 36.100 321.922 L 38.000 322.044 38.031 323.922 C 38.087 327.355,38.812 328.948,40.511 329.371 C 41.681 329.662,42.000 329.935,42.000 330.645 C 42.000 332.636,42.700 333.575,44.388 333.844 C 45.893 334.085,46.000 334.190,46.000 335.423 C 46.000 337.117,46.901 338.000,48.629 338.000 C 49.950 338.000,50.000 338.056,50.000 339.520 C 50.000 341.436,50.564 342.000,52.480 342.000 C 53.973 342.000,54.000 342.027,54.000 343.520 C 54.000 345.436,54.564 346.000,56.480 346.000 C 57.973 346.000,58.000 346.027,58.000 347.520 C 58.000 349.436,58.564 350.000,60.480 350.000 C 61.944 350.000,62.000 350.050,62.000 351.371 C 62.000 353.099,62.883 354.000,64.576 354.000 C 65.816 354.000,65.908 354.097,66.114 355.633 C 66.385 357.658,66.377 357.651,68.528 357.893 C 70.040 358.063,70.375 358.273,70.848 359.346 C 71.540 360.917,73.601 361.955,76.078 361.981 L 77.956 362.000 78.078 363.900 L 78.200 365.800 80.100 365.922 C 81.967 366.042,82.000 366.067,82.000 367.393 C 82.000 369.562,82.773 370.000,86.607 370.000 L 89.956 370.000 90.078 371.900 L 90.200 373.800 92.098 373.922 C 93.795 374.031,94.020 374.158,94.222 375.122 C 94.721 377.506,95.416 377.865,99.700 377.953 L 102.000 378.000 102.000 379.371 C 102.000 381.559,102.768 382.000,106.576 382.000 L 109.895 382.000 110.114 383.633 C 110.405 385.808,110.353 385.780,114.388 385.938 L 117.910 386.076 118.162 387.651 C 118.496 389.740,119.278 390.000,125.226 390.000 L 130.000 390.000 130.000 391.371 C 130.000 393.767,130.588 394.000,136.629 394.000 L 142.000 394.000 142.000 395.200 C 142.000 397.756,142.768 398.000,150.800 398.000 L 158.000 398.000 158.000 399.000 L 158.000 400.000 200.000 400.000 L 242.000 400.000 242.000 399.000 L 242.000 398.000 249.371 398.000 C 257.605 398.000,258.000 397.880,258.000 395.371 L 258.000 394.000 263.371 394.000 C 269.412 394.000,270.000 393.767,270.000 391.371 L 270.000 390.000 274.774 390.000 C 280.722 390.000,281.504 389.740,281.838 387.651 L 282.090 386.076 285.612 385.938 C 289.647 385.780,289.595 385.808,289.886 383.633 L 290.105 382.000 293.424 382.000 C 297.232 382.000,298.000 381.559,298.000 379.371 L 298.000 378.000 300.300 377.953 C 304.584 377.865,305.279 377.506,305.778 375.122 C 305.980 374.158,306.205 374.031,307.902 373.922 L 309.800 373.800 309.922 371.900 L 310.044 370.000 313.393 370.000 C 317.227 370.000,318.000 369.562,318.000 367.393 C 318.000 366.067,318.033 366.042,319.900 365.922 L 321.800 365.800 321.922 363.900 L 322.044 362.000 323.922 361.969 C 327.355 361.913,328.948 361.188,329.371 359.489 C 329.662 358.319,329.935 358.000,330.645 358.000 C 332.636 358.000,333.575 357.300,333.844 355.612 C 334.085 354.107,334.190 354.000,335.423 354.000 C 337.117 354.000,338.000 353.099,338.000 351.371 C 338.000 350.050,338.056 350.000,339.520 350.000 C 341.436 350.000,342.000 349.436,342.000 347.520 C 342.000 346.027,342.027 346.000,343.520 346.000 C 345.436 346.000,346.000 345.436,346.000 343.520 C 346.000 342.027,346.027 342.000,347.520 342.000 C 349.436 342.000,350.000 341.436,350.000 339.520 C 350.000 338.056,350.050 338.000,351.371 338.000 C 353.099 338.000,354.000 337.117,354.000 335.424 C 354.000 334.184,354.097 334.092,355.633 333.886 C 357.659 333.615,357.651 333.624,357.894 331.464 C 358.072 329.886,358.233 329.649,359.347 329.330 C 360.914 328.881,361.696 327.360,361.923 324.320 L 362.093 322.040 363.947 321.920 L 365.800 321.800 365.922 319.900 C 366.042 318.033,366.067 318.000,367.393 318.000 C 369.562 318.000,370.000 317.227,370.000 313.393 L 370.000 310.044 371.900 309.922 L 373.800 309.800 373.921 307.919 C 374.041 306.058,374.059 306.035,375.719 305.707 C 377.642 305.327,377.871 304.792,377.953 300.500 L 378.000 298.000 379.371 298.000 C 381.559 298.000,382.000 297.232,382.000 293.424 L 382.000 290.105 383.633 289.886 C 385.808 289.595,385.780 289.647,385.938 285.612 L 386.076 282.090 387.651 281.838 C 389.740 281.504,390.000 280.722,390.000 274.774 L 390.000 270.000 391.371 270.000 C 393.763 270.000,394.000 269.407,394.000 263.424 L 394.000 258.105 395.633 257.886 C 397.892 257.583,397.786 257.969,397.924 249.568 L 398.048 242.000 399.024 242.000 L 400.000 242.000 400.000 200.000 L 400.000 158.000 399.024 158.000 L 398.048 158.000 397.924 150.432 C 397.786 142.031,397.892 142.417,395.633 142.114 L 394.000 141.895 394.000 136.427 C 394.000 130.320,393.876 130.000,391.520 130.000 L 390.000 130.000 390.000 125.226 C 390.000 119.252,389.745 118.497,387.612 118.156 L 386.000 117.898 386.000 114.577 C 386.000 110.767,385.559 110.000,383.371 110.000 L 382.000 110.000 382.000 106.629 C 382.000 102.763,381.566 102.000,379.371 102.000 L 378.000 102.000 377.953 99.500 C 377.871 95.208,377.642 94.673,375.719 94.293 C 374.060 93.965,374.041 93.942,373.921 92.084 C 373.824 90.573,373.644 90.179,373.000 90.065 C 371.148 89.735,370.000 88.009,370.000 85.554 C 370.000 82.850,369.376 82.000,367.393 82.000 C 366.067 82.000,366.042 81.967,365.922 80.100 L 365.800 78.200 363.900 78.078 L 362.000 77.956 361.969 76.078 C 361.914 72.680,361.184 71.051,359.534 70.641 C 358.196 70.307,358.076 70.153,357.892 68.521 C 357.651 66.378,357.658 66.385,355.633 66.114 C 354.097 65.908,354.000 65.816,354.000 64.576 C 354.000 62.883,353.099 62.000,351.371 62.000 C 350.050 62.000,350.000 61.944,350.000 60.480 C 350.000 58.564,349.436 58.000,347.520 58.000 C 346.027 58.000,346.000 57.973,346.000 56.480 C 346.000 54.564,345.436 54.000,343.520 54.000 C 342.027 54.000,342.000 53.973,342.000 52.480 C 342.000 50.564,341.436 50.000,339.520 50.000 C 338.056 50.000,338.000 49.950,338.000 48.629 C 338.000 46.901,337.117 46.000,335.424 46.000 C 334.184 46.000,334.092 45.903,333.886 44.367 C 333.615 42.342,333.622 42.349,331.479 42.108 C 329.847 41.924,329.693 41.804,329.359 40.466 C 328.949 38.816,327.320 38.086,323.922 38.031 L 322.044 38.000 321.922 36.100 L 321.800 34.200 319.900 34.078 C 318.033 33.958,318.000 33.933,318.000 32.607 C 318.000 30.624,317.150 30.000,314.446 30.000 C 311.991 30.000,310.265 28.852,309.935 27.000 C 309.821 26.356,309.427 26.176,307.916 26.079 C 306.058 25.959,306.035 25.940,305.707 24.281 C 305.327 22.358,304.792 22.129,300.500 22.047 L 298.000 22.000 298.000 20.629 C 298.000 18.434,297.237 18.000,293.371 18.000 L 290.000 18.000 290.000 16.629 C 290.000 14.441,289.233 14.000,285.423 14.000 L 282.102 14.000 281.844 12.388 C 281.503 10.255,280.748 10.000,274.774 10.000 L 270.000 10.000 270.000 8.480 C 270.000 6.121,269.684 6.000,263.520 6.000 L 258.000 6.000 258.000 4.629 C 258.000 2.120,257.605 2.000,249.371 2.000 L 242.000 2.000 242.000 1.000 L 242.000 0.000 200.000 0.000 L 158.000 0.000 158.000 0.976 M184.400 103.289 C 186.772 104.004,187.647 104.532,188.204 105.586 C 188.498 106.144,189.240 106.960,189.852 107.400 C 191.841 108.829,192.281 109.455,192.979 111.846 C 193.357 113.141,193.828 114.470,194.027 114.800 C 194.225 115.130,194.867 116.182,195.453 117.137 C 196.440 118.745,196.522 119.220,196.555 123.537 C 196.593 128.551,196.529 128.777,194.159 131.881 C 193.412 132.860,192.800 133.909,192.800 134.212 C 192.800 134.903,190.937 136.800,190.259 136.800 C 189.982 136.800,188.894 137.601,187.843 138.581 C 186.330 139.989,185.540 140.413,184.065 140.606 C 180.523 141.072,177.134 141.937,176.668 142.496 C 175.903 143.411,174.343 144.229,171.908 144.989 C 170.249 145.507,169.331 146.078,168.587 147.052 C 168.022 147.794,167.322 148.400,167.033 148.400 C 166.390 148.400,160.628 153.932,160.287 154.877 C 160.153 155.249,159.538 155.875,158.921 156.267 C 157.508 157.167,157.291 157.471,156.804 159.226 C 156.587 160.010,155.941 161.090,155.368 161.626 C 154.186 162.732,152.983 165.023,152.590 166.917 C 152.444 167.623,151.804 168.861,151.168 169.670 C 149.878 171.309,149.016 173.625,148.608 176.552 C 148.354 178.372,147.702 180.337,147.199 180.800 C 146.018 181.886,145.146 184.947,144.600 189.916 C 144.336 192.327,143.782 193.820,142.690 195.061 C 141.890 195.972,141.478 197.380,140.785 201.581 C 140.490 203.364,139.962 204.724,139.076 205.981 C 138.370 206.981,137.295 208.800,136.688 210.023 C 135.853 211.702,135.267 212.361,134.291 212.718 C 133.581 212.977,132.395 213.709,131.656 214.345 C 128.747 216.844,122.543 216.896,121.021 214.434 C 120.874 214.197,119.781 213.557,118.590 213.013 C 117.089 212.326,116.100 211.530,115.360 210.411 C 114.774 209.525,114.145 208.800,113.963 208.800 C 113.182 208.800,111.622 206.518,110.986 204.444 C 110.607 203.210,109.892 201.750,109.398 201.200 C 107.977 199.621,107.746 198.878,107.221 194.200 C 106.950 191.780,106.564 188.900,106.364 187.800 C 104.841 179.433,104.748 178.155,105.410 174.717 C 105.762 172.893,106.476 167.080,106.997 161.800 C 108.002 151.624,108.437 149.340,109.613 148.078 C 110.074 147.584,110.514 146.129,110.803 144.147 C 111.055 142.416,111.365 140.280,111.493 139.400 C 111.760 137.554,112.578 136.124,113.544 135.818 C 113.913 135.701,114.568 134.929,114.999 134.102 C 115.430 133.276,116.134 132.330,116.563 132.000 C 116.992 131.670,117.806 130.883,118.372 130.251 C 118.937 129.619,119.940 128.594,120.600 127.972 C 121.260 127.350,122.016 126.607,122.280 126.321 C 122.820 125.735,125.531 123.015,126.307 122.280 C 126.586 122.016,127.369 121.125,128.048 120.300 C 128.727 119.475,129.540 118.800,129.854 118.800 C 130.168 118.800,130.536 118.485,130.672 118.100 C 131.170 116.687,132.863 114.800,133.633 114.800 C 134.069 114.800,134.526 114.485,134.649 114.100 C 135.202 112.370,135.811 111.591,137.082 110.988 C 137.833 110.631,138.564 110.038,138.705 109.670 C 139.103 108.630,140.426 107.686,142.453 106.997 C 143.472 106.650,144.619 106.021,145.002 105.598 C 146.502 103.940,151.026 103.453,172.400 102.643 C 176.758 102.478,182.783 102.803,184.400 103.289 M224.417 144.159 C 226.591 144.679,228.400 145.539,228.400 146.052 C 228.400 146.194,229.075 146.430,229.900 146.575 C 234.487 147.384,235.809 147.844,237.023 149.054 C 237.716 149.744,238.714 150.430,239.241 150.579 C 241.102 151.104,244.400 152.976,244.400 153.507 C 244.400 153.802,245.396 154.500,246.614 155.058 C 247.832 155.616,249.096 156.480,249.423 156.980 C 249.750 157.479,251.115 158.462,252.456 159.165 C 253.798 159.868,255.458 161.037,256.147 161.761 C 256.836 162.486,258.083 163.401,258.918 163.794 C 259.752 164.186,260.691 165.003,261.004 165.607 C 261.316 166.212,261.994 166.812,262.511 166.942 C 263.802 167.266,265.600 168.879,265.600 169.713 C 265.600 170.113,265.907 170.400,266.335 170.400 C 267.086 170.400,271.600 173.419,271.600 173.922 C 271.601 174.075,272.477 174.692,273.548 175.294 C 274.619 175.895,275.969 177.008,276.547 177.767 C 277.126 178.525,278.005 179.273,278.500 179.429 C 279.426 179.719,281.200 181.387,281.200 181.967 C 281.200 182.147,281.934 182.780,282.831 183.373 C 283.752 183.983,284.711 185.048,285.034 185.819 C 285.347 186.570,286.064 187.485,286.625 187.853 C 287.819 188.635,289.017 190.816,289.413 192.928 C 289.567 193.749,289.990 194.640,290.353 194.910 C 292.046 196.166,292.943 198.931,293.432 204.400 C 293.579 206.050,293.950 208.210,294.256 209.200 C 295.317 212.633,295.398 216.786,294.472 220.255 C 294.011 221.985,293.518 225.290,293.377 227.600 C 292.986 233.999,292.157 238.295,290.817 240.872 C 289.906 242.625,289.541 244.042,289.221 247.072 C 288.539 253.537,288.178 255.106,286.902 257.159 C 286.232 258.236,285.563 259.901,285.415 260.859 C 284.930 263.985,284.011 266.221,282.593 267.725 C 281.827 268.537,281.200 269.409,281.200 269.663 C 281.200 270.413,279.209 272.800,278.583 272.800 C 278.267 272.800,277.601 273.433,277.104 274.206 C 276.471 275.191,275.360 276.016,273.400 276.960 C 271.860 277.701,270.166 278.775,269.636 279.347 C 269.106 279.920,268.026 280.508,267.236 280.654 C 265.651 280.948,264.446 281.640,262.629 283.298 C 261.967 283.902,260.790 284.511,260.013 284.651 C 258.150 284.986,257.257 285.473,255.751 286.974 C 254.967 287.755,253.577 288.495,252.017 288.962 C 250.650 289.372,249.322 289.961,249.066 290.273 C 247.738 291.885,246.949 292.306,243.997 292.976 C 242.228 293.378,240.650 293.934,240.490 294.212 C 239.292 296.299,232.861 297.415,222.200 297.384 C 212.139 297.355,208.202 296.689,205.362 294.538 C 204.681 294.022,203.837 293.600,203.486 293.600 C 203.135 293.600,202.751 293.444,202.633 293.254 C 202.516 293.064,201.775 292.803,200.987 292.675 C 200.199 292.548,198.915 291.881,198.133 291.195 C 197.351 290.508,195.876 289.553,194.856 289.073 C 193.835 288.593,192.442 287.587,191.760 286.838 C 191.078 286.090,189.912 285.190,189.168 284.838 C 188.425 284.487,187.453 283.628,187.008 282.930 C 186.564 282.231,185.769 281.547,185.243 281.408 C 184.717 281.270,183.514 280.401,182.571 279.478 C 181.628 278.555,179.404 276.457,177.628 274.816 C 175.853 273.175,174.393 271.645,174.384 271.416 C 174.376 271.187,173.568 270.411,172.590 269.691 C 171.611 268.972,170.699 267.937,170.562 267.391 C 170.425 266.846,170.198 266.400,170.057 266.400 C 169.160 266.398,166.800 263.369,166.800 262.220 C 166.800 261.894,166.395 261.417,165.900 261.160 C 164.593 260.480,163.889 259.624,163.009 257.645 C 162.580 256.680,161.744 255.406,161.152 254.813 C 160.521 254.182,159.720 252.590,159.221 250.973 C 158.751 249.453,157.953 247.757,157.447 247.205 C 156.133 245.769,155.362 243.319,154.585 238.112 C 154.447 237.183,153.990 235.987,153.570 235.453 C 150.736 231.849,150.761 205.459,153.602 201.534 C 154.027 200.948,154.566 199.328,154.800 197.934 C 155.767 192.192,156.379 190.380,157.727 189.261 C 158.046 188.996,158.643 187.596,159.053 186.149 C 159.495 184.594,160.309 182.922,161.045 182.059 C 161.730 181.257,162.677 179.750,163.150 178.710 C 163.624 177.671,164.683 176.133,165.505 175.293 C 166.327 174.454,167.308 173.187,167.683 172.480 C 168.059 171.772,168.828 171.018,169.391 170.804 C 169.954 170.589,170.580 169.978,170.783 169.446 C 171.269 168.165,172.767 166.800,173.685 166.800 C 174.089 166.800,174.580 166.379,174.775 165.865 C 175.189 164.776,177.408 162.800,178.217 162.800 C 178.522 162.800,178.988 162.395,179.251 161.900 C 179.905 160.672,183.345 158.400,184.550 158.400 C 184.656 158.400,185.378 157.802,186.153 157.070 C 186.929 156.339,188.329 155.487,189.266 155.178 C 190.202 154.869,191.438 154.125,192.011 153.525 C 193.086 152.401,196.340 150.800,197.551 150.800 C 197.927 150.800,198.963 150.122,199.852 149.293 C 201.215 148.022,202.012 147.666,204.934 147.026 C 206.840 146.608,208.400 146.123,208.400 145.947 C 208.400 144.137,219.256 142.924,224.417 144.159 " stroke="none" fill="#51242c" fill-rule="evenodd"></path></g></svg>