<svg id="efTAJ3qKHrM1" xmlns="http://www.w3.org/2000/svg" xmlns:xlink="http://www.w3.org/1999/xlink" viewBox="0 0 400 400" shape-rendering="geometricPrecision" text-rendering="geometricPrecision"><g><path d="M97.3,53.986c-1.772,1.991-2.44,2.644-3.106,3.033-1.634.956-1.275,10.173.534,13.695c1.196,2.329,1.606,4.024,1.859,7.686.468,6.76,1.134,11.005,2.038,13c1.458,3.215,1.737,4.504,2.161,10c.518,6.714.994,9.474,1.95,11.312c1.246,2.395,1.662,4.367,2.086,9.888.521,6.797.867,8.823,1.875,11c1.273,2.749,1.654,4.312,1.902,7.8.493,6.929,1.106,10.833,2.01,12.8c1.398,3.043,1.766,4.755,2.192,10.2.505,6.466.953,9.071,1.933,11.238c1.245,2.754,1.62,4.316,1.865,7.762.54,7.59,1.069,10.771,2.044,12.291.526.821.957,1.766.957,2.1c0,.335.145.609.323.609.345,0,1.677,2.779,1.677,3.499c0,.821,5.385,1.275,8.086.682.613-.134,1.114-.48,1.114-.767c0-.87,2.374-4.803,3.283-5.439.177-.124.678-3.544,1.113-7.6.89-8.291,1.309-10.403,2.416-12.195.559-.904.934-2.82,1.372-7.012.816-7.817.926-8.679,1.386-10.848.381-1.8,1.113-3.481,1.711-3.932.155-.117.647-3.627,1.094-7.8.911-8.51,1.324-10.606,2.444-12.418.513-.831.916-2.593,1.193-5.212.965-9.145,1.175-10.85,1.556-12.638.386-1.813,1.117-3.484,1.723-3.938.159-.12.652-3.63,1.094-7.8.903-8.515,1.313-10.598,2.442-12.426.602-.973.963-2.981,1.551-8.612.881-8.439,1.35-10.838,2.408-12.325.946-1.328,1.8-8.393,1.423-11.779-.246-2.21-.404-2.497-2.489-4.5l-2.227-2.14h-28.147c-27.48,0-28.163.019-28.846.786M255.426,98.5c-.631.495-1.705,1.508-2.387,2.252-.681.744-1.759,1.914-2.395,2.6s-1.474,1.989-1.863,2.894c-.388.906-1.218,2.015-1.844,2.466-.625.451-1.488,1.69-1.917,2.754s-1.339,2.474-2.022,3.134c-1.1,1.061-2.598,3.607-2.598,4.414c0,.357-1.61,1.786-2.012,1.786-.159,0-.69.945-1.179,2.1s-1.471,2.73-2.183,3.5c-.711.77-1.801,2.432-2.421,3.693-.621,1.261-1.478,2.403-1.906,2.539-.429.136-1.198,1.172-1.715,2.307-.515,1.134-1.4,2.487-1.966,3.008s-1.562,2.098-2.212,3.504c-.745,1.61-1.541,2.719-2.151,2.997-.968.441-1.855,1.868-1.855,2.983c0,.327-.72,1.256-1.6,2.065s-1.6,1.665-1.6,1.903c0,.914-1.642,3.647-2.769,4.609-.649.555-1.542,1.852-1.984,2.883-.443,1.032-1.191,2.108-1.665,2.392-.473.284-1.361,1.597-1.972,2.917s-1.831,3.163-2.71,4.095c-.879.933-1.708,2.244-1.842,2.915-.155.774-.67,1.464-1.413,1.89-.762.437-1.477,1.414-2.054,2.807-.487,1.175-1.494,2.782-2.238,3.57-.744.789-1.353,1.59-1.353,1.779s-.16.344-.355.344c-.196,0-.466.585-.601,1.3-.158.838-.675,1.584-1.455,2.1-.691.457-1.631,1.713-2.19,2.928-.539,1.171-1.693,2.938-2.564,3.927s-1.701,2.336-1.845,2.992c-.161.73-.772,1.527-1.576,2.054-.871.571-1.541,1.491-1.984,2.724-.368,1.024-1.314,2.562-2.102,3.419-.788.856-1.753,2.297-2.143,3.202-.391.906-1.235,2.02-1.876,2.476-.673.48-1.398,1.535-1.716,2.499-.303.918-1.235,2.625-2.072,3.793-1.867,2.608-1.977,7.386-.169,7.386.26,0,1.417.9,2.57,2c2.252,2.148,5.258,2.871,5.823,1.4.211-.55,2.091-1.541,5.955-3.139.825-.341,1.5-.856,1.5-1.144c0-.575,1.041-1.34,3.2-2.35.77-.361,2.083-1.306,2.918-2.101.834-.795,2.398-1.758,3.474-2.141c1.237-.439,2.112-1.036,2.38-1.623.238-.522,1.231-1.275,2.269-1.72c1.016-.435,2.323-1.301,2.906-1.925c1.174-1.257,4.678-3.257,5.706-3.257.363,0,.768-.428.899-.951.167-.665.928-1.277,2.531-2.036c1.261-.597,2.536-1.433,2.833-1.858.666-.95,4.424-3.146,5.394-3.151.39-.002.877-.443,1.081-.98.245-.644,1.189-1.359,2.774-2.1c1.321-.618,2.615-1.521,2.876-2.005.408-.758,4.064-2.919,4.938-2.919.165,0,.867-.611,1.56-1.358.694-.747,2.095-1.664,3.113-2.036c1.08-.395,2.019-1.044,2.252-1.554.219-.482,1.275-1.321,2.345-1.864s2.577-1.536,3.349-2.206c1.83-1.59,3.153-2.394,4.475-2.72.591-.145,1.18-.578,1.31-.963.287-.847,1.445-1.679,3.733-2.683.944-.413,2.334-1.335,3.089-2.047s2.166-1.597,3.136-1.968c.983-.375,1.94-1.061,2.163-1.549.219-.482,1.265-1.321,2.323-1.864s2.714-1.64,3.68-2.437c1.946-1.607,2.978-2.178,4.549-2.516.664-.144,1.142-.571,1.288-1.155.157-.627.888-1.223,2.256-1.841c1.113-.503,2.958-1.712,4.1-2.687s2.757-1.977,3.588-2.226c.832-.249,1.512-.595,1.512-.769c0-.615,1.818-2.213,3.111-2.734.721-.291,2.341-1.495,3.599-2.676c1.259-1.181,2.424-2.147,2.589-2.147.166,0,.301-.227.301-.504s.479-1.02,1.064-1.651c1.688-1.821,1.204-4.931-1.096-7.045-.36-.33-.791-1.05-.958-1.6-.407-1.336-1.234-2.23-2.576-2.786-.61-.253-1.362-1.034-1.672-1.737-.32-.728-1.191-1.614-2.026-2.061-.805-.431-1.705-1.331-2-2s-1.195-1.569-2-2-1.705-1.331-2-2c-.298-.677-1.199-1.571-2.031-2.016-.853-.456-1.657-1.263-1.871-1.877-.207-.592-1.097-1.531-1.977-2.087-.881-.556-1.841-1.512-2.134-2.123-.293-.612-1.203-1.473-2.023-1.913-.847-.455-1.653-1.265-1.866-1.877-.207-.592-1.097-1.531-1.977-2.087-.881-.556-1.841-1.512-2.134-2.123-.293-.612-1.189-1.466-1.991-1.897-.803-.431-1.701-1.318-1.996-1.972-.313-.694-1.202-1.524-2.136-1.995-.88-.443-1.96-1.198-2.4-1.678-1.856-2.025-5.187-2.429-7.174-.871M119.2,237.265c-1.888.267-3.173.746-4.694,1.751-1.151.761-2.346,1.384-2.654,1.384-1.6,0-4.967,1.436-6.052,2.581-.66.696-1.92,1.616-2.8,2.043s-1.827,1.254-2.104,1.839c-.277.584-1.141,1.439-1.92,1.898-.807.476-1.663,1.427-1.991,2.213-.317.758-1.208,1.86-1.98,2.45-.896.683-1.405,1.408-1.405,2c0,.511-.16,1.027-.355,1.148s-.477.873-.627,1.673c-.298,1.59-.834,2.679-1.933,3.927-1.175,1.333-1.285,2.401-1.285,12.428c0,10.031.112,11.11,1.285,12.408.995,1.102,1.567,2.39,2.348,5.292.37,1.375.784,2.5.92,2.5.554.002,2.293,1.891,2.971,3.228.399.786,1.264,1.747,1.924,2.137s1.35,1.104,1.534,1.587c.184.484,1.167,1.307,2.185,1.831c1.148.59,1.939,1.3,2.081,1.868.177.702.753,1.067,2.479,1.569c2.817.819,5.121,1.98,5.59,2.817c1.094,1.955,25.473,1.838,27.197-.13.751-.858,2.51-1.736,5.278-2.638.986-.321,1.976-.909,2.2-1.307.517-.917,1.882-2.131,2.416-2.149.225-.007.802-.418,1.281-.913c1.112-1.147,2.464-2.499,3.611-3.611.495-.479.9-1.058.9-1.285c0-.514,1.909-2.604,2.379-2.604.191,0,.663-1.035,1.05-2.3.891-2.915,1.999-5.164,2.75-5.584c2.392-1.339,2.088-23.588-.354-25.857-.949-.882-2.424-4.249-2.872-6.559-.139-.715-.5-1.3-.803-1.3-.814,0-1.852-1.188-2.711-3.103-.501-1.119-1.015-1.697-1.508-1.697-.43,0-1.281-.757-2.005-1.784-.721-1.023-1.779-1.965-2.482-2.21-.673-.235-1.769-.977-2.434-1.649-1.12-1.132-4.77-2.757-6.191-2.757-.337,0-1.528-.631-2.649-1.403-2.982-2.054-10.99-2.8-18.57-1.732m215.509,4.128c-1.701.26-3.861.843-4.8,1.295-2.417,1.163-4.434,1.637-8.109,1.905-6.563.479-10.835,1.135-12.353,1.897-2.642,1.327-5.09,1.897-9.247,2.149-5.152.314-10.273,1.171-11.844,1.984-2.281,1.18-4.926,1.76-9.156,2.01-5.962.353-10.226,1.145-12.998,2.416-1.803.827-3.393,1.184-6.4,1.437-8.368.705-11.619,1.21-13.602,2.114-2.882,1.315-5.007,1.771-10.2,2.191-5.598.452-8.491.988-9.736,1.804-1.586,1.039-5.006,1.718-10.864,2.157-7.228.541-9.379.975-12.023,2.426-1.19.653-2.883,1.381-3.763,1.618-3.719,1.002-4.004,8.843-.391,10.734.977.512,2.238,1.368,2.801,1.903.929.881,1.71,1.045,8.4,1.763c8.284.889,10.131,1.253,12.045,2.373.972.569,3.002.954,7.531,1.43c7.405.777,11.826,1.659,13.235,2.641.764.533,2.698.889,7.4,1.362c7.697.775,11.93,1.58,13.659,2.601.936.552,2.985.938,7.4,1.396c8.053.834,12.11,1.607,13.452,2.563.855.608,2.515.926,7.476,1.431c8.48.862,13.3,1.91,14.188,3.085.115.153,3.175.566,6.8.919c7.6.74,12.158,1.621,13.606,2.63c3.242,2.259,16.384,1.918,16.384-.426c0-.385.63-1.388,1.4-2.229l1.4-1.528v-26.703c0-26.256-.109-28.741-1.261-28.741-.183,0-.883-.976-1.556-2.168-1.108-1.963-1.383-2.193-2.903-2.429-.924-.144-1.95-.311-2.28-.372-.33-.06-1.991.103-3.691.362" fill="#d0c0c0" fill-rule="evenodd"/><path d="M158,0.976v.976l-7.568.124c-8.401.138-8.015.032-8.318,2.291L141.895,6h-5.468C130.32,6,130,6.124,130,8.48v1.52h-4.774c-5.974,0-6.729.255-7.07,2.388L117.898,14h-3.321c-3.81,0-4.577.441-4.577,2.629v1.371h-3.371c-3.866,0-4.629.434-4.629,2.629v1.371l-2.5.047c-4.292.082-4.827.311-5.207,2.234-.328,1.66-.351,1.678-2.212,1.798L90.2,26.2l-.122,1.9-.122,1.9h-3.349C82.773,30,82,30.438,82,32.607c0,1.326-.033,1.351-1.9,1.471l-1.9.122-.122,1.9-.122,1.9-1.678.01c-3.843.021-5.878,1.065-5.878,3.014c0,.738-.28.903-1.82,1.077-2.208.249-2.194.236-2.466,2.266C65.908,45.903,65.816,46,64.576,46C62.883,46,62,46.901,62,48.629C62,49.95,61.944,50,60.48,50c-1.916,0-2.48.564-2.48,2.48c0,1.493-.027,1.52-1.52,1.52-1.916,0-2.48.564-2.48,2.48c0,1.493-.027,1.52-1.52,1.52-1.916,0-2.48.564-2.48,2.48c0,1.464-.05,1.52-1.371,1.52C46.886,62,46,62.886,46,64.629C46,65.886,45.9,66,44.8,66c-1.63,0-2.8,1.253-2.8,3c0,1.196-.135,1.4-.924,1.4-2.003,0-3.044,1.997-3.066,5.878L38,77.956l-1.9.122-1.9.122-.122,1.9c-.12,1.867-.145,1.9-1.471,1.9C30.624,82,30,82.85,30,85.554c0,2.455-1.148,4.181-3,4.511-.644.114-.824.508-.921,2.019-.12,1.858-.139,1.881-1.798,2.209-1.923.38-2.152.915-2.234,5.207L22,102h-1.371c-2.195,0-2.629.763-2.629,4.629v3.371h-1.371c-2.188,0-2.629.767-2.629,4.577v3.321l-1.612.258c-2.133.341-2.388,1.096-2.388,7.07v4.774h-1.52c-2.356,0-2.48.32-2.48,6.427v5.468l-1.633.219c-2.259.303-2.153-.083-2.291,8.318L1.952,158h-.976-.976v42v42h.976.976l.124,7.568c.138,8.401.032,8.015,2.291,8.318L6,258.105v5.319C6,269.407,6.237,270,8.629,270h1.371v4.774c0,5.948.26,6.73,2.349,7.064l1.575.252.138,3.522c.158,4.035.13,3.983,2.305,4.274l1.633.219v3.319c0,3.808.441,4.576,2.629,4.576h1.371l.047,2.3c.088,4.284.447,4.979,2.831,5.478.964.202,1.091.427,1.2,2.124L26.2,309.8l1.9.122l1.9.122v3.349c0,3.834.438,4.607,2.607,4.607c1.326,0,1.351.033,1.471,1.9l.122,1.9l1.9.122l1.9.122.031,1.878c.056,3.433.781,5.026,2.48,5.449c1.17.291,1.489.564,1.489,1.274c0,1.991.7,2.93,2.388,3.199c1.505.241,1.612.346,1.612,1.579c0,1.694.901,2.577,2.629,2.577c1.321,0,1.371.056,1.371,1.52c0,1.916.564,2.48,2.48,2.48c1.493,0,1.52.027,1.52,1.52c0,1.916.564,2.48,2.48,2.48c1.493,0,1.52.027,1.52,1.52c0,1.916.564,2.48,2.48,2.48c1.464,0,1.52.05,1.52,1.371c0,1.728.883,2.629,2.576,2.629c1.24,0,1.332.097,1.538,1.633.271,2.025.263,2.018,2.414,2.26c1.512.17,1.847.38,2.32,1.453.692,1.571,2.753,2.609,5.23,2.635l1.878.019.122,1.9.122,1.9l1.9.122c1.867.12,1.9.145,1.9,1.471c0,2.169.773,2.607,4.607,2.607h3.349l.122,1.9.122,1.9l1.881.121c1.861.12,1.884.138,2.212,1.798.38,1.923.915,2.152,5.207,2.234L102,378v1.371c0,2.188.768,2.629,4.576,2.629h3.319l.219,1.633c.291,2.175.239,2.147,4.274,2.305l3.522.138.252,1.575c.334,2.089,1.116,2.349,7.064,2.349h4.774v1.371c0,2.396.588,2.629,6.629,2.629h5.371v1.2c0,2.556.768,2.8,8.8,2.8h7.2v1v1h42h42v-1-1h7.371c8.234,0,8.629-.12,8.629-2.629v-1.371h5.371c6.041,0,6.629-.233,6.629-2.629v-1.371h4.774c5.948,0,6.73-.26,7.064-2.349l.252-1.575l3.522-.138c4.035-.158,3.983-.13,4.274-2.305l.219-1.633h3.319c3.808,0,4.576-.441,4.576-2.629v-1.371l2.3-.047c4.284-.088,4.979-.447,5.478-2.831.202-.964.427-1.091,2.124-1.2l1.898-.122.122-1.9.122-1.9h3.349c3.834,0,4.607-.438,4.607-2.607c0-1.326.033-1.351,1.9-1.471l1.9-.122.122-1.9.122-1.9l1.878-.031c3.433-.056,5.026-.781,5.449-2.48.334-1.346.498-1.489,1.7-1.489c1.673,0,2.929-1.2,2.929-2.8c0-1.1.114-1.2,1.371-1.2c1.743,0,2.629-.886,2.629-2.629c0-1.321.056-1.371,1.52-1.371c1.916,0,2.48-.564,2.48-2.48c0-1.493.027-1.52,1.52-1.52c1.916,0,2.48-.564,2.48-2.48c0-1.493.027-1.52,1.52-1.52c1.916,0,2.48-.564,2.48-2.48c0-1.464.05-1.52,1.371-1.52c1.728,0,2.629-.883,2.629-2.576c0-1.24.097-1.332,1.633-1.538c2.026-.271,2.018-.262,2.261-2.422.178-1.578.339-1.815,1.453-2.134c1.567-.449,2.349-1.97,2.576-5.01l.17-2.28l1.854-.12l1.853-.12.122-1.9c.12-1.867.145-1.9,1.471-1.9c2.169,0,2.607-.773,2.607-4.607v-3.349l1.9-.122l1.9-.122.121-1.881c.12-1.861.138-1.884,1.798-2.212c1.923-.38,2.152-.915,2.234-5.207L378,298h1.371c2.195,0,2.629-.763,2.629-4.629v-3.371h1.371c2.188,0,2.629-.767,2.629-4.577v-3.321l1.612-.258c2.133-.341,2.388-1.096,2.388-7.07v-4.774h1.371c2.392,0,2.629-.593,2.629-6.576v-5.319l1.633-.219c2.259-.303,2.153.083,2.291-8.318l.124-7.568h.976.976v-42-42h-.976-.976l-.124-7.568c-.138-8.401-.032-8.015-2.291-8.318L394,141.895v-5.319c0-5.983-.237-6.576-2.629-6.576h-1.371v-4.774c0-5.974-.255-6.729-2.388-7.07L386,117.898v-3.321c0-3.81-.441-4.577-2.629-4.577h-1.371v-3.371c0-3.866-.434-4.629-2.629-4.629h-1.371l-.047-2.5c-.082-4.292-.311-4.827-2.234-5.207-1.66-.328-1.678-.351-1.798-2.212L373.8,90.2l-1.9-.122-1.9-.122v-3.349c0-3.834-.438-4.607-2.607-4.607-1.326,0-1.351-.033-1.471-1.9l-.122-1.9-1.9-.122-1.9-.122-.031-1.878c-.055-3.398-.785-5.027-2.435-5.437-1.338-.334-1.458-.488-1.642-2.12-.241-2.143-.234-2.136-2.259-2.407-1.536-.206-1.633-.298-1.633-1.538c0-1.693-.901-2.576-2.629-2.576-1.321,0-1.371-.056-1.371-1.52c0-1.916-.564-2.48-2.48-2.48-1.493,0-1.52-.027-1.52-1.52c0-1.916-.564-2.48-2.48-2.48-1.493,0-1.52-.027-1.52-1.52c0-1.916-.564-2.48-2.48-2.48-1.464,0-1.52-.05-1.52-1.371c0-1.728-.883-2.629-2.576-2.629-1.24,0-1.332-.097-1.538-1.633-.271-2.025-.264-2.018-2.407-2.259-1.632-.184-1.786-.304-2.12-1.642-.41-1.65-2.039-2.38-5.437-2.435L322.044,38l-.122-1.9-.122-1.9-1.9-.122c-1.867-.12-1.9-.145-1.9-1.471c0-1.983-.85-2.607-3.554-2.607-2.455,0-4.181-1.148-4.511-3-.114-.644-.508-.824-2.019-.921-1.858-.12-1.881-.139-2.209-1.798-.38-1.923-.915-2.152-5.207-2.234L298,22v-1.371c0-2.195-.763-2.629-4.629-2.629L290,18v-1.371c0-2.188-.767-2.629-4.577-2.629h-3.321l-.258-1.612c-.341-2.133-1.096-2.388-7.07-2.388L270,10v-1.52c0-2.359-.316-2.48-6.48-2.48L258,6v-1.371C258,2.12,257.605,2,249.371,2L242,2v-1-1h-42-42v.976m-.216,50.658c4.034,1.897,4.709,6.326,3.244,21.317-.616,6.31-.75,6.923-2.044,9.361-.928,1.749-1.384,3.149-1.385,4.248-.001.902-.261,4.34-.579,7.64-.559,5.815-.833,6.865-2.654,10.2-.421.77-.766,2.12-.767,3-.006,4.857-1.244,14.255-2.068,15.699-1.759,3.083-1.926,3.542-1.93,5.301-.002.99-.263,4.5-.581,7.8-.559,5.815-.833,6.865-2.654,10.2-.421.77-.765,2.072-.765,2.894-.003,6.062-1.271,14.559-2.494,16.706-1.194,2.098-1.284,2.571-1.936,10.214-.547,6.407-.85,8.332-1.512,9.6-1.762,3.376-1.967,4.109-2.232,7.986-.351,5.136-.819,6.705-2.257,7.554-.627.37-1.373,1.16-1.658,1.756-1.661,3.466-13.491,3.418-14.748-.06-.258-.712-.987-1.593-1.62-1.956-1.626-.934-1.971-2.155-2.371-8.413-.274-4.274-.503-5.669-1.019-6.184-1.572-1.572-2.929-7.778-2.95-13.497-.016-4.16-.43-6.876-1.171-7.682-1.602-1.745-2.461-6.388-3.074-16.618-.129-2.145-.407-3.9-.619-3.9-1.271,0-3.115-8.113-3.136-13.8-.016-4.16-.43-6.876-1.171-7.682-1.605-1.747-2.559-6.841-3.003-16.031-.149-3.099-.361-4.275-.86-4.774-1.723-1.723-2.611-6.284-3.174-16.303-.178-3.155-.383-4.158-.983-4.8-1.823-1.948-2.833-8.304-2.932-18.448-.078-7.898.456-9.476,3.799-11.226l1.72-.9l29.904-.018c29.502-.018,29.929-.007,31.68.816M264.272,95.84c.62.462,1.182,1.198,1.247,1.634.082.543.588.91,1.6,1.16c1.193.295,1.629.684,2.241,2c.55,1.182,1.104,1.736,2,2c.897.265,1.451.819,2,2c.55,1.182,1.104,1.736,2,2c.897.265,1.451.819,2,2c.55,1.182,1.104,1.736,2,2c.897.265,1.451.819,2,2c.55,1.182,1.104,1.736,2,2c.897.265,1.451.819,2,2c.55,1.182,1.104,1.736,2,2c.897.265,1.451.819,2,2c.55,1.182,1.104,1.736,2,2c.897.265,1.451.819,2,2c.55,1.182,1.104,1.736,2,2c.909.268,1.451.82,2.03,2.066.505,1.089,1.051,1.7,1.518,1.7.977,0,2.692,1.765,2.692,2.772c0,.497.473,1.052,1.232,1.444c3.495,1.808,3.315,12.836-.232,14.184-.527.2-1.28.867-1.674,1.482-1.047,1.635-1.38,1.922-3.136,2.697-3.113,1.375-3.499,1.622-3.897,2.496-.245.538-1.179,1.163-2.385,1.597-1.358.488-2.166,1.066-2.562,1.833-.389.752-1.422,1.505-3.149,2.296-1.413.647-3.07,1.701-3.683,2.34-.613.64-1.893,1.427-2.845,1.748-1.065.359-1.914.955-2.204,1.547-.26.53-1.444,1.446-2.631,2.036-1.188.589-2.588,1.534-3.113,2.1-1.103,1.189-3.749,2.628-4.833,2.628-.452,0-.968.504-1.316,1.284-.427.958-1.086,1.491-2.597,2.1-1.113.449-2.698,1.474-3.522,2.279-.848.827-2.282,1.693-3.302,1.995-1.267.374-2.033.904-2.576,1.782-.48.777-1.428,1.501-2.503,1.911-.952.364-2.126,1.196-2.609,1.85-.965,1.305-3.697,2.799-5.119,2.799-.64,0-1.099.406-1.561,1.38-.512,1.078-1.069,1.517-2.551,2.009-1.166.388-2.236,1.09-2.78,1.826-.854,1.155-3.183,2.46-5.252,2.942-.592.138-1.251.748-1.614,1.495-.467.957-1.078,1.409-2.541,1.876-1.291.412-2.072.932-2.366,1.577-.439.964-3.136,2.554-5.158,3.04-.607.146-1.308.724-1.6,1.321-.536,1.092-.672,1.188-3.233,2.285-.832.356-1.632.963-1.778,1.348-.465,1.229-1.03,1.564-5.618,3.34-.499.193-1.076.793-1.281,1.333-.261.687-.987,1.199-2.412,1.705-1.424.505-2.256,1.094-2.764,1.954-.532.901-1.391,1.479-3.204,2.158-1.636.611-2.804,1.353-3.437,2.183-.587.77-1.735,1.536-2.96,1.977-1.217.438-2.099,1.024-2.248,1.496-1.033,3.254-12.698,3.248-13.833-.008-.257-.738-.739-1.236-1.27-1.313-3.509-.508-3.798-11.951-.356-14.124.697-.44,1.373-1.25,1.501-1.8.373-1.594,1.081-2.848,2.404-4.256.678-.721,1.575-2.084,1.995-3.028.863-1.941,1.571-2.798,2.873-3.476.495-.257.9-.834.9-1.28c0-1.108.637-2.21,2.139-3.703.695-.691,1.629-2.157,2.076-3.257.527-1.3,1.259-2.28,2.091-2.8.807-.505,1.425-1.316,1.677-2.2.46-1.62,1.481-3.2,2.068-3.2.742,0,1.423-1.002,1.706-2.51.153-.82.439-1.49.633-1.49.195,0,.412-.402.482-.894.07-.491.707-1.256,1.415-1.7.708-.443,1.395-1.166,1.527-1.606.566-1.882,1.631-3.407,2.62-3.752.79-.275,1.131-.735,1.329-1.792.434-2.314,2.099-5.056,3.07-5.056.397,0,.816-.588,1.104-1.546.585-1.954,1.907-3.654,2.841-3.654.532,0,.787-.423.979-1.621.316-1.977,1.923-4.624,3.019-4.971.514-.163.965-.844,1.243-1.878.462-1.718,1.96-3.53,2.918-3.53.343,0,.683-.584.846-1.449.348-1.858.909-2.845,2.505-4.411.708-.695,1.599-2.046,1.979-3.002.792-1.992,1.235-2.526,2.404-2.897.511-.162.927-.732,1.075-1.471.337-1.684,2.166-4.688,3.02-4.959.391-.124.954-.964,1.252-1.866.695-2.106,1.834-3.545,2.806-3.545.581,0,.827-.376,1.014-1.548.136-.852.678-2.05,1.205-2.663.526-.612.957-1.253.957-1.424s.332-.417.738-.545c.415-.132.98-.966,1.289-1.902.626-1.897,2.174-3.918,3.001-3.918.306,0,.664-.495.795-1.1.359-1.653,1-2.799,2.359-4.218.675-.705,1.58-2.092,2.011-3.082.757-1.738,1.973-3.2,2.663-3.2.184,0,.789-.721,1.345-1.601c1.821-2.885,10.258-4.003,13.271-1.759M139.264,235.236c1.905.599,3.653,1.595,4.247,2.421.282.391,1.116.824,1.853.963c1.886.353,3.788,1.602,4.236,2.78.209.55.672,1,1.028,1c1.065,0,2.747,1.186,3.742,2.638.513.749,1.159,1.362,1.436,1.362.591,0,1.656,1.521,2,2.858.135.525.805,1.208,1.511,1.542.971.46,1.386,1.016,1.773,2.381.281.988,1.121,2.414,1.887,3.2c1.519,1.561,2.074,3.373,2.6,8.481.183,1.781.693,3.844,1.22,4.932c1.209,2.497,1.227,7.439.036,9.465-.466.792-.966,2.768-1.221,4.828-.803,6.495-1.017,7.198-2.578,8.509-.789.662-1.434,1.497-1.434,1.855c0,1.209-1.127,3.342-2.403,4.549-.698.66-1.727,1.979-2.288,2.93-.561.952-1.732,2.18-2.602,2.729s-2.101,1.589-2.735,2.312c-1.05,1.196-3.38,2.374-5.34,2.701-.422.07-1.065.668-1.429,1.328-1.131,2.049-2.957,2.312-17.301,2.497-15.068.193-17.89-.15-20.041-2.437-.693-.737-1.985-1.563-2.87-1.834-.917-.282-2.625-1.425-3.973-2.66-1.301-1.191-2.59-2.166-2.864-2.166-.275,0-.911-.585-1.414-1.3-.502-.715-1.145-1.538-1.427-1.829-.282-.29-.513-.687-.513-.88c0-.194-.604-.946-1.342-1.672-1.628-1.599-2.258-2.737-2.258-4.077c0-.556-.282-1.243-.628-1.526-3.178-2.612-3.355-3.578-3.364-18.385-.009-13.894.225-15.737,2.251-17.764.709-.708,1.481-2.003,1.716-2.875.528-1.96,1.843-3.692,2.804-3.692.478,0,.8-.397.957-1.178.313-1.569,5.108-6.371,6.674-6.684.702-.14,1.272-.565,1.431-1.067.404-1.274,1.059-1.757,3.404-2.514c1.185-.383,2.828-1.265,3.651-1.962c1.66-1.404,4.215-2.129,8.304-2.356c4.677-.26,19.895.167,21.264.597m204.855,4.053c.615.233,1.389.946,1.719,1.585.33.638,1.026,1.355,1.546,1.591c1.792.817,1.873,2.2,1.86,31.634-.012,28.133-.072,29.767-1.162,31.501-1.31,2.083-4.084,3.993-5.838,4.018-.684.009-1.956.271-2.826.581-1.087.387-1.735.436-2.072.156-.27-.224-1.448-.49-2.618-.591-1.171-.101-5.116-.441-8.768-.755-6.735-.58-8.255-.941-9.847-2.343-.536-.472-1.644-.839-2.8-.928-11.378-.875-15.372-1.391-16.606-2.144-2.358-1.439-3.858-1.994-5.394-1.995-7.252-.007-15.547-1.475-17.376-3.076-.463-.405-3.18-.809-8.98-1.336-8.365-.761-9.795-1.063-11.904-2.518-.945-.651-2.613-.919-9.464-1.516-6.973-.609-8.564-.867-9.853-1.602-3.082-1.758-3.562-1.946-4.972-1.949-6.454-.011-14.204-1.242-16.424-2.61-1.882-1.159-2.639-1.392-4.524-1.392-2.429,0-7.705-.713-8.501-1.149-2.311-1.266-4.471-4.163-4.745-6.364-.157-1.258-.553-2.697-.88-3.197-.528-.808-.527-.988.014-1.6.335-.38.74-1.664.899-2.855.313-2.339,1.547-4.035,2.935-4.035.484,0,.866-.36,1.015-.955.4-1.594,2.895-2.304,9.447-2.691c4.817-.284,5.902-.464,6.4-1.06c1.315-1.572,5.782-2.431,16.2-3.113c2.729-.179,3.794-.416,4.4-.981c1.671-1.557,6.974-2.552,15.914-2.985c3.542-.172,4.463-.349,5.153-.992c1.652-1.539,7.245-2.604,15.687-2.987c3.616-.164,4.496-.331,5.2-.99c1.777-1.665,4.674-2.248,14.2-2.856c5.092-.325,6.266-.517,6.8-1.112c1.451-1.615,6.592-2.595,16.006-3.05c3.406-.165,4.313-.344,5-.988c2.631-2.465,20.462-4.131,25.159-2.351" fill="#b0b114" fill-rule="evenodd"/><path d="M96.8,52.344c-3.776,1.922-5.2,4.377-5.2,8.966c0,5.048,1.377,13.763,2.416,15.29.383.562,1.428,6.659,2.188,12.756.353,2.836.987,6.064,1.408,7.174.873,2.296,1.683,6.63,2.594,13.87.578,4.601.885,5.992,1.81,8.2.184.44.595,1.97.913,3.4.458,2.061.587,2.316.624,1.228.026-.754-.127-1.924-.34-2.6-1.95-6.189-2.215-7.478-3.219-15.628-.503-4.087-1.308-7.791-2.39-11-.408-1.21-.85-3.37-.983-4.8-.599-6.46-1.298-10.139-3.189-16.8-2.259-7.958-1.721-14.821,1.396-17.795l2.329-2.22l29.321.107L155.8,52.6l1.43,1.407c2.547,2.506,2.95,3.435,3.2,7.372L160.66,65l.07-3.406c.098-4.783-1.458-7.618-5.063-9.223-2.583-1.149-56.612-1.174-58.867-.027M159.868,67.6c-.363,3.029-1.224,6.839-2.287,10.121-.413,1.277-.835,3.707-.938,5.4s-.11,2.539-.016,1.879c.302-2.118,1.047-5.576,1.379-6.4c1.28-3.177,2.56-9.906,2.32-12.2-.116-1.109-.211-.859-.458,1.2M155.844,89c-.288,2.471-.842,4.833-2.295,9.8-.686,2.345-1.103,4.916-1.071,6.6.017.88.097,1.15.177.6.378-2.59,1.101-5.645,1.939-8.2c1.104-3.362,1.935-8.271,1.728-10.2-.115-1.069-.228-.739-.478,1.4m100.26,7.237c-2.531.574-6.477,4.308-8.27,7.824-.599,1.176-1.513,2.523-2.03,2.992-.517.47-1.302,1.562-1.743,2.428-.442.866-1.473,2.372-2.292,3.347-.818.975-1.869,2.582-2.334,3.572-.466.99-1.349,2.297-1.963,2.904s-1.365,1.7-1.67,2.428c-.304.729-1.074,1.852-1.71,2.497-.636.644-1.753,2.251-2.482,3.571s-1.615,2.606-1.968,2.857-1.176,1.484-1.829,2.74c-.653,1.255-1.56,2.579-2.015,2.943-.836.667-2.238,2.952-3.032,4.944-.238.596-.733,1.18-1.099,1.299-.72.232-2.067,2.337-2.067,3.23c0,.302-.6,1.142-1.334,1.868-.734.725-1.677,1.949-2.096,2.719-.418.77-1.31,2.12-1.98,3-1.749,2.296-2.59,3.694-2.59,4.305c0,.293-.72,1.236-1.6,2.095s-1.6,1.71-1.6,1.89c0,.463-2.061,3.592-2.839,4.31-.358.33-1.053,1.484-1.545,2.564s-1.472,2.52-2.178,3.2-1.605,1.93-1.999,2.777c-.394.848-1.296,2.198-2.005,3-.71.803-1.685,2.317-2.168,3.366-.482,1.05-1.342,2.31-1.911,2.8-.568.491-1.377,1.563-1.797,2.382-.419.819-1.278,2.079-1.908,2.8s-1.716,2.444-2.413,3.829-1.522,2.617-1.834,2.736c-.312.12-1.135,1.237-1.829,2.482s-1.656,2.624-2.138,3.064c-.481.44-1.374,1.79-1.984,3-.609,1.21-1.551,2.601-2.092,3.091s-1.452,1.84-2.024,3-1.458,2.483-1.971,2.941c-2.917,2.606-2.259,8.664,1.309,12.049c4.217,4.001,7.567,4.16,12.486.595.968-.702,1.988-1.276,2.266-1.276.279,0,1.37-.804,2.425-1.787c1.056-.983,2.385-1.889,2.955-2.014.57-.126,1.747-.851,2.615-1.612.868-.762,2.375-1.776,3.348-2.255s2.44-1.541,3.261-2.362c.82-.82,1.911-1.624,2.425-1.788c1.195-.379,3.945-2.191,3.945-2.599c0-.172.855-.726,1.9-1.231c1.045-.506,2.62-1.565,3.5-2.353.88-.789,2.108-1.653,2.73-1.921.957-.413,4.023-2.58,4.67-3.301.11-.122.812-.47,1.56-.773s1.964-1.154,2.702-1.892c.737-.738,2.105-1.683,3.04-2.1.934-.417,2.328-1.333,3.098-2.035.77-.703,2.12-1.591,3-1.975.88-.383,2.227-1.341,2.993-2.129s1.846-1.546,2.4-1.684c.968-.242,2.936-1.565,4.599-3.092.436-.401,1.201-.831,1.7-.956s.908-.388.908-.584c0-.197.207-.357.46-.357.252,0,1.069-.628,1.815-1.396s1.81-1.51,2.365-1.65c.554-.139,1.614-.824,2.355-1.523s2.395-1.791,3.676-2.426c1.281-.636,3.09-1.842,4.02-2.68.93-.839,1.94-1.525,2.244-1.525s1.253-.66,2.108-1.466s2.312-1.802,3.239-2.212s2.368-1.389,3.202-2.177s2.251-1.779,3.15-2.202s2.239-1.393,2.979-2.156c.739-.763,1.506-1.387,1.705-1.387.805,0,3.353-1.438,4.428-2.499.631-.623,1.801-1.469,2.6-1.881.8-.413,2.066-1.387,2.815-2.166.748-.78,1.834-1.521,2.413-1.648c1.142-.251,2.184-1.052,5.748-4.418c3.909-3.691,4.428-8.361,1.351-12.141-.7-.86-1.776-2.212-2.39-3.005s-1.379-1.442-1.7-1.442-.583-.176-.583-.391c0-.451-31.02-31.609-31.469-31.609-.163,0-.961-.648-1.773-1.441-1.934-1.889-5.126-2.632-8.254-1.922m7.73,2.151c.972.897,2.217,1.835,2.767,2.085.549.251.999.581.999.735c0,.243,1.035,1.336,3.402,3.592.346.33,1.337,1.32,2.202,2.2.864.88,1.761,1.78,1.992,2s1.04,1.03,1.798,1.8s1.667,1.67,2.019,2c.353.33,1.253,1.23,2,2c.748.77,1.636,1.67,1.973,2c.338.33,1.325,1.32,2.194,2.2s1.767,1.78,1.996,2s1.132,1.12,2.008,2c.875.88,1.781,1.78,2.012,2s1.04,1.03,1.798,1.8s1.726,1.734,2.151,2.141c.962.924,4.338,4.631,6.544,7.187c1.883,2.181,2.453,5.218,1.514,8.062-.687,2.082-7.199,8.21-8.725,8.21-.208,0-1.075.645-1.928,1.434-.852.788-2.262,1.8-3.132,2.249-.869.449-1.899,1.22-2.287,1.714-.388.493-1.746,1.395-3.018,2.004s-2.943,1.704-3.713,2.434c-.77.729-2.106,1.62-2.969,1.98-.864.36-1.891,1.062-2.284,1.562-.393.499-1.756,1.429-3.03,2.065-1.273.637-2.535,1.451-2.804,1.809s-1.44,1.244-2.601,1.97c-1.162.725-2.569,1.735-3.128,2.243-.559.509-2.075,1.466-3.368,2.128-1.293.661-2.905,1.698-3.583,2.305s-1.773,1.37-2.433,1.696-1.947,1.233-2.861,2.016c-.913.782-2.35,1.776-3.192,2.207s-2.059,1.261-2.703,1.845c-.645.584-1.984,1.467-2.977,1.963s-2.342,1.414-2.999,2.042c-.656.627-1.954,1.52-2.883,1.984s-2.296,1.372-3.037,2.017-2.142,1.541-3.112,1.992c-.97.45-2.341,1.431-3.047,2.18s-1.491,1.361-1.744,1.361c-.604,0-3.511,1.843-4.815,3.052-.564.524-1.747,1.293-2.628,1.71-.881.416-2.052,1.241-2.602,1.832s-1.773,1.427-2.718,1.858c-1.508.689-2.638,1.479-4.235,2.963-.246.229-1.163.751-2.038,1.162s-1.894,1.132-2.264,1.602c-.369.469-1.633,1.371-2.808,2.003s-2.729,1.66-3.452,2.284c-.723.625-2.163,1.576-3.2,2.115s-2.315,1.446-2.841,2.015c-.526.568-1.918,1.489-3.092,2.044-1.175.556-2.249,1.194-2.388,1.418-.453.734-3.796,1.942-5.371,1.942-6.76,0-11.307-9.27-6.983-14.236.558-.64,1.406-1.94,1.885-2.888s1.463-2.334,2.188-3.08c.724-.746,1.317-1.549,1.317-1.784c0-.576,1.873-3.51,3.052-4.782.524-.564,1.298-1.747,1.721-2.628s1.286-2.079,1.919-2.661c.632-.583,1.497-1.843,1.92-2.8.424-.958,1.351-2.366,2.059-3.13.708-.763,1.608-2.1,2.001-2.97.392-.87,1.262-2.136,1.933-2.812.67-.676,1.574-1.949,2.007-2.829s1.372-2.306,2.086-3.17c.714-.863,1.661-2.303,2.105-3.2.444-.896,1.333-2.143,1.975-2.77.643-.627,1.476-1.788,1.852-2.579.375-.792,1.467-2.439,2.426-3.66.959-1.222,1.744-2.45,1.744-2.73s.718-1.288,1.595-2.239c.877-.952,1.876-2.402,2.219-3.223s1.125-1.983,1.739-2.583c.613-.599,1.579-2.07,2.147-3.268.567-1.198,1.49-2.576,2.051-3.063.561-.486,1.482-1.746,2.047-2.8.565-1.053,1.73-2.803,2.59-3.889.859-1.086,1.672-2.411,1.806-2.945.134-.533.823-1.535,1.53-2.226.708-.69,1.552-1.795,1.875-2.455s1.248-1.971,2.056-2.913c.808-.943,1.866-2.557,2.351-3.588.484-1.031,1.581-2.671,2.437-3.643.857-.973,1.557-1.991,1.557-2.262s.64-1.191,1.421-2.044c.782-.852,1.808-2.36,2.281-3.35s1.37-2.356,1.994-3.035s1.533-1.971,2.019-2.87c.487-.899,1.427-2.233,2.089-2.965.662-.731,1.535-2.074,1.94-2.984c3.199-7.187,11.176-10.318,15.69-6.158M151.855,109.8c-.358,2.798-1.221,6.608-2.265,10-.406,1.32-.846,3.39-.977,4.6-.825,7.624-1.74,12.957-2.575,15-.862,2.11-1.231,3.846-1.4,6.6-.101,1.65-.1,2.46.003,1.8.286-1.828,1.292-5.852,2.114-8.461.845-2.679,1.508-6.606,1.847-10.939.249-3.182.836-6.477,1.391-7.8c1.233-2.941,2.593-9.957,2.326-12-.116-.885-.238-.57-.464,1.2m-48.136,17.4c.576,6.653,1.436,11.315,2.324,12.6.369.534,1.386,6.436,2.17,12.6.599,4.701,1.174,7.264,1.843,8.207.158.225.521,1.665.806,3.2.369,1.991.558,2.463.659,1.644.142-1.152-.878-5.858-1.545-7.13-.463-.882-1.41-6.259-1.995-11.321-.479-4.155-1.113-7.112-2.401-11.2-.416-1.32-.943-4.276-1.171-6.569-.228-2.294-.527-4.274-.665-4.4-.137-.127-.149.939-.025,2.369m40.118,24.6c-.426,3.145-1.308,7.036-2.25,9.921-.417,1.277-.841,3.707-.944,5.4s-.11,2.539-.017,1.879c.339-2.389,1.025-5.617,1.36-6.4c1.223-2.858,2.601-9.947,2.333-12-.118-.898-.239-.596-.482,1.2M111.6,168.156c0,2.987,1.354,10.983,2.162,12.764.608,1.34,1.656,6.66,1.985,10.08.496,5.137,1.087,7.248,2.476,8.84.749.858,1.365,1.724,1.369,1.924.02.955,2.601,2.636,4.047,2.636.823,0,1.825.119,2.228.264s.604.121.447-.053c-.158-.174-1.316-.523-2.575-.775-3.432-.688-6.69-5.294-7.146-10.106-.614-6.472-1.445-10.982-2.824-15.33-.524-1.65-1.137-4.876-1.363-7.169-.421-4.267-.806-5.736-.806-3.075M139.844,173c-.288,2.471-.842,4.833-2.295,9.8-.692,2.366-1.103,4.924-1.061,6.6.039,1.557.044,1.562.181.2.181-1.784.796-4.26,1.94-7.8c1.095-3.391,1.918-8.291,1.713-10.2-.115-1.069-.228-.739-.478,1.4m-3.987,20.6c-.519,3.529-1.095,5.087-2.314,6.255-.629.602-1.143,1.299-1.143,1.548c0,.862-1.89,2.091-3.841,2.496l-1.959.406l1.8.047c1.725.044,4.4-1.476,4.4-2.501c0-.178.601-1.026,1.335-1.884c1.465-1.711,2.431-4.871,2.191-7.167-.131-1.255-.179-1.171-.469.8m-9.596,42.1c.102.165,1.031.301,2.063.303c4.801.009,8.861.788,11.788,2.265c3.075,1.55,3.963,1.935,5.376,2.33.488.137,1.388.79,2,1.452.612.661,1.604,1.464,2.204,1.783c1.36.721,6.708,5.926,6.708,6.527c0,.243.698,1.116,1.551,1.941.87.842,1.873,2.376,2.286,3.499.405,1.1,1.246,2.827,1.87,3.837c1.975,3.199,2.426,6.013,2.461,15.363.018,4.62.077,7.77.133,7c.055-.77.289-2.784.518-4.476.411-3.024.371-3.66-.81-12.845-.306-2.381-1.557-5.689-2.374-6.279-.433-.313-1.635-3.053-1.635-3.727c0-.333-.734-1.386-1.631-2.339-.898-.954-1.872-2.19-2.166-2.747-.545-1.034-2.896-3.187-3.48-3.187-.178,0-.323-.261-.323-.581c0-.319-.855-1.156-1.9-1.86-1.045-.703-2.275-1.694-2.732-2.202-.458-.508-2.297-1.497-4.086-2.198-1.79-.7-3.618-1.612-4.063-2.027-1.271-1.185-14.445-2.939-13.758-1.832m-9.261.297c-.66.178-1.843.434-2.63.569-.786.134-1.826.613-2.31,1.064s-2.062,1.248-3.505,1.772c-2.846,1.032-4.555,2.002-4.555,2.585c0,.202-.992.961-2.203,1.686-1.212.725-2.306,1.64-2.431,2.033s-.708,1.025-1.296,1.404c-1.286.829-2.438,2.118-2.457,2.749-.007.252-.624.995-1.371,1.65-.747.656-1.625,1.8-1.952,2.542s-.912,2.069-1.299,2.949-1.026,2.061-1.421,2.625c-2.933,4.189-2.572,30.775.417,30.775.143,0,.579.765.97,1.7c1.291,3.089,2.032,4.331,2.943,4.928.495.325.9.856.9,1.181s.18.591.4.591.4.241.4.537c0,.569,4.897,5.463,5.466,5.463.185,0,1.182.788,2.217,1.752s2.378,1.877,2.986,2.029c.607.153,1.92.857,2.917,1.564c2.326,1.651,4.179,2.267,6.642,2.208l1.972-.047-2.2-.355c-2.651-.429-4.201-1.011-5.8-2.177-.66-.481-1.89-1.096-2.734-1.367-2.294-.735-9.064-6.56-11.165-9.607-.683-.99-1.75-2.297-2.371-2.903-.622-.607-1.13-1.365-1.13-1.683c0-.319-.838-2.162-1.862-4.097L88.676,286.6l-.376-6.34c-.578-9.766.046-17.516,1.61-19.982.657-1.037,1.585-2.928,2.062-4.203.508-1.359,1.594-3.099,2.623-4.204.966-1.037,1.869-2.242,2.007-2.678.139-.436.393-.793.566-.793.359,0,2.587-2.067,3.093-2.871.187-.295,1.148-1.062,2.137-1.703.989-.642,2.116-1.571,2.505-2.066.389-.494,1.284-1.025,1.989-1.18s1.558-.428,1.895-.607s1.378-.641,2.313-1.026c.935-.386,1.7-.817,1.7-.96c0-.824,3.278-1.433,11.4-2.118.88-.074-.11-.149-2.2-.166s-4.34.115-5,.294m213.4,4.385c-2.31.374-4.92.969-5.8,1.321-.88.353-2.77.903-4.2,1.222-1.718.384-2.193.595-1.4.621c1.062.036,4.359-.726,8.6-1.987c3.207-.953,7.912-1.399,12.931-1.226c1.623.056,2.12.274,3.122,1.367.656.715,1.624,1.762,2.152,2.327c1.791,1.917,1.796,1.989,1.782,30.699-.011,23.453-.098,27.591-.597,28.274-1.584,2.168-2.092,2.782-3.346,4.039-.746.749-1.177,1.361-.958,1.361.489,0,1.891-1.366,3.625-3.534c2.073-2.591,2.133-3.547,2.005-31.945-.125-27.813-.042-26.762-2.29-29.321-.676-.77-1.327-1.701-1.445-2.068-.606-1.885-6.624-2.373-14.181-1.15m-21,3.987c-2.42.372-5.067.968-5.881,1.325-1.704.747-6.354,1.611-13.519,2.512-4.601.578-5.992.885-8.2,1.81-.44.184-1.97.595-3.4.913-2.071.46-2.315.585-1.2.613.77.019,2.66-.325,4.2-.766c5.848-1.671,6.866-1.91,9.2-2.163c7.075-.764,11.325-1.571,16-3.037c1.32-.413,4.276-.939,6.569-1.167c2.294-.228,4.259-.503,4.367-.612.388-.388-3.814-.093-8.136.572m-37.833,7.392c-.092.089-1.787.361-3.767.604-3.308.407-5.747,1.021-6.829,1.718-.236.152-1.565.46-2.953.683-2.813.453-3.597.834-1.717.834c1.302,0,5.744-.996,7.099-1.592c1.785-.786,3.803-1.2,7.769-1.597c4.569-.456,5.689-.811,2.564-.811-1.1,0-2.075.073-2.166.161M246.4,256.402c-2.31.385-5.28,1.069-6.6,1.52s-3.21.991-4.2,1.201c-1.745.369-1.757.382-.4.417c1.232.032,2.91-.367,8.4-1.997.77-.229,2.66-.588,4.2-.799s3.79-.531,5-.712l2.2-.329h-2.2c-1.21,0-4.09.314-6.4.699m-16.434,3.365c-.092.092-1.697.372-3.567.621-1.869.249-4.839.88-6.599,1.402-3.374,1.001-5.424,1.373-13.177,2.389-3.399.446-5.014.838-5.6,1.359-.453.403-1.507,1.142-2.343,1.643-4.584,2.743-4.831,11.025-.419,14.061.923.635,1.942,1.418,2.263,1.739.826.826,3.796,1.498,5.895,1.333c1.617-.127,1.512-.171-1.14-.481-2.052-.239-3.3-.621-4.2-1.284-.703-.519-1.849-1.314-2.546-1.766-4.304-2.796-3.813-10.952.805-13.369c1.244-.65,2.262-1.289,2.262-1.418c0-.449,2.613-1.155,5.2-1.405c6.113-.592,11.71-1.61,17.255-3.136c1.24-.342,3.845-.819,5.789-1.06c3.976-.495,4.766-.795,2.089-.795-.99,0-1.875.075-1.967.167M163.874,285c-.373,1.993-1.413,4.546-2.281,5.6-.363.44-.988,1.7-1.39,2.8s-1.309,2.551-2.016,3.225-1.399,1.574-1.538,2c-.25.765-4.187,4.649-7.475,7.375-1.647,1.366-4.147,2.759-4.999,2.786-.233.008-.808.371-1.276.808-1.174,1.093-3.45,1.946-6.299,2.36l-2.4.348l1.954.049c2.635.066,4.882-.632,7.06-2.193.997-.715,2.289-1.419,2.87-1.565.58-.145,1.834-.923,2.786-1.727.951-.804,1.974-1.643,2.271-1.864c1.69-1.255,5.011-4.534,5.466-5.397.292-.553,1.24-1.758,2.107-2.679.866-.921,1.685-2.223,1.82-2.894.134-.67.848-2.098,1.588-3.173c1.467-2.133,2.434-4.991,2.2-6.5-.116-.748-.214-.607-.448.641m46.726-.238c1.32.176,4.02.861,6,1.522c3.527,1.178,7,1.838,12.2,2.317c3.022.279,6.015.878,8,1.602c3.455,1.261,8.297,2.211,10.931,2.146l2.069-.052-2.4-.361c-3.118-.47-8.234-1.585-9-1.962-1.265-.624-3.936-1.203-7.4-1.606-8.548-.994-9.616-1.199-14.2-2.727-1.43-.476-3.95-.941-5.6-1.032-2.923-.162-2.938-.158-.6.153m40.8,7.892c1.534.2,4.02.821,7.8,1.947c3.962,1.18,7.441,1.811,9.624,1.746l1.776-.052-2.2-.364c-3.545-.587-7.627-1.533-10.121-2.345-1.277-.416-3.617-.831-5.2-.923-1.583-.091-2.339-.095-1.679-.009m21.2,4.029c1.17.176,3.542.799,7.6,1.995c2.812.829,7.412,1.607,11.4,1.93c3.361.271,5.506.73,9.4,2.01c2.796.919,7.661,1.774,9.8,1.723c1.761-.043,1.748-.052-.6-.405-3.054-.46-8.218-1.58-9-1.952-1.221-.581-3.461-1.127-5.6-1.365-8.569-.951-12.049-1.59-16.489-3.027-1.259-.408-3.509-.82-5-.916s-2.171-.093-1.511.007m42.2,8.115c2.165.351,2.823.518,7.2,1.827c3.31.991,5.487,1.377,8.8,1.562l3,.167-3.2-.521c-3.901-.636-6.468-1.24-9.521-2.242-1.277-.419-3.707-.849-5.4-.956-2.831-.178-2.902-.165-.879.163m21.1,3.897c1.155.081,3.045.081,4.2,0s.21-.147-2.1-.147-3.255.066-2.1.147m-212.4,4.001c1.375.078,3.625.078,5,0s.25-.142-2.5-.142-3.875.064-2.5.142" fill="#886c6c" fill-rule="evenodd"/><path d="M94.828,54.605c-3.117,2.974-3.655,9.837-1.396,17.795c1.891,6.661,2.59,10.34,3.189,16.8.133,1.43.575,3.59.983,4.8c1.391,4.126,2.224,8.571,3.005,16.047.129,1.235.51,3.215.846,4.4c1.995,7.028,2.146,7.795,2.93,14.953.242,2.2.779,5.08,1.195,6.4c1.288,4.088,1.922,7.045,2.401,11.2.577,4.997,1.568,10.64,1.964,11.186.68.939,2.128,8.943,2.675,14.786.142,1.525.674,4.045,1.182,5.6c1.329,4.076,2.175,8.671,2.791,15.158.462,4.871,3.709,9.417,7.232,10.124c3.76.755,8.575-.621,8.575-2.451c0-.249.514-.946,1.143-1.548c1.304-1.25,1.796-2.726,2.416-7.255.976-7.128,1.192-8.459,1.591-9.8c1.841-6.181,1.968-6.84,2.858-14.8.233-2.09.765-4.88,1.181-6.2c1.313-4.165,2.405-10.081,3.028-16.4.223-2.264.676-4.178,1.421-6c.835-2.043,1.75-7.376,2.575-15c.131-1.21.571-3.28.977-4.6c1.111-3.609,1.888-7.217,2.368-11c.778-6.12,1.169-8.578,1.592-10c1.839-6.174,1.957-6.786,2.862-14.8.236-2.09.857-5.24,1.379-7c3.699-12.463,3.553-18.951-.516-22.95L155.8,52.6l-29.322-.108-29.321-.107-2.329,2.22m61.692.735c2.085,2.003,2.243,2.29,2.489,4.5.377,3.386-.477,10.451-1.423,11.779-1.058,1.487-1.527,3.886-2.408,12.325-.588,5.631-.949,7.639-1.551,8.612-1.129,1.828-1.539,3.911-2.442,12.426-.442,4.17-.935,7.68-1.094,7.8-.606.454-1.337,2.125-1.723,3.938-.381,1.788-.591,3.493-1.556,12.638-.277,2.619-.68,4.381-1.193,5.212-1.12,1.812-1.533,3.908-2.444,12.418-.447,4.173-.939,7.683-1.094,7.8-.598.451-1.33,2.132-1.711,3.932-.46,2.169-.57,3.031-1.386,10.848-.438,4.192-.813,6.108-1.372,7.012-1.107,1.792-1.526,3.904-2.416,12.195-.435,4.056-.936,7.476-1.113,7.6-.909.636-3.283,4.569-3.283,5.439c0,.287-.501.633-1.114.767-2.701.593-8.086.139-8.086-.682c0-.72-1.332-3.499-1.677-3.499-.178,0-.323-.274-.323-.609c0-.334-.431-1.279-.957-2.1-.975-1.52-1.504-4.701-2.044-12.291-.245-3.446-.62-5.008-1.865-7.762-.98-2.167-1.428-4.772-1.933-11.238-.426-5.445-.794-7.157-2.192-10.2-.904-1.967-1.517-5.871-2.01-12.8-.248-3.488-.629-5.051-1.902-7.8-1.008-2.177-1.354-4.203-1.875-11-.424-5.521-.84-7.493-2.086-9.888-.956-1.838-1.432-4.598-1.95-11.312-.424-5.496-.703-6.785-2.161-10-.904-1.995-1.57-6.24-2.038-13-.253-3.662-.663-5.357-1.859-7.686-1.809-3.522-2.168-12.739-.534-13.695.666-.389,1.334-1.042,3.106-3.033.683-.767,1.366-.786,28.846-.786h28.147l2.227,2.14m98.912,41.453c-1.513.485-6.338,5.619-7.288,7.753-.405.91-1.278,2.253-1.94,2.984-.662.732-1.602,2.066-2.089,2.965-.486.899-1.395,2.191-2.019,2.87s-1.521,2.045-1.994,3.035-1.499,2.498-2.281,3.35c-.781.853-1.421,1.773-1.421,2.044s-.7,1.289-1.557,2.262c-.856.972-1.953,2.612-2.437,3.643-.485,1.031-1.543,2.645-2.351,3.588-.808.942-1.733,2.253-2.056,2.913s-1.167,1.765-1.875,2.455c-.707.691-1.396,1.693-1.53,2.226-.134.534-.947,1.859-1.806,2.945-.86,1.086-2.025,2.836-2.59,3.889-.565,1.054-1.486,2.314-2.047,2.8-.561.487-1.484,1.865-2.051,3.063-.568,1.198-1.534,2.669-2.147,3.268-.614.6-1.396,1.762-1.739,2.583s-1.342,2.271-2.219,3.223c-.877.951-1.595,1.959-1.595,2.239s-.785,1.508-1.744,2.73c-.959,1.221-2.051,2.868-2.426,3.66-.376.791-1.209,1.952-1.852,2.579-.642.627-1.531,1.874-1.975,2.77-.444.897-1.391,2.337-2.105,3.2-.714.864-1.653,2.29-2.086,3.17s-1.337,2.153-2.007,2.829c-.671.676-1.541,1.942-1.933,2.812-.393.87-1.293,2.207-2.001,2.97-.708.764-1.635,2.172-2.059,3.13-.423.957-1.288,2.217-1.92,2.8-.633.582-1.496,1.78-1.919,2.661s-1.197,2.064-1.721,2.628c-1.179,1.272-3.052,4.206-3.052,4.782c0,.235-.593,1.038-1.317,1.784-.725.746-1.709,2.132-2.188,3.08s-1.327,2.248-1.885,2.888c-4.324,4.966.223,14.236,6.983,14.236c1.575,0,4.918-1.208,5.371-1.942.139-.224,1.213-.862,2.388-1.418c1.174-.555,2.566-1.476,3.092-2.044.526-.569,1.804-1.476,2.841-2.015s2.477-1.49,3.2-2.115c.723-.624,2.277-1.652,3.452-2.284s2.439-1.534,2.808-2.003c.37-.47,1.389-1.191,2.264-1.602s1.792-.933,2.038-1.162c1.597-1.484,2.727-2.274,4.235-2.963.945-.431,2.168-1.267,2.718-1.858s1.721-1.416,2.602-1.832c.881-.417,2.064-1.186,2.628-1.71c1.304-1.209,4.211-3.052,4.815-3.052.253,0,1.038-.612,1.744-1.361s2.077-1.73,3.047-2.18c.97-.451,2.371-1.347,3.112-1.992s2.108-1.553,3.037-2.017s2.227-1.357,2.883-1.984c.657-.628,2.006-1.546,2.999-2.042s2.332-1.379,2.977-1.963c.644-.584,1.861-1.414,2.703-1.845s2.279-1.425,3.192-2.207c.914-.783,2.201-1.69,2.861-2.016s1.755-1.089,2.433-1.696s2.29-1.644,3.583-2.305c1.293-.662,2.809-1.619,3.368-2.128.559-.508,1.966-1.518,3.128-2.243c1.161-.726,2.332-1.612,2.601-1.97s1.531-1.172,2.804-1.809c1.274-.636,2.637-1.566,3.03-2.065.393-.5,1.42-1.202,2.284-1.562.863-.36,2.199-1.251,2.969-1.98.77-.73,2.441-1.825,3.713-2.434s2.63-1.511,3.018-2.004c.388-.494,1.418-1.265,2.287-1.714.87-.449,2.28-1.461,3.132-2.249.853-.789,1.72-1.434,1.928-1.434c1.526,0,8.038-6.128,8.725-8.21.939-2.844.369-5.881-1.514-8.062-2.206-2.556-5.582-6.263-6.544-7.187-.425-.407-1.393-1.371-2.151-2.141s-1.567-1.58-1.798-1.8-1.137-1.12-2.012-2c-.876-.88-1.779-1.78-2.008-2s-1.127-1.12-1.996-2-1.856-1.87-2.194-2.2c-.337-.33-1.225-1.23-1.973-2-.747-.77-1.647-1.67-2-2-.352-.33-1.261-1.23-2.019-2s-1.567-1.58-1.798-1.8-1.128-1.12-1.992-2c-.865-.88-1.856-1.87-2.202-2.2-2.367-2.256-3.402-3.349-3.402-3.592c0-.154-.45-.484-.999-.735-.55-.25-1.795-1.188-2.767-2.085-1.919-1.768-5.653-2.477-8.402-1.595m5.494,1.256c.481.247,1.234.842,1.674,1.322s1.52,1.235,2.4,1.678c.934.471,1.823,1.301,2.136,1.995.295.654,1.193,1.541,1.996,1.972.802.431,1.698,1.285,1.991,1.897.293.611,1.253,1.567,2.134,2.123.88.556,1.77,1.495,1.977,2.087.213.612,1.019,1.422,1.866,1.877.82.44,1.73,1.301,2.023,1.913.293.611,1.253,1.567,2.134,2.123.88.556,1.77,1.495,1.977,2.087.214.614,1.018,1.421,1.871,1.877.832.445,1.733,1.339,2.031,2.016.295.669,1.195,1.569,2,2s1.705,1.331,2,2s1.195,1.569,2,2c.835.447,1.706,1.333,2.026,2.061.31.703,1.062,1.484,1.672,1.737c1.342.556,2.169,1.45,2.576,2.786.167.55.598,1.27.958,1.6c2.3,2.114,2.784,5.224,1.096,7.045-.585.631-1.064,1.374-1.064,1.651s-.135.504-.301.504c-.165,0-1.33.966-2.589,2.147-1.258,1.181-2.878,2.385-3.599,2.676-1.293.521-3.111,2.119-3.111,2.734c0,.174-.68.52-1.512.769-.831.249-2.446,1.251-3.588,2.226s-2.987,2.184-4.1,2.687c-1.368.618-2.099,1.214-2.256,1.841-.146.584-.624,1.011-1.288,1.155-1.571.338-2.603.909-4.549,2.516-.966.797-2.622,1.894-3.68,2.437s-2.104,1.382-2.323,1.864c-.223.488-1.18,1.174-2.163,1.549-.97.371-2.381,1.256-3.136,1.968s-2.145,1.634-3.089,2.047c-2.288,1.004-3.446,1.836-3.733,2.683-.13.385-.719.818-1.31.963-1.322.326-2.645,1.13-4.475,2.72-.772.67-2.279,1.663-3.349,2.206s-2.126,1.382-2.345,1.864c-.233.51-1.172,1.159-2.252,1.554-1.018.372-2.419,1.289-3.113,2.036-.693.747-1.395,1.358-1.56,1.358-.874,0-4.53,2.161-4.938,2.919-.261.484-1.555,1.387-2.876,2.005-1.585.741-2.529,1.456-2.774,2.1-.204.537-.691.978-1.081.98-.97.005-4.728,2.201-5.394,3.151-.297.425-1.572,1.261-2.833,1.858-1.603.759-2.364,1.371-2.531,2.036-.131.523-.536.951-.899.951-1.028,0-4.532,2-5.706,3.257-.583.624-1.89,1.49-2.906,1.925-1.038.445-2.031,1.198-2.269,1.72-.268.587-1.143,1.184-2.38,1.623-1.076.383-2.64,1.346-3.474,2.141-.835.795-2.148,1.74-2.918,2.101-2.159,1.01-3.2,1.775-3.2,2.35c0,.288-.675.803-1.5,1.144-3.864,1.598-5.744,2.589-5.955,3.139-.565,1.471-3.571.748-5.823-1.4-1.153-1.1-2.31-2-2.57-2-1.808,0-1.698-4.778.169-7.386.837-1.168,1.769-2.875,2.072-3.793.318-.964,1.043-2.019,1.716-2.499.641-.456,1.485-1.57,1.876-2.476.39-.905,1.355-2.346,2.143-3.202.788-.857,1.734-2.395,2.102-3.419.443-1.233,1.113-2.153,1.984-2.724.804-.527,1.415-1.324,1.576-2.054.144-.656.974-2.003,1.845-2.992s2.025-2.756,2.564-3.927c.559-1.215,1.499-2.471,2.19-2.928.78-.516,1.297-1.262,1.455-2.1.135-.715.405-1.3.601-1.3.195,0,.355-.155.355-.344s.609-.99,1.353-1.779c.744-.788,1.751-2.395,2.238-3.57.577-1.393,1.292-2.37,2.054-2.807.743-.426,1.258-1.116,1.413-1.89.134-.671.963-1.982,1.842-2.915.879-.932,2.099-2.775,2.71-4.095s1.499-2.633,1.972-2.917c.474-.284,1.222-1.36,1.665-2.392.442-1.031,1.335-2.328,1.984-2.883c1.127-.962,2.769-3.695,2.769-4.609c0-.238.72-1.094,1.6-1.903s1.6-1.738,1.6-2.065c0-1.115.887-2.542,1.855-2.983.61-.278,1.406-1.387,2.151-2.997.65-1.406,1.646-2.983,2.212-3.504s1.451-1.874,1.966-3.008c.517-1.135,1.286-2.171,1.715-2.307.428-.136,1.285-1.278,1.906-2.539.62-1.261,1.71-2.923,2.421-3.693.712-.77,1.694-2.345,2.183-3.5s1.02-2.1,1.179-2.1c.402,0,2.012-1.429,2.012-1.786c0-.807,1.498-3.353,2.598-4.414.683-.66,1.593-2.07,2.022-3.134s1.292-2.303,1.917-2.754c.626-.451,1.456-1.56,1.844-2.466.389-.905,1.227-2.208,1.863-2.894s1.714-1.856,2.395-2.6c2.841-3.099,5.406-3.978,7.887-2.703M124.2,235.9c-6.965.455-11.4,1.267-11.4,2.087c0,.143-.765.574-1.7.96-.935.385-1.976.847-2.313,1.026s-1.19.452-1.895.607-1.6.686-1.989,1.18c-.389.495-1.516,1.424-2.505,2.066-.989.641-1.95,1.408-2.137,1.703-.506.804-2.734,2.871-3.093,2.871-.173,0-.427.357-.566.793-.138.436-1.041,1.641-2.007,2.678-1.029,1.105-2.115,2.845-2.623,4.204-.477,1.275-1.405,3.166-2.062,4.203-1.564,2.466-2.188,10.216-1.61,19.982l.376,6.34l1.862,3.517c1.024,1.935,1.862,3.778,1.862,4.097c0,.318.508,1.076,1.13,1.683.621.606,1.688,1.913,2.371,2.903c2.101,3.047,8.871,8.872,11.165,9.607.844.271,2.074.886,2.734,1.367c5.281,3.851,28.923,3.71,33.116-.196.459-.428,1.026-.784,1.259-.792.852-.027,3.352-1.42,4.999-2.786c3.288-2.726,7.225-6.61,7.475-7.375.139-.426.831-1.326,1.538-2s1.614-2.125,2.016-3.225s1.027-2.36,1.39-2.8c3.924-4.762,4.258-24.899.514-30.963-.624-1.01-1.465-2.737-1.87-3.837-.413-1.123-1.416-2.657-2.286-3.499-.853-.825-1.551-1.698-1.551-1.941c0-.601-5.348-5.806-6.708-6.527-.6-.319-1.592-1.122-2.204-1.783-.612-.662-1.512-1.315-2-1.452-1.414-.395-2.302-.78-5.39-2.338-3.228-1.628-10.523-2.711-15.898-2.36m8.567,1.31c2.365.307,3.38.669,5.003,1.787c1.121.772,2.312,1.403,2.649,1.403c1.421,0,5.071,1.625,6.191,2.757.665.672,1.761,1.414,2.434,1.649.703.245,1.761,1.187,2.482,2.21.724,1.027,1.575,1.784,2.005,1.784.493,0,1.007.578,1.508,1.697.859,1.915,1.897,3.103,2.711,3.103.303,0,.664.585.803,1.3.448,2.31,1.923,5.677,2.872,6.559c2.442,2.269,2.746,24.518.354,25.857-.751.42-1.859,2.669-2.75,5.584-.387,1.265-.859,2.3-1.05,2.3-.47,0-2.379,2.09-2.379,2.604c0,.227-.405.806-.9,1.285-1.147,1.112-2.499,2.464-3.611,3.611-.479.495-1.056.906-1.281.913-.534.018-1.899,1.232-2.416,2.149-.224.398-1.214.986-2.2,1.307-2.768.902-4.527,1.78-5.278,2.638-1.724,1.968-26.103,2.085-27.197.13-.469-.837-2.773-1.998-5.59-2.817-1.726-.502-2.302-.867-2.479-1.569-.142-.568-.933-1.278-2.081-1.868-1.018-.524-2.001-1.347-2.185-1.831-.184-.483-.874-1.197-1.534-1.587s-1.525-1.351-1.924-2.137c-.678-1.337-2.417-3.226-2.971-3.228-.136,0-.55-1.125-.92-2.5-.781-2.902-1.353-4.19-2.348-5.292-1.173-1.298-1.285-2.377-1.285-12.408c0-10.027.11-11.095,1.285-12.428c1.099-1.248,1.635-2.337,1.933-3.927.15-.8.432-1.552.627-1.673s.355-.637.355-1.148c0-.592.509-1.317,1.405-2c.772-.59,1.663-1.692,1.98-2.45.328-.786,1.184-1.737,1.991-2.213.779-.459,1.643-1.314,1.92-1.898.277-.585,1.224-1.412,2.104-1.839s2.14-1.347,2.8-2.043c1.085-1.145,4.452-2.581,6.052-2.581.308,0,1.503-.623,2.654-1.384c3.072-2.031,10.71-2.786,18.261-1.806M333.8,240.414c-3.403.311-4.587.567-8.4,1.812-2.715.887-8.54,1.886-13.946,2.391-1.51.141-3.76.585-5,.986-4.34,1.405-8.758,2.244-15.854,3.01-2.248.243-3.901.63-8.8,2.059-2.208.645-5.257,1.129-11,1.747-3.648.392-5.682.83-7.4,1.591-1.411.626-5.885,1.519-10,1.998-5.495.638-8.153,1.058-9.8,1.545-6.165,1.824-5.898,1.77-13.955,2.84-1.845.245-4.365.724-5.6,1.064-5.532,1.524-11.136,2.542-17.245,3.134-2.587.25-5.2.956-5.2,1.405c0,.129-1.018.768-2.262,1.418-4.616,2.416-5.111,10.609-.805,13.353.697.445,1.754,1.203,2.349,1.685c1.118.906,2.589,1.206,9.588,1.957c2.128.228,5.008.793,6.4,1.257c4.51,1.501,5.61,1.711,14.13,2.702c3.441.4,5.866.93,7.6,1.66c1.981.834,7.323,1.755,15,2.585c1.21.131,3.28.571,4.6.977c4.662,1.435,9.109,2.266,16.2,3.025c1.21.13,3.28.569,4.6.975c4.833,1.488,8.12,2.088,16.6,3.029c2.108.234,4.086.718,5.8,1.419c2.043.835,7.376,1.75,15,2.575c1.21.131,3.292.578,4.626.994c5.689,1.772,11.889,2.762,17.418,2.78l3.844.013l1.356-1.361c1.254-1.257,1.762-1.871,3.346-4.039.499-.683.586-4.821.597-28.274.014-28.71.009-28.782-1.782-30.699-.528-.565-1.496-1.612-2.152-2.327-.903-.985-1.526-1.3-2.572-1.3-.76,0-1.898-.071-2.531-.158-.632-.087-2.77-.009-4.75.172m6.88.989c1.52.236,1.795.466,2.903,2.429.673,1.192,1.373,2.168,1.556,2.168c1.152,0,1.261,2.485,1.261,28.741v26.703l-1.4,1.528c-.77.841-1.4,1.844-1.4,2.229c0,2.344-13.142,2.685-16.384.426-1.448-1.009-6.006-1.89-13.606-2.63-3.625-.353-6.685-.766-6.8-.919-.888-1.175-5.708-2.223-14.188-3.085-4.961-.505-6.621-.823-7.476-1.431-1.342-.956-5.399-1.729-13.452-2.563-4.415-.458-6.464-.844-7.4-1.396-1.729-1.021-5.962-1.826-13.659-2.601-4.702-.473-6.636-.829-7.4-1.362-1.409-.982-5.83-1.864-13.235-2.641-4.529-.476-6.559-.861-7.531-1.43-1.914-1.12-3.761-1.484-12.045-2.373-6.69-.718-7.471-.882-8.4-1.763-.563-.535-1.824-1.391-2.801-1.903-3.613-1.891-3.328-9.732.391-10.734.88-.237,2.573-.965,3.763-1.618c2.644-1.451,4.795-1.885,12.023-2.426c5.858-.439,9.278-1.118,10.864-2.157c1.245-.816,4.138-1.352,9.736-1.804c5.193-.42,7.318-.876,10.2-2.191c1.983-.904,5.234-1.409,13.602-2.114c3.007-.253,4.597-.61,6.4-1.437c2.772-1.271,7.036-2.063,12.998-2.416c4.23-.25,6.875-.83,9.156-2.01c1.571-.813,6.692-1.67,11.844-1.984c4.157-.252,6.605-.822,9.247-2.149c1.518-.762,5.79-1.418,12.353-1.897c3.675-.268,5.692-.742,8.109-1.905c1.642-.791,7.249-1.885,8.491-1.657.33.061,1.356.228,2.28.372" fill="#8c7474" fill-rule="evenodd"/><path d="M94.48,51.736c-3.343,1.75-3.877,3.328-3.799,11.226.099,10.144,1.109,16.5,2.932,18.448.6.642.805,1.645.983,4.8.563,10.019,1.451,14.58,3.174,16.303.499.499.711,1.675.86,4.774.444,9.19,1.398,14.284,3.003,16.031.741.806,1.155,3.522,1.171,7.682.021,5.687,1.865,13.8,3.136,13.8.212,0,.49,1.755.619,3.9.613,10.23,1.472,14.873,3.074,16.618.741.806,1.155,3.522,1.171,7.682.021,5.719,1.378,11.925,2.95,13.497.516.515.745,1.91,1.019,6.184.4,6.258.745,7.479,2.371,8.413.633.363,1.362,1.244,1.62,1.956c1.257,3.478,13.087,3.526,14.748.06.285-.596,1.031-1.386,1.658-1.756c1.438-.849,1.906-2.418,2.257-7.554.265-3.877.47-4.61,2.232-7.986.662-1.268.965-3.193,1.512-9.6.652-7.643.742-8.116,1.936-10.214c1.223-2.147,2.491-10.644,2.494-16.706c0-.822.344-2.124.765-2.894c1.821-3.335,2.095-4.385,2.654-10.2.318-3.3.579-6.81.581-7.8.004-1.759.171-2.218,1.93-5.301.824-1.444,2.062-10.842,2.068-15.699.001-.88.346-2.23.767-3c1.821-3.335,2.095-4.385,2.654-10.2.318-3.3.578-6.738.579-7.64.001-1.099.457-2.499,1.385-4.248c2.318-4.368,3.667-22.456,2.009-26.937-1.802-4.872.443-4.578-34.889-4.557L96.2,50.836l-1.72.9m61.187.635c2.018.898,3.115,2.002,4.355,4.382c1.537,2.948.322,16.274-1.992,21.847-.59,1.422-1.2,4.726-1.44,7.8-.365,4.683-1.006,8.354-1.989,11.4-1.292,4.002-1.714,5.994-1.992,9.4-.439,5.376-1.49,10.768-2.611,13.4-.557,1.308-1.146,4.598-1.396,7.8-.318,4.067-.989,8.239-1.662,10.339-1.291,4.029-2.096,7.647-2.329,10.461-.444,5.38-1.484,10.724-2.608,13.4-.604,1.437-1.135,4.339-1.391,7.6-.364,4.644-1.011,8.465-1.896,11.2-1.421,4.396-1.846,6.372-2.108,9.8-.372,4.882-.978,7.021-2.49,8.787-.725.847-1.318,1.71-1.318,1.917c0,3.401-13.143,3.302-13.208-.1-.004-.222-.62-1.106-1.369-1.964-1.389-1.592-1.98-3.703-2.476-8.84-.326-3.382-1.375-8.734-1.968-10.044-.713-1.574-1.204-4.094-1.784-9.156-.542-4.733-1.573-10.636-1.956-11.2-.659-.97-1.234-3.551-1.826-8.2-.784-6.164-1.801-12.066-2.17-12.6-.862-1.247-1.642-5.395-2.295-12.2-.249-2.598-1.264-7.863-1.736-9-.927-2.238-1.229-3.607-1.806-8.2-.911-7.24-1.721-11.574-2.594-13.87-.421-1.11-1.055-4.338-1.408-7.174-.76-6.097-1.805-12.194-2.188-12.756C92.977,75.073,91.6,66.358,91.6,61.31c0-4.589,1.424-7.044,5.2-8.966c2.255-1.147,56.284-1.122,58.867.027m97.639,43.043c-.712.321-1.749,1.304-2.305,2.185-.556.88-1.161,1.601-1.345,1.601-.69,0-1.906,1.462-2.663,3.2-.431.99-1.336,2.377-2.011,3.082-1.359,1.419-2,2.565-2.359,4.218-.131.605-.489,1.1-.795,1.1-.827,0-2.375,2.021-3.001,3.918-.309.936-.874,1.77-1.289,1.902-.406.128-.738.374-.738.545s-.431.812-.957,1.424c-.527.613-1.069,1.811-1.205,2.663-.187,1.172-.433,1.548-1.014,1.548-.972,0-2.111,1.439-2.806,3.545-.298.902-.861,1.742-1.252,1.866-.854.271-2.683,3.275-3.02,4.959-.148.739-.564,1.309-1.075,1.471-1.169.371-1.612.905-2.404,2.897-.38.956-1.271,2.307-1.979,3.002-1.596,1.566-2.157,2.553-2.505,4.411-.163.865-.503,1.449-.846,1.449-.958,0-2.456,1.812-2.918,3.53-.278,1.034-.729,1.715-1.243,1.878-1.096.347-2.703,2.994-3.019,4.971-.192,1.198-.447,1.621-.979,1.621-.934,0-2.256,1.7-2.841,3.654-.288.958-.707,1.546-1.104,1.546-.971,0-2.636,2.742-3.07,5.056-.198,1.057-.539,1.517-1.329,1.792-.989.345-2.054,1.87-2.62,3.752-.132.44-.819,1.163-1.527,1.606-.708.444-1.345,1.209-1.415,1.7-.07.492-.287.894-.482.894-.194,0-.48.67-.633,1.49-.283,1.508-.964,2.51-1.706,2.51-.587,0-1.608,1.58-2.068,3.2-.252.884-.87,1.695-1.677,2.2-.832.52-1.564,1.5-2.091,2.8-.447,1.1-1.381,2.566-2.076,3.257-1.502,1.493-2.139,2.595-2.139,3.703c0,.446-.405,1.023-.9,1.28-1.302.678-2.01,1.535-2.873,3.476-.42.944-1.317,2.307-1.995,3.028-1.323,1.408-2.031,2.662-2.404,4.256-.128.55-.804,1.36-1.501,1.8-3.442,2.173-3.153,13.616.356,14.124.531.077,1.013.575,1.27,1.313c1.135,3.256,12.8,3.262,13.833.008.149-.472,1.031-1.058,2.248-1.496c1.225-.441,2.373-1.207,2.96-1.977.633-.83,1.801-1.572,3.437-2.183c1.813-.679,2.672-1.257,3.204-2.158.508-.86,1.34-1.449,2.764-1.954c1.425-.506,2.151-1.018,2.412-1.705.205-.54.782-1.14,1.281-1.333c4.588-1.776,5.153-2.111,5.618-3.34.146-.385.946-.992,1.778-1.348c2.561-1.097,2.697-1.193,3.233-2.285.292-.597.993-1.175,1.6-1.321c2.022-.486,4.719-2.076,5.158-3.04.294-.645,1.075-1.165,2.366-1.577c1.463-.467,2.074-.919,2.541-1.876.363-.747,1.022-1.357,1.614-1.495c2.069-.482,4.398-1.787,5.252-2.942.544-.736,1.614-1.438,2.78-1.826c1.482-.492,2.039-.931,2.551-2.009.462-.974.921-1.38,1.561-1.38c1.422,0,4.154-1.494,5.119-2.799.483-.654,1.657-1.486,2.609-1.85c1.075-.41,2.023-1.134,2.503-1.911.543-.878,1.309-1.408,2.576-1.782c1.02-.302,2.454-1.168,3.302-1.995.824-.805,2.409-1.83,3.522-2.279c1.511-.609,2.17-1.142,2.597-2.1.348-.78.864-1.284,1.316-1.284c1.084,0,3.73-1.439,4.833-2.628.525-.566,1.925-1.511,3.113-2.1c1.187-.59,2.371-1.506,2.631-2.036.29-.592,1.139-1.188,2.204-1.547.952-.321,2.232-1.108,2.845-1.748.613-.639,2.27-1.693,3.683-2.34c1.727-.791,2.76-1.544,3.149-2.296.396-.767,1.204-1.345,2.562-1.833c1.206-.434,2.14-1.059,2.385-1.597.398-.874.784-1.121,3.897-2.496c1.756-.775,2.089-1.062,3.136-2.697.394-.615,1.147-1.282,1.674-1.482c3.547-1.348,3.727-12.376.232-14.184-.759-.392-1.232-.947-1.232-1.444c0-1.007-1.715-2.772-2.692-2.772-.467,0-1.013-.611-1.518-1.7-.579-1.246-1.121-1.798-2.03-2.066-.896-.264-1.45-.818-2-2-.549-1.181-1.103-1.735-2-2-.896-.264-1.45-.818-2-2-.549-1.181-1.103-1.735-2-2-.896-.264-1.45-.818-2-2-.549-1.181-1.103-1.735-2-2-.896-.264-1.45-.818-2-2-.549-1.181-1.103-1.735-2-2-.896-.264-1.45-.818-2-2-.549-1.181-1.103-1.735-2-2-.896-.264-1.45-.818-2-2-.549-1.181-1.103-1.735-2-2-.896-.264-1.45-.818-2-2-.612-1.316-1.048-1.705-2.241-2-1.012-.25-1.518-.617-1.6-1.16-.347-2.311-8.579-3.699-12.213-2.06m11.052,2.745c.812.793,1.61,1.441,1.773,1.441.449,0,31.469,31.158,31.469,31.609c0,.215.262.391.583.391s1.086.649,1.7,1.442s1.69,2.145,2.39,3.005c3.077,3.78,2.558,8.45-1.351,12.141-3.564,3.366-4.606,4.167-5.748,4.418-.579.127-1.665.868-2.413,1.648-.749.779-2.015,1.753-2.815,2.166-.799.412-1.969,1.258-2.6,1.881-1.075,1.061-3.623,2.499-4.428,2.499-.199,0-.966.624-1.705,1.387-.74.763-2.08,1.733-2.979,2.156s-2.316,1.414-3.15,2.202-2.275,1.767-3.202,2.177-2.384,1.406-3.239,2.212-1.804,1.466-2.108,1.466-1.314.686-2.244,1.525c-.93.838-2.739,2.044-4.02,2.68-1.281.635-2.935,1.727-3.676,2.426s-1.801,1.384-2.355,1.523c-.555.14-1.619.882-2.365,1.65s-1.563,1.396-1.815,1.396c-.253,0-.46.16-.46.357c0,.196-.409.459-.908.584s-1.264.555-1.7.956c-1.663,1.527-3.631,2.85-4.599,3.092-.554.138-1.634.896-2.4,1.684s-2.113,1.746-2.993,2.129c-.88.384-2.23,1.272-3,1.975-.77.702-2.164,1.618-3.098,2.035-.935.417-2.303,1.362-3.04,2.1-.738.738-1.954,1.589-2.702,1.892s-1.45.651-1.56.773c-.647.721-3.713,2.888-4.67,3.301-.622.268-1.85,1.132-2.73,1.921-.88.788-2.455,1.847-3.5,2.353-1.045.505-1.9,1.059-1.9,1.231c0,.408-2.75,2.22-3.945,2.599-.514.164-1.605.968-2.425,1.788-.821.821-2.288,1.883-3.261,2.362s-2.48,1.493-3.348,2.255c-.868.761-2.045,1.486-2.615,1.612-.57.125-1.899,1.031-2.955,2.014-1.055.983-2.146,1.787-2.425,1.787-.278,0-1.298.574-2.266,1.276-4.919,3.565-8.269,3.406-12.486-.595-3.568-3.385-4.226-9.443-1.309-12.049.513-.458,1.399-1.781,1.971-2.941s1.483-2.51,2.024-3s1.483-1.881,2.092-3.091c.61-1.21,1.503-2.56,1.984-3c.482-.44,1.444-1.819,2.138-3.064s1.517-2.362,1.829-2.482c.312-.119,1.137-1.351,1.834-2.736s1.783-3.108,2.413-3.829s1.489-1.981,1.908-2.8c.42-.819,1.229-1.891,1.797-2.382.569-.49,1.429-1.75,1.911-2.8.483-1.049,1.458-2.563,2.168-3.366.709-.802,1.611-2.152,2.005-3c.394-.847,1.293-2.097,1.999-2.777s1.686-2.12,2.178-3.2s1.187-2.234,1.545-2.564c.778-.718,2.839-3.847,2.839-4.31c0-.18.72-1.031,1.6-1.89s1.6-1.802,1.6-2.095c0-.611.841-2.009,2.59-4.305.67-.88,1.562-2.23,1.98-3c.419-.77,1.362-1.994,2.096-2.719.734-.726,1.334-1.566,1.334-1.868c0-.893,1.347-2.998,2.067-3.23.366-.119.861-.703,1.099-1.299.794-1.992,2.196-4.277,3.032-4.944.455-.364,1.362-1.688,2.015-2.943.653-1.256,1.476-2.489,1.829-2.74s1.239-1.537,1.968-2.857s1.846-2.927,2.482-3.571c.636-.645,1.406-1.768,1.71-2.497.305-.728,1.056-1.821,1.67-2.428s1.497-1.914,1.963-2.904c.465-.99,1.516-2.597,2.334-3.572.819-.975,1.85-2.481,2.292-3.347.441-.866,1.226-1.958,1.743-2.428.517-.469,1.431-1.816,2.03-2.992c3.913-7.675,11.817-10.498,16.524-5.902M118,234.639c-4.089.227-6.644.952-8.304,2.356-.823.697-2.466,1.579-3.651,1.962-2.345.757-3,1.24-3.404,2.514-.159.502-.729.927-1.431,1.067-1.566.313-6.361,5.115-6.674,6.684-.157.781-.479,1.178-.957,1.178-.961,0-2.276,1.732-2.804,3.692-.235.872-1.007,2.167-1.716,2.875-2.026,2.027-2.26,3.87-2.251,17.764.009,14.807.186,15.773,3.364,18.385.346.283.628.97.628,1.526c0,1.34.63,2.478,2.258,4.077.738.726,1.342,1.478,1.342,1.672c0,.193.231.59.513.88.282.291.925,1.114,1.427,1.829.503.715,1.139,1.3,1.414,1.3.274,0,1.563.975,2.864,2.166c1.348,1.235,3.056,2.378,3.973,2.66.885.271,2.177,1.097,2.87,1.834c2.151,2.287,4.973,2.63,20.041,2.437c14.344-.185,16.17-.448,17.301-2.497.364-.66,1.007-1.258,1.429-1.328c1.96-.327,4.29-1.505,5.34-2.701.634-.723,1.865-1.763,2.735-2.312s2.041-1.777,2.602-2.729c.561-.951,1.59-2.27,2.288-2.93c1.276-1.207,2.403-3.34,2.403-4.549c0-.358.645-1.193,1.434-1.855c1.561-1.311,1.775-2.014,2.578-8.509.255-2.06.755-4.036,1.221-4.828c1.191-2.026,1.173-6.968-.036-9.465-.527-1.088-1.037-3.151-1.22-4.932-.526-5.108-1.081-6.92-2.6-8.481-.766-.786-1.606-2.212-1.887-3.2-.387-1.365-.802-1.921-1.773-2.381-.706-.334-1.376-1.017-1.511-1.542-.344-1.337-1.409-2.858-2-2.858-.277,0-.923-.613-1.436-1.362-.995-1.452-2.677-2.638-3.742-2.638-.356,0-.819-.45-1.028-1-.448-1.178-2.35-2.427-4.236-2.78-.737-.139-1.571-.572-1.853-.963-.594-.826-2.342-1.822-4.247-2.421-1.369-.43-16.587-.857-21.264-.597m19.305,1.723c1.047.229,2.269.755,2.714,1.17s2.273,1.327,4.063,2.027c1.789.701,3.628,1.69,4.086,2.198.457.508,1.687,1.499,2.732,2.202c1.045.704,1.9,1.541,1.9,1.86c0,.32.145.581.323.581.584,0,2.935,2.153,3.48,3.187.294.557,1.268,1.793,2.166,2.747.897.953,1.631,2.006,1.631,2.339c0,.674,1.202,3.414,1.635,3.727.783.565,2.047,3.822,2.352,6.062c1.069,7.84,1.235,10.3.864,12.768-.212,1.413-.509,4.01-.66,5.77-.309,3.607-1.182,6.255-2.731,8.286-.579.76-1.17,1.962-1.312,2.673s-.968,2.046-1.834,2.967c-.867.921-1.815,2.126-2.107,2.679-.455.863-3.776,4.142-5.466,5.397-.297.221-1.32,1.06-2.271,1.864-.952.804-2.206,1.582-2.786,1.727-.581.146-1.873.854-2.87,1.573-3.05,2.199-4.52,2.4-17.414,2.386-12.711-.013-13.377-.11-16.614-2.407-.997-.707-2.31-1.411-2.917-1.564-.608-.152-1.951-1.065-2.986-2.029s-2.032-1.752-2.217-1.752c-.569,0-5.466-4.894-5.466-5.463c0-.296-.18-.537-.4-.537s-.4-.266-.4-.591-.405-.856-.9-1.181c-.911-.597-1.652-1.839-2.943-4.928-.391-.935-.827-1.7-.97-1.7-2.989,0-3.35-26.586-.417-30.775.395-.564,1.013-1.7,1.374-2.525s.945-2.152,1.298-2.949s1.253-1.986,2-2.642c.747-.655,1.364-1.398,1.371-1.65.019-.631,1.171-1.92,2.457-2.749.588-.379,1.171-1.011,1.296-1.404s1.219-1.308,2.431-2.033c1.211-.725,2.203-1.484,2.203-1.686c0-.588,1.717-1.556,4.646-2.618c1.494-.542,2.815-1.117,2.935-1.277c1.846-2.464,17.526-3.518,25.724-1.73M332.2,238.849c-8.143.448-11.492,1.154-13.24,2.791-.687.644-1.594.823-5,.988-9.414.455-14.555,1.435-16.006,3.05-.534.595-1.708.787-6.8,1.112-9.526.608-12.423,1.191-14.2,2.856-.704.659-1.584.826-5.2.99-8.442.383-14.035,1.448-15.687,2.987-.69.643-1.611.82-5.153.992-8.94.433-14.243,1.428-15.914,2.985-.606.565-1.671.802-4.4.981-10.418.682-14.885,1.541-16.2,3.113-.498.596-1.583.776-6.4,1.06-6.552.387-9.047,1.097-9.447,2.691-.149.595-.531.955-1.015.955-1.388,0-2.622,1.696-2.935,4.035-.159,1.191-.564,2.475-.899,2.855-.541.612-.542.792-.014,1.6.327.5.723,1.939.88,3.197.274,2.201,2.434,5.098,4.745,6.364.796.436,6.072,1.149,8.501,1.149c1.885,0,2.642.233,4.524,1.392c2.22,1.368,9.97,2.599,16.424,2.61c1.41.003,1.89.191,4.972,1.949c1.289.735,2.88.993,9.853,1.602c6.851.597,8.519.865,9.464,1.516c2.109,1.455,3.539,1.757,11.904,2.518c5.8.527,8.517.931,8.98,1.336c1.829,1.601,10.124,3.069,17.376,3.076c1.536.001,3.036.556,5.394,1.995c1.234.753,5.228,1.269,16.606,2.144c1.156.089,2.264.456,2.8.928c1.592,1.402,3.112,1.763,9.847,2.343c3.652.314,7.597.654,8.768.755c1.17.101,2.348.367,2.618.591.337.28.985.231,2.072-.156.87-.31,2.142-.572,2.826-.581c1.754-.025,4.528-1.935,5.838-4.018c1.09-1.734,1.15-3.368,1.162-31.501.013-29.434-.068-30.817-1.86-31.634-.52-.236-1.216-.953-1.546-1.591-1.074-2.077-4.218-2.544-13.638-2.025m10.312,1.383c1.02.347,1.95.932,2.067,1.3.117.367.841,1.388,1.609,2.268s1.535,2.23,1.705,3c.639,2.911.367,54.895-.293,56.044-1.299,2.261-3.299,4.59-4.512,5.256-2.482,1.362-14.263.565-20.888-1.414-4.873-1.455-6.597-1.827-9.6-2.068-4.674-.375-8.477-1.021-11.2-1.902-4.294-1.388-6.343-1.829-9.8-2.108-3.988-.323-8.588-1.101-11.4-1.93-5.074-1.495-6.601-1.829-9.4-2.054-4.337-.349-8.227-1.012-11.2-1.907-5.036-1.517-6.632-1.852-10-2.098-5.132-.374-9.424-1.184-12.8-2.416-1.985-.724-4.978-1.323-8-1.602-5.192-.478-8.679-1.148-12.6-2.419-2.831-.918-5.169-1.378-8-1.573-4.528-.313-6.859-.811-7.69-1.642-.314-.313-1.326-1.09-2.249-1.725-4.412-3.036-4.165-11.318.419-14.061.836-.501,1.89-1.24,2.343-1.643.586-.521,2.201-.913,5.6-1.359c7.75-1.016,9.802-1.388,13.177-2.388c2.962-.877,5.434-1.322,12.2-2.193c4.12-.531,7.116-1.19,8.925-1.965c1.405-.601,5.597-1.3,13.075-2.182c2.616-.308,6.571-1.095,6.986-1.39c1.269-.902,5.016-1.64,11.614-2.289c2.787-.274,8.039-1.278,9.2-1.76c2.238-.927,3.607-1.229,8.2-1.806c7.314-.92,11.866-1.777,13.768-2.592.924-.396,4.099-1.014,7.056-1.372c6.893-.837,12.202-1.818,13.976-2.585c3.803-1.643,14.537-2.507,17.712-1.425" fill="#6e4e51" fill-rule="evenodd"/></g></svg>
