<?xml version="1.0" encoding="UTF-8" standalone="no"?>
<svg
   id="svg"
   version="1.1"
   width="400"
   height="400"
   viewBox="0, 0, 400,400"
   sodipodi:docname="parapent.svg"
   inkscape:version="1.2.2 (732a01da63, 2022-12-09)"
   xmlns:inkscape="http://www.inkscape.org/namespaces/inkscape"
   xmlns:sodipodi="http://sodipodi.sourceforge.net/DTD/sodipodi-0.dtd"
   xmlns="http://www.w3.org/2000/svg"
   xmlns:svg="http://www.w3.org/2000/svg">
  <defs
     id="defs25241" />
  <sodipodi:namedview
     id="namedview25239"
     pagecolor="#ffffff"
     bordercolor="#666666"
     borderopacity="1.0"
     inkscape:showpageshadow="2"
     inkscape:pageopacity="0.0"
     inkscape:pagecheckerboard="0"
     inkscape:deskcolor="#d1d1d1"
     showgrid="false"
     inkscape:zoom="1.3717872"
     inkscape:cx="245.30045"
     inkscape:cy="204.84227"
     inkscape:window-width="1920"
     inkscape:window-height="974"
     inkscape:window-x="-11"
     inkscape:window-y="-11"
     inkscape:window-maximized="1"
     inkscape:current-layer="g25236" />
  <g
     id="g25236">
    <path
       d="M184.6,37.069c-6.411.541-9.633,1.031-11.101,1.689-2.488,1.115-4.907,1.6-10.188,2.043-6.522.547-8.608.935-9.952,1.849-1.96,1.334-3.248,1.73-7.026,2.158-5.159.584-6.399.924-8.401,2.301-1.096.754-2.524,1.316-3.751,1.477-4.024.528-6.032,1.144-8.077,2.482-1.627,1.063-2.748,1.451-5,1.732-4.133.516-5.445.914-7.656,2.323-1.107.705-2.752,1.346-3.8,1.48-3.367.43-5.425,1.097-7.465,2.421-1.109.72-2.729,1.421-3.6,1.557-4.41.694-6.174,1.184-7.055,1.963-1.663,1.471-2.635,1.852-5.829,2.284-3.628.491-5.984,1.061-6.168,1.494-.32.751-2.76,2.073-4.273,2.315-.912.146-1.658.422-1.658.614s-.24.349-.532.349c-.293,0-.774.45-1.068,1s-.66,1-.813,1c-.59,0-2.321,2.081-2.576,3.098-.147.587-.869,1.733-1.603,2.546-2.26,2.501-2.731,16.373-.581,17.097.872.294,1.973,1.85,2.213,3.129.137.732.409,1.33.605,1.33.195,0,.357.225.358.5.002.275.599,1.13,1.325,1.9c1.346,1.426,2.672,3.72,2.672,4.622c0,.274.634.873,1.408,1.33.961.567,1.486,1.219,1.653,2.053.135.673,1.021,2.045,1.971,3.05.949,1.005,2.121,2.782,2.605,3.948.546,1.317,1.241,2.286,1.834,2.557.56.255,1.291,1.222,1.766,2.337.446,1.047,1.33,2.313,1.964,2.815.635.501,1.569,1.744,2.077,2.762.866,1.739,1.731,2.766,4.008,4.761.525.459,1.305,1.279,1.734,1.821c1.026,1.298,1.644,1.505,6.38,2.138c5.368.718,5.914.98,7.682,3.691c1.527,2.339,2.772,3.715,3.363,3.715.177,0,.633.876,1.014,1.947.557,1.569.948,2.039,2.015,2.425.931.337,1.39.797,1.549,1.553.388,1.846,1.27,3.075,2.208,3.075c1.435,0,1.833-1.104.883-2.447-.448-.634-.941-1.738-1.096-2.453-.179-.827-.525-1.305-.95-1.313-1.101-.021-1.891-.88-2.654-2.887-.489-1.286-.953-1.9-1.436-1.9-2.286,0-2.772-2.775-1.011-5.78c1.546-2.638,2.954-3.134,11.918-4.204c2.01-.239,2.999-.584,3.931-1.368c1.658-1.395,1.74-1.383,5.784.86l2,1.11.298,2.591c.288,2.503.952,6.837,1.333,8.691.196.957,1.13,1.21,1.609.436.4-.648.212-4.62-.44-9.267-.775-5.528-.047-6.757,4.299-7.248c1.321-.15,2.875-.609,3.452-1.021c2.126-1.518,6.037-2.033,23.049-3.035c2.42-.142,4.58-.388,4.8-.546c3.96-2.841,45.853-3.154,55.2-.412c1.892.555,6.119.968,16.2,1.581c7.746.472,11.914,1.212,13.604,2.415.553.394,2.04.845,3.306,1.003c1.265.158,2.399.446,2.519.641.12.194.555.353.966.353c1.62,0,2.464,1.895,2.17,4.872-.428,4.346,1.32,5.62,2.234,1.628c1.212-5.299,4.211-7.2,7.105-4.504.578.539,2.151.924,5.746,1.406c4.709.632,5.504.822,7.682,1.829c2.308,1.068,3.144,5.458,1.535,8.061-.477.771-.867,1.786-.867,2.255c0,.645-.246.853-1.006.853-1.011,0-1.184.252-2.543,3.7-.305.774-.718,1.1-1.394,1.1-.716,0-1.084.33-1.449,1.3-.944,2.51-1.355,3.108-2.676,3.887-.743.439-1.332,1.112-1.332,1.523c0,.405-.264,1.086-.587,1.514-.96,1.268-.793,2.976.291,2.976c1.033,0,2.004-1.258,2.296-2.975.147-.863.617-1.394,1.769-2c1.23-.646,1.665-1.172,2.008-2.425.356-1.3.681-1.672,1.73-1.983.711-.21,1.293-.624,1.293-.919s.36-1.282.8-2.192c.44-.911.8-2.072.8-2.581c0-.753.215-.925,1.154-.925c1.221,0,2.446-1.767,2.446-3.527c0-.588.489-.994,1.8-1.494.99-.378,1.8-.852,1.8-1.052c0-1.11,2.175-2.327,4.159-2.327c1.799,0,7.386-.936,7.602-1.273.045-.07.383-.611.753-1.202.369-.591,1.17-1.311,1.779-1.6s1.405-1.123,1.77-1.853c.843-1.688,1.911-2.872,2.591-2.872.292,0,.645-.495.786-1.1.338-1.459,1.995-4.332,2.873-4.982.903-.667,2.087-2.523,2.087-3.27c0-.32.72-1.151,1.6-1.848s1.6-1.494,1.6-1.772c0-.979,1.188-2.868,2.337-3.718.64-.474,1.283-1.337,1.429-1.919.4-1.59,2.205-4.258,3.028-4.473.417-.11,1.019-.982,1.416-2.054.381-1.025,1.283-2.494,2.005-3.264c3.444-3.671,3.587-18.67.215-22.495-5.169-5.863-6.558-6.971-9.105-7.259-1.913-.216-2.735-.545-3.969-1.585-1.282-1.08-2.226-1.438-5.356-2.03-3.431-.649-5.138-1.379-6.656-2.845-.25-.242-2.23-.754-4.4-1.138-3.188-.564-4.239-.932-5.484-1.924-1.628-1.296-2.635-1.613-7.457-2.35-2.654-.406-4.87-1.373-5.628-2.457-.251-.359-4.434-1.516-5.495-1.519-1.432-.005-3.704-.87-4.879-1.858-1.304-1.098-2.663-1.498-7.294-2.15-2.108-.296-3.512-.778-5.107-1.753-2.136-1.305-3.414-1.626-9.8-2.456-1.1-.143-2.63-.578-3.4-.968s-1.94-.982-2.6-1.316-3-.816-5.2-1.071c-2.2-.254-5.362-.625-7.027-.824-3.002-.359-6.264-1.227-7.742-2.061-2.08-1.173-36.062-2.112-46.031-1.272M265.806,137.7c-.296,1.27-1.026,7.195-1.281,10.4-.308,3.868,1.396,4.178,2.198.4.558-2.626,1.234-10.449.968-11.2-.303-.857-1.66-.569-1.885.4m-124.952,6.658c-.828.525.379,13.008,1.35,13.98c1.284,1.284,1.818-2.981,1.015-8.105-.21-1.338-.491-3.288-.625-4.333-.24-1.874-.647-2.235-1.74-1.542m120.98,7.898c-.139.361-.429,2.206-.645,4.1s-.504,4.288-.64,5.32c-.464,3.517,1.363,5.887,2.023,2.624.518-2.559,1.303-10.776,1.12-11.728-.213-1.119-1.468-1.332-1.858-.316m-141.167.011c-.987.986,1.119,5.892,2.7,6.289.72.181,1.132.735,1.607,2.165.529,1.594.877,2.009,2.031,2.426.993.359,1.46.812,1.627,1.578.39,1.783,1.526,3.703,2.122,3.586c1.257-.249,1.445-1.397.529-3.231-.486-.972-.883-2.045-.883-2.385c0-.339-.528-.801-1.174-1.026-1.184-.413-2.091-1.739-2.577-3.769-.173-.721-.526-1.1-1.024-1.1-1.355,0-2.025-.466-2.025-1.41c0-2.015-1.957-4.099-2.933-3.123m23.895,7.542c-.515,2.05.885,12.558,1.716,12.876c1.465.562,1.799-2.03.963-7.477-.22-1.435-.51-3.463-.645-4.508-.283-2.191-1.567-2.753-2.034-.891m132.429,2.764c-.545,1.874-.794,2.208-1.815,2.432-1.25.275-1.976,1.212-1.976,2.55c0,.46-.685,1.358-1.595,2.089-2.767,2.223-4.307,6.756-2.296,6.756.973,0,2.151-1.772,2.372-3.566.086-.698.501-1.095,1.492-1.427c1.431-.48,1.704-.815,2.281-2.807.226-.779.8-1.411,1.638-1.8.71-.33,1.295-.791,1.299-1.025.005-.234.369-1.17.809-2.081c1.173-2.428,1.071-3.294-.389-3.294-1.095,0-1.239.171-1.82,2.173m-19.112,3.964c-.113.296-.318,1.601-.455,2.9-.874,8.28-1.476,10.963-2.458,10.963-.693,0-1.193.995-1.508,3-.571,3.634-1.049,4.637-2.503,5.245-3.429,1.432-5.901,4.683-6.308,8.295-.188,1.67-.62,2.857-1.508,4.149-1.382,2.008-1.748,3.231-2.362,7.879-.379,2.866-1.418,5.318-2.441,5.758-.161.07-.577,1.51-.923,3.2-.346,1.691-.761,3.701-.921,4.468-.205.979-.687,1.633-1.62,2.2-.731.443-2.057,1.473-2.947,2.288-1.188,1.088-2.112,1.553-3.472,1.747-3.673.522-6.071,1.348-7.688,2.648l-1.647,1.323h-15.459c-16.625,0-16.982-.033-18.952-1.753-1.016-.888-2.128-1.3-4.998-1.851-4.518-.869-8.64-3.756-9.136-6.399-.146-.779-.596-1.648-1.001-1.931-1.235-.866-1.738-2.543-2.763-9.225-.28-1.826-.682-2.984-1.188-3.423-1.253-1.087-2.275-4.506-3.013-10.085-.136-1.027-.539-2.107-.896-2.4-.99-.813-2.912-3.997-2.912-4.824c0-.404-.315-.833-.7-.953-4.478-1.4-6.063-3.975-7.114-11.556-.754-5.441-.652-5.16-1.756-4.81-.753.239-.83.575-.83,3.613c0,1.843-.18,3.461-.4,3.597s-.4.569-.4.962c0,2.682-1.796,2.339-3.804-.728-.878-1.34-1.903-2.536-2.278-2.657-1.08-.348-2.718-2.541-2.718-3.64c0-.797-.327-1.13-1.6-1.63-1.243-.488-1.6-.841-1.6-1.582c0-2.157-2.787-4.066-3.443-2.358-.399,1.041,1.873,5.192,3.197,5.838.85.415,1.323,1.018,1.568,1.995.453,1.811.877,2.292,2.293,2.603.949.209,1.209.522,1.433,1.726.333,1.793,1.179,3.162,2.145,3.469.396.126.828.538.959.915.131.378.588,1.227,1.014,1.887.427.66.789,1.521.805,1.913.016.393.5,1.643,1.075,2.779.863,1.702,1.006,2.41.814,4.031-.15,1.269-.036,2.439.322,3.296.305.731.755,3.324.999,5.764.595,5.95,1.068,8.274,1.945,9.549c1.219,1.772,1.634,3.279,2.061,7.468.629,6.184,1.034,8.161,1.915,9.353.447.604,1.128,2.077,1.513,3.273c1.249,3.874,1.271,3.908,2.97,4.417.891.267,2.299,1.066,3.128,1.775.958.82,2.451,1.537,4.097,1.969c3.003.787,4.428,1.487,5.783,2.842.534.534,1.26.971,1.614.971.353,0,1.609.457,2.79,1.016c3.917,1.853,3.803,1.132,3.803,24.032v19.595L179,292.8c-.77.746-1.4,1.598-1.4,1.893c0,.714-1.21,2.577-2.102,3.236-.393.29-1.457,1.55-2.365,2.8-.907,1.249-2.029,2.631-2.494,3.071-2.024,1.918-1.99,1.422-1.682,24.495.329,24.553.377,25.162,2.144,26.813.689.644,1.364,1.611,1.499,2.149.454,1.808,8.173,3.409,9.894,2.052.278-.219,1.023-.522,1.654-.674c2.314-.553,3.453-3.809,3.451-9.861-.001-3.465.226-8.169,1.183-24.503.263-4.489.502-6.1.983-6.632.349-.386.643-.958.653-1.27.039-1.268,1.169-3.686,2.013-4.308c1.267-.932,2.868-2.54,3.545-3.56.317-.477,1.075-1.074,1.685-1.326.61-.253,1.565-1.058,2.123-1.79c1.557-2.041,5.016-1.805,5.016.343c0,.26.765.84,1.7,1.29c1.171.563,1.919,1.278,2.403,2.299.387.816.927,1.484,1.2,1.485.948.004,2.599,1.807,3.274,3.575.373.977.999,2.237,1.392,2.8.849,1.217,1.487,10.364,1.878,26.927.134,5.668.403,10.403.598,10.524s.361.524.368.896c.012.668,1.707,2.876,2.207,2.876.143,0,.88.294,1.638.654c2.818,1.338,10.142.248,10.142-1.509c0-.364.674-1.254,1.499-1.978l1.498-1.316.296-8.425c.162-4.635.342-15.356.401-23.826.118-17.145.161-16.816-2.58-19.641-.872-.899-1.842-2.247-2.156-2.997-.313-.749-.719-1.362-.902-1.362-.581,0-1.856-1.358-2.365-2.519-.879-2.004-.687-44.086.21-45.881.779-1.559,2.562-2.584,5.198-2.988c1.07-.164,1.849-.542,2.105-1.02.568-1.06,4.528-2.792,6.386-2.792.738,0,1.422-.343,1.904-.957.414-.526,1.732-1.554,2.929-2.285c4.103-2.503,4.803-3.668,5.389-8.958.355-3.207,1.329-6.571,2.162-7.464.775-.832,1.483-4.285,1.833-8.936.303-4.034,1.685-8.6,2.601-8.6.539,0,1.174-5.038,1.307-10.368l.144-5.768l1.874-1.632c1.218-1.061,1.872-1.953,1.87-2.55-.003-.998,1.631-2.882,2.5-2.882.296,0,.863-.9,1.258-2c.396-1.1.894-2,1.107-2s.33-.405.26-.9c-.28-1.971-2.413-1.194-3.27,1.191-.806,2.242-1.75,2.755-4.495,2.442L259.4,181l.126-7.5c.121-7.222.097-7.5-.657-7.5-.431,0-.876.242-.99.537M258.8,182c0,.22-.371.4-.824.4s-.712-.18-.576-.4.507-.4.824-.4.576.18.576.4M197,189.199c-.44.189-1.285.448-1.879.575-.598.128-1.375.733-1.745,1.359-.366.62-1.411,1.474-2.321,1.897-1.179.549-1.771,1.127-2.057,2.013-.221.683-1.044,1.954-1.83,2.824-2.254,2.494-2.834,7.41-1.741,14.745.183,1.227.519,1.772,1.407,2.281.641.369,1.365,1.173,1.609,1.788.774,1.957,1.016,2.309,1.894,2.755c1.256.637,2.463,1.813,2.463,2.399c0,.551.335.679,3.4,1.305c4.772.975,6.116,1.061,9.8.624c5.266-.624,7.218-1.307,8.2-2.872.44-.701,1.546-1.645,2.458-2.099c1.353-.672,1.708-1.088,1.928-2.258.148-.788.422-1.726.609-2.084c1.467-2.81,1.895-9.526.829-13.028-.205-.673-.574-1.997-.82-2.943-.663-2.546-7.206-8.686-9.93-9.318-1.899-.442-11.228-.414-12.274.037"
       fill="#e3dada"
       fill-rule="evenodd"
       id="path25226"
       style="fill:#fffeff;fill-opacity:1" />
    <path
       d="M158,0.976v.976l-7.568.124c-8.401.138-8.015.032-8.318,2.291L141.895,6h-5.468C130.32,6,130,6.124,130,8.48v1.52h-4.774c-5.974,0-6.729.255-7.07,2.388L117.898,14h-3.321c-3.81,0-4.577.441-4.577,2.629v1.371h-3.371c-3.843,0-4.629.436-4.629,2.569v1.312l-3.248.251c-3.671.283-4.255.599-4.429,2.398-.117,1.21-.218,1.28-2.123,1.47l-2,.2-.122,1.9-.122,1.9h-3.349C82.773,30,82,30.438,82,32.607c0,1.326-.033,1.351-1.9,1.471l-1.9.122-.12,1.853-.12,1.854-2.28.17c-3.04.227-4.561,1.009-5.01,2.576-.319,1.114-.556,1.275-2.134,1.453-2.16.243-2.151.235-2.422,2.261C65.908,45.903,65.816,46,64.576,46C62.883,46,62,46.901,62,48.629C62,49.95,61.944,50,60.48,50c-1.916,0-2.48.564-2.48,2.48c0,1.493-.027,1.52-1.52,1.52-1.916,0-2.48.564-2.48,2.48c0,1.493-.027,1.52-1.52,1.52-1.916,0-2.48.564-2.48,2.48c0,1.464-.05,1.52-1.371,1.52C46.886,62,46,62.886,46,64.629C46,65.886,45.9,66,44.8,66c-1.63,0-2.8,1.253-2.8,3c0,1.196-.135,1.4-.924,1.4-2.003,0-3.044,1.997-3.066,5.878L38,77.956l-1.9.122-1.9.122-.122,1.9c-.12,1.867-.145,1.9-1.471,1.9C30.624,82,30,82.85,30,85.554c0,2.455-1.148,4.181-3,4.511-.644.114-.824.508-.921,2.019-.12,1.858-.139,1.881-1.798,2.209-1.923.38-2.152.915-2.234,5.207L22,102h-1.371c-2.195,0-2.629.763-2.629,4.629v3.371h-1.371c-2.188,0-2.629.767-2.629,4.577v3.321l-1.612.258c-2.133.341-2.388,1.096-2.388,7.07v4.774h-1.52c-2.356,0-2.48.32-2.48,6.427v5.468l-1.633.219c-2.259.303-2.153-.083-2.291,8.318L1.952,158h-.976-.976v42v42h.976.976l.124,7.568c.138,8.401.032,8.015,2.291,8.318L6,258.105v5.319C6,269.407,6.237,270,8.629,270h1.371v4.774c0,5.974.255,6.729,2.388,7.07l1.612.258v3.321c0,3.81.441,4.577,2.629,4.577h1.371v3.371c0,3.866.434,4.629,2.629,4.629h1.371l.047,2.3c.088,4.284.447,4.979,2.831,5.478.964.202,1.091.427,1.2,2.124L26.2,309.8l1.9.122l1.9.122v3.349c0,3.834.438,4.607,2.607,4.607c1.326,0,1.351.033,1.471,1.9l.122,1.9l1.9.122l1.9.122.031,1.878c.056,3.433.781,5.026,2.48,5.449c1.17.291,1.489.564,1.489,1.274c0,1.991.7,2.93,2.388,3.199c1.505.241,1.612.346,1.612,1.579c0,1.694.901,2.577,2.629,2.577c1.321,0,1.371.056,1.371,1.52c0,1.916.564,2.48,2.48,2.48c1.493,0,1.52.027,1.52,1.52c0,1.916.564,2.48,2.48,2.48c1.493,0,1.52.027,1.52,1.52c0,1.916.564,2.48,2.48,2.48c1.464,0,1.52.05,1.52,1.371c0,1.728.883,2.629,2.576,2.629c1.24,0,1.332.097,1.538,1.633.271,2.025.263,2.018,2.414,2.26c1.512.17,1.847.38,2.32,1.453.692,1.571,2.753,2.609,5.23,2.635l1.878.019.122,1.9.122,1.9l1.9.122c1.867.12,1.9.145,1.9,1.471c0,2.169.773,2.607,4.607,2.607h3.349l.122,1.9.122,1.9l1.881.121c1.861.12,1.884.138,2.212,1.798.38,1.923.915,2.152,5.207,2.234L102,378v1.371c0,2.188.768,2.629,4.576,2.629h3.319l.219,1.633c.291,2.175.239,2.147,4.274,2.305l3.522.138.252,1.575c.334,2.089,1.116,2.349,7.064,2.349h4.774v1.371c0,2.396.588,2.629,6.629,2.629h5.371v1.2c0,2.556.768,2.8,8.8,2.8h7.2v1v1h42h42v-1-1h7.371c8.234,0,8.629-.12,8.629-2.629v-1.371h5.371c6.041,0,6.629-.233,6.629-2.629v-1.371h4.774c5.948,0,6.73-.26,7.064-2.349l.252-1.575l3.522-.138c4.035-.158,3.983-.13,4.274-2.305l.219-1.633h3.319c3.808,0,4.576-.441,4.576-2.629v-1.371l2.3-.047c4.284-.088,4.979-.447,5.478-2.831.202-.964.427-1.091,2.124-1.2l1.898-.122.122-1.9.122-1.9h3.349c3.834,0,4.607-.438,4.607-2.607c0-1.326.033-1.351,1.9-1.471l1.9-.122.122-1.9.122-1.9l1.878-.031c3.433-.056,5.026-.781,5.449-2.48.334-1.346.498-1.489,1.7-1.489c1.673,0,2.929-1.2,2.929-2.8c0-1.1.114-1.2,1.371-1.2c1.743,0,2.629-.886,2.629-2.629c0-1.321.056-1.371,1.52-1.371c1.916,0,2.48-.564,2.48-2.48c0-1.493.027-1.52,1.52-1.52c1.916,0,2.48-.564,2.48-2.48c0-1.493.027-1.52,1.52-1.52c1.916,0,2.48-.564,2.48-2.48c0-1.464.05-1.52,1.371-1.52c1.728,0,2.629-.883,2.629-2.576c0-1.24.097-1.332,1.633-1.538c2.026-.271,2.018-.262,2.261-2.422.178-1.578.339-1.815,1.453-2.134c1.567-.449,2.349-1.97,2.576-5.01l.17-2.28l1.854-.12l1.853-.12.122-1.9c.12-1.867.145-1.9,1.471-1.9c2.169,0,2.607-.773,2.607-4.607v-3.349l1.9-.122l1.9-.122.121-1.881c.12-1.861.138-1.884,1.798-2.212c1.923-.38,2.152-.915,2.234-5.207L378,298h1.371c2.195,0,2.629-.763,2.629-4.629v-3.371h1.371c2.188,0,2.629-.767,2.629-4.577v-3.321l1.612-.258c2.133-.341,2.388-1.096,2.388-7.07v-4.774h1.371c2.392,0,2.629-.593,2.629-6.576v-5.319l1.633-.219c2.259-.303,2.153.083,2.291-8.318l.124-7.568h.976.976v-42-42h-.976-.976l-.124-7.568c-.138-8.401-.032-8.015-2.291-8.318L394,141.895v-5.468c0-6.107-.124-6.427-2.48-6.427h-1.52v-4.774c0-5.974-.255-6.729-2.388-7.07L386,117.898v-3.321c0-3.81-.441-4.577-2.629-4.577h-1.371v-3.371c0-3.866-.434-4.629-2.629-4.629h-1.371l-.047-2.5c-.082-4.292-.311-4.827-2.234-5.207-1.66-.328-1.678-.351-1.798-2.212L373.8,90.2l-1.9-.122-1.9-.122v-3.349c0-3.834-.438-4.607-2.607-4.607-1.326,0-1.351-.033-1.471-1.9l-.122-1.9-1.9-.122-1.9-.122-.031-1.878c-.055-3.398-.785-5.027-2.435-5.437-1.338-.334-1.458-.488-1.642-2.12-.241-2.143-.234-2.136-2.259-2.407-1.536-.206-1.633-.298-1.633-1.538c0-1.693-.901-2.576-2.629-2.576-1.321,0-1.371-.056-1.371-1.52c0-1.916-.564-2.48-2.48-2.48-1.493,0-1.52-.027-1.52-1.52c0-1.916-.564-2.48-2.48-2.48-1.493,0-1.52-.027-1.52-1.52c0-1.916-.564-2.48-2.48-2.48-1.464,0-1.52-.05-1.52-1.371c0-1.728-.883-2.629-2.576-2.629-1.24,0-1.332-.097-1.538-1.633-.271-2.025-.264-2.018-2.407-2.259-1.632-.184-1.786-.304-2.12-1.642-.41-1.65-2.039-2.38-5.437-2.435L322.044,38l-.122-1.9-.122-1.9-1.9-.122c-1.867-.12-1.9-.145-1.9-1.471c0-1.983-.85-2.607-3.554-2.607-2.455,0-4.181-1.148-4.511-3-.114-.644-.508-.824-2.019-.921-1.858-.12-1.881-.139-2.209-1.798-.38-1.923-.915-2.152-5.207-2.234L298,22v-1.371c0-2.195-.763-2.629-4.629-2.629L290,18v-1.371c0-2.188-.767-2.629-4.577-2.629h-3.321l-.258-1.612c-.341-2.133-1.096-2.388-7.07-2.388L270,10v-1.52c0-2.359-.316-2.48-6.48-2.48L258,6v-1.371C258,2.12,257.605,2,249.371,2L242,2v-1-1h-42-42v.976m51.6,32.453c1.87.337,5.83.774,8.8.971s8.46.559,12.2.805c3.74.245,7.43.635,8.2.865c1.928.577,4,1.593,4,1.961c0,.168,1.215.417,2.7.553c8.659.793,12.034,1.557,13.292,3.006.375.433,1.454.842,2.623.994c7.373.96,9.73,1.631,10.726,3.053.459.655,1.216.92,3.327,1.16c1.502.172,3.227.423,3.832.558s1.532.334,2.059.442c.527.109,1.714.829,2.638,1.6c1.187.992,2.072,1.403,3.021,1.403c2.718,0,7.646,1.628,8.464,2.795.334.477,1.231.851,2.424,1.009c5.375.713,8.07,1.599,9.363,3.081.434.496,1.562.899,3.2,1.142c4.797.713,7.162,1.51,7.993,2.697.387.553,1.569.97,4.14,1.46c4.135.788,5.755,1.426,6.586,2.591.324.454.813.825,1.086.825c1.892,0,6.126,2.311,6.126,3.344c0,.22.892,1.223,1.982,2.228c1.774,1.637,2.065,2.153,2.784,4.945.442,1.714,1.138,3.604,1.547,4.2c1.925,2.806,1.889,8.57-.071,11.46-.573.844-1.042,1.872-1.042,2.285c0,2.247-1.324,5.407-2.644,6.312-.746.511-1.356,1.183-1.356,1.493c0,.98-1.517,3.587-2.782,4.781-.67.632-1.218,1.375-1.218,1.651c0,.275-.157.501-.35.501-.192,0-.457.535-.588,1.188-.151.759-.736,1.515-1.616,2.092-.906.594-1.559,1.455-1.904,2.512-.29.884-1.203,2.346-2.03,3.249-.828.902-1.879,2.487-2.336,3.521-.495,1.117-1.239,2.066-1.834,2.337-1.019.465-2.142,2.174-2.142,3.261c0,.33-.623,1.074-1.384,1.655-.762.581-1.505,1.434-1.652,1.897-.737,2.324-6.148,6.288-8.584,6.288-.395,0-1.253.45-1.907,1-.845.711-1.663,1-2.829,1-1.861,0-6.23,2.75-6.672,4.2-.404,1.324-2.726,4.591-3.422,4.814-.357.114-.954,1.006-1.327,1.981-.444,1.163-1.139,2.059-2.022,2.604-.829.512-1.44,1.269-1.595,1.974-.138.628-.978,1.927-1.867,2.885s-2.059,2.611-2.6,3.674c-.548,1.074-1.512,2.228-2.173,2.6-.654.367-1.3,1.118-1.436,1.668-.358,1.452-1.685,3.203-2.727,3.599-.593.225-.989.8-1.154,1.672-.147.774-1.012,2.164-2.074,3.329-1.002,1.1-2.288,2.851-2.858,3.892-.569,1.04-1.386,2.003-1.815,2.139-.441.14-1.128,1.087-1.583,2.183-.591,1.42-1.166,2.107-2.162,2.58-.757.359-1.358.945-1.359,1.325-.002.374-.296,1.221-.655,1.881s-.928,1.74-1.266,2.4-.807,1.328-1.042,1.483c-.236.156-.545,1.776-.688,3.6-.143,1.825-.375,4.757-.515,6.517-.529,6.634-1.207,9.358-3.251,13.058-.321.581-.683,2.471-.804,4.2-.461,6.607-1.427,10.57-2.983,12.241-.437.468-.794,1.285-.794,1.815c0,2.867-1.974,6.886-3.382,6.886-.252,0-1.217.796-2.144,1.768-1.281,1.344-2.143,1.866-3.594,2.178-2.771.594-3.716,1.028-5.246,2.409-.751.678-2.01,1.338-2.8,1.465-7.316,1.184-7.009.228-7.16,22.309-.153,22.473-.104,23.14,1.757,24.29.754.466,1.481,1.287,1.616,1.825s1.011,1.605,1.947,2.372c1.11.91,1.948,2.053,2.412,3.289.391,1.042,1.269,2.975,1.952,4.295c1.653,3.195,1.554,9.897-.345,23.2-.345,2.42-.796,8.63-1.001,13.8-.41,10.309-.795,12.925-2.127,14.437-1.32,1.498-3.542,3.065-4.785,3.375-.605.151-1.1.402-1.1.558c0,1.976-6.715,2.285-8.417.387-.339-.378-1.535-1.089-2.658-1.579-2.192-.957-3.388-2.537-3.92-5.178-.156-.77-.643-2.026-1.084-2.792-.999-1.733-1.451-7.392-1.903-23.808-.342-12.444-.726-15.193-2.184-15.648-1.006-.314-3.032-2.346-3.039-3.048-.005-.575-4.337-2.721-4.608-2.283-.097.157-.995.671-1.995,1.141-1.02.479-1.969,1.253-2.163,1.763-.373.98-1.222,1.798-2.554,2.462-1.883.939-2.137,2.981-2.444,19.658-.294,15.942-.48,17.842-2.047,20.955-1.084,2.154-1.644,3.48-1.992,4.721-.174.619-.987,1.253-2.483,1.938-1.223.559-2.562,1.332-2.976,1.717-2.155,2.008-5.773,1.861-8.294-.338-.529-.461-1.189-.838-1.468-.838-4.093,0-6.536-5.555-6.596-15-.059-9.261-.623-18.719-1.335-22.4-1.223-6.321-1.296-14.563-.143-16.234.544-.789,1.108-2.066,1.253-2.838.406-2.168,1.786-4.716,2.804-5.18.505-.23,1.436-1.303,2.067-2.383.631-1.081,1.351-1.965,1.601-1.965.764,0,1.608-1.296,2.309-3.546c1.015-3.255.973-37.275-.049-40.223l-.682-1.969-2.949-.831c-2.095-.59-3.33-1.207-4.266-2.131-.724-.715-1.605-1.3-1.957-1.3-2.095,0-5.557-1.422-6.513-2.676-.556-.728-1.186-1.324-1.401-1.324-.852,0-2.64-1.652-2.898-2.678-.15-.597-.621-1.33-1.047-1.628-1.595-1.118-2.081-2.773-2.764-9.409-.304-2.965-.595-4.122-1.194-4.766-1.283-1.377-2.066-5.003-3.017-13.968-.138-1.303-.533-2.564-.938-3-1.255-1.348-2.082-4.803-2.268-9.477-.155-3.905-.631-7.347-1.053-7.627-.074-.049-.586-.37-1.136-.713-.551-.343-1.425-1.471-1.942-2.506-.518-1.036-1.711-2.676-2.652-3.645-1.077-1.107-1.81-2.284-1.976-3.172-.146-.776-.482-1.417-.747-1.424-.853-.024-2.067-1.341-2.846-3.087-.416-.935-.903-1.7-1.081-1.7-.591,0-2-1.775-2.907-3.661-.491-1.024-1.456-2.334-2.142-2.911-.687-.578-1.544-1.824-1.905-2.769-.397-1.04-1.115-1.99-1.817-2.405-.646-.381-1.504-1.461-1.935-2.435-.425-.963-1.128-1.94-1.562-2.172-.843-.451-3.287-4.008-3.287-4.783c0-.256-.718-1.115-1.596-1.908-.94-.849-1.76-2.041-1.994-2.899-.255-.936-.804-1.687-1.534-2.098-.625-.353-1.5-1.343-1.944-2.2-.471-.91-1.208-1.672-1.77-1.831-3.612-1.021-4.674-1.395-6.284-2.21-.998-.505-2.098-.921-2.446-.924-2.279-.021-4.625-1.424-5.841-3.494-.42-.715-1.045-1.3-1.388-1.3-.782,0-1.661-1.008-2.367-2.714-.3-.722-.941-1.626-1.427-2.007-1.191-.937-2.979-3.829-3.271-5.291-.131-.653-.485-1.188-.788-1.188-.602,0-2.15-1.396-2.15-1.939c0-.771-1.316-2.895-2.03-3.277-.896-.48-3.161-4.259-3.166-5.284-.002-.385-.139-.7-.304-.7-.988-.002-2.905-2.562-3.489-4.66-.132-.473-.661-.966-1.176-1.095-.871-.219-3.035-3.757-3.035-4.962c0-.241-.318-.673-.707-.96-3.89-2.877-4.406-20.841-.714-24.872.691-.755,1.451-1.8,1.69-2.322c1.055-2.316,4.613-5.129,6.486-5.129.22,0,.635-.318.922-.707c1.16-1.569,2.852-2.16,8.905-3.111.87-.137,1.875-.587,2.234-1c.988-1.14,4.636-2.355,8.878-2.959c1.175-.168,2.095-.558,2.424-1.028.834-1.189,3.678-2.152,8.205-2.775c1.883-.26,2.744-.594,3.4-1.319c1.27-1.406,3.752-2.13,9.971-2.911c1.177-.147,2.088-.514,2.406-.969.863-1.232,3.594-2.094,9.56-3.016.803-.125,1.691-.505,1.973-.845c1.237-1.49,3.966-2.279,10.967-3.173c1.1-.14,2.36-.585,2.8-.989c1.614-1.481,4.72-2.181,13.314-3.001c1.652-.158,2.977-.554,3.864-1.156c2.229-1.513,8.011-2.265,21.822-2.837c5.294-.219,10.617-.801,13-1.42c2.033-.528,8.224-.4,11.8.245m-28.2,91.208c-10.957.265-19.901,1.002-22.2,1.827-4.111,1.476-6.551,1.967-11.751,2.362-2.856.218-5.43.592-5.719.832-.697.579-.278,4.585.617,5.902c1.665,2.449,2.025,3.357,2.264,5.714.484,4.773,1.392,8.877,2.146,9.708c1.302,1.434,1.571,2.347,2.253,7.638.587,4.559.829,5.444,2.017,7.38c1.074,1.749,1.438,2.896,1.777,5.6.807,6.443,1.054,7.598,1.824,8.498c1.252,1.463,1.775,2.612,2.027,4.451.22,1.604.373,1.789,2.091,2.518c1.195.507,2.066,1.204,2.45,1.96.327.645,1.186,1.713,1.907,2.373c1.173,1.072,1.381,1.604,1.949,4.982.589,3.498,1.171,5.015,2.428,6.331.578.606,1.309,3.068,1.332,4.487.039,2.416,1.17,6.164,2.359,7.82.99,1.378,1.308,2.307,1.502,4.382.261,2.789,1.266,4.198,2.997,4.198c1.057,0,3.784,1.443,4.054,2.145.228.594.471.662,5.276,1.474c1.54.261,3.301.626,3.914.811c2.232.677,7.581-.982,6.44-1.997-.195-.173-1.254-.557-2.354-.852-1.925-.516-6.6-4.453-6.6-5.557c0-.212-.6-.979-1.333-1.705-3.97-3.928-3.211-23.519.91-23.519.19,0,.525-.517.745-1.148.484-1.39,1.977-2.852,2.91-2.852.384,0,.786-.416.92-.952.292-1.163,2.176-2.114,5.328-2.692c1.276-.233,2.975-.769,3.774-1.19c2.011-1.059,6.062-1.062,7.195-.007.448.418,1.655.88,2.683,1.026c3.562.508,6.868,2.052,6.868,3.208c0,.296.862,1.069,1.915,1.717c1.683,1.035,2.05,1.524,3.035,4.034.616,1.571,1.385,3.004,1.708,3.184c2.277,1.275,2.402,12.856.168,15.641-.867,1.082-2.201,3.671-2.591,5.031-.126.44-.894,1.16-1.707,1.6-.812.44-1.77,1.335-2.129,1.989-.491.895-1.282,1.415-3.19,2.098-3.229,1.156-3.182,1.067-1.209,2.313c1.865,1.177,1.582,1.185,9.4-.257c2.926-.539,4.601-1.046,5-1.512.33-.386,1.676-1.295,2.99-2.021c3.18-1.754,4.561-3.286,4.83-5.355.764-5.883,1.724-9.165,3.007-10.278.424-.368.852-1.189.95-1.823.098-.635.396-2.594.661-4.354.499-3.317,1.593-6.084,2.55-6.451.304-.116.676-.944.827-1.84.682-4.033,3.018-6.502,6.785-7.172.695-.124.909-.801,1.627-5.14.958-5.786,1.558-7.796,2.533-8.496.762-.546,1.459-3.573,1.867-8.101.235-2.616,1.813-7,2.52-7c.393,0,1.165-3.969,1.461-7.512.258-3.089.83-4.86,2.098-6.488.761-.978,1.305-3.371,2.044-9c.203-1.54.497-3.202.654-3.693.409-1.277-1.011-1.737-6.708-2.172-3.536-.27-5.573-.662-8.2-1.579-5.92-2.065-37.809-3.249-67.896-2.519m-56.935,8.761c-1.394.277-3.014.844-3.6,1.26-.586.417-1.751,1.115-2.59,1.55-1.63.846-3.082,2.192-2.366,2.192.521,0,1.691,2.238,1.691,3.235c0,.391.397.837.881.991c1.183.375,1.604.852,2.632,2.974.479.99,1.37,2.134,1.979,2.542.609.409,1.456,1.489,1.881,2.4.425.912,1.382,2.307,2.127,3.1c1.398,1.488,2.5,3.301,2.5,4.113c0,.255.641.808,1.425,1.231.979.527,1.499,1.132,1.659,1.932.128.64.935,1.839,1.793,2.663.858.825,1.933,2.196,2.389,3.047s1.438,2.156,2.182,2.9c1.231,1.231,2.057,2.633,2.706,4.597.137.413.436.605.695.444.754-.465.216-7.161-.644-8.021-1.194-1.195-2.055-3.798-2.561-7.748-.753-5.871-.773-5.956-1.758-7.318-1.298-1.796-1.729-3.359-2.503-9.082-.574-4.239-.822-5.139-1.63-5.916-.524-.504-.953-1.147-.953-1.428c0-1.998-3.03-2.631-7.935-1.658m148.978.035c-.134.348-.249,1.383-.257,2.3-.028,3.196-1.179,6.873-2.813,8.979-.463.598-.794,1.975-.961,4-.4,4.86-1.768,10.088-2.64,10.088-.583,0-1.195,2.354-1.561,6-.21,2.09-.489,4.167-.621,4.616-.157.536.038,1.066.568,1.546.933.845,1.702.37,2.235-1.381.361-1.185,1.759-2.781,2.437-2.781.269,0,.813-.9,1.209-2c.395-1.1.856-2,1.024-2c.607,0,2.353-2.231,3.284-4.199.525-1.108,1.417-2.261,1.985-2.565.568-.303,1.332-1.201,1.7-1.994.793-1.714,2.113-3.242,2.8-3.242.271,0,.766-.803,1.1-1.783.335-.981,1.207-2.385,1.938-3.119.732-.735,1.688-2.047,2.126-2.917.949-1.886,2.177-3.381,2.778-3.381c1.983,0,1.296-2.527-.826-3.036-.631-.152-1.958-.821-2.948-1.488-2.919-1.964-11.979-3.15-12.557-1.643"
       fill="#2a78b0"
       fill-rule="evenodd"
       id="path25228"
       style="fill:#34bbdc;fill-opacity:1" />
    <path
       d="M193,35.624c-13.695.494-21.944,1.301-24.4,2.387-1.722.762-8.517,2.068-13.57,2.61-1.304.14-3.284.659-4.4,1.154-3.628,1.609-4.925,1.948-10.83,2.835-.88.132-2.86.834-4.4,1.559-1.54.726-4.24,1.644-6,2.041s-4.37,1.3-5.8,2.006c-1.454.718-4.187,1.591-6.2,1.979-1.98.382-4.86,1.292-6.4,2.023s-4.15,1.643-5.8,2.026-4.17,1.274-5.6,1.979c-1.43.706-3.86,1.585-5.4,1.955s-3.88,1.199-5.2,1.843c-2.401,1.172-5.311,2.053-8.495,2.571-.932.152-2.282.671-3,1.152-.718.482-2.482,1.435-3.921,2.117-2.951,1.4-4.118,2.592-7.285,7.434-3.135,4.794-3.247,16.768-.196,21.012.748,1.041,1.735,2.703,2.192,3.693s1.404,2.43,2.104,3.2c.699.77,1.624,2.083,2.054,2.917.429.835,1.239,1.915,1.798,2.4.56.486,1.353,1.603,1.762,2.483s1.563,2.589,2.565,3.797c1.002,1.209,1.822,2.423,1.822,2.699s.655,1.227,1.455,2.113c.801.886,1.836,2.307,2.3,3.158.465.851,1.515,2.304,2.333,3.229.818.924,1.693,2.249,1.945,2.942.251.694,1.239,1.862,2.196,2.596.956.734,1.835,1.638,1.953,2.008.117.371.889,1.005,1.716,1.41.826.405,1.779.875,2.118,1.043.339.169,1.599.433,2.8.588c2.322.298,4.737.973,5.364,1.499.209.175.664.318,1.011.318.715,0,1.543.878,2.989,3.169.548.868,1.249,1.725,1.557,1.905.308.179,1.219,1.361,2.024,2.626s1.63,2.3,1.834,2.3.86.855,1.457,1.9s1.887,2.89,2.867,4.1c.979,1.21,1.978,2.65,2.219,3.2s.935,1.428,1.542,1.952c.608.523,1.561,1.73,2.118,2.681.558.952,1.361,1.973,1.786,2.271.424.297,1.378,1.61,2.12,2.918s2.012,3.078,2.822,3.934c.811.856,1.474,1.815,1.474,2.131c0,.317.718,1.286,1.595,2.155.878.869,1.892,2.16,2.255,2.869.362.709,1.234,1.853,1.937,2.543.703.689,1.606,1.949,2.006,2.8.401.85,1.491,2.397,2.422,3.438c1.868,2.087,2.036,2.664,2.575,8.791.2,2.274.642,4.671.984,5.326s.622,1.585.624,2.067c.001.482.157.972.346,1.089s.469,1.163.622,2.324c.785,5.943,1.442,9.179,2.391,11.777c1.024,2.804,1.913,6.941,2.435,11.328.471,3.962,3.513,9.198,6.279,10.806.567.33,1.729,1.062,2.58,1.626.852.565,2.629,1.34,3.949,1.723c1.32.384,2.598.822,2.84.974s1.142.744,2,1.315s2.502,1.349,3.654,1.73c2.161.714,2.966,1.53,4.235,4.292.79,1.72,1.046,37.661.272,38.14-.22.135-.867,1.234-1.438,2.442-.571,1.207-1.787,2.983-2.701,3.945-4.506,4.743-6.662,8.133-6.662,10.472c0,.547-.203,1.372-.451,1.835-.333.623-.335,2.776-.007,8.274.243,4.088.652,13.912.908,21.832.255,7.92.575,14.706.709,15.08.714,1.99,4.548,5.798,6.17,6.127.699.142,1.841.455,2.538.694c2.752.946,10.133-2.033,10.133-4.091c0-.357.17-.821.377-1.03.416-.42,1.243-4.576,1.467-7.38.768-9.605,1.036-13.845,1.359-21.539.41-9.775,1.188-13.601,2.957-14.546.965-.515,3.04-2.644,3.04-3.119c0-.176.765-.77,1.7-1.32s2.136-1.466,2.668-2.036c.871-.933,1.032-.975,1.6-.426c1.252,1.209,2.652,2.273,3.732,2.834.605.315,1.1.71,1.1.879c0,.276,1.39,1.766,3.575,3.831c1.816,1.716,2.158,4.426,3.217,25.442.792,15.714,1.466,18.651,4.738,20.642c2.56,1.558,6.389,2.441,7.96,1.836.611-.236,1.721-.549,2.468-.698c1.435-.284,4.425-3.013,5.428-4.952.892-1.725,1.413-6.838,1.424-13.957.005-3.669.22-10.991.478-16.271.85-17.4.508-20.109-3.053-24.141-.708-.803-1.718-2.089-2.245-2.859-.526-.77-1.299-1.649-1.716-1.952-1.815-1.322-1.875-2.055-1.864-23.135.012-24.872-.19-23.772,4.643-25.267c1.557-.482,3.532-1.384,4.389-2.005s2.638-1.457,3.958-1.858c2.463-.749,3.82-1.451,5.171-2.675.423-.384,1.098-.803,1.5-.93.401-.128.729-.361.729-.519c0-.157.528-.599,1.174-.98c1.345-.795,2.561-3.621,3.024-7.033.16-1.185.795-3.375,1.41-4.867c1.042-2.525,1.487-4.495,2.388-10.579.434-2.93,1.027-5.089,1.975-7.2.976-2.172,2.029-8.744,2.029-12.665c0-3.195.931-7.535,1.616-7.535.198,0,1.015-1.025,1.816-2.278.802-1.252,1.884-2.612,2.405-3.022s1.247-1.378,1.614-2.151s1.144-1.888,1.727-2.477c.582-.59,1.738-2.195,2.567-3.568s1.825-2.723,2.213-3c.387-.277,1.211-1.373,1.83-2.436s1.467-2.143,1.884-2.4s1.277-1.368,1.91-2.468c.634-1.1,1.576-2.45,2.092-3c.517-.55,1.53-1.928,2.251-3.063s1.933-2.723,2.693-3.529s1.382-1.687,1.382-1.958.642-1.113,1.426-1.872c.785-.758,1.695-1.942,2.024-2.632s1.217-1.95,1.973-2.8c.757-.85,1.377-1.668,1.377-1.817c0-.15.225-.515.5-.813.275-.297.803-1.075,1.173-1.728s.985-1.368,1.366-1.588s1.405-1.075,2.275-1.9s1.786-1.506,2.034-1.512c1.706-.047,6.662-.868,7.652-1.268c1.762-.712,8.465-7.726,9.849-10.308.397-.74,1.282-1.978,1.966-2.751.685-.773,1.673-2.251,2.197-3.285.524-1.033,1.462-2.395,2.086-3.027s1.433-1.779,1.799-2.549s1.169-1.874,1.784-2.453c.616-.579,1.569-1.926,2.119-2.991.55-1.066,1.5-2.482,2.111-3.147s1.511-2.016,2-3.003c.489-.986,1.375-2.309,1.97-2.939c2.015-2.136,3.959-11.188,3.185-14.833-.238-1.119-.556-2.934-.708-4.034-.301-2.186-1.511-5.367-2.281-6-.267-.22-1.376-1.452-2.463-2.738-1.858-2.199-4.954-4.215-6.589-4.291-.344-.016-1.165-.368-1.825-.782-2.158-1.355-3.571-1.974-5.4-2.368-3.673-.79-4.182-.967-6.433-2.239-1.264-.715-3.079-1.423-4.033-1.573-3.083-.486-5.461-1.338-7.947-2.85-.777-.473-2.217-.991-3.2-1.151-3.315-.541-5.987-1.361-8.293-2.546-1.262-.648-3.617-1.483-5.235-1.856-1.617-.373-4.098-1.282-5.513-2.02-1.416-.738-3.422-1.458-4.46-1.602-2.732-.377-5.427-1.204-8.228-2.525-1.352-.637-3.268-1.281-4.258-1.43-2.42-.364-5.534-1.041-7-1.521-1.105-.363-1.838-.658-4.6-1.858-.55-.239-2.44-.617-4.2-.841-4.959-.629-7.41-1.079-9.8-1.797-4.139-1.244-6.602-1.733-10-1.986-1.87-.139-5.65-.42-8.4-.625-7.194-.536-18.624-.693-27.4-.377m31.031,1.742c3.208.298,6.178.737,6.6.975c1.478.834,4.74,1.702,7.742,2.061c1.665.199,4.827.57,7.027.824c2.2.255,4.54.737,5.2,1.071s1.83.926,2.6,1.316s2.3.825,3.4.968c6.386.83,7.664,1.151,9.8,2.456c1.595.975,2.999,1.457,5.107,1.753c4.631.652,5.99,1.052,7.294,2.15c1.175.988,3.447,1.853,4.879,1.858c1.061.003,5.244,1.16,5.495,1.519.758,1.084,2.974,2.051,5.628,2.457c4.822.737,5.829,1.054,7.457,2.35c1.245.992,2.296,1.36,5.484,1.924c2.17.384,4.15.896,4.4,1.138c1.518,1.466,3.225,2.196,6.656,2.845c3.13.592,4.074.95,5.356,2.03c1.234,1.04,2.056,1.369,3.969,1.585c2.547.288,3.936,1.396,9.105,7.259c3.372,3.825,3.229,18.824-.215,22.495-.722.77-1.624,2.239-2.005,3.264-.397,1.072-.999,1.944-1.416,2.054-.823.215-2.628,2.883-3.028,4.473-.146.582-.789,1.445-1.429,1.919-1.149.85-2.337,2.739-2.337,3.718c0,.278-.72,1.075-1.6,1.772s-1.6,1.528-1.6,1.848c0,.747-1.184,2.603-2.087,3.27-.878.65-2.535,3.523-2.873,4.982-.141.605-.494,1.1-.786,1.1-.68,0-1.748,1.184-2.591,2.872-.365.73-1.161,1.564-1.77,1.853s-1.41,1.009-1.779,1.6c-.37.591-.708,1.132-.753,1.202-.216.337-5.803,1.273-7.602,1.273-1.984,0-4.159,1.217-4.159,2.327c0,.2-.81.674-1.8,1.052-1.311.5-1.8.906-1.8,1.494c0,1.76-1.225,3.527-2.446,3.527-.939,0-1.154.172-1.154.925c0,.509-.36,1.67-.8,2.581-.44.91-.8,1.897-.8,2.192s-.582.709-1.293.919c-1.049.311-1.374.683-1.73,1.983-.343,1.253-.778,1.779-2.008,2.425-1.152.606-1.622,1.137-1.769,2-.292,1.717-1.263,2.975-2.296,2.975-1.084,0-1.251-1.708-.291-2.976.323-.428.587-1.109.587-1.514c0-.411.589-1.084,1.332-1.523c1.321-.779,1.732-1.377,2.676-3.887.365-.97.733-1.3,1.449-1.3.676,0,1.089-.326,1.394-1.1c1.359-3.448,1.532-3.7,2.543-3.7.76,0,1.006-.208,1.006-.853c0-.469.39-1.484.867-2.255c1.609-2.603.773-6.993-1.535-8.061-2.178-1.007-2.973-1.197-7.682-1.829-3.595-.482-5.168-.867-5.746-1.406-2.894-2.696-5.893-.795-7.105,4.504-.914,3.992-2.662,2.718-2.234-1.628.294-2.977-.55-4.872-2.17-4.872-.411,0-.846-.159-.966-.353-.12-.195-1.254-.483-2.519-.641-1.266-.158-2.753-.609-3.306-1.003-1.69-1.203-5.858-1.943-13.604-2.415-10.081-.613-14.308-1.026-16.2-1.581-9.347-2.742-51.24-2.429-55.2.412-.22.158-2.38.404-4.8.546-17.012,1.002-20.923,1.517-23.049,3.035-.577.412-2.131.871-3.452,1.021-4.346.491-5.074,1.72-4.299,7.248.652,4.647.84,8.619.44,9.267-.479.774-1.413.521-1.609-.436-.381-1.854-1.045-6.188-1.333-8.691l-.298-2.591-2-1.11c-4.044-2.243-4.126-2.255-5.784-.86-.932.784-1.921,1.129-3.931,1.368-8.964,1.07-10.372,1.566-11.918,4.204-1.761,3.005-1.275,5.78,1.011,5.78.483,0,.947.614,1.436,1.9.763,2.007,1.553,2.866,2.654,2.887.425.008.771.486.95,1.313.155.715.648,1.819,1.096,2.453.95,1.343.552,2.447-.883,2.447-.938,0-1.82-1.229-2.208-3.075-.159-.756-.618-1.216-1.549-1.553-1.067-.386-1.458-.856-2.015-2.425-.381-1.071-.837-1.947-1.014-1.947-.591,0-1.836-1.376-3.363-3.715-1.768-2.711-2.314-2.973-7.682-3.691-4.736-.633-5.354-.84-6.38-2.138-.429-.542-1.209-1.362-1.734-1.821-2.277-1.995-3.142-3.022-4.008-4.761-.508-1.018-1.442-2.261-2.077-2.762-.634-.502-1.518-1.768-1.964-2.815-.475-1.115-1.206-2.082-1.766-2.337-.593-.271-1.288-1.24-1.834-2.557-.484-1.166-1.656-2.943-2.605-3.948-.95-1.005-1.836-2.377-1.971-3.05-.167-.834-.692-1.486-1.653-2.053-.774-.457-1.408-1.056-1.408-1.33c0-.902-1.326-3.196-2.672-4.622-.726-.77-1.323-1.625-1.325-1.9-.001-.275-.163-.5-.358-.5-.196,0-.468-.598-.605-1.33-.24-1.279-1.341-2.835-2.213-3.129-2.15-.724-1.679-14.596.581-17.097.734-.813,1.456-1.959,1.603-2.546.255-1.017,1.986-3.098,2.576-3.098.153,0,.519-.45.813-1s.775-1,1.068-1c.292,0,.532-.157.532-.349s.746-.468,1.658-.614c1.513-.242,3.953-1.564,4.273-2.315.184-.433,2.54-1.003,6.168-1.494c3.194-.432,4.166-.813,5.829-2.284.881-.779,2.645-1.269,7.055-1.963.871-.136,2.491-.837,3.6-1.557c2.04-1.324,4.098-1.991,7.465-2.421c1.048-.134,2.693-.775,3.8-1.48c2.211-1.409,3.523-1.807,7.656-2.323c2.252-.281,3.373-.669,5-1.732c2.045-1.338,4.053-1.954,8.077-2.482c1.227-.161,2.655-.723,3.751-1.477c2.002-1.377,3.242-1.717,8.401-2.301c3.778-.428,5.066-.824,7.026-2.158c1.344-.914,3.43-1.302,9.952-1.849c5.281-.443,7.7-.928,10.188-2.043c1.468-.658,4.69-1.148,11.101-1.689c4.898-.413,34.161-.193,39.431.297M218.8,122.341c3.85.247,7.45.544,8,.661s3.52.384,6.6.594c12.466.849,16.903,1.282,19,1.854c5.608,1.532,8.162,2.15,8.875,2.15c1.159,0,4.847,1.275,5.468,1.89.532.528.155,2.247-.77,3.51-.346.472-1.264,4.288-2.136,8.872-.343,1.8-1.05,4.23-1.571,5.4-1.064,2.386-1.525,4.108-2.494,9.328-.367,1.98-1.066,4.41-1.552,5.4-.878,1.788-1.259,3.257-2.435,9.4-.337,1.76-1.09,4.185-1.672,5.39-.583,1.204-1.282,3.454-1.553,5-.755,4.303-2.639,7.01-4.877,7.01-1.074,0-4.083,4.892-4.083,6.639c0,.314-.16.884-.355,1.266-.196.382-.818,1.605-1.383,2.718-.565,1.112-1.148,2.822-1.294,3.8-.481,3.205-1.356,6.137-2.559,8.577-.651,1.32-1.301,3.21-1.446,4.2-.814,5.586-1.224,6.416-4.123,8.342-3.986,2.647-6.3,3.662-9.772,4.284-.843.151-2.373.702-3.4,1.223-2.758,1.399-28.234,1.486-31.978.109-1.259-.464-3.55-1.194-5.09-1.623-3.068-.855-5.8-1.952-5.8-2.33c0-.133-.776-.561-1.725-.952-1.85-.763-2.49-1.679-3.745-5.353-.395-1.155-.826-2.1-.959-2.1-.32,0-1.37-3.474-2.176-7.2-.357-1.65-1.191-4.156-1.854-5.569s-1.367-3.483-1.564-4.6c-.76-4.301-1.545-6.575-2.565-7.421-.369-.306-1.019-1.24-1.445-2.075-.433-.849-1.346-1.807-2.071-2.172-1.911-.965-3.423-2.522-3.708-3.819-.139-.629-.381-1.144-.539-1.144-.429,0-1.154-2.263-1.667-5.2-.844-4.83-1.067-5.795-1.755-7.6-1.416-3.714-2.167-6.283-2.629-9-.542-3.183-1.317-6.09-1.96-7.345-1.021-1.994-1.152-2.371-1.417-4.07-.877-5.631-1.466-7.94-2.753-10.785-.448-.99-1.117-3.508-1.487-5.597-.924-5.215-.58-5.738,4.219-6.425c2.502-.358,5.659-1.069,9.4-2.117c2.421-.678,5.323-.944,29-2.662c3.52-.255,7.57-.611,9-.791c3.358-.422,17.838-.242,26.8.333m60.8,9.307c1.21.212,3.28.565,4.6.783c6.779,1.124,9.935,4.872,6.854,8.139-1.522,1.614-3.454,4.414-3.454,5.006c0,.216-.682,1.075-1.516,1.909-.834.833-1.822,2.168-2.195,2.966-.374.798-1.089,1.719-1.588,2.046s-1.176,1.112-1.505,1.743c-.612,1.18-1.332,2.168-2.412,3.309-.796.842-2.784,3.942-2.784,4.342-.001.17-.721,1.007-1.6,1.861-.88.853-1.6,1.785-1.6,2.071s-.633,1.191-1.406,2.01c-.773.82-1.797,2.124-2.275,2.899-.479.774-1.826,2.479-2.995,3.788-1.168,1.31-2.124,2.69-2.124,3.068c0,1.451-1.507,2.263-2.407,1.297-1.355-1.454-.729-6.438,1.25-9.962.408-.726.948-2.535,1.2-4.021c1.064-6.262,1.555-8.16,2.678-10.354.465-.908,1.051-2.798,1.302-4.2.976-5.455,1.123-6.193,1.503-7.548.216-.77.755-2.123,1.198-3.007s.925-2.324,1.071-3.2c.751-4.501,2.054-6.234,4.302-5.72.937.214,2.693.563,3.903.775m-147.154.295c2.244,1.423,3.307,4.129,4.159,10.594.14,1.065.617,2.775,1.059,3.8c1.385,3.211,1.884,4.956,2.534,8.868.347,2.087,1.157,5.08,1.801,6.65c1.511,3.684,2.375,7.593,2.501,11.308l.1,2.963-1.182.324c-1.392.382-2.306-.273-3.418-2.45-.393-.77-1.114-1.76-1.601-2.2-.488-.44-1.646-1.97-2.574-3.4s-1.992-2.85-2.364-3.155-.976-1.205-1.343-2-1.182-1.919-1.813-2.499c-.63-.58-1.645-1.84-2.254-2.8-.61-.96-1.681-2.317-2.38-3.015s-1.271-1.553-1.271-1.9-.18-.631-.4-.631-.4-.232-.4-.517c0-.284-.613-1.167-1.363-1.961-.75-.795-1.662-2.075-2.027-2.844-.365-.77-1.372-2.054-2.237-2.855-.865-.8-1.573-1.699-1.573-1.997s-.772-1.359-1.715-2.357l-1.714-1.815.805-1.127c1.599-2.24,4.846-3.922,8.824-4.572c5.674-.927,6.213-1.035,6.471-1.292.523-.524,1.608-.241,3.375.88M267.691,137.3c.266.751-.41,8.574-.968,11.2-.802,3.778-2.506,3.468-2.198-.4.255-3.205.985-9.13,1.281-10.4.225-.969,1.582-1.257,1.885-.4m-125.097,8.6c.134,1.045.415,2.995.625,4.333.803,5.124.269,9.389-1.015,8.105-.971-.972-2.178-13.455-1.35-13.98c1.093-.693,1.5-.332,1.74,1.542m121.098,6.672c.183.952-.602,9.169-1.12,11.728-.66,3.263-2.487.893-2.023-2.624.136-1.032.424-3.426.64-5.32s.506-3.739.645-4.1c.39-1.016,1.645-.803,1.858.316m-140.792.663c.385.676.7,1.646.7,2.155c0,.944.67,1.41,2.025,1.41.498,0,.851.379,1.024,1.1.486,2.03,1.393,3.356,2.577,3.769.646.225,1.174.687,1.174,1.026c0,.34.397,1.413.883,2.385.916,1.834.728,2.982-.529,3.231-.596.117-1.732-1.803-2.122-3.586-.167-.766-.634-1.219-1.627-1.578-1.154-.417-1.502-.832-2.031-2.426-.475-1.43-.887-1.984-1.607-2.165-1.581-.397-3.687-5.303-2.7-6.289.606-.607,1.576-.186,2.233.968m23.696,7.465c.135,1.045.425,3.073.645,4.508.836,5.447.502,8.039-.963,7.477-.831-.318-2.231-10.826-1.716-12.876.467-1.862,1.751-1.3,2.034.891M280,161.219c0,.451-.36,1.565-.8,2.475-.44.911-.804,1.847-.809,2.081-.004.234-.589.695-1.299,1.025-.838.389-1.412,1.021-1.638,1.8-.577,1.992-.85,2.327-2.281,2.807-.991.332-1.406.729-1.492,1.427-.221,1.794-1.399,3.566-2.372,3.566-2.011,0-.471-4.533,2.296-6.756.91-.731,1.595-1.629,1.595-2.089c0-1.338.726-2.275,1.976-2.55c1.021-.224,1.27-.558,1.815-2.432.688-2.368,3.009-3.412,3.009-1.354M259.526,173.5L259.4,181l1.163.133c2.745.313,3.689-.2,4.495-2.442.857-2.385,2.99-3.162,3.27-1.191.07.495-.047.9-.26.9s-.711.9-1.107,2c-.395,1.1-.962,2-1.258,2-.869,0-2.503,1.884-2.5,2.882.002.597-.652,1.489-1.87,2.55l-1.874,1.632-.144,5.768c-.133,5.33-.768,10.368-1.307,10.368-.916,0-2.298,4.566-2.601,8.6-.35,4.651-1.058,8.104-1.833,8.936-.833.893-1.807,4.257-2.162,7.464-.586,5.29-1.286,6.455-5.389,8.958-1.197.731-2.515,1.759-2.929,2.285-.482.614-1.166.957-1.904.957-1.858,0-5.818,1.732-6.386,2.792-.256.478-1.035.856-2.105,1.02-2.636.404-4.419,1.429-5.198,2.988-.897,1.795-1.089,43.877-.21,45.881.509,1.161,1.784,2.519,2.365,2.519.183,0,.589.613.902,1.362.314.75,1.284,2.098,2.156,2.997c2.741,2.825,2.698,2.496,2.58,19.641-.059,8.47-.239,19.191-.401,23.826l-.296,8.425-1.498,1.316c-.825.724-1.499,1.614-1.499,1.978c0,1.757-7.324,2.847-10.142,1.509-.758-.36-1.495-.654-1.638-.654-.5,0-2.195-2.208-2.207-2.876-.007-.372-.173-.775-.368-.896s-.464-4.856-.598-10.524c-.391-16.563-1.029-25.71-1.878-26.927-.393-.563-1.019-1.823-1.392-2.8-.675-1.768-2.326-3.571-3.274-3.575-.273-.001-.813-.669-1.2-1.485-.484-1.021-1.232-1.736-2.403-2.299-.935-.45-1.7-1.03-1.7-1.29c0-2.148-3.459-2.384-5.016-.343-.558.732-1.513,1.537-2.123,1.79-.61.252-1.368.849-1.685,1.326-.677,1.02-2.278,2.628-3.545,3.56-.844.622-1.974,3.04-2.013,4.308-.01.312-.304.884-.653,1.27-.481.532-.72,2.143-.983,6.632-.957,16.334-1.184,21.038-1.183,24.503.002,6.052-1.137,9.308-3.451,9.861-.631.152-1.376.455-1.654.674-1.721,1.357-9.44-.244-9.894-2.052-.135-.538-.81-1.505-1.499-2.149-1.767-1.651-1.815-2.26-2.144-26.813-.308-23.073-.342-22.577,1.682-24.495.465-.44,1.587-1.822,2.494-3.071.908-1.25,1.972-2.51,2.365-2.8.892-.659,2.102-2.522,2.102-3.236c0-.295.63-1.147,1.4-1.893l1.4-1.357v-19.595c0-22.9.114-22.179-3.803-24.032-1.181-.559-2.437-1.016-2.79-1.016-.354,0-1.08-.437-1.614-.971-1.355-1.355-2.78-2.055-5.783-2.842-1.646-.432-3.139-1.149-4.097-1.969-.829-.709-2.237-1.508-3.128-1.775-1.699-.509-1.721-.543-2.97-4.417-.385-1.196-1.066-2.669-1.513-3.273-.881-1.192-1.286-3.169-1.915-9.353-.427-4.189-.842-5.696-2.061-7.468-.877-1.275-1.35-3.599-1.945-9.549-.244-2.44-.694-5.033-.999-5.764-.358-.857-.472-2.027-.322-3.296.192-1.621.049-2.329-.814-4.031-.575-1.136-1.059-2.386-1.075-2.779-.016-.392-.378-1.253-.805-1.913-.426-.66-.883-1.509-1.014-1.887-.131-.377-.563-.789-.959-.915-.966-.307-1.812-1.676-2.145-3.469-.224-1.204-.484-1.517-1.433-1.726-1.416-.311-1.84-.792-2.293-2.603-.245-.977-.718-1.58-1.568-1.995-1.324-.646-3.596-4.797-3.197-5.838.656-1.708,3.443.201,3.443,2.358c0,.741.357,1.094,1.6,1.582c1.273.5,1.6.833,1.6,1.63c0,1.099,1.638,3.292,2.718,3.64.375.121,1.4,1.317,2.278,2.657c2.008,3.067,3.804,3.41,3.804.728c0-.393.18-.826.4-.962s.4-1.754.4-3.597c0-3.038.077-3.374.83-3.613c1.104-.35,1.002-.631,1.756,4.81c1.051,7.581,2.636,10.156,7.114,11.556.385.12.7.549.7.953c0,.827,1.922,4.011,2.912,4.824.357.293.76,1.373.896,2.4.738,5.579,1.76,8.998,3.013,10.085.506.439.908,1.597,1.188,3.423c1.025,6.682,1.528,8.359,2.763,9.225.405.283.855,1.152,1.001,1.931.496,2.643,4.618,5.53,9.136,6.399c2.87.551,3.982.963,4.998,1.851c1.97,1.72,2.327,1.753,18.952,1.753h15.459l1.647-1.323c1.617-1.3,4.015-2.126,7.688-2.648c1.36-.194,2.284-.659,3.472-1.747.89-.815,2.216-1.845,2.947-2.288.933-.567,1.415-1.221,1.62-2.2.16-.767.575-2.777.921-4.468.346-1.69.762-3.13.923-3.2c1.023-.44,2.062-2.892,2.441-5.758.614-4.648.98-5.871,2.362-7.879.888-1.292,1.32-2.479,1.508-4.149.407-3.612,2.879-6.863,6.308-8.295c1.454-.608,1.932-1.611,2.503-5.245.315-2.005.815-3,1.508-3c.982,0,1.584-2.683,2.458-10.963.319-3.026.492-3.437,1.445-3.437.754,0,.778.278.657,7.5m-113.035,4.006c.354,1.352-.28,2.435-.827,1.414-.459-.857-.261-2.12.332-2.12.171,0,.394.318.495.706M257.4,182c-.136.22.123.4.576.4s.824-.18.824-.4-.259-.4-.576-.4-.688.18-.824.4M200,187.434c-5.253.886-6.43,1.339-8.39,3.229-.764.737-1.677,1.431-2.029,1.543-.351.111-1.064.959-1.583,1.884-.52.924-1.441,2.165-2.047,2.757-2.85,2.786-2.788,19.553.073,19.553.138,0,.864.9,1.613,1.999.75,1.1,1.499,2,1.666,2c.166.001.706.468,1.2,1.039c1.202,1.391,3.756,2.84,5.601,3.178.828.151,1.603.434,1.724.629s.704.359,1.296.364s1.496.332,2.008.726c.921.709,5.268.43,5.268-.338c0-.148.765-.497,1.7-.777c5.48-1.636,6.545-2.181,8.345-4.271.355-.412,1.21-1.197,1.9-1.745.69-.547,1.255-1.302,1.255-1.676s.18-.792.4-.928.4-.526.4-.866c0-.341.555-1.782,1.232-3.202c1.722-3.606,1.816-8.756.212-11.493-.574-.98-1.044-1.984-1.044-2.232c0-3.093-6.5-9.473-10.809-10.609-2.186-.577-8.32-1.046-9.991-.764m9.274,1.728c2.724.632,9.267,6.772,9.93,9.318.246.946.615,2.27.82,2.943c1.066,3.502.638,10.218-.829,13.028-.187.358-.461,1.296-.609,2.084-.22,1.17-.575,1.586-1.928,2.258-.912.454-2.018,1.398-2.458,2.099-.982,1.565-2.934,2.248-8.2,2.872-3.684.437-5.028.351-9.8-.624-3.065-.626-3.4-.754-3.4-1.305c0-.586-1.207-1.762-2.463-2.399-.878-.446-1.12-.798-1.894-2.755-.244-.615-.968-1.419-1.609-1.788-.888-.509-1.224-1.054-1.407-2.281-1.093-7.335-.513-12.251,1.741-14.745.786-.87,1.609-2.141,1.83-2.824.286-.886.878-1.464,2.057-2.013.91-.423,1.955-1.277,2.321-1.897.37-.626,1.147-1.231,1.745-1.359.594-.127,1.439-.386,1.879-.575c1.046-.451,10.375-.479,12.274-.037"
       fill="#a48e94"
       fill-rule="evenodd"
       id="path25230"
       style="fill:#fffeff;fill-opacity:1" />
    <path
       d="M193.2,35.182c-2.09.126,2.05.235,9.2.241c7.74.006,11.624-.101,9.6-.266-3.925-.32-13.281-.308-18.8.025M180.2,36l-2,.274l2,.016c1.1.009,3.17-.115,4.6-.276l2.6-.292-2.6.002c-1.43.001-3.5.125-4.6.276m40.6.014c1.43.161,3.5.288,4.6.283l2-.01-2.2-.304c-1.21-.167-3.28-.294-4.6-.282l-2.4.021l2.6.292m-47.095.673c.609.092,1.509.09,2-.005.492-.095-.005-.171-1.105-.168s-1.503.081-.895.173m56,0c.609.092,1.509.09,2-.005.492-.095-.005-.171-1.105-.168s-1.503.081-.895.173m-61.877.938c-1.085.411-2.975.96-4.2,1.219-1.226.259-2.003.55-1.728.647.476.167,5.23-.847,6.5-1.387.33-.14,1.41-.47,2.4-.732c1.779-.471,1.783-.477.4-.486-.77-.006-2.288.327-3.372.739M234,37.244c2.902.769,5.836,1.634,6.862,2.021.584.22,1.484.332,2,.248.632-.103.162-.324-1.438-.677-1.307-.289-2.657-.662-3-.831-1.317-.648-3.529-1.204-4.652-1.169-1.153.036-1.15.042.228.408M156.8,40l-1.4.295l1.6.005c.88.003,2.14-.132,2.8-.3l1.2-.305-1.4.005c-.77.003-2.03.138-2.8.3m88.6,0c.66.168,1.74.305,2.4.305h1.2L247.8,40c-.66-.168-1.74-.305-2.4-.305h-1.2l1.2.305m-95.708,1.625c-.719.422-2.159.987-3.2,1.255-1.047.27-1.576.553-1.185.634.726.151,3.419-.757,5.893-1.986.978-.486,1.159-.692.6-.684-.44.007-1.388.358-2.108.781M252.6,41.2c.136.22.557.4.935.4s1.042.236,1.476.524c1.009.67,4.13,1.668,4.394,1.405.11-.111-.537-.422-1.438-.692-.9-.269-2.257-.838-3.014-1.264-1.473-.827-2.76-1.031-2.353-.373M141.4,44l-1.2.305l1.2.008c.66.004,1.65-.137,2.2-.313l1-.32-1,.007c-.55.004-1.54.145-2.2.313M261,44c.44.189,1.34.338,2,.332c1.17-.011,1.175-.02.2-.332-1.467-.47-3.294-.47-2.2,0m4.4.778c.66.162,2.429.874,3.932,1.581c1.502.708,2.942,1.216,3.2,1.129.257-.086-.162-.367-.932-.623-.77-.257-2.286-.916-3.368-1.466-1.082-.549-2.432-.981-3-.958-.984.039-.976.055.168.337m-129.6.546c-.44.262-.89.585-1,.718s-.92.478-1.8.765c-.88.288-1.389.595-1.132.681.469.158,5.732-2.134,5.732-2.496c0-.339-.976-.159-1.8.332M128.8,48c-.795.514.204.514,1.4,0l.8-.344-.8-.022c-.44-.012-1.07.153-1.4.366m145,0c.44.189,1.25.344,1.8.344.912,0,.929-.031.2-.344-.44-.189-1.25-.344-1.8-.344-.912,0-.929.031-.2.344m4.095.682c.493.095,2.081.79,3.529,1.545c1.449.755,2.846,1.364,3.105,1.352s-.339-.436-1.329-.943c-.99-.508-2.34-1.217-3-1.577s-1.65-.631-2.2-.602c-.933.048-.94.064-.105.225M123.8,49.605c-.66.411-1.92.962-2.8,1.225s-1.359.564-1.065.669c.556.198,2.99-.756,5.065-1.985.66-.391.93-.699.6-.683-.33.015-1.14.363-1.8.774M116.4,52l-1,.32h1c.55,0,1.45-.144,2-.32l1-.32h-1c-.55,0-1.45.144-2,.32m169.4,0c.44.189,1.16.344,1.6.344h.8L287.4,52c-.44-.189-1.16-.344-1.6-.344h-.8l.8.344M111.658,53.446c-1.155.575-2.006,1.14-1.891,1.254.114.115.629-.068,1.144-.405s1.736-.893,2.713-1.235c.98-.343,1.408-.63.955-.641-.452-.01-1.767.452-2.921,1.027M290.4,52.994c0,.364,4.774,2.606,5.489,2.578.391-.016.081-.262-.689-.547-.77-.286-2.08-.903-2.912-1.372-1.557-.878-1.888-.994-1.888-.659M107.8,55.2c-.771.331-.769.345.076.372.482.015.988-.152,1.124-.372.292-.473-.099-.473-1.2,0m-3.2.8l-.8.344h.8c.44,0,1.16-.155,1.6-.344l.8-.344h-.8c-.44,0-1.16.155-1.6.344m192.8,0c.44.189,1.16.344,1.6.344h.8L299,56c-.44-.189-1.16-.344-1.6-.344h-.8l.8.344m-199,2.24c-1.43.738-2.365,1.346-2.078,1.351.472.008,5.213-2.193,5.637-2.616.558-.559-1.318.108-3.559,1.265m204-1.28c0,.186,2.744,1.84,3.051,1.84.323,0-.79-.948-1.761-1.5-.908-.517-1.29-.617-1.29-.34M93.2,60c-.787.509.616.509,1.8,0c.733-.315.716-.346-.2-.366-.55-.012-1.27.153-1.6.366m215.6,0c.33.213.96.378,1.4.366l.8-.022-.8-.344c-1.196-.514-2.195-.514-1.4,0M88.96,61.449c-1.078.577-2.59,1.285-3.36,1.572-.829.31-1.094.534-.649.551.413.015,2.033-.584,3.6-1.332c1.567-.747,3.119-1.453,3.449-1.568.404-.141.326-.219-.24-.24-.463-.018-1.723.44-2.8,1.017m224.64-.457c0,.105.765.563,1.7,1.017l1.7.825-1.2-1.015c-1.078-.912-2.2-1.334-2.2-.827m3.8,2.208c.136.22.642.397,1.124.394.712-.005.764-.079.276-.394-.788-.509-1.715-.509-1.4,0M81.6,64l-1,.32l1,.012c.55.006,1.36-.143,1.8-.332l.8-.344-.8.012c-.44.006-1.25.156-1.8.332M320,64c.33.213,1.05.373,1.6.354l1-.034-1-.32c-1.542-.494-2.364-.494-1.6,0m-241.989.845c-.544.217-1.316.746-1.715,1.175-.872.936-.452,1.045.546.142.388-.351,1.392-.883,2.232-1.182.839-.3,1.166-.541.726-.537s-1.245.185-1.789.402M323.2,64.667c.913.311,2.846,1.275,4.346,2.168.741.44,1.551.732,1.8.647.25-.084-.221-.398-1.046-.698s-1.5-.668-1.5-.819c0-.411-2.613-1.57-3.46-1.533-.551.023-.587.083-.14.235M73.5,67.429c-.605.328-1.1.677-1.1.775c0,.224,2.066-.641,2.58-1.08.627-.534-.276-.348-1.48.305m256.9.374c0,.112.719.491,1.597.842c1.008.404,2.373,1.546,3.7,3.097c1.157,1.352,2.321,2.638,2.587,2.858s.838,1.21,1.271,2.2c.434.99.801,1.568.817,1.284.054-.995-1.531-3.554-3.535-5.709-1.113-1.196-2.026-2.307-2.03-2.468-.012-.512-4.407-2.609-4.407-2.104M70.138,69.5c-1.905,1.828-5.831,7.949-5.621,8.764.173.671.194.674.237.03.025-.389.721-1.739,1.546-3c2.044-3.126,2.08-3.173,3.947-5.15c1.808-1.913,1.725-2.403-.109-.644M63.869,80.756c-.148.739-.246,2.267-.217,3.394.048,1.884.08,1.807.399-.95.372-3.204.262-4.667-.182-2.444M341.047,83c.39,2.612.402,5.125.036,7.6-.247,1.676-.221,1.838.166,1c.645-1.396.648-8.783.005-9.8-.429-.678-.461-.496-.207,1.2m-277.4,5.433c.026,1.192.191,2.707.366,3.367.188.71.228-.106.099-2-.255-3.708-.534-4.53-.465-1.367m.785,5.578c-.03.563.97,2.322,1.585,2.789.145.11.485.62.756,1.134.27.514.589.838.707.719.119-.118-.411-1.079-1.177-2.134-.766-1.056-1.493-2.189-1.616-2.519-.196-.526-.228-.525-.255.011M339.683,96.68c-.263.878-1.035,2.179-1.715,2.89-.68.712-1.161,1.371-1.068,1.464.623.623,3.773-4.415,3.421-5.472-.088-.263-.375.24-.638,1.118M68.4,101.12c0,.274.696,1.259,1.546,2.189.851.93,1.865,2.321,2.255,3.091.72,1.425,3.399,4.329,3.399,3.685c0-.194-.535-.829-1.188-1.411s-1.535-1.737-1.959-2.566c-.424-.83-1.224-1.996-1.778-2.592s-1.293-1.492-1.641-1.989c-.349-.498-.634-.681-.634-.407m267.685,1.293c-.577.923-.606,1.187-.132,1.187.322,0,.949-1.632.716-1.864-.055-.055-.317.25-.584.677m-2.021,2.976c-.695.764-1.264,1.528-1.264,1.696c0,.293,1.176-.904,2.349-2.39.961-1.217.227-.747-1.085.694m-2.441,3.855c-.505.899-1.437,2.097-2.071,2.662-.634.564-1.152,1.198-1.152,1.407c0,.592,2.912-2.555,3.739-4.041.406-.73.663-1.403.571-1.495-.092-.093-.581.568-1.087,1.467m-254.948,3.57c.626,1.183,3.481,4.763,3.658,4.586.181-.18-1.012-1.808-2.932-4-.578-.66-.905-.923-.726-.586m251.058,1.829c-.158.416-.799,1.273-1.425,1.903-1.275,1.284-2.923,4.254-2.359,4.254.2,0,.47-.421.599-.935s.87-1.608,1.646-2.431c1.572-1.667,2.385-2.988,2.048-3.326-.123-.122-.352.118-.509.535M80.4,118.359c0,.188.72,1.107,1.6,2.041s1.6,1.562,1.6,1.394c0-.167-.72-1.086-1.6-2.04-.88-.955-1.6-1.582-1.6-1.395M322,122.843c-1.993,2.335-2.038,2.905-.059.757c1.408-1.528,1.979-2.406,1.559-2.398-.055.001-.73.74-1.5,1.641m-127.638-1.071c-.118.117-3.352.414-7.188.66s-8.054.6-9.374.787c-2.773.392,1.608.231,11-.406c7.027-.476,20.129-.472,28.2.01c12.348.736,14.006.79,11,.355-6.193-.895-33.027-2.017-33.638-1.406M84.045,123.3c.26.495.992,1.53,1.628,2.3c1.494,1.811,1.619,1.991,2.294,3.299.312.605.641,1.027.73.938.29-.291-1.164-2.752-2.368-4.01-.646-.675-1.439-1.722-1.762-2.327s-.679-1.1-.791-1.1.009.405.269.9m82.755.7l-2.2.27l2.4.021c1.32.012,3.48-.112,4.8-.276l2.4-.297-2.6.006c-1.43.004-3.59.128-4.8.276m67.2.014c1.43.161,3.59.289,4.8.286l2.2-.007-2-.311c-1.1-.172-3.26-.3-4.8-.286l-2.8.026l2.6.292m-73.895.673c.609.092,1.509.09,2-.005.492-.095-.005-.171-1.105-.168s-1.503.081-.895.173m84,0c.609.092,1.509.09,2-.005.492-.095-.005-.171-1.105-.168s-1.503.081-.895.173m-90.305.786c-1.1.33-3.164.864-4.587,1.185-1.424.321-2.669.664-2.767.763-.439.438,1.994.086,4.554-.66c1.54-.448,3.784-.992,4.986-1.207c1.202-.216,2.267-.473,2.366-.573.404-.404-2.683-.07-4.552.492m94.233-.508c.092.09,1.067.347,2.167.569c1.1.223,3.438.783,5.195,1.246s3.467.783,3.8.711c.333-.073-.565-.421-1.995-.775s-3.59-.928-4.8-1.275c-2.003-.575-4.772-.877-4.367-.476m71.353,1.723c-.806,1.239-1.401,1.91-5.173,5.823-1.437,1.492-2.613,2.807-2.613,2.924c0,.571,4.733-4.048,5.381-5.252.41-.761.887-1.383,1.062-1.383.436,0,2.517-2.774,2.267-3.023-.111-.111-.527.299-.924.911M141.8,128.168c-1.664.744-2.203,1.792-1.784,3.467l.342,1.365-.058-1.4c-.09-2.18.508-2.828,3.14-3.403c1.938-.423,2.11-.52.96-.54-.77-.014-1.94.216-2.6.511m120.842.159c1.344.37,2.833.943,3.31,1.273l.868.6-.81,1.499c-.446.824-.809,1.814-.808,2.2.003.764.58-.194,1.558-2.585.742-1.815-2.268-3.785-5.635-3.687-.509.015.174.33,1.517.7M89.295,130.9c.304.275,1.228,1.13,2.053,1.9.826.77,1.389,1.106,1.252.747-.246-.643-3.114-3.147-3.605-3.147-.139,0-.004.225.3.5m183.849.778c-.457.643-.735,1.264-.617,1.382s.497-.333.843-1.002c.58-1.121.722-1.184,1.806-.806.647.225,1.592.347,2.1.27.609-.091.203-.288-1.188-.575-2.085-.431-2.123-.421-2.944.731M128.8,131.195c-.439.281-.212.369.85.331c1.454-.052,1.855.163,3.995,2.143.635.588,1.155.981,1.155.874c0-1.819-4.479-4.318-6-3.348m-4,.805c-.975.312-.97.321.2.332.66.006,1.56-.143,2-.332c1.094-.47-.733-.47-2.2,0m154.4,0c.55.176,1.54.32,2.2.32c1.167,0,1.172-.009.2-.32-.55-.176-1.54-.32-2.2-.32-1.167,0-1.172.009-.2.32m-161.64,1.927c-2.7,1.575-2.926,1.759-3.781,3.073l-.781,1.2l1.701,1.75c.936.962,1.701,1.565,1.701,1.34c0-.226-.664-1.074-1.476-1.886l-1.475-1.475l1.592-1.516c.876-.833,2.575-1.976,3.776-2.54s1.823-1.024,1.383-1.023c-.44.002-1.628.486-2.64,1.077m168.073-.973c.092.084,1.157.572,2.367,1.084c2.424,1.026,2.839,1.341,3.569,2.705.273.509.591.83.707.714.494-.494-1.641-2.668-3.557-3.623-1.741-.867-3.668-1.417-3.086-.88m-13.784,1.261c-.137.358-.233,1.041-.213,1.518.026.614.149.475.423-.477.398-1.384.235-2.198-.21-1.041M94.2,135.41c1.638,1.009,2.842,1.305,2.4.59-.136-.22-.552-.406-.924-.413s-1.025-.277-1.452-.6c-.428-.323-.968-.581-1.2-.575-.233.007.296.456,1.176.998m170.488-.077c-.158.403-.277,1.123-.263,1.6.024.823.046.817.415-.108.214-.536.333-1.256.263-1.6-.104-.514-.178-.495-.415.108m-129.876.467c0,.44.175,1.07.388,1.4.321.497.388.462.388-.2c0-.44-.175-1.07-.388-1.4-.321-.497-.388-.462-.388.2m5.988.981c0,.235.356,1.191.791,2.123.436.933,1.053,2.416,1.372,3.296.468,1.29.584,1.407.596.6.009-.55-.427-1.9-.968-3s-.985-2.214-.987-2.476-.184-.588-.404-.724-.4-.055-.4.181m-40.4.411c.55.181,2.098.659,3.44,1.062c1.887.568,2.658,1.042,3.4,2.095.528.748,1.751,2.191,2.717,3.206s1.506,1.485,1.2,1.045-.787-.947-1.069-1.126c-.281-.18-.96-1.037-1.508-1.905-1.452-2.301-2.275-3.169-3.002-3.169-.355,0-.768-.123-.919-.274-.485-.485-3.228-1.315-4.259-1.288l-1,.025l1,.329m170.8.25c0,.353-.45,1.538-1,2.633s-1,2.276-1,2.626c0,.932,1.955-3.078,2.243-4.601.135-.715.136-1.3.002-1.3-.135,0-.245.289-.245.642m31.78-.268c-.671.161-1.88.952-2.686,1.759-.807.807-1.641,1.467-1.853,1.467-.492,0-2.2,2.374-1.914,2.66.118.118.502-.342.854-1.023.352-.68.868-1.237,1.148-1.237s1.212-.72,2.071-1.6c1.43-1.464,1.74-1.6,3.658-1.6c1.152,0,2.206-.18,2.342-.4.283-.458-1.755-.473-3.62-.026M135.668,139.2c.019,1.65.649,3.356.664,1.8.006-.66-.143-1.56-.332-2-.313-.727-.343-.709-.332.2m128.221,0c-.153.55-.264,1.45-.247,2c.026.861.084.814.416-.34.212-.736.323-1.636.248-2-.098-.466-.22-.367-.417.34m27.762-.095c-.208.388-.979,1.346-1.714,2.128-.735.783-1.742,2.221-2.236,3.195-.495.975-1.44,2.297-2.1,2.939-.661.641-1.124,1.243-1.03,1.337.231.231,3.029-2.676,3.029-3.147c0-.575,1.953-3.396,3.454-4.987.74-.785,1.346-1.594,1.346-1.798c0-.586-.338-.436-.749.333M116.4,142.344c0,.155.92,1.245,2.044,2.424c1.124,1.178,1.838,1.759,1.587,1.29-.514-.96-3.631-4.149-3.631-3.714m146.8.898c0,.463-.417,1.678-.926,2.7-1.056,2.117-2.091,5.574-1.767,5.898.119.119.344-.381.5-1.111.155-.731.731-2.319,1.278-3.529c1.006-2.22,1.633-4.8,1.167-4.8-.138,0-.252.379-.252.842m-126.584,1.08c.205,1.762,1.724,5.472,2.09,5.106.112-.112-.21-1.154-.715-2.316-.504-1.162-1.065-2.652-1.246-3.312-.264-.962-.29-.858-.129.522m132.072-.189c-.158.403-.277,1.123-.263,1.6.024.823.046.817.415-.108.214-.536.333-1.256.263-1.6-.104-.514-.178-.495-.415.108m26.742.167c-.124.385-.845,1.396-1.604,2.246-.758.85-1.647,2.11-1.976,2.8s-1.239,1.874-2.024,2.632c-.784.759-1.426,1.539-1.426,1.735c0,.637,2.813-2.522,4.082-4.585.681-1.107,1.616-2.426,2.078-2.932c1.87-2.048,2.179-2.596,1.467-2.596-.205,0-.474.315-.597.7m-151.75.5c0,.55.144,1.45.32,2l.32,1v-1c0-.55-.144-1.45-.32-2l-.32-1v1m-31.979,1c.388,1.242,1.305,2.611,1.867,2.79.356.113,1.004.871,1.44,1.685.94,1.756,5.793,8.346,5.789,7.861-.003-.441-1.053-1.978-2.847-4.167-.798-.973-1.746-2.351-2.107-3.063-.361-.711-1.239-1.893-1.95-2.626s-1.523-1.681-1.805-2.107c-.282-.425-.456-.593-.387-.373m8.699,1.736c0,.199.72,1.151,1.6,2.113.88.963,1.6,1.976,1.6,2.251s.18.5.4.5.4.272.4.605.627,1.278,1.394,2.1s1.661,1.855,1.987,2.295c.327.44.599.59.606.334.007-.257-.72-1.247-1.616-2.2-.896-.954-1.861-2.281-2.144-2.95-.284-.669-.766-1.479-1.071-1.8-.306-.321-1.141-1.266-1.856-2.098-.715-.833-1.3-1.35-1.3-1.15m147.378,1.442c-.151.803-.174,1.559-.052,1.682.122.122.346-.435.496-1.238.151-.803.174-1.559.052-1.682-.122-.122-.346.435-.496,1.238M138.812,150.6c0,.44.175,1.07.388,1.4.321.497.388.462.388-.2c0-.44-.175-1.07-.388-1.4-.321-.497-.388-.462-.388.2m5.988.739c0,.369.16.984.356,1.366.705,1.378,1.614,3.519,1.994,4.695.304.942.394,1.016.418.342.027-.716-2.112-6.37-2.613-6.909-.085-.091-.155.136-.155.506m137.139,1.007c-.803.8-1.913,2.174-2.465,3.054s-1.425,2.05-1.939,2.6-1.295,1.708-1.735,2.573c-.44.866-1.565,2.361-2.5,3.324-.935.962-1.7,2.003-1.7,2.311c0,.309-.675,1.246-1.5,2.082-.825.837-1.847,2.149-2.272,2.916-.424.767-1.144,1.712-1.6,2.1-2.139,1.823-2.621,2.449-2.857,3.71-.327,1.739-1.081,2.415-1.769,1.586-.816-.983-.321-6.461.754-8.347.485-.85.812-1.75.729-2-.191-.571-1.281,1.713-2.074,4.345-1.284,4.262-.19,8.191,1.782,6.406.444-.401.807-1.039.807-1.418c0-.378.956-1.758,2.124-3.068c1.169-1.309,2.516-3.014,2.995-3.788.478-.775,1.502-2.079,2.275-2.899.773-.819,1.406-1.724,1.406-2.01s.72-1.218,1.6-2.071c.879-.854,1.599-1.691,1.6-1.861c0-.4,1.988-3.5,2.784-4.342c1.248-1.319,2.016-2.368,2.016-2.754c0-.218.746-1.12,1.658-2.005.911-.884,1.586-1.674,1.5-1.754-.087-.079-.815.51-1.619,1.31m-14.693-.233c-.025.393-.496,1.602-1.046,2.687s-.982,2.294-.96,2.687c.034.617.078.606.321-.087.155-.44.689-1.663,1.186-2.717.498-1.054.824-2.224.726-2.6-.163-.619-.185-.616-.227.03M139.687,153.8c-.004.66.137,1.65.313,2.2l.32,1-.007-1c-.004-.55-.145-1.54-.313-2.2l-.305-1.2-.008,1.2m120.113.6c-.154.91-.189,1.744-.079,1.854s.325-.544.479-1.454.189-1.744.079-1.854-.325.544-.479,1.454m27,1.636c-.77.881-1.49,1.712-1.6,1.846s.365-.163,1.055-.661s1.451-1.336,1.691-1.863c.571-1.253.506-1.214-1.146.678m-27.6,1.753c0,.323-.45,1.606-1,2.849-1.262,2.855-1.272,3.756-.015,1.342.944-1.81,1.726-4.78,1.26-4.78-.135,0-.245.265-.245.589m-118.583,1.306c.105.932.547,2.328.982,3.103s1.011,2.262,1.28,3.305c.269,1.044.552,1.591.63,1.216s-.487-2.265-1.257-4.2-1.496-3.879-1.613-4.319-.127-.037-.022.895m-12.217-.563c0,.408,2.814,3.187,3.019,2.982.092-.091-.55-.866-1.426-1.721-.876-.856-1.593-1.423-1.593-1.261m136.288.401c-.478,1.216-.364,2.24.151,1.354.228-.391.352-1.021.276-1.4-.127-.627-.164-.623-.427.046m19.258.967c-.506.825-1.345,1.95-1.865,2.5-.521.55-1.465,1.9-2.099,3-.633,1.1-1.493,2.211-1.91,2.468s-1.265,1.337-1.884,2.4-1.443,2.159-1.83,2.436c-.388.277-1.384,1.627-2.213,3s-2.019,3.013-2.644,3.645-1.046,1.239-.935,1.35c.283.283,2.182-2.043,3.815-4.674.759-1.224,1.711-2.465,2.115-2.759.404-.293,1.261-1.463,1.905-2.6.643-1.136,1.511-2.277,1.928-2.534.417-.258,1.317-1.458,1.999-2.667.683-1.209,1.577-2.438,1.988-2.731.734-.525,3.156-4.334,2.755-4.334-.113,0-.619.675-1.125,1.5m-162.289-.143c.582.512,1.572,1.718,2.2,2.68.629.962,1.538,2.113,2.021,2.556.483.444,1.359,1.707,1.948,2.807s1.414,2.36,1.835,2.8c.42.44,1.208,1.34,1.751,2s.987,1,.988.756c0-.244-.663-1.144-1.474-2-.81-.856-2.08-2.626-2.822-3.934s-1.696-2.621-2.12-2.918c-.425-.298-1.221-1.307-1.769-2.243-.971-1.656-2.72-3.474-3.318-3.448-.163.007.179.431.76.944m26.011-.157c.019,1.65.649,3.356.664,1.8.006-.66-.143-1.56-.332-2-.313-.727-.343-.709-.332.2m116.151,3.927c-.164.95-.202,1.823-.085,1.941.292.291.792-2.495.566-3.147-.1-.286-.316.256-.481,1.206m-131.419.367c0,.21.387.725.861,1.144.473.419,1.623,1.932,2.556,3.362.932,1.43,2.094,2.96,2.582,3.4.487.44,1.208,1.43,1.601,2.2c1.749,3.425,4.554,3.65,4.654.373.03-.975-.027-1.282-.126-.682-.466,2.829-2.877,3.084-3.99.423-.295-.708-1.126-1.878-1.845-2.6-.719-.723-1.794-2.124-2.388-3.114-1.185-1.976-3.905-5.114-3.905-4.506m124.288.639c-.158.403-.277,1.123-.263,1.6.024.823.046.817.415-.108.214-.536.333-1.256.263-1.6-.104-.514-.178-.495-.415.108M148.8,165.907c0,.374.6,1.939,2.413,6.293.259.622.339.654.36.142.023-.571-2.194-6.252-2.618-6.709-.085-.091-.155.032-.155.274m-4.931,3.893c.127,1.32.299,2.475.381,2.567.291.323.066-2.981-.271-3.967-.221-.648-.259-.155-.11,1.4m111.931-.6c-.154.91-.189,1.744-.079,1.854s.325-.544.479-1.454.189-1.744.079-1.854-.325.544-.479,1.454m-.609,3.5c-.005.385-.541,1.78-1.191,3.1s-1.18,2.67-1.178,3c.005.905,2.337-3.976,2.62-5.486.136-.723.137-1.314.003-1.314-.135,0-.249.315-.254.7m-103.523,1.5c-.006.66.143,1.56.332,2c.47,1.094.47-.733,0-2.2-.312-.975-.321-.97-.332.2m-19.268.244c0,.209.72,1.043,1.6,1.852s1.6,1.666,1.6,1.905c0,.238.9,1.498,2,2.799s2,2.598,2,2.883c0,.284.18.517.4.517.791,0-1.193-3.358-2.215-3.75-.302-.116-.917-.933-1.367-1.816-.823-1.611-4.018-5.103-4.018-4.39m13.044,2.985c-.133.346-.034,1.017.22,1.491.448.837.47.84.737.077.528-1.504-.399-3.023-.957-1.568m7.356,3.219c0,.64.978,2.952,1.249,2.952.158,0,.4.515.539,1.144.284,1.296,1.797,2.854,3.705,3.817.712.359,1.587,1.234,1.946,1.946.359.711,1.062,1.743,1.562,2.293s1.036,1.419,1.191,1.93c.154.512.379.832.498.713.306-.305-.693-2.602-1.284-2.952-.269-.16-.956-1.037-1.526-1.949-.585-.936-1.781-2.069-2.743-2.6-1.619-.894-4.337-5.033-4.337-6.605c0-.269-.18-.601-.4-.737s-.4-.114-.4.048m99,2.952c-.152.691-.186,1.347-.076,1.457s.324-.366.476-1.057.186-1.347.076-1.457-.324.366-.476,1.057m14.543.157c-.582.512-1.561,1.721-2.177,2.687-.615.966-1.534,2.168-2.042,2.672s-.911,1.224-.896,1.6c.026.628.05.63.3.019.15-.366.857-1.307,1.572-2.09s1.3-1.612,1.3-1.843.743-1.226,1.651-2.211c1.815-1.969,1.92-2.268.292-.834M140.4,185.115c0,.199.585.975,1.301,1.724.715.748,1.606,1.811,1.979,2.361s.687.803.699.562-.879-1.466-1.979-2.723-2-2.123-2-1.924m110.544,1.203c-.235.375-1.304,1.12-2.377,1.656-2.734,1.365-5.809,5.317-4.869,6.257.122.122.436-.424.697-1.214.659-1.998,2.131-3.624,4.23-4.672c1.766-.882,3.27-2.183,2.924-2.529-.099-.099-.371.127-.605.502M199,187.159c-.66.145,1.001.267,3.692.271c2.69.004,4.67-.134,4.4-.305-.582-.37-6.369-.345-8.092.034m-3.6.841l-.8.344h.8c.44,0,1.16-.155,1.6-.344l.8-.344h-.8c-.44,0-1.16.155-1.6.344m13.8,0c1.542.494,2.364.494,1.6,0-.33-.213-1.05-.373-1.6-.354l-1,.034l1,.32m-17.6,2.2c-1.115.99-2.177,1.8-2.36,1.8-.184,0-.83.765-1.437,1.7s-1.564,2.195-2.128,2.8-.877,1.1-.696,1.1c.517,0,2.062-1.809,3.057-3.578.498-.887,1.194-1.705,1.545-1.816.352-.112,1.265-.804,2.029-1.538.765-.735,1.75-1.54,2.19-1.79.44-.249.581-.459.313-.466-.267-.007-1.398.798-2.513,1.788m22.311-.011c1.381,1.042,3.226,2.603,4.1,3.468.874.866,1.583,1.432,1.576,1.258-.02-.461-1.292-1.91-2.058-2.342-.363-.205-1.45-1.115-2.416-2.021-.965-.906-2.196-1.785-2.734-1.953-.557-.174.103.511,1.532,1.59M144.493,192c0,.77.082,1.085.183.7.1-.385.1-1.015,0-1.4-.101-.385-.183-.07-.183.7m116.159.5c-.294,1.097-.335,7.716-.046,7.427.203-.203.58-8.327.386-8.327-.054,0-.207.405-.34.9m-115.79,3.9c-.046,2.752.224,4.02,1.447,6.8.379.862.443.889.463.2.013-.44-.262-1.34-.61-2-.347-.66-.771-2.73-.941-4.6l-.309-3.4-.05,3m98.003-.4c-.257.77-.916,2.286-1.466,3.368-.549,1.082-.984,2.342-.965,2.8.028.677.095.633.358-.237.177-.589.678-1.759,1.113-2.6c1.502-2.911,1.787-3.654,1.607-4.192-.1-.296-.391.091-.647.861m-23.252-.346c-.007.14.256.77.585,1.4.328.63.598.865.6.522.002-.586-1.158-2.468-1.185-1.922m-55.957.946c0,.44.155,1.16.344,1.6l.344.8v-.8c0-.44-.155-1.16-.344-1.6l-.344-.8v.8m57.144,2.205c0,.249.47,1.254,1.044,2.234c1.604,2.737,1.51,7.887-.212,11.493-.677,1.42-1.227,2.827-1.22,3.125.031,1.478,2.898-5.637,3.08-7.646.233-2.559-.48-6.542-1.32-7.382-.315-.315-.572-.844-.572-1.177s-.18-.716-.4-.852-.4-.044-.4.205m-56.232,2.012c.085.78.705,2.582,1.377,4.004.672,1.423,1.437,3.575,1.699,4.783s.559,1.957.66,1.666c.268-.776-.66-3.896-2.036-6.851-.661-1.419-1.349-3.129-1.528-3.8-.317-1.187-.322-1.181-.172.198m19.288.067c-.135.504-.226,1.546-.204,2.316.034,1.134.11.989.4-.761.368-2.214.244-3.196-.196-1.555m75.962,2.242c-.165,1.169-.205,2.22-.089,2.336.285.285.802-3.275.571-3.937-.1-.289-.318.432-.482,1.601m-20.04,1.852c-.151.803-.174,1.559-.052,1.682.122.122.346-.435.496-1.238.151-.803.174-1.559.052-1.682-.122-.122-.346.435-.496,1.238m-92.95-.102c.068,1.268.714,2.178.744,1.048.015-.592-.152-1.188-.372-1.324s-.387-.012-.372.276M259.2,206.804c0,.443-.348,1.568-.773,2.5-1.017,2.232-2.164,6.493-1.928,7.164.102.293.413-.548.69-1.868s.838-3.058,1.247-3.863c.767-1.512,1.459-4.737,1.015-4.737-.138,0-.251.362-.251.804M147.695,208.8c0,.77.137,1.94.305,2.6l.305,1.2v-1.4c0-.77-.137-1.94-.305-2.6l-.305-1.2v1.4m91.098.3c-.286.935-.627,1.7-.759,1.7-.356,0-1.356,2.411-1.104,2.663.312.312,2.748-5.035,2.549-5.595-.092-.257-.4.297-.686,1.232m-55.107,1.3c-.003.77.138,1.85.314,2.4.45,1.404.465-.063.023-2.2l-.331-1.6-.006,1.4m-15.245,2.692c-.042.912,1.087,4.147,1.573,4.508.149.11.506.92.793,1.8.288.88.595,1.389.681,1.132.087-.258-.421-1.698-1.129-3.2-.707-1.503-1.419-3.272-1.581-3.932-.232-.941-.305-1.007-.337-.308M148.493,214c0,.77.082,1.085.183.7.1-.385.1-1.015,0-1.4-.101-.385-.183-.07-.183.7m36.307,1.488c0,.257.318.702.707.989.389.288,1.051,1.063,1.471,1.723c1.446,2.27,5.922,6.2,7.062,6.2.284,0-.334-.539-1.374-1.199-1.04-.659-1.991-1.462-2.115-1.785-.124-.322-.523-.682-.888-.8s-1.113-.881-1.663-1.694c-1.383-2.047-3.2-3.996-3.2-3.434m-35.949.712c-.003.44.445,1.7.994,2.8c1.147,2.297.98.836-.212-1.849-.466-1.052-.779-1.431-.782-.951m71.041.442c-.161.16-.292.567-.292.905c0,.45.118.495.445.168.245-.245.376-.652.292-.905-.085-.253-.285-.329-.445-.168m15.886,1.136c-.151.803-.174,1.559-.052,1.682.122.122.346-.435.496-1.238.151-.803.174-1.559.052-1.682-.122-.122-.346.435-.496,1.238m-16.978.999c0,.208-.51.679-1.133,1.047s-1.368,1.046-1.656,1.507c-.287.46.402.062,1.533-.884c2.12-1.775,2.34-2.047,1.656-2.047-.22,0-.4.17-.4.377m36.982,1.405c-.153,1.02-.18,1.953-.06,2.073s.343-.616.496-1.637c.153-1.02.18-1.953.06-2.073s-.343.616-.496,1.637m-20.78.921c-.247,1.062-.85,1.644-3.256,3.144-2.717,1.693-4.552,3.227-2.631,2.198c4.248-2.273,6.714-4.586,6.363-5.966-.113-.443-.279-.227-.476.624m-84.146.697c0,.44.155,1.16.344,1.6l.344.8v-.8c0-.44-.155-1.16-.344-1.6l-.344-.8v.8m20.746-.286c-.002.583,1.17,2.535,1.789,2.98.843.606,1.064.278.265-.394-.457-.385-1.106-1.24-1.442-1.9-.335-.66-.61-.969-.612-.686m42.978,1.258c-.209.205-1.28.735-2.38,1.178-1.1.444-1.769.816-1.487.828s1.141-.24,1.908-.561c1.621-.677,3.345-1.817,2.748-1.817-.225,0-.58.167-.789.372m40.62.773c0,.41-.54,2.054-1.2,3.655s-1.186,3.29-1.168,3.755c.024.657.121.578.436-.355.222-.66.745-1.955,1.16-2.878.795-1.766,1.451-4.922,1.023-4.922-.138,0-.251.335-.251.745M151.695,225.8c0,.66.137,1.74.305,2.4l.305,1.2v-1.2c0-.66-.137-1.74-.305-2.4l-.305-1.2v1.2M175,225.2c.136.22.507.4.824.4s.576.145.576.323c0,.388,3.173,1.838,3.439,1.571.103-.102-.404-.423-1.126-.713s-1.742-.854-2.267-1.254c-1.033-.788-1.844-.971-1.446-.327m21.4-.205c0,.107.63.457,1.399.779.77.321,1.61,1.048,1.869,1.615.978,2.148,6.565,2.021,7.281-.166.355-1.084.749-1.457,1.851-1.752.77-.206,1.166-.459.88-.563-.519-.187-2.899.614-3.28,1.104-.625.805-4.337,1.038-5.257.331-.519-.399-1.427-.729-2.019-.734s-1.188-.189-1.324-.409c-.248-.401-1.4-.57-1.4-.205m30.2,2.205c-.136.22.023.4.353.4s.711-.18.847-.4-.023-.4-.353-.4-.711.18-.847.4M181,228c1.196.514,2.195.514,1.4,0-.33-.213-.96-.378-1.4-.366l-.8.022.8.344m42.8,0l-.8.344.8.022c.44.012,1.07-.153,1.4-.366.795-.514-.204-.514-1.4,0m-38,1.51l2.4,1.076l14.481.125c14.034.122,14.539.1,16.339-.72c1.022-.466,1.76-.945,1.64-1.065-.12-.119-1.004.163-1.965.628-1.934.936-28.219,1.341-29.8.459-.915-.51-4.39-1.618-5.009-1.596-.267.009.594.501,1.914,1.093m-32.99,3.363c-.011.771,2.414,4.836,2.709,4.541.107-.107.005-.424-.226-.704-.232-.281-.883-1.41-1.447-2.51s-1.03-1.697-1.036-1.327m98.666,3.531c-.471,1.326-1.083,2.191-1.887,2.666-.654.386-1.189.803-1.189.925c0,.123-.63.562-1.4.977s-1.4.877-1.4,1.027-.473.488-1.052.752c-.578.263-.954.577-.834.696.212.213,1.881-.743,3.079-1.764.334-.284,1.515-1.204,2.625-2.044c1.457-1.103,2.169-1.988,2.564-3.185.78-2.364.332-2.408-.506-.05m-91.836,5.26c.968.695,1.874,1.437,2.014,1.649.139.211.499.303.799.203.366-.122.217-.355-.454-.708-.549-.29-1.508-.95-2.13-1.467-.622-.518-1.324-.941-1.56-.941s.363.569,1.331,1.264M163.6,244c.33.213.87.388,1.2.388.533,0,.533-.043,0-.388-.33-.213-.87-.388-1.2-.388-.533,0-.533.043,0,.388m78,0c-.533.345-.533.388,0,.388.33,0,.87-.175,1.2-.388.533-.345.533-.388,0-.388-.33,0-.87.175-1.2.388m-2.4.696c-1.102.428-4.497,2.904-3.983,2.904.279,0,1.108-.458,1.842-1.018s1.921-1.273,2.638-1.584c1.229-.535.789-.801-.497-.302m-72,.27c0,.308,4.086,2.682,4.281,2.487.106-.107-.331-.465-.973-.797-.641-.332-1.4-.885-1.686-1.23-.463-.558-1.622-.887-1.622-.46M232.8,248c-.533.345-.533.388,0,.388.33,0,.87-.175,1.2-.388.533-.345.533-.388,0-.388-.33,0-.87.175-1.2.388m-57.525,1.088c.627.389,1.358,1.427,1.753,2.49.372,1.002.834,1.993,1.025,2.202.46.504.453,36.62-.007,36.62-.41,0-1.805,2.774-1.533,3.047.1.1.481-.447.845-1.216.365-.768.839-1.505,1.053-1.638.243-.15.389-7.085.389-18.477v-18.236l-1.055-2.156c-.999-2.042-2.224-3.337-3.134-3.313-.226.005.073.31.664.677m53.985.354c-.298.336-.461.69-.365.787.097.097.503-.185.903-.627.399-.441.563-.795.364-.787-.199.009-.605.29-.902.627M228.186,273.2c0,11.33.051,15.965.114,10.3.062-5.665.062-14.935,0-20.6-.063-5.665-.114-1.03-.114,10.3m-53.68,22.725c-.932,1.035-1.999,2.33-2.37,2.878-.372.548-1.364,1.758-2.206,2.688-.841.93-1.529,1.92-1.527,2.2.001.28.316.038.7-.538.919-1.38,3.047-3.91,5.397-6.415c1.045-1.114,1.9-2.185,1.9-2.381c0-.522-.045-.485-1.894,1.568m55.097.146c.552.511,1.44,1.559,1.974,2.329s1.55,2.056,2.258,2.859c1.128,1.277,1.848,2.526,2.733,4.741.132.33.153.019.048-.691-.202-1.354-2.071-4.509-2.673-4.509-.193,0-.879-.859-1.525-1.909-.646-1.049-1.769-2.322-2.496-2.829l-1.322-.92l1.003.929M201.168,306.24c-.532.57-1.733,1.486-2.668,2.036s-1.7,1.157-1.7,1.349c0,.311-1.326,1.662-3.607,3.675-.436.385-.779,1.015-.761,1.4.024.545.082.57.262.113.279-.71,6.005-6.413,6.438-6.413.169,0,.908-.594,1.644-1.32l1.338-1.319l1.399,1.319c.769.726,1.599,1.32,1.843,1.32.244-.001-.096-.445-.756-.988s-1.484-1.262-1.832-1.598c-.569-.549-.729-.507-1.6.426m-34.065.96c-.472,1.617-.388,2.789.135,1.89.227-.391.355-1.201.285-1.8l-.128-1.09-.292,1m69.929.8c.358,1.818.377,6.181.065,14.6-.18,4.879-.151,5.896.103,3.6.621-5.609.672-17.889.079-18.8-.465-.713-.492-.647-.247.6m-30.219,1.004c-.007.223.614,1.123,1.379,2c.766.878,1.396,1.462,1.4,1.299.005-.163-.345-.703-.776-1.2s-1.055-1.263-1.387-1.703-.609-.618-.616-.396M166.524,312.2c.002,1.32.077,1.812.166,1.093s.087-1.799-.004-2.4-.164-.013-.162,1.307m44.125,1.1c1.378,1.572,2.072,4.631,2.337,10.3.139,2.97.414,7.65.612,10.4s.547,7.97.776,11.6c.23,3.63.596,7.14.814,7.8.354,1.074.377,1.011.214-.6-.1-.99-.358-5.13-.573-9.2s-.576-9.74-.802-12.6-.503-6.879-.617-8.931c-.236-4.272-1.068-7.551-2.235-8.804-1.07-1.148-1.536-1.117-.526.035M166.904,319c-.01,2.42.113,6.02.275,8l.294,3.6.024-4.6c.013-2.53-.111-6.13-.275-8l-.298-3.4-.02,4.4m24.731-2.13c-.251.722-.633,5.636-.849,10.921s-.571,11.26-.789,13.277c-.218,2.018-.397,4.826-.397,6.24c0,1.415-.165,3.094-.367,3.732-.566,1.788-.911,5.022-.404,3.787c1.075-2.62,1.944-12.949,2.628-31.227.111-2.97.393-5.901.626-6.513.234-.612.331-1.206.217-1.32s-.413.382-.665,1.103m44.924,20.33c0,3.19.062,4.495.138,2.9s.076-4.205,0-5.8-.138-.29-.138,2.9m-68.919,2.833c.022,3.172.183,7.297.358,9.167.2,2.135.241.051.11-5.6-.114-4.95-.275-9.075-.358-9.167-.082-.091-.132,2.429-.11,5.6m68.264,11.885c-.418,3.565-2.538,6.908-5.216,8.229-.944.465-1.078.637-.504.644c2.431.028,6.427-6.351,6.145-9.809-.113-1.385-.166-1.268-.425.936m-67.104,3.44c0,.185.525.934,1.167,1.665.641.731,1.316,1.576,1.5,1.877.476.784,2.203,1.902,2.922,1.891.336-.005.071-.278-.589-.606s-1.56-1.05-2-1.605c-1.726-2.174-3-3.543-3-3.222m47.631,1.842c-.035,1.105,1.978,2.817,3.969,3.376.55.154.046-.281-1.12-.967-1.166-.687-2.28-1.644-2.475-2.129-.203-.505-.362-.624-.374-.28m-29.829,1.598c-.399.441-.595.802-.435.802.421,0,1.561-1.205,1.345-1.421-.101-.101-.51.177-.91.619m-5.712,2.309c-1.791.521-2.351.535-3.702.089-.876-.289-1.702-.415-1.837-.28s.271.369.902.52s1.329.416,1.552.589c.448.349,3.335-.248,5.195-1.074c1.562-.694.554-.619-2.11.156m40.884.05c.15.244.701.443,1.224.443.522,0,1.418.178,1.989.395.62.236,1.317.252,1.726.041.378-.194,1.137-.556,1.687-.803.963-.432.956-.439-.2-.194-1.794.381-3.836.384-5.35.01-.958-.237-1.271-.206-1.076.108"
       fill="#94787c"
       fill-rule="evenodd"
       id="path25232"
       style="fill:#fffeff;fill-opacity:1" />
    <path
       d="M197.8,33.184c-2.383.619-7.706,1.201-13,1.42-13.811.572-19.593,1.324-21.822,2.837-.887.602-2.212.998-3.864,1.156-8.594.82-11.7,1.52-13.314,3.001-.44.404-1.7.849-2.8.989-7.001.894-9.73,1.683-10.967,3.173-.282.34-1.17.72-1.973.845-5.966.922-8.697,1.784-9.56,3.016-.318.455-1.229.822-2.406.969-6.219.781-8.701,1.505-9.971,2.911-.656.725-1.517,1.059-3.4,1.319-4.527.623-7.371,1.586-8.205,2.775-.329.47-1.249.86-2.424,1.028-4.242.604-7.89,1.819-8.878,2.959-.359.413-1.364.863-2.234,1-6.053.951-7.745,1.542-8.905,3.111-.287.389-.702.707-.922.707-1.873,0-5.431,2.813-6.486,5.129-.239.522-.999,1.567-1.69,2.322-3.692,4.031-3.176,21.995.714,24.872.389.287.707.719.707.96c0,1.205,2.164,4.743,3.035,4.962.515.129,1.044.622,1.176,1.095.584,2.098,2.501,4.658,3.489,4.66.165,0,.302.315.304.7.005,1.025,2.27,4.804,3.166,5.284.714.382,2.03,2.506,2.03,3.277c0,.543,1.548,1.939,2.15,1.939.303,0,.657.535.788,1.188.292,1.462,2.08,4.354,3.271,5.291.486.381,1.127,1.285,1.427,2.007.706,1.706,1.585,2.714,2.367,2.714.343,0,.968.585,1.388,1.3c1.216,2.07,3.562,3.473,5.841,3.494.348.003,1.448.419,2.446.924c1.61.815,2.672,1.189,6.284,2.21.562.159,1.299.921,1.77,1.831.444.857,1.319,1.847,1.944,2.2.73.411,1.279,1.162,1.534,2.098.234.858,1.054,2.05,1.994,2.899.878.793,1.596,1.652,1.596,1.908c0,.775,2.444,4.332,3.287,4.783.434.232,1.137,1.209,1.562,2.172.431.974,1.289,2.054,1.935,2.435.702.415,1.42,1.365,1.817,2.405.361.945,1.218,2.191,1.905,2.769.686.577,1.651,1.887,2.142,2.911.907,1.886,2.316,3.661,2.907,3.661.178,0,.665.765,1.081,1.7.779,1.746,1.993,3.063,2.846,3.087.265.007.601.648.747,1.424.166.888.899,2.065,1.976,3.172.941.969,2.134,2.609,2.652,3.645.517,1.035,1.391,2.163,1.942,2.506.55.343,1.062.664,1.136.713.422.28.898,3.722,1.053,7.627.186,4.674,1.013,8.129,2.268,9.477.405.436.8,1.697.938,3c.951,8.965,1.734,12.591,3.017,13.968.599.644.89,1.801,1.194,4.766.683,6.636,1.169,8.291,2.764,9.409.426.298.897,1.031,1.047,1.628.258,1.026,2.046,2.678,2.898,2.678.215,0,.845.596,1.401,1.324.956,1.254,4.418,2.676,6.513,2.676.352,0,1.233.585,1.957,1.3.936.924,2.171,1.541,4.266,2.131l2.949.831.682,1.969c1.022,2.948,1.064,36.968.049,40.223-.701,2.25-1.545,3.546-2.309,3.546-.25,0-.97.884-1.601,1.965-.631,1.08-1.562,2.153-2.067,2.383-1.018.464-2.398,3.012-2.804,5.18-.145.772-.709,2.049-1.253,2.838-1.153,1.671-1.08,9.913.143,16.234.712,3.681,1.276,13.139,1.335,22.4.06,9.445,2.503,15,6.596,15c.279,0,.939.377,1.468.838c2.521,2.199,6.139,2.346,8.294.338.414-.385,1.753-1.158,2.976-1.717c1.496-.685,2.309-1.319,2.483-1.938.348-1.241.908-2.567,1.992-4.721c1.567-3.113,1.753-5.013,2.047-20.955.307-16.677.561-18.719,2.444-19.658c1.332-.664,2.181-1.482,2.554-2.462.194-.51,1.143-1.284,2.163-1.763c1-.47,1.898-.984,1.995-1.141.271-.438,4.603,1.708,4.608,2.283.007.702,2.033,2.734,3.039,3.048c1.458.455,1.842,3.204,2.184,15.648.452,16.416.904,22.075,1.903,23.808.441.766.928,2.022,1.084,2.792.532,2.641,1.728,4.221,3.92,5.178c1.123.49,2.319,1.201,2.658,1.579c1.702,1.898,8.417,1.589,8.417-.387c0-.156.495-.407,1.1-.558c1.243-.31,3.465-1.877,4.785-3.375c1.332-1.512,1.717-4.128,2.127-14.437.205-5.17.656-11.38,1.001-13.8c1.899-13.303,1.998-20.005.345-23.2-.683-1.32-1.561-3.253-1.952-4.295-.464-1.236-1.302-2.379-2.412-3.289-.936-.767-1.812-1.834-1.947-2.372s-.862-1.359-1.616-1.825c-1.861-1.15-1.91-1.817-1.757-24.29.151-22.081-.156-21.125,7.16-22.309.79-.127,2.049-.787,2.8-1.465c1.53-1.381,2.475-1.815,5.246-2.409c1.451-.312,2.313-.834,3.594-2.178.927-.972,1.892-1.768,2.144-1.768c1.408,0,3.382-4.019,3.382-6.886c0-.53.357-1.347.794-1.815c1.556-1.671,2.522-5.634,2.983-12.241.121-1.729.483-3.619.804-4.2c2.044-3.7,2.722-6.424,3.251-13.058.14-1.76.372-4.692.515-6.517.143-1.824.452-3.444.688-3.6.235-.155.704-.823,1.042-1.483s.907-1.74,1.266-2.4.653-1.507.655-1.881c.001-.38.602-.966,1.359-1.325.996-.473,1.571-1.16,2.162-2.58.455-1.096,1.142-2.043,1.583-2.183.429-.136,1.246-1.099,1.815-2.139.57-1.041,1.856-2.792,2.858-3.892c1.062-1.165,1.927-2.555,2.074-3.329.165-.872.561-1.447,1.154-1.672c1.042-.396,2.369-2.147,2.727-3.599.136-.55.782-1.301,1.436-1.668.661-.372,1.625-1.526,2.173-2.6.541-1.063,1.711-2.716,2.6-3.674s1.729-2.257,1.867-2.885c.155-.705.766-1.462,1.595-1.974.883-.545,1.578-1.441,2.022-2.604.373-.975.97-1.867,1.327-1.981.696-.223,3.018-3.49,3.422-4.814.442-1.45,4.811-4.2,6.672-4.2c1.166,0,1.984-.289,2.829-1c.654-.55,1.512-1,1.907-1c2.436,0,7.847-3.964,8.584-6.288.147-.463.89-1.316,1.652-1.897.761-.581,1.384-1.325,1.384-1.655c0-1.087,1.123-2.796,2.142-3.261.595-.271,1.339-1.22,1.834-2.337.457-1.034,1.508-2.619,2.336-3.521.827-.903,1.74-2.365,2.03-3.249.345-1.057.998-1.918,1.904-2.512.88-.577,1.465-1.333,1.616-2.092.131-.653.396-1.188.588-1.188.193,0,.35-.226.35-.501c0-.276.548-1.019,1.218-1.651c1.265-1.194,2.782-3.801,2.782-4.781c0-.31.61-.982,1.356-1.493c1.32-.905,2.644-4.065,2.644-6.312c0-.413.469-1.441,1.042-2.285c1.96-2.89,1.996-8.654.071-11.46-.409-.596-1.105-2.486-1.547-4.2-.719-2.792-1.01-3.308-2.784-4.945-1.09-1.005-1.982-2.008-1.982-2.228c0-1.033-4.234-3.344-6.126-3.344-.273,0-.762-.371-1.086-.825-.831-1.165-2.451-1.803-6.586-2.591-2.571-.49-3.753-.907-4.14-1.46-.831-1.187-3.196-1.984-7.993-2.697-1.638-.243-2.766-.646-3.2-1.142-1.293-1.482-3.988-2.368-9.363-3.081-1.193-.158-2.09-.532-2.424-1.009-.818-1.167-5.746-2.795-8.464-2.795-.949,0-1.834-.411-3.021-1.403-.924-.771-2.111-1.491-2.638-1.6-.527-.108-1.454-.307-2.059-.442s-2.33-.386-3.832-.558c-2.111-.24-2.868-.505-3.327-1.16-.996-1.422-3.353-2.093-10.726-3.053-1.169-.152-2.248-.561-2.623-.994-1.258-1.449-4.633-2.213-13.292-3.006-1.485-.136-2.7-.385-2.7-.553c0-.368-2.072-1.384-4-1.961-.77-.23-4.46-.62-8.2-.865-3.74-.246-9.23-.608-12.2-.805s-6.93-.634-8.8-.971c-3.576-.645-9.767-.773-11.8-.245m21.6,2.398c12.698.808,16.444,1.285,19.2,2.446c1.113.469,5.46,1.416,8.8,1.918c1.54.231,3.597.539,4.572.684.975.146,2.345.586,3.045.98c1.623.911,4.677,1.793,8.98,2.594c1.869.348,3.939.95,4.6,1.34c1.917,1.127,7.623,2.854,9.449,2.858.525.002,1.494.297,2.154.657c3.161,1.724,4.636,2.316,7.513,3.015c1.712.416,3.894,1.192,4.849,1.726c1.66.926,7.112,2.6,8.47,2.6.724,0,3.454,1.196,3.776,1.654.43.612,4.604,1.902,8.192,2.532.88.155,2.14.683,2.8,1.174c1.241.923,4.091,1.913,7.648,2.656c1.127.235,2.387.736,2.8,1.111.414.376,1.562,1.013,2.552,1.415c3.49,1.419,6,2.653,6.007,2.954.004.167.916,1.281,2.026,2.475c2.975,3.197,3.601,4.726,4.831,11.798.81,4.656-1.098,13.222-3.525,15.819-.713.764-1.4,1.801-1.527,2.306s-.541,1.291-.921,1.746-1.099,1.307-1.598,1.894c-.499.586-1.294,1.876-1.768,2.866s-1.463,2.396-2.198,3.124-1.578,1.902-1.873,2.61c-.296.707-1.198,1.986-2.005,2.841-.806.856-1.572,1.976-1.701,2.49s-.395.935-.591.935c-.197,0-.357.225-.357.5s-.72,1.288-1.6,2.251c-.88.962-1.6,1.985-1.6,2.271c0,.287-.655,1.209-1.456,2.05-.801.84-1.782,2.056-2.18,2.701-1.518,2.459-5.866,5.738-7.997,6.031-1.081.149-2.067.434-2.19.633-.123.2-1.168.363-2.322.363-1.886,0-2.237.145-3.477,1.439-.758.791-1.738,1.582-2.178,1.758s-1.16,1.014-1.6,1.861c-.897,1.729-1.233,2.217-2.44,3.538-.462.506-1.412,1.85-2.111,2.987-.7,1.137-1.793,2.576-2.431,3.199-.637.623-1.517,1.827-1.955,2.675-.438.849-1.146,1.754-1.574,2.011-.427.258-1.368,1.518-2.091,2.8-.723,1.283-1.655,2.572-2.072,2.866-.416.293-1.315,1.522-1.998,2.731-.682,1.209-1.582,2.409-1.999,2.667-.417.257-1.285,1.398-1.928,2.534-.644,1.137-1.501,2.307-1.905,2.6-.404.294-1.385,1.584-2.181,2.868-.796,1.283-2.003,2.943-2.681,3.689-.679.746-1.234,1.512-1.234,1.704s-.9,1.377-2,2.634-2,2.465-2,2.684-.552.974-1.228,1.677c-1.712,1.782-2.042,2.786-2.199,6.678-.242,5.985-1.428,13.344-2.482,15.4-.737,1.436-2.091,6.69-2.091,8.111c0,1.781-1.273,7.439-2.032,9.03-.404.848-1.024,2.828-1.376,4.4-1.224,5.453-1.422,5.869-3.574,7.498-1.11.84-2.291,1.76-2.625,2.044-1.354,1.154-2.805,1.902-5.236,2.697-1.406.46-3.277,1.339-4.157,1.954-1.46,1.021-5.197,2.466-6.376,2.466-.267,0-.921.464-1.454,1.032l-.97,1.032-.116,21.814-.117,21.815l1.559,1.453c.857.8,2.037,2.219,2.621,3.154.585.935,1.217,1.7,1.405,1.7s.813.712,1.389,1.582c.975,1.475,1.249,2.266,2.312,6.699.274,1.139.266,4.17-.024,9.4-.235,4.245-.615,13.659-.845,20.919-.229,7.26-.603,13.933-.832,14.829-.685,2.682-3.893,5.957-6.665,6.803-1.258.385-2.469.836-2.692,1.004-.39.293-3.143-.202-4.795-.862-3.735-1.493-5.4-2.698-5.4-3.91c0-.387-.156-.875-.346-1.084-.718-.789-1.321-4.556-1.691-10.564-.211-3.419-.55-8.556-.754-11.416s-.484-7.63-.623-10.6c-.329-7.053-.886-8.734-3.872-11.695-1.273-1.262-2.314-2.459-2.314-2.661c0-.201-.515-.545-1.145-.765s-1.682-.924-2.338-1.565l-1.192-1.165-1.343,1.326c-.739.729-1.481,1.325-1.65,1.325-.168,0-1.632,1.309-3.253,2.909-3.658,3.611-4.147,5.007-4.441,12.691-1.06,27.66-2.109,34.109-5.838,35.873-3.406,1.611-7.148,2.649-7.795,2.163-.223-.168-1.436-.62-2.696-1.005-2.251-.688-2.615-.966-5.083-3.886-1.744-2.063-2.005-3.99-2.435-17.945-.207-6.71-.558-15.8-.779-20.2s-.299-8.63-.173-9.4c.567-3.47,2.007-6.981,3.364-8.2.489-.44,1.39-1.52,2.001-2.4s1.834-2.355,2.717-3.278c.883-.924,1.721-2.204,1.862-2.846.141-.643.608-1.545,1.037-2.005c1.226-1.316,1.208-35.435-.02-37.977-.44-.91-.8-1.837-.8-2.059c0-.771-1.692-1.973-3.705-2.632-1.114-.364-2.99-1.279-4.168-2.032-1.178-.754-2.298-1.371-2.489-1.371-.963,0-4.739-1.468-5.438-2.114-.44-.406-1.43-1.115-2.2-1.575-1.407-.84-3.2-2.472-3.2-2.913c0-.13-.607-1.185-1.348-2.344-1.112-1.738-1.468-2.875-2.029-6.481-.883-5.667-1.641-8.843-2.578-10.797-.415-.867-1.06-3.646-1.432-6.176-.688-4.678-1.668-9.076-2.184-9.8-.68-.955-1.204-3.904-1.406-7.925-.23-4.554-.954-6.344-3.387-8.371-.46-.383-.836-.968-.836-1.3s-.18-.604-.4-.604-.4-.233-.4-.517c0-.285-.9-1.582-2-2.883s-2-2.561-2-2.799c0-.239-.72-1.096-1.6-1.905s-1.6-1.702-1.6-1.984c-.001-.493-1.142-2.04-2.739-3.712-.421-.44-1.246-1.7-1.835-2.8s-1.465-2.363-1.948-2.807c-.483-.443-1.359-1.543-1.946-2.444-.588-.9-1.549-2.157-2.135-2.793-1.462-1.586-5.821-7.673-6.789-9.481-.436-.814-1.069-1.568-1.408-1.675s-.965-.871-1.393-1.698c-.427-.826-1.504-2.334-2.392-3.351-.888-1.016-2.059-2.474-2.601-3.24-.657-.927-1.524-1.548-2.6-1.861-3.342-.972-5.664-1.564-7.2-1.837-2.803-.498-7.473-4.263-9.281-7.483-.915-1.63-1.042-1.811-2.464-3.53-.637-.77-1.459-1.988-1.827-2.707-.369-.719-1.294-1.949-2.056-2.734s-1.388-1.637-1.39-1.893-.867-1.579-1.923-2.939c-1.055-1.36-2.348-3.307-2.873-4.327-.524-1.02-1.279-2.028-1.677-2.241s-1.156-1.236-1.684-2.273-1.438-2.332-2.023-2.878c-.585-.545-1.71-2.3-2.5-3.9-.791-1.599-1.547-2.908-1.681-2.908-1.2,0-2.402-5.265-2.421-10.6-.021-5.995.676-8.67,3.238-12.436c2.837-4.167,3.349-4.651,6.57-6.204c1.507-.727,3.04-1.622,3.407-1.989s2.086-.973,3.819-1.346c4.371-.94,5.699-1.369,7.6-2.456c1.545-.883,3.089-1.381,6.629-2.137.812-.174,2.612-.873,4-1.553s4.302-1.702,6.477-2.272s4.71-1.479,5.633-2.021c.923-.541,3.284-1.331,5.246-1.756c4.503-.976,5.623-1.329,7.394-2.329.785-.443,2.045-.932,2.8-1.086c2.691-.55,8.046-2.201,8.373-2.582.594-.692,2.283-1.243,5.647-1.843c4.678-.834,7.74-1.684,9.376-2.603.695-.39,3.314-1.002,5.82-1.36c5.542-.791,9.435-1.621,12.357-2.635c6.032-2.093,33.337-3.161,51.4-2.01m-31.2,87.242c-2.42.157-7.01.482-10.2.722s-8.59.618-12,.839c-6.13.397-10.599.99-12.251,1.625-1.346.519-5.667,1.479-9.093,2.021-4.262.674-4.617,1.089-4.164,4.867.191,1.596.503,3.262.692,3.702s.736,1.654,1.215,2.698c.873,1.904,1.668,5.172,2.165,8.902.146,1.1.868,3.53,1.604,5.4c1.398,3.553,2.009,5.932,2.458,9.568.147,1.193.812,3.443,1.476,5c1.318,3.088,2.057,5.933,2.491,9.596.154,1.301.428,2.651.609,3c.18.35.933,1.895,1.673,3.434c1.101,2.288,1.657,2.97,3.057,3.742.941.519,2.157,1.651,2.703,2.515.546.865,1.328,1.908,1.739,2.319.78.78,1.758,3.762,2.237,6.826.154.99.821,2.961,1.481,4.381c1.375,2.96,2.115,5.378,2.504,8.183.15,1.08.862,3.24,1.584,4.8.721,1.56,1.434,3.35,1.584,3.978.432,1.81,1.485,3.12,3.018,3.752.78.322,1.688.804,2.018,1.071.732.591,3.239,1.6,5.4,2.173c4.125,1.093,6.432,1.816,6.78,2.125.873.775,27.934.396,29.522-.413.809-.413,2.873-1.07,4.585-1.462c1.712-.391,3.284-.863,3.493-1.049.209-.187.585-.339.837-.339.251,0,1.969-.989,3.817-2.199c3.779-2.471,3.721-2.365,5.124-9.401.408-2.046,1.125-3.93,1.674-4.4.53-.453,2.368-7.238,2.368-8.738c0-.4.45-1.612,1-2.694s1.347-2.966,1.771-4.185c1.671-4.808,2.313-5.67,5.353-7.188c2.683-1.34,3.202-2.364,4.044-7.974.147-.979.789-2.874,1.428-4.212.638-1.337,1.373-3.687,1.633-5.22.886-5.22,1.058-5.989,1.744-7.789c1.416-3.714,2.167-6.283,2.629-9c.595-3.494,1.304-5.937,2.322-8c.434-.88,1.004-2.86,1.267-4.4.974-5.72,1.624-8.262,2.556-10c.863-1.609-.008-2.279-4.121-3.172-1.664-.361-4.556-1.018-6.426-1.46-7.187-1.698-8.803-1.946-15.4-2.364-3.74-.237-9.05-.608-11.8-.825-14.536-1.143-29.804-1.43-40.2-.755m51.2,2.548c5.116.451,7.101.809,9.896,1.784c2.627.917,4.664,1.309,8.2,1.579c5.697.435,7.117.895,6.708,2.172-.157.491-.451,2.153-.654,3.693-.739,5.629-1.283,8.022-2.044,9-1.268,1.628-1.84,3.399-2.098,6.488-.296,3.543-1.068,7.512-1.461,7.512-.707,0-2.285,4.384-2.52,7-.408,4.528-1.105,7.555-1.867,8.101-.975.7-1.575,2.71-2.533,8.496-.718,4.339-.932,5.016-1.627,5.14-3.767.67-6.103,3.139-6.785,7.172-.151.896-.523,1.724-.827,1.84-.957.367-2.051,3.134-2.55,6.451-.265,1.76-.563,3.719-.661,4.354-.098.634-.526,1.455-.95,1.823-1.283,1.113-2.243,4.395-3.007,10.278-.269,2.069-1.65,3.601-4.83,5.355-1.314.726-2.66,1.635-2.99,2.021-.399.466-2.074.973-5,1.512-7.818,1.442-7.535,1.434-9.4.257-1.973-1.246-2.02-1.157,1.209-2.313c1.908-.683,2.699-1.203,3.19-2.098.359-.654,1.317-1.549,2.129-1.989.813-.44,1.581-1.16,1.707-1.6.39-1.36,1.724-3.949,2.591-5.031c2.234-2.785,2.109-14.366-.168-15.641-.323-.18-1.092-1.613-1.708-3.184-.985-2.51-1.352-2.999-3.035-4.034-1.053-.648-1.915-1.421-1.915-1.717c0-1.156-3.306-2.7-6.868-3.208-1.028-.146-2.235-.608-2.683-1.026-1.133-1.055-5.184-1.052-7.195.007-.799.421-2.498.957-3.774,1.19-3.152.578-5.036,1.529-5.328,2.692-.134.536-.536.952-.92.952-.933,0-2.426,1.462-2.91,2.852-.22.631-.555,1.148-.745,1.148-4.121,0-4.88,19.591-.91,23.519.733.726,1.333,1.493,1.333,1.705c0,1.104,4.675,5.041,6.6,5.557c1.1.295,2.159.679,2.354.852c1.141,1.015-4.208,2.674-6.44,1.997-.613-.185-2.374-.55-3.914-.811-4.805-.812-5.048-.88-5.276-1.474-.27-.702-2.997-2.145-4.054-2.145-1.731,0-2.736-1.409-2.997-4.198-.194-2.075-.512-3.004-1.502-4.382-1.189-1.656-2.32-5.404-2.359-7.82-.023-1.419-.754-3.881-1.332-4.487-1.257-1.316-1.839-2.833-2.428-6.331-.568-3.378-.776-3.91-1.949-4.982-.721-.66-1.58-1.728-1.907-2.373-.384-.756-1.255-1.453-2.45-1.96-1.718-.729-1.871-.914-2.091-2.518-.252-1.839-.775-2.988-2.027-4.451-.77-.9-1.017-2.055-1.824-8.498-.339-2.704-.703-3.851-1.777-5.6-1.188-1.936-1.43-2.821-2.017-7.38-.682-5.291-.951-6.204-2.253-7.638-.754-.831-1.662-4.935-2.146-9.708-.239-2.357-.599-3.265-2.264-5.714-.895-1.317-1.314-5.323-.617-5.902.289-.24,2.863-.614,5.719-.832c5.2-.395,7.64-.886,11.751-2.362c5.409-1.942,61.84-2.71,80.2-1.092m33.875,6.791c-.442.749-1.115,2.761-1.496,4.472-.38,1.711-1.014,3.662-1.407,4.338-.394.675-1.007,2.577-1.361,4.227-.355,1.65-.818,3.768-1.028,4.706-.211.938-.383,2.028-.383,2.421c0,.394-.441,1.606-.98,2.694-1.05,2.12-1.705,4.375-2.202,7.579-.559,3.611-1.304,6.328-2.13,7.776-1.01,1.77-1.47,7.282-.686,8.226.688.829,1.442.153,1.769-1.586.236-1.261.718-1.887,2.857-3.71.456-.388,1.176-1.333,1.6-2.1.425-.767,1.447-2.079,2.272-2.916.825-.836,1.5-1.773,1.5-2.082c0-.308.765-1.349,1.7-2.311.935-.963,2.06-2.458,2.5-3.324.44-.865,1.302-2.134,1.916-2.82s1.624-2.049,2.246-3.028c.621-.98,1.576-2.133,2.122-2.562.545-.429,1.302-1.433,1.68-2.232.379-.798,1.217-1.964,1.863-2.591s1.579-1.937,2.074-2.912c.494-.974,1.47-2.38,2.168-3.123c2.746-2.924,2.848-3.743.736-5.923-.858-.887-5.74-2.579-8.605-2.984-4.42-.624-7.151-1.12-7.56-1.373-.199-.123-.723.389-1.165,1.138M128.6,131.675c-.88.181-2.95.532-4.6.779-3.674.55-6.852,1.955-8.96,3.961l-1.591,1.514l1.475,1.475c.812.812,1.476,1.742,1.476,2.067c0,.326.72,1.304,1.6,2.175.879.871,1.953,2.252,2.385,3.069s1.448,2.205,2.258,3.085c.809.88,1.703,2.14,1.986,2.8.282.66,1.246,1.98,2.142,2.934.896.953,1.629,1.918,1.629,2.143c0,.226.9,1.396,2,2.599c1.1,1.204,2,2.424,2,2.712s.636,1.219,1.413,2.068s1.898,2.354,2.492,3.344s1.669,2.391,2.388,3.114c.719.722,1.55,1.892,1.845,2.6.897,2.144,1.595,2.477,2.878,1.374l1.097-.944-.484-3.372c-.577-4.017-1.458-7.243-2.472-9.049-.408-.726-.948-2.535-1.2-4.021-1.043-6.135-1.534-8.019-2.7-10.349-.454-.906-1.035-2.886-1.292-4.4-1.486-8.756-1.568-8.959-4.565-11.283-.793-.615-1.628-.718-3.2-.395m2.797,1.997c.552.48,1.003,1.103,1.003,1.384s.429.924.953,1.428c.808.777,1.056,1.677,1.63,5.916.774,5.723,1.205,7.286,2.503,9.082.985,1.362,1.005,1.447,1.758,7.318.506,3.95,1.367,6.553,2.561,7.748.86.86,1.398,7.556.644,8.021-.259.161-.558-.031-.695-.444-.649-1.964-1.475-3.366-2.706-4.597-.744-.744-1.726-2.049-2.182-2.9s-1.531-2.222-2.389-3.047c-.858-.824-1.665-2.023-1.793-2.663-.16-.8-.68-1.405-1.659-1.932-.784-.423-1.425-.976-1.425-1.231c0-.812-1.102-2.625-2.5-4.113-.745-.793-1.702-2.188-2.127-3.1-.425-.911-1.272-1.991-1.881-2.4-.609-.408-1.5-1.552-1.979-2.542-1.028-2.122-1.449-2.599-2.632-2.974-.484-.154-.881-.6-.881-.991c0-.997-1.17-3.235-1.691-3.235-.716,0,.736-1.346,2.366-2.192.839-.435,2.004-1.133,2.59-1.55c2.401-1.707,8.993-2.324,10.532-.986m150.003-.318c1.823.333,3.428.934,4.6,1.722.99.667,2.317,1.336,2.948,1.488c2.122.509,2.809,3.036.826,3.036-.601,0-1.829,1.495-2.778,3.381-.438.87-1.394,2.182-2.126,2.917-.731.734-1.603,2.138-1.938,3.119-.334.98-.829,1.783-1.1,1.783-.687,0-2.007,1.528-2.8,3.242-.368.793-1.132,1.691-1.7,1.994-.568.304-1.46,1.457-1.985,2.565-.931,1.968-2.677,4.199-3.284,4.199-.168,0-.629.9-1.024,2-.396,1.1-.94,2-1.209,2-.678,0-2.076,1.596-2.437,2.781-.533,1.751-1.302,2.226-2.235,1.381-.53-.48-.725-1.01-.568-1.546.132-.449.411-2.526.621-4.616.366-3.646.978-6,1.561-6c.872,0,2.24-5.228,2.64-10.088.167-2.025.498-3.402.961-4c1.634-2.106,2.785-5.783,2.813-8.979.027-3.207,1.442-3.616,8.214-2.379m-72.6,54.152c3.094.685,4.542,1.386,6.334,3.067.954.895,2.034,1.794,2.4,1.998.922.513,1.521,1.332,2.511,3.429.468.99,1.009,2.113,1.203,2.495.193.382.352.889.352,1.128s.257.691.572,1.006c1.919,1.919,1.756,8.26-.326,12.648-.795,1.675-1.446,3.342-1.446,3.703c0,1.879-6.14,6.751-10.059,7.981-2.677.841-2.981,1.046-3.392,2.281-.711,2.143-6.307,2.285-7.264.185-.474-1.04-2.821-2.376-5.002-2.849-1.962-.424-7.883-5.38-7.883-6.597c0-.192-.436-.761-.969-1.265-3.173-2.999-3.123-16.828.074-20.469.623-.71,1.544-1.955,2.046-2.769.503-.813,1.074-1.478,1.268-1.478.195,0,1.231-.778,2.302-1.73c1.846-1.639,2.858-2.075,7.079-3.047c1.901-.438,7.664-.278,10.2.283"
       fill="#8c7070"
       fill-rule="evenodd"
       id="path25234"
       style="fill:#fffeff;fill-opacity:1" />
  </g>
</svg>
