<?xml version="1.0" encoding="UTF-8" standalone="no"?>
<svg
   id="svg"
   version="1.1"
   width="400"
   height="400"
   viewBox="0, 0, 400,400"
   sodipodi:docname="patrimoni_industrial.svg"
   inkscape:version="1.2.2 (732a01da63, 2022-12-09)"
   xmlns:inkscape="http://www.inkscape.org/namespaces/inkscape"
   xmlns:sodipodi="http://sodipodi.sourceforge.net/DTD/sodipodi-0.dtd"
   xmlns="http://www.w3.org/2000/svg"
   xmlns:svg="http://www.w3.org/2000/svg">
  <defs
     id="defs26047" />
  <sodipodi:namedview
     id="namedview26045"
     pagecolor="#ffffff"
     bordercolor="#666666"
     borderopacity="1.0"
     inkscape:showpageshadow="2"
     inkscape:pageopacity="0.0"
     inkscape:pagecheckerboard="0"
     inkscape:deskcolor="#d1d1d1"
     showgrid="false"
     inkscape:zoom="1.94"
     inkscape:cx="145.61856"
     inkscape:cy="208.76289"
     inkscape:window-width="1920"
     inkscape:window-height="974"
     inkscape:window-x="-11"
     inkscape:window-y="-11"
     inkscape:window-maximized="1"
     inkscape:current-layer="svgg" />
  <g
     id="svgg">
    <path
       id="path0"
       d="M120.800 54.326 C 120.800 54.506,120.081 55.057,119.201 55.551 C 117.468 56.525,116.967 57.634,117.316 59.722 C 117.778 62.485,118.243 63.085,120.475 63.799 C 121.644 64.173,122.881 64.799,123.224 65.190 C 123.567 65.581,124.446 66.210,125.177 66.588 C 125.908 66.966,127.664 68.383,129.079 69.738 C 130.494 71.092,132.135 72.446,132.726 72.748 C 133.317 73.049,134.250 73.710,134.800 74.217 C 137.171 76.404,146.198 76.187,148.482 73.889 C 149.077 73.290,149.804 72.800,150.098 72.800 C 150.392 72.800,151.975 71.542,153.616 70.004 C 157.852 66.035,162.400 63.741,162.400 65.573 C 162.400 65.778,162.785 66.068,163.256 66.218 C 163.727 66.367,165.591 67.909,167.399 69.645 C 169.206 71.380,170.901 72.800,171.165 72.800 C 171.429 72.800,172.130 73.318,172.723 73.950 C 174.846 76.218,183.980 76.385,186.400 74.200 C 186.950 73.703,188.046 72.999,188.835 72.634 C 189.623 72.269,191.063 71.244,192.035 70.356 C 193.006 69.468,194.340 68.247,195.000 67.643 C 198.626 64.324,200.136 63.879,201.937 65.600 C 202.628 66.260,203.370 66.800,203.586 66.800 C 203.802 66.800,204.244 67.295,204.568 67.900 C 205.091 68.878,207.518 71.496,210.400 74.191 C 212.095 75.776,219.407 76.426,221.050 75.138 C 222.043 74.359,222.523 71.350,221.945 69.525 C 221.393 67.781,221.070 67.516,216.905 65.378 C 215.172 64.489,213.231 62.494,212.547 60.900 C 212.240 60.185,211.819 59.600,211.611 59.600 C 211.403 59.600,210.498 58.880,209.600 58.000 C 208.702 57.120,207.780 56.400,207.550 56.400 C 207.321 56.400,205.785 55.860,204.136 55.200 C 200.880 53.896,197.906 53.637,196.589 54.542 C 196.155 54.840,194.691 55.465,193.335 55.930 C 191.398 56.593,190.283 57.344,188.135 59.431 C 183.368 64.060,183.034 64.321,181.315 64.777 C 179.391 65.286,177.769 64.796,175.938 63.153 C 175.354 62.629,173.930 61.390,172.775 60.400 C 171.620 59.410,170.173 58.129,169.560 57.553 C 168.946 56.977,167.580 56.290,166.522 56.025 C 165.465 55.760,163.812 55.196,162.849 54.772 C 160.768 53.854,159.489 53.797,158.286 54.568 C 157.799 54.880,156.302 55.491,154.959 55.926 C 153.617 56.362,152.073 57.141,151.527 57.659 C 150.982 58.176,149.253 59.820,147.685 61.312 C 143.526 65.267,138.356 66.211,137.397 63.192 C 137.259 62.756,137.001 62.400,136.824 62.400 C 136.537 62.400,133.968 60.141,131.200 57.454 C 130.650 56.921,129.570 56.354,128.800 56.196 C 128.030 56.038,126.370 55.479,125.112 54.954 C 122.831 54.003,120.800 53.707,120.800 54.326 M224.747 88.403 C 222.850 89.406,222.852 89.393,222.389 101.504 C 221.992 111.895,221.554 117.810,220.836 122.462 C 220.307 125.892,219.717 135.150,219.183 148.400 C 218.773 158.581,218.547 161.240,217.584 167.200 C 217.388 168.410,217.043 174.800,216.817 181.400 C 216.352 194.931,215.842 202.228,215.012 207.200 C 214.700 209.070,214.350 212.358,214.233 214.507 C 213.904 220.550,213.134 221.600,209.027 221.600 C 203.432 221.600,203.446 221.638,203.200 205.267 L 203.000 191.933 201.694 190.767 C 199.490 188.799,196.554 189.405,193.453 192.467 C 192.821 193.090,192.069 193.600,191.780 193.600 C 191.491 193.600,190.870 194.140,190.400 194.800 C 189.930 195.460,189.301 196.000,189.002 196.000 C 188.703 196.000,188.130 196.410,187.729 196.912 C 187.328 197.414,186.145 198.434,185.100 199.180 C 184.055 199.925,183.200 200.652,183.200 200.794 C 183.200 200.936,182.485 201.454,181.612 201.945 C 180.738 202.436,179.479 203.324,178.813 203.919 C 175.728 206.672,174.555 207.666,174.000 208.000 C 173.670 208.197,172.860 208.830,172.200 209.406 C 168.975 212.217,166.153 214.393,165.727 214.396 C 165.467 214.398,164.870 214.940,164.400 215.600 C 163.930 216.260,163.315 216.800,163.034 216.800 C 162.753 216.800,161.874 217.430,161.081 218.200 C 159.399 219.834,159.236 219.865,158.075 218.784 C 157.214 217.982,157.200 217.785,157.200 206.440 C 157.200 191.699,157.161 191.400,155.086 190.342 C 152.922 189.238,150.678 189.580,148.719 191.311 C 147.917 192.020,146.249 193.410,145.012 194.400 C 142.120 196.714,139.836 198.644,137.912 200.400 C 134.993 203.064,130.575 206.761,127.399 209.200 C 124.848 211.158,122.734 212.991,120.413 215.254 C 119.593 216.053,118.544 216.827,118.082 216.974 C 117.619 217.121,117.142 217.547,117.021 217.920 C 116.901 218.294,116.262 218.907,115.601 219.281 L 114.400 219.963 114.400 277.301 C 114.400 321.365,114.511 334.751,114.880 335.120 C 115.528 335.768,280.129 335.821,283.148 335.174 C 284.283 334.930,285.277 334.459,285.467 334.074 C 285.899 333.200,286.116 226.221,285.691 224.172 C 285.250 222.052,283.844 221.673,276.200 221.618 C 269.742 221.571,269.371 221.466,268.293 219.381 C 267.328 217.514,266.064 206.361,265.613 195.748 C 264.990 181.064,264.391 172.132,263.779 168.400 C 263.059 164.004,262.400 153.684,262.400 146.787 C 262.400 140.375,261.783 131.801,261.019 127.600 C 260.719 125.950,260.271 120.370,260.022 115.200 C 258.776 89.258,258.919 90.484,256.929 88.639 L 255.808 87.600 241.004 87.618 C 227.198 87.634,226.102 87.687,224.747 88.403 "
       stroke="none"
       fill="#fcfbfa"
       fill-rule="evenodd"
       style="fill:#fffeff;fill-opacity:1" />
    <path
       id="path1"
       d="M165.200 0.800 C 165.200 1.566,164.918 1.602,158.500 1.646 C 154.815 1.672,151.530 1.717,151.200 1.746 C 150.830 1.779,150.552 2.299,150.475 3.100 L 150.349 4.400 145.203 4.400 C 139.647 4.400,138.549 4.776,138.891 6.563 C 139.044 7.368,138.891 7.401,134.899 7.418 C 130.482 7.438,130.019 7.635,130.006 9.500 C 130.000 10.352,129.842 10.400,127.013 10.400 C 124.589 10.400,124.066 10.508,124.244 10.971 C 124.403 11.386,124.239 11.483,123.643 11.327 C 123.034 11.168,122.700 11.382,122.347 12.156 C 121.902 13.133,119.859 13.614,117.826 13.223 C 116.590 12.984,115.600 13.670,115.600 14.765 C 115.600 16.109,115.172 16.335,113.000 16.137 C 110.528 15.912,109.700 16.232,109.700 17.412 C 109.700 18.769,109.718 18.759,106.768 19.060 C 104.071 19.335,103.616 19.629,103.606 21.100 C 103.600 21.929,103.417 22.000,101.280 22.000 C 98.784 22.000,98.000 22.444,98.000 23.856 C 98.000 24.602,97.750 24.772,96.500 24.876 C 95.512 24.958,95.037 25.181,95.110 25.530 C 95.171 25.824,95.026 25.940,94.785 25.791 C 94.255 25.463,92.800 26.706,92.800 27.486 C 92.800 27.794,92.608 27.929,92.374 27.784 C 91.857 27.465,89.194 27.919,89.253 28.317 C 89.546 30.303,89.196 30.800,87.500 30.806 C 85.363 30.813,83.837 31.564,83.675 32.687 C 83.577 33.369,83.236 33.581,82.082 33.677 C 80.778 33.786,80.603 33.931,80.525 34.965 C 80.424 36.316,79.758 36.855,78.559 36.554 C 77.826 36.370,77.676 36.562,77.451 37.971 C 77.194 39.581,76.367 40.011,74.259 39.634 C 73.348 39.470,72.293 40.189,71.935 41.215 C 71.627 42.097,71.251 42.382,70.269 42.477 C 69.113 42.589,68.989 42.736,68.874 44.126 C 68.756 45.567,68.687 45.639,67.638 45.408 C 66.276 45.109,65.425 45.971,65.694 47.378 C 65.797 47.918,65.773 48.348,65.641 48.333 C 63.460 48.083,62.800 48.424,62.800 49.800 C 62.800 51.133,62.733 51.200,61.400 51.200 C 60.067 51.200,60.000 51.267,60.000 52.600 C 60.000 53.933,59.933 54.000,58.600 54.000 C 57.182 54.000,57.091 54.116,57.032 56.000 C 57.007 56.783,56.783 57.007,56.000 57.032 C 54.116 57.091,54.000 57.182,54.000 58.600 C 54.000 59.970,53.359 60.341,51.500 60.047 C 51.335 60.021,51.200 60.630,51.200 61.400 C 51.200 62.733,51.133 62.800,49.800 62.800 C 48.424 62.800,48.083 63.460,48.333 65.641 C 48.348 65.773,47.918 65.797,47.378 65.694 C 45.971 65.425,45.109 66.276,45.408 67.638 C 45.639 68.687,45.567 68.756,44.126 68.874 C 42.745 68.988,42.589 69.118,42.479 70.237 C 42.387 71.189,42.064 71.603,41.079 72.037 C 39.880 72.565,39.793 72.743,39.680 74.898 L 39.560 77.197 37.951 77.454 C 36.562 77.676,36.370 77.828,36.554 78.559 C 36.855 79.758,36.316 80.424,34.965 80.525 C 33.933 80.603,33.786 80.780,33.678 82.069 C 33.582 83.211,33.354 83.575,32.618 83.760 C 31.562 84.025,30.800 85.744,30.800 87.860 C 30.800 89.191,30.364 89.458,28.546 89.240 C 28.033 89.179,27.427 91.796,27.810 92.417 C 27.947 92.638,27.911 92.794,27.730 92.763 C 26.385 92.529,25.115 94.079,24.962 96.140 C 24.911 96.833,24.853 97.535,24.834 97.700 C 24.815 97.865,24.386 98.000,23.880 98.000 C 22.443 98.000,22.000 98.773,22.000 101.280 C 22.000 103.417,21.929 103.600,21.100 103.606 C 19.629 103.616,19.335 104.071,19.060 106.768 C 18.759 109.718,18.769 109.700,17.412 109.700 C 16.288 109.700,15.982 110.396,16.051 112.800 C 16.127 115.478,16.073 115.600,14.808 115.600 C 13.669 115.600,12.980 116.567,13.223 117.826 C 13.614 119.859,13.133 121.902,12.156 122.347 C 11.382 122.700,11.168 123.034,11.327 123.643 C 11.483 124.239,11.386 124.403,10.971 124.244 C 10.508 124.066,10.400 124.589,10.400 127.013 C 10.400 129.842,10.352 130.000,9.500 130.006 C 7.647 130.019,7.451 130.479,7.425 134.895 L 7.400 139.050 6.437 138.866 C 4.743 138.543,4.400 139.617,4.400 145.251 L 4.400 150.349 3.100 150.475 C 2.299 150.552,1.779 150.830,1.746 151.200 C 1.717 151.530,1.672 154.455,1.646 157.700 C 1.602 163.318,1.562 163.600,0.800 163.600 C 0.006 163.600,0.000 163.867,0.000 199.400 C 0.000 234.933,0.006 235.200,0.800 235.200 C 1.565 235.200,1.602 235.482,1.646 241.700 C 1.672 245.275,1.717 248.470,1.746 248.800 C 1.779 249.170,2.299 249.448,3.100 249.525 L 4.400 249.651 4.400 254.797 C 4.400 260.260,4.698 261.200,6.429 261.200 C 6.853 261.200,7.216 261.335,7.235 261.500 C 7.254 261.665,7.321 263.485,7.385 265.546 C 7.506 269.492,7.739 269.982,9.500 269.994 C 10.347 270.000,10.400 270.164,10.400 272.813 C 10.400 275.073,10.531 275.676,11.069 275.882 C 12.722 276.516,13.200 277.522,13.200 280.367 C 13.200 283.869,13.411 284.400,14.800 284.400 C 16.134 284.400,16.357 284.861,16.157 287.209 C 15.944 289.723,16.245 290.400,17.575 290.400 C 18.764 290.400,19.185 291.504,19.196 294.657 C 19.200 295.938,19.740 296.400,21.233 296.400 C 21.902 296.400,22.000 296.700,22.000 298.751 C 22.000 301.250,22.347 301.831,23.977 302.062 C 24.772 302.174,24.958 302.436,24.977 303.467 C 25.003 304.904,26.515 307.200,27.436 307.200 C 27.772 307.200,27.938 307.377,27.804 307.593 C 27.059 308.799,28.083 310.800,29.445 310.800 C 30.715 310.800,30.800 310.884,30.800 312.140 C 30.800 314.256,31.562 315.975,32.618 316.240 C 33.355 316.425,33.582 316.789,33.678 317.938 C 33.786 319.232,33.938 319.416,34.999 319.536 C 36.308 319.685,36.905 320.291,36.589 321.151 C 36.276 322.002,37.176 322.800,38.449 322.800 C 39.538 322.800,39.600 322.893,39.600 324.511 C 39.600 326.454,40.485 328.000,41.599 328.000 C 42.180 328.000,42.380 328.342,42.476 329.500 C 42.594 330.924,42.678 331.006,44.126 331.126 C 45.579 331.245,45.640 331.306,45.400 332.398 C 45.127 333.644,45.948 334.400,47.574 334.400 C 48.251 334.400,48.400 334.652,48.400 335.800 C 48.400 337.133,48.467 337.200,49.800 337.200 C 51.133 337.200,51.200 337.267,51.200 338.600 C 51.200 339.929,51.270 340.000,52.576 340.000 C 53.877 340.000,53.958 340.081,54.076 341.500 C 54.194 342.922,54.279 343.006,55.719 343.125 C 56.972 343.229,57.198 343.376,57.010 343.969 C 56.600 345.261,57.194 346.000,58.643 346.000 C 59.927 346.000,60.000 346.075,60.000 347.400 C 60.000 348.733,60.067 348.800,61.400 348.800 C 62.725 348.800,62.800 348.873,62.800 350.157 C 62.800 351.522,63.306 352.000,64.750 352.000 C 65.177 352.000,65.578 352.489,65.817 353.300 C 66.132 354.370,66.425 354.622,67.476 354.724 C 68.588 354.831,68.769 355.012,68.876 356.124 C 68.987 357.269,69.146 357.412,70.420 357.519 C 71.554 357.615,71.924 357.863,72.262 358.758 C 72.683 359.875,73.945 360.400,76.210 360.400 C 76.933 360.400,77.193 360.709,77.473 361.900 C 77.778 363.200,77.994 363.416,79.089 363.524 C 80.186 363.631,80.369 363.815,80.476 364.924 C 80.588 366.077,80.741 366.212,82.062 366.322 C 83.211 366.418,83.575 366.645,83.760 367.382 C 84.025 368.438,85.744 369.200,87.860 369.200 C 89.193 369.200,89.461 369.641,89.238 371.466 C 89.176 371.968,91.355 372.599,91.927 372.245 C 92.117 372.128,92.677 372.578,93.170 373.245 C 93.695 373.955,94.301 374.370,94.629 374.244 C 94.940 374.125,95.148 374.245,95.095 374.514 C 95.037 374.809,95.589 375.049,96.500 375.124 C 97.750 375.228,98.000 375.398,98.000 376.144 C 98.000 377.551,98.783 378.000,101.235 378.000 C 103.503 378.000,103.512 378.005,103.764 379.349 C 104.033 380.782,105.021 381.184,108.300 381.196 C 109.466 381.200,109.600 381.319,109.600 382.357 C 109.600 383.763,110.124 384.000,113.233 384.000 C 115.577 384.000,115.600 384.011,115.600 385.157 C 115.600 386.574,116.118 386.800,119.369 386.800 C 121.678 386.800,121.908 386.881,122.347 387.844 C 122.684 388.582,123.045 388.829,123.581 388.689 C 124.111 388.550,124.276 388.658,124.127 389.045 C 123.957 389.488,124.527 389.600,126.957 389.600 C 129.844 389.600,130.000 389.646,130.006 390.500 C 130.018 392.232,130.506 392.459,134.706 392.691 C 138.691 392.910,138.724 392.921,138.941 394.004 C 139.224 395.421,139.930 395.588,145.675 395.595 L 150.349 395.600 150.475 396.900 L 150.600 398.200 157.900 398.309 C 164.869 398.413,165.200 398.454,165.200 399.209 C 165.200 399.991,165.600 400.000,200.200 400.000 C 234.797 400.000,235.200 399.991,235.200 399.209 C 235.200 398.455,235.531 398.413,242.300 398.309 L 249.400 398.200 249.525 396.900 L 249.651 395.600 254.325 395.595 C 260.070 395.588,260.776 395.421,261.059 394.004 C 261.276 392.921,261.309 392.910,265.294 392.691 C 269.494 392.459,269.982 392.232,269.994 390.500 C 270.000 389.647,270.157 389.600,273.000 389.600 C 274.733 389.600,276.000 389.431,276.000 389.200 C 276.000 388.980,276.274 388.800,276.609 388.800 C 276.943 388.800,277.422 388.350,277.673 387.800 C 278.088 386.888,278.350 386.800,280.631 386.800 C 283.882 386.800,284.400 386.574,284.400 385.157 C 284.400 384.029,284.452 384.000,286.500 383.995 C 289.687 383.986,290.400 383.695,290.400 382.400 C 290.400 381.320,290.464 381.289,293.027 381.126 C 295.787 380.950,296.383 380.557,296.394 378.900 C 296.399 378.086,296.593 378.000,298.426 378.000 C 300.952 378.000,302.000 377.468,302.000 376.186 C 302.000 375.324,302.178 375.200,303.413 375.200 C 304.397 375.200,304.900 374.988,305.073 374.500 C 305.583 373.063,306.516 372.400,308.029 372.400 C 310.328 372.400,310.800 372.086,310.800 370.557 C 310.800 369.284,310.883 369.200,312.140 369.200 C 314.256 369.200,315.975 368.438,316.240 367.382 C 316.425 366.645,316.789 366.418,317.938 366.322 C 319.259 366.212,319.412 366.077,319.524 364.923 C 319.636 363.766,319.787 363.634,321.124 363.523 C 322.515 363.407,322.607 363.314,322.724 361.900 L 322.848 360.400 324.748 360.400 C 326.821 360.400,327.857 359.839,328.071 358.600 C 328.169 358.030,328.610 357.743,329.605 357.600 C 330.837 357.423,331.015 357.248,331.125 356.100 C 331.233 354.981,331.403 354.800,332.345 354.800 C 333.673 354.800,334.400 354.144,334.400 352.945 C 334.400 352.228,334.658 352.026,335.700 351.925 C 336.887 351.811,337.011 351.669,337.124 350.300 C 337.242 348.881,337.323 348.800,338.624 348.800 C 339.925 348.800,340.000 348.725,340.000 347.424 C 340.000 346.123,340.081 346.042,341.500 345.924 C 342.480 345.843,343.019 345.592,343.054 345.200 C 343.083 344.870,343.128 344.296,343.154 343.925 C 343.185 343.469,343.621 343.210,344.500 343.125 C 345.687 343.011,345.811 342.869,345.924 341.500 C 346.042 340.081,346.123 340.000,347.424 340.000 C 348.725 340.000,348.800 339.925,348.800 338.624 C 348.800 337.323,348.881 337.242,350.300 337.124 C 351.669 337.011,351.811 336.887,351.925 335.700 C 352.026 334.658,352.228 334.400,352.945 334.400 C 354.144 334.400,354.800 333.673,354.800 332.345 C 354.800 331.403,354.981 331.233,356.100 331.125 C 357.248 331.015,357.423 330.837,357.600 329.605 C 357.743 328.610,358.030 328.169,358.600 328.071 C 359.839 327.857,360.400 326.821,360.400 324.748 L 360.400 322.848 361.900 322.724 C 363.314 322.607,363.407 322.515,363.523 321.124 C 363.634 319.787,363.766 319.636,364.923 319.524 C 366.079 319.412,366.212 319.261,366.323 317.925 C 366.419 316.764,366.630 316.423,367.313 316.325 C 368.436 316.163,369.187 314.637,369.194 312.500 C 369.200 310.835,369.228 310.800,370.557 310.800 C 372.086 310.800,372.400 310.328,372.400 308.029 C 372.400 306.516,373.063 305.583,374.500 305.073 C 374.988 304.900,375.200 304.397,375.200 303.413 C 375.200 302.178,375.324 302.000,376.186 302.000 C 377.468 302.000,378.000 300.952,378.000 298.426 C 378.000 296.593,378.086 296.399,378.900 296.394 C 380.557 296.383,380.950 295.787,381.126 293.027 C 381.289 290.464,381.320 290.400,382.400 290.400 C 383.695 290.400,383.986 289.687,383.995 286.500 C 384.000 284.452,384.029 284.400,385.157 284.400 C 386.574 284.400,386.800 283.882,386.800 280.631 C 386.800 278.350,386.888 278.088,387.800 277.673 C 388.350 277.422,388.800 276.943,388.800 276.609 C 388.800 276.274,388.980 276.000,389.200 276.000 C 389.431 276.000,389.600 274.733,389.600 273.000 C 389.600 270.157,389.647 270.000,390.500 269.994 C 392.232 269.982,392.459 269.494,392.691 265.294 C 392.910 261.309,392.921 261.276,394.004 261.059 C 395.422 260.776,395.588 260.071,395.595 254.300 C 395.600 249.935,395.655 249.600,396.367 249.600 C 398.395 249.600,398.400 249.583,398.400 242.157 C 398.400 235.467,398.431 235.200,399.200 235.200 C 399.994 235.200,400.000 234.933,400.000 200.200 C 400.000 165.600,399.991 165.200,399.209 165.200 C 398.454 165.200,398.413 164.869,398.309 157.900 L 398.200 150.600 396.900 150.475 L 395.600 150.349 395.595 145.675 C 395.588 139.930,395.421 139.224,394.004 138.941 C 392.921 138.724,392.910 138.691,392.691 134.706 C 392.459 130.506,392.232 130.018,390.500 130.006 C 389.646 130.000,389.600 129.844,389.600 126.957 C 389.600 124.527,389.488 123.957,389.045 124.127 C 388.658 124.276,388.550 124.111,388.689 123.581 C 388.829 123.046,388.584 122.685,387.859 122.354 C 386.904 121.919,386.823 121.671,386.716 118.843 L 386.600 115.800 385.300 115.675 L 384.000 115.549 384.000 113.207 C 384.000 110.156,383.755 109.600,382.412 109.600 C 381.341 109.600,381.303 109.524,381.097 106.950 C 380.875 104.191,380.498 103.617,378.900 103.606 C 378.071 103.600,378.000 103.417,378.000 101.280 C 378.000 98.784,377.556 98.000,376.144 98.000 C 375.398 98.000,375.228 97.750,375.124 96.500 C 375.049 95.589,374.809 95.037,374.514 95.095 C 374.247 95.148,374.123 94.944,374.239 94.643 C 374.354 94.342,373.988 93.734,373.424 93.291 C 372.757 92.766,372.398 92.087,372.394 91.342 C 372.388 90.185,371.921 89.103,371.455 89.166 C 369.497 89.428,369.200 89.209,369.194 87.500 C 369.187 85.363,368.436 83.837,367.313 83.675 C 366.630 83.577,366.419 83.236,366.323 82.075 C 366.212 80.740,366.079 80.588,364.924 80.476 C 363.815 80.369,363.631 80.186,363.524 79.089 C 363.416 77.994,363.200 77.778,361.900 77.473 C 360.443 77.131,360.400 77.069,360.400 75.334 C 360.400 73.127,359.914 72.166,358.636 71.845 C 357.881 71.655,357.621 71.294,357.525 70.299 C 357.415 69.157,357.243 68.985,356.100 68.875 C 354.981 68.767,354.800 68.597,354.800 67.655 C 354.800 66.318,354.143 65.600,352.920 65.600 C 352.280 65.600,352.000 65.367,352.000 64.833 C 352.000 63.303,351.544 62.800,350.157 62.800 C 348.873 62.800,348.800 62.725,348.800 61.400 C 348.800 60.067,348.733 60.000,347.400 60.000 C 346.072 60.000,346.000 59.929,346.000 58.627 C 346.000 57.181,345.150 56.537,343.882 57.024 C 343.387 57.214,343.225 56.937,343.126 55.733 C 343.006 54.277,342.925 54.194,341.500 54.076 C 340.081 53.958,340.000 53.877,340.000 52.576 C 340.000 51.270,339.929 51.200,338.600 51.200 C 337.267 51.200,337.200 51.133,337.200 49.800 C 337.200 48.467,337.133 48.400,335.800 48.400 C 334.517 48.400,334.400 48.301,334.400 47.224 C 334.400 45.895,333.857 45.400,332.400 45.400 C 331.562 45.400,331.368 45.173,331.200 44.000 C 331.025 42.773,330.844 42.585,329.738 42.477 C 328.749 42.382,328.417 42.122,328.206 41.281 C 327.847 39.850,327.380 39.613,324.900 39.606 C 322.879 39.600,322.800 39.559,322.794 38.500 C 322.785 36.991,322.250 36.268,321.350 36.548 C 320.281 36.881,319.693 36.379,319.536 34.999 C 319.415 33.936,319.233 33.786,317.925 33.677 C 316.764 33.581,316.423 33.370,316.325 32.687 C 316.163 31.564,314.637 30.813,312.500 30.806 C 310.829 30.800,310.800 30.776,310.800 29.418 C 310.800 28.013,308.866 27.017,307.626 27.784 C 307.392 27.929,307.200 27.776,307.200 27.444 C 307.200 26.494,304.677 24.800,303.262 24.800 C 302.212 24.800,302.000 24.646,302.000 23.880 C 302.000 22.443,301.227 22.000,298.720 22.000 C 296.700 22.000,296.400 21.901,296.400 21.233 C 296.400 19.740,295.938 19.200,294.657 19.196 C 291.486 19.184,290.400 18.766,290.400 17.555 C 290.400 16.243,289.582 15.902,287.000 16.137 C 284.838 16.334,284.400 16.109,284.400 14.800 C 284.400 13.430,283.857 13.200,280.631 13.200 C 278.350 13.200,278.088 13.112,277.673 12.200 C 277.422 11.650,276.943 11.200,276.609 11.200 C 276.274 11.200,276.000 11.020,276.000 10.800 C 276.000 10.569,274.733 10.400,273.000 10.400 C 270.157 10.400,270.000 10.353,269.994 9.500 C 269.982 7.700,269.480 7.460,265.531 7.364 C 263.479 7.315,261.665 7.257,261.500 7.237 C 261.335 7.217,261.200 6.853,261.200 6.429 C 261.200 4.698,260.260 4.400,254.797 4.400 L 249.651 4.400 249.525 3.100 C 249.448 2.299,249.170 1.779,248.800 1.746 C 248.470 1.717,245.275 1.672,241.700 1.646 C 235.482 1.602,235.200 1.565,235.200 0.800 C 235.200 0.006,234.933 0.000,200.200 0.000 C 165.467 0.000,165.200 0.006,165.200 0.800 M128.304 51.853 C 128.802 51.987,129.312 52.507,129.438 53.010 C 129.605 53.676,130.062 53.998,131.120 54.196 C 133.182 54.583,134.700 55.455,135.009 56.430 C 135.156 56.891,135.785 57.446,136.409 57.663 C 137.093 57.902,137.696 58.498,137.930 59.171 C 138.205 59.961,138.675 60.355,139.548 60.530 C 140.428 60.706,140.851 61.064,141.033 61.788 C 141.367 63.120,141.724 63.066,142.278 61.600 C 142.622 60.688,142.981 60.400,143.778 60.400 C 144.426 60.400,144.908 60.133,145.041 59.700 C 145.473 58.303,145.898 57.798,146.747 57.671 C 147.280 57.592,147.821 57.045,148.153 56.251 C 148.697 54.948,150.632 54.000,152.746 54.000 C 153.328 54.000,153.600 53.750,153.600 53.214 C 153.600 50.924,167.090 50.807,167.688 53.093 C 167.830 53.635,168.534 53.992,170.192 54.363 C 172.132 54.797,172.567 55.058,172.922 55.999 C 173.159 56.625,173.882 57.356,174.567 57.659 C 175.240 57.956,176.011 58.650,176.280 59.200 C 176.572 59.797,177.218 60.281,177.884 60.402 C 178.741 60.557,179.029 60.858,179.127 61.702 C 179.289 63.108,179.638 63.086,180.737 61.600 C 181.225 60.940,181.959 60.400,182.369 60.400 C 182.828 60.400,183.209 60.019,183.363 59.406 C 183.505 58.839,183.996 58.311,184.506 58.177 C 184.998 58.047,185.878 57.255,186.463 56.417 C 187.305 55.210,187.945 54.785,189.537 54.377 C 191.074 53.984,191.602 53.647,191.777 52.949 C 192.091 51.700,193.399 51.513,200.752 51.670 L 206.859 51.800 207.930 53.075 C 208.518 53.776,209.432 54.406,209.959 54.475 C 210.487 54.544,211.117 54.952,211.359 55.383 C 212.048 56.607,212.593 57.102,213.428 57.261 C 213.963 57.364,214.261 57.837,214.400 58.805 C 214.567 59.968,214.782 60.221,215.695 60.326 C 216.547 60.424,216.864 60.736,217.119 61.726 C 217.428 62.925,217.576 63.012,219.624 63.204 C 222.288 63.454,222.632 63.660,222.938 65.192 C 223.109 66.045,223.411 66.400,223.967 66.400 C 227.098 66.400,226.751 75.192,223.556 76.823 C 222.700 77.259,222.000 77.803,222.000 78.031 C 222.000 78.259,221.161 78.816,220.135 79.270 C 217.189 80.573,212.400 79.778,212.400 77.986 C 212.400 77.323,212.123 77.200,210.626 77.200 C 208.150 77.200,206.966 76.651,206.488 75.282 C 206.231 74.544,205.707 74.013,205.079 73.856 C 204.433 73.693,203.926 73.163,203.644 72.353 C 203.130 70.878,200.633 68.398,199.672 68.405 C 198.183 68.418,197.179 68.944,196.957 69.830 C 196.805 70.434,196.251 70.919,195.388 71.204 C 194.398 71.531,193.988 71.944,193.798 72.809 C 193.594 73.737,193.269 74.026,192.205 74.225 C 191.227 74.409,190.802 74.739,190.623 75.452 C 190.336 76.596,188.992 77.200,186.734 77.200 C 185.476 77.200,184.886 77.451,184.056 78.340 C 182.080 80.456,176.095 80.325,175.102 78.144 C 174.745 77.361,174.373 77.200,172.916 77.200 C 170.746 77.200,168.800 76.255,168.800 75.201 C 168.800 74.663,168.409 74.322,167.533 74.095 C 166.308 73.777,165.882 73.335,165.456 71.938 C 165.345 71.573,164.694 71.152,164.010 71.002 C 163.049 70.791,162.713 70.464,162.533 69.564 C 162.178 67.789,159.362 67.817,158.739 69.602 C 158.473 70.366,157.955 70.896,157.321 71.056 C 156.707 71.210,156.170 71.741,155.929 72.433 C 155.659 73.206,155.098 73.704,154.141 74.019 C 153.358 74.278,152.559 74.892,152.318 75.420 C 151.818 76.518,150.127 77.200,147.903 77.200 C 146.674 77.200,146.280 77.373,146.121 77.982 C 145.471 80.464,136.800 80.287,136.800 77.791 C 136.800 77.353,136.307 77.199,134.900 77.195 C 132.157 77.187,131.324 76.865,130.805 75.612 C 130.508 74.896,129.895 74.371,129.084 74.138 C 128.155 73.872,127.729 73.449,127.465 72.529 C 127.200 71.602,126.814 71.223,125.964 71.053 C 125.171 70.894,124.743 70.514,124.566 69.809 C 124.397 69.134,123.957 68.719,123.256 68.571 C 122.675 68.450,121.750 68.257,121.200 68.144 C 120.008 67.898,118.800 66.888,118.800 66.138 C 118.800 65.835,118.376 65.600,117.829 65.600 C 116.581 65.600,115.600 64.613,115.600 63.359 C 115.600 62.818,115.341 62.275,115.024 62.154 C 113.223 61.463,113.115 57.442,114.868 56.358 C 115.112 56.207,115.601 55.216,115.956 54.155 C 116.438 52.711,116.852 52.157,117.600 51.953 C 118.867 51.607,127.100 51.531,128.304 51.853 M257.418 84.582 C 257.958 85.122,258.400 85.752,258.400 85.982 C 258.400 86.212,258.750 86.400,259.177 86.400 C 260.876 86.400,261.200 87.737,261.200 94.749 C 261.200 100.942,261.257 101.438,262.197 103.360 C 263.571 106.170,263.903 110.499,264.186 129.282 L 264.420 144.764 265.496 146.838 L 266.571 148.911 266.888 167.876 C 267.186 185.666,267.253 186.907,267.975 187.920 C 269.161 189.583,269.601 193.873,269.876 206.453 L 270.129 218.000 277.077 218.000 C 285.052 218.000,286.334 218.309,287.219 220.445 C 287.525 221.185,288.231 222.181,288.788 222.660 L 289.800 223.531 289.906 277.524 C 290.015 333.226,290.008 333.464,288.395 333.885 C 287.838 334.031,287.600 334.432,287.600 335.223 C 287.600 336.634,287.190 336.891,284.200 337.351 C 281.082 337.830,115.244 338.128,114.644 337.655 C 114.400 337.462,113.543 337.186,112.740 337.042 C 109.999 336.548,110.200 341.195,110.200 278.238 C 110.200 218.914,110.192 219.258,111.659 218.600 C 112.150 218.380,112.845 217.660,113.204 217.000 C 113.562 216.340,114.383 215.530,115.028 215.200 C 115.673 214.870,116.792 214.027,117.515 213.326 C 118.238 212.625,119.214 211.995,119.684 211.926 C 120.155 211.857,120.836 211.263,121.199 210.607 C 121.581 209.914,122.360 209.269,123.055 209.070 C 123.843 208.844,124.402 208.329,124.691 207.563 C 125.014 206.708,125.394 206.400,126.126 206.400 C 126.876 206.400,127.227 206.099,127.545 205.185 C 127.828 204.373,128.383 203.825,129.213 203.535 C 129.897 203.297,130.615 202.687,130.808 202.180 C 131.001 201.672,131.791 200.957,132.565 200.590 C 133.338 200.223,134.069 199.613,134.189 199.234 C 134.310 198.854,135.058 198.234,135.853 197.855 C 136.648 197.476,137.849 196.544,138.523 195.783 C 139.199 195.020,140.130 194.400,140.601 194.400 C 141.181 194.400,141.640 193.982,142.028 193.100 C 142.429 192.188,142.909 191.764,143.637 191.680 C 144.360 191.596,144.844 191.172,145.237 190.280 C 145.590 189.478,146.138 188.952,146.704 188.872 C 147.219 188.799,147.869 188.240,148.212 187.577 C 149.196 185.674,154.239 185.067,156.520 186.577 C 158.924 188.168,158.988 188.563,159.125 202.728 C 159.221 212.644,159.361 215.565,159.725 215.266 C 159.986 215.052,160.650 214.814,161.200 214.738 C 161.947 214.635,162.232 214.325,162.325 213.513 C 162.427 212.633,162.707 212.379,163.800 212.174 C 164.822 211.982,165.248 211.638,165.556 210.754 C 165.850 209.911,166.302 209.520,167.187 209.343 C 168.051 209.170,168.483 208.807,168.659 208.106 C 168.818 207.474,169.408 206.905,170.286 206.538 C 171.044 206.222,172.286 205.341,173.045 204.581 C 173.953 203.674,174.805 203.200,175.531 203.200 C 176.431 203.200,176.705 202.960,177.017 201.900 C 177.316 200.885,177.648 200.572,178.531 200.470 C 179.370 200.374,179.769 200.034,180.077 199.151 C 180.375 198.297,180.826 197.895,181.677 197.725 C 182.415 197.577,182.995 197.139,183.214 196.563 C 183.407 196.054,184.158 195.340,184.883 194.975 C 185.607 194.610,186.830 193.715,187.600 192.985 C 188.393 192.234,189.520 191.603,190.200 191.529 C 191.131 191.429,191.431 191.176,191.540 190.400 C 191.703 189.240,192.232 188.815,193.521 188.806 C 194.181 188.802,194.560 188.461,194.858 187.605 C 195.726 185.116,200.758 184.928,202.942 187.304 C 203.634 188.056,204.470 188.761,204.800 188.869 C 205.314 189.038,205.429 191.137,205.600 203.433 L 205.800 217.800 208.900 217.917 L 212.000 218.034 212.024 208.317 C 212.066 191.324,212.482 185.109,213.695 183.314 L 214.719 181.800 214.932 164.400 C 215.151 146.505,215.441 142.829,216.817 140.486 C 217.532 139.269,217.606 138.028,217.819 123.686 C 218.102 104.556,218.457 99.974,219.818 97.909 C 220.715 96.546,220.800 96.026,220.800 91.889 C 220.800 87.209,221.049 86.400,222.490 86.400 C 222.894 86.400,223.384 85.968,223.588 85.432 C 224.259 83.668,224.664 83.625,240.918 83.612 L 256.436 83.600 257.418 84.582 "
       stroke="none"
       fill="#fc9c54"
       fill-rule="evenodd" />
    <path
       id="path2"
       d="M118.267 53.453 C 114.391 56.472,114.668 63.520,118.724 65.069 C 119.717 65.448,120.968 66.164,121.503 66.661 C 122.039 67.157,123.081 67.763,123.820 68.006 C 124.558 68.250,125.268 68.785,125.399 69.196 C 125.529 69.606,126.257 70.309,127.018 70.757 C 127.778 71.206,128.400 71.737,128.400 71.937 C 128.400 72.893,134.160 76.475,136.353 76.882 C 137.589 77.112,139.292 77.659,140.138 78.097 L 141.676 78.894 142.822 78.047 C 143.452 77.581,144.392 77.200,144.911 77.200 C 146.468 77.200,149.901 76.035,150.134 75.427 C 150.254 75.115,150.948 74.577,151.676 74.231 C 152.404 73.885,154.350 72.345,156.000 70.810 C 157.650 69.275,159.360 68.013,159.800 68.004 C 160.240 67.996,160.960 67.900,161.400 67.792 C 161.992 67.647,163.081 68.429,165.581 70.798 C 167.441 72.559,169.089 74.000,169.244 74.000 C 169.398 74.000,170.258 74.613,171.154 75.361 C 172.337 76.350,173.347 76.800,174.845 77.006 C 175.979 77.162,177.502 77.641,178.229 78.070 C 179.543 78.845,179.564 78.845,181.076 78.061 C 181.914 77.626,183.607 77.090,184.838 76.870 C 187.145 76.456,192.873 73.029,193.354 71.774 C 193.478 71.452,194.036 71.014,194.595 70.802 C 195.153 70.590,195.813 69.971,196.061 69.427 C 197.278 66.755,202.679 67.056,203.611 69.848 C 204.629 72.898,210.404 77.190,213.500 77.198 C 213.995 77.199,214.400 77.352,214.400 77.537 C 214.400 78.504,217.704 78.873,218.841 78.033 C 219.461 77.575,220.335 77.200,220.784 77.200 C 223.817 77.200,226.474 69.941,224.141 68.025 C 223.723 67.681,222.883 66.745,222.276 65.944 C 221.465 64.875,220.684 64.365,219.336 64.026 C 217.403 63.539,214.352 60.940,213.848 59.350 C 213.704 58.898,213.141 58.289,212.596 57.998 C 212.051 57.706,211.319 57.031,210.969 56.497 C 210.620 55.963,209.403 55.080,208.267 54.534 C 207.130 53.989,205.570 53.196,204.800 52.772 C 202.052 51.259,194.793 51.798,193.075 53.642 C 192.670 54.077,191.823 54.535,191.192 54.662 C 190.562 54.788,189.509 55.455,188.853 56.145 C 188.197 56.835,187.197 57.723,186.630 58.119 C 186.064 58.514,185.600 59.081,185.600 59.380 C 185.600 59.678,185.074 60.105,184.431 60.329 C 183.788 60.553,183.074 61.088,182.845 61.516 C 182.615 61.945,181.774 62.606,180.976 62.985 L 179.524 63.674 178.216 62.337 C 176.518 60.603,174.015 58.410,172.581 57.400 C 171.956 56.960,171.165 56.280,170.824 55.889 C 170.483 55.498,169.536 54.998,168.720 54.778 C 167.904 54.559,166.665 53.898,165.966 53.310 C 163.770 51.462,154.800 51.653,154.800 53.547 C 154.800 53.761,153.945 54.223,152.900 54.573 C 151.627 55.000,150.042 56.101,148.098 57.906 C 141.478 64.052,141.618 63.997,138.801 61.564 C 134.833 58.137,133.954 57.355,132.869 56.287 C 132.248 55.675,131.104 54.999,130.329 54.785 C 129.553 54.570,128.417 53.964,127.803 53.436 C 125.419 51.388,120.907 51.396,118.267 53.453 M125.887 53.446 C 126.375 53.751,127.716 54.373,128.867 54.826 C 130.018 55.280,131.644 56.270,132.481 57.026 C 133.318 57.782,134.186 58.400,134.410 58.400 C 134.634 58.400,135.022 58.850,135.273 59.400 C 135.523 59.950,135.936 60.400,136.189 60.400 C 136.443 60.400,137.179 60.956,137.825 61.636 C 140.504 64.453,142.013 64.534,144.717 62.006 C 145.662 61.123,146.525 60.400,146.635 60.400 C 146.745 60.400,147.827 59.431,149.041 58.246 C 154.186 53.223,160.506 51.586,165.390 54.013 C 166.704 54.666,167.974 55.200,168.212 55.200 C 168.450 55.200,169.883 56.235,171.396 57.500 C 177.051 62.226,179.357 64.000,179.845 64.000 C 180.909 64.000,182.508 63.147,183.781 61.900 C 184.510 61.185,185.353 60.376,185.654 60.102 C 185.954 59.828,186.627 59.198,187.150 58.702 C 187.672 58.206,188.540 57.391,189.077 56.891 C 193.753 52.542,200.233 51.571,206.053 54.347 C 209.281 55.887,214.000 59.714,214.000 60.792 C 214.000 61.537,217.300 64.200,218.755 64.630 C 221.724 65.507,225.280 70.673,224.063 72.343 C 223.799 72.704,223.317 73.581,222.990 74.292 C 221.323 77.919,213.216 78.156,209.018 74.702 C 206.702 72.797,204.405 70.330,203.986 69.300 C 203.785 68.805,203.030 68.052,202.310 67.627 C 201.589 67.201,200.820 66.687,200.600 66.485 C 199.883 65.825,197.047 67.418,194.379 69.979 C 192.960 71.340,190.990 72.928,190.000 73.508 C 189.010 74.087,188.110 74.678,188.000 74.821 C 185.729 77.765,175.031 77.731,171.565 74.769 C 170.814 74.127,170.062 73.601,169.893 73.601 C 169.725 73.600,168.465 72.540,167.093 71.244 C 161.227 65.702,160.680 65.652,155.496 70.193 C 153.683 71.781,151.615 73.381,150.900 73.750 C 150.185 74.119,149.600 74.563,149.600 74.736 C 149.600 77.531,135.467 77.624,133.200 74.843 C 133.090 74.708,132.280 74.107,131.400 73.506 C 130.520 72.906,128.560 71.242,127.044 69.808 C 125.528 68.373,124.114 67.200,123.902 67.200 C 123.689 67.200,122.986 66.755,122.340 66.211 C 121.693 65.667,120.455 65.009,119.588 64.749 C 116.972 63.965,115.795 61.472,116.365 57.921 C 117.045 53.685,122.314 51.208,125.887 53.446 M225.576 85.429 C 225.289 85.775,224.372 86.406,223.540 86.831 C 221.398 87.923,221.311 88.231,221.001 95.800 C 220.848 99.540,220.477 103.500,220.176 104.600 C 219.189 108.213,218.810 113.202,218.383 128.200 C 218.151 136.340,217.796 143.900,217.593 145.000 C 216.136 152.902,215.873 156.325,215.197 176.200 C 214.912 184.587,214.618 188.354,214.028 191.200 C 213.212 195.133,212.400 206.216,212.400 213.412 C 212.400 218.962,212.501 218.800,209.037 218.800 C 204.929 218.800,205.200 219.811,205.200 204.485 L 205.200 191.131 202.982 188.965 C 201.176 187.202,200.511 186.800,199.401 186.800 C 197.906 186.800,196.000 187.521,196.000 188.087 C 196.000 188.284,195.221 188.789,194.270 189.210 C 193.272 189.652,192.344 190.404,192.078 190.988 C 191.801 191.596,191.287 192.000,190.790 192.000 C 190.290 192.000,189.694 192.473,189.281 193.197 C 188.907 193.856,188.376 194.396,188.101 194.397 C 187.827 194.399,186.927 195.004,186.101 195.742 C 185.276 196.481,183.835 197.563,182.900 198.147 C 181.965 198.732,181.200 199.371,181.200 199.567 C 181.200 199.763,180.402 200.392,179.427 200.963 C 178.451 201.535,177.545 202.344,177.412 202.762 C 177.280 203.179,176.716 203.635,176.159 203.775 C 175.602 203.914,174.843 204.561,174.473 205.212 C 174.103 205.863,173.477 206.396,173.082 206.397 C 172.687 206.399,171.956 206.805,171.458 207.300 C 170.132 208.618,167.715 210.400,167.254 210.400 C 167.034 210.400,166.743 210.751,166.606 211.180 C 166.470 211.608,165.971 212.082,165.497 212.233 C 165.023 212.383,163.998 213.100,163.218 213.827 C 158.447 218.272,158.903 218.023,158.689 216.300 L 158.528 215.000 158.464 216.476 C 158.380 218.413,159.033 218.747,160.341 217.436 C 161.633 216.141,164.755 213.550,167.611 211.400 C 168.780 210.520,170.491 209.125,171.413 208.300 C 172.335 207.475,173.249 206.800,173.444 206.800 C 173.640 206.800,174.340 206.253,175.000 205.584 C 176.532 204.030,179.964 201.202,180.324 201.194 C 180.476 201.191,181.396 200.471,182.368 199.594 C 183.340 198.717,184.279 198.000,184.454 198.000 C 184.629 198.000,185.299 197.505,185.942 196.900 C 186.586 196.295,188.247 194.900,189.633 193.800 C 191.019 192.700,192.524 191.426,192.977 190.968 C 193.430 190.511,194.340 189.860,195.000 189.523 C 195.660 189.185,196.740 188.616,197.400 188.257 C 199.082 187.343,200.007 187.445,201.462 188.706 C 202.157 189.308,203.057 189.999,203.462 190.243 C 204.150 190.656,204.214 191.617,204.400 204.302 C 204.638 220.487,204.368 219.600,209.048 219.600 C 212.795 219.600,212.662 219.887,213.187 210.651 C 213.420 206.542,213.963 200.169,214.393 196.490 C 214.824 192.810,215.363 185.750,215.591 180.800 C 216.324 164.891,216.810 157.497,217.403 153.200 C 218.222 147.273,218.796 138.721,218.800 132.400 C 218.804 125.958,219.408 117.173,220.190 112.200 C 220.501 110.220,220.954 104.910,221.196 100.400 C 222.029 84.869,220.557 85.912,241.400 86.082 L 255.800 86.200 257.516 87.315 C 259.934 88.886,260.065 89.467,260.421 100.200 C 260.703 108.680,261.371 116.894,261.843 117.666 C 262.083 118.060,262.721 128.428,263.202 139.766 C 263.583 148.747,264.038 154.468,265.191 164.800 C 265.400 166.670,265.765 172.880,266.003 178.600 C 266.534 191.374,266.664 192.585,266.736 185.400 C 266.821 176.933,266.064 160.797,265.378 156.454 C 265.044 154.334,264.598 151.520,264.387 150.200 C 264.177 148.880,263.828 141.950,263.612 134.800 C 263.176 120.371,262.643 113.257,261.760 110.091 C 261.383 108.737,261.040 104.512,260.803 98.291 C 260.600 92.961,260.427 88.559,260.417 88.509 C 260.408 88.458,259.165 87.603,257.655 86.609 L 254.910 84.800 240.504 84.800 C 227.889 84.800,226.033 84.878,225.576 85.429 M151.963 186.968 C 151.174 187.240,149.914 187.916,149.164 188.472 C 148.414 189.027,147.468 189.599,147.062 189.743 C 146.656 189.887,146.234 190.348,146.124 190.769 C 146.014 191.190,145.408 191.748,144.777 192.009 C 144.147 192.271,143.165 193.095,142.595 193.842 C 142.025 194.589,141.290 195.200,140.961 195.200 C 140.632 195.200,140.056 195.739,139.681 196.397 C 139.307 197.056,138.751 197.596,138.447 197.597 C 138.143 197.599,137.333 198.185,136.647 198.900 C 135.961 199.615,134.905 200.455,134.300 200.768 C 133.695 201.080,133.200 201.484,133.200 201.665 C 133.200 201.847,132.435 202.542,131.500 203.210 C 129.362 204.739,127.061 206.644,125.448 208.220 C 124.762 208.891,123.705 209.751,123.100 210.129 C 122.495 210.508,122.000 211.052,122.000 211.337 C 122.000 211.622,121.415 212.113,120.700 212.428 C 119.985 212.743,119.222 213.405,119.005 213.900 C 118.788 214.395,118.393 214.800,118.128 214.800 C 117.863 214.800,116.601 215.712,115.323 216.826 C 111.290 220.344,111.612 214.979,111.605 278.931 L 111.600 334.462 112.769 335.631 L 113.938 336.800 199.189 336.800 C 294.504 336.800,286.350 337.069,287.252 333.898 C 287.518 332.964,287.885 332.029,288.067 331.820 C 288.561 331.256,288.494 225.705,288.000 225.400 C 287.780 225.264,287.600 224.728,287.600 224.209 C 287.600 222.666,287.217 222.081,285.105 220.400 L 283.095 218.800 276.562 218.800 C 268.615 218.800,269.386 219.800,269.033 209.036 C 268.882 204.414,268.484 199.223,268.144 197.436 C 266.817 190.466,266.905 190.707,266.850 193.895 C 266.823 195.486,267.153 199.266,267.584 202.295 C 268.015 205.323,268.486 210.050,268.631 212.800 C 269.005 219.923,268.655 219.600,275.976 219.600 C 281.594 219.600,282.052 219.659,284.004 220.640 C 287.709 222.501,287.400 217.262,287.400 278.200 C 287.400 335.102,287.444 333.731,285.543 335.452 C 284.737 336.181,117.862 336.923,114.928 336.211 C 112.648 335.657,112.800 339.824,112.800 277.952 C 112.800 214.774,112.541 220.212,115.675 217.516 C 116.624 216.699,118.557 215.044,119.972 213.838 C 121.386 212.631,122.700 211.364,122.892 211.022 C 123.083 210.680,123.437 210.400,123.678 210.400 C 123.920 210.400,124.965 209.635,126.002 208.700 C 127.038 207.765,128.820 206.280,129.960 205.400 C 131.100 204.520,132.644 203.260,133.391 202.600 C 134.138 201.940,135.597 200.680,136.634 199.800 C 137.671 198.920,139.078 197.706,139.760 197.101 C 140.442 196.497,141.990 195.175,143.200 194.164 C 144.410 193.153,145.881 191.890,146.468 191.359 C 147.767 190.183,152.269 187.600,153.018 187.600 C 153.623 187.600,156.835 189.678,157.536 190.523 C 157.844 190.894,158.024 194.884,158.100 203.034 L 158.212 215.000 158.306 202.549 L 158.400 190.097 156.300 188.508 C 153.473 186.368,153.590 186.409,151.963 186.968 "
       stroke="none"
       fill="#fcb688"
       fill-rule="evenodd"
       style="fill:#fffeff;fill-opacity:1" />
    <path
       id="path3"
       d="M119.435 53.660 C 114.881 56.676,114.974 63.367,119.588 64.749 C 120.455 65.009,121.693 65.667,122.340 66.211 C 122.986 66.755,123.689 67.200,123.902 67.200 C 124.114 67.200,125.528 68.373,127.044 69.808 C 128.560 71.242,130.520 72.906,131.400 73.506 C 132.280 74.107,133.090 74.708,133.200 74.843 C 135.467 77.624,149.600 77.531,149.600 74.736 C 149.600 74.563,150.185 74.119,150.900 73.750 C 151.615 73.381,153.683 71.781,155.496 70.193 C 160.680 65.652,161.227 65.702,167.093 71.244 C 168.465 72.540,169.725 73.600,169.893 73.601 C 170.062 73.601,170.814 74.127,171.565 74.769 C 175.031 77.731,185.729 77.765,188.000 74.821 C 188.110 74.678,189.010 74.087,190.000 73.508 C 190.990 72.928,192.960 71.340,194.379 69.979 C 197.047 67.418,199.883 65.825,200.600 66.485 C 200.820 66.687,201.589 67.201,202.310 67.627 C 203.030 68.052,203.785 68.805,203.986 69.300 C 204.405 70.330,206.702 72.797,209.018 74.702 C 213.216 78.156,221.323 77.919,222.990 74.292 C 223.317 73.581,223.799 72.704,224.063 72.343 C 225.280 70.673,221.724 65.507,218.755 64.630 C 217.300 64.200,214.000 61.537,214.000 60.792 C 214.000 59.714,209.281 55.887,206.053 54.347 C 200.233 51.571,193.753 52.542,189.077 56.891 C 188.540 57.391,187.672 58.206,187.150 58.702 C 186.627 59.198,185.954 59.828,185.654 60.102 C 185.353 60.376,184.510 61.185,183.781 61.900 C 182.508 63.147,180.909 64.000,179.845 64.000 C 179.357 64.000,177.051 62.226,171.396 57.500 C 169.883 56.235,168.450 55.200,168.212 55.200 C 167.974 55.200,166.704 54.666,165.390 54.013 C 160.506 51.586,154.186 53.223,149.041 58.246 C 147.827 59.431,146.745 60.400,146.635 60.400 C 146.525 60.400,145.662 61.123,144.717 62.006 C 142.013 64.534,140.504 64.453,137.825 61.636 C 137.179 60.956,136.443 60.400,136.189 60.400 C 135.936 60.400,135.523 59.950,135.273 59.400 C 135.022 58.850,134.634 58.400,134.410 58.400 C 134.186 58.400,133.318 57.782,132.481 57.026 C 131.644 56.270,130.018 55.280,128.867 54.826 C 127.716 54.373,126.375 53.751,125.887 53.446 C 124.050 52.295,121.360 52.385,119.435 53.660 M125.112 54.954 C 126.370 55.479,128.030 56.038,128.800 56.196 C 129.570 56.354,130.650 56.921,131.200 57.454 C 133.968 60.141,136.537 62.400,136.824 62.400 C 137.001 62.400,137.259 62.756,137.397 63.192 C 138.356 66.211,143.526 65.267,147.685 61.312 C 149.253 59.820,150.982 58.176,151.527 57.659 C 152.073 57.141,153.617 56.362,154.959 55.926 C 156.302 55.491,157.799 54.880,158.286 54.568 C 159.489 53.797,160.768 53.854,162.849 54.772 C 163.812 55.196,165.465 55.760,166.522 56.025 C 167.580 56.290,168.946 56.977,169.560 57.553 C 170.173 58.129,171.620 59.410,172.775 60.400 C 173.930 61.390,175.354 62.629,175.938 63.153 C 177.769 64.796,179.391 65.286,181.315 64.777 C 183.034 64.321,183.368 64.060,188.135 59.431 C 190.283 57.344,191.398 56.593,193.335 55.930 C 194.691 55.465,196.155 54.840,196.589 54.542 C 197.906 53.637,200.880 53.896,204.136 55.200 C 205.785 55.860,207.321 56.400,207.550 56.400 C 207.780 56.400,208.702 57.120,209.600 58.000 C 210.498 58.880,211.403 59.600,211.611 59.600 C 211.819 59.600,212.240 60.185,212.547 60.900 C 213.231 62.494,215.172 64.489,216.905 65.378 C 221.070 67.516,221.393 67.781,221.945 69.525 C 222.523 71.350,222.043 74.359,221.050 75.138 C 219.407 76.426,212.095 75.776,210.400 74.191 C 207.518 71.496,205.091 68.878,204.568 67.900 C 204.244 67.295,203.802 66.800,203.586 66.800 C 203.370 66.800,202.628 66.260,201.937 65.600 C 200.136 63.879,198.626 64.324,195.000 67.643 C 194.340 68.247,193.006 69.468,192.035 70.356 C 191.063 71.244,189.623 72.269,188.835 72.634 C 188.046 72.999,186.950 73.703,186.400 74.200 C 183.980 76.385,174.846 76.218,172.723 73.950 C 172.130 73.318,171.429 72.800,171.165 72.800 C 170.901 72.800,169.206 71.380,167.399 69.645 C 165.591 67.909,163.727 66.367,163.256 66.218 C 162.785 66.068,162.400 65.778,162.400 65.573 C 162.400 63.741,157.852 66.035,153.616 70.004 C 151.975 71.542,150.392 72.800,150.098 72.800 C 149.804 72.800,149.077 73.290,148.482 73.889 C 146.198 76.187,137.171 76.404,134.800 74.217 C 134.250 73.710,133.317 73.049,132.726 72.748 C 132.135 72.446,130.494 71.092,129.079 69.738 C 127.664 68.383,125.908 66.966,125.177 66.588 C 124.446 66.210,123.567 65.581,123.224 65.190 C 122.881 64.799,121.644 64.173,120.475 63.799 C 118.243 63.085,117.778 62.485,117.316 59.722 C 116.967 57.634,117.468 56.525,119.201 55.551 C 120.081 55.057,120.800 54.506,120.800 54.326 C 120.800 53.707,122.831 54.003,125.112 54.954 M224.800 86.917 C 221.729 88.423,221.865 87.913,221.196 100.400 C 220.954 104.910,220.501 110.220,220.190 112.200 C 219.408 117.173,218.804 125.958,218.800 132.400 C 218.796 138.721,218.222 147.273,217.403 153.200 C 216.810 157.497,216.324 164.891,215.591 180.800 C 215.363 185.750,214.824 192.810,214.393 196.490 C 213.963 200.169,213.420 206.542,213.187 210.651 C 212.662 219.887,212.795 219.600,209.048 219.600 C 204.368 219.600,204.638 220.487,204.400 204.302 C 204.214 191.617,204.150 190.656,203.462 190.243 C 203.057 189.999,202.157 189.308,201.462 188.706 C 200.007 187.445,199.082 187.343,197.400 188.257 C 196.740 188.616,195.660 189.185,195.000 189.523 C 194.340 189.860,193.430 190.511,192.977 190.968 C 192.524 191.426,191.019 192.700,189.633 193.800 C 188.247 194.900,186.586 196.295,185.942 196.900 C 185.299 197.505,184.629 198.000,184.454 198.000 C 184.279 198.000,183.340 198.717,182.368 199.594 C 181.396 200.471,180.476 201.191,180.324 201.194 C 179.964 201.202,176.532 204.030,175.000 205.584 C 174.340 206.253,173.640 206.800,173.444 206.800 C 173.249 206.800,172.335 207.475,171.413 208.300 C 170.491 209.125,168.780 210.520,167.611 211.400 C 164.714 213.580,161.624 216.150,160.307 217.474 C 158.306 219.485,158.214 218.945,158.064 204.280 C 157.976 195.767,157.776 190.817,157.506 190.489 C 156.833 189.674,153.612 187.600,153.018 187.600 C 152.269 187.600,147.767 190.183,146.468 191.359 C 145.881 191.890,144.410 193.153,143.200 194.164 C 141.990 195.175,140.442 196.497,139.760 197.101 C 139.078 197.706,137.671 198.920,136.634 199.800 C 135.597 200.680,134.138 201.940,133.391 202.600 C 132.644 203.260,131.100 204.520,129.960 205.400 C 128.820 206.280,127.038 207.765,126.002 208.700 C 124.965 209.635,123.920 210.400,123.678 210.400 C 123.437 210.400,123.083 210.680,122.892 211.022 C 122.700 211.364,121.386 212.631,119.972 213.838 C 118.557 215.044,116.624 216.699,115.675 217.516 C 112.541 220.212,112.800 214.774,112.800 277.952 C 112.800 339.824,112.648 335.657,114.928 336.211 C 117.862 336.923,284.737 336.181,285.543 335.452 C 287.444 333.731,287.400 335.102,287.400 278.200 C 287.400 217.262,287.709 222.501,284.004 220.640 C 282.052 219.659,281.594 219.600,275.976 219.600 C 268.655 219.600,269.005 219.923,268.631 212.800 C 268.486 210.050,268.031 205.370,267.618 202.400 C 267.206 199.430,266.670 192.410,266.429 186.800 C 265.922 175.047,265.182 162.716,264.961 162.345 C 264.590 161.723,263.588 148.862,263.202 139.766 C 262.721 128.428,262.083 118.060,261.843 117.666 C 261.371 116.894,260.703 108.680,260.421 100.200 C 260.065 89.467,259.934 88.886,257.516 87.315 L 255.800 86.200 241.200 86.117 C 226.870 86.036,226.567 86.051,224.800 86.917 M256.929 88.639 C 258.919 90.484,258.776 89.258,260.022 115.200 C 260.271 120.370,260.719 125.950,261.019 127.600 C 261.783 131.801,262.400 140.375,262.400 146.787 C 262.400 153.684,263.059 164.004,263.779 168.400 C 264.391 172.132,264.990 181.064,265.613 195.748 C 266.064 206.361,267.328 217.514,268.293 219.381 C 269.371 221.466,269.742 221.571,276.200 221.618 C 283.844 221.673,285.250 222.052,285.691 224.172 C 286.116 226.221,285.899 333.200,285.467 334.074 C 285.277 334.459,284.283 334.930,283.148 335.174 C 280.129 335.821,115.528 335.768,114.880 335.120 C 114.511 334.751,114.400 321.365,114.400 277.301 L 114.400 219.963 115.601 219.281 C 116.262 218.907,116.901 218.294,117.021 217.920 C 117.142 217.547,117.619 217.121,118.082 216.974 C 118.544 216.827,119.593 216.053,120.413 215.254 C 122.734 212.991,124.848 211.158,127.399 209.200 C 130.575 206.761,134.993 203.064,137.912 200.400 C 139.836 198.644,142.120 196.714,145.012 194.400 C 146.249 193.410,147.917 192.020,148.719 191.311 C 150.678 189.580,152.922 189.238,155.086 190.342 C 157.161 191.400,157.200 191.699,157.200 206.440 C 157.200 217.785,157.214 217.982,158.075 218.784 C 159.236 219.865,159.399 219.834,161.081 218.200 C 161.874 217.430,162.753 216.800,163.034 216.800 C 163.315 216.800,163.930 216.260,164.400 215.600 C 164.870 214.940,165.467 214.398,165.727 214.396 C 166.153 214.393,168.975 212.217,172.200 209.406 C 172.860 208.830,173.670 208.197,174.000 208.000 C 174.555 207.666,175.728 206.672,178.813 203.919 C 179.479 203.324,180.738 202.436,181.612 201.945 C 182.485 201.454,183.200 200.936,183.200 200.794 C 183.200 200.652,184.055 199.925,185.100 199.180 C 186.145 198.434,187.328 197.414,187.729 196.912 C 188.130 196.410,188.703 196.000,189.002 196.000 C 189.301 196.000,189.930 195.460,190.400 194.800 C 190.870 194.140,191.491 193.600,191.780 193.600 C 192.069 193.600,192.821 193.090,193.453 192.467 C 196.554 189.405,199.490 188.799,201.694 190.767 L 203.000 191.933 203.200 205.267 C 203.446 221.638,203.432 221.600,209.027 221.600 C 213.134 221.600,213.904 220.550,214.233 214.507 C 214.350 212.358,214.700 209.070,215.012 207.200 C 215.842 202.228,216.352 194.931,216.817 181.400 C 217.043 174.800,217.388 168.410,217.584 167.200 C 218.547 161.240,218.773 158.581,219.183 148.400 C 219.717 135.150,220.307 125.892,220.836 122.462 C 221.554 117.810,221.992 111.895,222.389 101.504 C 222.976 86.135,220.956 87.642,241.004 87.618 L 255.808 87.600 256.929 88.639 "
       stroke="none"
       fill="#fcc498"
       fill-rule="evenodd"
       style="fill:#fffeff;fill-opacity:1" />
    <path
       id="path4"
       d="M117.600 51.953 C 116.852 52.157,116.438 52.711,115.956 54.155 C 115.601 55.216,115.112 56.207,114.868 56.358 C 113.115 57.442,113.223 61.463,115.024 62.154 C 115.341 62.275,115.600 62.818,115.600 63.359 C 115.600 64.613,116.581 65.600,117.829 65.600 C 118.376 65.600,118.800 65.835,118.800 66.138 C 118.800 66.888,120.008 67.898,121.200 68.144 C 121.750 68.257,122.675 68.450,123.256 68.571 C 123.957 68.719,124.397 69.134,124.566 69.809 C 124.743 70.514,125.171 70.894,125.964 71.053 C 126.814 71.223,127.200 71.602,127.465 72.529 C 127.729 73.449,128.155 73.872,129.084 74.138 C 129.895 74.371,130.508 74.896,130.805 75.612 C 131.324 76.865,132.196 77.203,134.800 77.158 L 136.600 77.128 135.289 76.750 C 133.856 76.336,128.400 72.525,128.400 71.937 C 128.400 71.737,127.778 71.206,127.018 70.757 C 126.257 70.309,125.529 69.606,125.399 69.196 C 125.268 68.785,124.558 68.250,123.820 68.006 C 123.081 67.763,122.039 67.157,121.503 66.661 C 120.968 66.164,119.717 65.448,118.724 65.069 C 116.088 64.062,114.909 60.432,115.957 56.553 C 117.134 52.201,124.201 50.341,127.803 53.436 C 128.417 53.964,129.553 54.570,130.329 54.785 C 131.104 54.999,132.248 55.675,132.869 56.287 C 133.954 57.355,134.833 58.137,138.801 61.564 C 141.618 63.997,141.478 64.052,148.098 57.906 C 150.042 56.101,151.627 55.000,152.900 54.573 C 153.945 54.223,154.800 53.761,154.800 53.547 C 154.800 51.653,163.770 51.462,165.966 53.310 C 166.665 53.898,167.904 54.559,168.720 54.778 C 169.536 54.998,170.483 55.498,170.824 55.889 C 171.165 56.280,171.956 56.960,172.581 57.400 C 174.015 58.410,176.518 60.603,178.216 62.337 L 179.524 63.674 180.976 62.985 C 181.774 62.606,182.615 61.945,182.845 61.516 C 183.074 61.088,183.788 60.553,184.431 60.329 C 185.074 60.105,185.600 59.678,185.600 59.380 C 185.600 59.081,186.064 58.514,186.630 58.119 C 187.197 57.723,188.197 56.835,188.853 56.145 C 189.509 55.455,190.562 54.788,191.192 54.662 C 191.823 54.535,192.670 54.077,193.075 53.642 C 194.793 51.798,202.052 51.259,204.800 52.772 C 205.570 53.196,207.130 53.989,208.267 54.534 C 209.403 55.080,210.620 55.963,210.969 56.497 C 211.319 57.031,212.051 57.706,212.596 57.998 C 213.141 58.289,213.704 58.898,213.848 59.350 C 214.352 60.940,217.403 63.539,219.336 64.026 C 220.684 64.365,221.465 64.875,222.276 65.944 C 222.883 66.745,223.723 67.681,224.141 68.025 C 226.474 69.941,223.817 77.200,220.784 77.200 C 220.335 77.200,219.461 77.575,218.841 78.033 C 217.704 78.873,214.400 78.504,214.400 77.537 C 214.400 77.352,213.950 77.200,213.400 77.200 C 212.172 77.200,212.005 78.560,213.158 79.177 C 215.549 80.457,222.000 79.621,222.000 78.031 C 222.000 77.803,222.700 77.259,223.556 76.823 C 226.751 75.192,227.098 66.400,223.967 66.400 C 223.411 66.400,223.109 66.045,222.938 65.192 C 222.632 63.660,222.288 63.454,219.624 63.204 C 217.576 63.012,217.428 62.925,217.119 61.726 C 216.864 60.736,216.547 60.424,215.695 60.326 C 214.782 60.221,214.567 59.968,214.400 58.805 C 214.261 57.837,213.963 57.364,213.428 57.261 C 212.593 57.102,212.048 56.607,211.359 55.383 C 211.117 54.952,210.487 54.544,209.959 54.475 C 209.432 54.406,208.518 53.776,207.930 53.075 L 206.859 51.800 200.752 51.670 C 193.399 51.513,192.091 51.700,191.777 52.949 C 191.602 53.647,191.074 53.984,189.537 54.377 C 187.945 54.785,187.305 55.210,186.463 56.417 C 185.878 57.255,184.998 58.047,184.506 58.177 C 183.996 58.311,183.505 58.839,183.363 59.406 C 183.209 60.019,182.828 60.400,182.369 60.400 C 181.959 60.400,181.225 60.940,180.737 61.600 C 179.638 63.086,179.289 63.108,179.127 61.702 C 179.029 60.858,178.741 60.557,177.884 60.402 C 177.218 60.281,176.572 59.797,176.280 59.200 C 176.011 58.650,175.240 57.956,174.567 57.659 C 173.882 57.356,173.159 56.625,172.922 55.999 C 172.567 55.058,172.132 54.797,170.192 54.363 C 168.534 53.992,167.830 53.635,167.688 53.093 C 167.375 51.898,165.911 51.600,160.348 51.600 C 154.901 51.600,153.600 51.911,153.600 53.214 C 153.600 53.750,153.328 54.000,152.746 54.000 C 150.632 54.000,148.697 54.948,148.153 56.251 C 147.821 57.045,147.280 57.592,146.747 57.671 C 145.898 57.798,145.473 58.303,145.041 59.700 C 144.908 60.133,144.426 60.400,143.778 60.400 C 142.981 60.400,142.622 60.688,142.278 61.600 C 141.724 63.066,141.367 63.120,141.033 61.788 C 140.851 61.064,140.428 60.706,139.548 60.530 C 138.675 60.355,138.205 59.961,137.930 59.171 C 137.696 58.498,137.093 57.902,136.409 57.663 C 135.785 57.446,135.156 56.891,135.009 56.430 C 134.700 55.455,133.182 54.583,131.120 54.196 C 130.062 53.998,129.605 53.676,129.438 53.010 C 129.104 51.677,121.197 50.971,117.600 51.953 M198.158 67.847 C 197.142 68.207,196.343 68.807,196.063 69.422 C 195.814 69.969,195.153 70.590,194.595 70.802 C 194.036 71.014,193.478 71.452,193.354 71.774 C 192.873 73.029,187.145 76.456,184.838 76.870 C 183.607 77.090,181.914 77.626,181.076 78.061 C 179.564 78.845,179.543 78.845,178.229 78.070 C 177.502 77.641,175.979 77.162,174.845 77.006 C 173.347 76.800,172.337 76.350,171.154 75.361 C 170.258 74.613,169.398 74.000,169.244 74.000 C 169.089 74.000,167.441 72.559,165.581 70.798 C 163.081 68.429,161.992 67.647,161.400 67.792 C 160.960 67.900,160.240 67.996,159.800 68.004 C 159.360 68.013,157.650 69.275,156.000 70.810 C 154.350 72.345,152.404 73.885,151.676 74.231 C 150.948 74.577,150.254 75.115,150.134 75.427 C 149.901 76.035,146.468 77.200,144.911 77.200 C 144.392 77.200,143.447 77.585,142.811 78.055 L 141.654 78.911 140.204 78.055 C 138.511 77.056,136.800 76.923,136.800 77.791 C 136.800 80.287,145.471 80.464,146.121 77.982 C 146.280 77.373,146.674 77.200,147.903 77.200 C 150.127 77.200,151.818 76.518,152.318 75.420 C 152.559 74.892,153.358 74.278,154.141 74.019 C 155.098 73.704,155.659 73.206,155.929 72.433 C 156.170 71.741,156.707 71.210,157.321 71.056 C 157.955 70.896,158.473 70.366,158.739 69.602 C 159.362 67.817,162.178 67.789,162.533 69.564 C 162.713 70.464,163.049 70.791,164.010 71.002 C 164.694 71.152,165.345 71.573,165.456 71.938 C 165.882 73.335,166.308 73.777,167.533 74.095 C 168.409 74.322,168.800 74.663,168.800 75.201 C 168.800 76.255,170.746 77.200,172.916 77.200 C 174.373 77.200,174.745 77.361,175.102 78.144 C 176.095 80.325,182.080 80.456,184.056 78.340 C 184.886 77.451,185.476 77.200,186.734 77.200 C 188.992 77.200,190.336 76.596,190.623 75.452 C 190.802 74.739,191.227 74.409,192.205 74.225 C 193.269 74.026,193.594 73.737,193.798 72.809 C 193.988 71.944,194.398 71.531,195.388 71.204 C 196.251 70.919,196.805 70.434,196.957 69.830 C 197.179 68.944,198.183 68.418,199.672 68.405 C 200.633 68.398,203.130 70.878,203.644 72.353 C 203.926 73.163,204.433 73.693,205.079 73.856 C 205.707 74.013,206.231 74.544,206.488 75.282 C 206.963 76.642,208.164 77.207,210.526 77.182 L 212.200 77.165 210.636 76.608 C 208.725 75.927,204.165 71.512,203.598 69.793 C 203.227 68.669,202.562 68.215,200.000 67.335 C 199.890 67.298,199.061 67.528,198.158 67.847 M224.678 84.044 C 224.281 84.276,223.790 84.900,223.588 85.432 C 223.384 85.968,222.894 86.400,222.490 86.400 C 221.060 86.400,220.797 87.207,220.869 91.380 L 220.938 95.400 221.169 92.000 C 221.435 88.078,221.540 87.851,223.554 86.824 C 224.379 86.403,225.289 85.775,225.576 85.429 C 226.033 84.878,227.889 84.800,240.504 84.800 L 254.910 84.800 257.655 86.609 C 259.165 87.603,260.408 88.458,260.417 88.509 C 260.427 88.559,260.600 92.961,260.803 98.291 C 261.040 104.512,261.383 108.737,261.760 110.091 C 262.643 113.257,263.176 120.371,263.612 134.800 C 263.828 141.950,264.177 148.880,264.387 150.200 C 264.598 151.520,265.044 154.334,265.378 156.454 C 266.006 160.428,266.771 175.690,266.820 185.200 C 266.835 188.170,267.003 191.410,267.192 192.400 C 267.381 193.390,267.811 195.656,268.148 197.436 C 268.484 199.215,268.883 204.435,269.033 209.036 C 269.386 219.800,268.615 218.800,276.562 218.800 L 283.095 218.800 285.105 220.400 C 287.217 222.081,287.600 222.666,287.600 224.209 C 287.600 224.728,287.780 225.264,288.000 225.400 C 288.494 225.705,288.561 331.256,288.067 331.820 C 287.885 332.029,287.518 332.964,287.252 333.898 C 286.350 337.069,294.504 336.800,199.189 336.800 L 113.938 336.800 112.769 335.631 L 111.600 334.462 111.605 278.931 C 111.612 214.979,111.290 220.344,115.323 216.826 C 116.601 215.712,117.863 214.800,118.128 214.800 C 118.393 214.800,118.788 214.395,119.005 213.900 C 119.222 213.405,119.985 212.743,120.700 212.428 C 121.415 212.113,122.000 211.622,122.000 211.337 C 122.000 211.052,122.495 210.508,123.100 210.129 C 123.705 209.751,124.762 208.891,125.448 208.220 C 127.061 206.644,129.362 204.739,131.500 203.210 C 132.435 202.542,133.200 201.847,133.200 201.665 C 133.200 201.484,133.695 201.080,134.300 200.768 C 134.905 200.455,135.961 199.615,136.647 198.900 C 137.333 198.185,138.143 197.599,138.447 197.597 C 138.751 197.596,139.307 197.056,139.681 196.397 C 140.056 195.739,140.632 195.200,140.961 195.200 C 141.290 195.200,142.025 194.589,142.595 193.842 C 143.165 193.095,144.147 192.271,144.777 192.009 C 145.408 191.748,146.014 191.190,146.124 190.769 C 146.234 190.348,146.656 189.883,147.062 189.736 C 147.468 189.588,148.523 188.956,149.408 188.332 C 152.406 186.215,153.260 186.204,155.970 188.241 L 158.343 190.025 158.472 203.580 C 158.542 211.035,158.713 217.247,158.851 217.385 C 159.086 217.620,159.570 217.226,163.218 213.827 C 163.998 213.100,165.023 212.383,165.497 212.233 C 165.971 212.082,166.470 211.608,166.606 211.180 C 166.743 210.751,167.034 210.400,167.254 210.400 C 167.715 210.400,170.132 208.618,171.458 207.300 C 171.956 206.805,172.687 206.399,173.082 206.397 C 173.477 206.396,174.103 205.863,174.473 205.212 C 174.843 204.561,175.602 203.914,176.159 203.775 C 176.716 203.635,177.280 203.179,177.412 202.762 C 177.545 202.344,178.451 201.535,179.427 200.963 C 180.402 200.392,181.200 199.763,181.200 199.567 C 181.200 199.371,181.965 198.732,182.900 198.147 C 183.835 197.563,185.276 196.481,186.101 195.742 C 186.927 195.004,187.827 194.399,188.101 194.397 C 188.376 194.396,188.907 193.856,189.281 193.197 C 189.694 192.473,190.290 192.000,190.790 192.000 C 191.287 192.000,191.801 191.596,192.078 190.988 C 192.344 190.404,193.272 189.652,194.270 189.210 C 195.221 188.789,196.000 188.284,196.000 188.087 C 196.000 187.521,197.906 186.800,199.401 186.800 C 200.511 186.800,201.176 187.202,202.982 188.965 L 205.200 191.131 205.200 204.485 C 205.200 219.811,204.929 218.800,209.037 218.800 C 212.501 218.800,212.400 218.962,212.400 213.412 C 212.400 206.216,213.212 195.133,214.028 191.200 C 214.618 188.354,214.912 184.587,215.197 176.200 C 215.873 156.325,216.136 152.902,217.593 145.000 C 217.796 143.900,218.151 136.340,218.383 128.200 C 218.816 113.002,219.188 108.231,220.241 104.400 C 220.596 103.106,220.795 101.047,220.723 99.400 L 220.600 96.600 219.720 98.016 C 218.471 100.022,218.094 105.125,217.819 123.686 C 217.606 138.028,217.532 139.269,216.817 140.486 C 215.441 142.829,215.151 146.505,214.932 164.400 L 214.719 181.800 213.695 183.314 C 212.482 185.109,212.066 191.324,212.024 208.317 L 212.000 218.034 208.900 217.917 L 205.800 217.800 205.600 203.433 C 205.429 191.137,205.314 189.038,204.800 188.869 C 204.470 188.761,203.634 188.056,202.942 187.304 C 200.758 184.928,195.726 185.116,194.858 187.605 C 194.560 188.461,194.181 188.802,193.521 188.806 C 192.232 188.815,191.703 189.240,191.540 190.400 C 191.431 191.176,191.131 191.429,190.200 191.529 C 189.520 191.603,188.393 192.234,187.600 192.985 C 186.830 193.715,185.607 194.610,184.883 194.975 C 184.158 195.340,183.407 196.054,183.214 196.563 C 182.995 197.139,182.415 197.577,181.677 197.725 C 180.826 197.895,180.375 198.297,180.077 199.151 C 179.769 200.034,179.370 200.374,178.531 200.470 C 177.648 200.572,177.316 200.885,177.017 201.900 C 176.705 202.960,176.431 203.200,175.531 203.200 C 174.805 203.200,173.953 203.674,173.045 204.581 C 172.286 205.341,171.044 206.222,170.286 206.538 C 169.408 206.905,168.818 207.474,168.659 208.106 C 168.483 208.807,168.051 209.170,167.187 209.343 C 166.302 209.520,165.850 209.911,165.556 210.754 C 165.248 211.638,164.822 211.982,163.800 212.174 C 162.707 212.379,162.427 212.633,162.325 213.513 C 162.232 214.325,161.947 214.635,161.200 214.738 C 160.650 214.814,159.986 215.052,159.725 215.266 C 159.361 215.565,159.221 212.644,159.125 202.728 C 158.988 188.563,158.924 188.168,156.520 186.577 C 154.239 185.067,149.196 185.674,148.212 187.577 C 147.869 188.240,147.219 188.799,146.704 188.872 C 146.138 188.952,145.590 189.478,145.237 190.280 C 144.844 191.172,144.360 191.596,143.637 191.680 C 142.909 191.764,142.429 192.188,142.028 193.100 C 141.640 193.982,141.181 194.400,140.601 194.400 C 140.130 194.400,139.199 195.020,138.523 195.783 C 137.849 196.544,136.648 197.476,135.853 197.855 C 135.058 198.234,134.310 198.854,134.189 199.234 C 134.069 199.613,133.338 200.223,132.565 200.590 C 131.791 200.957,131.001 201.672,130.808 202.180 C 130.615 202.687,129.897 203.297,129.213 203.535 C 128.383 203.825,127.828 204.373,127.545 205.185 C 127.227 206.099,126.876 206.400,126.126 206.400 C 125.394 206.400,125.014 206.708,124.691 207.563 C 124.402 208.329,123.843 208.844,123.055 209.070 C 122.360 209.269,121.581 209.914,121.199 210.607 C 120.836 211.263,120.155 211.857,119.684 211.926 C 119.214 211.995,118.238 212.625,117.515 213.326 C 116.792 214.027,115.673 214.870,115.028 215.200 C 114.383 215.530,113.562 216.340,113.204 217.000 C 112.845 217.660,112.150 218.380,111.659 218.600 C 110.192 219.258,110.200 218.914,110.200 278.238 C 110.200 341.195,109.999 336.548,112.740 337.042 C 113.543 337.186,114.400 337.462,114.644 337.655 C 115.244 338.128,281.082 337.830,284.200 337.351 C 287.190 336.891,287.600 336.634,287.600 335.223 C 287.600 334.432,287.838 334.031,288.395 333.885 C 290.008 333.464,290.015 333.226,289.906 277.524 L 289.800 223.531 288.788 222.660 C 288.231 222.181,287.525 221.185,287.219 220.445 C 286.334 218.309,285.052 218.000,277.077 218.000 L 270.129 218.000 269.876 206.453 C 269.601 193.873,269.161 189.583,267.975 187.920 C 267.253 186.907,267.186 185.666,266.888 167.876 L 266.571 148.911 265.496 146.838 L 264.420 144.764 264.186 129.282 C 263.903 110.499,263.571 106.170,262.197 103.360 C 261.257 101.438,261.200 100.942,261.200 94.749 C 261.200 87.737,260.876 86.400,259.177 86.400 C 258.750 86.400,258.400 86.212,258.400 85.982 C 258.400 85.752,257.958 85.122,257.418 84.582 L 256.436 83.600 240.918 83.612 C 230.824 83.620,225.148 83.771,224.678 84.044 "
       stroke="none"
       fill="#fca464"
       fill-rule="evenodd"
       style="fill:#fffeff;fill-opacity:1" />
  </g>
</svg>
