<svg id="eHJA3CqiFgs1" xmlns="http://www.w3.org/2000/svg" xmlns:xlink="http://www.w3.org/1999/xlink" viewBox="0 0 400 400" shape-rendering="geometricPrecision" text-rendering="geometricPrecision"><g><path d="M258.624,77.476c-.647.105-1.885.799-2.753,1.541-1.067.914-2.171,1.439-3.417,1.626-2.32.348-4.329,1.181-5.769,2.392-.616.519-1.878,1.154-2.803,1.41-3.882,1.078-5.221,1.627-6.612,2.713-.956.745-2.548,1.392-4.553,1.85-2.341.534-3.426,1.018-4.514,2.015-.929.851-2.024,1.405-3.118,1.578-3.047.481-4.508,1.061-6.063,2.405-.844.729-2.184,1.437-2.978,1.572-3.022.514-4.822,1.218-6.233,2.438-1.114.962-2.271,1.439-4.875,2.01-2.399.525-3.613,1-4.083,1.597-.927,1.179-1.881,1.627-5.019,2.355-1.933.448-3.176,1.023-4.313,1.997-1.008.863-2.211,1.464-3.26,1.629-2.725.427-4.372,1.106-6.027,2.483-1.093.909-2.153,1.381-3.509,1.561-1.069.141-2.04.414-2.158.605s-.691.347-1.274.347c-.654,0-1.601.514-2.476,1.343-1.082,1.026-2.126,1.511-4.411,2.05-2.155.508-3.423,1.073-4.526,2.017-.842.721-2.195,1.424-3.006,1.562-3.019.515-4.986,1.257-6.194,2.335-.683.61-1.971,1.311-2.861,1.557-3.8,1.052-5.163,1.612-6.549,2.694-.956.745-2.548,1.392-4.553,1.85-2.358.538-3.424,1.016-4.538,2.037-.867.794-2.047,1.425-2.917,1.56-3.017.469-4.677,1.117-6.199,2.42-1.059.906-2.166,1.431-3.409,1.618-2.363.354-4.215,1.136-6.017,2.541-.917.714-2.542,1.372-4.491,1.817-2.261.516-3.428,1.03-4.495,1.979-1.085.965-2.207,1.451-4.546,1.967-2.388.527-3.459.998-4.637,2.039-.984.87-2.13,1.448-3.2,1.616-2.722.428-4.376,1.105-6.007,2.461-.909.756-2.218,1.391-3.2,1.552-3.794.622-5.503,3.686-6.461,11.585-.324,2.667-.86,4.416-2.048,6.687-.835,1.595-.969,2.337-.87,4.8L77.8,178.6l2.124.213c3.557.358,7.724-.185,8.467-1.103.827-1.021,2.707-1.853,6.209-2.747c1.571-.402,3.151-1.084,3.6-1.556c1.058-1.11,2.234-1.62,5.589-2.422c1.533-.367,3.063-.964,3.4-1.327c1.249-1.348,2.033-1.732,5.043-2.466c1.845-.45,3.501-1.129,4.125-1.691c1.318-1.187,2.382-1.652,5.714-2.497c1.469-.372,2.96-.996,3.312-1.385.893-.987,6.718-3.219,8.401-3.219.271,0,.834-.378,1.253-.841c1.058-1.169,2.317-1.747,5.552-2.549c1.674-.416,3.112-1.042,3.6-1.567c1.063-1.148,2.209-1.642,5.681-2.448c1.659-.385,3.17-.997,3.579-1.45c1.021-1.128,4.158-2.375,7.462-2.967.865-.155,1.683-.594,1.914-1.025.487-.909,2.095-1.615,5.789-2.542c1.641-.411,2.982-.998,3.292-1.441.697-.996,2.488-1.771,5.994-2.596c1.595-.375,2.9-.836,2.9-1.023c0-.749,3.181-2.254,6.304-2.981c2.094-.488,3.374-.993,3.497-1.378.325-1.015,4.446-2.792,6.477-2.792.527,0,1.408-.449,1.957-.998c1.423-1.423,2.752-2.026,6.27-2.845c2.086-.485,3.161-.935,3.303-1.381.337-1.062,3.424-2.228,7.334-2.769c4.85-.671,4.859-.636,4.854,19.08-.005,18.098-.028,18.354-1.801,20.405l-1.303,1.508-18.746.261c-21.773.303-20.964.205-22.793,2.751-.754,1.05-1.611,2.001-1.904,2.114-1.536.589-.959,6.491.829,8.474c3.195,3.542.983,3.4,52.922,3.4c52.214,0,51.028.08,52.327-3.526.212-.591.766-1.471,1.23-1.957c1.446-1.515,1.185-4.498-.557-6.344-.77-.817-1.4-1.792-1.4-2.167c0-2.296-4.183-2.803-23.118-2.805L241.964,164l-.954-.954c-1.765-1.764-1.835-2.883-1.72-27.153.123-25.753-.162-23.608,3.31-24.888c1.1-.405,2.45-1.121,3-1.59c1.427-1.218,3.93-2.196,7.2-2.814.77-.145,1.76-.678,2.2-1.184.831-.955,4.988-2.617,6.546-2.617.491,0,1.331-.474,1.868-1.052.984-1.063,3.887-2.59,5.853-3.081.794-.198,1.24-.72,1.746-2.047.375-.979,1.02-2.088,1.434-2.462.414-.375.753-.902.753-1.171s.27-.713.6-.987c1.013-.841.825-5.676-.258-6.638-.472-.419-1.196-1.518-1.61-2.442-.413-.924-1.332-2.085-2.042-2.581-.709-.496-1.694-1.36-2.188-1.92-.918-1.041-5.541-1.521-9.078-.943M192.6,193.049c-.66.083-2.312.254-3.671.38-1.825.169-2.767.484-3.6,1.204-1.113.963-4.492,2.42-6.578,2.837-.688.137-1.335.705-1.811,1.589-.435.809-1.152,1.474-1.74,1.613-1.341.319-2.032.912-2.578,2.212-.251.596-1.079,1.502-1.839,2.012-.956.641-1.558,1.477-1.949,2.704-.311.977-1.002,2.232-1.536,2.788-2.866,2.988-2.659-.838-2.805,51.812-.149,53.941-.085,55.343,2.586,56.459.756.316,2.197,1.332,3.201,2.258l1.826,1.683h55.983c55.729,0,55.985-.004,56.646-.81c1.025-1.249,3.352-2.9,4.489-3.183c2.157-.538,2.121.228,2.282-47.807.082-24.31.028-47.103-.119-50.652l-.268-6.452-1.726-2.105c-.984-1.199-1.917-2.862-2.171-3.868-.342-1.36-.764-1.952-1.848-2.591-.798-.471-1.653-1.424-1.98-2.209-.414-.99-1.012-1.552-2.112-1.984-.997-.391-1.792-1.081-2.271-1.971-.405-.752-1.018-1.368-1.361-1.368-1.447,0-5.973-1.894-6.882-2.88-1.47-1.595-2.817-1.653-40.568-1.739-20.02-.046-36.94-.016-37.6.068M262.197,213.7c1.098.605,2.244,1.1,2.545,1.1c1.471,0,3.636,1.777,4.438,3.643.455,1.056,1.089,2.068,1.409,2.247c2.516,1.408,2.734,33.71.226,33.71-.17,0-1.002,1.185-1.849,2.632-2.883,4.93-1.47,4.768-41.566,4.768-23.909,0-33.179-.126-34.2-.466-.77-.257-2.03-.572-2.8-.701-1.12-.187-1.678-.642-2.79-2.274-.765-1.122-1.706-2.261-2.092-2.532-2.908-2.036-2.96-34.992-.057-36.106.315-.121.923-.906,1.351-1.744.92-1.803,2.01-2.642,4.188-3.224.88-.235,1.926-.719,2.325-1.075c1.243-1.11,3.648-1.186,35.675-1.131l31.2.053l1.997,1.1" fill="#e0d6d6" fill-rule="evenodd"/><path d="M158,0.976v.976l-7.568.124c-8.401.138-8.015.032-8.318,2.291L141.895,6h-5.468C130.32,6,130,6.124,130,8.48v1.52h-4.774c-5.974,0-6.729.255-7.07,2.388L117.898,14h-3.321c-3.81,0-4.577.441-4.577,2.629v1.371h-3.371c-3.843,0-4.629.436-4.629,2.569v1.312l-3.248.251c-3.671.283-4.255.599-4.429,2.398-.117,1.21-.218,1.28-2.123,1.47l-2,.2-.122,1.9-.122,1.9h-3.349C82.773,30,82,30.438,82,32.607c0,1.326-.033,1.351-1.9,1.471l-1.9.122-.122,1.9-.122,1.9-1.878.019c-2.477.026-4.538,1.064-5.23,2.635-.473,1.073-.808,1.283-2.32,1.453-2.151.242-2.143.235-2.414,2.26C65.908,45.903,65.816,46,64.576,46C62.883,46,62,46.901,62,48.629C62,49.95,61.944,50,60.48,50c-1.916,0-2.48.564-2.48,2.48c0,1.493-.027,1.52-1.52,1.52-1.916,0-2.48.564-2.48,2.48c0,1.493-.027,1.52-1.52,1.52-1.916,0-2.48.564-2.48,2.48c0,1.464-.05,1.52-1.371,1.52C46.901,62,46,62.883,46,64.577c0,1.233-.107,1.338-1.612,1.579C42.7,66.425,42,67.364,42,69.355c0,.71-.319.983-1.489,1.274-1.699.423-2.424,2.016-2.48,5.449L38,77.956l-1.9.122-1.9.122-.122,1.9c-.12,1.867-.145,1.9-1.471,1.9C30.438,82,30,82.773,30,86.607v3.349l-1.9.122-1.9.122-.121,1.881c-.12,1.861-.138,1.884-1.798,2.212-1.923.38-2.152.915-2.234,5.207L22,102h-1.371c-2.195,0-2.629.763-2.629,4.629v3.371h-1.371c-2.188,0-2.629.767-2.629,4.577v3.321l-1.612.258c-2.133.341-2.388,1.096-2.388,7.07v4.774h-1.52c-2.356,0-2.48.32-2.48,6.427v5.468l-1.633.219c-2.259.303-2.153-.083-2.291,8.318L1.952,158h-.976-.976v42v42h.976.976l.124,7.568c.138,8.401.032,8.015,2.291,8.318L6,258.105v5.319C6,269.407,6.237,270,8.629,270h1.371v4.774c0,5.948.26,6.73,2.349,7.064l1.575.252.138,3.522c.158,4.035.13,3.983,2.305,4.274l1.633.219v3.319c0,3.808.441,4.576,2.629,4.576h1.371l.047,2.3c.088,4.284.447,4.979,2.831,5.478.964.202,1.091.427,1.2,2.124L26.2,309.8l1.9.122l1.9.122v3.349c0,3.834.438,4.607,2.607,4.607c1.326,0,1.351.033,1.471,1.9l.122,1.9l1.9.122l1.9.122.031,1.878c.056,3.433.781,5.026,2.48,5.449c1.17.291,1.489.564,1.489,1.274c0,1.991.7,2.93,2.388,3.199c1.505.241,1.612.346,1.612,1.579c0,1.694.901,2.577,2.629,2.577c1.321,0,1.371.056,1.371,1.52c0,1.916.564,2.48,2.48,2.48c1.493,0,1.52.027,1.52,1.52c0,1.916.564,2.48,2.48,2.48c1.493,0,1.52.027,1.52,1.52c0,1.916.564,2.48,2.48,2.48c1.464,0,1.52.05,1.52,1.371c0,1.728.883,2.629,2.576,2.629c1.24,0,1.332.097,1.538,1.633.271,2.025.263,2.018,2.414,2.26c1.512.17,1.847.38,2.32,1.453.692,1.571,2.753,2.609,5.23,2.635l1.878.019.122,1.9.122,1.9l1.9.122c1.867.12,1.9.145,1.9,1.471c0,2.169.773,2.607,4.607,2.607h3.349l.122,1.9.122,1.9l1.898.122c1.697.109,1.922.236,2.124,1.2.499,2.384,1.194,2.743,5.478,2.831L102,378v1.371c0,2.188.768,2.629,4.576,2.629h3.319l.219,1.633c.291,2.175.239,2.147,4.274,2.305l3.522.138.252,1.575c.334,2.089,1.116,2.349,7.064,2.349h4.774v1.371c0,2.396.588,2.629,6.629,2.629h5.371v1.2c0,2.556.768,2.8,8.8,2.8h7.2v1v1h42h42v-1-1h7.371c8.234,0,8.629-.12,8.629-2.629v-1.371h5.371c6.041,0,6.629-.233,6.629-2.629v-1.371h4.774c5.948,0,6.73-.26,7.064-2.349l.252-1.575l3.522-.138c4.035-.158,3.983-.13,4.274-2.305l.219-1.633h3.319c3.808,0,4.576-.441,4.576-2.629v-1.371l2.3-.047c4.284-.088,4.979-.447,5.478-2.831.202-.964.427-1.091,2.124-1.2l1.898-.122.122-1.9.122-1.9h3.349c3.834,0,4.607-.438,4.607-2.607c0-1.326.033-1.351,1.9-1.471l1.9-.122.122-1.9.122-1.9l1.878-.031c3.433-.056,5.026-.781,5.449-2.48.291-1.17.564-1.489,1.274-1.489c1.991,0,2.93-.7,3.199-2.388.241-1.505.346-1.612,1.579-1.612c1.694,0,2.577-.901,2.577-2.629c0-1.321.056-1.371,1.52-1.371c1.916,0,2.48-.564,2.48-2.48c0-1.493.027-1.52,1.52-1.52c1.916,0,2.48-.564,2.48-2.48c0-1.493.027-1.52,1.52-1.52c1.916,0,2.48-.564,2.48-2.48c0-1.464.05-1.52,1.371-1.52c1.728,0,2.629-.883,2.629-2.576c0-1.24.097-1.332,1.633-1.538c2.026-.271,2.018-.262,2.261-2.422.178-1.578.339-1.815,1.453-2.134c1.567-.449,2.349-1.97,2.576-5.01l.17-2.28l1.854-.12l1.853-.12.122-1.9c.12-1.867.145-1.9,1.471-1.9c2.169,0,2.607-.773,2.607-4.607v-3.349l1.9-.122l1.9-.122.121-1.881c.12-1.861.138-1.884,1.798-2.212c1.923-.38,2.152-.915,2.234-5.207L378,298h1.371c2.195,0,2.629-.763,2.629-4.629v-3.371h1.371c2.188,0,2.629-.767,2.629-4.577v-3.321l1.612-.258c2.133-.341,2.388-1.096,2.388-7.07v-4.774h1.371c2.392,0,2.629-.593,2.629-6.576v-5.319l1.633-.219c2.259-.303,2.153.083,2.291-8.318l.124-7.568h.976.976v-42-42h-.976-.976l-.124-7.568c-.138-8.401-.032-8.015-2.291-8.318L394,141.895v-5.319c0-5.983-.237-6.576-2.629-6.576h-1.371v-4.774c0-5.974-.255-6.729-2.388-7.07L386,117.898v-3.321c0-3.81-.441-4.577-2.629-4.577h-1.371v-3.371c0-3.866-.434-4.629-2.629-4.629h-1.371l-.047-2.5c-.082-4.292-.311-4.827-2.234-5.207-1.66-.328-1.678-.351-1.798-2.212L373.8,90.2l-1.9-.122-1.9-.122v-3.349c0-3.834-.438-4.607-2.607-4.607-1.326,0-1.351-.033-1.471-1.9l-.122-1.9-1.853-.12-1.854-.12-.17-2.28c-.227-3.04-1.009-4.561-2.576-5.01-1.114-.319-1.275-.556-1.453-2.134-.243-2.16-.235-2.151-2.261-2.422-1.536-.206-1.633-.298-1.633-1.538c0-1.693-.901-2.576-2.629-2.576-1.321,0-1.371-.056-1.371-1.52c0-1.916-.564-2.48-2.48-2.48-1.493,0-1.52-.027-1.52-1.52c0-1.916-.564-2.48-2.48-2.48-1.493,0-1.52-.027-1.52-1.52c0-1.916-.564-2.48-2.48-2.48-1.464,0-1.52-.05-1.52-1.371c0-1.728-.883-2.629-2.576-2.629-1.24,0-1.332-.097-1.538-1.633-.271-2.025-.264-2.018-2.407-2.259-1.632-.184-1.786-.304-2.12-1.642-.41-1.65-2.039-2.38-5.437-2.435L322.044,38l-.122-1.9-.122-1.9-1.9-.122c-1.867-.12-1.9-.145-1.9-1.471c0-1.983-.85-2.607-3.554-2.607-2.455,0-4.181-1.148-4.511-3-.114-.644-.508-.824-2.019-.921-1.858-.12-1.881-.139-2.209-1.798-.38-1.923-.915-2.152-5.207-2.234L298,22v-1.371c0-2.195-.763-2.629-4.629-2.629L290,18v-1.371c0-2.188-.767-2.629-4.577-2.629h-3.321l-.258-1.612c-.341-2.133-1.096-2.388-7.07-2.388L270,10v-1.52c0-2.359-.316-2.48-6.48-2.48L258,6v-1.371C258,2.12,257.605,2,249.371,2L242,2v-1-1h-42-42v.976M268.27,75.3c1.849.491,2.516,1.018,5.988,4.728c3.756,4.014,4.3,14.17.884,16.514-.518.356-1.302,1.322-1.742,2.147-.56,1.049-1.383,1.776-2.738,2.419-1.065.506-2.371,1.436-2.902,2.066-.756.899-1.619,1.292-3.999,1.822-2.376.528-3.347.97-4.478,2.036-.836.789-2.04,1.465-2.863,1.606-2.993.515-5.844,1.458-6.428,2.126-1.039,1.191-2.5,1.899-4.992,2.421-1.32.276-2.625.567-2.9.646-.527.152-.776,43.784-.257,45.136.216.563,2.048.633,16.538.633c17.363,0,17.869.052,19.619,2.013.33.37,1.05.811,1.6.98c1.344.412,4.248,3.469,4.996,5.258c1.543,3.693.122,12.474-2.029,12.536-.239.007-1.229.749-2.2,1.649-.972.9-2.127,1.845-2.567,2.1-.868.504-93.651.937-97.698.456-1.635-.194-2.377-.53-3.365-1.52-.696-.7-2.076-1.812-3.066-2.472-5.317-3.545-2.889-18.2,3.015-18.2.206,0,.797-.45,1.314-1s1.257-1,1.646-1s.818-.18.954-.4c.158-.256,6.226-.4,16.889-.4c14.884,0,16.807-.073,18.205-.69l1.564-.689-.164-15.211c-.09-8.365-.299-15.597-.465-16.07-.526-1.5-2.243-1.488-3.653.025-1.088,1.168-5.23,2.635-7.438,2.635-.201,0-.986.621-1.745,1.381-.882.881-1.926,1.471-2.887,1.631-2.756.458-4.76,1.281-6.673,2.742-1.042.795-2.232,1.446-2.644,1.446-1.986,0-5.441,1.261-6.389,2.332-.781.882-1.763,1.31-4.49,1.956-2.87.68-3.674,1.045-4.524,2.056-.674.801-1.548,1.315-2.51,1.475-3.382.565-5.539,1.394-6.657,2.561-.68.71-1.75,1.312-2.589,1.456-3.417.588-5.885,1.513-6.983,2.616-.634.638-1.624,1.257-2.2,1.376-.576.12-1.767.377-2.647.572s-2.095.458-2.7.585-1.1.4-1.1.607c0,.952-1.938,2.014-4.809,2.634-2.53.547-3.337.916-4.348,1.987-.867.92-1.754,1.398-2.942,1.587-3.339.532-5.834,1.45-7.02,2.583-1.159,1.107-4.96,2.417-7.013,2.417-.495,0-1.383.599-2.068,1.395-1.032,1.2-1.648,1.491-4.4,2.076-2.518.535-3.467.944-4.454,1.919-.976.963-1.983,1.404-4.532,1.982-2.47.561-3.674,1.075-4.887,2.089-.885.739-2.086,1.439-2.668,1.556-.582.116-1.612.385-2.287.597-.676.212-1.621.386-2.101.386-.482,0-1.474.637-2.214,1.422-3,3.181-16.309,3.399-17.757.291-1.425-3.057.248-15.361,2.283-16.786.487-.341.807-1.259.983-2.816.404-3.582,1.074-6.24,1.775-7.042.638-.729,3.644-2.269,4.43-2.269.228,0,1.028-.596,1.778-1.324c1.201-1.166,5.349-2.676,7.352-2.676.213,0,1.01-.588,1.772-1.306c1.294-1.22,2.632-1.726,6.627-2.504.714-.139,1.524-.566,1.8-.949.767-1.065,2.622-1.934,5.682-2.66c1.947-.461,3.245-1.056,4.323-1.978.848-.726,2.025-1.417,2.618-1.537c4.936-.999,5.407-1.169,6.649-2.411c1.231-1.232,2.177-1.572,6.988-2.513.529-.103,1.29-.606,1.693-1.118.858-1.092,3.257-2.124,6.199-2.668c1.407-.26,2.512-.775,3.36-1.567c1.237-1.156,3.863-2.163,6.919-2.655c1.077-.173,1.631-.508,1.867-1.128.422-1.11,3.515-2.372,6.707-2.736c1.204-.138,2.025-.536,2.8-1.359c1.068-1.135,3.576-2.156,6.59-2.684.868-.152,1.668-.583,1.906-1.028.605-1.132,5.953-3.199,8.276-3.199.28,0,1.122-.596,1.872-1.324c1.201-1.166,5.349-2.676,7.352-2.676.213,0,1.03-.607,1.817-1.348.786-.742,1.936-1.46,2.556-1.597.619-.136,1.983-.425,3.03-.642c1.218-.252,2.314-.813,3.043-1.558c1.057-1.082,3.183-1.914,6.801-2.661.741-.153,1.885-.792,2.542-1.42c1.186-1.133,3.751-2.087,6.999-2.604c1.046-.167,1.768-.519,1.897-.927.364-1.147,3.495-2.419,7.47-3.037.966-.15,1.522-.478,1.652-.974.287-1.1,3.564-2.447,7.392-3.039.935-.145,1.7-.425,1.7-.622c0-.784,3.163-2.382,6.072-3.067c2.33-.55,3.272-.979,3.899-1.777.818-1.039,3.342-2.016,6.518-2.522.818-.13,1.718-.545,2-.921.912-1.22,1.852-1.756,4.001-2.281c2.768-.675,10.592-.738,12.98-.103m2.61,115.93c2.723.553,4.398,1.324,4.994,2.301.261.427,1.327,1.067,2.367,1.421c2.215.755,3.359,1.678,3.359,2.71c0,.409.285.738.638.738c1.182,0,2.952,1.359,3.367,2.584.256.759.896,1.442,1.701,1.816.937.436,1.465,1.081,1.931,2.36.352.969,1.124,2.113,1.714,2.543c1.405,1.023,2.072,2.701,2.43,6.113.16,1.531.613,3.774,1.006,4.984s.842,2.74.999,3.4c.357,1.505.347,88.153-.011,89.219-.144.429-.577,1.501-.963,2.381s-.828,2.291-.982,3.136c-.407,2.236-1.038,3.413-1.991,3.713-.461.145-1.592,1.07-2.512,2.056-2.563,2.745.267,2.609-57.927,2.788-61.358.189-61.964.164-63.614-2.596-.361-.603-1.333-1.414-2.162-1.802-1.438-.673-2.824-3.282-2.824-5.318c0-.293-.329-.767-.73-1.054-1.586-1.136-1.67-3.491-1.667-46.89.004-42.978.153-47.697,1.583-50.011.419-.677.872-2.219,1.006-3.426.467-4.178,1.602-6.95,3.031-7.403.43-.137.924-.86,1.152-1.689.231-.837,1.124-2.137,2.113-3.077.942-.895,1.976-2.031,2.299-2.525s1.178-1.009,1.9-1.145c.912-.171,1.313-.468,1.313-.972c0-.959,1.724-2.28,3.653-2.799.86-.232,1.826-.84,2.172-1.368.703-1.073,1.151-1.301,3.975-2.02c2.652-.676,83.41-.832,86.68-.168m-77.358,25.781c-.116.117-.983.344-1.925.504l-1.714.293-1.391,4.196L187.1,226.2l-.177,9.6c-.144,7.804-.057,10.161.464,12.6c1.402,6.55,1.189,6.023,3.571,8.834l1.158,1.366l35.344.106l35.344.107l2.155-2.121c2.984-2.937,3.17-4.258,2.972-21.111-.135-11.45-.238-13.17-.875-14.581-2.037-4.512.916-4.196-39.289-4.198-18.719-.001-34.129.093-34.245.209" fill="#2a78b0" fill-rule="evenodd"/><path d="M258.8,75.967c-.77.144.849.263,3.597.265c2.748.001,4.548-.122,4-.275-1.242-.345-5.727-.34-7.597.01m-3.6.724c-.33.125-1.109.651-1.731,1.169-.622.517-1.376.94-1.676.94s-.657.18-.793.4c-.449.727.417.418,2.723-.971c1.252-.753,2.591-1.453,2.977-1.553.579-.152.562-.186-.1-.198-.44-.008-1.07.088-1.4.213m13.211.395c4.764,3.304,6.873,6.688,7.177,11.514.177,2.814.295,3.329.538,2.361.351-1.401-.226-5.644-.958-7.039-1.548-2.951-6.012-7.522-7.346-7.522-.22,0,.045.309.589.686m-21.276,3.245c-1.026.368-2.196.961-2.6,1.319-.404.357-1.275.935-1.935,1.284s-1.056.641-.88.65c.496.025,2.849-1.248,3.14-1.699.143-.221,1.493-.815,3-1.318c1.507-.504,2.38-.914,1.94-.911s-1.639.307-2.665.675M239.2,84c-.533.345-.533.388,0,.388.33,0,.87-.175,1.2-.388.533-.345.533-.388,0-.388-.33,0-.87.175-1.2.388m-3.722,1.813c-.618.543-1.462.987-1.877.987-.414,0-.865.18-1.001.4-.495.801.907.371,2.731-.838c1.028-.68,1.869-1.31,1.869-1.4c0-.399-.688-.059-1.722.851M230,88c-.533.345-.533.388,0,.388.33,0,.87-.175,1.2-.388.533-.345.533-.388,0-.388-.33,0-.87.175-1.2.388m-3.893,1.586c-.464.432-1.442,1.047-2.175,1.367s-1.086.596-.786.614c.717.043,4.454-1.997,4.454-2.431c0-.561-.603-.379-1.493.45M220.8,92c-.533.345-.533.388,0,.388.33,0,.87-.175,1.2-.388.533-.345.533-.388,0-.388-.33,0-.87.175-1.2.388m54.454,1.257c-.029.582-.322,1.16-.65,1.286s-1.213,1.193-1.967,2.372-1.791,2.436-2.304,2.793c-.513.358-.742.659-.508.671.622.031,1.933-1.292,3.015-3.044.522-.844,1.374-1.901,1.893-2.348.665-.572.891-1.106.761-1.8l-.185-.987-.055,1.057m-58.102.2c-.3.362-1.267.979-2.149,1.372-.881.393-1.319.727-.972.743.58.026,4.369-2.237,4.369-2.61c0-.4-.752-.102-1.248.495m-6.817,2.874c-1.026.368-2.196.967-2.6,1.332s-1.365.935-2.135,1.268c-.77.332-1.168.618-.884.636.649.041,3.546-1.42,3.877-1.956.136-.22,1.229-.686,2.427-1.034c1.199-.349,2.18-.711,2.18-.805c0-.31-.97-.121-2.865.559M202.2,100c-.504.217-.578.344-.2.344.33,0,.96-.155,1.4-.344.504-.217.578-.344.2-.344-.33,0-.96.155-1.4.344m-2.2.691c-.861.327-2.939,2.109-2.459,2.109.221,0,.646-.244.944-.542s1.075-.83,1.728-1.184c1.146-.62,1.018-.851-.213-.383m67.9-.015c-.385.1-.7.342-.7.536s-1.305.988-2.9,1.764-2.683,1.414-2.419,1.417c.757.011,2.518-.851,5.081-2.486c2.293-1.463,2.409-1.616.938-1.231M193.2,104c-.533.345-.533.388,0,.388.33,0,.87-.175,1.2-.388.533-.345.533-.388,0-.388-.33,0-.87.175-1.2.388m-3.418,1.438c-.841.571-1.991,1.222-2.556,1.448-.564.225-.814.488-.555.585s1.249-.317,2.2-.92c.951-.602,2.179-1.332,2.729-1.621.642-.337.769-.526.356-.528-.354-.001-1.333.465-2.174,1.036m67.218.598c-.22.218-.76.654-1.2.968s-.62.575-.4.581.94-.432,1.6-.973s1.02-.981.8-.978-.58.184-.8.402M184,108c-.533.345-.533.388,0,.388.33,0,.87-.175,1.2-.388.533-.345.533-.388,0-.388-.33,0-.87.175-1.2.388m69,0l-.8.344.8.022c.44.012,1.07-.153,1.4-.366.795-.514-.204-.514-1.4,0m-71.5.676c-.385.1-.7.336-.7.523s-.945.797-2.1,1.356-1.781,1.022-1.392,1.03s1.469-.467,2.4-1.057s2.142-1.309,2.692-1.598c.968-.508.537-.63-.9-.254m66.576,1.176c-.728.574-2.168,1.374-3.2,1.777s-1.569.742-1.195.752c.375.011,1.185-.201,1.8-.469c1.666-.727,5.092-3.113,4.464-3.108-.3.003-1.141.474-1.869,1.048M174.8,112c-.533.345-.533.388,0,.388.33,0,.87-.175,1.2-.388.533-.345.533-.388,0-.388-.33,0-.87.175-1.2.388m66.236,1.161c-.479.528-.64,1.231-.53,2.3l.16,1.539.067-1.529c.067-1.526.555-2.336,1.674-2.775.498-.196.491-.238-.045-.264-.351-.018-.948.31-1.326.729m-69.884.296c-.3.362-1.267.979-2.149,1.372-.881.393-1.323.727-.981.743.622.028,4.378-2.17,4.378-2.563c0-.441-.726-.18-1.248.448M165.6,116c-.533.345-.533.388,0,.388.33,0,.87-.175,1.2-.388.533-.345.533-.388,0-.388-.33,0-.87.175-1.2.388m-2.811,1.084c-1.394.963-2.116,1.716-1.646,1.716.22,0,.678-.278,1.018-.618.341-.341,1.118-.88,1.729-1.198.61-.319.835-.58.499-.582-.336-.001-1.056.306-1.6.682m-7.617,3.247c-1.803.66-4.481,2.469-3.655,2.469.234,0,.737-.312,1.118-.693.381-.38,1.879-1.089,3.329-1.574s2.276-.88,1.836-.877-1.623.307-2.628.675M147.2,124c-.533.345-.533.388,0,.388.33,0,.87-.175,1.2-.388.533-.345.533-.388,0-.388-.33,0-.87.175-1.2.388m68.59.698c1.315.081,2.527.362,2.694.625.832,1.309.347,33.417-.518,34.222-1.579,1.472-3.771,1.655-20.043,1.669-14.704.012-15.827.063-17.323.786-1.888.912-1.216,1.068.862.2c1.195-.499,4.123-.6,17.473-.6c17.524,0,18.859-.152,19.817-2.255.598-1.311.629-33.06.034-34.171-.349-.652-.806-.762-2.9-.698l-2.486.075l2.39.147m-72.312,1.115c-.618.543-1.462.987-1.877.987-.414,0-.865.18-1.001.4-.495.801.907.371,2.731-.838c1.028-.68,1.869-1.31,1.869-1.4c0-.399-.688-.059-1.722.851m68.122-.186c-.55.445-1.43.986-1.955,1.202-.526.216-.848.502-.716.634.223.222,4.271-2.152,4.271-2.505c0-.366-.665-.088-1.6.669M138,128c-.533.345-.533.388,0,.388.33,0,.87-.175,1.2-.388.533-.345.533-.388,0-.388-.33,0-.87.175-1.2.388m68.8,0c-.533.345-.533.388,0,.388.33,0,.87-.175,1.2-.388.533-.345.533-.388,0-.388-.33,0-.87.175-1.2.388m-71.646,1.144c-.525.409-1.674,1.121-2.554,1.582s-1.371.847-1.092.856c.279.01,1.269-.464,2.2-1.054s2.142-1.309,2.692-1.598c.646-.339.771-.526.354-.528-.355-.001-1.075.333-1.6.742m68.404-.195c-1.476.77-4.202,2.651-3.843,2.651.166,0,1.048-.472,1.961-1.048s2.214-1.289,2.892-1.584.962-.543.632-.55-1.069.232-1.642.531M128.8,132c-.795.514.204.514,1.4,0l.8-.344-.8-.022c-.44-.012-1.07.153-1.4.366m-4.373,2.019c-1.414.869-2.394,1.581-2.176,1.581s1.414-.613,2.657-1.362c1.244-.748,2.493-1.454,2.777-1.568.367-.147.343-.211-.085-.22-.33-.007-1.758.699-3.173,1.569m68.076.066c-2.384,1.761-1.813,1.879.706.146c1.145-.787,1.836-1.424,1.536-1.415s-1.309.58-2.242,1.269M119.6,136c-.795.514.204.514,1.4,0l.8-.344-.8-.022c-.44-.012-1.07.153-1.4.366m69.2,0c-.533.345-.533.388,0,.388.33,0,.87-.175,1.2-.388.533-.345.533-.388,0-.388-.33,0-.87.175-1.2.388m-72.011,1.084c-1.278.883-2.127,1.716-1.749,1.716.163,0,.582-.258.929-.572.348-.315,1.172-.854,1.832-1.198.659-.344.924-.626.588-.628-.336-.001-1.056.306-1.6.682m67.361.462c-.44.41-1.209.965-1.709,1.232-.5.268-.815.581-.7.697.19.189,3.859-2.228,3.859-2.543c0-.362-.737-.05-1.45.614M110.4,140c-.795.514.204.514,1.4,0l.8-.344-.8-.022c-.44-.012-1.07.153-1.4.366m68.8,0c-.497.321-.462.388.2.388.44,0,1.07-.175,1.4-.388.497-.321.462-.388-.2-.388-.44,0-1.07.175-1.4.388m-71.7,1.029c-.605.328-1.1.735-1.1.903c0,.169-.643.54-1.43.824-.786.285-1.35.598-1.252.696.225.225,2.286-.645,3.083-1.302.33-.272,1.14-.776,1.8-1.12.659-.344.929-.619.599-.612-.33.008-1.095.283-1.7.611m68.309-.003c-.655.341-1.285.765-1.4.942-.301.462-2.418,1.474-3.756,1.795-.631.152-1.048.375-.927.496.34.341,3.137-.672,4.459-1.615.651-.464,1.821-1.153,2.6-1.53.778-.378,1.145-.692.815-.698s-1.136.268-1.791.61M101.2,144c-.533.345-.533.388,0,.388.33,0,.87-.175,1.2-.388.533-.345.533-.388,0-.388-.33,0-.87.175-1.2.388m-3.418,1.438c-.841.571-1.991,1.222-2.556,1.448-.564.225-.814.488-.555.585s1.249-.317,2.2-.92c.951-.602,2.179-1.332,2.729-1.621.642-.337.769-.526.356-.528-.354-.001-1.333.465-2.174,1.036m66.98.772c-.336.335-1.499.957-2.586,1.381s-1.659.78-1.272.79c.907.024,4.114-1.48,4.725-2.215.631-.762-.099-.724-.867.044M92,148c-.533.345-.533.388,0,.388.33,0,.87-.175,1.2-.388.533-.345.533-.388,0-.388-.33,0-.87.175-1.2.388m-2.4.692c-.33.125-.692.367-.804.537-.113.17-1.013.771-2,1.335-.988.565-1.567,1.029-1.288,1.031.279.003,1.269-.477,2.2-1.067s2.142-1.309,2.692-1.598c.978-.514.387-.69-.8-.238m66.221,1.325c-.869.657-2.282,1.384-3.141,1.615-.858.231-1.465.517-1.347.634.39.39,3.24-.774,5.212-2.129c1.07-.735,1.7-1.332,1.4-1.326s-1.256.549-2.124,1.206M83.4,152.266c-1.531.809-2.6,1.743-2.6,2.271c0,.228.365.022.812-.457.446-.479,1.346-1.148,2-1.486.653-.338,1.188-.7,1.188-.804c0-.258-.032-.247-1.4.476m64,1.058c-.44.262-.89.584-1,.716s-.62.462-1.134.733c-.514.27-.852.574-.752.675.178.177,4.286-2.226,4.286-2.508c0-.259-.594-.096-1.4.384m-5,2.676c-.533.345-.533.388,0,.388.33,0,.87-.175,1.2-.388.533-.345.533-.388,0-.388-.33,0-.87.175-1.2.388m-62.6,2.4c-.154.91-.189,1.744-.079,1.854s.325-.544.479-1.454.189-1.744.079-1.854-.325.544-.479,1.454m58.2-.773c-.55.445-1.45,1.002-2,1.239-.614.264-.802.503-.487.619.282.105,1.125-.277,1.873-.847.748-.571,1.542-1.038,1.764-1.038.221,0,.514-.18.65-.4.431-.697-.76-.415-1.8.427M133.2,160c-.533.345-.533.388,0,.388.33,0,.87-.175,1.2-.388.533-.345.533-.388,0-.388-.33,0-.87.175-1.2.388m107.613-.162c-.049,1.67.786,1.762,16.218,1.772c8.123.005,15.399.173,16.169.373c2.496.647,3.413.831,2.8.561-.33-.145-.728-.462-.885-.704-.196-.303-5.401-.502-16.683-.64-15.808-.193-16.42-.229-17.002-1-.333-.44-.61-.603-.617-.362M79.249,161.2c-.033.33-.16,1.05-.282,1.6-.192.864-.16.903.232.288.249-.391.376-1.111.282-1.6-.095-.488-.199-.618-.232-.288m48.751.801c-.99.659-2.397,1.396-3.127,1.638s-1.23.537-1.113.655c.118.117.805-.025,1.527-.318c1.442-.583,5.411-3.177,4.858-3.174-.19.001-1.155.54-2.145,1.199m48.4,1.876c-1.598,1.195-4,3.991-4,4.655c0,.245.311.001.691-.543c1.376-1.969,2.341-2.924,4.087-4.046.978-.629,1.518-1.136,1.2-1.128s-1.208.486-1.978,1.062m103.617,1.058c.76.734,1.466,1.265,1.569,1.181.227-.188-2.222-2.516-2.648-2.516-.168,0,.318.601,1.079,1.335m-160.217.343c-.44.249-.89.577-1,.729-.204.28-2.39,1.304-3.757,1.76-.417.138-.648.362-.513.496.361.361,2.6-.635,4.815-2.141c1.855-1.261,2.147-1.804.455-.844m-42.377,1.328c-.342.82-.611,1.785-.596,2.143.017.409.184.279.448-.349.231-.55.61-1.405.84-1.899.231-.495.31-1.01.176-1.144s-.525.428-.868,1.249m204.67.994c.469.751,1.107,1.08,1.107.571c0-.298-1.075-1.371-1.375-1.371-.127,0-.007.36.268.8M110.15,169.546c-.44.41-1.209.965-1.709,1.232-.5.268-.809.587-.686.71s.846-.252,1.607-.832c.762-.581,1.566-1.056,1.788-1.056.221,0,.514-.18.65-.4.429-.694-.813-.433-1.65.346m173.347,1.75c.216,3.629.404,4.09.45,1.104.023-1.43-.103-2.827-.279-3.104-.176-.276-.253.624-.171,2m-111.616.538c-.126,1.228-.073,2.623.119,3.1.246.609.357-.053.375-2.234.029-3.646-.17-3.997-.494-.866M105.4,172l-.8.344.8.022c.44.012,1.07-.153,1.4-.366.795-.514-.204-.514-1.4,0m-29.266,3.6c0,1.65.071,2.325.157,1.5.087-.825.087-2.175,0-3-.086-.825-.157-.15-.157,1.5m24.816-2.054c-.44.41-1.209.965-1.709,1.232-.5.268-.809.587-.686.71s.846-.252,1.607-.832c.762-.581,1.566-1.056,1.788-1.056.221,0,.514-.18.65-.4.429-.694-.813-.433-1.65.346M96.2,176c-.504.217-.578.344-.2.344.33,0,.96-.155,1.4-.344.504-.217.578-.344.2-.344-.33,0-.96.155-1.4.344m76.216.726c-.049,1.63,4.486,5.258,7.845,6.277c3.592,1.09,93.424.868,95.921-.236c1.037-.459,1.807-.911,1.713-1.006-.095-.094-.875.146-1.734.534-1.462.661-4.514.705-48.361.705h-46.8l-2.282-1.138c-1.256-.626-2.786-1.571-3.4-2.1-.615-.528-1.262-.961-1.437-.962-.176,0-.574-.585-.885-1.3-.31-.715-.572-1.063-.58-.774M281.2,178.781c-.99,1.052-2.07,2.002-2.4,2.111s-.482.326-.338.482c.417.451,4.738-3.343,4.738-4.161c0-.565.027-.586-2,1.568M90.8,178.2c-.274.33-.735.6-1.025.6s-.639.18-.775.4-.012.399.276.398c.651-.002,3.095-1.964,2.473-1.984-.248-.008-.675.256-.949.586m-13.2,1.869c0,.182.54.331,1.2.331s1.2-.07,1.2-.155-.54-.233-1.2-.33-1.2-.028-1.2.154M85.8,180l-1.2.305l1.2.02c.66.01,1.56-.136,2-.325l.8-.344-.8.019c-.44.011-1.34.157-2,.325m102.023,11.947c-.648.139,17.432.253,40.177.253s40.825-.114,40.177-.253c-.647-.139-18.727-.252-40.177-.252s-39.53.113-40.177.252m83.577,1.26c.88.433,2.14,1.116,2.8,1.516.66.401,2.01,1.047,3,1.436.99.39,2.16,1.008,2.6,1.375.785.653.786.65.088-.179-.392-.465-1.922-1.357-3.4-1.982-1.479-.625-2.941-1.384-3.25-1.688-.613-.602-2.211-1.29-2.964-1.276-.261.005.246.364,1.126.798m-89,.593c-.745.55-1.153,1-.906,1s.719-.27,1.049-.6.782-.6,1.005-.6.516-.18.652-.4c.438-.709-.408-.427-1.8.6m-3.8,1.958c-1.1.502-2.267,1.256-2.593,1.677-.566.73-.557.735.2.114.436-.358,1.648-1.022,2.693-1.477s1.9-.927,1.9-1.05c0-.283.134-.328-2.2.736m-6.691,5.122c-.6.699-1.005,1.357-.9,1.462s.236.115.291.023c.055-.093.629-.753,1.275-1.467s1.006-1.296.8-1.294-.866.577-1.466,1.276m112.13.72c.927,1.1,1.76,2,1.851,2c.233,0-1.54-2.45-2.385-3.295-1.425-1.425-1.105-.648.534,1.295M169.57,203.313c-.915.707-2.121,2.669-1.824,2.966.14.14.254.032.254-.239c0-.272.655-1.112,1.456-1.867c1.381-1.303,1.461-1.902.114-.86m116.83.625c0,.254.182.462.405.462s.86.945,1.415,2.1c1.145,2.382,2.477,4.136,2.854,3.759.14-.14-.103-.57-.54-.956-.437-.387-1.219-1.56-1.737-2.607-.968-1.956-2.397-3.6-2.397-2.758m-119.6,3.207c0,.19-.54,1.024-1.2,1.855s-1.2,1.797-1.2,2.149c0,.351.315.064.7-.638s1.105-1.736,1.6-2.297c.995-1.128,1.096-1.414.5-1.414-.22,0-.4.155-.4.345M291.263,211c-.001.22.24,1.03.537,1.8s.545,1.13.552.8c.006-.33-.235-1.14-.538-1.8-.302-.66-.55-1.02-.551-.8m-127.375,1.533c-.158.403-.277,1.123-.263,1.6.024.823.046.817.415-.108.214-.536.333-1.256.263-1.6-.104-.514-.178-.495-.415.108M195,215.2c-.66.168,14.1.305,32.8.305s33.46-.137,32.8-.305-15.42-.305-32.8-.305-32.14.137-32.8.305m97.477,1c-.01.66.126,2.01.303,3l.32,1.8.003-1.8c.001-.99-.135-2.34-.303-3l-.305-1.2-.018,1.2M191.8,216l-.8.344.8.022c.44.012,1.07-.153,1.4-.366.795-.514-.204-.514-1.4,0m-28.71,1.15c-.159.743-.27,1.913-.246,2.6.037,1.067.097.986.405-.55.199-.99.31-2.16.247-2.6-.078-.541-.21-.363-.406.55m25.908.15c-1.768,2.486-3.226,5.062-3.68,6.5-.558,1.766-.749,26.017-.212,26.862.162.255.294-5.505.294-12.8c0-13.969.078-14.662,1.909-17.062.42-.55,1.009-1.588,1.31-2.306.3-.719.958-1.472,1.463-1.675.662-.265.728-.375.237-.394-.375-.014-.97.38-1.321.875m78.602,2.314c0,.228.273.83.606,1.339c3.4,5.188,2.344,32.271-1.397,35.847-.641.613-1.704,2-1.532,2c.839,0,3.921-4.312,3.925-5.491.002-.39.272-1.225.6-1.855.889-1.704.867-25.228-.026-27.854-1.112-3.271-2.176-5.22-2.176-3.986M162.534,224c0,1.65.071,2.325.157,1.5.087-.825.087-2.175,0-3-.086-.825-.157-.15-.157,1.5m130.859,42.8c0,24.75.048,34.875.107,22.5s.059-32.625,0-45-.107-2.25-.107,22.5m-131.261.4c-.018,21.89.08,41.06.218,42.6.236,2.645.168-71.761-.072-79-.063-1.87-.128,14.51-.146,36.4m23.494-15.346c-.12,2.119,4.953,8.155,6.435,7.658.296-.1-.105-.394-.892-.655-1.003-.332-1.698-.948-2.322-2.058-.49-.872-1.106-1.813-1.369-2.092s-.781-1.137-1.152-1.907-.686-1.196-.7-.946m7.582,8.159c.541.343,4.743.576,4.359.242-.092-.079-1.244-.251-2.559-.38-1.554-.154-2.185-.105-1.8.138M260,260l-1.8.28l2,.054c1.1.029,2.27-.121,2.6-.334.703-.454.123-.454-2.8,0m32.854,53c-.035.44-.165,1.25-.287,1.8-.192.863-.16.903.231.29.249-.391.379-1.201.288-1.8-.108-.711-.189-.811-.232-.29m-130.032.325c-.028.924,1.283,4.966,1.445,4.457.066-.21-.227-1.462-.652-2.782-.424-1.32-.782-2.074-.793-1.675m128.953,4.034c-.146.58-.722,1.413-1.281,1.853s-.9.916-.757,1.058c.311.312,2.172-1.771,2.502-2.8.129-.402.136-.828.017-.947-.119-.12-.336.257-.481.836M164.4,318.469c0,.397,1.606,2.058,1.801,1.863.108-.107-.253-.618-.803-1.133-.549-.516-.998-.845-.998-.73m3.2,2.486c0,1.204,4.386,3.783,5.693,3.347.268-.089-.339-.37-1.348-.624-1.113-.28-2.327-.966-3.09-1.746-.69-.706-1.255-1.146-1.255-.977m119.941.556c-.298.419-.991,1.001-1.54,1.293-.588.312-.795.598-.502.696.533.177,3.138-2.197,2.791-2.544-.115-.114-.452.135-.749.555M283,324c-.504.217-.578.344-.2.344.33,0,.96-.155,1.4-.344.504-.217.578-.344.2-.344-.33,0-.96.155-1.4.344" fill="#8c646c" fill-rule="evenodd"/><path d="M255.29,75.403c-2.149.525-3.089,1.061-4.001,2.281-.282.376-1.182.791-2,.921-3.176.506-5.7,1.483-6.518,2.522-.627.798-1.569,1.227-3.899,1.777-2.909.685-6.072,2.283-6.072,3.067c0,.197-.765.477-1.7.622-3.828.592-7.105,1.939-7.392,3.039-.13.496-.686.824-1.652.974-3.975.618-7.106,1.89-7.47,3.037-.129.408-.851.76-1.897.927-3.248.517-5.813,1.471-6.999,2.604-.657.628-1.801,1.267-2.542,1.42-3.618.747-5.744,1.579-6.801,2.661-.729.745-1.825,1.306-3.043,1.558-1.047.217-2.411.506-3.03.642-.62.137-1.77.855-2.556,1.597-.787.741-1.604,1.348-1.817,1.348-2.003,0-6.151,1.51-7.352,2.676-.75.728-1.592,1.324-1.872,1.324-2.323,0-7.671,2.067-8.276,3.199-.238.445-1.038.876-1.906,1.028-3.014.528-5.522,1.549-6.59,2.684-.775.823-1.596,1.221-2.8,1.359-3.192.364-6.285,1.626-6.707,2.736-.236.62-.79.955-1.867,1.128-3.056.492-5.682,1.499-6.919,2.655-.848.792-1.953,1.307-3.36,1.567-2.942.544-5.341,1.576-6.199,2.668-.403.512-1.164,1.015-1.693,1.118-4.811.941-5.757,1.281-6.988,2.513-1.242,1.242-1.713,1.412-6.649,2.411-.593.12-1.77.811-2.618,1.537-1.078.922-2.376,1.517-4.323,1.978-3.06.726-4.915,1.595-5.682,2.66-.276.383-1.086.81-1.8.949-3.995.778-5.333,1.284-6.627,2.504-.762.718-1.559,1.306-1.772,1.306-2.003,0-6.151,1.51-7.352,2.676-.75.728-1.55,1.324-1.778,1.324-.786,0-3.792,1.54-4.43,2.269-.701.802-1.371,3.46-1.775,7.042-.176,1.557-.496,2.475-.983,2.816-2.035,1.425-3.708,13.729-2.283,16.786c1.448,3.108,14.757,2.89,17.757-.291.74-.785,1.732-1.422,2.214-1.422.48,0,1.425-.174,2.101-.386.675-.212,1.705-.481,2.287-.597.582-.117,1.783-.817,2.668-1.556c1.213-1.014,2.417-1.528,4.887-2.089c2.549-.578,3.556-1.019,4.532-1.982.987-.975,1.936-1.384,4.454-1.919c2.752-.585,3.368-.876,4.4-2.076.685-.796,1.573-1.395,2.068-1.395c2.053,0,5.854-1.31,7.013-2.417c1.186-1.133,3.681-2.051,7.02-2.583c1.188-.189,2.075-.667,2.942-1.587c1.011-1.071,1.818-1.44,4.348-1.987c2.871-.62,4.809-1.682,4.809-2.634c0-.207.495-.48,1.1-.607s1.82-.39,2.7-.585s2.071-.452,2.647-.572c.576-.119,1.566-.738,2.2-1.376c1.098-1.103,3.566-2.028,6.983-2.616.839-.144,1.909-.746,2.589-1.456c1.118-1.167,3.275-1.996,6.657-2.561.962-.16,1.836-.674,2.51-1.475.85-1.011,1.654-1.376,4.524-2.056c2.727-.646,3.709-1.074,4.49-1.956.948-1.071,4.403-2.332,6.389-2.332.412,0,1.602-.651,2.644-1.446c1.913-1.461,3.917-2.284,6.673-2.742.961-.16,2.005-.75,2.887-1.631.759-.76,1.544-1.381,1.745-1.381c2.208,0,6.35-1.467,7.438-2.635c1.41-1.513,3.127-1.525,3.653-.025.166.473.375,7.705.465,16.07l.164,15.211-1.564.689c-1.398.617-3.321.69-18.205.69-10.663,0-16.731.144-16.889.4-.136.22-.565.4-.954.4s-1.129.45-1.646,1-1.108,1-1.314,1c-5.904,0-8.332,14.655-3.015,18.2.99.66,2.37,1.772,3.066,2.472.988.99,1.73,1.326,3.365,1.52c4.047.481,96.83.048,97.698-.456.44-.255,1.595-1.2,2.567-2.1.971-.9,1.961-1.642,2.2-1.649c2.151-.062,3.572-8.843,2.029-12.536-.748-1.789-3.652-4.846-4.996-5.258-.55-.169-1.27-.61-1.6-.98-1.75-1.961-2.256-2.013-19.619-2.013-14.49,0-16.322-.07-16.538-.633-.519-1.352-.27-44.984.257-45.136.275-.079,1.58-.37,2.9-.646c2.492-.522,3.953-1.23,4.992-2.421.584-.668,3.435-1.611,6.428-2.126.823-.141,2.027-.817,2.863-1.606c1.131-1.066,2.102-1.508,4.478-2.036c2.38-.53,3.243-.923,3.999-1.822.531-.63,1.837-1.56,2.902-2.066c1.355-.643,2.178-1.37,2.738-2.419.44-.825,1.224-1.791,1.742-2.147c1.547-1.062,2.058-2.918,2.058-7.48c0-5.778-.388-6.58-5.824-12.034-2.15-2.157-10.464-2.997-16.086-1.625m11.764.791c6.964,2.068,12.224,15.194,7.582,18.92-.47.377-1.39,1.542-2.045,2.587-.832,1.329-1.733,2.157-2.989,2.748-.988.466-2.529,1.35-3.424,1.966-.894.616-2.606,1.42-3.802,1.788-2.7.83-3.895,1.366-5.176,2.323-1.349,1.008-3.14,1.726-5.149,2.065-.917.155-2.519.861-3.559,1.568-1.946,1.323-3.437,1.988-5.44,2.428-2.568.564-2.439-.58-2.578,22.984-.129,21.992-.08,23.259.956,24.629.582.771,1.194.807,17.002,1c11.424.139,16.485.335,16.683.646.157.245.735.572,1.285.725c2.237.624,5.2,2.646,5.2,3.548c0,.213.319.678.709,1.034c2.685,2.449,2.121,9.784-.943,12.272-.796.646-1.654,1.362-1.906,1.589-.253.228-1.5.903-2.771,1.5l-2.311,1.086-46.089-.004c-51.615-.005-48.032.199-52.508-2.995-2.971-2.12-2.862-1.975-3.58-4.734-.552-2.12-.262-6.763.504-8.052c1.114-1.876,4.679-5.003,5.733-5.029.309-.007,1.282-.361,2.162-.786c1.496-.723,2.619-.774,17.323-.786c16.272-.014,18.464-.197,20.043-1.669.829-.772,1.371-32.079.591-34.112-.454-1.184-4.694-.852-6.694.524-1.977,1.36-3.92,2.215-5.863,2.581-.77.145-2.429.884-3.686,1.642-2.223,1.341-5.388,2.62-6.483,2.62-.298,0-1.416.595-2.486,1.322-2.236,1.521-3.687,2.135-5.945,2.515-.88.149-2.41.841-3.4,1.538-2.117,1.491-3.72,2.225-4.858,2.225-1.011,0-3.339,1.056-4.942,2.241-.66.488-2.28,1.185-3.6,1.548-2.778.765-4.006,1.296-5.4,2.337-1.349,1.008-3.14,1.726-5.149,2.065-.917.155-2.573.905-3.68,1.667-1.183.813-3.117,1.651-4.692,2.032-1.473.357-3.619,1.242-4.769,1.968-1.149.725-3.039,1.61-4.2,1.966-2.623.805-3.779,1.328-5.31,2.401-1.243.872-4.959,2.175-6.201,2.175-.39,0-1.584.595-2.654,1.322-2.208,1.502-3.675,2.129-5.872,2.511-.84.147-2.37.839-3.4,1.539-2.027,1.377-3.523,2.03-5.6,2.441-1.466.29-2.485.771-4.279,2.017-1.356.943-2.987,1.6-4.921,1.983-1.499.296-2.534.793-4.313,2.067-.675.485-2.561,1.25-4.19,1.701-1.629.452-3.684,1.327-4.566,1.946-3.463,2.429-12.558,3.102-14.443,1.069-1.541-1.663-1.069-9.377.829-13.546.513-1.127,1.326-3.94,1.806-6.25c1.214-5.837,1.262-5.909,5.379-8.092c1.962-1.04,3.67-2.047,3.796-2.238s1.309-.665,2.629-1.055c2.975-.877,4.926-1.72,6.111-2.64.501-.389,1.941-1.01,3.2-1.379c3.155-.925,5.362-1.876,6.131-2.642.357-.355,1.709-.959,3.004-1.342c3.764-1.115,5.344-1.771,6.217-2.585.792-.738,4.123-2.027,5.237-2.027.303,0,1.709-.686,3.125-1.525s3.385-1.758,4.375-2.041c2.435-.697,5.533-2.072,6.037-2.679.227-.273,1.436-.794,2.687-1.159c1.252-.364,2.589-.828,2.971-1.029.382-.202.953-.367,1.269-.367s1.083-.427,1.705-.949c.622-.523,2.631-1.447,4.464-2.054c1.834-.608,3.814-1.508,4.4-2c.587-.493,2.147-1.212,3.467-1.598c3.85-1.128,5.392-1.76,6.261-2.57.448-.418,2.357-1.261,4.241-1.874s3.892-1.501,4.462-1.974s2.116-1.185,3.436-1.582c2.851-.859,6.6-2.536,6.6-2.952c0-.163,1.125-.617,2.5-1.011c3.002-.859,4.982-1.707,6.211-2.661.501-.389,1.941-1.014,3.2-1.388c3.023-.898,4.91-1.729,5.889-2.592.44-.389,2.403-1.212,4.363-1.829c1.96-.618,4.03-1.514,4.6-1.992.57-.477,2.64-1.377,4.6-2c1.96-.622,4.03-1.516,4.6-1.985.57-.47,2.616-1.362,4.547-1.983c1.93-.622,3.965-1.521,4.521-1.998.555-.478,2.126-1.182,3.49-1.565c1.363-.382,2.792-.864,3.174-1.069.382-.206.953-.374,1.269-.374s1.083-.421,1.705-.935s2.121-1.259,3.331-1.655c3.887-1.272,4.487-1.535,5.553-2.43.576-.483,2.127-1.197,3.447-1.585c3.241-.955,5.035-1.744,6.041-2.659c1.782-1.62,9.602-2.415,13.213-1.342M184.2,191.398c-2.824.719-3.272.947-3.975,2.02-.346.528-1.312,1.136-2.172,1.368-1.929.519-3.653,1.84-3.653,2.799c0,.504-.401.801-1.313.972-.722.136-1.577.651-1.9,1.145s-1.357,1.63-2.299,2.525c-.989.94-1.882,2.24-2.113,3.077-.228.829-.722,1.552-1.152,1.689-1.429.453-2.564,3.225-3.031,7.403-.134,1.207-.587,2.749-1.006,3.426-1.43,2.314-1.579,7.033-1.583,50.011-.003,43.399.081,45.754,1.667,46.89.401.287.73.761.73,1.054c0,2.036,1.386,4.645,2.824,5.318.829.388,1.801,1.199,2.162,1.802c1.65,2.76,2.256,2.785,63.614,2.596c58.194-.179,55.364-.043,57.927-2.788.92-.986,2.051-1.911,2.512-2.056.953-.3,1.584-1.477,1.991-3.713.154-.845.596-2.256.982-3.136s.819-1.952.963-2.381c.358-1.066.368-87.714.011-89.219-.157-.66-.606-2.19-.999-3.4s-.846-3.453-1.006-4.984c-.358-3.412-1.025-5.09-2.43-6.113-.59-.43-1.362-1.574-1.714-2.543-.466-1.279-.994-1.924-1.931-2.36-.805-.374-1.445-1.057-1.701-1.816-.415-1.225-2.185-2.584-3.367-2.584-.353,0-.638-.329-.638-.738c0-1.032-1.144-1.955-3.359-2.71-1.04-.354-2.106-.994-2.367-1.421-.596-.977-2.271-1.748-4.994-2.301-3.27-.664-84.028-.508-86.68.168m86.247.944c1.016.275,2.186.813,2.6,1.195.414.383,1.935,1.196,3.38,1.808c1.533.65,3.262,1.768,4.152,2.684.838.864,1.726,1.579,1.973,1.588.246.009.898.588,1.448,1.287.55.698,1.66,1.906,2.468,2.683.807.777,1.877,2.223,2.378,3.213.502.99,1.207,2.07,1.567,2.4.849.777,1.8,3.483,2.461,7c.722,3.843.777,96.955.059,98.8-.258.66-.568,1.65-.69,2.2-.252,1.135-1.913,3.2-2.574,3.2-.241,0-1.12.682-1.954,1.515-2.614,2.614.499,2.485-60.002,2.485-60.317,0-56.832.145-59.428-2.472-.834-.841-1.702-1.528-1.929-1.528-1.662,0-3.391-4.495-3.954-10.277-.492-5.063-.498-79.064-.006-85.923.614-8.572,1.664-13.36,3.408-15.54c1.414-1.767,1.507-1.908,2.333-3.523.406-.793,1.171-1.674,1.7-1.957.53-.283.963-.632.963-.776c0-.448,2.251-2.804,2.68-2.804.224,0,1.018-.647,1.764-1.437s2.346-1.883,3.556-2.428c1.21-.546,2.836-1.426,3.614-1.958c3.074-2.101,3.35-2.113,46.386-2.021c30.379.065,40.237.204,41.647.586m-76.933,23.477c-.121.121-1.094.436-2.162.7-1.712.424-2.053.695-2.88,2.281-.516.99-1.164,2.07-1.439,2.4-1.501,1.798-1.633,3.12-1.633,16.414c0,13.675.174,15.112,2.071,17.093.267.279.88,1.209,1.362,2.066c1.945,3.462,3.445,3.6,39.167,3.606c37.083.007,36.513.077,39.721-4.897c3.025-4.69,3.382-30.107.485-34.529-.333-.509-.606-1.181-.606-1.495c0-1.1-1.438-2.326-3.608-3.075-2.141-.739-69.762-1.28-70.478-.564m70.245,1.687c1.078.386,2.098.971,2.267,1.298c1.758,3.406,1.746,3.302,1.905,16.777.198,16.853.012,18.174-2.972,21.111l-2.155,2.121-35.344-.107-35.344-.106-1.158-1.366c-2.382-2.811-2.169-2.284-3.571-8.834-.521-2.439-.608-4.796-.464-12.6l.177-9.6l1.392-4.196l1.391-4.196l1.714-.293c.942-.16,1.809-.387,1.925-.504.668-.667,68.325-.191,70.237.495" fill="#816168" fill-rule="evenodd"/><path d="M258.563,76.398c-1.61.224-3.103.763-4.4,1.587-1.08.686-3.445,1.7-5.257,2.253-1.811.554-3.53,1.243-3.819,1.532-.779.78-2.589,1.609-5.287,2.424-1.32.399-3.142,1.252-4.048,1.896-1.553,1.103-2.267,1.365-6.452,2.368-.935.224-1.7.539-1.7.701c0,.703-6.848,3.641-8.487,3.641-.21,0-1.132.536-2.048,1.19-.916.655-3.015,1.618-4.665,2.141s-3.686,1.418-4.524,1.988c-.839.571-2.549,1.324-3.8,1.673-2.697.753-5.276,1.824-5.276,2.192c0,.33-2.339,1.348-5.2,2.262-1.21.387-3.136,1.299-4.281,2.028-1.144.729-2.28,1.326-2.525,1.326-1.088,0-4.769,1.459-6.594,2.615-1.1.696-2.45,1.37-3,1.498-3.512.815-4.594,1.223-6.054,2.28-.899.652-2.97,1.586-4.601,2.075-1.631.49-3.287,1.191-3.68,1.557-.987.92-2.954,1.775-6.348,2.761-1.586.461-3.121,1.075-3.41,1.364-.691.691-2.78,1.639-5.507,2.499-1.21.382-3.075,1.292-4.145,2.023-1.07.73-2.206,1.328-2.525,1.328-1.201,0-4.803,1.395-6.73,2.606-1.1.692-3.14,1.572-4.534,1.956-1.393.384-3.373,1.232-4.4,1.885-1.026.652-3.126,1.563-4.666,2.022-1.54.46-3.34,1.221-4,1.692-1.681,1.198-2.839,1.709-5.6,2.469-1.32.364-2.959,1.08-3.642,1.592s-2.753,1.427-4.6,2.033-4.294,1.697-5.439,2.424c-1.144.726-2.28,1.321-2.525,1.321-1.114,0-4.787,1.472-6.675,2.674-1.144.729-2.273,1.326-2.508,1.326-.605,0-3.721,2.009-4.269,2.752-.252.342-.761,2.247-1.132,4.235-.728,3.901-1.397,6.13-3.008,10.013-1.084,2.613-1.035,10.029.072,10.754c2.259,1.48,9.691,1.116,12.526-.615.66-.403,1.47-.856,1.8-1.006.33-.151.69-.389.8-.528.11-.14,1.46-.587,3-.995c2.733-.722,4.107-1.378,5.473-2.611.37-.334,1.99-.947,3.6-1.361c2.878-.741,4.196-1.369,5.673-2.707.41-.372,1.483-.801,2.385-.953.901-.152,1.915-.424,2.254-.604.338-.18,1.38-.642,2.315-1.027.935-.386,1.7-.831,1.7-.991c0-.28,1.666-.927,5-1.942.88-.267,2.596-1.087,3.812-1.821c1.217-.733,2.747-1.452,3.4-1.596c2.716-.599,5.054-1.589,6.826-2.889.681-.499,1.439-.908,1.686-.908c1.267,0,6.27-2.031,6.876-2.791.321-.402,3.07-1.609,3.666-1.609c1.034,0,4.666-1.507,5.998-2.489.735-.542,2.558-1.305,4.052-1.697c1.494-.391,3.294-1.095,4-1.563c1.888-1.251,3.003-1.759,5.772-2.629c2.838-.891,3.934-1.425,5.041-2.456.428-.399,1.34-.84,2.025-.979c3.244-.658,5.791-1.739,7.216-3.062.424-.393,1.414-.824,2.2-.958c2.462-.418,4.167-1.091,6.03-2.38.99-.684,2.97-1.556,4.4-1.937s3.532-1.306,4.672-2.056c1.139-.751,2.579-1.476,3.2-1.612c2.705-.593,5.009-1.584,6.876-2.958c1.823-1.342,6.301-1.718,7.12-.598.705.964.783,32.785.084,34.319-.957,2.1-2.305,2.255-19.678,2.255-20.149,0-21.814.409-25.984,6.389-1.311,1.879-.658,10.809.79,10.811.176.001.823.434,1.438.962.614.529,2.144,1.474,3.4,2.1L181,183h46.6c53.434,0,48.507.333,53.059-3.589c2.98-2.568,4.162-9.047,2.038-11.171-.386-.386-.908-1.093-1.159-1.571-2.22-4.223-4.998-4.808-23.595-4.972-15.392-.135-15.879-.163-16.6-.96-.703-.777-.749-2.058-.852-23.908-.124-26.137-.426-23.839,3.261-24.835c1.073-.29,2.783-1.093,3.8-1.784c1.016-.692,3.108-1.591,4.648-1.999c2.463-.652,4.372-1.501,5-2.223.33-.379,3.083-1.588,3.618-1.588.773,0,6.382-2.788,6.382-3.172c0-.188.484-.463,1.076-.611c1.68-.422,3.155-1.659,4.292-3.599.574-.98,1.446-2.063,1.938-2.407c1.6-1.121,1.337-8.937-.39-11.564-4.03-6.13-7.777-7.732-15.553-6.649m9.139,2.021c.494.56,1.479,1.424,2.188,1.92.71.496,1.629,1.657,2.042,2.581.414.924,1.138,2.023,1.61,2.442c1.083.962,1.271,5.797.258,6.638-.33.274-.6.718-.6.987s-.339.796-.753,1.171c-.414.374-1.059,1.483-1.434,2.462-.506,1.327-.952,1.849-1.746,2.047-1.966.491-4.869,2.018-5.853,3.081-.537.578-1.377,1.052-1.868,1.052-1.558,0-5.715,1.662-6.546,2.617-.44.506-1.43,1.039-2.2,1.184-3.27.618-5.773,1.596-7.2,2.814-.55.469-1.9,1.185-3,1.59-3.472,1.28-3.187-.865-3.31,24.888-.115,24.27-.045,25.389,1.72,27.153l.954.954l14.518.001c18.935.002,23.118.509,23.118,2.805c0,.375.63,1.35,1.4,2.167c1.742,1.846,2.003,4.829.557,6.344-.464.486-1.018,1.366-1.23,1.957-1.299,3.606-.113,3.526-52.327,3.526-51.939,0-49.727.142-52.922-3.4-1.788-1.983-2.365-7.885-.829-8.474.293-.113,1.15-1.064,1.904-2.114c1.829-2.546,1.02-2.448,22.793-2.751l18.746-.261l1.303-1.508c1.773-2.051,1.796-2.307,1.801-20.405.005-19.716-.004-19.751-4.854-19.08-3.91.541-6.997,1.707-7.334,2.769-.142.446-1.217.896-3.303,1.381-3.518.819-4.847,1.422-6.27,2.845-.549.549-1.43.998-1.957.998-2.031,0-6.152,1.777-6.477,2.792-.123.385-1.403.89-3.497,1.378-3.123.727-6.304,2.232-6.304,2.981c0,.187-1.305.648-2.9,1.023-3.506.825-5.297,1.6-5.994,2.596-.31.443-1.651,1.03-3.292,1.441-3.694.927-5.302,1.633-5.789,2.542-.231.431-1.049.87-1.914,1.025-3.304.592-6.441,1.839-7.462,2.967-.409.453-1.92,1.065-3.579,1.45-3.472.806-4.618,1.3-5.681,2.448-.488.525-1.926,1.151-3.6,1.567-3.235.802-4.494,1.38-5.552,2.549-.419.463-.982.841-1.253.841-1.683,0-7.508,2.232-8.401,3.219-.352.389-1.843,1.013-3.312,1.385-3.332.845-4.396,1.31-5.714,2.497-.624.562-2.28,1.241-4.125,1.691-3.01.734-3.794,1.118-5.043,2.466-.337.363-1.867.96-3.4,1.327-3.355.802-4.531,1.312-5.589,2.422-.449.472-2.029,1.154-3.6,1.556-3.502.894-5.382,1.726-6.209,2.747-.743.918-4.91,1.461-8.467,1.103L77.8,178.6l-.118-2.913c-.099-2.463.035-3.205.87-4.8c1.188-2.271,1.724-4.02,2.048-6.687.958-7.899,2.667-10.963,6.461-11.585.982-.161,2.291-.796,3.2-1.552c1.631-1.356,3.285-2.033,6.007-2.461c1.07-.168,2.216-.746,3.2-1.616c1.178-1.041,2.249-1.512,4.637-2.039c2.339-.516,3.461-1.002,4.546-1.967c1.067-.949,2.234-1.463,4.495-1.979c1.949-.445,3.574-1.103,4.491-1.817c1.802-1.405,3.654-2.187,6.017-2.541c1.243-.187,2.35-.712,3.409-1.618c1.522-1.303,3.182-1.951,6.199-2.42.87-.135,2.05-.766,2.917-1.56c1.114-1.021,2.18-1.499,4.538-2.037c2.005-.458,3.597-1.105,4.553-1.85c1.386-1.082,2.749-1.642,6.549-2.694.89-.246,2.178-.947,2.861-1.557c1.208-1.078,3.175-1.82,6.194-2.335.811-.138,2.164-.841,3.006-1.562c1.103-.944,2.371-1.509,4.526-2.017c2.285-.539,3.329-1.024,4.411-2.05.875-.829,1.822-1.343,2.476-1.343.583,0,1.156-.156,1.274-.347s1.089-.464,2.158-.605c1.356-.18,2.416-.652,3.509-1.561c1.655-1.377,3.302-2.056,6.027-2.483c1.049-.165,2.252-.766,3.26-1.629c1.137-.974,2.38-1.549,4.313-1.997c3.138-.728,4.092-1.176,5.019-2.355.47-.597,1.684-1.072,4.083-1.597c2.604-.571,3.761-1.048,4.875-2.01c1.411-1.22,3.211-1.924,6.233-2.438.794-.135,2.134-.843,2.978-1.572c1.555-1.344,3.016-1.924,6.063-2.405c1.094-.173,2.189-.727,3.118-1.578c1.088-.997,2.173-1.481,4.514-2.015c2.005-.458,3.597-1.105,4.553-1.85c1.391-1.086,2.73-1.635,6.612-2.713.925-.256,2.187-.891,2.803-1.41c1.44-1.211,3.449-2.044,5.769-2.392c1.246-.187,2.35-.712,3.417-1.626c1.827-1.564,2.673-1.754,7.431-1.675c3.214.053,3.575.142,4.4,1.077M187.466,192.395c-2.105.276-4.132.993-4.666,1.65-.11.135-1.46.839-3,1.564s-3.412,1.875-4.159,2.555c-3.734,3.395-7.602,7.485-7.86,8.31-.159.509-.409,1.016-.556,1.126-1.065.797-2.446,3.416-2.954,5.6-1.62,6.959-1.671,8.629-1.671,54.2v44l1,3.547c.82,2.909,1.235,3.737,2.309,4.6.72.579,1.97,1.635,2.777,2.347c2.983,2.629.065,2.506,59.416,2.506c37.089,0,54.201-.133,55.138-.428c1.811-.57,3.379-1.44,4.51-2.501.511-.479,1.513-1.31,2.228-1.847c3.239-2.432,3.192-1.664,3.208-52.579.016-51.181-.148-54.298-3.027-57.403-.53-.571-1.324-1.806-1.765-2.744-.689-1.466-3.644-4.682-8.194-8.919-.66-.614-2.01-1.435-3-1.822-.99-.388-2.34-1.034-3-1.435s-2.01-1.133-3-1.626l-1.8-.896-39.8-.056c-21.89-.03-40.85.083-42.134.251m80.902,1.154c.973.267,2.053.794,2.4,1.171.909.986,5.435,2.88,6.882,2.88.343,0,.956.616,1.361,1.368.479.89,1.274,1.58,2.271,1.971c1.1.432,1.698.994,2.112,1.984.327.785,1.182,1.738,1.98,2.209c1.084.639,1.506,1.231,1.848,2.591.254,1.006,1.187,2.669,2.171,3.868l1.726,2.105.268,6.452c.147,3.549.201,26.342.119,50.652-.161,48.035-.125,47.269-2.282,47.807-1.137.283-3.464,1.934-4.489,3.183-.661.806-.917.81-56.646.81h-55.983l-1.826-1.683c-1.004-.926-2.445-1.942-3.201-2.258-2.671-1.116-2.735-2.518-2.586-56.459.146-52.65-.061-48.824,2.805-51.812.534-.556,1.225-1.811,1.536-2.788.391-1.227.993-2.063,1.949-2.704.76-.51,1.588-1.416,1.839-2.012.546-1.3,1.237-1.893,2.578-2.212.588-.139,1.305-.804,1.74-1.613.476-.884,1.123-1.452,1.811-1.589c2.086-.417,5.465-1.874,6.578-2.837.833-.72,1.775-1.035,3.6-1.204c1.359-.126,3.011-.297,3.671-.38c3.355-.424,74.102.043,75.768.5m-72.443,19.213c-1.032.148-2.202.561-2.6.916-.399.356-1.445.84-2.325,1.075-2.178.582-3.268,1.421-4.188,3.224-.428.838-1.036,1.623-1.351,1.744-1.714.658-1.861,2.064-1.861,17.753c0,15.801.136,17.106,1.918,18.353.386.271,1.327,1.41,2.092,2.532c1.112,1.632,1.67,2.087,2.79,2.274.77.129,2.03.444,2.8.701c1.021.34,10.291.466,34.2.466c40.096,0,38.683.162,41.566-4.768.847-1.447,1.679-2.632,1.849-2.632c2.508,0,2.29-32.302-.226-33.71-.32-.179-.954-1.191-1.409-2.247-.802-1.866-2.967-3.643-4.438-3.643-.301,0-1.447-.495-2.545-1.1l-1.997-1.1-31.2-.053c-17.16-.03-32.044.067-33.075.215m67.638,3.142c3.547,1.25,4.366,2.264,6.213,7.696.893,2.626.915,26.15.026,27.854-.328.63-.598,1.465-.6,1.855-.002.673-1.659,3.518-2.677,4.595-.262.278-1.369.953-2.459,1.5l-1.982.996h-33.914c-33.875,0-34.875-.036-37.717-1.348-.861-.398-3.307-3.676-4.216-5.652-1.361-2.959-1.425-3.667-1.425-15.8c0-13.162.107-14.018,2.152-17.2c3.796-5.907,1.383-5.589,41.636-5.484L261,215l2.563.904" fill="#9c8084" fill-rule="evenodd"/></g></svg>
