<?xml version="1.0" encoding="UTF-8" standalone="no"?>
<svg
   id="svg"
   version="1.1"
   width="400"
   height="400"
   viewBox="0, 0, 400,400"
   sodipodi:docname="viaferrata.svg"
   inkscape:version="1.2.2 (732a01da63, 2022-12-09)"
   xmlns:inkscape="http://www.inkscape.org/namespaces/inkscape"
   xmlns:sodipodi="http://sodipodi.sourceforge.net/DTD/sodipodi-0.dtd"
   xmlns="http://www.w3.org/2000/svg"
   xmlns:svg="http://www.w3.org/2000/svg">
  <defs
     id="defs41296" />
  <sodipodi:namedview
     id="namedview41294"
     pagecolor="#ffffff"
     bordercolor="#666666"
     borderopacity="1.0"
     inkscape:showpageshadow="2"
     inkscape:pageopacity="0.0"
     inkscape:pagecheckerboard="0"
     inkscape:deskcolor="#d1d1d1"
     showgrid="false"
     inkscape:zoom="1.94"
     inkscape:cx="132.73196"
     inkscape:cy="186.08247"
     inkscape:window-width="1920"
     inkscape:window-height="974"
     inkscape:window-x="-11"
     inkscape:window-y="-11"
     inkscape:window-maximized="1"
     inkscape:current-layer="g41291" />
  <g
     id="g41291">
    <path
       d="M205.83,46.453c-.69,3.13-1.03,6.092-1.03,8.975c0,4.887-1.563,9.735-3.027,9.39-.425-.1-14.243-.19-30.707-.2L141.132,64.6l-.952-1.106c-.523-.608-1.177-1.868-1.453-2.8s-.803-2.022-1.171-2.423c-.915-.997-1.706-3.398-2.525-7.667-.796-4.146-.72-3.998-1.755-3.445-1.064.57-1.708,2.533-1.3,3.958.18.627.444,3.197.588,5.712.626,10.991,1.37,13.346,4.347,13.761c2.246.312,10.189-.346,13.689-1.136c3.606-.813,11.301-1.387,24.8-1.849c17.627-.604,28.73-1.222,29.869-1.663c1.797-.695,2.074-2.926,1.514-12.205-.491-8.145-.592-8.919-.953-7.284M185.647,97.5c.064,5.229.478,7.185.868,4.1.514-4.064.359-8-.315-8-.496,0-.592.679-.553,3.9m-60.395-.198c-.705,1.318.383,8.308,1.518,9.751.457.58.836,1.616.844,2.301.065,5.676,1.636,7.779,5.482,7.341c7.568-.862,10.123.086,11.759,4.361.361.942,1.281,2.443,2.045,3.335.952,1.113,1.591,2.443,2.033,4.236.448,1.815,1.012,2.979,1.846,3.814.661.66,1.409,1.957,1.662,2.88.861,3.145,1.647,5.027,2.184,5.233.636.244,2.175,3.474,2.175,4.563c0,1.034.938,2.805,2.357,4.448.648.751,1.29,2.011,1.427,2.8.376,2.171,1.036,3.658,2.465,5.557.714.948,1.411,2.298,1.549,3c.434,2.2,1.09,3.621,2.469,5.345.733.917,1.333,1.839,1.333,2.048c0,1.249,1.781,5.627,2.599,6.387.533.496,1.178,1.666,1.432,2.6.837,3.075,1.578,4.756,2.751,6.237.869,1.097,1.33,2.359,1.847,5.061.379,1.98.819,3.78.977,4c1.405,1.956,2.378,4.47,2.584,6.673.393,4.218,1.02,6.808,2.269,9.375.732,1.504,1.338,3.587,1.571,5.4.796,6.177,1.281,8.237,2.58,10.952.991,2.072,1.404,3.58,1.588,5.8.368,4.431.913,6.708,2.28,9.527.848,1.748,1.34,3.538,1.597,5.8.578,5.093,1.111,7.486,2.212,9.928l1.017,2.255-1.021,4.145c-1.124,4.56-1.739,10.007-2.093,18.545-.235,5.662-.867,10.182-1.985,14.2-.913,3.283-1.701,10.204-1.98,17.4-.258,6.636-.74,10.148-2.143,15.6-1.199,4.661-1.681,9.514-1.708,17.2-.027,7.875.171,8.861,1.977,9.829c1.702.913,2.849,1.963,2.849,2.608c0,.662,2.811,1.104,6.418,1.01c1.535-.04,2.084-.296,3.533-1.647.944-.88,1.928-1.6,2.186-1.6c1.116,0,1.671-1.666,2.669-8c.419-2.663.97-4.783,1.612-6.2.405-.894,1.577-13.857,1.591-17.594.012-3.399,1.349-12.166,2.106-13.819.646-1.408,1.224-6.755,1.896-17.544.486-7.815,1.049-11.835,1.993-14.243.557-1.421.964-4.201,1.407-9.6.78-9.509,1.133-10.14,5.191-9.283c2.859.603,4.059,1.216,4.384,2.239.148.466,1.152,1.097,2.613,1.644c1.306.488,2.899,1.389,3.541,2.003s1.863,1.422,2.714,1.797c3.061,1.349,3.456,1.604,3.859,2.489.259.567.904.991,1.753,1.15.738.138,1.441.411,1.562.606s.563.355.982.355c.42,0,1.377.614,2.128,1.365.751.75,2.512,1.933,3.913,2.629c1.402.695,2.684,1.505,2.849,1.799.165.295,1.155.928,2.2,1.407c3.53,1.62,3.766,1.769,4.561,2.886.436.613,1.046,1.114,1.355,1.114c1.056,0,4.873,1.906,5.441,2.717.312.446,1.582,1.291,2.823,1.878c1.24.587,2.583,1.504,2.983,2.036.4.533.876.969,1.058.969.919,0,4.792,2.126,5.807,3.188.637.666,1.375,1.212,1.64,1.212.952,0,4.821,2.136,5.023,2.773.114.357,1.141,1.005,2.283,1.439c1.142.433,2.646,1.352,3.342,2.042s1.698,1.388,2.225,1.552c1.94.602,4.742,2.215,5.14,2.959.225.421,1.267,1.082,2.314,1.469c1.048.387,2.634,1.285,3.525,1.996c6.034,4.815,16.046,2.382,17.128-4.161c1.038-6.279-.536-9.979-5.301-12.461-.796-.414-1.945-1.293-2.554-1.952-.608-.659-1.778-1.413-2.6-1.675-.821-.263-1.943-.877-2.493-1.365-1.742-1.546-3.359-2.508-4.705-2.799-.787-.17-1.698-.799-2.297-1.584-.681-.893-1.706-1.542-3.265-2.067-1.413-.476-2.964-1.409-4.102-2.466-1.047-.973-2.221-1.7-2.746-1.7-.516,0-1.605-.662-2.496-1.518-.868-.835-2.256-1.755-3.084-2.046-2.835-.995-3.995-1.675-4.41-2.588-.282-.619-1.119-1.135-2.59-1.598-1.307-.41-2.878-1.32-3.938-2.28-.971-.879-2.436-1.798-3.257-2.044-.82-.246-2.004-1.01-2.629-1.697-.68-.747-2.06-1.564-3.428-2.029-1.483-.504-2.763-1.29-3.635-2.232-.882-.954-1.955-1.608-3.114-1.9-1.01-.254-2.38-1.023-3.196-1.792-1.358-1.281-3.77-2.676-4.627-2.676-.219,0-.912-.586-1.541-1.301-.739-.842-1.983-1.584-3.522-2.1-2.374-.797-4.218-2.085-4.218-2.945c0-.25-.18-.454-.4-.454s-.4-.262-.4-.582-.469-1.05-1.041-1.623l-1.042-1.042-.327-15.954c-.18-8.775-.228-16.332-.108-16.793.72-2.752,11.062-2.715,14.99.053.606.427,2.345.928,4,1.151c1.611.218,3.755.506,4.767.641c2.035.272,3.561-.57,3.561-1.966c0-.968.658-2.187,2.041-3.778.617-.712,1.331-2.062,1.586-3c.758-2.796,1.215-3.835,2.117-4.817c1.081-1.178,1.712-2.452,2.236-4.52.227-.897,1.111-2.607,1.965-3.8.853-1.194,1.675-2.8,1.826-3.57.355-1.802,1.007-3.155,2.113-4.379.969-1.072,1.461-2.166,2.096-4.658.229-.9.774-2.07,1.211-2.6c1.978-2.399,2.332-3.174,2.81-6.169.38-2.381.335-3.704-.219-6.443-.196-.971-2.694-3.557-4.182-4.329-1.962-1.019-5.396-.345-6.937,1.361-.738.817-1.62,1.592-1.961,1.722-.34.131-.918,1.196-1.284,2.366-.814,2.604-1.743,4.37-2.641,5.017-.372.268-.979,1.41-1.348,2.539-.664,2.029-.966,2.538-2.328,3.921-.385.39-1.158,1.867-1.719,3.281s-1.511,3.021-2.11,3.571c-.608.558-1.434,2.046-1.868,3.365-.458,1.391-1.297,2.875-2.037,3.6-.692.679-1.555,1.815-1.917,2.523-1.431,2.799-8.709,2.943-14.153.279-2.533-1.239-5.57-1.975-9.697-2.348-3.22-.292-5.848-1.028-7.846-2.199-1.284-.751-4.654-1.396-9.554-1.828-3.197-.282-5.105-.829-6.737-1.931-1.203-.813-5.88-1.86-8.313-1.861-3.022-.001-4.07-.476-6.577-2.983-1.346-1.346-2.553-2.89-2.683-3.432-.88-3.686-1.216-4.533-2.104-5.311-.983-.86-2.586-4.571-2.586-5.987c0-.398-.446-1.169-.991-1.714-1.456-1.456-2.486-3.792-3.2-7.255-.148-.717-.58-1.382-.98-1.509-.632-.2-1.193-1.228-2.473-4.528-.196-.505-.356-1.279-.356-1.719s-.423-1.197-.939-1.681c-1.242-1.165-1.804-2.283-2.673-5.324-.398-1.391-1.157-2.962-1.686-3.491-1.064-1.064-1.553-2.147-2.513-5.567-.356-1.266-.961-2.47-1.346-2.676-.781-.418-1.622-2.248-2.671-5.812-.386-1.313-1.057-2.675-1.49-3.026-2.897-2.346,5.675-4.268,19.485-4.37c6.502-.049-2.747-1.216-12.567-1.587-8.457-.319-9.785-.578-11.4-2.216-2.72-2.761-7.162-2.449-11.229.788-1.657,1.319-10.57,2.071-12.474,1.052-.93-.498-2.268-3.195-2.664-5.37-.198-1.09-.545-1.62-1.23-1.881-1.311-.498-1.803-1.587-1.803-3.988c0-3.54-1.346-5.782-2.348-3.911M206.4,132.199c-1.21.288-2.757.541-3.438.562-1.205.038-2.553,1.027-7.591,5.57-1.495,1.348-2.971,3.75-2.971,4.835c0,.559-.791,1.955-1.684,2.972-2.027,2.308-1.945,10.7.137,13.945.68,1.059,1.544,2.921,1.92,4.136.528,1.705,1.015,2.435,2.133,3.195.798.542,1.685,1.458,1.972,2.036.361.726,1.287,1.354,3,2.034c1.362.54,2.972,1.442,3.578,2.003c2.35,2.178,13.759,2.29,16.275.159c1.277-1.081,4.117-2.583,5.749-3.04.483-.136.997-.618,1.14-1.07.356-1.122,1.806-2.754,2.781-3.131.799-.309,1.401-1.793,2.84-7.005.365-1.32.896-3.046,1.182-3.835.586-1.62.385-4.333-.46-6.225-.31-.694-.563-1.718-.563-2.277s-.156-1.112-.347-1.231c-.192-.118-.463-.932-.603-1.81-.335-2.091-1.051-3.622-1.695-3.622-.284,0-1.074-.81-1.755-1.799-.681-.99-1.724-2.055-2.319-2.367-.594-.311-1.351-.956-1.681-1.433-1.629-2.351-12.132-3.905-17.6-2.602M137.633,145.36c-.49.591-.462,1.447.241,7.34l.275,2.3.29-2c.716-4.926.29-8.961-.806-7.64m-56.005,3.707c.016,1.943.175,3.893.354,4.333.343.841.315.901,1.031-2.2.271-1.175-.42-5.338-.913-5.501-.376-.125-.493.71-.472,3.368m2.762,7.56c-.474,1.246-.149,4.82.697,7.673.722,2.437,2.4,2.845,5.538,1.349c2.694-1.285,10.29-2.049,20.379-2.049c8.784,0,25.462-.616,27.254-1.007.797-.174.828-.306.437-1.848-.392-1.542-.461-1.606-.975-.903-.515.705-1.405.775-12.837,1.007-6.755.137-17.357.389-23.56.561-13.398.372-13.646.294-14.722-4.606-.339-1.542-1.652-1.647-2.211-.177"
       fill="#e0d7d7"
       fill-rule="evenodd"
       id="path41281"
       style="fill:#fffeff;fill-opacity:1" />
    <path
       d="M158,0.976v.976l-7.568.124c-8.401.138-8.015.032-8.318,2.291L141.895,6h-5.468C130.32,6,130,6.124,130,8.48v1.52l-4.5.047c-6.428.068-6.802.185-7.211,2.255L117.953,14h-3.348c-3.84,0-4.605.437-4.605,2.629v1.371h-3.371c-3.866,0-4.629.434-4.629,2.629v1.371h-2.774c-3.89,0-4.753.403-5.067,2.368-.251,1.567-.284,1.594-2.107,1.712L90.2,26.2l-.12,1.861-.121,1.861-3.546.139c-4.058.159-4.008.132-4.297,2.286-.214,1.599-.233,1.614-2.066,1.733l-1.85.12-.12,1.853-.12,1.854-2.28.17c-3.074.23-4.56,1.006-5.024,2.623-.324,1.134-.543,1.3-1.714,1.3C67.256,42,66,43.195,66,44.8c0,1.123-.098,1.2-1.52,1.2-1.916,0-2.48.564-2.48,2.48c0,1.493-.027,1.52-1.52,1.52-1.916,0-2.48.564-2.48,2.48c0,1.493-.027,1.52-1.52,1.52-1.916,0-2.48.564-2.48,2.48c0,1.493-.027,1.52-1.52,1.52-1.916,0-2.48.564-2.48,2.48c0,1.464-.05,1.52-1.371,1.52C46.901,62,46,62.883,46,64.577c0,1.233-.107,1.338-1.612,1.579-1.705.272-2.388,1.207-2.388,3.27c0,.804-.199.974-1.138.974-1.778,0-2.428,1.079-2.718,4.511l-.258,3.05-1.843.119-1.843.12-.12,1.85c-.119,1.833-.134,1.852-1.733,2.066-2.052.276-2.047.268-2.264,2.884-.111,1.345-.369,2.2-.663,2.2-.584,0-2.22,1.683-2.22,2.283c0,.237-.27.535-.6.662-.411.157-.6.799-.6,2.035c0,1.646-.097,1.825-1.1,2.036-2.409.507-2.764,1.19-2.853,5.484L22,102h-1.371c-2.195,0-2.629.763-2.629,4.629v3.371h-1.371c-2.187,0-2.629.768-2.629,4.572v3.314l-1.682.357c-2.1.445-2.225.835-2.278,7.057L10,130h-1.52c-2.359,0-2.48.316-2.48,6.48v5.52h-1.371C2.12,142,2,142.395,2,150.629L2,158h-1-1v42v42h.976.976l.124,7.568c.138,8.401.032,8.015,2.291,8.318L6,258.105v5.468C6,269.68,6.124,270,8.48,270h1.52l.047,4.5c.068,6.428.185,6.802,2.255,7.211l1.698.336v3.348c0,3.84.437,4.605,2.629,4.605h1.371v3.371c0,3.866.434,4.629,2.629,4.629h1.371v2.774c0,3.89.403,4.753,2.368,5.067c1.567.251,1.594.284,1.712,2.107l.12,1.852l1.9.122l1.9.122v3.349c0,3.834.438,4.607,2.607,4.607c1.326,0,1.351.033,1.471,1.9l.122,1.9l1.9.122l1.9.122.019,1.878c.026,2.477,1.064,4.538,2.635,5.23c1.073.473,1.283.808,1.453,2.32.242,2.151.235,2.143,2.26,2.414c1.536.206,1.633.298,1.633,1.538c0,1.693.901,2.576,2.629,2.576c1.321,0,1.371.056,1.371,1.52c0,1.916.564,2.48,2.48,2.48c1.493,0,1.52.027,1.52,1.52c0,1.916.564,2.48,2.48,2.48c1.493,0,1.52.027,1.52,1.52c0,1.916.564,2.48,2.48,2.48c1.464,0,1.52.05,1.52,1.371c0,1.726.883,2.629,2.572,2.629c1.224,0,1.339.117,1.671,1.7.343,1.634.431,1.714,2.257,2.067c1.702.329,1.9.479,1.9,1.438c0,1.71,1.113,2.364,4.511,2.651l3.05.258.119,1.843.12,1.843l1.9.122c1.809.116,1.9.178,1.9,1.3c0,1.861,1.23,2.778,3.725,2.778c2.275,0,4.02,1.206,4.34,3c.115.645.508.824,2.036.922c1.694.109,1.919.236,2.121,1.2.499,2.384,1.194,2.743,5.478,2.831L102,378v1.371c0,2.188.768,2.629,4.576,2.629h3.319l.219,1.633c.292,2.176.236,2.147,4.303,2.306l3.551.139.329,1.659c.4,2.026.799,2.148,7.203,2.216L130,390v1.371c0,2.396.588,2.629,6.629,2.629h5.371v1.371c0,2.509.395,2.629,8.629,2.629h7.371v1v1h41.8h41.8v-1-1h7.4c8.254,0,9-.232,9-2.8v-1.2h5.52c6.164,0,6.48-.121,6.48-2.48v-1.52l4.3-.047c6.444-.071,6.938-.26,7.484-2.853.23-1.094.248-1.1,3.595-1.1c3.842,0,4.621-.436,4.621-2.589v-1.331l3.567-.14c4.084-.16,4.027-.13,4.319-2.307l.219-1.633l2.648-.04c4.031-.061,4.587-.311,5-2.258.346-1.634.384-1.665,2.2-1.782l1.847-.12.122-1.9.122-1.9h3.349c3.834,0,4.607-.438,4.607-2.607c0-1.326.033-1.351,1.9-1.471l1.9-.122.122-1.9.122-1.9l1.878-.019c2.477-.026,4.538-1.064,5.23-2.635.473-1.073.808-1.283,2.32-1.453c2.151-.242,2.143-.235,2.414-2.26.206-1.536.298-1.633,1.538-1.633c1.693,0,2.576-.901,2.576-2.629c0-1.321.056-1.371,1.52-1.371c1.916,0,2.48-.564,2.48-2.48c0-1.493.027-1.52,1.52-1.52c1.916,0,2.48-.564,2.48-2.48c0-1.493.027-1.52,1.52-1.52c1.916,0,2.48-.564,2.48-2.48c0-1.464.05-1.52,1.371-1.52c1.728,0,2.629-.883,2.629-2.577c0-1.233.107-1.338,1.612-1.579c1.705-.272,2.388-1.207,2.388-3.27c0-.751.212-.974.924-.974c2.003,0,3.044-1.997,3.066-5.878l.01-1.678l1.9-.122l1.9-.122.12-1.85c.119-1.833.134-1.852,1.733-2.066c2.088-.28,2.083-.273,2.274-3.267.172-2.711,1.253-4.358,3.073-4.682.645-.115.824-.508.922-2.036.109-1.694.236-1.919,1.2-2.121c2.384-.499,2.743-1.194,2.831-5.478L378,298h1.371c2.195,0,2.629-.763,2.629-4.629v-3.371h1.371c2.192,0,2.629-.765,2.629-4.605v-3.348l1.698-.336c2.07-.409,2.187-.783,2.255-7.211L390,270h1.371c2.396,0,2.629-.588,2.629-6.629v-5.371h1.371c2.509,0,2.629-.395,2.629-8.629v-7.371h1h1v-41.8-41.8h-.976-.976l-.124-7.768c-.138-8.617-.03-8.215-2.291-8.518L394,141.895v-5.468c0-6.107-.124-6.427-2.48-6.427h-1.52l-.047-4.5c-.068-6.428-.185-6.802-2.255-7.211L386,117.953v-3.348c0-3.84-.437-4.605-2.629-4.605h-1.371v-3.371c0-3.866-.434-4.629-2.629-4.629h-1.371l-.04-2.7c-.06-4.087-.307-4.639-2.258-5.053-1.634-.346-1.665-.384-1.782-2.2L373.8,90.2l-1.9-.122-1.9-.122v-3.349c0-3.834-.438-4.607-2.607-4.607-1.326,0-1.351-.033-1.471-1.9l-.122-1.9-1.9-.122-1.9-.122-.031-1.878c-.055-3.398-.785-5.027-2.435-5.437-1.338-.334-1.458-.488-1.642-2.12-.241-2.143-.234-2.136-2.259-2.407-1.574-.211-1.633-.272-1.633-1.687c0-1.863-.577-2.427-2.48-2.427-1.493,0-1.52-.027-1.52-1.52c0-1.916-.564-2.48-2.48-2.48-1.493,0-1.52-.027-1.52-1.52c0-1.916-.564-2.48-2.48-2.48-1.493,0-1.52-.027-1.52-1.52c0-1.916-.564-2.48-2.48-2.48-1.464,0-1.52-.05-1.52-1.371c0-1.728-.883-2.629-2.577-2.629-1.233,0-1.338-.107-1.579-1.612-.272-1.705-1.207-2.388-3.27-2.388-.804,0-.974-.199-.974-1.138c0-1.778-1.079-2.428-4.511-2.718l-3.05-.258-.119-1.843-.12-1.843-1.85-.12c-1.833-.119-1.852-.134-2.066-1.733-.276-2.052-.268-2.047-2.884-2.264-1.345-.111-2.2-.369-2.2-.663c0-.584-1.683-2.22-2.283-2.22-.237,0-.535-.27-.662-.6-.157-.411-.799-.6-2.035-.6-1.646,0-1.825-.097-2.036-1.1-.507-2.409-1.19-2.764-5.484-2.853L298,22v-1.371c0-2.195-.763-2.629-4.629-2.629L290,18v-1.371c0-2.187-.768-2.629-4.572-2.629h-3.314l-.357-1.682c-.445-2.1-.835-2.225-7.057-2.278L270,10v-1.371C270,6.233,269.412,6,263.371,6L258,6v-1.371C258,2.12,257.605,2,249.371,2L242,2v-1-1h-42-42v.976m50.855,40.792c.161.602.417,6.435.568,12.963.371,15.962,2.357,14.229-17.023,14.854-8.862.285-12.802.564-14.4,1.019-5.668,1.614-18.482,2.514-37.48,2.635-9.161.059-9.519-.246-9.848-8.375-.17-4.2-.319-5.064-.996-5.8-1.618-1.755-3.327-11.956-2.457-14.664c1.364-4.249,1.852-4.681,4.483-3.974.934.251,1.788.582,1.898.735.11.152.771.676,1.469,1.164c1.266.883,2.531,4.581,2.531,7.398c0,.53.628,1.755,1.396,2.721s1.5,2.386,1.626,3.156c.396,2.425,1.153,4.847,1.642,5.253.513.426,5.816.592,6.448.201.586-.362,31.06-1.45,40.675-1.452c6.858-.002,8.717-.124,10.2-.673c2.251-.833,2.214-.803,1.71-1.419-1.604-1.958-2.43-15.752-1.028-17.156c2.278-2.28,7.843-1.364,8.586,1.414M187.737,91.244c1.22.556,1.734,1.606,2.036,4.156.13,1.1.579,3.17.997,4.6c4.053,13.865,2.071,17.125-10.49,17.254-2.904.03-7.44.165-10.08.3l-4.8.246.142,2.156c.123,1.876.335,2.342,1.636,3.6c1.222,1.181,1.588,1.917,2.013,4.044.403,2.014.818,2.899,1.843,3.925c1.261,1.262,2.566,4.51,2.566,6.386c0,.433.6,1.305,1.333,1.938c1.069.922,1.504,1.787,2.191,4.351.585,2.179,1.164,3.455,1.816,4c1.246,1.041,1.634,1.88,2.245,4.854.393,1.908.807,2.74,1.861,3.734.745.703,1.461,1.758,1.59,2.345.621,2.829,1.42,5.267,1.727,5.267.742,0,1.251-2.178.841-3.597-1.394-4.825-.261-16.688,1.829-19.139.687-.805,1.619-2.307,2.073-3.337.57-1.293,1.338-2.197,2.479-2.917.909-.574,1.766-1.338,1.904-1.697.365-.952,1.622-2.113,2.287-2.113.317,0,.675-.159.795-.354.121-.194,1.071-.481,2.113-.638c1.169-.175,2.098-.576,2.429-1.048c2.045-2.92,13.944-3.276,16.72-.5.757.756,1.937,1.46,2.663,1.588c4.184.736,11.104,7.551,11.104,10.935c0,.376.548,1.173,1.217,1.769c2.99,2.665,3.289,15.492.442,19.034-.672.836-1.641,2.563-2.153,3.837-.677,1.684-1.263,2.486-2.143,2.936-.686.35-1.475,1.231-1.818,2.03-.453,1.058-.997,1.546-2.175,1.953-.863.299-2.116,1.174-2.783,1.945-2.319,2.682-14.373,3.452-23.308,1.489-.507-.111-1.29-.826-1.74-1.589s-1.079-1.387-1.398-1.387c-1.148,0-2.934-1.234-3.175-2.193-.135-.538-.569-1.081-.965-1.207-1.313-.416-2.696-2.183-2.949-3.767-.214-1.335-.369-1.527-1.085-1.34-2.803.733,1.763,11.232,4.915,11.301.155.003.738.462,1.296,1.02.938.939,1.421,1.043,6.518,1.404c8.135.576,9.175.831,10.704,2.621.677.792,1.294.97,4,1.157c7.916.545,11.798,1.459,13.524,3.185.38.38,1.703.689,3.541.827c7.288.547,11.134,1.471,12.93,3.105c1.454,1.323,3.547.788,3.832-.979.271-1.683,1.13-3.118,2.967-4.954.814-.814,1.383-1.86,1.545-2.835.166-1.009.718-1.993,1.591-2.836.734-.709,1.565-2.059,1.845-3c.891-2.994,1.199-3.531,2.422-4.228.659-.374,1.205-.951,1.214-1.281.055-2.117,2.512-6.8,3.568-6.8.162,0,.512-.765.778-1.7c1.409-4.947,3.527-6.3,9.862-6.3c5.977,0,6.983.452,8.745,3.928.577,1.14,1.186,2.072,1.352,2.072.548,0,1.647,2.574,1.706,4c.101,2.392.015,2.649-1.366,4.114-1.032,1.094-1.41,1.913-1.623,3.525-.341,2.569-.749,3.41-2.421,4.989-.967.914-1.373,1.72-1.588,3.152-.432,2.88-1.532,5.02-2.581,5.02-.543,0-1.243,1.33-1.243,2.36c0,2.189-1.518,5.227-2.866,5.737-.431.163-.828,1.075-1.121,2.578-.565,2.887-1.109,4.047-2.501,5.325-.746.685-1.266,1.766-1.649,3.429-.681,2.961-1.202,3.982-2.447,4.797-.526.345-1.149,1.18-1.385,1.857-.777,2.229-4.431,5.157-4.431,3.55c0-.748-3.55-1.592-8.6-2.045-6.346-.569-7.739-.899-9.236-2.186-2.409-2.071-2.564-1.074-2.564,16.472v14.817l1.055,1.054c.58.58,1.179,1.055,1.332,1.055s.51.434.794.965c.348.65,1.111,1.114,2.338,1.423c1.163.293,2.359.994,3.305,1.936.86.856,2.385,1.788,3.63,2.218c2.214.765,3.946,2.031,3.946,2.885c0,.557.889.973,2.081.973c1.064,0,4.229,2.009,4.525,2.872.127.37.807.797,1.512.949c2.194.473,4.171,1.684,4.429,2.711.188.749.591,1.02,1.806,1.214c2.194.351,4.6,1.728,5.408,3.095.376.638,1.026,1.159,1.443,1.159.913,0,2.794.798,3.525,1.495.29.278.683.505.873.505.189,0,.446.315.57.7.139.429,1.146.986,2.6,1.439c2.439.758,3.628,1.657,3.628,2.741c0,.408.526.702,1.547.865c2.336.374,4.888,1.87,5.363,3.145.151.405,1.042.888,2.156,1.168c1.236.312,2.395.979,3.317,1.91.888.897,2.295,1.724,3.767,2.214c1.763.587,2.562,1.11,3.2,2.095.597.922,1.267,1.392,2.25,1.576c1.445.271,4.53,2.154,5.085,3.104.173.296,1.047.909,1.942,1.362c2.059,1.041,2.291,1.358,3.135,4.281.381,1.32,1.04,3.092,1.465,3.938c1.028,2.044.974,3.208-.227,4.976-.55.809-1,1.955-1,2.546c0,2.933-3.807,6.74-6.74,6.74-.591,0-1.737.45-2.546,1-1.848,1.256-2.873,1.256-5.346.002-1.082-.549-2.238-1-2.568-1.002-1.637-.009-4.579-1.479-5.199-2.598-.406-.733-1.098-1.275-1.827-1.431-2.126-.455-4.089-1.483-5.187-2.715-.594-.667-1.873-1.483-2.84-1.812-1.858-.633-2.631-1.219-3.042-2.306-.138-.365-.841-.792-1.562-.951-2.547-.559-4.691-1.727-5.287-2.879-.452-.874-1.067-1.262-2.637-1.665-1.311-.336-2.583-1.031-3.534-1.932-.817-.774-2.459-1.781-3.65-2.239-1.453-.559-2.373-1.204-2.8-1.963-.349-.622-1.085-1.236-1.635-1.363-1.954-.452-4.457-1.855-5.269-2.954-.53-.716-1.485-1.291-2.677-1.61-1.02-.273-2.484-1.076-3.254-1.785-1.532-1.409-3.348-2.39-5.162-2.789-.812-.178-1.37-.677-1.823-1.632-.4-.845-.941-1.376-1.401-1.376-1.305,0-4.173-1.481-5.346-2.761-.696-.76-1.929-1.468-3.2-1.839-1.534-.448-2.242-.91-2.741-1.788-.405-.711-1.123-1.278-1.8-1.422-.62-.131-1.44-.407-1.822-.614s-.953-.376-1.268-.376c-.316,0-1.191-.72-1.944-1.6s-1.596-1.6-1.873-1.6-1.4-.45-2.495-1-2.39-1-2.878-1-1.1-.213-1.36-.473c-.861-.861-.965-.078-1.702,12.811-.732,12.818-.995,14.717-2.492,18.062-.689,1.538-.913,3.663-1.542,14.616-.755,13.137-.717,12.886-2.857,18.784-.389,1.074-.74,5.02-1.065,12-.52,11.151-.753,12.568-2.26,13.753-.535.421-1.085,1.327-1.222,2.014-.354,1.77-3.766,5.088-5.871,5.71-4.432,1.31-12.855.256-13.359-1.672-.116-.443-.363-.805-.55-.805-1.029,0-3.081-2.499-3.329-4.055-.147-.915-.731-2.216-1.3-2.891-1.337-1.59-1.215-5.779.227-7.805.813-1.142.905-1.921,1.246-10.541.555-14.018,1.213-19.114,2.825-21.854.66-1.123.824-2.319.987-7.2.534-16.015,1.668-24.344,3.497-25.69c1.361-1.002.949-28.982-.45-30.514-1.738-1.904-2.525-5.039-3.064-12.21-.166-2.202-.415-3.127-.971-3.61-1.52-1.318-2.494-5.3-3.057-12.499-.161-2.06-.422-3.139-.791-3.281-1.474-.565-2.639-5.052-3.215-12.377-.172-2.191-.419-3.193-.826-3.349-1.337-.513-2.694-4.876-3.129-10.065-.172-2.051-.397-2.685-1.164-3.289-1.175-.924-2.102-2.827-2.673-5.487-.288-1.345-.876-2.497-1.744-3.417-1.209-1.283-2.636-4.953-2.636-6.783c0-.366-.435-.95-.968-1.299-1.248-.818-2.519-3.541-2.864-6.137-.149-1.126-.419-2.047-.599-2.047-1.316,0-2.889-2.991-3.377-6.42-.19-1.334-.49-1.92-1.125-2.2-1.103-.483-2.322-2.968-2.73-5.564-.247-1.563-.6-2.247-1.574-3.044-1.281-1.047-2.342-3.371-2.362-5.172-.021-1.793-.46-2.728-1.391-2.962-1.012-.254-2.371-3.219-2.767-6.035-.123-.878-.418-1.661-.655-1.74-1.396-.466-2.686-2.817-3.371-6.145-.315-1.529-2.074-1.913-8.781-1.916l-5.563-.002-1.703-1.855c-2.831-3.083-3.73-7.48-3.889-19.012l-.081-5.868l1.2-1.035c2.608-2.249,4.915-.636,5.963,4.17.12.55.747,1.559,1.394,2.242.97,1.025,1.303,1.932,1.912,5.198.735,3.944.742,3.959,2.334,4.826c2.481,1.351,6.699,1.306,7.33-.079c1.37-3.006,14.885-3.934,18.378-1.262.512.392,20.878.018,21.289-.391.11-.109.256-3.501.324-7.536.153-8.988,1.125-10.725,5.013-8.954M141.097,144.6c.255.88.549,2.95.654,4.6.104,1.65.561,4.17,1.014,5.6c2.744,8.652.858,10.392-11.765,10.858-5.138.19-8.859.522-10.4.93-9.041,2.392-37.8,3.478-37.8,1.427c0-.194-.421-.862-.935-1.484-2.667-3.227-4.388-20.16-2.279-22.424c2.127-2.283,6.014-.617,6.014,2.577c0,.418.625,1.442,1.389,2.276.826.902,1.487,2.109,1.631,2.978.132.804.459,2.632.726,4.062l.484,2.6l15.985.124c8.792.069,18.91.005,22.485-.142l6.5-.267v-6.784c0-7.236.097-7.686,2.108-9.811l1.211-1.281l1.257,1.281c.691.704,1.465,2,1.721,2.88"
       fill="#277aad"
       fill-rule="evenodd"
       id="path41283"
       style="fill:#34bbdc;fill-opacity:1" />
    <path
       d="M203.669,39.219c-3.961.414-4.297.94-4.151,6.493.124,4.693,1.063,10.925,1.779,11.798.504.616.541.586-1.71,1.419-1.483.549-3.342.671-10.2.673-9.615.002-40.089,1.09-40.675,1.452-.632.391-5.935.225-6.448-.201-.489-.406-1.246-2.828-1.642-5.253-.126-.77-.858-2.19-1.626-3.156s-1.396-2.191-1.396-2.721c0-2.817-1.265-6.515-2.531-7.398-.698-.488-1.359-1.012-1.469-1.164-.11-.153-.964-.484-1.898-.735-2.631-.707-3.119-.275-4.483,3.974-.87,2.708.839,12.909,2.457,14.664.677.736.826,1.6.996,5.8.329,8.129.687,8.434,9.848,8.375c18.998-.121,31.812-1.021,37.48-2.635c1.598-.455,5.538-.734,14.4-1.019c19.38-.625,17.394,1.108,17.023-14.854-.363-15.633-.521-16.059-5.754-15.512m4.268,7.394c.257,2.633.498,7.991.535,11.907l.069,7.121-1.059,1.059c-1.21,1.21-1.983,1.283-22.482,2.112-10.497.424-13.285.632-20.8,1.552-13.03,1.594-25.695,2.333-28.494,1.661-2.795-.67-3.128-1.198-3.681-5.825-.774-6.483-1.699-12.37-2.011-12.8-1.37-1.889-1.814-8.211-.692-9.863l.721-1.062l1.879.668c3.155,1.123,4.068,2.46,4.635,6.787.158,1.213,1.045,3.727,2.058,5.838.979,2.04,1.893,4.272,2.031,4.961.497,2.484,1.661,2.541,32.754,1.607c26.521-.796,28.601-1.017,29.332-3.114.419-1.2-.066-7.392-.738-9.435-.219-.667-.542-2.696-.717-4.509-.38-3.931-.103-4.361,2.926-4.552c2.926-.185,3.18.217,3.734,5.887M183.879,91.83c-1.022,1.022-1.031,1.092-1.155,8.368-.068,4.035-.214,7.427-.324,7.536-.411.409-20.777.783-21.289.391-3.493-2.672-17.008-1.744-18.378,1.262-.631,1.385-4.849,1.43-7.33.079-1.592-.867-1.599-.882-2.334-4.826-.609-3.266-.942-4.173-1.912-5.198-.647-.683-1.274-1.692-1.394-2.242-1.048-4.806-3.355-6.419-5.963-4.17l-1.2,1.035.081,5.868c.159,11.532,1.058,15.929,3.889,19.012l1.703,1.855l5.563.002c6.707.003,8.466.387,8.781,1.916.685,3.328,1.975,5.679,3.371,6.145.237.079.532.862.655,1.74.396,2.816,1.755,5.781,2.767,6.035.931.234,1.37,1.169,1.391,2.962.02,1.801,1.081,4.125,2.362,5.172.974.797,1.327,1.481,1.574,3.044.408,2.596,1.627,5.081,2.73,5.564.635.28.935.866,1.125,2.2.488,3.429,2.061,6.42,3.377,6.42.18,0,.45.921.599,2.047.345,2.596,1.616,5.319,2.864,6.137.533.349.968.933.968,1.299c0,1.83,1.427,5.5,2.636,6.783.868.92,1.456,2.072,1.744,3.417.571,2.66,1.498,4.563,2.673,5.487.767.604.992,1.238,1.164,3.289.435,5.189,1.792,9.552,3.129,10.065.407.156.654,1.158.826,3.349.576,7.325,1.741,11.812,3.215,12.377.369.142.63,1.221.791,3.281.563,7.199,1.537,11.181,3.057,12.499.556.483.805,1.408.971,3.61.539,7.171,1.326,10.306,3.064,12.21c1.399,1.532,1.811,29.512.45,30.514-1.829,1.346-2.963,9.675-3.497,25.69-.163,4.881-.327,6.077-.987,7.2-1.612,2.74-2.27,7.836-2.825,21.854-.341,8.62-.433,9.399-1.246,10.541-1.442,2.026-1.564,6.215-.227,7.805.569.675,1.153,1.976,1.3,2.891.248,1.556,2.3,4.055,3.329,4.055.187,0,.434.362.55.805.504,1.928,8.927,2.982,13.359,1.672c2.105-.622,5.517-3.94,5.871-5.71.137-.687.687-1.593,1.222-2.014c1.507-1.185,1.74-2.602,2.26-13.753.325-6.98.676-10.926,1.065-12c2.14-5.898,2.102-5.647,2.857-18.784.629-10.953.853-13.078,1.542-14.616c1.497-3.345,1.76-5.244,2.492-18.062.737-12.889.841-13.672,1.702-12.811.26.26.872.473,1.36.473s1.783.45,2.878,1s2.218,1,2.495,1s1.12.72,1.873,1.6s1.628,1.6,1.944,1.6c.315,0,.886.169,1.268.376s1.202.483,1.822.614c.677.144,1.395.711,1.8,1.422.499.878,1.207,1.34,2.741,1.788c1.271.371,2.504,1.079,3.2,1.839c1.173,1.28,4.041,2.761,5.346,2.761.46,0,1.001.531,1.401,1.376.453.955,1.011,1.454,1.823,1.632c1.814.399,3.63,1.38,5.162,2.789.77.709,2.234,1.512,3.254,1.785c1.192.319,2.147.894,2.677,1.61.812,1.099,3.315,2.502,5.269,2.954.55.127,1.286.741,1.635,1.363.427.759,1.347,1.404,2.8,1.963c1.191.458,2.833,1.465,3.65,2.239.951.901,2.223,1.596,3.534,1.932c1.57.403,2.185.791,2.637,1.665.596,1.152,2.74,2.32,5.287,2.879.721.159,1.424.586,1.562.951.411,1.087,1.184,1.673,3.042,2.306.967.329,2.246,1.145,2.84,1.812c1.098,1.232,3.061,2.26,5.187,2.715.729.156,1.421.698,1.827,1.431.62,1.119,3.562,2.589,5.199,2.598.33.002,1.486.453,2.568,1.002c2.473,1.254,3.498,1.254,5.346-.002.809-.55,1.955-1,2.546-1c2.933,0,6.74-3.807,6.74-6.74c0-.591.45-1.737,1-2.546c1.201-1.768,1.255-2.932.227-4.976-.425-.846-1.084-2.618-1.465-3.938-.844-2.923-1.076-3.24-3.135-4.281-.895-.453-1.769-1.066-1.942-1.362-.555-.95-3.64-2.833-5.085-3.104-.983-.184-1.653-.654-2.25-1.576-.638-.985-1.437-1.508-3.2-2.095-1.472-.49-2.879-1.317-3.767-2.214-.922-.931-2.081-1.598-3.317-1.91-1.114-.28-2.005-.763-2.156-1.168-.475-1.275-3.027-2.771-5.363-3.145-1.021-.163-1.547-.457-1.547-.865c0-1.084-1.189-1.983-3.628-2.741-1.454-.453-2.461-1.01-2.6-1.439-.124-.385-.381-.7-.57-.7-.19,0-.583-.227-.873-.505-.731-.697-2.612-1.495-3.525-1.495-.417,0-1.067-.521-1.443-1.159-.808-1.367-3.214-2.744-5.408-3.095-1.215-.194-1.618-.465-1.806-1.214-.258-1.027-2.235-2.238-4.429-2.711-.705-.152-1.385-.579-1.512-.949-.296-.863-3.461-2.872-4.525-2.872-1.192,0-2.081-.416-2.081-.973c0-.854-1.732-2.12-3.946-2.885-1.245-.43-2.77-1.362-3.63-2.218-.946-.942-2.142-1.643-3.305-1.936-1.227-.309-1.99-.773-2.338-1.423-.284-.531-.641-.965-.794-.965s-.752-.475-1.332-1.055l-1.055-1.054v-14.817c0-17.546.155-18.543,2.564-16.472c1.497,1.287,2.89,1.617,9.236,2.186c5.05.453,8.6,1.297,8.6,2.045c0,1.607,3.654-1.321,4.431-3.55.236-.677.859-1.512,1.385-1.857c1.245-.815,1.766-1.836,2.447-4.797.383-1.663.903-2.744,1.649-3.429c1.392-1.278,1.936-2.438,2.501-5.325.293-1.503.69-2.415,1.121-2.578c1.348-.51,2.866-3.548,2.866-5.737c0-1.03.7-2.36,1.243-2.36c1.049,0,2.149-2.14,2.581-5.02.215-1.432.621-2.238,1.588-3.152c1.672-1.579,2.08-2.42,2.421-4.989.213-1.612.591-2.431,1.623-3.525c1.381-1.465,1.467-1.722,1.366-4.114-.059-1.426-1.158-4-1.706-4-.166,0-.775-.932-1.352-2.072-1.762-3.476-2.768-3.928-8.745-3.928-6.335,0-8.453,1.353-9.862,6.3-.266.935-.616,1.7-.778,1.7-1.056,0-3.513,4.683-3.568,6.8-.009.33-.555.907-1.214,1.281-1.223.697-1.531,1.234-2.422,4.228-.28.941-1.111,2.291-1.845,3-.873.843-1.425,1.827-1.591,2.836-.162.975-.731,2.021-1.545,2.835-1.837,1.836-2.696,3.271-2.967,4.954-.285,1.767-2.378,2.302-3.832.979-1.796-1.634-5.642-2.558-12.93-3.105-1.838-.138-3.161-.447-3.541-.827-1.726-1.726-5.608-2.64-13.524-3.185-2.706-.187-3.323-.365-4-1.157-1.529-1.79-2.569-2.045-10.704-2.621-5.097-.361-5.58-.465-6.518-1.404-.558-.558-1.141-1.017-1.296-1.02-3.152-.069-7.718-10.568-4.915-11.301.716-.187.871.005,1.085,1.34.253,1.584,1.636,3.351,2.949,3.767.396.126.83.669.965,1.207.241.959,2.027,2.193,3.175,2.193.319,0,.948.624,1.398,1.387s1.233,1.478,1.74,1.589c8.935,1.963,20.989,1.193,23.308-1.489.667-.771,1.92-1.646,2.783-1.945c1.178-.407,1.722-.895,2.175-1.953.343-.799,1.132-1.68,1.818-2.03.88-.45,1.466-1.252,2.143-2.936.512-1.274,1.481-3.001,2.153-3.837c2.847-3.542,2.548-16.369-.442-19.034-.669-.596-1.217-1.393-1.217-1.769c0-3.384-6.92-10.199-11.104-10.935-.726-.128-1.906-.832-2.663-1.588-2.776-2.776-14.675-2.42-16.72.5-.331.472-1.26.873-2.429,1.048-1.042.157-1.992.444-2.113.638-.12.195-.478.354-.795.354-.665,0-1.922,1.161-2.287,2.113-.138.359-.995,1.123-1.904,1.697-1.141.72-1.909,1.624-2.479,2.917-.454,1.03-1.386,2.532-2.073,3.337-2.09,2.451-3.223,14.314-1.829,19.139.41,1.419-.099,3.597-.841,3.597-.307,0-1.106-2.438-1.727-5.267-.129-.587-.845-1.642-1.59-2.345-1.054-.994-1.468-1.826-1.861-3.734-.611-2.974-.999-3.813-2.245-4.854-.652-.545-1.231-1.821-1.816-4-.687-2.564-1.122-3.429-2.191-4.351-.733-.633-1.333-1.505-1.333-1.938c0-1.876-1.305-5.124-2.566-6.386-1.025-1.026-1.44-1.911-1.843-3.925-.425-2.127-.791-2.863-2.013-4.044-1.301-1.258-1.513-1.724-1.636-3.6L165.4,117.8l4.8-.246c2.64-.135,7.176-.27,10.08-.3c12.561-.129,14.543-3.389,10.49-17.254-.418-1.43-.867-3.5-.997-4.6-.509-4.306-3.405-6.059-5.894-3.57m3.536,1.082c1.03.885,1.069,1.085,1.386,7.1.181,3.423.595,7.04.926,8.095.553,1.761.54,2.067-.164,3.994-.42,1.148-.763,2.131-.763,2.183c0,1.052-8.775,2.116-17.447,2.116-5.804,0-8.025.635-7.557,2.16.142.462.429,1.56.638,2.44.377,1.586,1.147,3.415,1.6,3.8.6.51,2.366,3.95,2.366,4.609c0,.967,1.387,3.812,2.377,4.875.43.46,1.077,1.8,1.438,2.977.789,2.57,1.409,3.953,2.098,4.681.773.815,1.953,3.292,2.271,4.762.359,1.662,1.163,3.273,2.177,4.362.438.471,1.096,1.818,1.46,2.995.813,2.622,1.527,4.125,2.803,5.899.538.749,1.165,2.099,1.394,3c.517,2.039,1.167,3.404,2.113,4.44.909.994,1.751,2.955,2.11,4.91.202,1.104.906,2.116,2.716,3.905c2.716,2.684,2.919,2.756,11.187,3.974c2.39.352,5,.974,5.8,1.382c1.819.928,5.334,1.752,11.236,2.636c2.519.378,4.859.817,5.2.977s.998.484,1.461.72c1.133.578,5.072,1.478,10.149,2.317c2.304.382,4.762,1.015,5.462,1.408s2.817,1.022,4.705,1.397c3.98.79,4.149.722,5.67-2.278.53-1.047,1.216-2.048,1.524-2.226.541-.311,2.649-4.308,2.649-5.024c0-.193.628-1.014,1.397-1.825.768-.81,1.398-1.708,1.4-1.995.006-.978,1.595-4.02,2.774-5.311.647-.708,1.476-2.206,1.843-3.327.366-1.122.79-2.13.941-2.24.565-.411,2.845-4.158,2.845-4.674c0-4.242,7.16-7.589,12.525-5.855c2.774.897,5.475,4.301,5.475,6.899c0,.485.198,1.253.441,1.706.302.565.314,1.091.04,1.674-.221.468-.882,2.38-1.469,4.25s-1.567,4.03-2.178,4.8-1.346,2.12-1.634,3c-.88,2.691-1.664,4.361-2.456,5.233-.417.458-1.131,1.896-1.588,3.196-1.005,2.859-1.436,3.726-2.374,4.771-.395.44-1.018,1.61-1.385,2.6-1.375,3.712-1.993,5.018-2.663,5.628-.379.345-1.225,2.093-1.878,3.884-.654,1.792-1.654,3.722-2.222,4.291-.569.568-1.034,1.263-1.034,1.543c0,1.203-2.8,3.834-3.717,3.493-.486-.181-2.233-.45-3.883-.597-4.88-.438-9.818-1.585-11.4-2.649-1.863-1.253-5.917-1.249-7.5.008-.165.131-.103,7.25.136,15.819.538,19.251.509,19.149,6.431,21.969c1.687.804,3.167,1.724,3.291,2.045.123.321,1.443,1.145,2.933,1.831s3.295,1.757,4.011,2.381c.717.624,2.209,1.524,3.316,2c1.108.476,2.171,1.156,2.364,1.51.341.629,1.4,1.241,4.588,2.653.864.382,2.015,1.139,2.557,1.682.543.542,1.816,1.342,2.83,1.776c1.014.435,2.743,1.465,3.843,2.289s2.731,1.814,3.625,2.199c.894.384,1.955,1.137,2.356,1.672.402.535.944.973,1.204.973.936,0,5.242,2.368,6.493,3.571.703.676,1.441,1.229,1.639,1.229.63,0,2.661,1.134,3.602,2.011.5.465,2.129,1.449,3.62,2.186s2.968,1.65,3.283,2.029c.314.379,1.727,1.224,3.139,1.878c1.412.653,3.008,1.629,3.547,2.167.538.539,1.904,1.403,3.036,1.921c1.131.518,2.46,1.406,2.953,1.975.494.568,1.169,1.033,1.5,1.033.332,0,.603.18.603.4s.27.4.6.4.601.135.603.3c.001.165.528.599,1.171.965c2.072,1.179,4.091,7.884,3.202,10.631-.196.607-.461,1.789-.589,2.626-.329,2.16-4.298,6.133-6.465,6.47-.837.131-2.071.383-2.743.561-2.696.714-8.381-.859-10.779-2.984-.66-.585-2.01-1.414-3-1.842s-2.25-1.207-2.8-1.731-2.03-1.408-3.288-1.964c-1.259-.556-2.96-1.645-3.78-2.419-.821-.774-2.061-1.514-2.756-1.644-.696-.13-2.226-1.025-3.4-1.989-1.175-.963-2.604-1.854-3.176-1.98s-2.02-1.032-3.217-2.014c-1.198-.982-2.331-1.786-2.52-1.786-.807,0-3.37-1.467-4.651-2.662-.764-.713-1.844-1.409-2.4-1.548-.968-.241-2.936-1.561-4.582-3.073-.424-.389-1.379-.821-2.123-.961-.745-.14-2.018-.886-2.83-1.659-.813-.773-2.107-1.659-2.877-1.969-2.538-1.022-3.389-1.506-4.303-2.446-.497-.511-1.691-1.278-2.655-1.705-.964-.426-2.594-1.47-3.622-2.32-1.029-.85-2.597-1.763-3.484-2.029-.888-.266-2.362-1.165-3.275-1.997-.914-.833-2.184-1.641-2.822-1.796-1.139-.276-4.012-2.065-5.161-3.214-.32-.32-1.04-.696-1.599-.837-.56-.141-1.735-.869-2.61-1.618-.981-.839-2.376-1.543-3.635-1.834-2.865-.661-3.101-.24-3.407,6.065-.368,7.58-1.139,14.081-2.271,19.147-.954,4.269-1.528,8.622-1.749,13.256-.32,6.72-.93,12.18-1.899,17-1.288,6.404-1.468,7.688-1.906,13.6-1.003,13.545-1.769,18.755-3.187,21.681-.448.924-.815,1.986-.815,2.36c0,.779-3.087,3.822-5.292,5.216-3.083,1.949-9.664,1.186-12.02-1.393-.612-.67-1.425-1.317-1.808-1.439-1.76-.558-3.062-5.354-2.746-10.116.837-12.625,1.852-22.831,2.534-25.49.869-3.386,1.639-8.756,2.095-14.619.877-11.276,1.334-15.52,1.914-17.8.862-3.382,1.631-8.764,2.087-14.6.215-2.75.592-7.34.838-10.2s.342-6.01.214-7c-.796-6.154-2.014-11.613-2.977-13.338-.387-.694-1.013-3.062-1.392-5.262-.979-5.693-1.955-9.8-2.327-9.8-.176,0-.32-.324-.32-.72s-.17-.891-.378-1.1-.676-2.27-1.041-4.58c-.776-4.915-1.553-7.976-2.589-10.2-.637-1.367-1.381-4.704-2.141-9.6-.395-2.552-1.112-4.751-1.855-5.696-.426-.542-.881-1.642-1.01-2.445-.837-5.207-1.667-7.936-2.818-9.259-.478-.55-1.263-2.157-1.743-3.572-1.032-3.039-1.477-3.953-2.447-5.028-.397-.44-1.203-2.238-1.791-3.995-.589-1.757-1.592-3.788-2.229-4.514-.637-.725-1.158-1.662-1.158-2.081c0-.42-.18-.874-.4-1.01s-.4-.606-.4-1.043c0-.939-1.002-3.026-1.997-4.157-.386-.44-1.096-1.957-1.577-3.372-1.022-3.005-1.461-3.884-2.491-4.99-.416-.447-1.107-1.945-1.534-3.33-.885-2.865-1.403-3.968-2.401-5.108-.385-.44-1.093-1.957-1.574-3.372-1.034-3.042-1.479-3.955-2.449-5.028-.397-.44-1.017-1.7-1.377-2.8-.877-2.68-1.799-4.656-2.501-5.358-.318-.318-1.186-1.86-1.93-3.426l-1.351-2.847-2.269-.476c-1.746-.366-3.126-.368-5.989-.006-6.973.881-8.951-2.715-10.429-18.965-.573-6.303,3.175-8.302,4.869-2.597.322,1.084,1.061,2.805,1.641,3.823.581,1.019,1.481,3.37,2.001,5.225c1.186,4.236.988,4.073,5.555,4.568c4.073.441,4.991.21,7.158-1.802c2.671-2.48,8.88-2.634,13.645-.339l3.321,1.6l8.74-.004c11.097-.006,11.408-.057,12.756-2.093l1.058-1.599-.287-6.703c-.277-6.493-.259-6.73.563-7.552c1.069-1.069,1.357-1.062,2.664.063m28.652,36.622c.953.404,3.173,1.232,4.933,1.841c1.992.688,3.623,1.544,4.32,2.266.616.637,1.286,1.159,1.488,1.159.638,0,5.5,5.978,5.785,7.113.149.596.892,2.375,1.651,3.952c2.004,4.167,2.091,10.356.195,13.998-.677,1.302-1.501,3.274-1.83,4.382-.409,1.379-1.137,2.535-2.304,3.661-.938.906-2.009,2.082-2.381,2.613-.371.532-1.361,1.287-2.2,1.678-.838.391-2.334,1.279-3.324,1.973-4.989,3.498-16.786,3.359-21.965-.258-1.191-.832-2.397-1.512-2.68-1.512s-1.192-.81-2.02-1.8c-.827-.99-1.785-1.889-2.127-1.998-.343-.108-.935-.828-1.316-1.6-.381-.771-1.003-2.032-1.383-2.802s-.809-1.4-.954-1.4c-1.337,0-2.484-7.63-1.925-12.8.475-4.389.594-4.859,1.469-5.808.402-.436,1.334-2.052,2.071-3.592s1.895-3.25,2.575-3.8c.679-.55,2.068-1.765,3.086-2.7c1.019-.935,2.112-1.7,2.43-1.7.319,0,.75-.149.959-.33.209-.182,1.19-.574,2.18-.87.99-.297,2.25-.756,2.8-1.021c3.225-1.552,7.677-1.827,10.467-.645M136.908,141.72c-2.011,2.125-2.108,2.575-2.108,9.811v6.784l-6.5.267c-3.575.147-13.693.211-22.485.142L89.83,158.6l-.484-2.6c-.267-1.43-.594-3.258-.726-4.062-.144-.869-.805-2.076-1.631-2.978-.764-.834-1.389-1.858-1.389-2.276c0-3.194-3.887-4.86-6.014-2.577-2.109,2.264-.388,19.197,2.279,22.424.514.622.935,1.29.935,1.484c0,2.051,28.759.965,37.8-1.427c1.541-.408,5.262-.74,10.4-.93c12.623-.466,14.509-2.206,11.765-10.858-.453-1.43-.91-3.95-1.014-5.6-.254-4.012-.867-5.944-2.375-7.48l-1.257-1.281-1.211,1.281m2.421,2.38c.911,1.222.986,1.731,1.251,8.5.155,3.96.313,7.808.351,8.55.141,2.754-.696,2.983-12.86,3.528-10.917.489-13.244.68-25.071,2.054-3.74.434-9.183.914-12.095,1.065l-5.295.275-1.172-1.173c-.645-.645-1.38-1.966-1.632-2.936s-.795-2.753-1.205-3.963c-.836-2.46-1.598-8.12-1.6-11.871-.002-4.906,3.783-5.223,4.617-.387.147.849.859,2.559,1.584,3.8.724,1.242,1.548,3.248,1.831,4.458.282,1.21.874,2.607,1.315,3.105l.801.905l22.226-.267c18.473-.222,22.377-.366,23.125-.851c1.009-.655,1.148-3.121.535-9.492-.309-3.208-.023-4.527,1.308-6.047.677-.774.92-.682,1.986.747"
       fill="#806067"
       fill-rule="evenodd"
       id="path41285"
       style="fill:#fffeff;fill-opacity:1" />
    <path
       d="M203.6,41.493c-2.239.263-2.209-.17-.628,9.107c2.002,11.739,2.294,11.575-21.772,12.205-43.716,1.145-39.985,1.345-41.151-2.205-.289-.88-1.119-2.791-1.844-4.246s-1.434-3.255-1.577-4c-1.055-5.515-1.895-7.469-3.345-7.778-.596-.127-1.501-.401-2.013-.609-1.995-.809-2.827,1.382-1.867,4.914c1.695,6.235,2.06,8.266,3.003,16.719.209,1.87.383,3.694.387,4.054.025,2.332,13.653,2.515,28.607.384c6.072-.866,11.236-1.267,21.4-1.665c19.009-.743,22.957-1,23.829-1.552c1.174-.743,1.925-4.446,1.602-7.892-.141-1.501-.423-5.622-.626-9.157-.399-6.941-.771-8.609-1.895-8.508-.391.035-1.34.138-2.11.229m3.183,12.244c.56,9.279.283,11.51-1.514,12.205-1.139.441-12.242,1.059-29.869,1.663-13.499.462-21.194,1.036-24.8,1.849-3.5.79-11.443,1.448-13.689,1.136-2.977-.415-3.721-2.77-4.347-13.761-.144-2.515-.408-5.085-.588-5.712-.408-1.425.236-3.388,1.3-3.958c1.035-.553.959-.701,1.755,3.445.819,4.269,1.61,6.67,2.525,7.667.368.401.895,1.491,1.171,2.423s.93,2.192,1.453,2.8l.952,1.106l29.934.018c16.464.01,30.282.1,30.707.2c1.464.345,3.027-4.503,3.027-9.39c0-3.488.948-10.245,1.372-9.775.073.081.348,3.719.611,8.084M185.062,93.131c-.737.815-.84,4.167-.304,9.869.339,3.617-.006,5.43-1.384,7.257l-.948,1.256-10.313-.099c-9.691-.094-12.461-.381-13.313-1.38-2.184-2.56-9.337-2.632-13.29-.134l-2.69,1.7-4.31-.013c-5.092-.015-5.339-.148-6.26-3.387-.376-1.32-1.283-3.57-2.016-5s-1.463-3.23-1.622-4c-.16-.77-.737-2.176-1.282-3.124-2.788-4.847-4.176,4.672-1.895,13.005.349,1.275.809,3.039,1.023,3.919.317,1.311,1.91,4.574,2.635,5.4.096.11,3.07.2,6.607.2c4.839,0,6.475.126,6.602.507.093.279.385.729.649,1c.477.49,1.849,3.199,1.849,3.65c0,.13.595,1.016,1.323,1.97.728.953,1.652,2.8,2.053,4.103.401,1.304,1.121,2.91,1.601,3.57c1.027,1.413,2.395,4.332,2.781,5.933.151.623.863,1.989,1.583,3.036s1.644,2.967,2.053,4.266c.408,1.3,1.327,3.277,2.042,4.394.714,1.117,1.663,3.14,2.108,4.495s1.334,3.142,1.975,3.97c.642.828,1.492,2.586,1.89,3.906.397,1.32,1.289,3.226,1.982,4.236s1.588,2.9,1.991,4.2c.402,1.3,1.301,3.174,1.997,4.164s1.593,2.88,1.993,4.2s1.237,3.12,1.859,4c1.362,1.926,2.195,4.38,2.567,7.567.157,1.349.664,2.982,1.179,3.8c1.363,2.165,2.138,5.107,2.851,10.833.151,1.21.671,3.1,1.156,4.2c1.315,2.982,2.117,6.267,2.825,11.583.146,1.091.59,2.711.988,3.6c1.378,3.082,2.379,7.12,3.024,12.201.152,1.201.414,2.461.581,2.8c1.383,2.8,2.218,5.545,2.801,9.216.263,1.65.668,3.99.901,5.2.547,2.846.547,3.685-.004,9.2-.253,2.53-.654,7.03-.891,10-.523,6.566-.986,9.936-2.227,16.2-.522,2.64-1.141,7.5-1.376,10.8-.766,10.795-1.337,15.388-2.788,22.4-.754,3.642-2.117,18.974-2.141,24.081-.023,4.757,1.205,8.502,2.794,8.523.181.003,1.118.759,2.082,1.681l1.753,1.676l4.078.02c3.821.018,4.167-.049,5.483-1.052c2.306-1.759,4.733-4.143,4.733-4.649c0-.26.449-1.78.997-3.376c1.174-3.418,1.563-5.824,2.377-14.704c1.18-12.863,1.407-15.02,1.772-16.8c1.45-7.086,1.944-10.531,2.463-17.2.666-8.567,1.149-13.156,1.619-15.4c1.369-6.531,2.174-12.784,2.626-20.4.32-5.405.692-5.971,3.682-5.609c1.822.221,2.537.538,3.664,1.622.77.741,2.111,1.644,2.98,2.006s2.309,1.226,3.2,1.92c1.989,1.548,3.237,2.261,3.958,2.261.302,0,1.34.687,2.306,1.526s2.757,1.927,3.981,2.416c1.223.489,2.516,1.198,2.872,1.574c1.001,1.059,1.575,1.451,3.303,2.255.88.41,2.187,1.256,2.905,1.88c1.22,1.06,4.416,2.749,5.201,2.749.192,0,.73.405,1.194.9c1.288,1.373,1.751,1.679,3.7,2.446.99.389,2.472,1.242,3.292,1.894.821.652,2.361,1.621,3.421,2.154c1.061.533,2.28,1.359,2.708,1.835.671.746,4.452,2.771,5.175,2.771.136,0,.813.529,1.504,1.175.692.646,2.392,1.728,3.779,2.404c1.386.676,2.521,1.386,2.521,1.577c0,.192,1.305.997,2.9,1.79c1.595.792,3.475,1.984,4.178,2.647.703.664,1.435,1.207,1.625,1.207.702,0,4.327,1.968,5.297,2.876.55.514,1.81,1.287,2.8,1.718.99.43,2.11,1.125,2.489,1.543c2.321,2.561,10.48,3.916,13.75,2.284c7.606-3.794,8.418-15.199,1.415-19.851-1.349-.897-2.859-1.999-3.354-2.45-.495-.452-1.62-1.152-2.5-1.557-1.646-.758-2.146-1.092-3.319-2.215-.763-.73-3.988-2.348-4.681-2.348-.248,0-.979-.552-1.625-1.227s-2.293-1.761-3.66-2.413c-1.367-.653-2.989-1.61-3.604-2.128-.615-.517-1.771-1.214-2.57-1.547-.799-.334-2.169-1.255-3.045-2.046-.876-.792-1.718-1.439-1.87-1.439-.775,0-4.669-2.079-5.558-2.968-.56-.56-1.794-1.324-2.743-1.698-.949-.373-1.815-.782-1.925-.909-.631-.724-3.451-2.582-4.907-3.231-.931-.415-2.251-1.269-2.933-1.897-.682-.629-2.122-1.477-3.2-1.887-1.078-.409-2.782-1.434-3.786-2.277s-2.045-1.533-2.314-1.533c-.571,0-2.171-.969-3.841-2.325-.65-.528-2.094-1.378-3.21-1.888s-2.536-1.398-3.156-1.973-1.966-1.416-2.99-1.869c-1.025-.454-2.289-1.029-2.81-1.278s-1.563-1.415-2.316-2.592l-1.368-2.139-.383-10.868c-.211-5.977-.499-13.31-.641-16.295l-.259-5.428l2.163-.68c2.361-.743,5.137-.479,7.686.731c2.379,1.129,6.879,2.116,12.727,2.791c2.589.299,3.272-.166,4.83-3.285.467-.936.985-1.702,1.15-1.702.392,0,2.358-4.161,2.358-4.989c0-.676.898-2.279,2.024-3.611.371-.44,1.07-1.97,1.551-3.4.482-1.43,1.376-3.23,1.987-4c.61-.77,1.51-2.558,1.999-3.973.796-2.306,2.104-4.675,2.888-5.231.158-.112.419-.742.579-1.4.446-1.832,2.127-5.493,2.936-6.392.397-.442,1.043-1.794,1.434-3.004s.912-2.635,1.157-3.166c1.63-3.535-.974-10.322-4.481-11.676-1.688-.652-6.988-.434-8.085.333-2.535,1.772-4.789,4.683-4.789,6.184c0,.333-.533,1.341-1.185,2.241s-1.702,2.772-2.333,4.16-1.455,2.777-1.832,3.087c-.661.544-2.65,4.473-2.65,5.235c0,.206-.525.972-1.166,1.702-.955,1.088-3.234,5.339-3.234,6.032c0,.101-.531.752-1.18,1.446-.648.695-1.303,1.659-1.455,2.142-.756,2.41-4.839,3.36-7.839,1.825-.37-.19-.965-.345-1.322-.345-.356,0-1.472-.375-2.479-.834s-2.932-1.01-4.278-1.225c-5.911-.946-10.062-1.883-12.047-2.722-2.041-.863-3.419-1.218-6.2-1.599-6.152-.842-9.428-1.612-11.834-2.781-.899-.437-2.609-.903-3.8-1.036-2.256-.252-6.719-.918-8.256-1.232-1.857-.378-5.567-4.575-6.341-7.171-.719-2.412-1.43-3.81-2.588-5.091-.343-.381-.953-1.79-1.355-3.132-.403-1.342-1.308-3.281-2.013-4.309-.705-1.027-1.614-2.948-2.02-4.268-.757-2.458-1.465-3.825-2.67-5.154-.376-.415-.804-1.315-.953-2-.352-1.627-1.695-4.535-2.793-6.046-.48-.66-1.2-2.264-1.6-3.564s-1.316-3.22-2.036-4.267-1.433-2.413-1.585-3.036c-.423-1.742-1.973-5.11-2.79-6.065-.404-.471-1.211-2.307-1.793-4.079l-1.058-3.221.963-.758c1.172-.922,2.756-1.109,13.583-1.605c11.059-.506,11.978-1.106,11.129-7.278-.158-1.148-.31-4.856-.338-8.242-.05-5.957-.082-6.181-.996-6.921-1.168-.945-1.366-.948-2.194-.033m1.735,3.369c-.006,4.256-.473,7.687-.831,6.1-.579-2.561-.411-9,.234-9c.478,0,.599.587.597,2.9M127.02,97.787c.319.763.58,2.305.58,3.426c0,2.401.492,3.49,1.803,3.988.685.261,1.032.791,1.23,1.881.396,2.175,1.734,4.872,2.664,5.37c1.904,1.019,10.817.267,12.474-1.052c4.067-3.237,8.509-3.549,11.229-.788c1.615,1.638,2.943,1.897,11.4,2.216c9.82.371,19.069,1.538,12.567,1.587-3.415.025-14.713.736-16.027,1.008-2.242.465-4.421,2.582-3.458,3.362.433.351,1.104,1.713,1.49,3.026c1.049,3.564,1.89,5.394,2.671,5.812.385.206.99,1.41,1.346,2.676.96,3.42,1.449,4.503,2.513,5.567.529.529,1.288,2.1,1.686,3.491.869,3.041,1.431,4.159,2.673,5.324.516.484.939,1.241.939,1.681s.16,1.214.356,1.719c1.28,3.3,1.841,4.328,2.473,4.528.4.127.832.792.98,1.509.714,3.463,1.744,5.799,3.2,7.255.545.545.991,1.316.991,1.714c0,1.416,1.603,5.127,2.586,5.987.888.778,1.224,1.625,2.104,5.311.13.542,1.337,2.086,2.683,3.432c2.507,2.507,3.555,2.982,6.577,2.983c2.433.001,7.11,1.048,8.313,1.861c1.632,1.102,3.54,1.649,6.737,1.931c4.9.432,8.27,1.077,9.554,1.828c1.998,1.171,4.626,1.907,7.846,2.199c4.127.373,7.164,1.109,9.697,2.348c5.444,2.664,12.722,2.52,14.153-.279.362-.708,1.225-1.844,1.917-2.523.74-.725,1.579-2.209,2.037-3.6.434-1.319,1.26-2.807,1.868-3.365.599-.55,1.549-2.157,2.11-3.571s1.334-2.891,1.719-3.281c1.362-1.383,1.664-1.892,2.328-3.921.369-1.129.976-2.271,1.348-2.539.898-.647,1.827-2.413,2.641-5.017.366-1.17.944-2.235,1.284-2.366.341-.13,1.223-.905,1.961-1.722c1.541-1.706,4.975-2.38,6.937-1.361c1.488.772,3.986,3.358,4.182,4.329.554,2.739.599,4.062.219,6.443-.478,2.995-.832,3.77-2.81,6.169-.437.53-.982,1.7-1.211,2.6-.635,2.492-1.127,3.586-2.096,4.658-1.106,1.224-1.758,2.577-2.113,4.379-.151.77-.973,2.376-1.826,3.57-.854,1.193-1.738,2.903-1.965,3.8-.524,2.068-1.155,3.342-2.236,4.52-.902.982-1.359,2.021-2.117,4.817-.255.938-.969,2.288-1.586,3-1.383,1.591-2.041,2.81-2.041,3.778c0,1.396-1.526,2.238-3.561,1.966-1.012-.135-3.156-.423-4.767-.641-1.655-.223-3.394-.724-4-1.151-3.928-2.768-14.27-2.805-14.99-.053-.12.461-.072,8.018.108,16.793l.327,15.954l1.042,1.042c.572.573,1.041,1.303,1.041,1.623s.18.582.4.582.4.204.4.454c0,.86,1.844,2.148,4.218,2.945c1.539.516,2.783,1.258,3.522,2.1.629.715,1.322,1.301,1.541,1.301.857,0,3.269,1.395,4.627,2.676.816.769,2.186,1.538,3.196,1.792c1.159.292,2.232.946,3.114,1.9.872.942,2.152,1.728,3.635,2.232c1.368.465,2.748,1.282,3.428,2.029.625.687,1.809,1.451,2.629,1.697.821.246,2.286,1.165,3.257,2.044c1.06.96,2.631,1.87,3.938,2.28c1.471.463,2.308.979,2.59,1.598.415.913,1.575,1.593,4.41,2.588.828.291,2.216,1.211,3.084,2.046.891.856,1.98,1.518,2.496,1.518.525,0,1.699.727,2.746,1.7c1.138,1.057,2.689,1.99,4.102,2.466c1.559.525,2.584,1.174,3.265,2.067.599.785,1.51,1.414,2.297,1.584c1.346.291,2.963,1.253,4.705,2.799.55.488,1.672,1.102,2.493,1.365.822.262,1.992,1.016,2.6,1.675.609.659,1.758,1.538,2.554,1.952c4.765,2.482,6.339,6.182,5.301,12.461-1.082,6.543-11.094,8.976-17.128,4.161-.891-.711-2.477-1.609-3.525-1.996-1.047-.387-2.089-1.048-2.314-1.469-.398-.744-3.2-2.357-5.14-2.959-.527-.164-1.529-.862-2.225-1.552s-2.2-1.609-3.342-2.042c-1.142-.434-2.169-1.082-2.283-1.439-.202-.637-4.071-2.773-5.023-2.773-.265,0-1.003-.546-1.64-1.212-1.015-1.062-4.888-3.188-5.807-3.188-.182,0-.658-.436-1.058-.969-.4-.532-1.743-1.449-2.983-2.036-1.241-.587-2.511-1.432-2.823-1.878-.568-.811-4.385-2.717-5.441-2.717-.309,0-.919-.501-1.355-1.114-.795-1.117-1.031-1.266-4.561-2.886-1.045-.479-2.035-1.112-2.2-1.407-.165-.294-1.447-1.104-2.849-1.799-1.401-.696-3.162-1.879-3.913-2.629-.751-.751-1.708-1.365-2.128-1.365-.419,0-.861-.16-.982-.355s-.824-.468-1.562-.606c-.849-.159-1.494-.583-1.753-1.15-.403-.885-.798-1.14-3.859-2.489-.851-.375-2.072-1.183-2.714-1.797s-2.235-1.515-3.541-2.003c-1.461-.547-2.465-1.178-2.613-1.644-.325-1.023-1.525-1.636-4.384-2.239-4.058-.857-4.411-.226-5.191,9.283-.443,5.399-.85,8.179-1.407,9.6-.944,2.408-1.507,6.428-1.993,14.243-.672,10.789-1.25,16.136-1.896,17.544-.757,1.653-2.094,10.42-2.106,13.819-.014,3.737-1.186,16.7-1.591,17.594-.642,1.417-1.193,3.537-1.612,6.2-.998,6.334-1.553,8-2.669,8-.258,0-1.242.72-2.186,1.6-1.449,1.351-1.998,1.607-3.533,1.647-3.607.094-6.418-.348-6.418-1.01c0-.645-1.147-1.695-2.849-2.608-1.806-.968-2.004-1.954-1.977-9.829.027-7.686.509-12.539,1.708-17.2c1.403-5.452,1.885-8.964,2.143-15.6.279-7.196,1.067-14.117,1.98-17.4c1.118-4.018,1.75-8.538,1.985-14.2.354-8.538.969-13.985,2.093-18.545l1.021-4.145-1.017-2.255c-1.101-2.442-1.634-4.835-2.212-9.928-.257-2.262-.749-4.052-1.597-5.8-1.367-2.819-1.912-5.096-2.28-9.527-.184-2.22-.597-3.728-1.588-5.8-1.299-2.715-1.784-4.775-2.58-10.952-.233-1.813-.839-3.896-1.571-5.4-1.249-2.567-1.876-5.157-2.269-9.375-.206-2.203-1.179-4.717-2.584-6.673-.158-.22-.598-2.02-.977-4-.517-2.702-.978-3.964-1.847-5.061-1.173-1.481-1.914-3.162-2.751-6.237-.254-.934-.899-2.104-1.432-2.6-.818-.76-2.599-5.138-2.599-6.387c0-.209-.6-1.131-1.333-2.048-1.379-1.724-2.035-3.145-2.469-5.345-.138-.702-.835-2.052-1.549-3-1.429-1.899-2.089-3.386-2.465-5.557-.137-.789-.779-2.049-1.427-2.8-1.419-1.643-2.357-3.414-2.357-4.448c0-1.089-1.539-4.319-2.175-4.563-.537-.206-1.323-2.088-2.184-5.233-.253-.923-1.001-2.22-1.662-2.88-.834-.835-1.398-1.999-1.846-3.814-.442-1.793-1.081-3.123-2.033-4.236-.764-.892-1.684-2.393-2.045-3.335-1.636-4.275-4.191-5.223-11.759-4.361-3.846.438-5.417-1.665-5.482-7.341-.008-.685-.387-1.721-.844-2.301-1.135-1.443-2.223-8.433-1.518-9.751.668-1.248,1.093-1.132,1.768.485M208.4,130c-.33.213-.933.391-1.34.394-.406.003-1.306.252-2,.553-.693.301-2.277.873-3.521,1.27-1.535.49-2.882,1.312-4.2,2.561-1.066,1.011-2.315,2.105-2.775,2.43-.901.638-2.964,3.702-2.964,4.403c0,.235-.673,1.454-1.496,2.708l-1.496,2.281-.004,6.4-.004,6.4l1.321,2.2c.727,1.21,1.681,2.966,2.12,3.902c1.025,2.185,4.879,5.982,7.015,6.911.911.397,1.78.921,1.931,1.167c2.228,3.604,17.766,3.541,21.475-.088.296-.289,1.168-.777,1.938-1.085c2.343-.935,6.968-6.096,7.841-8.748.409-1.242,1.15-3.01,1.647-3.927c1.89-3.494,1.645-10.164-.531-14.453-.525-1.033-.954-2.169-.955-2.523-.004-1.372-1.918-3.623-7.813-9.184-2.325-2.194-14.25-4.825-16.189-3.572m10.4,2.499c3.375.628,4.335,1.053,5.2,2.302.33.477,1.087,1.122,1.681,1.433.595.312,1.638,1.377,2.319,2.367.681.989,1.471,1.799,1.755,1.799.644,0,1.36,1.531,1.695,3.622.14.878.411,1.692.603,1.81.191.119.347.672.347,1.231s.253,1.583.563,2.277c.845,1.892,1.046,4.605.46,6.225-.286.789-.817,2.515-1.182,3.835-1.439,5.212-2.041,6.696-2.84,7.005-.975.377-2.425,2.009-2.781,3.131-.143.452-.657.934-1.14,1.07-1.632.457-4.472,1.959-5.749,3.04-2.516,2.131-13.925,2.019-16.275-.159-.606-.561-2.216-1.463-3.578-2.003-1.713-.68-2.639-1.308-3-2.034-.287-.578-1.174-1.494-1.972-2.036-1.118-.76-1.605-1.49-2.133-3.195-.376-1.215-1.24-3.077-1.92-4.136-2.082-3.245-2.164-11.637-.137-13.945.893-1.017,1.684-2.413,1.684-2.972c0-1.085,1.476-3.487,2.971-4.835c5.038-4.543,6.386-5.532,7.591-5.57.681-.021,2.228-.274,3.438-.562c2.614-.623,8.164-.488,12.4.3m-81.732,12.006c-.669.819-.708,1.457-.462,7.495l.27,6.6-1.179.688c-1.06.618-3.433.715-23.565.964l-22.387.276-.846-1.189c-.465-.653-.961-1.717-1.101-2.363-.382-1.754-1.497-4.277-2.265-5.122-.373-.41-.801-1.472-.951-2.359-.641-3.796-1.9-5.448-3.367-4.42-.997.698-1.05,8.51-.074,10.955.212.534.655,1.96.983,3.17c2.425,8.953,2.106,8.679,9.367,8.032c6.064-.541,11.423-1.132,15.109-1.666c1.32-.191,6.45-.536,11.4-.766c24.232-1.126,24.442-1.184,21.95-6.064-.187-.365-.229-3.425-.095-6.8.236-5.907.212-6.177-.634-7.236-1.06-1.326-1.216-1.34-2.153-.195m1.691,3.895c-.016,1.43-.16,3.5-.32,4.6l-.29,2-.275-2.3c-.703-5.893-.731-6.749-.241-7.34.783-.944,1.159.07,1.126,3.04m-55.883-.168c.151,1.303.213,2.638.137,2.968-.716,3.101-.688,3.041-1.031,2.2-.561-1.376-.461-7.893.118-7.701.279.092.622,1.212.776,2.533m3.725,8.572c1.076,4.9,1.324,4.978,14.722,4.606c6.203-.172,16.805-.424,23.56-.561c11.432-.232,12.322-.302,12.837-1.007.514-.703.583-.639.975.903.391,1.542.36,1.674-.437,1.848-1.792.391-18.47,1.007-27.254,1.007-10.089,0-17.685.764-20.379,2.049-4.227,2.016-5.741.661-6.393-5.722-.381-3.722,1.65-6.398,2.369-3.123"
       fill="#a48c94"
       fill-rule="evenodd"
       id="path41287"
       style="fill:#fffeff;fill-opacity:1" />
    <path
       d="M204.203,40.726c-3.029.191-3.306.621-2.926,4.552.175,1.813.498,3.842.717,4.509.672,2.043,1.157,8.235.738,9.435-.731,2.097-2.811,2.318-29.332,3.114-31.087.934-32.258.876-32.754-1.604-.137-.688-.997-2.799-1.91-4.691-.913-1.893-1.809-3.981-1.991-4.641-.273-.995-.297-.915-.138.467.106.917.805,2.897,1.554,4.4s1.599,3.453,1.888,4.333c1.166,3.55-2.565,3.35,41.151,2.205c24.066-.63,23.774-.466,21.772-12.205-1.619-9.498-1.723-8.781,1.332-9.165c2.748-.344,2.824-.141,3.327,8.947.481,8.687.645,9.749.715,4.641.078-5.71-.727-13.052-1.514-13.812-.439-.424-1.243-.572-2.629-.485m-74.881,2.811c-1.127,1.659-.671,8.044.705,9.863.166.22.539,1.93.828,3.8.346,2.233.577,2.988.674,2.2.148-1.206-.362-4.056-1.323-7.4-1.472-5.119-1.549-5.763-.85-7.116.749-1.448.681-1.416,1.925-.912.506.205,1.406.477,2.002.604c1.108.236,1.791,1.334,2.629,4.224.369,1.273.41,1.303.447.333.049-1.265-1.267-4.502-2.026-4.983-.293-.186-1.378-.639-2.411-1.007l-1.879-.668-.721,1.062m2.32,18.663c-.075,2.536.832,7.935,1.455,8.668c1.667,1.958,12.935,1.772,31.303-.514c1.65-.205,4.98-.552,7.4-.771c2.42-.218,4.67-.478,5-.576.883-.263-8.537.186-11.8.562-1.54.178-4.78.529-7.2.781s-6.054.636-8.077.854c-12.972,1.397-16.741.531-17.124-3.935-.145-1.688-.409-3.879-.586-4.869l-.324-1.8-.047,1.6m76.193,2.429c-.478,2.476-1.063,2.668-9.235,3.038-9.546.432-10.686.598-4.4.641c11.539.079,14.47-.742,14.105-3.947L208.15,63l-.315,1.629M179.7,68.696c1.265.079,3.335.079,4.6,0c1.265-.08.23-.145-2.3-.145s-3.565.065-2.3.145m5.051,24.153c-.822.822-.84,1.059-.563,7.552l.287,6.703-1.058,1.599c-1.348,2.036-1.659,2.087-12.756,2.093l-8.74.004-3.321-1.6c-4.787-2.306-10.981-2.141-13.67.365-.429.4-1.189.946-1.689,1.213-.5.268-.821.576-.712.684.108.108,1.429-.581,2.934-1.532c4.001-2.529,11.139-2.472,13.337.104.852.999,3.622,1.286,13.313,1.38l10.313.099.948-1.256c1.378-1.827,1.723-3.64,1.384-7.257-.817-8.693-.18-11.624,2.19-10.071c1.185.776,1.602,3.559,1.411,9.401-.069,2.129.019,4.818.196,5.976.949,6.211.028,6.797-11.5,7.319-10.73.485-11.995.649-5.563.721c8.209.091,17.308-.993,17.308-2.062c0-.052.343-1.035.763-2.183.704-1.927.717-2.233.164-3.994-.331-1.055-.745-4.672-.926-8.095-.317-6.015-.356-6.215-1.386-7.1-1.307-1.125-1.595-1.132-2.664-.063M125.162,94.7c-1.62,2.018-1.923,4.151-1.15,8.1.287,1.469.324,1.177.202-1.589-.319-7.181,3.011-8.704,4.398-2.011.159.77.889,2.57,1.622,4s1.64,3.68,2.016,5c.831,2.922,1.379,3.385,3.95,3.337l2-.037-2.141-.311c-2.701-.393-2.685-.374-3.817-4.416-.52-1.855-1.418-4.202-1.995-5.215-.578-1.012-1.308-2.699-1.624-3.747-.905-3.008-2.438-4.385-3.461-3.111m-.547,12.641c.164,2.761,1.672,7.74,3.058,10.091c1.242,2.108,2.235,2.392,6.487,1.855c2.863-.362,4.243-.36,5.989.006l2.269.476l1.351,2.847c.744,1.566,1.612,3.108,1.93,3.426.702.702,1.624,2.678,2.501,5.358.36,1.1.98,2.36,1.377,2.8.97,1.073,1.415,1.986,2.449,5.028.481,1.415,1.189,2.932,1.574,3.372.998,1.14,1.516,2.243,2.401,5.108.427,1.385,1.118,2.883,1.534,3.33c1.03,1.106,1.469,1.985,2.491,4.99.481,1.415,1.191,2.932,1.577,3.372.995,1.131,1.997,3.218,1.997,4.157c0,.437.18.907.4,1.043s.4.59.4,1.01c0,.419.521,1.356,1.158,2.081.637.726,1.64,2.757,2.229,4.514.588,1.757,1.394,3.555,1.791,3.995.97,1.075,1.415,1.989,2.447,5.028.48,1.415,1.27,3.022,1.755,3.572.818.928,1.232,1.991,2.18,5.6l.368,1.4.036-1.206c.047-1.588-1.215-4.985-2.474-6.658-.553-.735-1.329-2.416-1.725-3.736s-1.29-3.21-1.986-4.2-1.595-2.864-1.997-4.164c-.403-1.3-1.298-3.19-1.991-4.2s-1.585-2.916-1.982-4.236c-.398-1.32-1.248-3.078-1.89-3.906-.641-.828-1.53-2.615-1.975-3.97s-1.394-3.378-2.108-4.495c-.715-1.117-1.634-3.094-2.042-4.394-.409-1.299-1.333-3.219-2.053-4.266s-1.432-2.413-1.583-3.036c-.386-1.601-1.754-4.52-2.781-5.933-.48-.66-1.2-2.266-1.601-3.57-.401-1.303-1.325-3.15-2.053-4.103-.728-.954-1.323-1.84-1.323-1.97c0-.451-1.372-3.16-1.849-3.65-.264-.271-.556-.721-.649-1-.127-.381-1.763-.507-6.602-.507-3.537,0-6.511-.09-6.607-.2-.725-.826-2.318-4.089-2.635-5.4-.214-.88-.659-2.59-.989-3.8-.331-1.21-.695-2.74-.809-3.4s-.134.033-.045,1.541m39.297,9.843l-.997.784l1.058,3.221c.582,1.772,1.389,3.608,1.794,4.08.404.473,1.152,1.775,1.661,2.895s.936,1.692.949,1.271c.02-.672-1.711-4.098-2.343-4.635-.453-.385-1.223-2.214-1.6-3.8-.209-.88-.495-1.976-.637-2.436-.205-.667.011-.967,1.073-1.49.732-.361,1.039-.66.684-.665s-1.094.344-1.642.775M207.8,129.292c-.66.223-1.65.623-2.2.887-.55.265-1.81.724-2.8,1.021-.99.296-1.971.688-2.18.87-.209.181-.64.33-.959.33-.318,0-1.411.765-2.43,1.7-1.018.935-2.407,2.15-3.086,2.7-.68.55-1.838,2.26-2.575,3.8s-1.669,3.156-2.071,3.592c-2.341,2.539-1.948,18.608.456,18.608.145,0,.574.63.954,1.4s1.002,2.031,1.383,2.802c.381.772.973,1.492,1.316,1.6.342.109,1.3,1.008,2.127,1.998.828.99,1.737,1.8,2.02,1.8s1.489.68,2.68,1.512c2.644,1.847,4.469,2.503,6.793,2.441l1.772-.047-2.2-.36c-2.317-.38-5.347-1.613-5.813-2.366-.151-.246-1.02-.77-1.931-1.167-2.136-.929-5.99-4.726-7.015-6.911-.439-.936-1.393-2.692-2.12-3.902l-1.321-2.2.004-6.4.004-6.4l1.496-2.281c.823-1.254,1.496-2.473,1.496-2.708c0-.701,2.063-3.765,2.964-4.403.46-.325,1.709-1.419,2.775-2.43c1.331-1.262,2.649-2.062,4.2-2.548c1.244-.391,2.57-.87,2.947-1.065c4.573-2.365,16.568-.929,20.103,2.407c5.895,5.561,7.809,7.812,7.813,9.184.001.354.43,1.49.955,2.523c2.176,4.289,2.421,10.959.531,14.453-.497.917-1.238,2.685-1.647,3.927-.873,2.652-5.498,7.813-7.841,8.748-.77.308-1.642.796-1.938,1.085-.987.966-3.038,1.84-5.462,2.329-2.205.444-2.272.488-.828.531c2.049.063,4.003-.622,6.228-2.182.99-.694,2.486-1.582,3.324-1.973.839-.391,1.829-1.146,2.2-1.678.372-.531,1.443-1.707,2.381-2.613c1.167-1.126,1.895-2.282,2.304-3.661.329-1.108,1.153-3.08,1.83-4.382c1.896-3.642,1.809-9.831-.195-13.998-.759-1.577-1.502-3.356-1.651-3.952-.285-1.135-5.147-7.113-5.785-7.113-.202,0-.872-.522-1.488-1.159-.697-.722-2.328-1.578-4.32-2.266-1.76-.609-3.98-1.437-4.933-1.841-1.915-.811-6.216-.937-8.267-.242m-39.221,2.041c.139.623.842,1.989,1.562,3.036s1.636,2.967,2.036,4.267s1.12,2.904,1.6,3.564c1.098,1.511,2.441,4.419,2.793,6.046.149.685.577,1.585.953,2c1.205,1.329,1.913,2.696,2.67,5.154.406,1.32,1.315,3.241,2.02,4.268.705,1.028,1.61,2.967,2.013,4.309.402,1.342,1.012,2.751,1.355,3.132c1.188,1.313,1.89,2.7,2.629,5.19c1.055,3.559,4.976,7.303,7.59,7.247c1.089-.023,1.039-.076-.547-.574-2.402-.754-6.221-4.606-6.606-6.662-.368-1.964-1.211-3.92-2.116-4.91-.946-1.036-1.596-2.401-2.113-4.44-.229-.901-.856-2.251-1.394-3-1.276-1.774-1.99-3.277-2.803-5.899-.364-1.177-1.022-2.524-1.46-2.995-1.014-1.089-1.818-2.7-2.177-4.362-.318-1.47-1.498-3.947-2.271-4.762-.689-.728-1.309-2.111-2.098-4.681-.361-1.177-1.003-2.511-1.426-2.965-.424-.455-1.151-1.562-1.616-2.461-.675-1.304-.795-1.406-.594-.502m-31.236,12.02c-1.254,1.431-1.593,2.87-1.332,5.647l.263,2.8.063-3.239c.052-2.651.214-3.413.897-4.2l.834-.961l1.025,1.191l1.025,1.191-.254,6.145c-.139,3.38-.101,6.444.086,6.809c1.798,3.521.461,4.89-5.15,5.278l-3.8.263l3.641.061c4.577.078,6.406-.841,6.29-3.16-.038-.758-.196-4.618-.351-8.578-.321-8.181-1.42-11.322-3.237-9.247m-56.286,1.474c-1.003.789-1.053.998-.977,4.102l.081,3.271.127-3.2c.243-6.119,3.235-5.774,4.294.495.15.887.578,1.949.951,2.359.768.845,1.883,3.368,2.265,5.122.14.646.636,1.71,1.101,2.363l.846,1.189l22.387-.276c26.803-.331,24.709.098,24.587-5.038l-.082-3.414-.134,3.264c-.197,4.781,1.951,4.365-24.128,4.679l-22.226.267-.801-.905c-.441-.498-1.033-1.895-1.315-3.105-.283-1.21-1.107-3.216-1.831-4.458-.725-1.241-1.437-2.951-1.584-3.8-.49-2.841-2.041-4.111-3.561-2.915M80.637,155c.107,1.54.536,3.79.952,5c.417,1.21.965,2.993,1.217,3.963s.987,2.291,1.632,2.936l1.172,1.173l5.295-.275c2.912-.151,8.355-.631,12.095-1.066c3.74-.434,8.69-.958,11-1.163c2.31-.206,4.56-.451,5-.544c1.492-.319-9.985.176-12.4.534-3.568.529-8.922,1.122-15.109,1.674-7.166.639-6.941.813-9.11-7.032-.243-.88-.625-2.23-.849-3s-.561-2.21-.749-3.2c-.282-1.491-.308-1.319-.146,1m192.234,1.245c-2.082.91-5.271,4.435-5.271,5.828c0,.266.517-.317,1.15-1.295c2.233-3.453,3.884-4.377,7.839-4.384c2.221-.004,3.026-.126,2.611-.394-.887-.573-4.801-.421-6.329.245m8.039.702c3.403,1.889,5.597,8.121,4.045,11.487-.245.531-.766,1.956-1.157,3.166s-1.037,2.562-1.434,3.004c-.809.899-2.49,4.56-2.936,6.392-.16.658-.421,1.288-.579,1.4-.784.556-2.092,2.925-2.888,5.231-.489,1.415-1.389,3.203-1.999,3.973-.611.77-1.505,2.57-1.987,4-.481,1.43-1.18,2.96-1.551,3.4-1.126,1.332-2.024,2.935-2.024,3.611c0,.828-1.966,4.989-2.358,4.989-.165,0-.683.766-1.15,1.702-1.125,2.252-2.323,3.492-3.408,3.526-.846.027-.85.042-.084.355.992.404,2.643-1.019,3.644-3.14.374-.794,1.018-1.739,1.431-2.101.412-.362,1.294-2.149,1.96-3.972.665-1.823,1.52-3.597,1.899-3.942.67-.61,1.288-1.916,2.663-5.628.367-.99.99-2.16,1.385-2.6.938-1.045,1.369-1.912,2.374-4.771.457-1.3,1.171-2.738,1.588-3.196.792-.872,1.576-2.542,2.456-5.233.288-.88,1.023-2.23,1.634-3s1.591-2.93,2.178-4.8s1.248-3.782,1.469-4.25c.274-.583.262-1.109-.04-1.674-.243-.453-.441-1.221-.441-1.706c0-2.213-2.78-6.168-4.623-6.578l-1.177-.261l1.11.616m-14.71,7.871c-.66,1.082-1.31,1.97-1.445,1.974-.135.005-.546.965-.914,2.134-.368,1.17-1.204,2.712-1.858,3.428-1.189,1.302-2.78,4.342-2.786,5.324-.002.287-.632,1.185-1.4,1.995-.769.811-1.397,1.632-1.397,1.825c0,.716-2.108,4.713-2.649,5.024-.308.178-.994,1.179-1.524,2.226-1.054,2.079-1.612,2.664-2.827,2.963-.739.181-.733.2.079.243c1.025.054,2.688-1.366,3.086-2.634.152-.483.807-1.447,1.455-2.142.649-.694,1.18-1.345,1.18-1.446c0-.693,2.279-4.944,3.234-6.032.641-.73,1.166-1.496,1.166-1.702c0-.79,1.981-4.656,2.735-5.339.435-.394,1.185-1.648,1.667-2.788.482-1.139,1.508-3.001,2.281-4.139.773-1.137,1.34-2.25,1.261-2.474s-.684.478-1.344,1.56m-144.1-.122c1.265.079,3.335.079,4.6,0c1.265-.08.23-.145-2.3-.145s-3.565.065-2.3.145M198.2,180c.66.168,2.01.305,3,.305c1.609,0,1.673-.032.6-.305-.66-.168-2.01-.305-3-.305-1.609,0-1.673.032-.6.305m6,.743c.66.181,2.045.718,3.078,1.193s2.17.864,2.526.864c.357,0,1.006.191,1.442.425.436.233,1.28.363,1.874.288.854-.108.638-.239-1.033-.624-1.162-.267-2.827-.85-3.699-1.295s-2.441-.892-3.487-.995c-1.472-.143-1.631-.111-.701.144m10.234,3.024c.092.092,1.697.369,3.567.615c3.127.411,4.432.733,6.599,1.63c2.148.889,5.076,1.63,5.891,1.491.689-.118.521-.233-.691-.477-1.426-.286-2.203-.563-5.2-1.852-1.643-.706-10.722-1.963-10.166-1.407m18.166,4.238c.66.177,2.406.501,3.88.719c1.474.219,3.274.694,4,1.057c1.718.858,4.075,1.472,6.32,1.647c1.529.119,1.409.053-.8-.443-1.43-.321-3.32-.936-4.2-1.366-1.615-.79-7.641-2.054-9.431-1.978-.867.036-.843.075.231.364m-55.979,5.756c.066.859.489,2.062.941,2.673s.989,1.858,1.194,2.77c.451,2.006.844,2.51.844,1.081c0-1.182-.562-2.616-1.854-4.726-.485-.792-.963-1.872-1.063-2.4-.1-.527-.128-.256-.062.602m2.979,8.832c0,1.949,1.219,7.539,2.008,9.207.416.88.969,2.41,1.229,3.4.259.99.559,1.554.666,1.254.228-.64-.474-3.031-1.718-5.854-.485-1.1-1.085-3.515-1.333-5.367-.464-3.446-.852-4.65-.852-2.64m59.843,6.508l-1.956.652.258,5.423c.142,2.983.43,10.315.641,16.292l.383,10.868l1.368,2.139c.753,1.177,1.795,2.343,2.316,2.592s1.785.824,2.81,1.278c1.024.453,2.37,1.294,2.99,1.869s2.04,1.463,3.156,1.973s2.56,1.36,3.21,1.888c1.67,1.356,3.27,2.325,3.841,2.325.269,0,1.31.69,2.314,1.533s2.708,1.868,3.786,2.277c1.078.41,2.518,1.258,3.2,1.887.682.628,2.002,1.482,2.933,1.897c1.456.649,4.276,2.507,4.907,3.231.11.127.976.536,1.925.909.949.374,2.183,1.138,2.743,1.698.889.889,4.783,2.968,5.558,2.968.152,0,.994.647,1.87,1.439.876.791,2.246,1.712,3.045,2.046.799.333,1.955,1.03,2.57,1.547.615.518,2.237,1.475,3.604,2.128c1.367.652,3.014,1.738,3.66,2.413s1.377,1.227,1.625,1.227c.693,0,3.918,1.618,4.681,2.348c1.173,1.123,1.673,1.457,3.319,2.215.88.405,2.005,1.105,2.5,1.557.495.451,2.005,1.553,3.354,2.45c7.003,4.652,6.191,16.057-1.415,19.851-3.27,1.632-11.429.277-13.75-2.284-.379-.418-1.499-1.113-2.489-1.543-.99-.431-2.25-1.204-2.8-1.718-.97-.908-4.595-2.876-5.297-2.876-.19,0-.922-.543-1.625-1.207-.703-.663-2.583-1.855-4.178-2.647-1.595-.793-2.9-1.598-2.9-1.79c0-.191-1.135-.901-2.521-1.577-1.387-.676-3.087-1.758-3.779-2.404-.691-.646-1.368-1.175-1.504-1.175-.723,0-4.504-2.025-5.175-2.771-.428-.476-1.647-1.302-2.708-1.835-1.06-.533-2.6-1.502-3.421-2.154-.82-.652-2.302-1.505-3.292-1.894-1.949-.767-2.412-1.073-3.7-2.446-.464-.495-1.002-.9-1.194-.9-.785,0-3.981-1.689-5.201-2.749-.718-.624-2.025-1.47-2.905-1.88-1.728-.804-2.302-1.196-3.303-2.255-.356-.376-1.649-1.085-2.872-1.574-1.224-.489-3.015-1.577-3.981-2.416s-2.004-1.526-2.306-1.526c-.721,0-1.969-.713-3.958-2.261-.891-.694-2.331-1.558-3.2-1.92s-2.21-1.265-2.98-2.006c-3.579-3.445-7.382-2.133-7.097,2.449l.146,2.338.088-2.4c.159-4.32,3.009-4.992,6.932-1.634.875.749,2.05,1.477,2.61,1.618.559.141,1.279.517,1.599.837c1.149,1.149,4.022,2.938,5.161,3.214.638.155,1.908.963,2.822,1.796.913.832,2.387,1.731,3.275,1.997.887.266,2.455,1.179,3.484,2.029c1.028.85,2.658,1.894,3.622,2.32.964.427,2.158,1.194,2.655,1.705.914.94,1.765,1.424,4.303,2.446.77.31,2.064,1.196,2.877,1.969.812.773,2.085,1.519,2.83,1.659.744.14,1.699.572,2.123.961c1.646,1.512,3.614,2.832,4.582,3.073.556.139,1.636.835,2.4,1.548c1.281,1.195,3.844,2.662,4.651,2.662.189,0,1.322.804,2.52,1.786c1.197.982,2.645,1.888,3.217,2.014s2.001,1.017,3.176,1.98c1.174.964,2.704,1.859,3.4,1.989.695.13,1.935.87,2.756,1.644.82.774,2.521,1.863,3.78,2.419c1.258.556,2.738,1.44,3.288,1.964s1.81,1.303,2.8,1.731s2.34,1.257,3,1.842c2.398,2.125,8.083,3.698,10.779,2.984.672-.178,1.906-.43,2.743-.561c2.167-.337,6.136-4.31,6.465-6.47.128-.837.393-2.019.589-2.626.889-2.747-1.13-9.452-3.202-10.631-.643-.366-1.17-.8-1.171-.965-.002-.165-.273-.3-.603-.3s-.6-.18-.6-.4-.271-.4-.603-.4c-.331,0-1.006-.465-1.5-1.033-.493-.569-1.822-1.457-2.953-1.975-1.132-.518-2.498-1.382-3.036-1.921-.539-.538-2.135-1.514-3.547-2.167-1.412-.654-2.825-1.499-3.139-1.878-.315-.379-1.792-1.292-3.283-2.029s-3.12-1.721-3.62-2.186c-.941-.877-2.972-2.011-3.602-2.011-.198,0-.936-.553-1.639-1.229-1.251-1.203-5.557-3.571-6.493-3.571-.26,0-.802-.438-1.204-.973-.401-.535-1.462-1.288-2.356-1.672-.894-.385-2.525-1.375-3.625-2.199s-2.829-1.854-3.843-2.289c-1.014-.434-2.287-1.234-2.83-1.776-.542-.543-1.693-1.3-2.557-1.682-3.188-1.412-4.247-2.024-4.588-2.653-.193-.354-1.256-1.034-2.364-1.51-1.107-.476-2.599-1.376-3.316-2-.716-.624-2.521-1.695-4.011-2.381s-2.81-1.51-2.933-1.831c-.124-.321-1.604-1.241-3.291-2.045-5.922-2.82-5.893-2.72-6.43-21.956-.24-8.562-.333-15.671-.207-15.796.126-.126,1.161-.534,2.299-.907c1.139-.372,1.711-.678,1.271-.679s-1.681.292-2.757.65m4.757.131c.66.242,1.74.667,2.4.944c3.351,1.408,6.896,2.256,9.12,2.181c1.117-.037,1.051-.088-.52-.397-4.003-.788-5.883-1.297-7.552-2.043-.963-.431-2.403-.861-3.2-.954l-1.448-.17l1.2.439m13.7,3.45c.495.096,1.305.096,1.8,0c.495-.095.09-.173-.9-.173s-1.395.078-.9.173m-74.3,5.72c0,1.55,1.244,7.77,1.635,8.178.201.209.365.704.365,1.1s.151.72.336.72.578,1.035.873,2.3.608,1.983.694,1.595c.174-.777-.764-3.984-1.908-6.524-.403-.897-.93-3.044-1.17-4.773-.437-3.141-.825-4.362-.825-2.596m4,15.791c0,2.007,1.223,7.566,2.005,9.112.816,1.617,1.769,5.26,2.221,8.495.153,1.1.369,1.748.48,1.44.248-.692-.579-5.608-1.352-8.04-.56-1.76-.792-2.365-1.687-4.4-.242-.55-.629-2.428-.86-4.173-.433-3.277-.807-4.405-.807-2.434m4.968,26.075c-.026,5.275.025,5.865.306,3.532.491-4.081.516-6.18.098-8.132-.29-1.349-.379-.332-.404,4.6m-.724,10.132c-.176,2.09-.25,4.34-.165,5c.086.66.3-.51.477-2.6.176-2.09.25-4.34.165-5-.086-.66-.3.51-.477,2.6m24.21-1.2c-.535,6.625-1.299,12.087-2.434,17.4-.234,1.1-.51,3.17-.612,4.6-.216,3.029.341.701,2.203-9.2.624-3.318,1.279-10.584,1.101-12.2-.104-.938-.211-1.186-.258-.6M191.237,278c-.235,2.6-1.212,8.45-1.783,10.679-.349,1.363-.707,4.153-.795,6.2-.089,2.047-.086,3.001.005,2.121s.594-3.76,1.117-6.4c1.421-7.168,1.911-10.642,1.719-12.2-.128-1.039-.195-1.142-.263-.4m21.291,18.4c0,1.43.073,2.015.161,1.3.089-.715.089-1.885,0-2.6-.088-.715-.161-.13-.161,1.3m-24.684,6.4c-.176,2.09-.25,4.34-.165,5c.086.66.3-.51.477-2.6.176-2.09.25-4.34.165-5-.086-.66-.3.51-.477,2.6m24.037,1.2c-.373,4.581-.974,8.499-2.332,15.2-.608,3.003-1.108,7.673-1.07,10c.032,1.966.07,1.859.358-1c.369-3.673.744-5.988,1.879-11.6c1.015-5.016,1.817-12.236,1.622-14.6-.11-1.346-.226-.841-.457,2m-24.644,6.4c-.238,2.632-1.214,8.449-1.778,10.6-.346,1.32-.712,4.11-.813,6.2s-.108,3.17-.015,2.4c.248-2.049.963-5.99,1.379-7.6.714-2.766,1.652-9.829,1.487-11.2-.125-1.034-.193-1.139-.26-.4m-3.334,23.4c-.164,1.54-.277,3.79-.251,5l.046,2.2.358-2.4c.197-1.32.31-3.57.251-5L184.2,331l-.297,2.8m23.789,3.6c-.731,7.483-1.171,10.03-2.295,13.304-.548,1.596-.997,3.116-.997,3.376c0,.506-2.427,2.89-4.733,4.649-1.316,1.003-1.662,1.07-5.483,1.052l-4.078-.02-1.753-1.676c-.964-.922-1.901-1.678-2.082-1.681-1.768-.023-2.829-3.744-2.794-9.804.021-3.694-.066-4.737-.301-3.6-1.065,5.159.349,12.941,2.473,13.615.4.127,1.227.779,1.839,1.449c2.356,2.579,8.937,3.342,12.02,1.393c2.205-1.394,5.292-4.437,5.292-5.216c0-.374.367-1.436.815-2.36c1.385-2.857,3.053-13.793,2.728-17.881-.097-1.228-.304-.148-.651,3.4"
       fill="#9c848c"
       fill-rule="evenodd"
       id="path41289"
       style="fill:#fffeff;fill-opacity:1" />
  </g>
</svg>
