<?xml version="1.0" encoding="UTF-8" standalone="no"?>
<svg
   id="svg"
   version="1.1"
   width="400"
   height="400"
   viewBox="0, 0, 400,400"
   sodipodi:docname="zona_bany.svg"
   inkscape:version="1.2.2 (732a01da63, 2022-12-09)"
   xmlns:inkscape="http://www.inkscape.org/namespaces/inkscape"
   xmlns:sodipodi="http://sodipodi.sourceforge.net/DTD/sodipodi-0.dtd"
   xmlns="http://www.w3.org/2000/svg"
   xmlns:svg="http://www.w3.org/2000/svg">
  <defs
     id="defs49607" />
  <sodipodi:namedview
     id="namedview49605"
     pagecolor="#ffffff"
     bordercolor="#666666"
     borderopacity="1.0"
     inkscape:showpageshadow="2"
     inkscape:pageopacity="0.0"
     inkscape:pagecheckerboard="0"
     inkscape:deskcolor="#d1d1d1"
     showgrid="false"
     inkscape:zoom="1"
     inkscape:cx="218.5"
     inkscape:cy="90"
     inkscape:window-width="1920"
     inkscape:window-height="974"
     inkscape:window-x="-11"
     inkscape:window-y="-11"
     inkscape:window-maximized="1"
     inkscape:current-layer="svg" />
  <ellipse
     rx="163.330156"
     ry="166.317128"
     transform="matrix(1.219353 0 0 1.200532 200.84293 202.762034)"
     fill="#dbcfd0"
     stroke-width="0"
     id="ellipse49590"
     style="fill:#fffeff;fill-opacity:1" />
  <g
     id="g49602">
    <path
       d="M158,1c0,.55-.225,1.021-.5,1.047s-3.68.071-7.567.1c-7.92.059-7.45-.078-7.856,2.298l-.3,1.755h-5.388c-6.243,0-6.487.09-6.325,2.335l.12,1.654-5.472.005c-6.071.007-6.264.08-6.59,2.509l-.214,1.6-3.301-.176c-3.957-.211-4.768.269-4.537,2.688l.142,1.485-3.478-.149c-4.031-.173-4.734.209-4.734,2.578l-.001,1.471-3.405.026c-3.862.029-4.164.199-4.297,2.429L94.2,26.263l-2-.031-2-.032.034,2.019.034,2.019-3.511-.114c-4.157-.134-4.915.297-4.689,2.669l.14,1.465-2.004-.029L78.2,34.2l-.035,1.4c-.069,2.764-.002,2.683-2.167,2.573-1.101-.056-1.92.029-1.821.19s-.332.217-.959.125c-1.435-.211-2.817,1.07-2.819,2.612-.001,1.033-.11,1.101-1.777,1.11-2.141.012-2.231.089-2.508,2.157C65.908,45.903,65.816,46,64.576,46C62.83,46,62,46.904,62,48.803c0,1.543-.003,1.546-1.397,1.32-2.056-.334-2.749.406-2.446,2.613l.242,1.766-1.644-.263c-2.273-.363-2.858.198-2.525,2.421l.26,1.737-1.76-.241c-2.201-.302-2.94.393-2.607,2.447.226,1.394.223,1.397-1.32,1.397C46.904,62,46,62.83,46,64.576c0,1.24-.097,1.332-1.633,1.538-2.068.277-2.145.367-2.157,2.508-.009,1.667-.077,1.776-1.11,1.777-1.542.002-2.823,1.384-2.612,2.819.092.627.036,1.058-.125.959s-.246.72-.19,1.821c.111,2.169.16,2.127-2.573,2.177l-1.4.025.033,2.004.034,2.004-1.469-.14c-2.322-.221-2.876.624-2.675,4.082.091,1.567.081,2.612-.022,2.321-.138-.39-.436-.296-1.132.358-.519.488-.856,1.031-.748,1.206.109.175-.302.284-.912.242-1.078-.075-1.108-.021-1.077,1.923l.031,2-1.608.097c-2.23.133-2.4.435-2.429,4.297l-.026,3.405-1.471.001c-2.369,0-2.751.703-2.578,4.734l.149,3.478-1.485-.142c-2.419-.231-2.899.58-2.688,4.537l.176,3.301-1.6.214c-2.429.326-2.502.519-2.509,6.59l-.005,5.472-1.654-.12c-2.245-.162-2.335.082-2.335,6.325v5.388l-1.755.3c-2.374.406-2.239-.045-2.298,7.657C2.079,158.676,2.173,158,1,158h-1v42v42h.957c1.282,0,1.362.539,1.223,8.228-.131,7.28-.089,7.424,2.286,7.741L6.2,258.2v5.4c0,6.214.068,6.4,2.345,6.4h1.697l-.078,4.631c-.106,6.259.031,6.68,2.32,7.128l1.832.359-.158,3.492c-.179,3.96-.015,4.26,2.447,4.46l1.595.13-.117,3.254c-.138,3.826.293,4.546,2.72,4.546h1.546l-.174,2.775c-.238,3.789.179,4.744,2.213,5.069c1.66.266,1.713.347,1.779,2.747.024.861.255,1.232.833,1.338c1.278.235,3.44,2.516,3.175,3.351-.2.628.027.72,1.775.72h2.003l.336,1.698c.409,2.069.784,2.187,7.187,2.255l4.477.047.336,1.698c.455,2.303-.665,2.2,24.582,2.255c24.253.052,23.129.177,23.129-2.56c0-1.326.033-1.351,1.9-1.471l1.9-.122.121-1.879.121-1.879l1.879-.121l1.879-.121.122-1.9c.12-1.867.145-1.9,1.471-1.9c1.983,0,2.607-.85,2.607-3.554c0-2.455,1.148-4.181,3-4.511.646-.115.824-.508.922-2.039.12-1.863.146-1.896,1.471-1.896c1.904,0,2.607-.871,2.607-3.229c0-1.37.162-1.971.53-1.971.623,0,2.27-1.657,2.27-2.283c0-.237.27-.535.6-.662.411-.157.6-.8.6-2.042c0-1.798.011-1.813,1.371-1.813c1.926,0,2.629-.864,2.629-3.229c0-1.37.162-1.971.53-1.971.623,0,2.27-1.657,2.27-2.283c0-.237.27-.535.6-.662.411-.157.6-.8.6-2.042v-1.813h1.52c1.98,0,2.48-.563,2.48-2.792c0-1.658.111-1.875,1.168-2.273c1.428-.54,2.832-3.221,2.832-5.41c0-1.499.026-1.525,1.52-1.525c1.947,0,2.48-.564,2.48-2.622c0-1.532.102-1.691,1.3-2.034c1.62-.464,2.393-1.951,2.624-5.044l.172-2.3h1.472c1.898,0,2.432-.576,2.432-2.622c0-1.532.102-1.691,1.3-2.034c1.62-.464,2.393-1.951,2.624-5.044l.172-2.3h1.472c1.91,0,2.432-.575,2.432-2.68c0-1.53.102-1.72.924-1.72c2.007,0,3.045-1.997,3.066-5.9L158,226h1.52c1.958,0,2.48-.564,2.48-2.68c0-1.624.064-1.72,1.138-1.72c1.781,0,2.428-1.078,2.72-4.531l.259-3.069h1.462c1.899,0,2.421-.578,2.421-2.68c0-1.608.071-1.72,1.1-1.726c2.083-.012,2.838-1.556,2.883-5.894L174,202h1.551c1.864,0,2.348-.501,2.519-2.605.12-1.467.232-1.605,1.4-1.718c1.799-.174,2.115-.758,2.398-4.429l.251-3.248h1.46c1.855,0,2.421-.578,2.421-2.472c0-1.327.135-1.541,1.1-1.744c2.406-.506,2.764-1.192,2.853-5.462l.047-2.278l1.9-.122l1.9-.122.121-1.881c.12-1.861.138-1.884,1.798-2.212c1.923-.38,2.152-.915,2.234-5.207L198,166h2.2c2.151,0,2.2.025,2.2,1.138c0,1.781,1.078,2.428,4.531,2.72c3.315.28,3.149.129,3.237,2.942.029.904.215,1.012,1.932,1.122c1.809.116,1.9.178,1.9,1.3c0,.648.36,1.538.8,1.978.952.952.997,1.2.218,1.2-.736,0-1.045,1.808-.889,5.212l.119,2.611-2.024-.011-2.024-.012.011,2.002.012,2.002-1.447-.138c-2.082-.198-2.922.759-2.666,3.037.157,1.385.06,1.806-.456,1.987-.36.126-1.059.594-1.554,1.039-1.039.936-1.225,2.081-.279,1.718.371-.142.518-.071.364.177-.141.228-.645.361-1.12.295-.681-.094-.872.093-.897.881-.098,3.111-.065,3.051-1.574,2.875-2.016-.235-2.724.498-2.489,2.579.175,1.552.107,1.706-.855,1.948-2.131.535-2.944,1.971-3.056,5.398l-.071,2.2-1.59-.127c-2.078-.167-2.724.574-2.379,2.729.25,1.567.232,1.598-.949,1.598-1.643,0-2.934,1.339-2.717,2.818.092.627.041,1.062-.113.966-.155-.095-.226.823-.158,2.041l.123,2.215-1.693-.254c-2.126-.319-2.856.376-2.483,2.363.274,1.462-.135,1.851-1.948,1.851-1.483,0-1.897.941-1.981,4.494l-.079,3.306h-1.978-1.978l.115,1.852.115,1.853-1.806.27c-2.281.343-2.401.559-2.42,4.356-.018,3.507-.339,3.959-2.678,3.774L166.2,250.2l.032,2l.032,2-1.708.01c-2.256.013-2.356.166-2.356,3.586c0,1.61-.108,2.753-.241,2.538-.132-.214-.672.118-1.2.738-.527.62-1.319,1.128-1.759,1.128-.693,0-.8.267-.8,2.001v2.001l-1.436-.137c-1.96-.187-2.883.767-2.691,2.779.128,1.34.028,1.544-.862,1.768-2.09.524-2.906,1.982-3.017,5.388l-.071,2.2-1.59-.127c-2.061-.166-2.723.577-2.387,2.679l.247,1.547-1.609.257c-1.7.272-2.647,1.593-2.245,3.133.103.392.057.632-.1.535-.158-.098-.285.757-.282,1.899l.005,2.077-1.609-.127c-2.1-.167-2.745.567-2.399,2.729.255,1.597.255,1.598-1.087,1.598-2.156,0-2.739,1.001-2.8,4.808l-.051,3.255-1.646-.247c-2.275-.341-2.384-.057-2.376,6.184l.006,5.4l4.073.114l4.072.113-.224,1.383c-.367,2.264.217,2.59,4.64,2.59h3.864l.444,1.178c1.077,2.853,1.28,2.874,26.436,2.741c24.853-.132,24.095-.046,24.095-2.738v-1.095l4.5-.156c5.258-.183,6.692-.704,7.244-2.63l.372-1.3h14.134h14.135l.231,1.1c.545,2.59,1.045,2.782,7.431,2.853l4.248.047.219,1.633c.303,2.262-.107,2.153,8.618,2.295l7.868.127.6,1.273c1.584,3.358,10.4,3.099,10.4-.306v-.977l8.3-.123c9.246-.136,10.284-.378,11.272-2.622l.572-1.3h3.653c4.371,0,6.815-.918,7.538-2.832l.44-1.168h14.513h14.512v1.351c0,2.087.62,2.328,6.56,2.555l5.356.204.356,1.245c.599,2.093,1.885,2.445,8.928,2.445h6.2l.12-1.85c.119-1.833.134-1.852,1.733-2.066c2.088-.28,2.083-.273,2.274-3.267.172-2.711,1.253-4.358,3.073-4.682.644-.114.824-.508.921-2.019.12-1.858.139-1.881,1.798-2.209c1.923-.38,2.152-.915,2.234-5.207L378,298h1.371c2.195,0,2.629-.763,2.629-4.629v-3.371h1.371c2.188,0,2.629-.767,2.629-4.577v-3.321l1.612-.258c2.133-.341,2.388-1.096,2.388-7.07v-4.774h1.52c2.359,0,2.48-.316,2.48-6.48v-5.52h1.371c2.509,0,2.629-.395,2.629-8.629v-7.371h1h1v-39.773-39.774l-1.1-.166-1.1-.167l1.1-.06c1.61-.088,1.732-4.06.124-4.06h-.976l-.124-7.568c-.138-8.401-.032-8.015-2.291-8.318L394,141.895v-5.319c0-5.983-.237-6.576-2.629-6.576h-1.371v-4.774c0-5.974-.255-6.729-2.388-7.07L386,117.898v-3.321c0-3.81-.441-4.577-2.629-4.577h-1.371v-3.371c0-3.866-.434-4.629-2.629-4.629h-1.371l-.047-2.5c-.082-4.292-.311-4.827-2.234-5.207-1.66-.328-1.678-.351-1.798-2.212-.111-1.733-.2-1.875-1.121-1.802-2.646.211-2.8.01-2.8-3.658c0-3.849-.436-4.621-2.607-4.621-1.326,0-1.351-.033-1.471-1.9l-.122-1.9h-1.8-1.8l-.264-2.6c-.385-3.793-.836-4.707-2.47-5.014-1.275-.239-1.384-.381-1.571-2.041-.245-2.169-.235-2.159-2.262-2.431-1.536-.206-1.633-.298-1.633-1.538c0-1.693-.901-2.576-2.629-2.576-1.326,0-1.371-.051-1.371-1.551c0-1.949-.757-2.626-2.603-2.326L346,58.35v-1.726c0-2.149-.656-2.762-2.57-2.403l-1.43.268v-1.796c0-2.207-.683-2.882-2.603-2.57-1.394.226-1.397.223-1.397-1.32c0-1.899-.83-2.803-2.576-2.803-1.24,0-1.332-.097-1.538-1.633-.277-2.064-.369-2.145-2.473-2.157-1.702-.01-1.746-.044-1.983-1.522-.297-1.847-1.321-2.353-4.912-2.43l-2.483-.054-.117-2.002L321.8,34.2h-1.797-1.797l-.234-1.734c-.299-2.209-.79-2.497-3.972-2.334-3.753.193-3.939.099-4.08-2.073-.11-1.709-.201-1.853-1.12-1.78-2.155.172-2.737-.199-3.087-1.966-.387-1.961-1.398-2.362-5.413-2.151l-2.3.121v-1.513c0-2.372-.714-2.793-4.53-2.673l-3.267.103-.233-1.734c-.306-2.278-.765-2.509-4.624-2.321l-3.254.158-.214-1.6c-.326-2.427-.525-2.504-6.498-2.498l-5.38.004v-1.681c0-2.258-.192-2.328-6.4-2.328h-5.4l-.231-1.734c-.316-2.362-.441-2.4-7.529-2.286-7.745.125-8.44.024-8.44-1.23v-.95h-42-42v1m80.4,17.924c0,2.634,1.701,3.035,12.978,3.059l8.378.017l1.122,1.075c.617.591,1.122,1.382,1.122,1.757c0,1.034.788,1.168,6.877,1.168h5.612l-.268,1.43c-.424,2.259.109,2.57,4.403,2.57h3.726l-.227,1.397c-.363,2.238.238,2.603,4.283,2.603c3.857,0,4.013.12,3.811,2.93-.123,1.717-4.617,1.992-4.617.282c0-2.926-1.315-3.172-16.8-3.141-14.301.029-14.069-.007-14.511,2.231L253.953,38l-2.677.054c-1.472.03-7.587.075-13.59.1-12.005.051-11.668-.023-11.68,2.546-.004.953-.193,1.311-.706,1.34-.385.023-4.512.08-9.172.128-9.434.097-9.728.175-9.728,2.597v1.468l-5.605-.083c-6.333-.093-6.795.082-6.795,2.579v1.471h-5.566c-6.24,0-6.21-.011-6.224,2.372l-.01,1.725-3.678-.116c-4.204-.133-4.632.106-4.443,2.477l.121,1.523-4,.011-4,.011.115,1.848c.138,2.225-.095,2.335-4.427,2.092-3.54-.198-4.108.201-3.78,2.65l.213,1.585-2.661-.189c-4.132-.295-4.985.076-5.433,2.367-.372,1.9-.377,1.905-1.73,1.651-1.964-.368-2.59.301-2.271,2.426l.256,1.709-2.235-.124c-1.23-.068-2.158.002-2.063.157.096.154-.339.205-.966.113-1.435-.211-2.817,1.07-2.819,2.612-.001,1.033-.11,1.101-1.777,1.11-2.168.012-2.265.103-2.517,2.337-.2,1.777-.209,1.786-1.55,1.568-1.952-.317-2.697.444-2.419,2.469l.221,1.616-1.479-.032c-2.869-.061-2.825-.031-2.956-2.068l-.122-1.9-1.845.114-1.846.115-.223-1.663c-.288-2.147-.729-2.543-2.843-2.556-1.074-.006-1.676-.175-1.574-.441.597-1.57-1.386-3.308-4.069-3.566-1.913-.184-2.061-.266-1.015-.557c1.194-.333,1.522-1.359,1.575-4.924l.04-2.678l1.9-.122l1.9-.122.121-1.879.121-1.879l1.879-.121L121.8,61.8l.121-1.879.121-1.879l1.879-.121L125.8,57.8l.121-1.879.121-1.879l1.875-.121c1.51-.097,1.904-.277,2.018-.921.279-1.566,2.087-2.997,3.84-3.04c2.974-.073,3.589-.425,3.982-2.278.34-1.604.424-1.682,1.82-1.682c1.859,0,2.423-.578,2.423-2.48c0-1.519.001-1.52,1.7-1.537c4.324-.045,5.882-.801,5.894-2.862.006-1.019.123-1.086,2.106-1.2l2.1-.121.122-1.9.122-1.9h3.498c3.97,0,4.458-.268,4.458-2.444v-1.483l4.1-.14c4.721-.161,6.232-.723,7.072-2.633l.572-1.3h3.495c3.915,0,4.761-.199,4.761-1.121c0-.349.484-1.14,1.075-1.757L184.15,22l7.625-.04c9.359-.049,9.517-.085,9.982-2.278L202.114,18h18.143h18.143v.924M308.48,50c1.464,0,1.52.05,1.52,1.371c0,1.728.883,2.629,2.576,2.629c1.24,0,1.332.097,1.538,1.633.268,2,.254,1.985,2.207,2.247c1.499.201,1.598.3,1.799,1.799.262,1.953.247,1.939,2.247,2.207c1.536.206,1.633.298,1.633,1.538c0,1.746.904,2.576,2.803,2.576c1.543,0,1.546.003,1.32,1.397-.3,1.846.377,2.603,2.326,2.603c1.64,0,1.647.011,1.718,2.6.032,1.153.112,1.205,2.034,1.317l2.001.118.047,3.179c.051,3.504.471,4.383,2.1,4.392c1.697.01,2.141.505,1.85,2.061-.318,1.692.21,2.224,2.386,2.403l1.576.13.019,3.467c.023,3.989.008,3.962,2.337,4.225l1.757.198-.146,2.705c-.204,3.762.215,4.667,2.352,5.09l1.72.341v3.387c0,4.073.167,4.387,2.343,4.387h1.697l-.075,5.5c-.101,7.384.627,9.684,3.112,9.839l.923.058v9.708v9.709l1.886,1.612l1.886,1.612.114,9.331c.09,7.345.007,9.289-.387,9.137-2.989-1.149-3.453.555-3.508,12.892l-.048,10.798-1.476.24c-2.278.37-2.593,1.416-2.482,8.242.037,2.243-.084,3.984-.269,3.87-2.143-1.324-3.603,1.129-3.72,6.252-.135,5.917.003,5.463-1.602,5.275-2.306-.269-2.607.288-2.445,4.526l.141,3.708-1.541-.207c-2.4-.322-2.803.263-2.606,3.786.236,4.205.071,4.641-1.629,4.322-1.914-.359-2.63.318-2.314,2.187l.246,1.461-2.239.406c-1.327.24-2.332.258-2.464.044-.123-.2-.478-.265-.788-.146-1.484.569-2.955-.219-2.955-1.583c0-1.844-.963-2.686-2.864-2.504-1.485.141-1.536.104-1.536-1.102c0-1.957-1.048-2.598-4.455-2.725l-2.945-.111-.114-4.268-.113-4.269h1.151c2.257,0,2.616-.975,2.804-7.596.184-6.453.332-6.864,2.957-8.171.901-.449.917-.575,1.023-8.344l.109-7.889l1.091-.006c2.89-.016,2.862.3,2.827-32.194-.035-32.576.149-30.556-2.835-31.184l-1.1-.231-.01-7.693c-.012-10.143-.463-11.892-3.066-11.892-.922,0-.924-.01-.924-5.751c0-6.444-.163-6.858-2.585-6.575l-1.395.163-.11-6.018c-.098-5.337-.186-6.013-.778-5.969-.425.032-.589-.158-.45-.52.25-.65-1.35-2.53-2.152-2.53-.406,0-.53-.966-.53-4.125c0-4.84-.847-7.26-2.799-7.997l-1.136-.429-.133-4.424c-.152-5.066-.675-6.536-2.632-7.397-.715-.315-1.3-.846-1.3-1.18c0-.473.107-.501.48-.128.264.264,1.164.48,2,.48m-34.235,2.965c-.275,1.094-1.806,1.758-2.722,1.181-.361-.227-.152-.394.677-.539.962-.169,1.226-.438,1.331-1.358.092-.8.258-1.02.551-.727.231.231.304.88.163,1.443m-4.035,2.802c-.012,2.183-.254,2.433-2.344,2.433h-1.666v1.666c0,2.076-.258,2.334-2.334,2.334h-1.666v1.666c0,2.076-.258,2.334-2.334,2.334h-1.666v1.714c0,1.817-.54,2.469-2.051,2.48-1.132.008-1.717.782-1.844,2.441-.099,1.288-.19,1.366-1.604,1.384-1.892.025-2.457.592-2.482,2.488-.018,1.451-.065,1.501-1.28,1.361-1.734-.201-3.072,1.137-2.871,2.871.143,1.237.113,1.261-1.538,1.271-2.096.012-2.308.226-2.32,2.337-.01,1.657-.046,1.703-1.41,1.794-1.903.128-2.378.727-2.524,3.176-.135,2.257-1.994,4.84-3.406,4.733-.369-.027-.673.238-.676.59-.01.973-2.404,3.495-3.249,3.423-.538-.045-.754.216-.777.937-.099,3.141-.013,3.017-2.068,3.008l-1.9-.008.008,1.9c.009,2.046.088,1.987-2.808,2.067-1.062.029-1.191.163-1.121,1.162.161,2.296-.478,3.099-2.372,2.979L218.2,110.2l.061,2.119.06,2.118-1.683-.252c-2.135-.32-2.847.376-2.465,2.411l.263,1.404h-1.589c-1.945,0-2.847.816-2.847,2.576c0,1.24-.097,1.332-1.633,1.538-2.057.276-2.145.374-2.157,2.409-.01,1.667-.019,1.678-1.587,1.774-2,.122-2.232.376-2.337,2.551-.081,1.68-.145,1.771-1.146,1.626-1.388-.2-2.82,1.194-2.725,2.653.131,2.011.034,2.294-.523,1.532-.377-.516-.963-.664-2.283-.577l-1.777.118-.26-1.542c-.371-2.202-.902-2.425-5.653-2.366l-1.88.023-.12-2.058c-.111-1.921-.185-2.052-1.119-1.978-2.425.193-2.8-.131-2.8-2.414c0-2.008.069-2.151,1.3-2.693c1.313-.578,2.643-2.637,2.681-4.15.027-1.102,1.993-3.022,3.094-3.022.556,0,.925-.24.925-.6c0-.33.213-.6.474-.6.66,0,2.326-1.626,2.326-2.27c0-.291.27-.53.6-.53s.6-.27.6-.6.213-.6.474-.6c.66,0,2.326-1.626,2.326-2.27c0-.291.27-.53.6-.53s.6-.141.6-.312c0-.172.536-.515,1.191-.762.667-.252,1.412-.951,1.692-1.588.616-1.4,1.043-1.724,2.286-1.732c1.343-.008,2.431-1.113,2.431-2.468c0-.939.17-1.138.974-1.138c2.063,0,2.998-.683,3.27-2.388.241-1.505.346-1.612,1.579-1.612c1.694,0,2.577-.901,2.577-2.629c0-1.321.056-1.371,1.52-1.371c1.911,0,2.48-.564,2.48-2.458v-1.498l1.9-.122l1.9-.122.12-1.842.119-1.842l3.229-.249c3.651-.282,4.235-.599,4.409-2.397.113-1.168.251-1.28,1.718-1.4c2.104-.171,2.605-.655,2.605-2.519c0-1.53.021-1.551,1.525-1.551c2.189,0,4.87-1.404,5.41-2.832.391-1.036.631-1.168,2.124-1.168c2.061,0,2.941-.787,2.941-2.629c0-1.322.055-1.371,1.525-1.371c2.189,0,4.87-1.404,5.41-2.832.398-1.057.615-1.168,2.273-1.168c2.229,0,2.792-.5,2.792-2.48v-1.52l2.5-.047c4.302-.082,4.826-.308,5.211-2.255L266.047,54h2.086h2.086l-.009,1.767m24.086,29.318c-.08,1.273-.145.335-.146-2.085s.064-3.462.144-2.315c.081,1.147.082,3.127.002,4.4m-.171,9.315c-.233,1.471-1.896,3.6-2.813,3.6-.296,0-.701.405-.9.9-.246.614-.369-.639-.387-3.949L290,90.102l1.64-.262c1.231-.197,1.704-.484,1.892-1.151.35-1.235.882,3.89.593,5.711m-3.943,13.116l.018,6.684-1.4.413c-2.134.628-2.568,1.911-2.637,7.787-.095,8.174.078,7.435-1.835,7.843-2.094.447-2.347,1.216-2.149,6.52.188,4.993.032,5.637-1.36,5.637-2.165,0-2.546,1.027-2.585,6.953-.026,4.105-.15,5.3-.535,5.153-2.305-.884-3.41,1.025-3.525,6.094-.05,2.2-.11,4.315-.133,4.7-.031.523-.389.7-1.412.7-2.289,0-2.686.763-2.49,4.785l.17,3.496-1.451.36c-1.718.425-2.514,1.778-2.662,4.523-.054,1.01-.12,2.159-.147,2.553-.044.646-.442.705-4.048.6l-3.998-.117-.002-1.651c-.001-2.069-.679-2.683-2.571-2.328l-1.43.268v-3.17c0-3.384.906-5.01,3-5.384.696-.125.816-.508.921-2.939.13-3.022,1.201-4.814,3.034-5.075.742-.106.86-.427.964-2.621.073-1.532.295-2.5.574-2.5.623,0,2.307-1.626,2.307-2.227c0-.268.27-.591.6-.718.452-.173.6-.903.6-2.968c0-2.922,1.014-4.597,3-4.953.725-.13.811-.505.914-4.017l.114-3.874l1.886-.122l1.886-.121.114-3.9.115-3.9h1.505c2.202,0,2.466-.479,2.466-4.48v-3.52h1.371c2.215,0,2.629-.752,2.629-4.771v-3.513l1.3-.372c1.899-.544,2.442-1.998,2.629-7.044.151-4.075.204-4.3,1.015-4.305c1.539-.01,2.656-.476,2.656-1.108c0-.341.127-.493.282-.338.156.155.291,3.29.3,6.967M107.6,342.389c-.807.195-1.068.591-1.354,2.055l-.353,1.813-5.356-.091c-6.064-.102-6.537.084-6.537,2.576v1.486l-5.592-.065c-6.328-.073-6.666.064-6.27,2.539l.239,1.498h-4.088-4.089v3.8v3.8l2,.2l2,.2v1.8v1.8l1.9.122c1.867.12,1.9.145,1.9,1.471c0,1.984.85,2.607,3.559,2.607c1.93,0,2.451.159,3.229.988.511.543,1.072.899,1.247.791.175-.109.284.302.242.912-.073,1.05.022,1.115,1.804,1.23c1.861.12,1.884.138,2.212,1.798.38,1.923.915,2.152,5.207,2.234L102,378v1.371c0,2.195.763,2.629,4.629,2.629h3.371v1.371c0,2.192.765,2.629,4.605,2.629h3.348l.336,1.698c.411,2.078.77,2.188,7.386,2.255l4.675.047-.227,1.397c-.392,2.418.057,2.603,6.326,2.603h5.551v1.371c0,2.509.395,2.629,8.629,2.629h7.371v1v1h39.8h39.8v-1c0-.55.18-1,.4-1s.4.45.4,1c0,1.471,1.489,1.384,1.713-.1l.167-1.1.06,1.1c.082,1.505,1.66,1.6,1.66.1v-1h7.371c8.234,0,8.629-.12,8.629-2.629v-1.371h5.371c6.041,0,6.629-.233,6.629-2.629v-1.371l4.5-.047c6.428-.068,6.802-.185,7.211-2.255l.336-1.698h3.348c3.84,0,4.605-.437,4.605-2.629v-1.371h3.371c3.866,0,4.629-.434,4.629-2.629v-1.371l2.3-.047c4.284-.088,4.979-.447,5.478-2.831.202-.964.427-1.091,2.121-1.2c1.528-.098,1.921-.277,2.036-.922.324-1.82,1.971-2.901,4.682-3.073c2.994-.191,2.987-.186,3.267-2.274.214-1.599.233-1.614,2.066-1.733l1.85-.12.12-1.853.12-1.854l2.28-.17c3.074-.23,4.56-1.006,5.024-2.623.28-.98.597-1.3,1.288-1.3c2.004,0,2.942-.697,3.212-2.388.248-1.55.316-1.612,1.758-1.612c2.286,0,2.484-.507,2.332-5.963-.177-6.338,1.135-5.77-13.424-5.813-14.105-.041-13.999-.057-14.354,2.164-.142.886-.46,1.635-.707,1.662-.247.028-2.879.073-5.849.1-5.251.049-5.4.074-5.4.914c0,.475-.145,1.009-.321,1.188-.177.178-.203.014-.057-.364.39-1.018-.713-.868-1.752.238-1.016,1.081-1.159,2.071-.249,1.721.341-.131.528-.089.416.093-.113.182-2.848.285-6.078.227-7.055-.125-7.655.042-8.003,2.221-.206,1.283-.431,1.617-1.107,1.638-.467.014-4.988.029-10.046.034l-9.197.01-.26-1.272c-.464-2.267-1.806-2.747-7.244-2.591-4.007.116-4.18.04-4.606-2.01-.402-1.937-.962-2.093-7.252-2.027l-4.464.046-.24-1.5c-.412-2.58-.012-2.516-15.74-2.516-15.84,0-15.6-.039-15.6,2.549v1.451h-5.767c-6.432,0-6.219-.069-6.513,2.123-.255,1.901-.798,2.044-7.021,1.855-4.425-.135-5.099.184-5.099,2.407c0,1.055-.185,1.367-.9,1.515-.754.157-17.884.114-18.8-.047-.165-.029-.3-.67-.3-1.424c0-2.363-.522-2.561-6.55-2.486l-5.37.066-.209-1.553c-.321-2.398-.474-2.45-7.391-2.511-9.348-.081-8.48.074-8.48-1.516c0-2.544.134-2.519-13.273-2.5-6.67.01-12.577.127-13.127.26"
       fill="#277aad"
       fill-rule="evenodd"
       id="path49592"
       style="fill:#34bbdc;fill-opacity:1" />
    <path
       d="M247.7,2.276c.385.1,1.015.1,1.4,0c.385-.101.07-.183-.7-.183s-1.085.082-.7.183M231.505,38.283c.497.096,1.217.092,1.6-.008.382-.1-.025-.179-.905-.174-.88.004-1.193.086-.695.182m8.2.004c.609.092,1.509.09,2-.005.492-.095-.005-.171-1.105-.168s-1.503.081-.895.173m7.195-.011c.385.1,1.015.1,1.4,0c.385-.101.07-.183-.7-.183s-1.085.082-.7.183m-34.4,4c.385.1,1.015.1,1.4,0c.385-.101.07-.183-.7-.183s-1.085.082-.7.183m5.6,0c.385.1,1.015.1,1.4,0c.385-.101.07-.183-.7-.183s-1.085.082-.7.183M58,53.572c0,.205-.405.45-.9.546-.772.148-.743.181.2.228.735.036,1.1-.145,1.1-.546c0-.33-.09-.6-.2-.6s-.2.167-.2.372m-4,3.595c0,.421-.225.857-.5.968-.299.121-.218.215.2.233.488.022.7-.27.7-.968c0-.55-.09-1-.2-1s-.2.345-.2.767m92,16c0,.421-.225.857-.5.968-.299.121-.218.215.2.233.488.022.7-.27.7-.968c0-.55-.09-1-.2-1s-.2.345-.2.767M294.15,83c.001,2.42.066,3.358.146,2.085s.079-3.253-.002-4.4c-.08-1.147-.145-.105-.144,2.315m-4.049,21.6c.004.88.086,1.193.182.695.096-.497.092-1.217-.008-1.6-.1-.382-.179.025-.174.905m-.008,5.4c0,.77.082,1.085.183.7.1-.385.1-1.015,0-1.4-.101-.385-.183-.07-.183.7m68.016,20.4c0,.99.078,1.395.173.9.096-.495.096-1.305,0-1.8-.095-.495-.173-.09-.173.9m-.008,7.4c.004.88.086,1.193.182.695.096-.497.092-1.217-.008-1.6-.1-.382-.179.025-.174.905m.013,39.6c.003,1.1.081,1.503.173.895.092-.609.09-1.509-.005-2-.095-.492-.171.005-.168,1.105m-.013,6.8c.004.88.086,1.193.182.695.096-.497.092-1.217-.008-1.6-.1-.382-.179.025-.174.905M186,225.571c0,.204-.315.453-.7.553-.527.138-.477.195.2.23.554.028.9-.185.9-.554c0-.33-.09-.6-.2-.6s-.2.167-.2.371m-8,11.736c0,.391-.428.705-1.1.806l-1.1.167l1.113.06c1.06.057,1.911-.849,1.336-1.424-.137-.137-.249.039-.249.391m-44,64.265c0,.205-.405.45-.9.546-.772.148-.743.181.2.228.735.036,1.1-.145,1.1-.546c0-.33-.09-.6-.2-.6s-.2.167-.2.372m-3.88,4.828c0,1.21.075,1.705.167,1.1.091-.605.091-1.595,0-2.2-.092-.605-.167-.11-.167,1.1M112.9,342.287c.605.091,1.595.091,2.2,0c.605-.092.11-.167-1.1-.167s-1.705.075-1.1.167m14.2-.005c.495.096,1.305.096,1.8,0c.495-.095.09-.173-.9-.173s-1.395.078-.9.173m86,0c.495.096,1.305.096,1.8,0c.495-.095.09-.173-.9-.173s-1.395.078-.9.173m17.4-.006c.385.1,1.015.1,1.4,0c.385-.101.07-.183-.7-.183s-1.085.082-.7.183m89.421.023c2.267.071,5.867.071,8-.001c2.134-.072.279-.13-4.121-.13s-6.145.059-3.879.131M169.9,354.293c.935.084,2.465.084,3.4,0s.17-.153-1.7-.153-2.635.069-1.7.153M237.6,399c0,.55.18,1,.4,1s.4-.45.4-1-.18-1-.4-1-.4.45-.4,1"
       fill="#48141c"
       fill-rule="evenodd"
       id="path49594" />
    <path
       d="M247.7,2.276c.385.1,1.015.1,1.4,0c.385-.101.07-.183-.7-.183s-1.085.082-.7.183M231.505,38.283c.497.096,1.217.092,1.6-.008.382-.1-.025-.179-.905-.174-.88.004-1.193.086-.695.182m8.2.004c.609.092,1.509.09,2-.005.492-.095-.005-.171-1.105-.168s-1.503.081-.895.173m7.195-.011c.385.1,1.015.1,1.4,0c.385-.101.07-.183-.7-.183s-1.085.082-.7.183m-34.4,4c.385.1,1.015.1,1.4,0c.385-.101.07-.183-.7-.183s-1.085.082-.7.183m5.6,0c.385.1,1.015.1,1.4,0c.385-.101.07-.183-.7-.183s-1.085.082-.7.183M58,53.572c0,.205-.405.45-.9.546-.772.148-.743.181.2.228.735.036,1.1-.145,1.1-.546c0-.33-.09-.6-.2-.6s-.2.167-.2.372m-4,3.595c0,.421-.225.857-.5.968-.299.121-.218.215.2.233.488.022.7-.27.7-.968c0-.55-.09-1-.2-1s-.2.345-.2.767m92,16c0,.421-.225.857-.5.968-.299.121-.218.215.2.233.488.022.7-.27.7-.968c0-.55-.09-1-.2-1s-.2.345-.2.767M294.15,83c.001,2.42.066,3.358.146,2.085s.079-3.253-.002-4.4c-.08-1.147-.145-.105-.144,2.315m-4.049,21.6c.004.88.086,1.193.182.695.096-.497.092-1.217-.008-1.6-.1-.382-.179.025-.174.905m-.008,5.4c0,.77.082,1.085.183.7.1-.385.1-1.015,0-1.4-.101-.385-.183-.07-.183.7m68.016,20.4c0,.99.078,1.395.173.9.096-.495.096-1.305,0-1.8-.095-.495-.173-.09-.173.9m-.008,7.4c.004.88.086,1.193.182.695.096-.497.092-1.217-.008-1.6-.1-.382-.179.025-.174.905m.013,39.6c.003,1.1.081,1.503.173.895.092-.609.09-1.509-.005-2-.095-.492-.171.005-.168,1.105m-.013,6.8c.004.88.086,1.193.182.695.096-.497.092-1.217-.008-1.6-.1-.382-.179.025-.174.905M186,225.571c0,.204-.315.453-.7.553-.527.138-.477.195.2.23.554.028.9-.185.9-.554c0-.33-.09-.6-.2-.6s-.2.167-.2.371m-8,11.736c0,.391-.428.705-1.1.806l-1.1.167l1.113.06c1.06.057,1.911-.849,1.336-1.424-.137-.137-.249.039-.249.391m-44,64.265c0,.205-.405.45-.9.546-.772.148-.743.181.2.228.735.036,1.1-.145,1.1-.546c0-.33-.09-.6-.2-.6s-.2.167-.2.372m-3.88,4.828c0,1.21.075,1.705.167,1.1.091-.605.091-1.595,0-2.2-.092-.605-.167-.11-.167,1.1M112.9,342.287c.605.091,1.595.091,2.2,0c.605-.092.11-.167-1.1-.167s-1.705.075-1.1.167m14.2-.005c.495.096,1.305.096,1.8,0c.495-.095.09-.173-.9-.173s-1.395.078-.9.173m86,0c.495.096,1.305.096,1.8,0c.495-.095.09-.173-.9-.173s-1.395.078-.9.173m17.4-.006c.385.1,1.015.1,1.4,0c.385-.101.07-.183-.7-.183s-1.085.082-.7.183m89.421.023c2.267.071,5.867.071,8-.001c2.134-.072.279-.13-4.121-.13s-6.145.059-3.879.131M169.9,354.293c.935.084,2.465.084,3.4,0s.17-.153-1.7-.153-2.635.069-1.7.153M237.6,399c0,.55.18,1,.4,1s.4-.45.4-1-.18-1-.4-1-.4.45-.4,1"
       fill="#48141c"
       fill-rule="evenodd"
       id="path49596" />
    <path
       d="M247.7,2.276c.385.1,1.015.1,1.4,0c.385-.101.07-.183-.7-.183s-1.085.082-.7.183M231.505,38.283c.497.096,1.217.092,1.6-.008.382-.1-.025-.179-.905-.174-.88.004-1.193.086-.695.182m8.2.004c.609.092,1.509.09,2-.005.492-.095-.005-.171-1.105-.168s-1.503.081-.895.173m7.195-.011c.385.1,1.015.1,1.4,0c.385-.101.07-.183-.7-.183s-1.085.082-.7.183m-34.4,4c.385.1,1.015.1,1.4,0c.385-.101.07-.183-.7-.183s-1.085.082-.7.183m5.6,0c.385.1,1.015.1,1.4,0c.385-.101.07-.183-.7-.183s-1.085.082-.7.183M58,53.572c0,.205-.405.45-.9.546-.772.148-.743.181.2.228.735.036,1.1-.145,1.1-.546c0-.33-.09-.6-.2-.6s-.2.167-.2.372m-4,3.595c0,.421-.225.857-.5.968-.299.121-.218.215.2.233.488.022.7-.27.7-.968c0-.55-.09-1-.2-1s-.2.345-.2.767m92,16c0,.421-.225.857-.5.968-.299.121-.218.215.2.233.488.022.7-.27.7-.968c0-.55-.09-1-.2-1s-.2.345-.2.767M294.15,83c.001,2.42.066,3.358.146,2.085s.079-3.253-.002-4.4c-.08-1.147-.145-.105-.144,2.315m-4.049,21.6c.004.88.086,1.193.182.695.096-.497.092-1.217-.008-1.6-.1-.382-.179.025-.174.905m-.008,5.4c0,.77.082,1.085.183.7.1-.385.1-1.015,0-1.4-.101-.385-.183-.07-.183.7m68.016,20.4c0,.99.078,1.395.173.9.096-.495.096-1.305,0-1.8-.095-.495-.173-.09-.173.9m-.008,7.4c.004.88.086,1.193.182.695.096-.497.092-1.217-.008-1.6-.1-.382-.179.025-.174.905m.013,39.6c.003,1.1.081,1.503.173.895.092-.609.09-1.509-.005-2-.095-.492-.171.005-.168,1.105m-.013,6.8c.004.88.086,1.193.182.695.096-.497.092-1.217-.008-1.6-.1-.382-.179.025-.174.905M186,225.571c0,.204-.315.453-.7.553-.527.138-.477.195.2.23.554.028.9-.185.9-.554c0-.33-.09-.6-.2-.6s-.2.167-.2.371m-8,11.736c0,.391-.428.705-1.1.806l-1.1.167l1.113.06c1.06.057,1.911-.849,1.336-1.424-.137-.137-.249.039-.249.391m-44,64.265c0,.205-.405.45-.9.546-.772.148-.743.181.2.228.735.036,1.1-.145,1.1-.546c0-.33-.09-.6-.2-.6s-.2.167-.2.372m-3.88,4.828c0,1.21.075,1.705.167,1.1.091-.605.091-1.595,0-2.2-.092-.605-.167-.11-.167,1.1M112.9,342.287c.605.091,1.595.091,2.2,0c.605-.092.11-.167-1.1-.167s-1.705.075-1.1.167m14.2-.005c.495.096,1.305.096,1.8,0c.495-.095.09-.173-.9-.173s-1.395.078-.9.173m86,0c.495.096,1.305.096,1.8,0c.495-.095.09-.173-.9-.173s-1.395.078-.9.173m17.4-.006c.385.1,1.015.1,1.4,0c.385-.101.07-.183-.7-.183s-1.085.082-.7.183m89.421.023c2.267.071,5.867.071,8-.001c2.134-.072.279-.13-4.121-.13s-6.145.059-3.879.131M169.9,354.293c.935.084,2.465.084,3.4,0s.17-.153-1.7-.153-2.635.069-1.7.153M237.6,399c0,.55.18,1,.4,1s.4-.45.4-1-.18-1-.4-1-.4.45-.4,1"
       fill="#48141c"
       fill-rule="evenodd"
       id="path49598" />
    <path
       d="M247.7,2.276c.385.1,1.015.1,1.4,0c.385-.101.07-.183-.7-.183s-1.085.082-.7.183M231.505,38.283c.497.096,1.217.092,1.6-.008.382-.1-.025-.179-.905-.174-.88.004-1.193.086-.695.182m8.2.004c.609.092,1.509.09,2-.005.492-.095-.005-.171-1.105-.168s-1.503.081-.895.173m7.195-.011c.385.1,1.015.1,1.4,0c.385-.101.07-.183-.7-.183s-1.085.082-.7.183m-34.4,4c.385.1,1.015.1,1.4,0c.385-.101.07-.183-.7-.183s-1.085.082-.7.183m5.6,0c.385.1,1.015.1,1.4,0c.385-.101.07-.183-.7-.183s-1.085.082-.7.183M58,53.572c0,.205-.405.45-.9.546-.772.148-.743.181.2.228.735.036,1.1-.145,1.1-.546c0-.33-.09-.6-.2-.6s-.2.167-.2.372m-4,3.595c0,.421-.225.857-.5.968-.299.121-.218.215.2.233.488.022.7-.27.7-.968c0-.55-.09-1-.2-1s-.2.345-.2.767m92,16c0,.421-.225.857-.5.968-.299.121-.218.215.2.233.488.022.7-.27.7-.968c0-.55-.09-1-.2-1s-.2.345-.2.767M294.15,83c.001,2.42.066,3.358.146,2.085s.079-3.253-.002-4.4c-.08-1.147-.145-.105-.144,2.315m-4.049,21.6c.004.88.086,1.193.182.695.096-.497.092-1.217-.008-1.6-.1-.382-.179.025-.174.905m-.008,5.4c0,.77.082,1.085.183.7.1-.385.1-1.015,0-1.4-.101-.385-.183-.07-.183.7m68.016,20.4c0,.99.078,1.395.173.9.096-.495.096-1.305,0-1.8-.095-.495-.173-.09-.173.9m-.008,7.4c.004.88.086,1.193.182.695.096-.497.092-1.217-.008-1.6-.1-.382-.179.025-.174.905m.013,39.6c.003,1.1.081,1.503.173.895.092-.609.09-1.509-.005-2-.095-.492-.171.005-.168,1.105m-.013,6.8c.004.88.086,1.193.182.695.096-.497.092-1.217-.008-1.6-.1-.382-.179.025-.174.905M186,225.571c0,.204-.315.453-.7.553-.527.138-.477.195.2.23.554.028.9-.185.9-.554c0-.33-.09-.6-.2-.6s-.2.167-.2.371m-8,11.736c0,.391-.428.705-1.1.806l-1.1.167l1.113.06c1.06.057,1.911-.849,1.336-1.424-.137-.137-.249.039-.249.391m-44,64.265c0,.205-.405.45-.9.546-.772.148-.743.181.2.228.735.036,1.1-.145,1.1-.546c0-.33-.09-.6-.2-.6s-.2.167-.2.372m-3.88,4.828c0,1.21.075,1.705.167,1.1.091-.605.091-1.595,0-2.2-.092-.605-.167-.11-.167,1.1M112.9,342.287c.605.091,1.595.091,2.2,0c.605-.092.11-.167-1.1-.167s-1.705.075-1.1.167m14.2-.005c.495.096,1.305.096,1.8,0c.495-.095.09-.173-.9-.173s-1.395.078-.9.173m86,0c.495.096,1.305.096,1.8,0c.495-.095.09-.173-.9-.173s-1.395.078-.9.173m17.4-.006c.385.1,1.015.1,1.4,0c.385-.101.07-.183-.7-.183s-1.085.082-.7.183m89.421.023c2.267.071,5.867.071,8-.001c2.134-.072.279-.13-4.121-.13s-6.145.059-3.879.131M169.9,354.293c.935.084,2.465.084,3.4,0s.17-.153-1.7-.153-2.635.069-1.7.153M237.6,399c0,.55.18,1,.4,1s.4-.45.4-1-.18-1-.4-1-.4.45-.4,1"
       fill="#48141c"
       fill-rule="evenodd"
       id="path49600"
       style="fill:#fffeff;fill-opacity:1" />
  </g>
</svg>
